<?xml version="1.0" encoding="UTF-8" standalone="no"?>
<!-- Created with Inkscape (http://www.inkscape.org/) -->

<svg
   width="42"
   height="42"
   viewBox="0 0 11.112499 11.1125"
   version="1.1"
   id="svg1"
   inkscape:version="1.3.2 (091e20e, 2023-11-25)"
   sodipodi:docname="adrenaline-gauge.svg"
   xmlns:inkscape="http://www.inkscape.org/namespaces/inkscape"
   xmlns:sodipodi="http://sodipodi.sourceforge.net/DTD/sodipodi-0.dtd"
   xmlns="http://www.w3.org/2000/svg"
   xmlns:svg="http://www.w3.org/2000/svg">
  <sodipodi:namedview
     id="namedview1"
     pagecolor="#505050"
     bordercolor="#ffffff"
     borderopacity="1"
     inkscape:showpageshadow="0"
     inkscape:pageopacity="0"
     inkscape:pagecheckerboard="1"
     inkscape:deskcolor="#d1d1d1"
     inkscape:document-units="px"
     inkscape:zoom="10.271508"
     inkscape:cx="25.312739"
     inkscape:cy="18.351736"
     inkscape:window-width="1728"
     inkscape:window-height="1051"
     inkscape:window-x="0"
     inkscape:window-y="38"
     inkscape:window-maximized="1"
     inkscape:current-layer="layer1" />
  <defs
     id="defs1">
    <filter
       inkscape:collect="always"
       style="color-interpolation-filters:sRGB"
       id="filter3"
       x="-0.021976798"
       y="-0.021976875"
       width="1.0439536"
       height="1.0439538">
      <feGaussianBlur
         inkscape:collect="always"
         stdDeviation="0.096910388"
         id="feGaussianBlur3" />
    </filter>
  </defs>
  <g
     inkscape:label="Layer 1"
     inkscape:groupmode="layer"
     id="layer1">
    <path
       id="path1"
       style="fill:#000000;fill-opacity:1;stroke-width:0.013418;filter:url(#filter3)"
       d="M 2.5796874 0.26458332 A 2.3151042 2.3151042 0 0 0 0.26458332 2.5796874 A 2.3151042 2.3151042 0 0 0 2.5796874 4.8947914 A 2.3151042 2.3151042 0 0 0 4.8947914 2.5796874 A 2.3151042 2.3151042 0 0 0 2.5796874 0.26458332 z M 9.7089677 4.4979165 C 9.8466365 4.7226416 9.9429785 4.9822021 9.9751013 5.2580767 C 9.5404108 4.6591497 9.1968725 4.7177736 8.682157 4.913395 C 9.5676394 5.0445696 10.041789 5.8171308 9.9751013 6.8016517 C 10.630545 5.973491 10.443967 4.6440254 9.7089677 4.4979165 z M 6.0032509 4.5366738 C 5.9900069 4.5366469 5.9764822 4.5369491 5.9629433 4.5371906 C 5.4997266 4.5452142 4.5172926 4.8886729 4.5604449 5.8926633 C 4.843297 5.146138 5.4442829 5.1052722 5.9629433 5.4616819 C 6.5856336 5.8896365 6.2590176 6.7811985 5.735567 6.8094032 C 5.8917125 6.5768688 5.9646125 6.2642863 5.7758746 6.0678464 C 5.4418328 5.7201854 5.0408444 6.127835 5.0307005 6.4647214 C 5.0118749 7.0902698 5.6403461 7.3786569 6.0414914 7.2796587 C 6.4466085 7.1796944 6.7134209 7.4464734 6.5350013 7.9772905 C 6.3329795 8.578351 4.9101136 8.9964742 4.7485471 7.8677365 C 4.7713577 9.058318 5.3286278 9.610038 6.1510455 9.1839351 C 6.7074507 8.895622 7.2093982 9.4386508 7.1463335 9.920841 C 6.7063295 9.4143507 6.0446437 10.161895 6.6290524 10.469128 C 7.6888082 11.026271 9.3047082 11.00832 10.194726 10.147701 C 11.063342 9.3077324 11.01077 7.7967465 10.359057 6.6605751 C 10.283728 7.017602 9.9780265 7.3632788 9.3642859 7.561812 C 10.159465 6.5221564 9.3985256 4.786255 7.6243405 5.2265541 C 8.7541383 5.2893911 8.6117223 6.679252 7.6951372 6.6373207 C 6.8596771 6.5991057 7.6843152 4.5399478 6.0032509 4.5366738 z M 7.9648882 7.3070472 C 7.2043142 7.9974583 8.1786147 9.3687973 9.1586137 9.2102901 C 8.7085328 9.0837581 8.2897419 8.5125397 8.4227413 7.8677365 C 8.8461874 8.7550035 10.166055 8.7552981 10.26759 7.6419105 C 10.669861 8.5632592 10.446499 9.6254579 9.7782141 10.086206 C 8.9939304 10.626885 7.6831038 10.414774 7.3365028 9.2971065 C 7.5985166 9.5624479 8.1256537 9.7296831 8.4459957 9.6826127 C 7.1993537 9.3212652 7.0159922 7.7346528 7.9648882 7.3070472 z M 4.5723305 8.9916988 C 4.3511209 10.557851 5.902788 10.565394 6.3226112 9.3849564 C 5.6742119 9.7142079 4.9773537 9.7873207 4.5723305 8.9916988 z " />
    <g
       id="g1"
       transform="translate(0.26458356,0.26458404)">
      <g
         class=""
         transform="matrix(0.01341804,0,0,0.01341804,3.9768,3.9535671)"
         id="g44"
         style="fill:#ffffff;fill-opacity:1">
        <path
           d="m 407.47,20.85 c 10.26,16.748 17.462,36.09 19.856,56.65 -32.396,-44.636 -58,-40.276 -96.36,-25.697 65.992,9.776 101.33,67.377 96.36,140.75 48.848,-61.72 34.92,-160.814 -19.857,-171.703 z m -276.167,2.896 c -0.987,-0.002 -1.985,0.006 -2.994,0.024 h -0.003 C 93.784,24.368 20.55,49.983 23.766,124.807 44.846,69.171 89.652,66.122 128.306,92.684 c 46.407,31.894 22.075,98.348 -16.936,100.45 11.637,-17.33 17.04,-40.65 2.974,-55.29 -24.895,-25.91 -54.777,4.487 -55.533,29.594 -1.403,46.62 45.44,68.116 75.336,60.738 30.192,-7.45 50.092,12.416 36.795,51.976 -15.056,44.795 -121.114,75.948 -133.155,-8.173 1.7,88.73 43.248,129.87 104.54,98.114 41.467,-21.487 78.87,18.96 74.17,54.896 -32.792,-37.747 -82.098,17.986 -38.544,40.883 78.98,41.522 199.4,40.194 265.73,-23.945 64.735,-62.6 60.833,-175.215 12.263,-259.89 -5.614,26.608 -28.43,52.367 -74.17,67.163 59.262,-77.482 2.572,-206.85 -129.652,-174.036 84.2,4.683 73.567,108.248 5.257,105.123 -62.264,-2.848 -0.79,-156.296 -126.074,-156.54 z M 277.508,230.22 c -56.683,51.454 15.914,153.65 88.95,141.837 -33.543,-9.43 -64.745,-51.995 -54.833,-100.05 31.558,66.125 129.923,66.127 137.49,-16.85 29.98,68.665 13.327,147.842 -36.478,182.18 -58.45,40.295 -156.124,24.466 -181.955,-58.83 19.527,19.775 58.78,32.23 82.654,28.722 C 220.428,380.299 206.79,262.087 277.508,230.219 Z M 24.68,355.77 C 8.194,472.49 123.817,473.05 155.105,385.076 106.782,409.614 54.865,415.066 24.68,355.771 Z"
           fill="#3e3126"
           fill-opacity="1"
           id="path44"
           style="fill:#ffffff;fill-opacity:1" />
      </g>
      <circle
         style="fill:#323232;fill-opacity:1;stroke:none;stroke-width:2.39662;stroke-linecap:round;stroke-opacity:1;paint-order:stroke fill markers"
         id="circle45"
         cx="2.315104"
         cy="2.3151035"
         r="2.3151042" />
    </g>
  </g>
</svg>
