<?xml version="1.0" encoding="UTF-8" standalone="no"?>
<svg
   width="76.5"
   height="8.5"
   viewBox="0 0 20.240526 2.249"
   version="1.1"
   id="svg12"
   sodipodi:docname="toxicity bar copy 2.svg"
   inkscape:version="1.3.2 (091e20e, 2023-11-25)"
   xmlns:inkscape="http://www.inkscape.org/namespaces/inkscape"
   xmlns:sodipodi="http://sodipodi.sourceforge.net/DTD/sodipodi-0.dtd"
   xmlns:xlink="http://www.w3.org/1999/xlink"
   xmlns="http://www.w3.org/2000/svg"
   xmlns:svg="http://www.w3.org/2000/svg">
  <sodipodi:namedview
     id="namedview12"
     pagecolor="#505050"
     bordercolor="#ffffff"
     borderopacity="1"
     inkscape:showpageshadow="0"
     inkscape:pageopacity="0"
     inkscape:pagecheckerboard="1"
     inkscape:deskcolor="#d1d1d1"
     inkscape:zoom="9.623162"
     inkscape:cx="64.947467"
     inkscape:cy="29.668003"
     inkscape:window-width="1728"
     inkscape:window-height="1051"
     inkscape:window-x="0"
     inkscape:window-y="38"
     inkscape:window-maximized="1"
     inkscape:current-layer="svg12" />
  <defs
     id="defs2">
    <linearGradient
       id="a">
      <stop
         offset="0"
         id="stop1" />
      <stop
         offset="1"
         stop-opacity="0"
         id="stop2" />
    </linearGradient>
    <linearGradient
       xlink:href="#a"
       id="b"
       x1="0.26499999"
       y1="1.124"
       x2="42.466"
       y2="1.124"
       gradientUnits="userSpaceOnUse" />
  </defs>
  <path
     d="M 20.2405,0.99155848 C 20.173534,0.42575058 19.693288,-3.9424769e-4 19.123059,0 18.553593,6.1873762e-4 18.074494,0.42650779 18.007618,0.99155848 H 15.739722 C 15.6728,0.42612939 15.193128,1.1255748e-4 14.623281,0 14.053815,6.1873762e-4 13.574716,0.42650779 13.50784,0.99155848 H 11.240944 C 11.173978,0.42575058 10.693732,-3.9424769e-4 10.123502,0 9.5540364,6.1873762e-4 9.074938,0.42650779 9.0080615,0.99155848 H 6.7421661 C 6.6751556,0.42537135 6.1943351,-9.0167877e-4 5.6237242,0 5.0542583,6.1873762e-4 4.57516,0.42650779 4.5082834,0.99155848 H 2.2413877 C 2.1744214,0.42575058 1.6941754,-3.9424769e-4 1.1239461,0 0.50293269,0 -4.9818099e-4,0.50300796 -4.9818099e-4,1.1234997 -0.00160458,1.7447721 0.50215049,2.2489996 1.1239461,2.2489986 1.6937938,2.248886 2.1734656,1.8228692 2.2403873,1.2574401 H 4.5082834 C 4.57516,1.8224908 5.0542583,2.2483798 5.6237242,2.2489986 6.1935719,2.248886 6.6732437,1.8228692 6.7401654,1.2574401 h 2.2678961 c 0.066876,0.5650507 0.5459749,0.9909397 1.1154405,0.9915585 0.569466,-6.188e-4 1.048565,-0.4265078 1.115441,-0.9915585 h 2.268897 c 0.06688,0.5650507 0.545975,0.9909397 1.115441,0.9915585 0.569466,-6.188e-4 1.048564,-0.4265078 1.11544,-0.9915585 h 2.268897 c 0.06688,0.5650507 0.545975,0.9909397 1.115441,0.9915585 0.569466,-6.188e-4 1.048564,-0.4265078 1.11544,-0.9915585 z M 1.1239461,0.26488205 c 0.4751527,0 0.86034,0.38486375 0.86034,0.85961725 0,0.4747535 -0.3851873,0.8596172 -0.86034,0.8596172 -0.47515259,0 -0.86033992,-0.3848637 -0.86033992,-0.8596172 0,-0.4747535 0.38518733,-0.85961725 0.86033992,-0.85961725 z m 4.4997781,0 c 0.4751527,0 0.86034,0.38486375 0.86034,0.85961725 0,0.4747535 -0.3851873,0.8596172 -0.86034,0.8596172 -0.4751527,0 -0.86034,-0.3848637 -0.86034,-0.8596172 0,-0.4747535 0.3851873,-0.85961725 0.86034,-0.85961725 z m 4.4997778,0 c 0.475153,0 0.86034,0.38486375 0.86034,0.85961725 0,0.4747535 -0.385187,0.8596172 -0.86034,0.8596172 -0.4751524,0 -0.8603397,-0.3848637 -0.8603397,-0.8596172 0,-0.4747535 0.3851873,-0.85961725 0.8603397,-0.85961725 z m 4.499779,0 c 0.475152,0 0.86034,0.38486375 0.86034,0.85961725 0,0.4747535 -0.385188,0.8596172 -0.86034,0.8596172 -0.475153,0 -0.86034,-0.3848637 -0.86034,-0.8596172 0,-0.4747535 0.385187,-0.85961725 0.86034,-0.85961725 z m 4.499778,0 c 0.475152,0 0.86034,0.38486375 0.86034,0.85961725 0,0.4747535 -0.385188,0.8596172 -0.86034,0.8596172 -0.475153,0 -0.86034,-0.3848637 -0.86034,-0.8596172 0,-0.4747535 0.385187,-0.85961725 0.86034,-0.85961725 z"
     fill="#191814"
     id="path11"
     style="stroke-width:0.999977;paint-order:stroke fill markers"
     sodipodi:nodetypes="ccccccccccccccccccccccccccccccsssssssssssssssssssssssss" />
</svg>
