<?xml version="1.0" encoding="UTF-8" standalone="no"?>
<svg
   viewBox="0 0 512 512"
   style="height: 512px; width: 512px;"
   version="1.1"
   id="svg12"
   sodipodi:docname="bandolier.svg"
   inkscape:version="1.3.2 (091e20e, 2023-11-25)"
   xml:space="preserve"
   xmlns:inkscape="http://www.inkscape.org/namespaces/inkscape"
   xmlns:sodipodi="http://sodipodi.sourceforge.net/DTD/sodipodi-0.dtd"
   xmlns="http://www.w3.org/2000/svg"
   xmlns:svg="http://www.w3.org/2000/svg"><sodipodi:namedview
     id="namedview12"
     pagecolor="#505050"
     bordercolor="#ffffff"
     borderopacity="1"
     inkscape:showpageshadow="0"
     inkscape:pageopacity="0"
     inkscape:pagecheckerboard="1"
     inkscape:deskcolor="#d1d1d1"
     inkscape:zoom="0.34330382"
     inkscape:cx="340.806"
     inkscape:cy="259.24559"
     inkscape:window-width="1248"
     inkscape:window-height="406"
     inkscape:window-x="0"
     inkscape:window-y="38"
     inkscape:window-maximized="0"
     inkscape:current-layer="svg12" /><defs
     id="defs2"><radialGradient
       id="delapouite-viking-shield-gradient-0"><stop
         offset="0%"
         stop-color="#830000"
         stop-opacity="1"
         id="stop1" /><stop
         offset="100%"
         stop-color="#000"
         stop-opacity="1"
         id="stop2" /></radialGradient></defs><path
     d="M0 0h512v512H0z"
     fill="url(#pattern)"
     id="path2" /><svg
     version="1.1"
     id="svg11"><defs
       id="defs6"><filter
         id="b"
         x="-0.023338979"
         width="1.046678"
         y="-0.023448784"
         height="1.0468976"
         color-interpolation-filters="sRGB"><feGaussianBlur
           stdDeviation="4.823"
           id="feGaussianBlur2" /></filter><filter
         id="a"
         x="-0.012011281"
         width="1.0240226"
         y="-0.011988317"
         height="1.0239766"
         color-interpolation-filters="sRGB"><feGaussianBlur
           stdDeviation="2.55"
           id="feGaussianBlur3" /></filter><filter
         id="c"
         x="-0.11244604"
         width="1.2248921"
         y="-0.082623731"
         height="1.1652475"
         color-interpolation-filters="sRGB"><feGaussianBlur
           stdDeviation="15.63"
           id="feGaussianBlur4" /></filter><filter
         id="e"
         x="-0.23758603"
         width="1.4751721"
         y="-0.24869778"
         height="1.4973956"
         color-interpolation-filters="sRGB"><feGaussianBlur
           stdDeviation="18.7"
           id="feGaussianBlur5" /></filter><filter
         id="d"
         x="-0.21301439"
         width="1.4260288"
         y="-0.15141701"
         height="1.302834"
         color-interpolation-filters="sRGB"><feGaussianBlur
           stdDeviation="18.7"
           id="feGaussianBlur6" /></filter></defs><path
       d="M196.6 1.207c-2.5 11.323-4.8 22.703-10.2 33.383-7-10.68-12.6-20.91-16.7-31.988L2.494 4.338C13 104.9 10.86 175.3 1.979 278.3L15.4 295.5l-9.494 6.3L2.6 462.7l1.019 45.9 112.681 3.1c3.6-16.1 6.5-32.5 13.2-47.3 4.5 14.4 5.7 29.4 7 44.4l160 .3c.8-6.1.7-8.1 2.3-14.4 5.1 4.5 7.8 9.5 10.6 14.5.8-10.1 3.9-19.8 7-29.5 4.8 9.2 6.7 19.4 8.8 29.5l185.2.4-4.6-78.2-21.4-8.2 21.3-4.9 5.8-395.47c-7-6.73-13.3-13.744-18-21.465l-15.1.114-2.1 20.321-1.4 47.23.8 84.87-8.6-97.14c9.3-16.86 2.2-39.69 5.7-55.239-92.1 1.696-184.1.685-276.2-.314z"
       overflow="visible"
       color="#000"
       fill="#ebc893"
       fill-rule="evenodd"
       stroke="#e0aa58"
       enable-background="accumulate"
       id="path6" /><path
       d="M196.6 1.203c-2.5 11.327-4.8 22.707-10.2 33.387-7-10.68-12.6-20.91-16.7-31.99L2.494 4.336C13 104.9 10.86 175.3 1.979 278.3L15.4 295.5l-9.494 6.3L2.6 462.7l1.019 45.9 112.681 3.1c.5-2.1-7.9-2.3-7.4-4.5L5.244 504.5l-.914-47.3 4.63-153.7 12.42-9-13.093-16.8C16.95 177.3 16.36 104 6.113 5.992l162.687.164c4 10.804 10.3 24.254 17.1 34.664 5.3-10.41 9.5-25.97 12-37.02 89.8.974 173.8 3.521 263.6 1.867 4.6 1.226 10.6.431 11.3-4.149-92.1 1.696-184.1.684-276.2-.315zm296.9.158l-15.1.116-.6 6.277 13.5-2.557c4.6 7.533 9.7 12.383 16.6 18.943l-4.6 389.06-19.9 9.9 4.1-.6 18.2-4.2 5.8-395.47c-7-6.73-13.3-13.748-18-21.469zm9.6 435.739l3.5 69.7-177.7.1c.4 2.1-4.1.2-3.7 2.3l185.2.4-4.6-78.2zm-370 25.1c-1 2.2-2.9.4-3.7 2.6 4.2 14 5.8 29.5 7.1 44l158 .3c1.9-5 .8-9.7 4.3-14.4 5.1 4.5 7.8 9.5 10.6 14.5.8-10.1 3.9-19.8 7-29.5 1.8 3.4 3.2 7 4.3 10.6-1.4-5.6-2.4-8.3-5.1-13.4-3 9.4-6.7 16.2-7.5 26-2.7-4.9-5.4-9.7-10.4-14.1-3.4 4.6-6.2 9.1-8 14l-147.6 3.4c-3.4-14.6-7.1-30.3-9-44z"
       overflow="visible"
       color="#000"
       opacity=".527"
       fill="#c87137"
       fill-rule="evenodd"
       filter="url(#a)"
       enable-background="accumulate"
       id="path7" /><path
       d="M200.1 16.1c-2.3 10.67-10.5 21.38-15.6 31.44-6.6-10.06-13.9-19.69-17.7-30.12L17.34 19.05C24.61 113.6 7.605 179.3 16.85 277l18.26 20.1L10.34 309l7.1 141.6.96 43.3 90.2 3.4c3.4-15.2 15-35.6 21.3-49.6 4.3 13.6 15.4 36.7 16.6 50.9l45.1.8 13.8-18.7 14.4 22.2 68.7-8.6c1.8-4.7 4.5-9.1 7.8-13.5 4.8 4.2 7.4 8.9 10 13.6.8-9.5 7.7-19.6 10.6-28.7 4.5 8.6 19.9 28.9 33.1 33.9l114.6 5.6 22.3-14.7 19.4 14.7-14.5-67.6-34.6-14.2 37.5-15.1 2.1-96.9-14.5-21.9 15.2-13.4 5.1-239.63c-5.2-21.09-11.8-24.89-16.9-20.22l-4.2 2.11 2 19.14.7 44.47-7.1 124.23-18.3-137.78c8.8-15.88-3.9-35.38-.6-50.02-67.1 1.24-140.4-13.332-202.8-3.28-14 2.25-23.7 21.31-36.9 24.48-4.3 1.03-13.9-23.45-18.4-23.5z"
       overflow="visible"
       enable-background="accumulate"
       filter="url(#b)"
       fill-rule="evenodd"
       fill="#f6e7d0"
       color="#000"
       id="path8" /><path
       d="M354 27.39l-70.3 96.91 46.4 97.6-56.2 43.6 33 74.4-30.2 63.2 69.8 48.8 31.6 29.5 31.6-13.3L365.9 335l55.5-36.5 2.1-146.1-56.9-101.83zM116.6 55.48L89.9 123.6s33.7 65.3 35.8 68.8c2.1 3.6-7 118-7 118l42.8 73.8s9.9-82.9 7.1-83.6c-2.8-.7-29.5-42.1-29.5-42.1l23.8-84.3-36.5-37.2z"
       color="#000"
       overflow="visible"
       fill="#f2dbb9"
       fill-rule="evenodd"
       filter="url(#c)"
       enable-background="accumulate"
       id="path9" /><path
       d="M39.33 172.1l-5.62 108.1L74.45 328 42.84 464.9l96.96-39.3 30.2 42.9 74.4-38.7-80.8-169.9-60.4-16.9z"
       color="#000"
       overflow="visible"
       fill="#eed3a4"
       fill-rule="evenodd"
       enable-background="accumulate"
       filter="url(#d)"
       id="path10" /><path
       d="M266.9 66.72L324.5 191 434 221.2l21.8-111.6-41.4-68.86z"
       color="#000"
       overflow="visible"
       fill="#eed3a4"
       fill-rule="evenodd"
       enable-background="accumulate"
       filter="url(#e)"
       id="path11" /></svg><path
     id="path1"
     style="fill:#3e3126;fill-opacity:1;stroke-width:2.65375"
     d="M 104.32435,57.075212 57.471939,103.64387 77.981275,123.90518 124.41103,77.360329 Z m 30.12904,30.428672 -46.852411,46.568656 20.507361,20.2613 46.42777,-46.54485 z m 30.33739,30.414766 c -0.79072,0 -46.85241,45.78271 -46.85241,46.56866 0,0.25609 4.47632,4.94924 9.9471,10.4273 5.4708,5.47797 10.22269,9.90352 10.56026,9.834 0.89391,-0.1839 46.42975,-45.83251 46.42975,-46.54485 0,-0.88121 -19.21218,-20.28511 -20.0847,-20.28511 z m 36.92711,26.15853 c -3.9258,0.017 -7.76356,1.10479 -10.86582,3.26015 -2.95424,2.05255 -42.379,41.72102 -43.91172,44.18357 -3.66527,5.8888 -3.72769,13.9485 -0.15675,20.50933 0.90698,1.66647 4.8214,5.94648 12.13772,13.27075 5.93942,5.9459 11.37208,11.32689 12.07027,11.95716 l 1.26795,1.14691 11.57421,-11.51071 c 6.36533,-6.32998 12.05051,-11.65223 12.63378,-11.82819 1.31968,-0.39793 3.95332,0.43568 4.98844,1.57947 1.22112,1.34932 1.46998,4.01936 0.50996,5.48451 -0.44972,0.6864 -4.16404,4.50812 -8.25255,8.49264 -4.08851,3.98449 -7.43305,7.58761 -7.43305,8.00849 0,0.42088 4.63266,5.39705 10.29635,11.05631 l 10.29831,10.28839 8.58194,-8.57201 c 7.83831,-7.82967 8.7488,-8.59471 10.51858,-8.83196 1.75358,-0.23511 2.09494,-0.10362 3.58952,1.39097 1.34915,1.34915 1.65091,2.00035 1.65091,3.55779 0,1.86742 -0.23796,2.14541 -11.7012,13.58823 -6.43622,6.42486 -11.70318,12.02976 -11.70318,12.45521 l 33.0221,-33.18678 -32.97844,33.25425 0.44448,0.53178 c 2.97684,3.55039 31.16231,31.25412 31.7978,31.25412 0.42543,0 6.02836,-5.26898 12.45323,-11.70517 11.44286,-11.46326 11.72079,-11.70318 13.58823,-11.70318 1.55746,0 2.20864,0.30373 3.55778,1.6529 1.49458,1.49453 1.62617,1.83601 1.39096,3.58953 -0.23724,1.76977 -1.00221,2.68226 -8.83194,10.52056 l -8.57202,8.57994 10.29039,10.29633 c 5.65928,5.66368 10.63344,10.29833 11.05433,10.29833 0.42088,0 4.02593,-3.3445 8.01046,-7.43304 3.98451,-4.08846 7.80627,-7.80081 8.49265,-8.25057 1.46519,-0.96006 4.13317,-0.71319 5.48251,0.50797 1.14378,1.03514 1.9774,3.66675 1.57948,4.98646 -0.17595,0.58325 -5.49818,6.2704 -11.82819,12.63578 l -11.50872,11.57222 1.14492,1.26992 c 0.63027,0.69816 6.01127,6.12889 11.95716,12.06829 7.32427,7.31633 11.60427,11.23076 13.27075,12.13769 6.56086,3.57093 14.62056,3.51242 20.50933,-0.1527 2.46254,-1.53275 42.13298,-40.9594 44.18556,-43.91376 4.31071,-6.20444 4.34939,-15.34612 0.0952,-22.26144 -1.36029,-2.21118 -23.97866,-25.12473 -24.8013,-25.12473 -0.2938,0 -1.26844,0.78864 -2.16482,1.7541 -0.89638,0.96544 -6.14634,6.23232 -11.66548,11.70318 -9.52544,9.44194 -10.12326,9.94709 -11.81033,9.9471 -2.62719,0 -4.96066,-2.43019 -4.96066,-5.16702 0,-1.91962 0.17561,-2.15126 5.3833,-7.14136 2.96067,-2.83702 5.38225,-5.39021 5.38132,-5.67102 -0.002,-0.59281 -20.26047,-20.87047 -20.85063,-20.87047 -0.21708,0 -2.64012,2.21179 -5.3833,4.91501 -4.1741,4.11314 -5.22365,4.91304 -6.43893,4.91304 -2.11847,0 -3.72976,-0.88614 -4.82176,-2.65296 -1.72448,-2.79019 -1.11899,-3.81106 6.81594,-11.48292 3.91349,-3.78378 8.97212,-8.90025 11.24085,-11.37181 l 4.12527,-4.49436 -16.10029,-16.12213 c -8.85388,-8.86632 -16.30382,-16.11878 -16.5547,-16.12213 l -1.18858,1.19849 -3.26212,2.99425 c -2.47154,2.26875 -7.59004,7.32736 -11.3738,11.24084 -7.67185,7.93495 -8.69068,8.54044 -11.48094,6.81595 -1.76687,-1.09198 -2.65296,-2.70326 -2.65296,-4.82176 0,-1.21532 0.80178,-2.26681 4.91502,-6.44091 2.7032,-2.74321 4.91502,-5.16623 4.91502,-5.38331 0,-0.59017 -20.27975,-20.84673 -20.87246,-20.84864 -0.2809,-7.1e-4 -2.83203,2.42067 -5.66903,5.38132 -4.9901,5.20764 -5.22377,5.38132 -7.14334,5.38132 -2.73685,0 -5.16901,-2.3335 -5.16901,-4.96066 0,-1.68706 0.50707,-2.28489 9.94909,-11.81033 5.47077,-5.51916 10.73576,-10.76916 11.70119,-11.66548 0.96543,-0.89639 1.75608,-1.86905 1.75608,-2.16284 0,-0.82264 -22.91356,-23.44302 -25.12473,-24.80329 -3.45769,-2.12712 -7.46983,-3.17982 -11.39563,-3.16291 z m 50.88443,25.79939 c -0.40321,0 -0.87296,0.22506 -1.04174,0.49804 -0.16878,0.27294 4.9276,5.73251 11.32418,12.13376 6.39668,6.40125 11.87124,11.65484 12.16552,11.67342 0.29428,0.0186 0.65582,-0.27913 0.80363,-0.66472 0.32196,-0.83899 -22.10441,-23.6405 -23.25159,-23.6405 z m -6.78816,9.22284 -2.85138,2.48034 c -1.56853,1.3642 -2.85338,2.71121 -2.85338,2.99226 0,0.28104 4.57994,5.09354 10.17728,10.69517 5.59731,5.60166 10.38408,10.18522 10.63566,10.18522 0.61794,0 5.40116,-4.75697 5.40116,-5.3714 0,-0.26844 -4.61461,-5.09917 -10.25467,-10.73486 z m 74.32849,58.27383 c -0.38559,0.14779 -0.68421,0.51128 -0.66474,0.8056 0.0186,0.29431 5.27423,5.76885 11.6754,12.16551 6.40127,6.39668 11.86083,11.48887 12.13378,11.32022 0.27293,-0.16875 0.49606,-0.63453 0.49606,-1.03777 0,-1.14719 -22.80152,-23.57551 -23.6405,-23.25356 z m -141.33505,8.80218 c -0.52656,0 -7.48064,6.72239 -7.61758,7.36359 -0.0674,0.3163 4.50694,5.21428 10.16537,10.88369 5.65847,5.66937 10.40228,10.30626 10.5424,10.30626 0.58658,0 7.58525,-7.43066 7.42708,-7.88546 -0.23087,-0.66349 -20.08941,-20.66808 -20.51727,-20.66808 z m 134.77308,0.72822 c -0.61442,0 -5.37139,4.78317 -5.37139,5.40117 0,0.25154 4.58157,5.03632 10.18324,10.63366 5.60168,5.59732 10.41413,10.17729 10.69517,10.17729 0.28107,0 1.63002,-1.2829 2.99425,-2.85139 l 2.47834,-2.85139 -10.24673,-10.25268 c -5.63571,-5.64011 -10.46442,-10.25666 -10.73288,-10.25666 z m -66.76446,67.0006 c -0.4548,-0.15818 -7.88547,6.83851 -7.88547,7.42512 0,0.14009 4.63883,4.886 10.30825,10.54436 5.66935,5.6585 10.5654,10.23096 10.88169,10.1634 0.64124,-0.13685 7.3636,-7.09102 7.3636,-7.61759 0,-0.42781 -20.00458,-20.28447 -20.66807,-20.51529 z m 128.63972,14.44742 c -0.71235,0 -46.36104,45.5358 -46.54484,46.42973 -0.0695,0.3376 4.35597,5.08946 9.834,10.56031 5.47802,5.47075 10.17107,9.94709 10.42731,9.94709 0.78595,0 46.56865,-46.05974 46.56865,-46.85044 0,-0.8726 -19.40392,-20.08669 -20.28512,-20.08669 z m 30.32746,30.22825 -46.85239,46.56871 20.50734,20.26327 46.42976,-46.54682 z m 30.12706,30.42864 -46.8524,46.56865 20.50735,20.26135 46.42976,-46.54489 z" /></svg>
