<?xml version="1.0" encoding="UTF-8" standalone="no"?>
<svg
   viewBox="0 0 512 512"
   style="height: 512px; width: 512px;"
   version="1.1"
   id="svg12"
   sodipodi:docname="mace-swing.svg"
   inkscape:version="1.3.2 (091e20e, 2023-11-25)"
   xmlns:inkscape="http://www.inkscape.org/namespaces/inkscape"
   xmlns:sodipodi="http://sodipodi.sourceforge.net/DTD/sodipodi-0.dtd"
   xmlns="http://www.w3.org/2000/svg"
   xmlns:svg="http://www.w3.org/2000/svg">
  <sodipodi:namedview
     id="namedview12"
     pagecolor="#505050"
     bordercolor="#ffffff"
     borderopacity="1"
     inkscape:showpageshadow="0"
     inkscape:pageopacity="0"
     inkscape:pagecheckerboard="1"
     inkscape:deskcolor="#d1d1d1"
     inkscape:zoom="0.40408327"
     inkscape:cx="138.5853"
     inkscape:cy="565.47751"
     inkscape:window-width="1728"
     inkscape:window-height="1051"
     inkscape:window-x="0"
     inkscape:window-y="38"
     inkscape:window-maximized="1"
     inkscape:current-layer="svg12"
     showgrid="false" />
  <defs
     id="defs2">
    <radialGradient
       id="lorc-axe-swing-gradient-0">
      <stop
         offset="0%"
         stop-color="#830000"
         stop-opacity="1"
         id="stop1" />
      <stop
         offset="100%"
         stop-color="#000"
         stop-opacity="1"
         id="stop2" />
    </radialGradient>
  </defs>
  <path
     d="M0 0h512v512H0z"
     fill="url(#pattern)"
     id="path2" />
  <svg
     version="1.1"
     id="svg11">
    <defs
       id="defs6">
      <filter
         id="b"
         x="-0.023338979"
         width="1.046678"
         y="-0.023448784"
         height="1.0468976"
         color-interpolation-filters="sRGB">
        <feGaussianBlur
           stdDeviation="4.823"
           id="feGaussianBlur2" />
      </filter>
      <filter
         id="a"
         x="-0.012011281"
         width="1.0240226"
         y="-0.011988317"
         height="1.0239766"
         color-interpolation-filters="sRGB">
        <feGaussianBlur
           stdDeviation="2.55"
           id="feGaussianBlur3" />
      </filter>
      <filter
         id="c"
         x="-0.11244604"
         width="1.2248921"
         y="-0.082623731"
         height="1.1652475"
         color-interpolation-filters="sRGB">
        <feGaussianBlur
           stdDeviation="15.63"
           id="feGaussianBlur4" />
      </filter>
      <filter
         id="e"
         x="-0.23758603"
         width="1.4751721"
         y="-0.24869778"
         height="1.4973956"
         color-interpolation-filters="sRGB">
        <feGaussianBlur
           stdDeviation="18.7"
           id="feGaussianBlur5" />
      </filter>
      <filter
         id="d"
         x="-0.21301439"
         width="1.4260288"
         y="-0.15141701"
         height="1.302834"
         color-interpolation-filters="sRGB">
        <feGaussianBlur
           stdDeviation="18.7"
           id="feGaussianBlur6" />
      </filter>
    </defs>
    <path
       d="M196.6 1.207c-2.5 11.323-4.8 22.703-10.2 33.383-7-10.68-12.6-20.91-16.7-31.988L2.494 4.338C13 104.9 10.86 175.3 1.979 278.3L15.4 295.5l-9.494 6.3L2.6 462.7l1.019 45.9 112.681 3.1c3.6-16.1 6.5-32.5 13.2-47.3 4.5 14.4 5.7 29.4 7 44.4l160 .3c.8-6.1.7-8.1 2.3-14.4 5.1 4.5 7.8 9.5 10.6 14.5.8-10.1 3.9-19.8 7-29.5 4.8 9.2 6.7 19.4 8.8 29.5l185.2.4-4.6-78.2-21.4-8.2 21.3-4.9 5.8-395.47c-7-6.73-13.3-13.744-18-21.465l-15.1.114-2.1 20.321-1.4 47.23.8 84.87-8.6-97.14c9.3-16.86 2.2-39.69 5.7-55.239-92.1 1.696-184.1.685-276.2-.314z"
       overflow="visible"
       color="#000"
       fill="#ebc893"
       fill-rule="evenodd"
       stroke="#e0aa58"
       enable-background="accumulate"
       id="path6" />
    <path
       d="M196.6 1.203c-2.5 11.327-4.8 22.707-10.2 33.387-7-10.68-12.6-20.91-16.7-31.99L2.494 4.336C13 104.9 10.86 175.3 1.979 278.3L15.4 295.5l-9.494 6.3L2.6 462.7l1.019 45.9 112.681 3.1c.5-2.1-7.9-2.3-7.4-4.5L5.244 504.5l-.914-47.3 4.63-153.7 12.42-9-13.093-16.8C16.95 177.3 16.36 104 6.113 5.992l162.687.164c4 10.804 10.3 24.254 17.1 34.664 5.3-10.41 9.5-25.97 12-37.02 89.8.974 173.8 3.521 263.6 1.867 4.6 1.226 10.6.431 11.3-4.149-92.1 1.696-184.1.684-276.2-.315zm296.9.158l-15.1.116-.6 6.277 13.5-2.557c4.6 7.533 9.7 12.383 16.6 18.943l-4.6 389.06-19.9 9.9 4.1-.6 18.2-4.2 5.8-395.47c-7-6.73-13.3-13.748-18-21.469zm9.6 435.739l3.5 69.7-177.7.1c.4 2.1-4.1.2-3.7 2.3l185.2.4-4.6-78.2zm-370 25.1c-1 2.2-2.9.4-3.7 2.6 4.2 14 5.8 29.5 7.1 44l158 .3c1.9-5 .8-9.7 4.3-14.4 5.1 4.5 7.8 9.5 10.6 14.5.8-10.1 3.9-19.8 7-29.5 1.8 3.4 3.2 7 4.3 10.6-1.4-5.6-2.4-8.3-5.1-13.4-3 9.4-6.7 16.2-7.5 26-2.7-4.9-5.4-9.7-10.4-14.1-3.4 4.6-6.2 9.1-8 14l-147.6 3.4c-3.4-14.6-7.1-30.3-9-44z"
       overflow="visible"
       color="#000"
       opacity=".527"
       fill="#c87137"
       fill-rule="evenodd"
       filter="url(#a)"
       enable-background="accumulate"
       id="path7" />
    <path
       d="M200.1 16.1c-2.3 10.67-10.5 21.38-15.6 31.44-6.6-10.06-13.9-19.69-17.7-30.12L17.34 19.05C24.61 113.6 7.605 179.3 16.85 277l18.26 20.1L10.34 309l7.1 141.6.96 43.3 90.2 3.4c3.4-15.2 15-35.6 21.3-49.6 4.3 13.6 15.4 36.7 16.6 50.9l45.1.8 13.8-18.7 14.4 22.2 68.7-8.6c1.8-4.7 4.5-9.1 7.8-13.5 4.8 4.2 7.4 8.9 10 13.6.8-9.5 7.7-19.6 10.6-28.7 4.5 8.6 19.9 28.9 33.1 33.9l114.6 5.6 22.3-14.7 19.4 14.7-14.5-67.6-34.6-14.2 37.5-15.1 2.1-96.9-14.5-21.9 15.2-13.4 5.1-239.63c-5.2-21.09-11.8-24.89-16.9-20.22l-4.2 2.11 2 19.14.7 44.47-7.1 124.23-18.3-137.78c8.8-15.88-3.9-35.38-.6-50.02-67.1 1.24-140.4-13.332-202.8-3.28-14 2.25-23.7 21.31-36.9 24.48-4.3 1.03-13.9-23.45-18.4-23.5z"
       overflow="visible"
       enable-background="accumulate"
       filter="url(#b)"
       fill-rule="evenodd"
       fill="#f6e7d0"
       color="#000"
       id="path8" />
    <path
       d="M354 27.39l-70.3 96.91 46.4 97.6-56.2 43.6 33 74.4-30.2 63.2 69.8 48.8 31.6 29.5 31.6-13.3L365.9 335l55.5-36.5 2.1-146.1-56.9-101.83zM116.6 55.48L89.9 123.6s33.7 65.3 35.8 68.8c2.1 3.6-7 118-7 118l42.8 73.8s9.9-82.9 7.1-83.6c-2.8-.7-29.5-42.1-29.5-42.1l23.8-84.3-36.5-37.2z"
       color="#000"
       overflow="visible"
       fill="#f2dbb9"
       fill-rule="evenodd"
       filter="url(#c)"
       enable-background="accumulate"
       id="path9" />
    <path
       d="M39.33 172.1l-5.62 108.1L74.45 328 42.84 464.9l96.96-39.3 30.2 42.9 74.4-38.7-80.8-169.9-60.4-16.9z"
       color="#000"
       overflow="visible"
       fill="#eed3a4"
       fill-rule="evenodd"
       enable-background="accumulate"
       filter="url(#d)"
       id="path10" />
    <path
       d="M266.9 66.72L324.5 191 434 221.2l21.8-111.6-41.4-68.86z"
       color="#000"
       overflow="visible"
       fill="#eed3a4"
       fill-rule="evenodd"
       enable-background="accumulate"
       filter="url(#e)"
       id="path11" />
  </svg>
  <path
     id="path12"
     style="fill:#666666;stroke-width:0.754122"
     d="m 252.18359,87.15625 c -9.69604,0.61184 -18.83814,1.677045 -27.5625,3.083984 25.84702,10.529376 50.27311,24.310366 72.61329,41.039066 l 35.91601,60.91601 C 294.22073,147.83412 243.1069,115.74492 186.57031,99.757812 c -7.61337,2.692068 -14.7732,5.756298 -21.47851,9.191408 46.76303,10.08938 90.29481,31.52852 126.60156,62.20117 l 31.91016,73.46289 C 280.30924,180.53678 210.69471,138.56968 134.1875,129.76367 c -4.67708,4.07152 -9.05678,8.38695 -13.14844,12.9375 56.36946,3.82034 109.42345,26.6115 150.73047,63.69531 l 23.1582,66.22657 C 254.26412,208.08551 182.95239,168.05906 106.40625,167.2793 c -1.19559,-0.0122 -2.39766,0.0279 -3.5957,0.0351 -2.80725,4.61387 -5.418558,9.38672 -7.861331,14.29883 61.693291,-2.71888 120.682191,21.85479 162.167971,65.28711 L 272.7207,310.1855 C 241.54992,246.50844 176.78432,206.00828 106.67383,205.0332 c -0.94717,-0.0136 -1.89747,-0.0202 -2.84766,-0.0195 -6.379423,0.009 -12.801974,0.38811 -19.242186,1.06641 -1.738651,4.83102 -3.284515,9.82028 -4.783203,14.84765 64.263479,-9.14395 127.087789,18.45111 164.253909,68.99219 l 3.48437,55.31446 C 225.68996,282.6327 166.17724,242.1516 101.79883,242.77148 c -9.406788,0.0899 -18.916314,1.11076 -28.427736,3.01563 -1.08177,4.962 -2.114375,9.96326 -3.033203,15.05859 C 128.571,246.58982 187.47716,271.38965 218.9707,319.01758 l 3.76563,36.85547 c 13.64136,-3.02903 27.28242,-6.05704 40.92383,-9.08594 4.6836,-1.02913 9.40299,-2.11013 14.06445,-3.10742 9.8472,-2.19072 19.69235,-4.39333 29.54687,-6.55078 0.58735,-5.10943 1.91493,-10.09459 3.29688,-15.03711 -6.76939,-15.21594 -13.53927,-30.43248 -20.30859,-45.64844 14.06632,6.7091 28.13124,13.42112 42.19726,20.13086 0.36892,0.3069 0.55753,0.19991 0.74024,-0.18555 7.6291,-4.29551 16.18069,-7.09568 24.94531,-7.66211 6.30704,-10.69106 12.59398,-21.39504 18.92773,-32.07031 0.51915,-0.91306 1.02193,-2.17135 2.22657,-2.28711 0.59205,-0.0154 1.13848,0.37372 1.40234,0.89063 2.22114,11.91215 4.25931,23.86728 6.33789,35.80859 0.38912,1.18737 0.34067,2.63376 -0.56445,3.58398 5.14361,2.59058 9.87473,5.98373 14.02343,9.97461 19.55479,-5.23969 25.75931,-17.72957 14.59375,-44.43359 C 382.67066,182.85611 323.76155,122.48803 252.18359,87.15625 Z m 125.68555,176.65234 -13.48437,22.8711 c 6.41884,0.31454 12.54134,1.68145 18.20507,3.9414 z M 299,285.42188 l 20.02344,45.00781 c 11.76482,0.80475 25.18925,-10.24952 24.44531,-23.79688 z m 64.62891,7.57031 c -8.51117,-0.3436 -16.60552,1.44048 -23.7793,4.875 l 8.01953,3.82226 1.19141,0.7168 0.57812,1.71289 c 2.71529,19.4819 -16.06771,35.29123 -33.27539,32.43164 l -1.68945,-0.2793 -0.69141,-1.56054 -1.39453,-3.12696 c -0.76029,3.194 -1.20912,6.45376 -1.33984,9.73438 -0.0803,1.98988 -0.002,3.94493 0.14453,5.88281 1.09417,4.8152 2.18873,9.63217 3.2832,14.44727 1.81097,4.64414 4.25106,8.97839 7.28906,12.84375 l 4.12305,-17.12305 0.39649,-1.67383 1.61718,-0.57226 c 3.46392,-1.25318 7.14239,-1.81124 10.82227,-1.64453 15.37874,0.69738 28.83739,13.87401 29.49414,28.61718 l 0.082,1.70508 -1.39062,1.00391 -11.82227,8.54687 c 1.42092,0.17722 2.84856,0.29734 4.2793,0.35547 27.84044,1.12307 51.2533,-20.47818 52.37695,-48.32617 0.073,-1.75719 0.0549,-3.51804 -0.0527,-5.27344 l -6.05273,6.70703 -1.14453,1.26953 -1.69141,-0.25976 c -17.2475,-2.61731 -30.21212,-23.46805 -21.59179,-41.14844 l 0.90234,-1.86719 c 5.17091,-0.42987 6.97288,-0.70044 10.4707,-1.06445 -2.01287,-1.58659 -4.15252,-3.02453 -6.40039,-4.29492 -6.7426,-3.81185 -14.47091,-6.12307 -22.7539,-6.45703 z m 71.7207,11.61133 -13.5293,1.76757 -20.86523,2.56055 c 0.06,0.0482 0.12399,0.0932 0.18359,0.14063 l -14.63086,1.91211 c -4.90521,12.64666 4.41335,27.31953 15.84766,30.20507 z m -129.50977,37.27148 -23.13867,5.13672 5.2461,23.16797 23.14257,-5.13672 z m 112.45508,3.54883 c -0.002,0.0715 -0.003,0.142 -0.006,0.21289 -0.26923,6.77519 -1.7567,13.44647 -4.38867,19.69531 l 29.23047,-4.33594 z m -143.85937,3.42383 -181.267581,40.23242 c -0.546699,8.23153 0.319028,15.78037 5.029297,23.21289 l 181.488284,-40.2793 z m 64.26172,11.06054 c -2.26482,-0.14472 -4.57239,0.11416 -6.86329,0.74024 l -12.20507,50.64062 42.2539,-30.54101 c -0.73115,-5.33343 -3.82417,-10.51377 -8.2207,-14.38086 -1.46553,-1.28907 -3.07686,-2.43252 -4.79297,-3.38672 -3.12037,-1.73495 -6.58818,-2.84441 -10.17187,-3.07227 z m -254.076176,31.06641 -12.970703,2.87891 c -2.401562,8.73044 -1.004454,16.00336 5.255859,23.16601 l 12.636719,-2.80664 c -4.052293,-7.63661 -5.134526,-15.55993 -4.921875,-23.23828 z m 302.042966,3.27148 c -6.53906,3.23441 -13.6454,5.16821 -20.92187,5.69141 l 16.72851,25.82031 z"
     sodipodi:nodetypes="ccccccccccccccccccccccccccccccccccccccccccccccccccccccccccccccccccccccccccccccccccccccccccccccccccccccccccccccssccccccccccc" />
</svg>
