<?xml version="1.0" encoding="UTF-8" standalone="no"?>
<svg
   viewBox="0 0 512 512"
   style="height: 512px; width: 512px;"
   version="1.1"
   id="svg12"
   sodipodi:docname="bear--scarred hide.svg"
   xml:space="preserve"
   inkscape:version="1.4 (e7c3feb1, 2024-10-09)"
   xmlns:inkscape="http://www.inkscape.org/namespaces/inkscape"
   xmlns:sodipodi="http://sodipodi.sourceforge.net/DTD/sodipodi-0.dtd"
   xmlns="http://www.w3.org/2000/svg"
   xmlns:svg="http://www.w3.org/2000/svg"><sodipodi:namedview
     id="namedview12"
     pagecolor="#505050"
     bordercolor="#ffffff"
     borderopacity="1"
     inkscape:showpageshadow="0"
     inkscape:pageopacity="0"
     inkscape:pagecheckerboard="1"
     inkscape:deskcolor="#d1d1d1"
     inkscape:zoom="0.64491819"
     inkscape:cx="225.61001"
     inkscape:cy="586.12085"
     inkscape:window-width="1728"
     inkscape:window-height="1051"
     inkscape:window-x="0"
     inkscape:window-y="38"
     inkscape:window-maximized="1"
     inkscape:current-layer="svg12" /><defs
     id="defs2"><radialGradient
       id="lorc-fire-bomb-gradient-0"><stop
         offset="0%"
         stop-color="#830000"
         stop-opacity="1"
         id="stop1" /><stop
         offset="100%"
         stop-color="#000"
         stop-opacity="1"
         id="stop2" /></radialGradient></defs><path
     d="M0 0h512v512H0z"
     fill="url(#pattern)"
     id="path2" /><svg
     version="1.1"
     id="svg11"><defs
       id="defs6"><filter
         id="b"
         x="-0.023338979"
         width="1.046678"
         y="-0.023448784"
         height="1.0468976"
         color-interpolation-filters="sRGB"><feGaussianBlur
           stdDeviation="4.823"
           id="feGaussianBlur2" /></filter><filter
         id="a"
         x="-0.012011281"
         width="1.0240226"
         y="-0.011988317"
         height="1.0239766"
         color-interpolation-filters="sRGB"><feGaussianBlur
           stdDeviation="2.55"
           id="feGaussianBlur3" /></filter><filter
         id="c"
         x="-0.11244604"
         width="1.2248921"
         y="-0.082623731"
         height="1.1652475"
         color-interpolation-filters="sRGB"><feGaussianBlur
           stdDeviation="15.63"
           id="feGaussianBlur4" /></filter><filter
         id="e"
         x="-0.23758603"
         width="1.4751721"
         y="-0.24869778"
         height="1.4973956"
         color-interpolation-filters="sRGB"><feGaussianBlur
           stdDeviation="18.7"
           id="feGaussianBlur5" /></filter><filter
         id="d"
         x="-0.21301439"
         width="1.4260288"
         y="-0.15141701"
         height="1.302834"
         color-interpolation-filters="sRGB"><feGaussianBlur
           stdDeviation="18.7"
           id="feGaussianBlur6" /></filter></defs><path
       d="M196.6 1.207c-2.5 11.323-4.8 22.703-10.2 33.383-7-10.68-12.6-20.91-16.7-31.988L2.494 4.338C13 104.9 10.86 175.3 1.979 278.3L15.4 295.5l-9.494 6.3L2.6 462.7l1.019 45.9 112.681 3.1c3.6-16.1 6.5-32.5 13.2-47.3 4.5 14.4 5.7 29.4 7 44.4l160 .3c.8-6.1.7-8.1 2.3-14.4 5.1 4.5 7.8 9.5 10.6 14.5.8-10.1 3.9-19.8 7-29.5 4.8 9.2 6.7 19.4 8.8 29.5l185.2.4-4.6-78.2-21.4-8.2 21.3-4.9 5.8-395.47c-7-6.73-13.3-13.744-18-21.465l-15.1.114-2.1 20.321-1.4 47.23.8 84.87-8.6-97.14c9.3-16.86 2.2-39.69 5.7-55.239-92.1 1.696-184.1.685-276.2-.314z"
       overflow="visible"
       color="#000"
       fill="#ebc893"
       fill-rule="evenodd"
       stroke="#e0aa58"
       enable-background="accumulate"
       id="path6" /><path
       d="M196.6 1.203c-2.5 11.327-4.8 22.707-10.2 33.387-7-10.68-12.6-20.91-16.7-31.99L2.494 4.336C13 104.9 10.86 175.3 1.979 278.3L15.4 295.5l-9.494 6.3L2.6 462.7l1.019 45.9 112.681 3.1c.5-2.1-7.9-2.3-7.4-4.5L5.244 504.5l-.914-47.3 4.63-153.7 12.42-9-13.093-16.8C16.95 177.3 16.36 104 6.113 5.992l162.687.164c4 10.804 10.3 24.254 17.1 34.664 5.3-10.41 9.5-25.97 12-37.02 89.8.974 173.8 3.521 263.6 1.867 4.6 1.226 10.6.431 11.3-4.149-92.1 1.696-184.1.684-276.2-.315zm296.9.158l-15.1.116-.6 6.277 13.5-2.557c4.6 7.533 9.7 12.383 16.6 18.943l-4.6 389.06-19.9 9.9 4.1-.6 18.2-4.2 5.8-395.47c-7-6.73-13.3-13.748-18-21.469zm9.6 435.739l3.5 69.7-177.7.1c.4 2.1-4.1.2-3.7 2.3l185.2.4-4.6-78.2zm-370 25.1c-1 2.2-2.9.4-3.7 2.6 4.2 14 5.8 29.5 7.1 44l158 .3c1.9-5 .8-9.7 4.3-14.4 5.1 4.5 7.8 9.5 10.6 14.5.8-10.1 3.9-19.8 7-29.5 1.8 3.4 3.2 7 4.3 10.6-1.4-5.6-2.4-8.3-5.1-13.4-3 9.4-6.7 16.2-7.5 26-2.7-4.9-5.4-9.7-10.4-14.1-3.4 4.6-6.2 9.1-8 14l-147.6 3.4c-3.4-14.6-7.1-30.3-9-44z"
       overflow="visible"
       color="#000"
       opacity=".527"
       fill="#c87137"
       fill-rule="evenodd"
       filter="url(#a)"
       enable-background="accumulate"
       id="path7" /><path
       d="M200.1 16.1c-2.3 10.67-10.5 21.38-15.6 31.44-6.6-10.06-13.9-19.69-17.7-30.12L17.34 19.05C24.61 113.6 7.605 179.3 16.85 277l18.26 20.1L10.34 309l7.1 141.6.96 43.3 90.2 3.4c3.4-15.2 15-35.6 21.3-49.6 4.3 13.6 15.4 36.7 16.6 50.9l45.1.8 13.8-18.7 14.4 22.2 68.7-8.6c1.8-4.7 4.5-9.1 7.8-13.5 4.8 4.2 7.4 8.9 10 13.6.8-9.5 7.7-19.6 10.6-28.7 4.5 8.6 19.9 28.9 33.1 33.9l114.6 5.6 22.3-14.7 19.4 14.7-14.5-67.6-34.6-14.2 37.5-15.1 2.1-96.9-14.5-21.9 15.2-13.4 5.1-239.63c-5.2-21.09-11.8-24.89-16.9-20.22l-4.2 2.11 2 19.14.7 44.47-7.1 124.23-18.3-137.78c8.8-15.88-3.9-35.38-.6-50.02-67.1 1.24-140.4-13.332-202.8-3.28-14 2.25-23.7 21.31-36.9 24.48-4.3 1.03-13.9-23.45-18.4-23.5z"
       overflow="visible"
       enable-background="accumulate"
       filter="url(#b)"
       fill-rule="evenodd"
       fill="#f6e7d0"
       color="#000"
       id="path8" /><path
       d="M354 27.39l-70.3 96.91 46.4 97.6-56.2 43.6 33 74.4-30.2 63.2 69.8 48.8 31.6 29.5 31.6-13.3L365.9 335l55.5-36.5 2.1-146.1-56.9-101.83zM116.6 55.48L89.9 123.6s33.7 65.3 35.8 68.8c2.1 3.6-7 118-7 118l42.8 73.8s9.9-82.9 7.1-83.6c-2.8-.7-29.5-42.1-29.5-42.1l23.8-84.3-36.5-37.2z"
       color="#000"
       overflow="visible"
       fill="#f2dbb9"
       fill-rule="evenodd"
       filter="url(#c)"
       enable-background="accumulate"
       id="path9" /><path
       d="M39.33 172.1l-5.62 108.1L74.45 328 42.84 464.9l96.96-39.3 30.2 42.9 74.4-38.7-80.8-169.9-60.4-16.9z"
       color="#000"
       overflow="visible"
       fill="#eed3a4"
       fill-rule="evenodd"
       enable-background="accumulate"
       filter="url(#d)"
       id="path10" /><path
       d="M266.9 66.72L324.5 191 434 221.2l21.8-111.6-41.4-68.86z"
       color="#000"
       overflow="visible"
       fill="#eed3a4"
       fill-rule="evenodd"
       enable-background="accumulate"
       filter="url(#e)"
       id="path11" /></svg><path
     style="fill:#666666;fill-opacity:1;stroke-width:0.473312"
     d="m 254.7015,455.79409 c -0.74444,-0.31026 -1.00655,-0.66094 -4.60098,-6.15563 -2.31752,-3.5427 -3.70518,-5.55573 -4.02405,-5.83751 -0.0982,-0.0868 -0.92435,-1.15175 -1.8359,-2.36656 -4.44973,-5.93023 -13.68123,-15.06114 -18.96909,-18.76245 -0.60744,-0.42518 -1.2464,-0.8912 -1.41995,-1.0356 -1.17255,-0.97588 -4.6248,-3.26875 -7.573,-5.02981 -5.27481,-3.15079 -9.03022,-4.99189 -14.35715,-7.03858 -0.78098,-0.30008 -1.75236,-0.67489 -2.15864,-0.83294 -2.85374,-1.11024 -9.46834,-2.90514 -13.77623,-3.73831 -3.40084,-0.65772 -9.68728,-1.29991 -14.51492,-1.4828 -11.39508,-0.43166 -25.81035,2.2515 -38.64667,7.19345 -3.10126,1.19394 -5.19642,1.21471 -7.29553,0.0722 -1.75421,-0.95477 -2.32313,-1.67534 -4.19808,-5.31696 -0.44677,-0.86777 -1.52561,-2.85569 -2.39744,-4.41762 -0.87182,-1.56193 -1.9474,-3.54984 -2.39017,-4.41757 -0.89834,-1.76054 -2.24332,-4.26649 -4.06454,-7.573 -0.66913,-1.21486 -1.74258,-3.20277 -2.38544,-4.41757 -0.64287,-1.21485 -1.63391,-3.06078 -2.20232,-4.10206 -0.56841,-1.04129 -1.46005,-2.67422 -1.98141,-3.62875 -0.52137,-0.95448 -1.51659,-2.8004 -2.2116,-4.10201 -2.00196,-3.7492 -3.21724,-6.0089 -4.32735,-8.04631 -3.55161,-6.51833 -3.787263,-7.08025 -3.787263,-9.03025 0,-2.11751 0.672274,-3.73269 2.101006,-5.04793 0.493153,-0.45395 2.600567,-2.07458 4.683137,-3.60138 5.01113,-3.67382 8.26553,-6.35935 13.41054,-11.06644 4.05202,-3.70712 5.11172,-4.79679 10.40317,-10.69748 4.21987,-4.70577 9.39579,-11.79813 13.24042,-18.14293 4.8367,-7.98194 9.69854,-18.66197 11.8506,-26.03221 0.30405,-1.04128 0.73949,-2.53221 0.96766,-3.31319 1.05216,-3.60138 1.80184,-7.14271 2.87231,-13.56826 0.80839,-4.8524 0.81292,-19.52127 0.008,-24.61227 -0.3157,-1.99581 -0.77712,-4.3512 -1.02538,-5.23416 -0.24826,-0.88303 -0.45138,-1.87224 -0.45138,-2.19827 0,-0.32606 -0.1948,-1.16552 -0.4329,-1.86551 -0.23808,-0.69999 -0.67963,-2.1247 -0.98119,-3.16599 -0.90775,-3.13446 -1.47781,-4.53505 -3.91717,-9.62401 -2.7146,-5.66319 -4.79601,-9.00591 -8.83603,-14.19058 -2.54914,-3.27139 -9.13125,-9.92953 -12.33821,-12.48074 -1.30161,-1.03545 -2.43756,-1.96736 -2.52434,-2.07093 -0.16328,-0.19487 -2.13218,-1.59269 -5.67975,-4.03234 -4.5221,-3.10985 -12.27908,-7.29374 -19.307276,-10.41382 -2.039461,-0.90541 -3.697282,-2.44286 -4.398812,-4.07944 -0.754471,-1.7601 -0.743025,-2.69788 0.06727,-5.5105 0.361847,-1.25602 0.791218,-2.85166 0.95416,-3.54586 0.162943,-0.69421 0.423501,-1.61717 0.579023,-2.05101 0.155521,-0.43389 0.506354,-1.56984 0.779635,-2.52436 0.645316,-2.25397 2.014737,-6.98672 2.60211,-8.99295 0.25405,-0.86773 0.65422,-2.28766 0.88925,-3.15538 0.23504,-0.86778 0.65903,-2.35871 0.9422,-3.3132 0.28318,-0.95453 0.72581,-2.44546 0.98363,-3.31319 0.25781,-0.86777 0.66279,-2.2877 0.89995,-3.15543 0.23716,-0.86772 0.66314,-2.35867 0.94663,-3.31319 0.56081,-1.88829 1.29981,-4.54954 1.76124,-6.34252 0.86512,-3.36165 2.30706,-5.29733 4.72798,-6.3469 1.18029,-0.51171 1.87263,-0.58575 4.10205,-0.43869 11.14905,0.73546 18.60917,0.47205 26.97883,-0.95257 4.61949,-0.78628 13.04067,-2.85619 14.98823,-3.68407 0.26032,-0.11066 1.18329,-0.43361 2.05103,-0.71766 8.24347,-2.69853 18.80636,-8.55742 27.13361,-15.050146 2.76306,-2.154345 10.79458,-10.008792 13.30316,-13.00985 5.10635,-6.108844 9.9214,-13.596425 13.18953,-20.510218 2.98408,-6.312899 3.21178,-6.645941 5.28109,-7.724526 1.20608,-0.628645 1.718,-0.637335 37.53654,-0.637335 h 36.31378 l 1.52785,0.831568 c 1.6405,0.892872 2.5167,2.017344 3.90065,5.005955 5.53094,11.943873 12.14414,21.374165 21.16241,30.177201 3.30898,3.230021 4.08617,3.888177 9.05309,7.666765 4.3091,3.278126 9.67805,6.551616 14.92809,9.101716 1.04128,0.50578 2.58083,1.26093 3.4212,1.67811 0.84036,0.41718 1.69232,0.75938 1.89325,0.76045 0.20091,9.3e-4 0.73471,0.1947 1.1862,0.4303 1.32111,0.68937 6.37662,2.35836 12.11631,3.99999 3.43774,0.98325 10.07752,2.07948 16.33759,2.69736 5.14888,0.5082 10.4547,0.49046 18.84534,-0.0631 2.22549,-0.1468 2.92384,-0.0725 4.10203,0.43624 2.13654,0.92261 3.25033,2.25784 4.07384,4.88378 0.3943,1.25735 0.83459,2.64107 0.97841,3.07496 0.14381,0.43388 0.47854,1.56983 0.74383,2.52431 0.70925,2.55182 1.79393,6.33099 2.1283,7.41525 0.16054,0.52065 0.65815,2.22458 1.10579,3.7865 0.44764,1.56194 1.02278,3.54985 1.27809,4.41758 0.25532,0.86776 0.59969,2.14572 0.76527,2.83987 0.16558,0.69421 0.4283,1.61718 0.58382,2.05105 0.15551,0.43384 0.50635,1.5698 0.77963,2.52432 0.59076,2.06347 1.94649,6.78187 2.58391,8.99295 1.78998,6.20915 1.86103,6.7032 1.23077,8.5574 -0.67796,1.99453 -2.20102,3.54468 -4.49588,4.57584 -9.03174,4.05824 -18.96052,9.59827 -21.84504,12.18899 -0.43476,0.39048 -0.88748,0.70997 -1.00605,0.70997 -0.11856,0 -1.68195,1.15886 -3.47418,2.57525 -3.75101,2.96436 -11.0607,10.19534 -13.34552,13.20182 -0.85729,1.1281 -1.64445,2.12206 -1.74922,2.20882 -0.10478,0.0867 -0.91412,1.2227 -1.79854,2.52431 -6.46449,9.51387 -9.85492,18.12229 -12.3034,31.23864 -0.81811,4.3826 -0.81736,20.72026 8.5e-4,25.7167 0.69643,4.25101 1.40108,7.70495 1.98691,9.73911 0.24316,0.8443 0.4421,1.76253 0.4421,2.04051 0,0.27797 0.19721,1.0781 0.43825,1.77809 0.24103,0.70002 0.89189,2.69268 1.44634,4.42818 0.55445,1.73544 1.20919,3.60285 1.455,4.14971 0.24581,0.54686 0.44692,1.15228 0.44692,1.34535 0,0.19306 0.13701,0.59756 0.30448,0.89891 0.16745,0.30136 0.60369,1.25787 0.96943,2.12566 1.33696,3.17213 1.64772,3.84717 3.26837,7.09968 2.90293,5.82587 3.70081,7.20411 7.87912,13.6103 4.73159,7.25451 13.40383,17.47675 19.64003,23.15029 1.71682,1.56193 3.26348,3.0002 3.43702,3.19614 0.36185,0.40852 5.85161,4.96908 7.26279,6.03351 0.51772,0.39049 2.16691,1.62398 3.66489,2.7411 3.07613,2.29405 4.65611,4.09448 5.42637,6.18345 0.91797,2.48962 0.59981,6.0442 -0.76993,8.60203 -0.16679,0.31144 -0.74327,1.37639 -1.2811,2.36657 -2.27312,4.18504 -2.75568,5.0794 -4.03582,7.48009 -0.74035,1.38837 -1.73833,3.23429 -2.21773,4.10201 -0.47939,0.86772 -1.4375,2.64265 -2.12913,3.94426 -1.99261,3.75001 -3.55567,6.65667 -4.49656,8.36188 -0.47881,0.86772 -1.44135,2.64264 -2.13897,3.94425 -0.69763,1.30161 -1.72944,3.21853 -2.29291,4.25981 -0.56347,1.04129 -1.58176,2.94685 -2.26284,4.23459 -0.6811,1.2877 -1.63932,3.06261 -2.12939,3.94426 -0.49008,0.88165 -1.19975,2.19594 -1.57707,2.92072 -1.38082,2.6523 -3.73489,4.23251 -6.33523,4.25266 -1.04282,0.008 -2.64014,-0.39611 -4.94658,-1.25172 -7.22615,-2.68065 -13.04397,-4.32512 -18.07911,-5.1104 -1.12781,-0.17593 -2.26376,-0.39938 -2.52408,-0.4966 -1.01495,-0.37904 -12.32557,-1.39381 -15.53524,-1.39381 -9.90719,0 -21.44439,2.1656 -31.63827,5.9386 -15.78288,5.84168 -31.57562,17.66602 -42.89532,32.11665 -1.93906,2.47537 -8.06455,11.38482 -8.06493,11.73034 -1.4e-4,0.12528 -0.4627,0.74741 -1.02793,1.38245 -1.11075,1.24799 -2.68786,1.73464 -3.93585,1.21448 z m 30.36515,-80.80652 c 15.10563,-0.75067 21.92849,-1.21588 28.08323,-1.91493 1.56192,-0.17739 3.62083,-0.38877 4.57535,-0.46975 2.82351,-0.23955 3.15542,-0.36309 3.15542,-1.17454 0,-0.70153 -0.17037,-0.75407 -4.02316,-1.24021 -14.36578,-1.81279 -35.39221,-2.77063 -60.82069,-2.77063 -25.54536,0 -46.40052,0.9505 -60.83658,2.77281 l -4.03907,0.50984 0.0947,0.81529 c 0.0885,0.76114 0.23095,0.82745 2.14581,0.9986 1.12806,0.10081 3.61295,0.34593 5.52198,0.54464 6.86622,0.7148 10.83134,1.02438 17.03926,1.33043 3.47096,0.17106 6.73679,0.40047 7.2574,0.50976 3.09142,0.64895 49.24022,0.71517 61.84626,0.0887 z m -14.98823,-29.01166 c 12.23526,-0.32733 29.44415,-1.4409 33.76297,-2.18471 0.95451,-0.16439 2.72945,-0.39417 3.94427,-0.51061 2.01951,-0.19353 3.3132,-0.75442 3.3132,-1.43641 0,-0.68479 -5.89124,-1.52458 -16.25041,-2.3164 -3.12387,-0.23878 -6.38973,-0.52063 -7.25746,-0.62638 -2.50747,-0.30546 -25.46712,-1.1225 -31.54431,-1.1225 -6.026,0 -29.43373,0.82304 -31.72184,1.11541 -0.78095,0.0998 -4.04681,0.3839 -7.25746,0.63139 -10.16875,0.78395 -16.09264,1.63739 -16.09264,2.31848 0,0.13996 0.24849,0.47559 0.55221,0.7458 0.6379,0.5676 2.77644,0.84695 16.32929,2.13322 13.55687,1.28665 33.27571,1.75969 52.22218,1.25271 z m 11.99059,-29.48903 c 6.85514,-0.26199 14.52281,-0.62639 17.03925,-0.80984 2.51645,-0.18341 6.77626,-0.46219 9.46625,-0.61952 11.11149,-0.64967 17.35481,-1.44962 17.35481,-2.22363 0,-0.7447 -1.65956,-1.21536 -5.36422,-1.52132 -21.70368,-1.79234 -23.36619,-1.88354 -47.17349,-2.58835 -17.59773,-0.52098 -40.94455,-0.12661 -59.00633,0.99661 -2.77677,0.17271 -7.74372,0.45148 -11.03765,0.61951 -3.29393,0.16803 -6.20481,0.37184 -6.4686,0.45296 -0.2638,0.0811 -2.4589,0.3035 -4.878,0.49428 -4.80255,0.3787 -6.62278,0.93272 -5.7925,1.763 0.70467,0.70466 6.80235,1.42089 17.13278,2.01234 2.60322,0.14904 6.93404,0.42731 9.62403,0.61834 17.34729,1.23193 48.45704,1.59463 69.10367,0.80562 z m 1.89325,-29.36097 c 9.45836,-0.25441 18.61696,-0.59996 20.35244,-0.76794 1.73548,-0.16799 4.43337,-0.30729 5.9953,-0.30956 5.25683,-0.008 23.04052,-1.63363 23.5611,-2.15418 0.61305,-0.61303 -0.58452,-1.41804 -2.28793,-1.53794 -0.94027,-0.0662 -3.98147,-0.32786 -6.75825,-0.58156 -5.54411,-0.50653 -16.8057,-1.18654 -29.97647,-1.80999 -11.55754,-0.54711 -65.96618,-0.55023 -77.6233,-0.005 -13.48367,0.63131 -24.85803,1.32661 -29.84139,1.82415 -2.52893,0.25246 -5.17356,0.45906 -5.87697,0.45906 -0.7034,0 -1.71358,0.0869 -2.24482,0.19316 -0.99188,0.19837 -1.55517,0.96183 -1.06863,1.44834 0.51354,0.51355 18.27721,2.16129 23.25472,2.15713 1.38839,0 4.22826,0.14891 6.31083,0.33373 5.34505,0.4743 31.08023,1.12772 46.22689,1.17363 7.0287,0.0214 20.5181,-0.16936 29.97648,-0.42377 z m 3.15542,-29.50485 c 17.40916,-0.8788 22.19166,-1.19482 29.18762,-1.92894 1.73548,-0.18208 4.1121,-0.4291 5.2814,-0.54885 2.20551,-0.22596 2.97075,-0.6225 2.67727,-1.38728 -0.17137,-0.44661 -2.66122,-0.84623 -9.69415,-1.55592 -1.69363,-0.17087 -23.79222,-0.36483 -50.79895,-0.44577 -26.29071,-0.0788 -47.91576,-0.25776 -48.05565,-0.39763 -0.56348,-0.56348 -19.75138,0.75901 -26.57329,1.83149 -0.97738,0.15363 -1.28439,0.35285 -1.36064,0.88287 -0.10902,0.75763 -0.3723,0.68559 4.97043,1.36006 3.02923,0.38239 6.29163,0.64376 15.32272,1.22759 2.77677,0.17953 7.53356,0.49248 10.57066,0.69548 11.94808,0.79848 54.64423,0.96494 68.47258,0.2669 z M 276.38925,228.5917 c 15.66543,-0.33567 37.16974,-1.40697 43.86031,-2.185 1.47515,-0.17153 3.81807,-0.39806 5.20645,-0.50346 3.34362,-0.25374 3.68642,-0.36725 3.56823,-1.18153 -0.0842,-0.58061 -0.43479,-0.72133 -2.62161,-1.05222 -7.53594,-1.1403 -29.84997,-2.34678 -55.16471,-2.98268 -19.57503,-0.49167 -43.36013,0.0214 -66.79221,1.44044 -12.8522,0.77835 -20.96399,1.55156 -21.54608,2.05365 -0.4134,0.35665 0.11671,1.26119 0.83401,1.42316 0.8926,0.20154 6.46436,0.69908 14.24346,1.27189 23.6552,1.74174 50.14856,2.32145 78.41215,1.71575 z m 1.7681,-29.34051 c 3.45303,-0.17631 9.04709,-0.45514 12.43128,-0.61961 9.33381,-0.45372 13.38759,-0.77544 26.34774,-2.09087 1.67429,-0.16991 2.87892,-0.81286 2.54261,-1.35703 -0.31878,-0.51577 -2.25317,-0.92188 -6.01357,-1.26247 -19.01034,-1.72177 -24.41587,-2.02392 -45.28024,-2.53108 -15.70415,-0.38173 -40.93952,0.1888 -54.27321,1.2271 -18.38357,1.43149 -20.79636,1.72348 -21.32627,2.58093 -0.32711,0.52926 0.89209,1.17377 2.55153,1.34885 11.41266,1.20402 16.70722,1.62294 26.50553,2.09739 3.6445,0.17645 8.54328,0.43649 10.88618,0.57782 6.28837,0.37932 38.36724,0.39966 45.62842,0.0289 z m 0.12515,-29.35084 c 6.6816,-0.186 14.861,-0.54378 18.17644,-0.79497 3.31545,-0.25124 6.93629,-0.45409 8.04632,-0.45088 4.30849,0.0128 19.07698,-1.63463 19.63201,-2.18965 0.58892,-0.58894 -0.53091,-1.34591 -2.19859,-1.48619 -0.84224,-0.0709 -3.51926,-0.33407 -5.94892,-0.58497 -4.76876,-0.49239 -14.84712,-1.17821 -26.6633,-1.81444 -10.09382,-0.54346 -56.52309,-0.54214 -66.57933,0 -12.92824,0.69941 -22.43522,1.35281 -26.54094,1.82414 -2.18884,0.25124 -4.63155,0.4568 -5.42825,0.4568 -0.7967,0 -1.8024,0.16126 -2.23489,0.35829 -0.85217,0.38827 -1.27837,1.09454 -0.82834,1.3727 0.69574,0.42996 16.44324,2.07345 19.72865,2.05897 1.04129,-0.005 4.80412,0.20678 8.36186,0.46975 13.65357,1.0093 41.65678,1.35823 62.47728,0.77856 z m 4.69399,-29.66496 c 2.36442,-0.15336 6.57085,-0.42201 9.34762,-0.59704 5.07199,-0.31968 9.24431,-0.70784 14.51493,-1.35042 1.56193,-0.19041 3.62084,-0.43033 4.57535,-0.53318 1.58616,-0.17092 1.73549,-0.25427 1.73549,-0.96855 0,-0.69595 -0.17277,-0.80742 -1.57772,-1.01799 -0.86773,-0.13006 -2.50066,-0.37534 -3.62873,-0.54506 -2.21218,-0.33279 -9.22496,-0.95686 -20.51022,-1.82525 -10.45721,-0.80463 -52.04098,-0.80628 -62.79282,-0.005 -11.0458,0.82578 -18.1005,1.47776 -21.47062,1.98426 -1.65629,0.24891 -3.33414,0.45254 -3.72858,0.45254 -0.59619,0 -0.70031,0.1464 -0.61731,0.86777 0.0923,0.80188 0.23158,0.88211 1.83533,1.05747 0.95451,0.10442 3.15542,0.35546 4.8909,0.5579 1.73548,0.20249 4.36236,0.50881 5.83751,0.68076 1.47516,0.17196 5.20671,0.45179 8.29232,0.62174 3.08561,0.17002 5.94632,0.39343 6.35711,0.49656 2.74156,0.68806 46.75325,0.78158 56.93944,0.12093 z"
     id="path13"
     sodipodi:nodetypes="ssssscsscssssssssssssssssssssssssssssssssssssssssssssssssssssssscsssssscsssssssssssssssssssssssscssssssssssssssssssssssssssssssssssssssssssscssssssssssssssssssssscssssssssssscsssssscsssscssccssssssssssscssssssssssssssssssssssssscscsssscsssscscccssssssscsssssssccc" /></svg>
