<?xml version="1.0" encoding="UTF-8" standalone="no"?>
<svg
   viewBox="0 0 512 512"
   style="height: 512px; width: 512px;"
   version="1.1"
   id="svg12"
   sodipodi:docname="flail.svg"
   inkscape:version="1.3.2 (091e20e, 2023-11-25)"
   xmlns:inkscape="http://www.inkscape.org/namespaces/inkscape"
   xmlns:sodipodi="http://sodipodi.sourceforge.net/DTD/sodipodi-0.dtd"
   xmlns="http://www.w3.org/2000/svg"
   xmlns:svg="http://www.w3.org/2000/svg">
  <sodipodi:namedview
     id="namedview12"
     pagecolor="#505050"
     bordercolor="#ffffff"
     borderopacity="1"
     inkscape:showpageshadow="0"
     inkscape:pageopacity="0"
     inkscape:pagecheckerboard="1"
     inkscape:deskcolor="#d1d1d1"
     inkscape:zoom="0.22364642"
     inkscape:cx="134.14031"
     inkscape:cy="299.58002"
     inkscape:window-width="1248"
     inkscape:window-height="406"
     inkscape:window-x="0"
     inkscape:window-y="38"
     inkscape:window-maximized="0"
     inkscape:current-layer="svg12" />
  <defs
     id="defs2">
    <radialGradient
       id="delapouite-flail-gradient-0">
      <stop
         offset="0%"
         stop-color="#830000"
         stop-opacity="1"
         id="stop1" />
      <stop
         offset="100%"
         stop-color="#000"
         stop-opacity="1"
         id="stop2" />
    </radialGradient>
  </defs>
  <path
     d="M0 0h512v512H0z"
     fill="url(#pattern)"
     id="path2" />
  <svg
     version="1.1"
     id="svg11">
    <defs
       id="defs6">
      <filter
         id="b"
         x="-0.023338979"
         width="1.046678"
         y="-0.023448784"
         height="1.0468976"
         color-interpolation-filters="sRGB">
        <feGaussianBlur
           stdDeviation="4.823"
           id="feGaussianBlur2" />
      </filter>
      <filter
         id="a"
         x="-0.012011281"
         width="1.0240226"
         y="-0.011988317"
         height="1.0239766"
         color-interpolation-filters="sRGB">
        <feGaussianBlur
           stdDeviation="2.55"
           id="feGaussianBlur3" />
      </filter>
      <filter
         id="c"
         x="-0.11244604"
         width="1.2248921"
         y="-0.082623731"
         height="1.1652475"
         color-interpolation-filters="sRGB">
        <feGaussianBlur
           stdDeviation="15.63"
           id="feGaussianBlur4" />
      </filter>
      <filter
         id="e"
         x="-0.23758603"
         width="1.4751721"
         y="-0.24869778"
         height="1.4973956"
         color-interpolation-filters="sRGB">
        <feGaussianBlur
           stdDeviation="18.7"
           id="feGaussianBlur5" />
      </filter>
      <filter
         id="d"
         x="-0.21301439"
         width="1.4260288"
         y="-0.15141701"
         height="1.302834"
         color-interpolation-filters="sRGB">
        <feGaussianBlur
           stdDeviation="18.7"
           id="feGaussianBlur6" />
      </filter>
    </defs>
    <path
       d="M196.6 1.207c-2.5 11.323-4.8 22.703-10.2 33.383-7-10.68-12.6-20.91-16.7-31.988L2.494 4.338C13 104.9 10.86 175.3 1.979 278.3L15.4 295.5l-9.494 6.3L2.6 462.7l1.019 45.9 112.681 3.1c3.6-16.1 6.5-32.5 13.2-47.3 4.5 14.4 5.7 29.4 7 44.4l160 .3c.8-6.1.7-8.1 2.3-14.4 5.1 4.5 7.8 9.5 10.6 14.5.8-10.1 3.9-19.8 7-29.5 4.8 9.2 6.7 19.4 8.8 29.5l185.2.4-4.6-78.2-21.4-8.2 21.3-4.9 5.8-395.47c-7-6.73-13.3-13.744-18-21.465l-15.1.114-2.1 20.321-1.4 47.23.8 84.87-8.6-97.14c9.3-16.86 2.2-39.69 5.7-55.239-92.1 1.696-184.1.685-276.2-.314z"
       overflow="visible"
       color="#000"
       fill="#ebc893"
       fill-rule="evenodd"
       stroke="#e0aa58"
       enable-background="accumulate"
       id="path6" />
    <path
       d="M196.6 1.203c-2.5 11.327-4.8 22.707-10.2 33.387-7-10.68-12.6-20.91-16.7-31.99L2.494 4.336C13 104.9 10.86 175.3 1.979 278.3L15.4 295.5l-9.494 6.3L2.6 462.7l1.019 45.9 112.681 3.1c.5-2.1-7.9-2.3-7.4-4.5L5.244 504.5l-.914-47.3 4.63-153.7 12.42-9-13.093-16.8C16.95 177.3 16.36 104 6.113 5.992l162.687.164c4 10.804 10.3 24.254 17.1 34.664 5.3-10.41 9.5-25.97 12-37.02 89.8.974 173.8 3.521 263.6 1.867 4.6 1.226 10.6.431 11.3-4.149-92.1 1.696-184.1.684-276.2-.315zm296.9.158l-15.1.116-.6 6.277 13.5-2.557c4.6 7.533 9.7 12.383 16.6 18.943l-4.6 389.06-19.9 9.9 4.1-.6 18.2-4.2 5.8-395.47c-7-6.73-13.3-13.748-18-21.469zm9.6 435.739l3.5 69.7-177.7.1c.4 2.1-4.1.2-3.7 2.3l185.2.4-4.6-78.2zm-370 25.1c-1 2.2-2.9.4-3.7 2.6 4.2 14 5.8 29.5 7.1 44l158 .3c1.9-5 .8-9.7 4.3-14.4 5.1 4.5 7.8 9.5 10.6 14.5.8-10.1 3.9-19.8 7-29.5 1.8 3.4 3.2 7 4.3 10.6-1.4-5.6-2.4-8.3-5.1-13.4-3 9.4-6.7 16.2-7.5 26-2.7-4.9-5.4-9.7-10.4-14.1-3.4 4.6-6.2 9.1-8 14l-147.6 3.4c-3.4-14.6-7.1-30.3-9-44z"
       overflow="visible"
       color="#000"
       opacity=".527"
       fill="#c87137"
       fill-rule="evenodd"
       filter="url(#a)"
       enable-background="accumulate"
       id="path7" />
    <path
       d="M200.1 16.1c-2.3 10.67-10.5 21.38-15.6 31.44-6.6-10.06-13.9-19.69-17.7-30.12L17.34 19.05C24.61 113.6 7.605 179.3 16.85 277l18.26 20.1L10.34 309l7.1 141.6.96 43.3 90.2 3.4c3.4-15.2 15-35.6 21.3-49.6 4.3 13.6 15.4 36.7 16.6 50.9l45.1.8 13.8-18.7 14.4 22.2 68.7-8.6c1.8-4.7 4.5-9.1 7.8-13.5 4.8 4.2 7.4 8.9 10 13.6.8-9.5 7.7-19.6 10.6-28.7 4.5 8.6 19.9 28.9 33.1 33.9l114.6 5.6 22.3-14.7 19.4 14.7-14.5-67.6-34.6-14.2 37.5-15.1 2.1-96.9-14.5-21.9 15.2-13.4 5.1-239.63c-5.2-21.09-11.8-24.89-16.9-20.22l-4.2 2.11 2 19.14.7 44.47-7.1 124.23-18.3-137.78c8.8-15.88-3.9-35.38-.6-50.02-67.1 1.24-140.4-13.332-202.8-3.28-14 2.25-23.7 21.31-36.9 24.48-4.3 1.03-13.9-23.45-18.4-23.5z"
       overflow="visible"
       enable-background="accumulate"
       filter="url(#b)"
       fill-rule="evenodd"
       fill="#f6e7d0"
       color="#000"
       id="path8" />
    <path
       d="M354 27.39l-70.3 96.91 46.4 97.6-56.2 43.6 33 74.4-30.2 63.2 69.8 48.8 31.6 29.5 31.6-13.3L365.9 335l55.5-36.5 2.1-146.1-56.9-101.83zM116.6 55.48L89.9 123.6s33.7 65.3 35.8 68.8c2.1 3.6-7 118-7 118l42.8 73.8s9.9-82.9 7.1-83.6c-2.8-.7-29.5-42.1-29.5-42.1l23.8-84.3-36.5-37.2z"
       color="#000"
       overflow="visible"
       fill="#f2dbb9"
       fill-rule="evenodd"
       filter="url(#c)"
       enable-background="accumulate"
       id="path9" />
    <path
       d="M39.33 172.1l-5.62 108.1L74.45 328 42.84 464.9l96.96-39.3 30.2 42.9 74.4-38.7-80.8-169.9-60.4-16.9z"
       color="#000"
       overflow="visible"
       fill="#eed3a4"
       fill-rule="evenodd"
       enable-background="accumulate"
       filter="url(#d)"
       id="path10" />
    <path
       d="M266.9 66.72L324.5 191 434 221.2l21.8-111.6-41.4-68.86z"
       color="#000"
       overflow="visible"
       fill="#eed3a4"
       fill-rule="evenodd"
       enable-background="accumulate"
       filter="url(#e)"
       id="path11" />
  </svg>
  <path
     d="m 331.09604,74.359405 c 5.96253,0.03323 11.90694,1.323917 17.22828,3.904534 3.15987,1.53236 5.93232,3.793515 7.97748,6.609763 a 21.217402,21.217402 0 0 1 1.2771,-0.116305 22.051174,22.051174 0 0 1 5.26772,0.337588 c 13.29279,2.459781 25.21105,12.275491 30.17139,24.851565 1.61846,4.10466 2.01042,8.64133 0.90477,12.90232 a 22.261128,22.261128 0 0 1 2.23321,2.2657 c 8.76367,10.29376 11.81933,25.42856 7.73354,38.31503 -1.19552,3.77236 -3.37586,7.19279 -6.37187,9.74094 2.03157,13.2603 -3.19084,27.63232 -13.28447,36.47001 a 22.085915,22.085915 0 0 1 -4.09334,2.83286 c 0.19786,0.9818 0.33758,1.9787 0.40178,2.98315 0.0136,0.22355 0.0204,0.44786 0.0303,0.67215 l -13.52841,9.82251 c 1.08678,-3.30034 1.63431,-6.66867 1.43946,-9.72811 -0.0294,-0.45539 -0.1586,-0.96291 -0.32777,-1.48251 a 18.981169,18.981169 0 0 1 -3.87659,-0.94857 18.81804,18.81804 0 0 1 -6.65507,-4.11977 c -0.54528,0.20543 -1.03769,0.44785 -1.42965,0.7288 -7.01608,5.03284 -12.26946,16.1196 -11.72116,24.73677 0.10574,1.6396 1.25217,3.8645 2.5051,5.38252 l -10.02718,7.28039 c -2.72712,-3.36001 -4.25948,-7.56285 -4.5359,-11.89485 v -7.5e-4 c -0.8587,-13.4914 5.75106,-27.44503 16.73587,-35.32356 a 22.246023,22.246023 0 0 1 2.61309,-1.60487 c -0.0793,-0.36629 -0.1533,-0.73257 -0.21297,-1.10263 -2.12295,-13.11229 2.89102,-27.35968 12.71352,-36.30009 -4.02084,-8.60583 -5.06833,-18.69039 -2.65992,-27.8332 -7.78338,-3.63869 -14.47622,-9.77493 -18.66169,-17.25093 -9.04841,3.29279 -19.3671,3.34792 -28.37773,0.0241 a 42.508061,42.508061 0 0 1 -2.21358,3.83507 l -10.14121,-7.06895 a 34.794907,34.794907 0 0 0 1.97492,-3.58432 c -2.63273,-3.08813 -4.34937,-6.96472 -4.59029,-11.372233 a 18.841452,18.841452 0 0 1 0.77412,-6.478353 c -0.25905,-0.01284 -0.5181,-0.0287 -0.78469,-0.02568 -1.5671,0.01889 -3.19991,0.308134 -4.25572,0.894192 -3.54882,1.969637 -6.85445,5.320588 -9.4192,9.206994 L 275.7741,94.857025 c 3.52994,-5.23147 8.21689,-9.672217 13.69003,-12.708992 3.09719,-1.719657 6.57502,-2.690881 10.08609,-2.729397 a 18.931323,18.931323 0 0 1 8.44044,1.872212 22.38423,22.38423 0 0 1 1.30428,-0.89268 c 5.72463,-3.594891 12.44089,-5.603044 19.24625,-5.975371 a 42.491446,42.491446 0 0 1 2.55494,-0.06344 z m -0.49014,12.341951 c -4.9377,0.07402 -9.92372,1.197794 -13.79804,3.301106 1.60637,3.242954 2.31251,6.896752 2.12295,10.539218 a 37.580193,37.580193 0 0 1 -0.50978,4.47851 c 6.18231,2.24454 14.36219,2.13126 20.83676,-0.15331 -0.20164,-4.61218 1.12227,-9.271947 4.31387,-13.147027 a 19.192632,19.192632 0 0 1 1.19629,-1.313343 c -0.5634,-0.54452 -1.15098,-0.996903 -1.71512,-1.269539 -2.91368,-1.412279 -6.45797,-2.200738 -10.13518,-2.392566 a 34.479977,34.479977 0 0 0 -2.31101,-0.04305 z m 29.31572,10.204654 c -0.23262,5.36968 -2.71128,10.10043 -6.45041,13.55409 3.05565,5.20353 8.46233,9.96374 14.12353,12.58514 2.52095,-2.42429 5.70198,-4.19681 9.42677,-4.94902 a 19.130704,19.130704 0 0 1 2.78226,-0.35193 18.738741,18.738741 0 0 1 2.37368,0.0264 c 0.0619,-1.25594 -0.0475,-2.49376 -0.40177,-3.39097 -3.16744,-8.03261 -12.63649,-15.83262 -21.12678,-17.403496 -0.22657,-0.04154 -0.47277,-0.06041 -0.72728,-0.07024 z m -86.41179,11.10187 27.8181,19.38672 -19.46678,27.67385 -27.81659,-19.38672 19.46527,-27.6731 z m 113.58945,25.12344 c -3.99893,3.06623 -8.96306,4.30933 -13.85845,3.92341 -1.3798,5.80016 -0.52488,13.07151 1.98701,19.02497 a 19.008358,19.008358 0 0 1 4.11977,-0.2311 c 1.79141,0.0967 3.60244,0.45087 5.39763,1.09735 a 18.833144,18.833144 0 0 1 6.87409,4.31916 c 0.32701,-0.506 0.60192,-1.01201 0.75221,-1.48554 2.58514,-8.15873 0.21977,-20.03698 -5.27151,-26.64825 z m -140.00812,12.43408 27.81962,19.38673 -152.67104,217.0445 C 110.12284,378.68797 101.94523,371.55786 94.6044,362.3501 L 247.09116,145.56465 Z m 124.09545,26.17096 c -5.57964,6.05089 -8.97212,16.39224 -7.70712,24.20659 a 5.1869124,5.1869124 0 0 0 0.19637,0.76883 18.850515,18.850515 0 0 1 10.59359,4.98601 c 0.78695,-0.32021 1.49762,-0.70386 2.00438,-1.14794 5.78959,-5.06834 9.70696,-14.78286 9.5174,-22.8706 -5.59021,0.1737 -10.76051,-2.15843 -14.60462,-5.94365 z m -82.93093,42.38722 24.43769,30.2152 c -8.63528,1.09509 -17.22828,3.62057 -25.46104,7.66709 z m 99.99231,11.1789 -15.89908,68.50757 c -16.27367,4.30481 -38.05901,-7.57116 -40.68041,-26.75549 l 16.94809,-12.50659 c -0.10724,-0.0182 -0.21524,-0.0303 -0.32324,-0.0491 l 24.27835,-17.62855 15.67704,-11.56709 z m -64.71029,27.43368 c 3.68553,0.0317 7.34914,0.34892 10.95989,0.93801 -4.116,2.87364 -6.17626,4.45735 -12.33591,8.57034 l 0.16237,2.95595 c 1.46364,28.03939 32.07457,45.10983 55.42171,36.44963 l 2.28987,-0.8451 0.55131,-2.38049 2.91896,-12.55946 a 73.319136,73.319136 0 0 1 3.71271,6.54784 c 17.85663,35.55089 3.56015,78.716 -31.98093,96.56811 a 73.463385,73.463385 0 0 1 -5.58794,2.51944 l 8.85205,-18.84825 1.03994,-2.21886 -1.2786,-2.07236 c -11.01652,-17.95556 -36.93749,-25.1023 -56.62329,-15.33718 a 40.070182,40.070182 0 0 0 -12.37442,9.53853 l -1.62375,1.83522 0.66233,2.36462 6.69361,24.2353 c -15.21711,-6.41341 -28.3143,-18.07415 -36.32198,-34.01628 a 72.468748,72.468748 0 0 1 -5.06005,-13.08056 l 3.90228,2.94086 1.94244,1.46817 2.30346,-0.81866 c 23.46496,-8.33019 35.98664,-41.06105 19.12239,-63.51023 l -1.90771,-1.73929 -1.98625,-0.071 -12.65386,0.77638 c 6.58257,-9.25005 15.45425,-17.07724 26.31972,-22.53452 l 0.002,-0.002 c 10.57395,-5.31153 21.82309,-7.7713 32.87888,-7.67464 z m 71.6448,35.33717 41.78153,2.26947 -33.50045,25.6302 a 80.680352,80.680352 0 0 0 -8.14514,-27.62778 c -0.0453,-0.0906 -0.0906,-0.18126 -0.13745,-0.27189 z m -120.26266,3.31168 c 10.2983,16.40206 1.17967,39.49092 -14.06764,46.62255 l -56.13165,-42.35323 z m 45.714,66.62706 c 11.21138,0.0188 22.40161,4.98073 28.53709,13.18629 l -31.64107,67.35661 -19.78323,-71.67047 c 2.42806,-2.36689 5.12801,-4.2882 8.05679,-5.67403 4.63257,-2.19396 9.73338,-3.20671 14.82967,-3.1984 z m -67.28258,8.08623 a 80.430372,80.430372 0 0 0 19.17602,21.96961 l -39.05063,15.32359 z m 136.09829,4.81534 16.55613,42.24902 -38.74323,-20.67289 a 80.354848,80.354848 0 0 0 22.1871,-21.57613 z m -302.034929,1.65773 c 7.161081,8.30298 15.925509,15.61814 27.544699,19.77491 l -10.6321,15.11516 C 90.835053,405.92832 82.367426,399.60177 76.503073,388.08377 Z"
     fill="#3e3126"
     fill-opacity="1"
     id="path12"
     style="fill:#666666;stroke-width:0.755229" />
</svg>
