<?xml version="1.0" encoding="UTF-8" standalone="no"?>
<svg
   viewBox="0 0 512 512"
   style="height: 512px; width: 512px;"
   version="1.1"
   id="svg12"
   sodipodi:docname="recumbent-strike.svg"
   xml:space="preserve"
   inkscape:version="1.4 (e7c3feb1, 2024-10-09)"
   xmlns:inkscape="http://www.inkscape.org/namespaces/inkscape"
   xmlns:sodipodi="http://sodipodi.sourceforge.net/DTD/sodipodi-0.dtd"
   xmlns="http://www.w3.org/2000/svg"
   xmlns:svg="http://www.w3.org/2000/svg"><sodipodi:namedview
     id="namedview12"
     pagecolor="#505050"
     bordercolor="#ffffff"
     borderopacity="1"
     inkscape:showpageshadow="0"
     inkscape:pageopacity="0"
     inkscape:pagecheckerboard="1"
     inkscape:deskcolor="#d1d1d1"
     inkscape:zoom="0.19382293"
     inkscape:cx="466.92101"
     inkscape:cy="381.79176"
     inkscape:window-width="992"
     inkscape:window-height="247"
     inkscape:window-x="0"
     inkscape:window-y="38"
     inkscape:window-maximized="0"
     inkscape:current-layer="svg12" /><defs
     id="defs2"><radialGradient
       id="lorc-surrounded-shield-gradient-0"><stop
         offset="0%"
         stop-color="#830000"
         stop-opacity="1"
         id="stop1" /><stop
         offset="100%"
         stop-color="#000"
         stop-opacity="1"
         id="stop2" /></radialGradient></defs><path
     d="M0 0h512v512H0z"
     fill="url(#pattern)"
     id="path2" /><svg
     version="1.1"
     id="svg11"><defs
       id="defs6"><filter
         id="b"
         x="-0.023338979"
         width="1.046678"
         y="-0.023448784"
         height="1.0468976"
         color-interpolation-filters="sRGB"><feGaussianBlur
           stdDeviation="4.823"
           id="feGaussianBlur2" /></filter><filter
         id="a"
         x="-0.012011281"
         width="1.0240226"
         y="-0.011988317"
         height="1.0239766"
         color-interpolation-filters="sRGB"><feGaussianBlur
           stdDeviation="2.55"
           id="feGaussianBlur3" /></filter><filter
         id="c"
         x="-0.11244604"
         width="1.2248921"
         y="-0.082623731"
         height="1.1652475"
         color-interpolation-filters="sRGB"><feGaussianBlur
           stdDeviation="15.63"
           id="feGaussianBlur4" /></filter><filter
         id="e"
         x="-0.23758603"
         width="1.4751721"
         y="-0.24869778"
         height="1.4973956"
         color-interpolation-filters="sRGB"><feGaussianBlur
           stdDeviation="18.7"
           id="feGaussianBlur5" /></filter><filter
         id="d"
         x="-0.21301439"
         width="1.4260288"
         y="-0.15141701"
         height="1.302834"
         color-interpolation-filters="sRGB"><feGaussianBlur
           stdDeviation="18.7"
           id="feGaussianBlur6" /></filter></defs><path
       d="M196.6 1.207c-2.5 11.323-4.8 22.703-10.2 33.383-7-10.68-12.6-20.91-16.7-31.988L2.494 4.338C13 104.9 10.86 175.3 1.979 278.3L15.4 295.5l-9.494 6.3L2.6 462.7l1.019 45.9 112.681 3.1c3.6-16.1 6.5-32.5 13.2-47.3 4.5 14.4 5.7 29.4 7 44.4l160 .3c.8-6.1.7-8.1 2.3-14.4 5.1 4.5 7.8 9.5 10.6 14.5.8-10.1 3.9-19.8 7-29.5 4.8 9.2 6.7 19.4 8.8 29.5l185.2.4-4.6-78.2-21.4-8.2 21.3-4.9 5.8-395.47c-7-6.73-13.3-13.744-18-21.465l-15.1.114-2.1 20.321-1.4 47.23.8 84.87-8.6-97.14c9.3-16.86 2.2-39.69 5.7-55.239-92.1 1.696-184.1.685-276.2-.314z"
       overflow="visible"
       color="#000"
       fill="#ebc893"
       fill-rule="evenodd"
       stroke="#e0aa58"
       enable-background="accumulate"
       id="path6" /><path
       d="M196.6 1.203c-2.5 11.327-4.8 22.707-10.2 33.387-7-10.68-12.6-20.91-16.7-31.99L2.494 4.336C13 104.9 10.86 175.3 1.979 278.3L15.4 295.5l-9.494 6.3L2.6 462.7l1.019 45.9 112.681 3.1c.5-2.1-7.9-2.3-7.4-4.5L5.244 504.5l-.914-47.3 4.63-153.7 12.42-9-13.093-16.8C16.95 177.3 16.36 104 6.113 5.992l162.687.164c4 10.804 10.3 24.254 17.1 34.664 5.3-10.41 9.5-25.97 12-37.02 89.8.974 173.8 3.521 263.6 1.867 4.6 1.226 10.6.431 11.3-4.149-92.1 1.696-184.1.684-276.2-.315zm296.9.158l-15.1.116-.6 6.277 13.5-2.557c4.6 7.533 9.7 12.383 16.6 18.943l-4.6 389.06-19.9 9.9 4.1-.6 18.2-4.2 5.8-395.47c-7-6.73-13.3-13.748-18-21.469zm9.6 435.739l3.5 69.7-177.7.1c.4 2.1-4.1.2-3.7 2.3l185.2.4-4.6-78.2zm-370 25.1c-1 2.2-2.9.4-3.7 2.6 4.2 14 5.8 29.5 7.1 44l158 .3c1.9-5 .8-9.7 4.3-14.4 5.1 4.5 7.8 9.5 10.6 14.5.8-10.1 3.9-19.8 7-29.5 1.8 3.4 3.2 7 4.3 10.6-1.4-5.6-2.4-8.3-5.1-13.4-3 9.4-6.7 16.2-7.5 26-2.7-4.9-5.4-9.7-10.4-14.1-3.4 4.6-6.2 9.1-8 14l-147.6 3.4c-3.4-14.6-7.1-30.3-9-44z"
       overflow="visible"
       color="#000"
       opacity=".527"
       fill="#c87137"
       fill-rule="evenodd"
       filter="url(#a)"
       enable-background="accumulate"
       id="path7" /><path
       d="M200.1 16.1c-2.3 10.67-10.5 21.38-15.6 31.44-6.6-10.06-13.9-19.69-17.7-30.12L17.34 19.05C24.61 113.6 7.605 179.3 16.85 277l18.26 20.1L10.34 309l7.1 141.6.96 43.3 90.2 3.4c3.4-15.2 15-35.6 21.3-49.6 4.3 13.6 15.4 36.7 16.6 50.9l45.1.8 13.8-18.7 14.4 22.2 68.7-8.6c1.8-4.7 4.5-9.1 7.8-13.5 4.8 4.2 7.4 8.9 10 13.6.8-9.5 7.7-19.6 10.6-28.7 4.5 8.6 19.9 28.9 33.1 33.9l114.6 5.6 22.3-14.7 19.4 14.7-14.5-67.6-34.6-14.2 37.5-15.1 2.1-96.9-14.5-21.9 15.2-13.4 5.1-239.63c-5.2-21.09-11.8-24.89-16.9-20.22l-4.2 2.11 2 19.14.7 44.47-7.1 124.23-18.3-137.78c8.8-15.88-3.9-35.38-.6-50.02-67.1 1.24-140.4-13.332-202.8-3.28-14 2.25-23.7 21.31-36.9 24.48-4.3 1.03-13.9-23.45-18.4-23.5z"
       overflow="visible"
       enable-background="accumulate"
       filter="url(#b)"
       fill-rule="evenodd"
       fill="#f6e7d0"
       color="#000"
       id="path8" /><path
       d="M354 27.39l-70.3 96.91 46.4 97.6-56.2 43.6 33 74.4-30.2 63.2 69.8 48.8 31.6 29.5 31.6-13.3L365.9 335l55.5-36.5 2.1-146.1-56.9-101.83zM116.6 55.48L89.9 123.6s33.7 65.3 35.8 68.8c2.1 3.6-7 118-7 118l42.8 73.8s9.9-82.9 7.1-83.6c-2.8-.7-29.5-42.1-29.5-42.1l23.8-84.3-36.5-37.2z"
       color="#000"
       overflow="visible"
       fill="#f2dbb9"
       fill-rule="evenodd"
       filter="url(#c)"
       enable-background="accumulate"
       id="path9" /><path
       d="M39.33 172.1l-5.62 108.1L74.45 328 42.84 464.9l96.96-39.3 30.2 42.9 74.4-38.7-80.8-169.9-60.4-16.9z"
       color="#000"
       overflow="visible"
       fill="#eed3a4"
       fill-rule="evenodd"
       enable-background="accumulate"
       filter="url(#d)"
       id="path10" /><path
       d="M266.9 66.72L324.5 191 434 221.2l21.8-111.6-41.4-68.86z"
       color="#000"
       overflow="visible"
       fill="#eed3a4"
       fill-rule="evenodd"
       enable-background="accumulate"
       filter="url(#e)"
       id="path11" /></svg><path
     style="fill:#666666;fill-opacity:1;stroke-width:0.539394"
     d="m 178.88601,434.78065 c -3.6027,-2.27315 -91.56659,-90.89877 -92.379133,-93.07407 -1.589632,-4.25569 -1.062413,-5.40618 5.625722,-12.27632 3.510083,-3.60561 6.745965,-7.26165 7.190837,-8.12453 1.510414,-2.92961 2.870404,-10.62385 4.044794,-22.88366 5.12939,-53.54725 16.90127,-90.89797 35.58701,-112.91317 4.95885,-5.84242 8.66114,-8.69083 15.47824,-11.9084 18.5279,-8.7449 53.44728,-15.02171 72.21238,-12.98029 16.81756,1.82956 24.86396,7.17284 44.94404,29.84554 12.75942,14.40685 15.19102,17.58156 17.9619,23.45125 1.91436,4.0553 2.20946,5.48478 2.22707,10.78788 0.0262,7.8591 -1.34487,10.73927 -8.83274,18.55611 -6.92611,7.23041 -10.49238,9.02728 -17.75707,8.94689 -11.00462,-0.12175 -19.49566,-4.5691 -32.63741,-17.09447 -10.1888,-9.71093 -12.29573,-11.19598 -18.37353,-12.95036 -13.47657,-3.89011 -26.82389,4.67934 -28.77318,18.47339 -0.31986,2.26335 0.11474,6.68394 1.34338,13.66465 5.44524,30.93804 3.8919,53.96619 -4.81962,71.45029 -2.81267,5.64507 -9.51983,15.37636 -14.55787,21.12175 -2.20903,2.51918 -3.84807,4.74868 -3.64231,4.95444 0.20576,0.20576 2.18656,-0.72267 4.40179,-2.06316 14.9177,-9.02713 27.10337,-31.67921 29.87723,-55.5391 1.24112,-10.67571 0.47626,-28.00203 -1.80927,-40.98525 -1.568,-8.90726 -1.74442,-11.152 -1.07257,-13.64707 2.05594,-7.63521 11.77926,-11.16203 19.71991,-7.15278 1.18668,0.59916 5.94276,4.7552 10.5691,9.23566 12.77342,12.37066 21.67348,18.28961 31.25332,20.78485 2.23519,0.58219 4.20071,1.19522 4.36776,1.36229 0.16709,0.16708 -0.20549,1.28858 -0.82793,2.49225 -4.78252,9.24833 -1.78845,22.06472 7.46565,31.95738 4.9719,5.31497 12.05203,9.41581 17.72529,10.26657 2.80473,0.42059 3.23039,0.69877 2.91496,1.90498 -0.20314,0.77687 -0.0514,3.40606 0.33718,5.84266 1.96669,12.33153 11.7917,22.66374 22.78979,23.9663 2.0527,0.24311 3.73056,0.63966 3.72858,0.88124 -0.003,0.24157 -2.18652,3.91115 -4.85455,8.15463 -17.39941,27.67371 -45.93605,52.78794 -79.28733,69.77835 -8.75515,4.46023 -10.69835,5.14901 -19.77777,7.01043 -12.25065,2.51157 -15.2762,3.55703 -20.90293,7.223 -4.95637,3.22919 -8.05424,3.62921 -11.46072,1.47985 z M 308.3112,328.72389 c -3.92833,-1.82928 -7.11311,-5.10933 -8.82172,-9.08565 -1.61472,-3.7578 -1.4167,-10.54935 0.40892,-14.02425 1.78829,-3.40383 39.09419,-40.72907 42.24422,-42.2661 5.56279,-2.71433 12.76547,-1.94918 17.80019,1.89091 1.69525,1.29302 3.8966,3.99513 5.07276,6.22672 1.82935,3.47094 2.0395,4.50213 1.75739,8.6229 -0.17625,2.57425 -0.83118,5.6488 -1.45541,6.83232 -0.62424,1.1835 -10.13942,11.1037 -21.14485,22.04486 -21.48644,21.36095 -21.61544,21.45636 -28.99978,21.44948 -1.88117,-0.002 -4.75445,-0.70992 -6.86172,-1.69119 z m 102.36275,-10.78532 c -1.70538,-1.29565 -2.44813,-3.58612 -3.06368,-9.44781 -0.29077,-2.76888 -1.11455,-8.43252 -1.83063,-12.58585 -10.49603,-60.87875 -41.06835,-112.8835 -86.14499,-146.53616 -39.31614,-29.3521 -88.66728,-46.0476 -144.27514,-48.80834 -8.33613,-0.41386 -10.2201,-0.717313 -11.32726,-1.82449 -1.96769,-1.967672 -1.74767,-5.927947 0.42424,-7.636369 2.63987,-2.076516 14.6433,-2.506348 42.8376,-1.533983 44.64992,1.539889 64.93387,-0.890495 83.22544,-9.971935 5.84217,-2.900526 6.84972,-3.192976 8.46496,-2.457021 2.47436,1.127394 3.24195,3.506821 3.2484,10.069582 0.016,16.304916 4.46568,24.985486 14.35911,28.012296 6.35993,1.94577 23.04045,1.73056 30.94456,-0.39925 7.98379,-2.15126 17.6528,-6.98071 24.76405,-12.36905 6.20135,-4.698896 8.45719,-5.281571 11.05994,-2.856736 2.62298,2.443676 2.39863,3.822296 -1.69252,10.400396 -4.49899,7.23386 -8.77914,16.70424 -10.47151,23.16953 -1.68372,6.43226 -2.02712,17.42807 -0.70265,22.49906 2.98924,11.44478 9.52332,20.39658 18.24299,24.99325 3.4598,1.82387 4.38766,1.97644 12.01992,1.97644 8.728,0 7.90206,0.20752 19.46362,-4.89023 3.11491,-1.37344 5.54497,-0.473 7.0188,2.60076 0.86683,1.80782 0.70006,2.57063 -1.88231,8.60926 -7.2153,16.87229 -8.92755,31.57673 -7.01059,60.20549 1.67934,25.07991 2.12765,46.40037 1.20227,57.17578 -0.74155,8.6348 -0.94378,9.47319 -2.64555,10.96768 -2.05681,1.8063 -4.37815,2.04395 -6.22907,0.6377 z M 282.76132,295.26409 c -10.61157,-3.46443 -15.85547,-15.93186 -11.08632,-26.35779 0.84088,-1.83821 8.46371,-10.03704 21.50134,-23.12597 22.63445,-22.72352 23.78085,-23.56345 32.1185,-23.53245 14.06101,0.0523 22.8605,15.13247 16.08936,27.57326 -2.27395,4.17801 -40.33981,42.34871 -44.19109,44.31279 -2.79242,1.42409 -11.4539,2.10237 -14.43179,1.13016 z m 18.93836,-75.19522 c -1.35784,-8.53412 -6.77034,-18.26013 -16.53725,-29.71668 l -3.04078,-3.56682 4.61094,-4.42766 c 5.92006,-5.68472 9.3255,-7.2429 15.85445,-7.25427 15.14335,-0.0264 25.13373,15.25126 18.89058,28.88812 -1.37228,2.99743 -4.16265,6.44415 -10.39006,12.83406 l -8.51394,8.73607 z m -29.04552,-43.60206 c -7.82948,-9.04231 -19.34884,-17.99029 -27.69107,-21.50982 l -4.52637,-1.90963 4.82465,-4.7724 c 6.24419,-6.17654 11.42279,-8.64628 18.12972,-8.64628 8.65715,0 16.15705,4.69966 20.10368,12.59759 1.87141,3.74499 2.19127,5.19143 2.19127,9.90889 0,4.68254 -0.32435,6.17287 -2.12971,9.78574 -1.17135,2.34406 -3.23297,5.33124 -4.58137,6.63818 l -2.45166,2.37623 z"
     id="path14" /></svg>
