<?xml version="1.0" encoding="UTF-8" standalone="no"?>
<svg
   viewBox="0 0 512 512"
   style="height: 512px; width: 512px;"
   version="1.1"
   id="svg12"
   sodipodi:docname="bear--bicep copy.svg"
   inkscape:version="1.4 (e7c3feb1, 2024-10-09)"
   xmlns:inkscape="http://www.inkscape.org/namespaces/inkscape"
   xmlns:sodipodi="http://sodipodi.sourceforge.net/DTD/sodipodi-0.dtd"
   xmlns="http://www.w3.org/2000/svg"
   xmlns:svg="http://www.w3.org/2000/svg">
  <sodipodi:namedview
     id="namedview12"
     pagecolor="#505050"
     bordercolor="#ffffff"
     borderopacity="1"
     inkscape:showpageshadow="0"
     inkscape:pageopacity="0"
     inkscape:pagecheckerboard="1"
     inkscape:deskcolor="#d1d1d1"
     inkscape:zoom="0.35305908"
     inkscape:cx="178.44039"
     inkscape:cy="213.84523"
     inkscape:window-width="1248"
     inkscape:window-height="696"
     inkscape:window-x="318"
     inkscape:window-y="38"
     inkscape:window-maximized="0"
     inkscape:current-layer="svg12" />
  <defs
     id="defs2">
    <radialGradient
       id="delapouite-biceps-gradient-0">
      <stop
         offset="0%"
         stop-color="#830000"
         stop-opacity="1"
         id="stop1" />
      <stop
         offset="100%"
         stop-color="#000"
         stop-opacity="1"
         id="stop2" />
    </radialGradient>
  </defs>
  <path
     d="M0 0h512v512H0z"
     fill="url(#pattern)"
     id="path2" />
  <svg
     version="1.1"
     id="svg11">
    <defs
       id="defs6">
      <filter
         id="b"
         x="-0.023338979"
         width="1.046678"
         y="-0.023448784"
         height="1.0468976"
         color-interpolation-filters="sRGB">
        <feGaussianBlur
           stdDeviation="4.823"
           id="feGaussianBlur2" />
      </filter>
      <filter
         id="a"
         x="-0.012011281"
         width="1.0240226"
         y="-0.011988317"
         height="1.0239766"
         color-interpolation-filters="sRGB">
        <feGaussianBlur
           stdDeviation="2.55"
           id="feGaussianBlur3" />
      </filter>
      <filter
         id="c"
         x="-0.11244604"
         width="1.2248921"
         y="-0.082623731"
         height="1.1652475"
         color-interpolation-filters="sRGB">
        <feGaussianBlur
           stdDeviation="15.63"
           id="feGaussianBlur4" />
      </filter>
      <filter
         id="e"
         x="-0.23758603"
         width="1.4751721"
         y="-0.24869778"
         height="1.4973956"
         color-interpolation-filters="sRGB">
        <feGaussianBlur
           stdDeviation="18.7"
           id="feGaussianBlur5" />
      </filter>
      <filter
         id="d"
         x="-0.21301439"
         width="1.4260288"
         y="-0.15141701"
         height="1.302834"
         color-interpolation-filters="sRGB">
        <feGaussianBlur
           stdDeviation="18.7"
           id="feGaussianBlur6" />
      </filter>
    </defs>
    <path
       d="M196.6 1.207c-2.5 11.323-4.8 22.703-10.2 33.383-7-10.68-12.6-20.91-16.7-31.988L2.494 4.338C13 104.9 10.86 175.3 1.979 278.3L15.4 295.5l-9.494 6.3L2.6 462.7l1.019 45.9 112.681 3.1c3.6-16.1 6.5-32.5 13.2-47.3 4.5 14.4 5.7 29.4 7 44.4l160 .3c.8-6.1.7-8.1 2.3-14.4 5.1 4.5 7.8 9.5 10.6 14.5.8-10.1 3.9-19.8 7-29.5 4.8 9.2 6.7 19.4 8.8 29.5l185.2.4-4.6-78.2-21.4-8.2 21.3-4.9 5.8-395.47c-7-6.73-13.3-13.744-18-21.465l-15.1.114-2.1 20.321-1.4 47.23.8 84.87-8.6-97.14c9.3-16.86 2.2-39.69 5.7-55.239-92.1 1.696-184.1.685-276.2-.314z"
       overflow="visible"
       color="#000"
       fill="#ebc893"
       fill-rule="evenodd"
       stroke="#e0aa58"
       enable-background="accumulate"
       id="path6" />
    <path
       d="M196.6 1.203c-2.5 11.327-4.8 22.707-10.2 33.387-7-10.68-12.6-20.91-16.7-31.99L2.494 4.336C13 104.9 10.86 175.3 1.979 278.3L15.4 295.5l-9.494 6.3L2.6 462.7l1.019 45.9 112.681 3.1c.5-2.1-7.9-2.3-7.4-4.5L5.244 504.5l-.914-47.3 4.63-153.7 12.42-9-13.093-16.8C16.95 177.3 16.36 104 6.113 5.992l162.687.164c4 10.804 10.3 24.254 17.1 34.664 5.3-10.41 9.5-25.97 12-37.02 89.8.974 173.8 3.521 263.6 1.867 4.6 1.226 10.6.431 11.3-4.149-92.1 1.696-184.1.684-276.2-.315zm296.9.158l-15.1.116-.6 6.277 13.5-2.557c4.6 7.533 9.7 12.383 16.6 18.943l-4.6 389.06-19.9 9.9 4.1-.6 18.2-4.2 5.8-395.47c-7-6.73-13.3-13.748-18-21.469zm9.6 435.739l3.5 69.7-177.7.1c.4 2.1-4.1.2-3.7 2.3l185.2.4-4.6-78.2zm-370 25.1c-1 2.2-2.9.4-3.7 2.6 4.2 14 5.8 29.5 7.1 44l158 .3c1.9-5 .8-9.7 4.3-14.4 5.1 4.5 7.8 9.5 10.6 14.5.8-10.1 3.9-19.8 7-29.5 1.8 3.4 3.2 7 4.3 10.6-1.4-5.6-2.4-8.3-5.1-13.4-3 9.4-6.7 16.2-7.5 26-2.7-4.9-5.4-9.7-10.4-14.1-3.4 4.6-6.2 9.1-8 14l-147.6 3.4c-3.4-14.6-7.1-30.3-9-44z"
       overflow="visible"
       color="#000"
       opacity=".527"
       fill="#c87137"
       fill-rule="evenodd"
       filter="url(#a)"
       enable-background="accumulate"
       id="path7" />
    <path
       d="M200.1 16.1c-2.3 10.67-10.5 21.38-15.6 31.44-6.6-10.06-13.9-19.69-17.7-30.12L17.34 19.05C24.61 113.6 7.605 179.3 16.85 277l18.26 20.1L10.34 309l7.1 141.6.96 43.3 90.2 3.4c3.4-15.2 15-35.6 21.3-49.6 4.3 13.6 15.4 36.7 16.6 50.9l45.1.8 13.8-18.7 14.4 22.2 68.7-8.6c1.8-4.7 4.5-9.1 7.8-13.5 4.8 4.2 7.4 8.9 10 13.6.8-9.5 7.7-19.6 10.6-28.7 4.5 8.6 19.9 28.9 33.1 33.9l114.6 5.6 22.3-14.7 19.4 14.7-14.5-67.6-34.6-14.2 37.5-15.1 2.1-96.9-14.5-21.9 15.2-13.4 5.1-239.63c-5.2-21.09-11.8-24.89-16.9-20.22l-4.2 2.11 2 19.14.7 44.47-7.1 124.23-18.3-137.78c8.8-15.88-3.9-35.38-.6-50.02-67.1 1.24-140.4-13.332-202.8-3.28-14 2.25-23.7 21.31-36.9 24.48-4.3 1.03-13.9-23.45-18.4-23.5z"
       overflow="visible"
       enable-background="accumulate"
       filter="url(#b)"
       fill-rule="evenodd"
       fill="#f6e7d0"
       color="#000"
       id="path8" />
    <path
       d="M354 27.39l-70.3 96.91 46.4 97.6-56.2 43.6 33 74.4-30.2 63.2 69.8 48.8 31.6 29.5 31.6-13.3L365.9 335l55.5-36.5 2.1-146.1-56.9-101.83zM116.6 55.48L89.9 123.6s33.7 65.3 35.8 68.8c2.1 3.6-7 118-7 118l42.8 73.8s9.9-82.9 7.1-83.6c-2.8-.7-29.5-42.1-29.5-42.1l23.8-84.3-36.5-37.2z"
       color="#000"
       overflow="visible"
       fill="#f2dbb9"
       fill-rule="evenodd"
       filter="url(#c)"
       enable-background="accumulate"
       id="path9" />
    <path
       d="M39.33 172.1l-5.62 108.1L74.45 328 42.84 464.9l96.96-39.3 30.2 42.9 74.4-38.7-80.8-169.9-60.4-16.9z"
       color="#000"
       overflow="visible"
       fill="#eed3a4"
       fill-rule="evenodd"
       enable-background="accumulate"
       filter="url(#d)"
       id="path10" />
    <path
       d="M266.9 66.72L324.5 191 434 221.2l21.8-111.6-41.4-68.86z"
       color="#000"
       overflow="visible"
       fill="#eed3a4"
       fill-rule="evenodd"
       enable-background="accumulate"
       filter="url(#e)"
       id="path11" />
  </svg>
  <path
     id="path12"
     style="fill:#666666;fill-opacity:1;stroke-width:0.799083"
     d="m 233.04886,107.02407 c -16.29012,3.39611 -32.78277,7.46075 -49.09766,11.26758 -12.00277,12.23322 -12.70174,18.24149 -18.75781,35.08008 2.14954,7.30362 4.11901,13.52777 7.31055,20.07226 4.12165,0.22614 8.60235,0.37376 12.25976,0.3418 -4.8824,-8.15705 -6.61436,-15.43697 -3.7832,-28.18555 3.43606,15.22255 10.26622,23.96636 16.94336,27.43359 2.42284,-0.26689 4.76105,-0.5708 7.01367,-0.91601 -4.99828,-8.26012 -6.78846,-15.55787 -3.92773,-28.4375 3.11402,13.80017 9.01884,22.27571 15.07031,26.32226 3.72213,-0.83343 7.41796,-1.79261 11.12891,-2.82422 -4.40855,-7.74312 -5.88077,-14.93675 -3.17188,-27.13476 2.68252,11.88718 7.43815,19.82519 12.57227,24.38476 4.07132,-1.25456 7.42773,-2.31477 11.06836,-3.47265 -0.54738,-4.62029 -0.33302,-9.73934 0.84961,-15.27539 l 1.50586,-7.03125 14.06445,3.00391 -1.50195,7.03515 c -2.90549,13.59082 1.05778,19.51335 5.83789,22.90625 4.77854,3.39131 11.73976,2.76534 12.81054,2.07812 l 6.05274,-3.88281 7.76757,12.10547 c -3.08206,1.86983 -6.31326,4.34612 -9.44726,5.64063 14.9029,22.11703 25.71798,49.11726 19.7832,74.75586 -1.88984,7.57051 -4.81853,14.57662 -9.36133,19.96484 10.16835,9.69289 16.95227,17.6006 24.79688,27.56836 -2.96702,-1.90742 -6.06271,-3.87017 -9.34375,-5.88867 -9.10715,-5.60156 -19.04298,-11.35894 -27.95117,-15.82422 -12.79492,-6.23284 -25.06522,-14.54617 -38.14063,-16.39844 -18.02093,-2.37089 -36.97268,3.83265 -58.58789,16.82813 6.29037,6.96801 10.61292,12.36508 16.23047,19.4082 -5.5776,-3.46641 -11.70727,-7.24782 -18.50586,-11.37109 -26.01339,-13.96798 -52.25349,-38.53653 -80.25976,-39.94532 -3.5882,43.38927 19.23016,71.68875 68.45507,84.89844 2.10329,-0.99689 4.33999,-1.94363 6.75196,-2.81641 3.4784,-1.72602 4.0513,-1.13018 6.89843,1.11524 24.34648,19.18601 45.77941,25.58592 66.51563,25.84961 26.05812,-1.24418 46.69976,-7.89665 68.4668,-15.48633 -3.16917,2.81914 -7.00776,5.76126 -11.17579,8.59961 -12.24435,8.33923 -27.34343,15.9252 -37.00195,19.81836 -11.75931,1.60294 -22.66201,1.93056 -33.53515,0.49219 -6.04513,7.33792 -14.68466,12.90067 -22.61914,17.36914 l 5,6.20117 c 45.56467,7.14327 83.71052,-3.07294 121.52929,-20.55274 -7.60886,-1.45193 -15.18857,-2.94926 -22.36914,-4.33007 25.27821,-3.53355 51.92819,-3.00891 75.67774,-2.82032 3.26346,-0.0161 5.76294,-0.36297 6.95117,-0.70898 11.32062,-40.81078 -3.27279,-78.22403 -27.4043,-116.03906 -24.18266,-37.89655 -57.67827,-75.19923 -81.42383,-114.30078 -16.86066,-13.78978 -38.83422,-25.13593 -61.94531,-36.89844 z m 19.13086,67.59375 c -9.33171,2.87669 -18.94648,5.93277 -27.05078,8 2.01929,3.93949 2.98458,8.52194 2.71289,12.94726 8.81229,0.7008 16.8473,-1.61366 23.14648,-5.08008 3.87156,-2.13036 6.98436,-4.83126 9.1211,-7.1582 -3.07926,-2.18519 -5.80185,-5.12174 -7.92969,-8.70898 z m -43.32031,11.74414 c -9.39723,0.91336 -19.64922,1.88778 -28.01563,1.78711 1.9098,3.8132 3.02112,9.6435 6.80078,11.85937 8.93376,0.93013 16.46092,1.59449 23.90039,-1.39648 4.34303,-2.56826 1.45212,-12.03264 -2.68554,-12.25 z m -24.38672,169.73047 c -8.12406,15.32493 -0.2751,25.0593 23.54687,29.20312 5.3829,-3.08303 10.43512,-6.35329 14.88672,-9.81836 -12.46765,-3.73509 -25.30007,-10.07874 -38.43359,-19.38476 z"
     sodipodi:nodetypes="ccccccccccccccccccccccccccccccccccccccccccccccccccccccccccccccccc" />
</svg>
