<?xml version="1.0" encoding="UTF-8" standalone="no"?>
<svg
   viewBox="0 0 512 512"
   style="height: 512px; width: 512px;"
   version="1.1"
   id="svg12"
   sodipodi:docname="bear--head.svg"
   inkscape:version="1.4 (e7c3feb1, 2024-10-09)"
   xmlns:inkscape="http://www.inkscape.org/namespaces/inkscape"
   xmlns:sodipodi="http://sodipodi.sourceforge.net/DTD/sodipodi-0.dtd"
   xmlns="http://www.w3.org/2000/svg"
   xmlns:svg="http://www.w3.org/2000/svg">
  <sodipodi:namedview
     id="namedview12"
     pagecolor="#505050"
     bordercolor="#ffffff"
     borderopacity="1"
     inkscape:showpageshadow="0"
     inkscape:pageopacity="0"
     inkscape:pagecheckerboard="1"
     inkscape:deskcolor="#d1d1d1"
     inkscape:zoom="0.063154605"
     inkscape:cx="229.59529"
     inkscape:cy="625.44925"
     inkscape:window-width="1248"
     inkscape:window-height="598"
     inkscape:window-x="0"
     inkscape:window-y="38"
     inkscape:window-maximized="0"
     inkscape:current-layer="svg12" />
  <defs
     id="defs2">
    <radialGradient
       id="delapouite-bear-head-gradient-0">
      <stop
         offset="0%"
         stop-color="#830000"
         stop-opacity="1"
         id="stop1" />
      <stop
         offset="100%"
         stop-color="#000"
         stop-opacity="1"
         id="stop2" />
    </radialGradient>
  </defs>
  <path
     d="M0 0h512v512H0z"
     fill="url(#pattern)"
     id="path2" />
  <svg
     version="1.1"
     id="svg11">
    <defs
       id="defs6">
      <filter
         id="b"
         x="-0.023338979"
         width="1.046678"
         y="-0.023448784"
         height="1.0468976"
         color-interpolation-filters="sRGB">
        <feGaussianBlur
           stdDeviation="4.823"
           id="feGaussianBlur2" />
      </filter>
      <filter
         id="a"
         x="-0.012011281"
         width="1.0240226"
         y="-0.011988317"
         height="1.0239766"
         color-interpolation-filters="sRGB">
        <feGaussianBlur
           stdDeviation="2.55"
           id="feGaussianBlur3" />
      </filter>
      <filter
         id="c"
         x="-0.11244604"
         width="1.2248921"
         y="-0.082623731"
         height="1.1652475"
         color-interpolation-filters="sRGB">
        <feGaussianBlur
           stdDeviation="15.63"
           id="feGaussianBlur4" />
      </filter>
      <filter
         id="e"
         x="-0.23758603"
         width="1.4751721"
         y="-0.24869778"
         height="1.4973956"
         color-interpolation-filters="sRGB">
        <feGaussianBlur
           stdDeviation="18.7"
           id="feGaussianBlur5" />
      </filter>
      <filter
         id="d"
         x="-0.21301439"
         width="1.4260288"
         y="-0.15141701"
         height="1.302834"
         color-interpolation-filters="sRGB">
        <feGaussianBlur
           stdDeviation="18.7"
           id="feGaussianBlur6" />
      </filter>
    </defs>
    <path
       d="M196.6 1.207c-2.5 11.323-4.8 22.703-10.2 33.383-7-10.68-12.6-20.91-16.7-31.988L2.494 4.338C13 104.9 10.86 175.3 1.979 278.3L15.4 295.5l-9.494 6.3L2.6 462.7l1.019 45.9 112.681 3.1c3.6-16.1 6.5-32.5 13.2-47.3 4.5 14.4 5.7 29.4 7 44.4l160 .3c.8-6.1.7-8.1 2.3-14.4 5.1 4.5 7.8 9.5 10.6 14.5.8-10.1 3.9-19.8 7-29.5 4.8 9.2 6.7 19.4 8.8 29.5l185.2.4-4.6-78.2-21.4-8.2 21.3-4.9 5.8-395.47c-7-6.73-13.3-13.744-18-21.465l-15.1.114-2.1 20.321-1.4 47.23.8 84.87-8.6-97.14c9.3-16.86 2.2-39.69 5.7-55.239-92.1 1.696-184.1.685-276.2-.314z"
       overflow="visible"
       color="#000"
       fill="#ebc893"
       fill-rule="evenodd"
       stroke="#e0aa58"
       enable-background="accumulate"
       id="path6" />
    <path
       d="M196.6 1.203c-2.5 11.327-4.8 22.707-10.2 33.387-7-10.68-12.6-20.91-16.7-31.99L2.494 4.336C13 104.9 10.86 175.3 1.979 278.3L15.4 295.5l-9.494 6.3L2.6 462.7l1.019 45.9 112.681 3.1c.5-2.1-7.9-2.3-7.4-4.5L5.244 504.5l-.914-47.3 4.63-153.7 12.42-9-13.093-16.8C16.95 177.3 16.36 104 6.113 5.992l162.687.164c4 10.804 10.3 24.254 17.1 34.664 5.3-10.41 9.5-25.97 12-37.02 89.8.974 173.8 3.521 263.6 1.867 4.6 1.226 10.6.431 11.3-4.149-92.1 1.696-184.1.684-276.2-.315zm296.9.158l-15.1.116-.6 6.277 13.5-2.557c4.6 7.533 9.7 12.383 16.6 18.943l-4.6 389.06-19.9 9.9 4.1-.6 18.2-4.2 5.8-395.47c-7-6.73-13.3-13.748-18-21.469zm9.6 435.739l3.5 69.7-177.7.1c.4 2.1-4.1.2-3.7 2.3l185.2.4-4.6-78.2zm-370 25.1c-1 2.2-2.9.4-3.7 2.6 4.2 14 5.8 29.5 7.1 44l158 .3c1.9-5 .8-9.7 4.3-14.4 5.1 4.5 7.8 9.5 10.6 14.5.8-10.1 3.9-19.8 7-29.5 1.8 3.4 3.2 7 4.3 10.6-1.4-5.6-2.4-8.3-5.1-13.4-3 9.4-6.7 16.2-7.5 26-2.7-4.9-5.4-9.7-10.4-14.1-3.4 4.6-6.2 9.1-8 14l-147.6 3.4c-3.4-14.6-7.1-30.3-9-44z"
       overflow="visible"
       color="#000"
       opacity=".527"
       fill="#c87137"
       fill-rule="evenodd"
       filter="url(#a)"
       enable-background="accumulate"
       id="path7" />
    <path
       d="M200.1 16.1c-2.3 10.67-10.5 21.38-15.6 31.44-6.6-10.06-13.9-19.69-17.7-30.12L17.34 19.05C24.61 113.6 7.605 179.3 16.85 277l18.26 20.1L10.34 309l7.1 141.6.96 43.3 90.2 3.4c3.4-15.2 15-35.6 21.3-49.6 4.3 13.6 15.4 36.7 16.6 50.9l45.1.8 13.8-18.7 14.4 22.2 68.7-8.6c1.8-4.7 4.5-9.1 7.8-13.5 4.8 4.2 7.4 8.9 10 13.6.8-9.5 7.7-19.6 10.6-28.7 4.5 8.6 19.9 28.9 33.1 33.9l114.6 5.6 22.3-14.7 19.4 14.7-14.5-67.6-34.6-14.2 37.5-15.1 2.1-96.9-14.5-21.9 15.2-13.4 5.1-239.63c-5.2-21.09-11.8-24.89-16.9-20.22l-4.2 2.11 2 19.14.7 44.47-7.1 124.23-18.3-137.78c8.8-15.88-3.9-35.38-.6-50.02-67.1 1.24-140.4-13.332-202.8-3.28-14 2.25-23.7 21.31-36.9 24.48-4.3 1.03-13.9-23.45-18.4-23.5z"
       overflow="visible"
       enable-background="accumulate"
       filter="url(#b)"
       fill-rule="evenodd"
       fill="#f6e7d0"
       color="#000"
       id="path8" />
    <path
       d="M354 27.39l-70.3 96.91 46.4 97.6-56.2 43.6 33 74.4-30.2 63.2 69.8 48.8 31.6 29.5 31.6-13.3L365.9 335l55.5-36.5 2.1-146.1-56.9-101.83zM116.6 55.48L89.9 123.6s33.7 65.3 35.8 68.8c2.1 3.6-7 118-7 118l42.8 73.8s9.9-82.9 7.1-83.6c-2.8-.7-29.5-42.1-29.5-42.1l23.8-84.3-36.5-37.2z"
       color="#000"
       overflow="visible"
       fill="#f2dbb9"
       fill-rule="evenodd"
       filter="url(#c)"
       enable-background="accumulate"
       id="path9" />
    <path
       d="M39.33 172.1l-5.62 108.1L74.45 328 42.84 464.9l96.96-39.3 30.2 42.9 74.4-38.7-80.8-169.9-60.4-16.9z"
       color="#000"
       overflow="visible"
       fill="#eed3a4"
       fill-rule="evenodd"
       enable-background="accumulate"
       filter="url(#d)"
       id="path10" />
    <path
       d="M266.9 66.72L324.5 191 434 221.2l21.8-111.6-41.4-68.86z"
       color="#000"
       overflow="visible"
       fill="#eed3a4"
       fill-rule="evenodd"
       enable-background="accumulate"
       filter="url(#e)"
       id="path11" />
  </svg>
  <path
     d="m 244.09178,68.510691 c -0.49628,-0.148714 -7.83172,1.21096 -15.94218,6.777976 -7.60397,5.220299 -16.07305,13.010383 -23.18499,21.361332 l 0.28893,0.227745 c -5.21265,6.625866 -11.15698,14.290176 -14.96746,21.896706 -3.81134,7.60652 -5.34862,14.608 -3.38984,20.99846 l -14.62415,4.48183 c -3.52155,-11.48755 -0.44359,-22.78899 4.33736,-32.33135 1.87635,-3.7459 4.03908,-7.2972 6.2868,-10.63945 -36.55824,0.13172 -73.14028,-2.298701 -110.811752,-6.124484 -26.560882,-2.987752 -14.414654,360.554634 0,348.270354 6.679487,-6.06032 13.717157,-11.71372 21.07495,-16.92965 l 1.615463,-1.14297 1.965579,-0.21585 c 20.42401,-2.25196 47.43648,-5.652 72.15451,-13.42933 24.71718,-7.77734 46.68272,-19.88609 58.32408,-38.40315 l 2.17378,-3.46122 4.08667,-0.11388 c 77.50992,-2.16443 119.07856,-16.87865 164.56476,-42.61983 0.10708,-0.0807 0.21415,-0.16911 0.32038,-0.25069 -5.8415,-0.31953 -12.3161,-0.55237 -18.97935,-0.52433 -17.37324,0.0731 -35.77643,2.61737 -43.6515,7.62522 l -8.20733,-12.9067 c 13.68682,-8.70362 33.3885,-9.93752 51.79424,-10.01485 13.3673,-0.0561 26.0743,0.87189 34.2077,1.52708 5.89589,-6.57657 11.5003,-14.02419 16.2991,-21.6817 4.30507,-6.87146 7.9286,-13.92477 10.6539,-20.54553 -3.24708,-0.46739 -6.28425,-1.39537 -9.03589,-2.76864 -7.03886,-3.51306 -11.91924,-9.72762 -14.23749,-16.65261 -3.25217,-9.71487 -1.77352,-21.07325 4.47673,-30.40316 l -54.93169,-19.84275 0.2354,-5.60695 c 0.33652,-8.00679 -5.42765,-22.98955 -12.40788,-29.49814 -18.32841,-17.0911 -39.86395,-18.3386 -66.33511,-28.83359 l -3.02017,-1.19651 -1.23476,-3.00488 c -9.06053,-22.03012 -14.49752,-37.411436 -19.94472,-47.163699 -5.44889,-9.751413 -9.83554,-13.840634 -19.95322,-16.86081 z m -4.93561,17.692761 8.36199,12.808131 c -24.70358,16.127437 -25.29929,29.689337 -26.53914,43.891977 l -15.23685,-1.32738 c 1.2747,-14.62329 4.9985,-36.82167 33.414,-55.372728 z m -80.73236,67.358258 6.8995,13.65113 c -35.9175,18.1491 -51.61749,40.14183 -55.98459,59.869 12.20818,-9.58485 25.23895,-14.6029 42.67508,-13.98764 l 12.94919,0.45719 -6.6573,11.11533 c -14.67429,24.50303 -19.16461,36.14524 -22.29866,50.72945 3.41363,-1.29849 6.80432,-2.23922 10.29868,-2.53155 8.31101,-0.69513 16.26681,1.93754 24.73333,6.58253 l 8.07306,4.42829 -5.83725,7.12384 c -8.47927,10.34882 -11.86825,17.01292 -12.9373,23.42039 -0.40535,2.42702 -0.38581,5.07668 -0.16826,7.93115 2.3038,-2.37773 4.74187,-4.50817 7.59888,-6.11684 7.75439,-4.3654 16.77923,-4.95006 28.12571,-3.93625 l -1.36052,15.2343 c -10.11258,-0.90334 -15.40851,-0.13767 -19.26149,2.03186 -3.85297,2.16953 -7.57168,6.62671 -12.64497,15.62775 l -9.39025,16.66791 -4.68747,-18.54765 c -3.00403,-11.88866 -4.96451,-21.42847 -3.29891,-31.40933 1.26279,-7.57168 4.61779,-14.76096 10.19925,-22.72525 -2.908,-0.93733 -5.4183,-1.2747 -7.86741,-1.06905 -4.45633,0.37306 -9.83385,2.59783 -17.81598,7.82068 l -14.75672,9.65454 3.03547,-17.37069 c 3.63968,-20.83106 6.40662,-34.19751 20.045,-59.05235 -11.92859,2.17548 -19.89798,8.7716 -31.78918,21.66301 l -11.422964,12.38153 -1.801568,-16.74864 c -3.25387,-30.21706 14.290172,-67.09482 65.347642,-92.89464 z m 122.12169,22.92411 c 15.11618,6.6726 33.34601,12.15294 48.31857,14.12106 l 3.1502,14.97002 c -3.27342,0.68833 -6.15253,0.54727 -9.22964,0.0595 -1.15827,7.67027 -8.10451,13.3724 -15.92519,13.3724 -8.57359,0 -16.10024,-6.84936 -16.10024,-15.63285 0,-2.08201 0.43425,-4.05013 1.19312,-5.84915 -7.5207,-3.14595 -20.15463,-5.92988 -24.47244,-12.51156 4.92542,-2.13638 12.53874,-8.9679 13.06562,-8.5294 z m 153.24038,53.49553 c -3.19353,5.34267 -3.64902,11.37113 -2.0718,16.08495 1.18631,3.54365 3.34904,6.21796 6.56128,7.82067 1.82026,0.90928 4.08157,1.52709 6.92329,1.54918 0.25748,-1.28319 0.46398,-2.52219 0.6008,-3.69491 -0.78691,-5.77267 -5.57041,-14.11512 -12.01357,-21.75989 z"
     fill="#3e3126"
     fill-opacity="1"
     id="path12"
     style="fill:#737373;fill-opacity:1;stroke-width:0.849796"
     sodipodi:nodetypes="ccccccccccccccccccccsccsccccscccccccccccccccccccccccccccccccsccccccccccccccccccsscccccccccc" />
</svg>
