<?xml version="1.0" encoding="UTF-8" standalone="no"?>
<svg
   viewBox="0 0 512 512"
   style="height: 512px; width: 512px;"
   version="1.1"
   id="svg12"
   sodipodi:docname="mountains.svg"
   xml:space="preserve"
   inkscape:version="1.3.2 (091e20e, 2023-11-25)"
   xmlns:inkscape="http://www.inkscape.org/namespaces/inkscape"
   xmlns:sodipodi="http://sodipodi.sourceforge.net/DTD/sodipodi-0.dtd"
   xmlns="http://www.w3.org/2000/svg"
   xmlns:svg="http://www.w3.org/2000/svg"><sodipodi:namedview
     id="namedview12"
     pagecolor="#505050"
     bordercolor="#ffffff"
     borderopacity="1"
     inkscape:showpageshadow="0"
     inkscape:pageopacity="0"
     inkscape:pagecheckerboard="1"
     inkscape:deskcolor="#d1d1d1"
     inkscape:zoom="0.20227623"
     inkscape:cx="-469.6548"
     inkscape:cy="1095.0372"
     inkscape:window-width="1728"
     inkscape:window-height="1051"
     inkscape:window-x="0"
     inkscape:window-y="38"
     inkscape:window-maximized="1"
     inkscape:current-layer="svg12" /><defs
     id="defs2"><radialGradient
       id="lorc-hammer-drop-gradient-0"><stop
         offset="0%"
         stop-color="#830000"
         stop-opacity="1"
         id="stop1" /><stop
         offset="100%"
         stop-color="#000"
         stop-opacity="1"
         id="stop2" /></radialGradient></defs><path
     d="M0 0h512v512H0z"
     fill="url(#pattern)"
     id="path2" /><svg
     version="1.1"
     id="svg11"><defs
       id="defs6"><filter
         id="b"
         x="-0.023338979"
         width="1.046678"
         y="-0.023448784"
         height="1.0468976"
         color-interpolation-filters="sRGB"><feGaussianBlur
           stdDeviation="4.823"
           id="feGaussianBlur2" /></filter><filter
         id="a"
         x="-0.012011281"
         width="1.0240226"
         y="-0.011988317"
         height="1.0239766"
         color-interpolation-filters="sRGB"><feGaussianBlur
           stdDeviation="2.55"
           id="feGaussianBlur3" /></filter><filter
         id="c"
         x="-0.11244604"
         width="1.2248921"
         y="-0.082623731"
         height="1.1652475"
         color-interpolation-filters="sRGB"><feGaussianBlur
           stdDeviation="15.63"
           id="feGaussianBlur4" /></filter><filter
         id="e"
         x="-0.23758603"
         width="1.4751721"
         y="-0.24869778"
         height="1.4973956"
         color-interpolation-filters="sRGB"><feGaussianBlur
           stdDeviation="18.7"
           id="feGaussianBlur5" /></filter><filter
         id="d"
         x="-0.21301439"
         width="1.4260288"
         y="-0.15141701"
         height="1.302834"
         color-interpolation-filters="sRGB"><feGaussianBlur
           stdDeviation="18.7"
           id="feGaussianBlur6" /></filter></defs><path
       d="M196.6 1.207c-2.5 11.323-4.8 22.703-10.2 33.383-7-10.68-12.6-20.91-16.7-31.988L2.494 4.338C13 104.9 10.86 175.3 1.979 278.3L15.4 295.5l-9.494 6.3L2.6 462.7l1.019 45.9 112.681 3.1c3.6-16.1 6.5-32.5 13.2-47.3 4.5 14.4 5.7 29.4 7 44.4l160 .3c.8-6.1.7-8.1 2.3-14.4 5.1 4.5 7.8 9.5 10.6 14.5.8-10.1 3.9-19.8 7-29.5 4.8 9.2 6.7 19.4 8.8 29.5l185.2.4-4.6-78.2-21.4-8.2 21.3-4.9 5.8-395.47c-7-6.73-13.3-13.744-18-21.465l-15.1.114-2.1 20.321-1.4 47.23.8 84.87-8.6-97.14c9.3-16.86 2.2-39.69 5.7-55.239-92.1 1.696-184.1.685-276.2-.314z"
       overflow="visible"
       color="#000"
       fill="#ebc893"
       fill-rule="evenodd"
       stroke="#e0aa58"
       enable-background="accumulate"
       id="path6" /><path
       d="M196.6 1.203c-2.5 11.327-4.8 22.707-10.2 33.387-7-10.68-12.6-20.91-16.7-31.99L2.494 4.336C13 104.9 10.86 175.3 1.979 278.3L15.4 295.5l-9.494 6.3L2.6 462.7l1.019 45.9 112.681 3.1c.5-2.1-7.9-2.3-7.4-4.5L5.244 504.5l-.914-47.3 4.63-153.7 12.42-9-13.093-16.8C16.95 177.3 16.36 104 6.113 5.992l162.687.164c4 10.804 10.3 24.254 17.1 34.664 5.3-10.41 9.5-25.97 12-37.02 89.8.974 173.8 3.521 263.6 1.867 4.6 1.226 10.6.431 11.3-4.149-92.1 1.696-184.1.684-276.2-.315zm296.9.158l-15.1.116-.6 6.277 13.5-2.557c4.6 7.533 9.7 12.383 16.6 18.943l-4.6 389.06-19.9 9.9 4.1-.6 18.2-4.2 5.8-395.47c-7-6.73-13.3-13.748-18-21.469zm9.6 435.739l3.5 69.7-177.7.1c.4 2.1-4.1.2-3.7 2.3l185.2.4-4.6-78.2zm-370 25.1c-1 2.2-2.9.4-3.7 2.6 4.2 14 5.8 29.5 7.1 44l158 .3c1.9-5 .8-9.7 4.3-14.4 5.1 4.5 7.8 9.5 10.6 14.5.8-10.1 3.9-19.8 7-29.5 1.8 3.4 3.2 7 4.3 10.6-1.4-5.6-2.4-8.3-5.1-13.4-3 9.4-6.7 16.2-7.5 26-2.7-4.9-5.4-9.7-10.4-14.1-3.4 4.6-6.2 9.1-8 14l-147.6 3.4c-3.4-14.6-7.1-30.3-9-44z"
       overflow="visible"
       color="#000"
       opacity=".527"
       fill="#c87137"
       fill-rule="evenodd"
       filter="url(#a)"
       enable-background="accumulate"
       id="path7" /><path
       d="M200.1 16.1c-2.3 10.67-10.5 21.38-15.6 31.44-6.6-10.06-13.9-19.69-17.7-30.12L17.34 19.05C24.61 113.6 7.605 179.3 16.85 277l18.26 20.1L10.34 309l7.1 141.6.96 43.3 90.2 3.4c3.4-15.2 15-35.6 21.3-49.6 4.3 13.6 15.4 36.7 16.6 50.9l45.1.8 13.8-18.7 14.4 22.2 68.7-8.6c1.8-4.7 4.5-9.1 7.8-13.5 4.8 4.2 7.4 8.9 10 13.6.8-9.5 7.7-19.6 10.6-28.7 4.5 8.6 19.9 28.9 33.1 33.9l114.6 5.6 22.3-14.7 19.4 14.7-14.5-67.6-34.6-14.2 37.5-15.1 2.1-96.9-14.5-21.9 15.2-13.4 5.1-239.63c-5.2-21.09-11.8-24.89-16.9-20.22l-4.2 2.11 2 19.14.7 44.47-7.1 124.23-18.3-137.78c8.8-15.88-3.9-35.38-.6-50.02-67.1 1.24-140.4-13.332-202.8-3.28-14 2.25-23.7 21.31-36.9 24.48-4.3 1.03-13.9-23.45-18.4-23.5z"
       overflow="visible"
       enable-background="accumulate"
       filter="url(#b)"
       fill-rule="evenodd"
       fill="#f6e7d0"
       color="#000"
       id="path8" /><path
       d="M354 27.39l-70.3 96.91 46.4 97.6-56.2 43.6 33 74.4-30.2 63.2 69.8 48.8 31.6 29.5 31.6-13.3L365.9 335l55.5-36.5 2.1-146.1-56.9-101.83zM116.6 55.48L89.9 123.6s33.7 65.3 35.8 68.8c2.1 3.6-7 118-7 118l42.8 73.8s9.9-82.9 7.1-83.6c-2.8-.7-29.5-42.1-29.5-42.1l23.8-84.3-36.5-37.2z"
       color="#000"
       overflow="visible"
       fill="#f2dbb9"
       fill-rule="evenodd"
       filter="url(#c)"
       enable-background="accumulate"
       id="path9" /><path
       d="M39.33 172.1l-5.62 108.1L74.45 328 42.84 464.9l96.96-39.3 30.2 42.9 74.4-38.7-80.8-169.9-60.4-16.9z"
       color="#000"
       overflow="visible"
       fill="#eed3a4"
       fill-rule="evenodd"
       enable-background="accumulate"
       filter="url(#d)"
       id="path10" /><path
       d="M266.9 66.72L324.5 191 434 221.2l21.8-111.6-41.4-68.86z"
       color="#000"
       overflow="visible"
       fill="#eed3a4"
       fill-rule="evenodd"
       enable-background="accumulate"
       filter="url(#e)"
       id="path11" /></svg><path
     id="path13"
     style="fill:#737373;fill-opacity:1;stroke-width:0.591323"
     d="m 246.45173,137.01758 c -0.14972,0 -2.12812,2.79215 -4.39844,6.20703 -4.74736,7.14069 -16.66283,23.6385 -17.72461,24.54101 -0.12754,0.10841 -0.99137,1.16345 -1.91992,2.34571 -7.09118,9.02818 -22.68749,25.20886 -29.89062,31.00976 -1.04645,0.84275 -2.34857,1.94647 -2.89258,2.45313 -1.6359,1.52372 -12.57681,9.62044 -16.16602,11.96289 -6.61103,4.3146 -14.66119,8.99609 -15.46875,8.99609 -0.21548,0 -1.56937,-0.78654 -3.00781,-1.74609 -5.28635,-3.52635 -15.70397,-16.15142 -24.63672,-29.85547 -1.20635,-1.85072 -2.44328,-3.5716 -2.75,-3.82617 -0.45313,-0.37604 -1.02995,0.0756 -3.07031,2.4043 -1.38126,1.57653 -2.6022,2.95409 -2.71484,3.0625 -0.11265,0.10841 -1.15351,1.35045 -2.31055,2.75976 -1.15699,1.40933 -2.92711,3.44913 -3.93555,4.5332 -1.00844,1.0841 -2.98571,3.3016 -4.39257,4.92774 -1.40683,1.62613 -3.36968,3.84362 -4.36329,4.92773 -0.99353,1.08407 -3.74492,4.09882 -6.11328,6.69922 -2.368307,2.60042 -4.660132,5.08864 -5.093747,5.5293 -0.433612,0.44069 -2.46771,2.56987 -4.519531,4.73242 -2.612055,2.753 -6.418477,6.47565 -9.667969,9.77734 0,0 -27.758131,26.75503 -28.753906,44.34375 -1.215031,21.4615 28.753906,57.72266 28.753906,57.72266 l 9.457031,6.77734 c 3.035429,2.11684 6.228408,4.35907 7.095704,4.98243 0.867285,0.62338 3.581102,2.48469 6.029292,4.13672 4.6689,3.15054 5.83998,3.46409 5.45508,1.45507 -0.11423,-0.59643 -0.32109,-2.23915 -0.45898,-3.64843 -0.47241,-4.82756 -2.91818,-13.52527 -5.76563,-20.5 -0.66388,-1.62613 -1.34971,-3.31053 -1.52539,-3.74414 -1.43348,-3.5383 -7.704471,-16.29327 -11.359372,-23.10547 -1.118008,-2.08385 -2.033204,-4.0656 -2.033204,-4.4043 0,-0.33874 1.196638,-1.43196 2.660157,-2.42969 1.463517,-0.99772 3.813363,-2.70143 5.222656,-3.78711 3.341562,-2.57414 12.206233,-11.34789 14.515623,-14.36719 0.99502,-1.3009 1.92639,-2.4541 2.07031,-2.5625 0.51344,-0.38676 5.26087,-7.35335 7.32031,-10.74218 2.31041,-3.80182 6.81798,-12.92451 8.81446,-17.83789 0.70485,-1.73454 1.52632,-3.71328 1.82422,-4.39649 0.29791,-0.68323 0.54101,-1.44044 0.54101,-1.68164 0,-0.2412 0.16669,-0.74461 0.3711,-1.12109 0.39488,-0.72742 2.4359,-6.87479 3.02734,-9.11914 0.62456,-2.37025 1.3784,-2.406 3.75586,-0.17188 1.16083,1.09079 2.90747,2.67429 3.88086,3.51953 2.40183,2.08567 2.3754,2.06311 4.78125,4.29688 1.16757,1.08409 3.54134,3.21233 5.27539,4.72851 2.70648,2.36641 4.89101,4.33163 7.67383,6.90235 0.35208,0.32523 1.69222,1.47842 2.97851,2.5625 1.28625,1.0841 2.62118,2.23533 2.9668,2.56054 0.34564,0.32522 1.24305,1.12494 1.99219,1.7754 1.43746,1.24806 6.69369,5.86048 9.02539,7.91992 4.85929,4.29188 8.41592,7.37366 10.67383,9.24609 1.42583,1.18239 3.90995,3.2816 5.51953,4.66406 3.72076,3.19573 4.2724,3.66464 7.85547,6.70313 1.62611,1.379 3.93052,3.34615 5.12304,4.37109 1.19253,1.02494 3.23229,2.72321 4.53321,3.77344 1.30089,1.05022 3.52577,2.89459 4.9414,4.09961 1.41562,1.20501 3.36464,2.84498 4.33399,3.64453 0.96942,0.79955 4.07442,3.37249 6.89843,5.7168 5.02323,4.16987 17.12064,14.01152 20.41016,16.60547 0.91117,0.71846 2.01702,1.60701 2.45703,1.97265 1.06089,0.8816 7.47504,5.99673 11.41992,9.10742 1.73451,1.36776 3.77432,2.98462 4.53321,3.5918 0.75886,0.60718 3.32986,2.64465 5.71484,4.52735 2.38505,1.88269 4.98657,3.9469 5.7793,4.58789 0.79273,0.64097 3.1127,2.44167 5.15625,4.00195 8.67368,6.62231 10.36399,7.93019 10.55078,8.16211 0.10839,0.1346 3.39023,2.62268 7.29297,5.52929 3.9027,2.90663 7.15427,5.42454 7.22656,5.59376 0.0723,0.16922 0.36195,0.30664 0.64258,0.30664 0.28058,0 0.73005,0.26656 1,0.59179 0.56093,0.67585 1.18359,0.77963 1.18359,0.19727 0,-0.21683 -0.1713,-0.39453 -0.38086,-0.39453 -0.20962,0 -0.97948,-0.57659 -1.70898,-1.28125 -0.72951,-0.70465 -3.43924,-3.22292 -6.02344,-5.59571 -4.81558,-4.42165 -20.89379,-20.39749 -26.20703,-26.04101 -3.40898,-3.62086 -11.09311,-12.28728 -13.98047,-15.76758 -1.07929,-1.30092 -2.0606,-2.4541 -2.18164,-2.5625 -0.22062,-0.19762 -4.37897,-5.19832 -5.24609,-6.30859 -0.82252,-1.05318 -5.83401,-7.26518 -6.58594,-8.16407 -1.16703,-1.39503 -0.1908,-1.45984 2.89844,-0.18945 9.18299,3.77632 19.10626,6.16866 29.84961,7.19531 10.20336,0.97506 32.72139,-0.4013 33.74804,-2.0625 0.11159,-0.18051 -0.25564,-0.50163 -0.8164,-0.71484 -3.62735,-1.3791 -19.93129,-9.56011 -24.25977,-12.17383 -0.7589,-0.45822 -1.64548,-0.9595 -1.9707,-1.11133 -1.0502,-0.49031 -9.55811,-5.66798 -13.00781,-7.91601 -7.72433,-5.03373 -9.06256,-5.93449 -13.00977,-8.76367 -2.27659,-1.63177 -4.86458,-3.45637 -5.75,-4.05469 -0.88545,-0.59833 -1.94979,-1.401 -2.36523,-1.78321 -0.41546,-0.38221 -2.17368,-1.78838 -3.90821,-3.125 -1.73453,-1.33659 -4.12976,-3.18757 -5.32226,-4.11328 -5.45058,-4.23116 -19.50862,-16.45846 -24.31055,-21.14648 -1.09472,-1.06874 -1.0842,-1.08983 1.94922,-4.50586 7.61196,-8.57212 15.6482,-24.50152 21.33203,-42.2832 0.34651,-1.08409 1.1436,-3.57013 1.77148,-5.52149 0.62792,-1.95136 1.44227,-4.61119 1.8086,-5.91211 0.36631,-1.30091 0.81793,-2.80951 1.0039,-3.35156 0.18591,-0.54204 0.45835,-1.59124 0.60547,-2.33203 0.34456,-1.73481 1.65894,-3.95032 1.87696,-3.16406 0.55994,2.01916 1.60515,5.46364 1.92773,6.35156 0.20991,0.57787 0.52846,1.64218 0.70703,2.36523 0.36302,1.47039 4.17901,12.35055 5.50781,15.70313 0.47264,1.19249 1.00176,2.61029 1.17579,3.15234 0.17406,0.54204 0.7567,1.96376 1.29492,3.15625 0.53822,1.1925 1.4037,3.1418 1.92187,4.33399 1.50687,3.46706 4.94182,10.0796 7.16797,13.79883 1.61105,2.69145 5.32997,7.32015 7.44336,9.26367 3.33428,3.06636 21.65281,18.01546 27.52539,22.46289 1.40929,1.06731 2.65137,2.0511 2.75977,2.18554 0.25711,0.31884 12.59538,9.68942 14.77929,11.22461 0.9253,0.65046 2.27853,1.64046 3.00977,2.19922 1.24781,0.9535 4.91204,3.6447 7.07031,5.19336 0.52901,0.37961 3.11169,2.2417 5.74024,4.13867 2.62853,1.89699 5.18118,3.7158 5.67187,4.04102 0.49074,0.32523 1.88829,1.30843 3.10547,2.18359 3.70612,2.66484 28.27936,19.15952 29.25977,19.64063 0.30132,0.14789 2.14433,1.3122 4.0957,2.58789 1.95136,1.27571 6.36007,4.06661 9.79687,6.20117 3.43688,2.13453 6.71868,4.18936 7.29297,4.56641 0.57423,0.37705 1.29573,0.807 1.60352,0.95507 0.30777,0.14809 4.16869,2.45404 8.58008,5.12696 4.41135,2.67294 8.10016,4.86133 8.19531,4.86133 0.0952,0 2.22913,1.24202 4.74219,2.75976 2.51304,1.51772 4.63413,2.75977 4.71484,2.75977 0.0807,0 1.49813,0.79775 3.14844,1.77344 1.65028,0.97566 3.08681,1.77343 3.19336,1.77343 0.10642,0 0.8553,0.41668 1.66406,0.92578 0.80875,0.5091 2.62189,1.54979 4.03125,2.3125 1.4093,0.76269 3.3622,1.82891 4.33789,2.36914 0.97569,0.54024 3.28475,1.78521 5.13086,2.76758 1.8461,0.98238 4.15245,2.22629 5.125,2.76172 7.43462,4.09306 9.06055,4.78193 9.06055,3.84375 0,-0.21681 -0.26656,-0.39453 -0.5918,-0.39453 -0.32523,0 -0.5918,-0.1461 -0.5918,-0.32617 0,-0.18006 -0.75229,-0.87405 -1.67383,-1.54297 -0.92145,-0.66895 -2.20891,-1.65565 -2.85937,-2.19141 -0.65045,-0.53574 -3.3103,-2.71863 -5.91211,-4.84961 -2.60182,-2.13095 -4.81934,-3.97404 -4.92774,-4.0957 -0.10843,-0.12166 -1.88172,-1.6364 -3.93945,-3.36523 -2.05775,-1.72886 -3.93878,-3.32029 -4.18164,-3.53711 -0.24284,-0.21681 -1.1363,-1.01457 -1.98437,-1.77344 -0.84808,-0.75886 -3.13355,-2.79511 -5.08008,-4.52539 -1.94656,-1.73026 -4.69422,-4.22865 -6.10352,-5.55274 -1.40935,-1.32407 -4.06921,-3.8081 -5.91211,-5.51953 -4.22612,-3.92446 -18.13461,-17.8131 -22.28711,-22.25586 -1.72735,-1.84809 -4.29927,-4.59877 -5.71679,-6.11132 -11.83145,-12.62494 -29.32763,-33.81294 -40.30274,-48.8125 -2.18423,-2.98517 -3.83594,-5.39575 -3.83593,-5.59766 0,-0.36171 0.86343,-0.16223 1.35742,0.31445 0.60309,0.58186 1.70056,1.49846 4.37109,3.64649 1.0778,0.86694 2.31444,1.87661 2.74805,2.24609 1.13971,0.97108 4.7872,3.7611 10.64453,8.14258 5.5994,4.1885 18.67761,12.93956 21.08984,14.11133 0.32524,0.15798 1.83387,1.03502 3.35157,1.94922 5.06719,3.0522 7.04103,4.10543 15.76757,8.40234 9.0746,4.46828 10.82462,5.28719 14.38867,6.73047 1.19252,0.4829 2.52342,1.02817 2.95704,1.21289 1.98877,0.84719 4.08817,1.66295 5.71679,2.22265 0.97567,0.33532 2.21575,0.79268 2.75782,1.01563 1.81292,0.74571 7.28009,2.6902 8.47656,3.01563 0.65047,0.17689 1.6259,0.50159 2.16797,0.71874 1.03237,0.41362 1.85624,0.66514 6.70312,2.0586 1.62613,0.46752 3.36325,1.01733 3.86133,1.2207 1.1966,0.48864 3.23242,0.47234 3.23242,-0.0254 0,-0.21682 -0.14926,-0.39258 -0.33203,-0.39258 -0.32369,0 -14.25605,-10.10008 -14.64844,-10.61914 -0.10846,-0.1434 -1.3485,-1.12766 -2.75781,-2.1875 -1.4093,-1.05985 -3.19641,-2.47016 -3.9707,-3.13476 -0.77421,-0.66459 -1.83866,-1.56247 -2.36719,-1.9961 C 410.51611,263.95316 390.22454,243.02363 371.98298,220 c -1.88963,-2.385 -3.71528,-4.67543 -4.05469,-5.08984 -2.8317,-3.4576 -13.14841,-17.74546 -17.67773,-24.47852 -1.16685,-1.73456 -2.6489,-3.77433 -3.29297,-4.5332 l -1.17188,-1.37891 -4.31445,4.54688 c -8.82642,9.30018 -15.72864,13.58134 -24.16992,14.99414 -2.64144,0.4421 -3.40095,0.41954 -6.30664,-0.19727 -11.06817,-2.34944 -27.08331,-14.38314 -39.38672,-29.59375 -1.40302,-1.73455 -2.64872,-3.24121 -2.76758,-3.34961 -0.11885,-0.10841 -0.64293,-0.81924 -1.16406,-1.57812 -0.52114,-0.75885 -1.06512,-1.46777 -1.20898,-1.57618 -0.40696,-0.30669 -8.27561,-11.63251 -9.62891,-13.85937 -0.21825,-0.35915 -1.77081,-2.89656 -3.45117,-5.63867 -1.68031,-2.74211 -3.05664,-5.05931 -3.05664,-5.14844 0,-0.38675 -3.6331,-6.10156 -3.87891,-6.10156 z" /></svg>
