<?xml version="1.0" encoding="UTF-8" standalone="no"?>
<svg
   viewBox="0 0 512 512"
   style="height: 512px; width: 512px;"
   version="1.1"
   id="svg12"
   sodipodi:docname="bear--charging-bull.svg"
   inkscape:version="1.4 (e7c3feb1, 2024-10-09)"
   xmlns:inkscape="http://www.inkscape.org/namespaces/inkscape"
   xmlns:sodipodi="http://sodipodi.sourceforge.net/DTD/sodipodi-0.dtd"
   xmlns="http://www.w3.org/2000/svg"
   xmlns:svg="http://www.w3.org/2000/svg">
  <sodipodi:namedview
     id="namedview12"
     pagecolor="#505050"
     bordercolor="#ffffff"
     borderopacity="1"
     inkscape:showpageshadow="0"
     inkscape:pageopacity="0"
     inkscape:pagecheckerboard="1"
     inkscape:deskcolor="#d1d1d1"
     inkscape:zoom="0.73096022"
     inkscape:cx="3.4201588"
     inkscape:cy="264.03626"
     inkscape:window-width="1728"
     inkscape:window-height="1051"
     inkscape:window-x="0"
     inkscape:window-y="38"
     inkscape:window-maximized="1"
     inkscape:current-layer="svg12" />
  <defs
     id="defs2">
    <radialGradient
       id="delapouite-charging-bull-gradient-0">
      <stop
         offset="0%"
         stop-color="#830000"
         stop-opacity="1"
         id="stop1" />
      <stop
         offset="100%"
         stop-color="#000"
         stop-opacity="1"
         id="stop2" />
    </radialGradient>
  </defs>
  <path
     d="M0 0h512v512H0z"
     fill="url(#pattern)"
     id="path2" />
  <svg
     version="1.1"
     id="svg11">
    <defs
       id="defs6">
      <filter
         id="b"
         x="-0.023338979"
         width="1.046678"
         y="-0.023448784"
         height="1.0468976"
         color-interpolation-filters="sRGB">
        <feGaussianBlur
           stdDeviation="4.823"
           id="feGaussianBlur2" />
      </filter>
      <filter
         id="a"
         x="-0.012011281"
         width="1.0240226"
         y="-0.011988317"
         height="1.0239766"
         color-interpolation-filters="sRGB">
        <feGaussianBlur
           stdDeviation="2.55"
           id="feGaussianBlur3" />
      </filter>
      <filter
         id="c"
         x="-0.11244604"
         width="1.2248921"
         y="-0.082623731"
         height="1.1652475"
         color-interpolation-filters="sRGB">
        <feGaussianBlur
           stdDeviation="15.63"
           id="feGaussianBlur4" />
      </filter>
      <filter
         id="e"
         x="-0.23758603"
         width="1.4751721"
         y="-0.24869778"
         height="1.4973956"
         color-interpolation-filters="sRGB">
        <feGaussianBlur
           stdDeviation="18.7"
           id="feGaussianBlur5" />
      </filter>
      <filter
         id="d"
         x="-0.21301439"
         width="1.4260288"
         y="-0.15141701"
         height="1.302834"
         color-interpolation-filters="sRGB">
        <feGaussianBlur
           stdDeviation="18.7"
           id="feGaussianBlur6" />
      </filter>
    </defs>
    <path
       d="M196.6 1.207c-2.5 11.323-4.8 22.703-10.2 33.383-7-10.68-12.6-20.91-16.7-31.988L2.494 4.338C13 104.9 10.86 175.3 1.979 278.3L15.4 295.5l-9.494 6.3L2.6 462.7l1.019 45.9 112.681 3.1c3.6-16.1 6.5-32.5 13.2-47.3 4.5 14.4 5.7 29.4 7 44.4l160 .3c.8-6.1.7-8.1 2.3-14.4 5.1 4.5 7.8 9.5 10.6 14.5.8-10.1 3.9-19.8 7-29.5 4.8 9.2 6.7 19.4 8.8 29.5l185.2.4-4.6-78.2-21.4-8.2 21.3-4.9 5.8-395.47c-7-6.73-13.3-13.744-18-21.465l-15.1.114-2.1 20.321-1.4 47.23.8 84.87-8.6-97.14c9.3-16.86 2.2-39.69 5.7-55.239-92.1 1.696-184.1.685-276.2-.314z"
       overflow="visible"
       color="#000"
       fill="#ebc893"
       fill-rule="evenodd"
       stroke="#e0aa58"
       enable-background="accumulate"
       id="path6" />
    <path
       d="M196.6 1.203c-2.5 11.327-4.8 22.707-10.2 33.387-7-10.68-12.6-20.91-16.7-31.99L2.494 4.336C13 104.9 10.86 175.3 1.979 278.3L15.4 295.5l-9.494 6.3L2.6 462.7l1.019 45.9 112.681 3.1c.5-2.1-7.9-2.3-7.4-4.5L5.244 504.5l-.914-47.3 4.63-153.7 12.42-9-13.093-16.8C16.95 177.3 16.36 104 6.113 5.992l162.687.164c4 10.804 10.3 24.254 17.1 34.664 5.3-10.41 9.5-25.97 12-37.02 89.8.974 173.8 3.521 263.6 1.867 4.6 1.226 10.6.431 11.3-4.149-92.1 1.696-184.1.684-276.2-.315zm296.9.158l-15.1.116-.6 6.277 13.5-2.557c4.6 7.533 9.7 12.383 16.6 18.943l-4.6 389.06-19.9 9.9 4.1-.6 18.2-4.2 5.8-395.47c-7-6.73-13.3-13.748-18-21.469zm9.6 435.739l3.5 69.7-177.7.1c.4 2.1-4.1.2-3.7 2.3l185.2.4-4.6-78.2zm-370 25.1c-1 2.2-2.9.4-3.7 2.6 4.2 14 5.8 29.5 7.1 44l158 .3c1.9-5 .8-9.7 4.3-14.4 5.1 4.5 7.8 9.5 10.6 14.5.8-10.1 3.9-19.8 7-29.5 1.8 3.4 3.2 7 4.3 10.6-1.4-5.6-2.4-8.3-5.1-13.4-3 9.4-6.7 16.2-7.5 26-2.7-4.9-5.4-9.7-10.4-14.1-3.4 4.6-6.2 9.1-8 14l-147.6 3.4c-3.4-14.6-7.1-30.3-9-44z"
       overflow="visible"
       color="#000"
       opacity=".527"
       fill="#c87137"
       fill-rule="evenodd"
       filter="url(#a)"
       enable-background="accumulate"
       id="path7" />
    <path
       d="M200.1 16.1c-2.3 10.67-10.5 21.38-15.6 31.44-6.6-10.06-13.9-19.69-17.7-30.12L17.34 19.05C24.61 113.6 7.605 179.3 16.85 277l18.26 20.1L10.34 309l7.1 141.6.96 43.3 90.2 3.4c3.4-15.2 15-35.6 21.3-49.6 4.3 13.6 15.4 36.7 16.6 50.9l45.1.8 13.8-18.7 14.4 22.2 68.7-8.6c1.8-4.7 4.5-9.1 7.8-13.5 4.8 4.2 7.4 8.9 10 13.6.8-9.5 7.7-19.6 10.6-28.7 4.5 8.6 19.9 28.9 33.1 33.9l114.6 5.6 22.3-14.7 19.4 14.7-14.5-67.6-34.6-14.2 37.5-15.1 2.1-96.9-14.5-21.9 15.2-13.4 5.1-239.63c-5.2-21.09-11.8-24.89-16.9-20.22l-4.2 2.11 2 19.14.7 44.47-7.1 124.23-18.3-137.78c8.8-15.88-3.9-35.38-.6-50.02-67.1 1.24-140.4-13.332-202.8-3.28-14 2.25-23.7 21.31-36.9 24.48-4.3 1.03-13.9-23.45-18.4-23.5z"
       overflow="visible"
       enable-background="accumulate"
       filter="url(#b)"
       fill-rule="evenodd"
       fill="#f6e7d0"
       color="#000"
       id="path8" />
    <path
       d="M354 27.39l-70.3 96.91 46.4 97.6-56.2 43.6 33 74.4-30.2 63.2 69.8 48.8 31.6 29.5 31.6-13.3L365.9 335l55.5-36.5 2.1-146.1-56.9-101.83zM116.6 55.48L89.9 123.6s33.7 65.3 35.8 68.8c2.1 3.6-7 118-7 118l42.8 73.8s9.9-82.9 7.1-83.6c-2.8-.7-29.5-42.1-29.5-42.1l23.8-84.3-36.5-37.2z"
       color="#000"
       overflow="visible"
       fill="#f2dbb9"
       fill-rule="evenodd"
       filter="url(#c)"
       enable-background="accumulate"
       id="path9" />
    <path
       d="M39.33 172.1l-5.62 108.1L74.45 328 42.84 464.9l96.96-39.3 30.2 42.9 74.4-38.7-80.8-169.9-60.4-16.9z"
       color="#000"
       overflow="visible"
       fill="#eed3a4"
       fill-rule="evenodd"
       enable-background="accumulate"
       filter="url(#d)"
       id="path10" />
    <path
       d="M266.9 66.72L324.5 191 434 221.2l21.8-111.6-41.4-68.86z"
       color="#000"
       overflow="visible"
       fill="#eed3a4"
       fill-rule="evenodd"
       enable-background="accumulate"
       filter="url(#e)"
       id="path11" />
  </svg>
  <path
     id="path12"
     style="fill:#737373;fill-opacity:1;stroke-width:0.872743"
     d="m 177.67612,67.618955 c -39.4052,6.501058 -86.786574,30.61836 -114.890627,47.210935 -9.894124,52.14779 -9.894124,104.29557 0,156.44336 v 2.48828 c 4.660444,6.56564 11.40634,11.26434 21.734375,14.89844 4.632517,1.63029 9.964203,2.99563 15.902342,4.17383 C 81.996872,269.24706 77.390523,248.39316 81.836274,223.68145 l 15.460937,2.78516 c -5.868319,30.18292 11.950999,56.15612 29.804689,67.21289 l 6.24023,3.81445 2.10157,3.32813 c 8.27535,14.8916 24.46567,22.47578 44.88086,35.91601 l 8.48632,5.58789 -7.54492,6.80469 c -8.58255,7.74384 -14.89037,14.34841 -16.02929,23.17969 l -1.39063,10.77148 -21.03125,-10.07617 c -9.76774,10.7487 -17.86478,22.33622 -24.13281,34.93164 9.58009,5.85087 31.87637,16.70057 42.85547,14.26563 28.11103,-19.03713 51.94467,-58.91067 62.04492,-85.48828 -5.65887,-21.51311 -19.00747,-40.63472 -35.15235,-61.13282 l -3.57812,-4.54297 c 4.23543,-6.62586 9.9751,-13.06647 15.7832,-16.85156 22.91734,-18.21675 30.92768,-33.33014 32.67578,-46.57226 0.5891,-18.46287 -5.37681,-31.27876 -12.3125,-46.28907 l 14.26172,-6.58984 c 8.03534,18.27086 15.45669,38.95846 13.62305,54.9375 -1.46621,11.11176 -6.28141,22.58269 -15.58398,34.38476 8.15142,-1.20611 14.4489,-2.24752 22.58984,-3.59765 l 0.22851,9.02734 c 0.38401,15.16391 1.45594,21.44228 13.74415,43.26172 l 1.35546,2.41211 -7.38085,44.59961 c 6.48622,9.18475 17.74386,10.04705 27.05078,9.4082 21.94423,-23.43749 37.08495,-49.88586 49.83398,-77.72461 -7.76392,-1.59711 -13.95281,-5.25611 -17.84961,-10.38086 -4.38639,-5.76795 -5.59314,-12.91786 -4.41406,-19.32031 2.35815,-12.80313 14.69075,-24.13179 30.25,-21.85742 l -0.26563,-0.0332 c 3.7336,0.41717 7.53253,0.72338 11.37696,0.95117 C 322.96976,180.76481 326.00267,129.54163 294.61362,99.650203 261.46685,80.304999 216.64232,67.906088 177.67612,67.618955 Z M 439.19956,183.70684 c -22.66861,7.14777 -46.20169,14.74077 -70.11133,20.09766 a 2728.3965,2728.3965 0 0 1 7.64844,15.9668 c 25.3296,-9.42998 45.0028,-22.30372 62.46289,-36.0625 z m 17.43554,48.04883 c -35.70564,3.38974 -74.36148,7.6756 -109.93359,3.70899 l -0.13281,-0.0156 -0.13282,-0.0195 c -7.24114,-1.05864 -11.55531,3.872 -12.52929,9.1582 -0.48612,2.64354 -0.0287,4.99722 1.4707,6.96875 1.47319,1.93749 4.26333,3.94329 10.10547,4.76367 45.87658,1.67741 80.98338,-10.1895 111.15234,-24.56445 z m -142.53711,38.17188 c 3.55032,-0.0663 8.58065,5.29685 8.67579,8.61328 0.10734,3.77897 -3.73458,11.65279 -10.56641,20.05468 -2.03785,-7.05263 -7.21732,-28.34505 1.89062,-28.66796 z m -16.23242,56.42382 c 1.33785,-0.0704 2.68648,-0.0618 4.04883,0.0156 l -17.35156,17.08789 c 0,0 -1.75574,-10.55603 1.41406,-14.02344 3.95156,-1.94338 7.87513,-2.8689 11.88867,-3.08008 z m -34.90625,33.48438 -10.08008,30.97656 c 0,0 -11.1983,-11.18322 -17.4707,-9.19336 -10.4956,3.32951 -15.01758,29.41992 -15.01758,29.41992 l -20.22656,-7.96875 c 0,0 3.22117,24.98481 12.87109,30.03711 13.579,7.1085 45.05077,-9.19531 45.05079,-9.19531 0,0 1.19852,18.50464 8.27734,20.22656 13.16794,3.2021 30.95312,-26.35742 30.95312,-26.35742 0,0 31.69921,30.34161 45.35938,20.8418 13.03703,-9.06779 1.86649,-45.71499 -3.58203,-47.50586 -6.75853,-2.22201 -14.55274,15.61328 -14.55274,15.61328 0,0 -9.44885,-20.96883 -19.25586,-23.58008 -8.5616,-2.28047 -24.82617,9.5 -24.82617,9.5 l 4.70703,-27.51562 c -2.8844,-0.0271 -5.73194,-0.23741 -8.52734,-0.68164 l -9.04883,26.12304 3.79297,-27.26953 c -2.94377,-0.81689 -6.03164,-2.12492 -8.42383,-3.4707 z m -143.60156,1.93164 c -10.13515,9.65689 -17.51371,20.62028 -23.769533,32.41016 3.250966,1.70533 6.478713,3.578 9.673833,5.49804 6.16679,-12.11367 13.84154,-23.33414 22.82031,-33.72851 z" />
</svg>
