<?xml version="1.0" encoding="UTF-8" standalone="no"?>
<svg
   viewBox="0 0 512 512"
   style="height: 512px; width: 512px;"
   version="1.1"
   id="svg12"
   sodipodi:docname="blindfold.svg"
   inkscape:version="1.3.2 (091e20e, 2023-11-25)"
   xmlns:inkscape="http://www.inkscape.org/namespaces/inkscape"
   xmlns:sodipodi="http://sodipodi.sourceforge.net/DTD/sodipodi-0.dtd"
   xmlns="http://www.w3.org/2000/svg"
   xmlns:svg="http://www.w3.org/2000/svg">
  <sodipodi:namedview
     id="namedview12"
     pagecolor="#505050"
     bordercolor="#ffffff"
     borderopacity="1"
     inkscape:showpageshadow="0"
     inkscape:pageopacity="0"
     inkscape:pagecheckerboard="1"
     inkscape:deskcolor="#d1d1d1"
     inkscape:zoom="0.4609375"
     inkscape:cx="256"
     inkscape:cy="254.91525"
     inkscape:window-width="1368"
     inkscape:window-height="649"
     inkscape:window-x="0"
     inkscape:window-y="38"
     inkscape:window-maximized="0"
     inkscape:current-layer="svg12" />
  <defs
     id="defs2">
    <radialGradient
       id="delapouite-blindfold-gradient-0">
      <stop
         offset="0%"
         stop-color="#830000"
         stop-opacity="1"
         id="stop1" />
      <stop
         offset="100%"
         stop-color="#000"
         stop-opacity="1"
         id="stop2" />
    </radialGradient>
  </defs>
  <path
     d="M0 0h512v512H0z"
     fill="url(#pattern)"
     id="path2" />
  <svg
     version="1.1"
     id="svg11">
    <defs
       id="defs6">
      <filter
         id="b"
         x="-0.023338979"
         width="1.046678"
         y="-0.023448784"
         height="1.0468976"
         color-interpolation-filters="sRGB">
        <feGaussianBlur
           stdDeviation="4.823"
           id="feGaussianBlur2" />
      </filter>
      <filter
         id="a"
         x="-0.012011281"
         width="1.0240226"
         y="-0.011988317"
         height="1.0239766"
         color-interpolation-filters="sRGB">
        <feGaussianBlur
           stdDeviation="2.55"
           id="feGaussianBlur3" />
      </filter>
      <filter
         id="c"
         x="-0.11244604"
         width="1.2248921"
         y="-0.082623731"
         height="1.1652475"
         color-interpolation-filters="sRGB">
        <feGaussianBlur
           stdDeviation="15.63"
           id="feGaussianBlur4" />
      </filter>
      <filter
         id="e"
         x="-0.23758603"
         width="1.4751721"
         y="-0.24869778"
         height="1.4973956"
         color-interpolation-filters="sRGB">
        <feGaussianBlur
           stdDeviation="18.7"
           id="feGaussianBlur5" />
      </filter>
      <filter
         id="d"
         x="-0.21301439"
         width="1.4260288"
         y="-0.15141701"
         height="1.302834"
         color-interpolation-filters="sRGB">
        <feGaussianBlur
           stdDeviation="18.7"
           id="feGaussianBlur6" />
      </filter>
    </defs>
    <path
       d="M196.6 1.207c-2.5 11.323-4.8 22.703-10.2 33.383-7-10.68-12.6-20.91-16.7-31.988L2.494 4.338C13 104.9 10.86 175.3 1.979 278.3L15.4 295.5l-9.494 6.3L2.6 462.7l1.019 45.9 112.681 3.1c3.6-16.1 6.5-32.5 13.2-47.3 4.5 14.4 5.7 29.4 7 44.4l160 .3c.8-6.1.7-8.1 2.3-14.4 5.1 4.5 7.8 9.5 10.6 14.5.8-10.1 3.9-19.8 7-29.5 4.8 9.2 6.7 19.4 8.8 29.5l185.2.4-4.6-78.2-21.4-8.2 21.3-4.9 5.8-395.47c-7-6.73-13.3-13.744-18-21.465l-15.1.114-2.1 20.321-1.4 47.23.8 84.87-8.6-97.14c9.3-16.86 2.2-39.69 5.7-55.239-92.1 1.696-184.1.685-276.2-.314z"
       overflow="visible"
       color="#000"
       fill="#ebc893"
       fill-rule="evenodd"
       stroke="#e0aa58"
       enable-background="accumulate"
       id="path6" />
    <path
       d="M196.6 1.203c-2.5 11.327-4.8 22.707-10.2 33.387-7-10.68-12.6-20.91-16.7-31.99L2.494 4.336C13 104.9 10.86 175.3 1.979 278.3L15.4 295.5l-9.494 6.3L2.6 462.7l1.019 45.9 112.681 3.1c.5-2.1-7.9-2.3-7.4-4.5L5.244 504.5l-.914-47.3 4.63-153.7 12.42-9-13.093-16.8C16.95 177.3 16.36 104 6.113 5.992l162.687.164c4 10.804 10.3 24.254 17.1 34.664 5.3-10.41 9.5-25.97 12-37.02 89.8.974 173.8 3.521 263.6 1.867 4.6 1.226 10.6.431 11.3-4.149-92.1 1.696-184.1.684-276.2-.315zm296.9.158l-15.1.116-.6 6.277 13.5-2.557c4.6 7.533 9.7 12.383 16.6 18.943l-4.6 389.06-19.9 9.9 4.1-.6 18.2-4.2 5.8-395.47c-7-6.73-13.3-13.748-18-21.469zm9.6 435.739l3.5 69.7-177.7.1c.4 2.1-4.1.2-3.7 2.3l185.2.4-4.6-78.2zm-370 25.1c-1 2.2-2.9.4-3.7 2.6 4.2 14 5.8 29.5 7.1 44l158 .3c1.9-5 .8-9.7 4.3-14.4 5.1 4.5 7.8 9.5 10.6 14.5.8-10.1 3.9-19.8 7-29.5 1.8 3.4 3.2 7 4.3 10.6-1.4-5.6-2.4-8.3-5.1-13.4-3 9.4-6.7 16.2-7.5 26-2.7-4.9-5.4-9.7-10.4-14.1-3.4 4.6-6.2 9.1-8 14l-147.6 3.4c-3.4-14.6-7.1-30.3-9-44z"
       overflow="visible"
       color="#000"
       opacity=".527"
       fill="#c87137"
       fill-rule="evenodd"
       filter="url(#a)"
       enable-background="accumulate"
       id="path7" />
    <path
       d="M200.1 16.1c-2.3 10.67-10.5 21.38-15.6 31.44-6.6-10.06-13.9-19.69-17.7-30.12L17.34 19.05C24.61 113.6 7.605 179.3 16.85 277l18.26 20.1L10.34 309l7.1 141.6.96 43.3 90.2 3.4c3.4-15.2 15-35.6 21.3-49.6 4.3 13.6 15.4 36.7 16.6 50.9l45.1.8 13.8-18.7 14.4 22.2 68.7-8.6c1.8-4.7 4.5-9.1 7.8-13.5 4.8 4.2 7.4 8.9 10 13.6.8-9.5 7.7-19.6 10.6-28.7 4.5 8.6 19.9 28.9 33.1 33.9l114.6 5.6 22.3-14.7 19.4 14.7-14.5-67.6-34.6-14.2 37.5-15.1 2.1-96.9-14.5-21.9 15.2-13.4 5.1-239.63c-5.2-21.09-11.8-24.89-16.9-20.22l-4.2 2.11 2 19.14.7 44.47-7.1 124.23-18.3-137.78c8.8-15.88-3.9-35.38-.6-50.02-67.1 1.24-140.4-13.332-202.8-3.28-14 2.25-23.7 21.31-36.9 24.48-4.3 1.03-13.9-23.45-18.4-23.5z"
       overflow="visible"
       enable-background="accumulate"
       filter="url(#b)"
       fill-rule="evenodd"
       fill="#f6e7d0"
       color="#000"
       id="path8" />
    <path
       d="M354 27.39l-70.3 96.91 46.4 97.6-56.2 43.6 33 74.4-30.2 63.2 69.8 48.8 31.6 29.5 31.6-13.3L365.9 335l55.5-36.5 2.1-146.1-56.9-101.83zM116.6 55.48L89.9 123.6s33.7 65.3 35.8 68.8c2.1 3.6-7 118-7 118l42.8 73.8s9.9-82.9 7.1-83.6c-2.8-.7-29.5-42.1-29.5-42.1l23.8-84.3-36.5-37.2z"
       color="#000"
       overflow="visible"
       fill="#f2dbb9"
       fill-rule="evenodd"
       filter="url(#c)"
       enable-background="accumulate"
       id="path9" />
    <path
       d="M39.33 172.1l-5.62 108.1L74.45 328 42.84 464.9l96.96-39.3 30.2 42.9 74.4-38.7-80.8-169.9-60.4-16.9z"
       color="#000"
       overflow="visible"
       fill="#eed3a4"
       fill-rule="evenodd"
       enable-background="accumulate"
       filter="url(#d)"
       id="path10" />
    <path
       d="M266.9 66.72L324.5 191 434 221.2l21.8-111.6-41.4-68.86z"
       color="#000"
       overflow="visible"
       fill="#eed3a4"
       fill-rule="evenodd"
       enable-background="accumulate"
       filter="url(#e)"
       id="path11" />
  </svg>
  <path
     d="m 289.41219,70.804026 c -73.39707,0.836601 -135.63754,68.670644 -120.69186,127.366504 2.57009,1.38745 5.04933,3.06643 7.41296,4.96509 77.93189,-17.04171 153.78178,-30.76345 226.87906,-57.29849 -3.6305,-9.38347 -7.37167,-21.98451 -12.47386,-27.13543 C 358.68985,83.979871 322.89192,70.42165 289.41301,70.8032 Z m 134.44003,83.021694 c -76.7922,30.03257 -155.72091,44.70571 -235.7951,62.00592 2.4776,3.55617 4.4894,7.39149 5.70673,11.45061 13.79029,0.46249 27.49303,0.78458 41.13632,0.98113 1.91187,-9.51726 8.18844,-18.38953 18.67775,-22.70797 l 0.27914,-0.11562 0.28658,-0.0908 c 3.33401,-1.06702 6.66886,-1.48986 9.86413,-1.37093 3.19609,0.11562 6.25179,0.77631 9.0267,1.87306 5.55394,2.1968 10.00948,5.88511 13.71348,9.91863 3.6338,3.95589 6.6383,8.34123 9.12911,12.43752 46.78028,-0.82091 93.03861,-3.49175 139.39769,-8.50971 -0.0149,-3.14241 -0.0347,-6.22949 -0.0793,-9.2662 -14.0207,-1.29248 -30.50744,-0.28905 -53.03455,6.33191 18.84623,-9.86743 32.89089,-16.11923 50.19605,-15.94745 0.85064,0.008 1.70954,0.0314 2.57835,0.071 -0.37164,-8.87556 -1.18263,-17.32994 -3.01771,-25.45645 -27.71354,16.38516 -51.56368,19.4326 -87.52513,21.77145 41.48979,-8.69223 65.24909,-19.87857 84.68911,-31.67687 -1.39984,-3.9658 -3.11351,-7.86223 -5.22772,-11.6992 z m -269.06258,55.24044 c -0.56324,-0.003 -0.94974,0.0743 -1.1975,0.16022 -3.92781,1.99363 -8.05053,7.60951 -9.92524,14.41381 -1.82929,6.63748 -1.29661,13.76221 0.81265,17.88988 3.81136,3.77586 11.81151,5.31031 19.95784,3.71061 7.99437,-1.56914 14.22139,-6.3798 15.57746,-8.85987 0.0289,-4.92711 -4.12106,-13.2989 -10.52151,-19.33019 -3.36953,-3.17793 -7.14869,-5.67947 -10.25477,-6.95131 -1.55262,-0.63591 -2.84427,-0.9167 -3.82375,-1.00507 -0.22876,-0.0207 -0.43771,-0.0297 -0.62435,-0.0306 z m 108.81015,9.71217 c -1.38332,-0.0628 -2.86988,0.13213 -4.59181,0.64913 -6.76383,2.86575 -9.09772,6.96204 -9.78649,13.28155 -0.69621,6.40045 1.34615,14.98945 5.50273,22.98877 4.1574,7.9985 10.34643,15.36108 16.62713,19.78194 6.27988,4.42085 11.96678,5.75049 16.71385,4.14336 l 4.76524,14.08099 c -10.486,3.55122 -21.2974,0.0826 -30.0367,-6.06845 -8.73929,-6.15269 -16.09197,-15.1381 -21.26105,-25.08316 -3.2151,-6.18573 -5.61588,-12.75961 -6.69612,-19.38635 -13.58299,-0.19821 -27.22049,-0.51617 -40.93811,-0.97287 -1.78717,4.31432 -4.77349,7.71358 -8.46181,10.37699 4.80654,9.77824 10.57933,18.98828 17.43401,27.58058 l 2.14477,2.68571 -0.65657,3.37283 c -4.99317,25.60841 -11.45474,51.71812 -30.53221,68.1999 26.24433,43.457 58.48113,78.23086 124.52139,84.76345 6.2072,-22.22237 11.68599,-47.77875 49.95078,-74.08832 l 2.00024,-1.37341 2.42557,0.0694 c 33.68702,0.97452 51.00953,-4.74872 59.14016,-15.28345 3.56939,-4.62484 5.79262,-10.86177 6.74732,-18.86853 l -32.24176,-0.65822 0.30227,-14.86226 32.36563,0.6607 c -0.30391,-7.28 -1.24953,-15.53204 -2.82445,-24.84201 l -1.44114,-8.52871 29.89878,-0.48395 c -0.94148,-5.66213 -3.2952,-13.52354 -6.84642,-20.84318 -5.13522,-10.59584 -12.84632,-20.5665 -15.79383,-22.61382 l -1.75331,-1.2198 c -41.48897,4.00379 -82.92177,6.17994 -124.72208,6.89349 -6.31787,3.24069 -4.71239,2.38509 -6.45248,3.35962 -3.43725,-6.13618 -7.90683,-14.78629 -13.30468,-20.66314 -2.70058,-2.94008 -5.52752,-5.08237 -8.23222,-6.15269 -1.30817,-0.51617 -2.58744,-0.83412 -3.96993,-0.89689 z M 133.8358,251.98634 c -5.74306,11.58689 -11.9387,24.93616 -18.58195,38.23423 -7.48233,14.98615 -15.514688,29.89631 -24.354743,42.34043 -6.722538,9.46194 -13.871223,17.63056 -22.103442,23.10357 8.146329,11.46052 14.854828,21.04303 20.360868,29.46189 3.587556,-9.94175 7.753217,-20.30553 12.168287,-30.87247 9.24142,-22.115 19.52096,-44.99889 27.54589,-65.70001 4.48444,-11.57202 8.22065,-22.51968 10.71972,-32.08732 -2.06631,-1.20163 -4.00132,-2.68406 -5.75628,-4.48279 z m 31.45967,8.19258 c -3.70401,0.58637 -7.56162,0.80109 -11.36886,0.50378 -2.70883,10.34313 -6.63995,21.49313 -11.19459,33.24518 -8.23552,21.24454 -18.55883,44.20028 -27.69124,66.05761 -9.13407,21.85816 -17.049973,42.68895 -20.511172,58.96426 -1.731012,8.1389 -2.302511,15.1158 -1.678983,20.19735 0.09415,0.76557 0.24776,1.38745 0.382376,2.05805 2.557702,-1.88297 5.339215,-3.50166 8.498139,-4.87012 8.38253,-3.62885 18.79916,-6.20059 29.17945,-8.05714 10.37947,-1.85571 20.61689,-2.93595 28.46095,-3.18536 0.80109,-0.0248 1.46178,-0.005 2.20836,-0.0149 -8.58238,-48.42045 -1.79543,-117.88805 3.71639,-164.8971 z"
     fill="#ffffff"
     fill-opacity="1"
     id="path12"
     style="fill:#3e3126;fill-opacity:1;stroke-width:0.825865" />
</svg>
