<?xml version="1.0" encoding="UTF-8" standalone="no"?>
<svg
   viewBox="0 0 512 512"
   style="height: 512px; width: 512px;"
   version="1.1"
   id="svg12"
   sodipodi:docname="bomb-blank--a.svg"
   xml:space="preserve"
   inkscape:version="1.4 (e7c3feb1, 2024-10-09)"
   xmlns:inkscape="http://www.inkscape.org/namespaces/inkscape"
   xmlns:sodipodi="http://sodipodi.sourceforge.net/DTD/sodipodi-0.dtd"
   xmlns="http://www.w3.org/2000/svg"
   xmlns:svg="http://www.w3.org/2000/svg"><sodipodi:namedview
     id="namedview12"
     pagecolor="#505050"
     bordercolor="#ffffff"
     borderopacity="1"
     inkscape:showpageshadow="0"
     inkscape:pageopacity="0"
     inkscape:pagecheckerboard="1"
     inkscape:deskcolor="#d1d1d1"
     inkscape:zoom="0.53486543"
     inkscape:cx="182.28884"
     inkscape:cy="413.18804"
     inkscape:window-width="992"
     inkscape:window-height="719"
     inkscape:window-x="0"
     inkscape:window-y="38"
     inkscape:window-maximized="0"
     inkscape:current-layer="svg12" /><defs
     id="defs2"><radialGradient
       id="lorc-wolf-howl-gradient-0"><stop
         offset="0%"
         stop-color="#830000"
         stop-opacity="1"
         id="stop1" /><stop
         offset="100%"
         stop-color="#000"
         stop-opacity="1"
         id="stop2" /></radialGradient><clipPath
       id="b-8"><path
         d="m229 164h342v487.9h-342z"
         id="path1" /></clipPath><clipPath
       id="a-0"><path
         d="m489 148.09h50v48.906h-50z"
         id="path2-2" /></clipPath><clipPath
       clipPathUnits="userSpaceOnUse"
       id="clipPath19"><g
         id="g20"><path
           d="M 67.743627,620.36716 H 380.74862 V 1066.9027 H 67.743627 Z"
           id="path20"
           style="stroke-width:0.915219" /></g></clipPath><clipPath
       clipPathUnits="userSpaceOnUse"
       id="clipPath21"><g
         id="g22"><path
           d="m 305.70064,605.80602 h 45.76097 v 44.75972 h -45.76097 z"
           id="path22"
           style="stroke-width:0.915219" /></g></clipPath></defs><path
     d="M0 0h512v512H0z"
     fill="url(#pattern)"
     id="path2" /><svg
     version="1.1"
     id="svg11"><defs
       id="defs6"><filter
         id="b"
         x="-0.023338979"
         width="1.046678"
         y="-0.023448784"
         height="1.0468976"
         color-interpolation-filters="sRGB"><feGaussianBlur
           stdDeviation="4.823"
           id="feGaussianBlur2" /></filter><filter
         id="a"
         x="-0.012011281"
         width="1.0240226"
         y="-0.011988317"
         height="1.0239766"
         color-interpolation-filters="sRGB"><feGaussianBlur
           stdDeviation="2.55"
           id="feGaussianBlur3" /></filter><filter
         id="c"
         x="-0.11244604"
         width="1.2248921"
         y="-0.082623731"
         height="1.1652475"
         color-interpolation-filters="sRGB"><feGaussianBlur
           stdDeviation="15.63"
           id="feGaussianBlur4" /></filter><filter
         id="e"
         x="-0.23758603"
         width="1.4751721"
         y="-0.24869778"
         height="1.4973956"
         color-interpolation-filters="sRGB"><feGaussianBlur
           stdDeviation="18.7"
           id="feGaussianBlur5" /></filter><filter
         id="d"
         x="-0.21301439"
         width="1.4260288"
         y="-0.15141701"
         height="1.302834"
         color-interpolation-filters="sRGB"><feGaussianBlur
           stdDeviation="18.7"
           id="feGaussianBlur6" /></filter></defs><path
       d="M196.6 1.207c-2.5 11.323-4.8 22.703-10.2 33.383-7-10.68-12.6-20.91-16.7-31.988L2.494 4.338C13 104.9 10.86 175.3 1.979 278.3L15.4 295.5l-9.494 6.3L2.6 462.7l1.019 45.9 112.681 3.1c3.6-16.1 6.5-32.5 13.2-47.3 4.5 14.4 5.7 29.4 7 44.4l160 .3c.8-6.1.7-8.1 2.3-14.4 5.1 4.5 7.8 9.5 10.6 14.5.8-10.1 3.9-19.8 7-29.5 4.8 9.2 6.7 19.4 8.8 29.5l185.2.4-4.6-78.2-21.4-8.2 21.3-4.9 5.8-395.47c-7-6.73-13.3-13.744-18-21.465l-15.1.114-2.1 20.321-1.4 47.23.8 84.87-8.6-97.14c9.3-16.86 2.2-39.69 5.7-55.239-92.1 1.696-184.1.685-276.2-.314z"
       overflow="visible"
       color="#000"
       fill="#ebc893"
       fill-rule="evenodd"
       stroke="#e0aa58"
       enable-background="accumulate"
       id="path6" /><path
       d="M196.6 1.203c-2.5 11.327-4.8 22.707-10.2 33.387-7-10.68-12.6-20.91-16.7-31.99L2.494 4.336C13 104.9 10.86 175.3 1.979 278.3L15.4 295.5l-9.494 6.3L2.6 462.7l1.019 45.9 112.681 3.1c.5-2.1-7.9-2.3-7.4-4.5L5.244 504.5l-.914-47.3 4.63-153.7 12.42-9-13.093-16.8C16.95 177.3 16.36 104 6.113 5.992l162.687.164c4 10.804 10.3 24.254 17.1 34.664 5.3-10.41 9.5-25.97 12-37.02 89.8.974 173.8 3.521 263.6 1.867 4.6 1.226 10.6.431 11.3-4.149-92.1 1.696-184.1.684-276.2-.315zm296.9.158l-15.1.116-.6 6.277 13.5-2.557c4.6 7.533 9.7 12.383 16.6 18.943l-4.6 389.06-19.9 9.9 4.1-.6 18.2-4.2 5.8-395.47c-7-6.73-13.3-13.748-18-21.469zm9.6 435.739l3.5 69.7-177.7.1c.4 2.1-4.1.2-3.7 2.3l185.2.4-4.6-78.2zm-370 25.1c-1 2.2-2.9.4-3.7 2.6 4.2 14 5.8 29.5 7.1 44l158 .3c1.9-5 .8-9.7 4.3-14.4 5.1 4.5 7.8 9.5 10.6 14.5.8-10.1 3.9-19.8 7-29.5 1.8 3.4 3.2 7 4.3 10.6-1.4-5.6-2.4-8.3-5.1-13.4-3 9.4-6.7 16.2-7.5 26-2.7-4.9-5.4-9.7-10.4-14.1-3.4 4.6-6.2 9.1-8 14l-147.6 3.4c-3.4-14.6-7.1-30.3-9-44z"
       overflow="visible"
       color="#000"
       opacity=".527"
       fill="#c87137"
       fill-rule="evenodd"
       filter="url(#a)"
       enable-background="accumulate"
       id="path7" /><path
       d="M200.1 16.1c-2.3 10.67-10.5 21.38-15.6 31.44-6.6-10.06-13.9-19.69-17.7-30.12L17.34 19.05C24.61 113.6 7.605 179.3 16.85 277l18.26 20.1L10.34 309l7.1 141.6.96 43.3 90.2 3.4c3.4-15.2 15-35.6 21.3-49.6 4.3 13.6 15.4 36.7 16.6 50.9l45.1.8 13.8-18.7 14.4 22.2 68.7-8.6c1.8-4.7 4.5-9.1 7.8-13.5 4.8 4.2 7.4 8.9 10 13.6.8-9.5 7.7-19.6 10.6-28.7 4.5 8.6 19.9 28.9 33.1 33.9l114.6 5.6 22.3-14.7 19.4 14.7-14.5-67.6-34.6-14.2 37.5-15.1 2.1-96.9-14.5-21.9 15.2-13.4 5.1-239.63c-5.2-21.09-11.8-24.89-16.9-20.22l-4.2 2.11 2 19.14.7 44.47-7.1 124.23-18.3-137.78c8.8-15.88-3.9-35.38-.6-50.02-67.1 1.24-140.4-13.332-202.8-3.28-14 2.25-23.7 21.31-36.9 24.48-4.3 1.03-13.9-23.45-18.4-23.5z"
       overflow="visible"
       enable-background="accumulate"
       filter="url(#b)"
       fill-rule="evenodd"
       fill="#f6e7d0"
       color="#000"
       id="path8" /><path
       d="M354 27.39l-70.3 96.91 46.4 97.6-56.2 43.6 33 74.4-30.2 63.2 69.8 48.8 31.6 29.5 31.6-13.3L365.9 335l55.5-36.5 2.1-146.1-56.9-101.83zM116.6 55.48L89.9 123.6s33.7 65.3 35.8 68.8c2.1 3.6-7 118-7 118l42.8 73.8s9.9-82.9 7.1-83.6c-2.8-.7-29.5-42.1-29.5-42.1l23.8-84.3-36.5-37.2z"
       color="#000"
       overflow="visible"
       fill="#f2dbb9"
       fill-rule="evenodd"
       filter="url(#c)"
       enable-background="accumulate"
       id="path9" /><path
       d="M39.33 172.1l-5.62 108.1L74.45 328 42.84 464.9l96.96-39.3 30.2 42.9 74.4-38.7-80.8-169.9-60.4-16.9z"
       color="#000"
       overflow="visible"
       fill="#eed3a4"
       fill-rule="evenodd"
       enable-background="accumulate"
       filter="url(#d)"
       id="path10" /><path
       d="M266.9 66.72L324.5 191 434 221.2l21.8-111.6-41.4-68.86z"
       color="#000"
       overflow="visible"
       fill="#eed3a4"
       fill-rule="evenodd"
       enable-background="accumulate"
       filter="url(#e)"
       id="path11" /></svg><path
     id="path12"
     style="fill:#3e3126;fill-opacity:1;stroke-width:0.960447;stroke-linecap:round;stroke-linejoin:round"
     d="m 232.9691,55.99994 c -10.01992,0 -19.32249,4.978 -24.88159,13.31495 l -5.40814,8.115028 h -3.82116 c -13.53864,0 -25.28881,9.170973 -28.57142,22.307886 l -1.31124,5.235556 -12.13128,2.42926 c -12.90749,2.58166 -22.27599,14.00861 -22.27599,27.17015 v 2.95638 l -6.72313,6.72688 c -4.87583,4.87592 -7.55977,11.35367 -7.55977,18.2485 1e-5,3.98662 0.94018,7.98 2.72564,11.54413 l 5.25995,10.52176 -5.88461,11.76737 c -1.37344,2.75053 -2.10097,5.83007 -2.10098,8.90664 1e-5,9.45998 6.73279,17.67641 16.01433,19.52034 l 16.8641,3.37282 3.39534,5.09487 c 5.1405,7.70898 12.03245,14.08127 20.07747,18.60679 4.80997,-2.93923 9.8404,-5.54455 15.08015,-7.78676 v -16.63337 c 0,-7.87333 6.40612,-14.28289 14.28289,-14.28289 v -14.28478 c -7.87334,0 -14.28289,-6.40796 -14.28289,-14.28477 v -14.28291 c 0,-7.87335 6.40612,-14.28477 14.28289,-14.28477 h 28.57144 v -14.2829 c 0,-1.88163 0.37499,-3.67777 1.0411,-5.32935 -3.27582,-1.84392 -6.32132,-4.13778 -9.05109,-6.86758 l -2.21728,-2.21915 c -14.60661,-1.21569 -27.19819,-10.98749 -31.89547,-25.08606 l -0.36768,-1.09926 13.55319,-4.515231 0.36579,1.099262 c 3.08009,9.239699 11.69223,15.444059 21.42998,15.444059 h 2.95638 l 6.28043,6.27481 c 5.16423,5.16766 12.03088,8.00997 19.33462,8.00997 7.30375,0 14.17071,-2.84389 19.33838,-8.0081 l 6.27667,-6.27668 h 2.95638 c 9.73423,0 18.34623,-6.20736 21.42623,-15.444059 l 0.37142,-1.091759 13.55319,4.518978 -0.36768,1.09927 c -4.70012,14.09857 -17.28883,23.87054 -31.89547,25.08605 l -2.22104,2.22104 c -2.72636,2.72979 -5.77691,5.02368 -9.04921,6.86757 0.6661,1.64816 1.04111,3.44397 1.04111,5.3256 v 14.28478 h 28.57143 c 7.87335,0 14.28477,6.40609 14.28477,14.2829 v 14.28478 c 0,7.87335 -6.408,14.28289 -14.28477,14.28289 v 14.28478 c 7.87335,0 14.28477,6.40799 14.28477,14.28477 l -0.004,16.62963 c 5.2398,2.24563 10.26953,4.8478 15.08014,7.79049 8.04828,-4.52517 14.93722,-10.89824 20.07747,-18.60678 l 3.39909,-5.09675 16.86222,-3.37095 c 9.27786,-1.85474 16.01245,-10.07161 16.01245,-19.53159 0,-3.07675 -0.72595,-6.15628 -2.10285,-8.90664 l -5.88086,-11.76737 5.2562,-10.52176 c 1.78556,-3.56775 2.72751,-7.55761 2.72751,-11.54413 0,-6.89501 -2.68205,-13.37267 -7.55789,-18.2485 l -6.72688,-6.72688 v -2.95638 c 0,-13.16417 -9.36662,-24.59148 -22.27412,-27.17015 l -12.13127,-2.42926 -1.30936,-5.235556 C 338.43329,86.604406 326.68256,77.429918 313.14393,77.429918 h -3.82491 l -5.40814,-8.115028 c -5.55977,-8.336508 -14.86067,-13.31495 -24.87971,-13.31495 -4.61846,0 -9.24429,1.091545 -13.37498,3.15522 l -9.65512,4.83225 -9.65887,-4.83225 c -4.13051,-2.063588 -8.75482,-3.15522 -13.3731,-3.15522 z m 15.89052,85.71428 V 155.999 h 14.28478 v -14.28478 z m 107.88898,11.08454 12.77658,6.38923 c -5.62045,11.2451 -16.92749,18.23348 -29.50186,18.23348 H 334.5664 V 163.1367 h 5.45692 v 0.002 c 7.13147,0 13.53885,-3.96348 16.72528,-10.33981 z m -201.50444,0.002 c 3.19021,6.37569 9.60129,10.33793 16.72904,10.33793 h 5.45503 v 14.28478 h -5.45503 c -12.57348,0 -23.88132,-6.98821 -29.50562,-18.23349 z m 50.75738,17.48502 v 14.28476 h 99.99719 0.0113 l -0.0113,-14.28476 z m 14.28665,28.57142 v 14.28478 h 71.42764 V 198.8572 Z m -14.28665,28.57143 v 14.28478 h 99.99719 v -14.28478 z m -5.76456,28.56767 -0.544,0.2176 c -10.20483,4.08038 -19.53938,9.67443 -27.87923,16.6465 -22.87722,16.76374 -37.18169,44.45982 -37.18169,75.93161 v 1.48569 c -0.0145,0.70791 -0.0638,1.41252 -0.0638,2.12162 0,0.79656 0.0453,1.59045 0.0638,2.3861 v 8.41893 c 0,38.184 28.65179,70.82135 64.45502,85.09525 0.33423,0.1363 0.66416,0.27985 0.99983,0.41269 2.27636,0.88234 4.58775,1.6649 6.91447,2.39549 1.31528,0.41598 2.63513,0.80321 3.96747,1.16679 1.87473,0.51196 3.76104,0.97132 5.65763,1.38064 1.06004,0.22612 2.11695,0.45043 3.18524,0.64343 2.6596,0.48903 5.33239,0.8851 8.0156,1.16304 0.20019,0.0202 0.39803,0.0504 0.59841,0.0694 3.17262,0.30952 6.35585,0.46898 9.53694,0.46898 h 0.20447 35.66036 0.20259 c 3.17986,0 6.36175,-0.1597 9.53319,-0.46898 0.20604,-0.0195 0.40945,-0.0505 0.61529,-0.0713 2.67506,-0.27746 5.33958,-0.67205 7.99122,-1.1593 1.07582,-0.19421 2.14029,-0.41936 3.20775,-0.64717 1.88852,-0.40778 3.76637,-0.86549 5.63324,-1.37501 1.34169,-0.36592 2.67122,-0.75524 3.99561,-1.1743 2.31892,-0.72845 4.62306,-1.50883 6.89196,-2.38799 0.34453,-0.1363 0.68307,-0.28398 1.0261,-0.42394 35.79736,-14.27749 64.44375,-46.90985 64.44375,-85.08775 v -8.41517 c 0.0185,-0.79566 0.0638,-1.58955 0.0638,-2.38612 0,-0.70969 -0.0493,-1.415 -0.0638,-2.12348 v -1.48757 c 0,-33.37294 -15.80194,-62.50691 -40.94656,-78.85234 -7.36705,-5.60173 -15.40624,-10.24301 -24.11622,-13.72577 l -0.53838,-0.2176 h -23.27959 -64.32183 z" /></svg>
