<?xml version="1.0" encoding="UTF-8" standalone="no"?>
<svg
   viewBox="0 0 512 512"
   style="height: 512px; width: 512px;"
   version="1.1"
   id="svg12"
   sodipodi:docname="bomb-honey--a.svg"
   xml:space="preserve"
   inkscape:version="1.4 (e7c3feb1, 2024-10-09)"
   xmlns:inkscape="http://www.inkscape.org/namespaces/inkscape"
   xmlns:sodipodi="http://sodipodi.sourceforge.net/DTD/sodipodi-0.dtd"
   xmlns="http://www.w3.org/2000/svg"
   xmlns:svg="http://www.w3.org/2000/svg"><sodipodi:namedview
     id="namedview12"
     pagecolor="#505050"
     bordercolor="#ffffff"
     borderopacity="1"
     inkscape:showpageshadow="0"
     inkscape:pageopacity="0"
     inkscape:pagecheckerboard="1"
     inkscape:deskcolor="#d1d1d1"
     inkscape:zoom="0.45032339"
     inkscape:cx="274.24736"
     inkscape:cy="154.33353"
     inkscape:window-width="992"
     inkscape:window-height="686"
     inkscape:window-x="500"
     inkscape:window-y="38"
     inkscape:window-maximized="0"
     inkscape:current-layer="svg12" /><defs
     id="defs2"><radialGradient
       id="lorc-wolf-howl-gradient-0"><stop
         offset="0%"
         stop-color="#830000"
         stop-opacity="1"
         id="stop1" /><stop
         offset="100%"
         stop-color="#000"
         stop-opacity="1"
         id="stop2" /></radialGradient><clipPath
       id="b-8"><path
         d="m229 164h342v487.9h-342z"
         id="path1" /></clipPath><clipPath
       id="a-0"><path
         d="m489 148.09h50v48.906h-50z"
         id="path2-2" /></clipPath></defs><path
     d="M0 0h512v512H0z"
     fill="url(#pattern)"
     id="path2" /><svg
     version="1.1"
     id="svg11"><defs
       id="defs6"><filter
         id="b"
         x="-0.023338979"
         width="1.046678"
         y="-0.023448784"
         height="1.0468976"
         color-interpolation-filters="sRGB"><feGaussianBlur
           stdDeviation="4.823"
           id="feGaussianBlur2" /></filter><filter
         id="a"
         x="-0.012011281"
         width="1.0240226"
         y="-0.011988317"
         height="1.0239766"
         color-interpolation-filters="sRGB"><feGaussianBlur
           stdDeviation="2.55"
           id="feGaussianBlur3" /></filter><filter
         id="c"
         x="-0.11244604"
         width="1.2248921"
         y="-0.082623731"
         height="1.1652475"
         color-interpolation-filters="sRGB"><feGaussianBlur
           stdDeviation="15.63"
           id="feGaussianBlur4" /></filter><filter
         id="e"
         x="-0.23758603"
         width="1.4751721"
         y="-0.24869778"
         height="1.4973956"
         color-interpolation-filters="sRGB"><feGaussianBlur
           stdDeviation="18.7"
           id="feGaussianBlur5" /></filter><filter
         id="d"
         x="-0.21301439"
         width="1.4260288"
         y="-0.15141701"
         height="1.302834"
         color-interpolation-filters="sRGB"><feGaussianBlur
           stdDeviation="18.7"
           id="feGaussianBlur6" /></filter></defs><path
       d="M196.6 1.207c-2.5 11.323-4.8 22.703-10.2 33.383-7-10.68-12.6-20.91-16.7-31.988L2.494 4.338C13 104.9 10.86 175.3 1.979 278.3L15.4 295.5l-9.494 6.3L2.6 462.7l1.019 45.9 112.681 3.1c3.6-16.1 6.5-32.5 13.2-47.3 4.5 14.4 5.7 29.4 7 44.4l160 .3c.8-6.1.7-8.1 2.3-14.4 5.1 4.5 7.8 9.5 10.6 14.5.8-10.1 3.9-19.8 7-29.5 4.8 9.2 6.7 19.4 8.8 29.5l185.2.4-4.6-78.2-21.4-8.2 21.3-4.9 5.8-395.47c-7-6.73-13.3-13.744-18-21.465l-15.1.114-2.1 20.321-1.4 47.23.8 84.87-8.6-97.14c9.3-16.86 2.2-39.69 5.7-55.239-92.1 1.696-184.1.685-276.2-.314z"
       overflow="visible"
       color="#000"
       fill="#ebc893"
       fill-rule="evenodd"
       stroke="#e0aa58"
       enable-background="accumulate"
       id="path6" /><path
       d="M196.6 1.203c-2.5 11.327-4.8 22.707-10.2 33.387-7-10.68-12.6-20.91-16.7-31.99L2.494 4.336C13 104.9 10.86 175.3 1.979 278.3L15.4 295.5l-9.494 6.3L2.6 462.7l1.019 45.9 112.681 3.1c.5-2.1-7.9-2.3-7.4-4.5L5.244 504.5l-.914-47.3 4.63-153.7 12.42-9-13.093-16.8C16.95 177.3 16.36 104 6.113 5.992l162.687.164c4 10.804 10.3 24.254 17.1 34.664 5.3-10.41 9.5-25.97 12-37.02 89.8.974 173.8 3.521 263.6 1.867 4.6 1.226 10.6.431 11.3-4.149-92.1 1.696-184.1.684-276.2-.315zm296.9.158l-15.1.116-.6 6.277 13.5-2.557c4.6 7.533 9.7 12.383 16.6 18.943l-4.6 389.06-19.9 9.9 4.1-.6 18.2-4.2 5.8-395.47c-7-6.73-13.3-13.748-18-21.469zm9.6 435.739l3.5 69.7-177.7.1c.4 2.1-4.1.2-3.7 2.3l185.2.4-4.6-78.2zm-370 25.1c-1 2.2-2.9.4-3.7 2.6 4.2 14 5.8 29.5 7.1 44l158 .3c1.9-5 .8-9.7 4.3-14.4 5.1 4.5 7.8 9.5 10.6 14.5.8-10.1 3.9-19.8 7-29.5 1.8 3.4 3.2 7 4.3 10.6-1.4-5.6-2.4-8.3-5.1-13.4-3 9.4-6.7 16.2-7.5 26-2.7-4.9-5.4-9.7-10.4-14.1-3.4 4.6-6.2 9.1-8 14l-147.6 3.4c-3.4-14.6-7.1-30.3-9-44z"
       overflow="visible"
       color="#000"
       opacity=".527"
       fill="#c87137"
       fill-rule="evenodd"
       filter="url(#a)"
       enable-background="accumulate"
       id="path7" /><path
       d="M200.1 16.1c-2.3 10.67-10.5 21.38-15.6 31.44-6.6-10.06-13.9-19.69-17.7-30.12L17.34 19.05C24.61 113.6 7.605 179.3 16.85 277l18.26 20.1L10.34 309l7.1 141.6.96 43.3 90.2 3.4c3.4-15.2 15-35.6 21.3-49.6 4.3 13.6 15.4 36.7 16.6 50.9l45.1.8 13.8-18.7 14.4 22.2 68.7-8.6c1.8-4.7 4.5-9.1 7.8-13.5 4.8 4.2 7.4 8.9 10 13.6.8-9.5 7.7-19.6 10.6-28.7 4.5 8.6 19.9 28.9 33.1 33.9l114.6 5.6 22.3-14.7 19.4 14.7-14.5-67.6-34.6-14.2 37.5-15.1 2.1-96.9-14.5-21.9 15.2-13.4 5.1-239.63c-5.2-21.09-11.8-24.89-16.9-20.22l-4.2 2.11 2 19.14.7 44.47-7.1 124.23-18.3-137.78c8.8-15.88-3.9-35.38-.6-50.02-67.1 1.24-140.4-13.332-202.8-3.28-14 2.25-23.7 21.31-36.9 24.48-4.3 1.03-13.9-23.45-18.4-23.5z"
       overflow="visible"
       enable-background="accumulate"
       filter="url(#b)"
       fill-rule="evenodd"
       fill="#f6e7d0"
       color="#000"
       id="path8" /><path
       d="M354 27.39l-70.3 96.91 46.4 97.6-56.2 43.6 33 74.4-30.2 63.2 69.8 48.8 31.6 29.5 31.6-13.3L365.9 335l55.5-36.5 2.1-146.1-56.9-101.83zM116.6 55.48L89.9 123.6s33.7 65.3 35.8 68.8c2.1 3.6-7 118-7 118l42.8 73.8s9.9-82.9 7.1-83.6c-2.8-.7-29.5-42.1-29.5-42.1l23.8-84.3-36.5-37.2z"
       color="#000"
       overflow="visible"
       fill="#f2dbb9"
       fill-rule="evenodd"
       filter="url(#c)"
       enable-background="accumulate"
       id="path9" /><path
       d="M39.33 172.1l-5.62 108.1L74.45 328 42.84 464.9l96.96-39.3 30.2 42.9 74.4-38.7-80.8-169.9-60.4-16.9z"
       color="#000"
       overflow="visible"
       fill="#eed3a4"
       fill-rule="evenodd"
       enable-background="accumulate"
       filter="url(#d)"
       id="path10" /><path
       d="M266.9 66.72L324.5 191 434 221.2l21.8-111.6-41.4-68.86z"
       color="#000"
       overflow="visible"
       fill="#eed3a4"
       fill-rule="evenodd"
       enable-background="accumulate"
       filter="url(#e)"
       id="path11" /></svg><g
     id="g1"
     transform="matrix(0.86750974,0,0,0.86750974,33.281144,33.521153)"><path
       id="path13"
       style="fill:#bea760;fill-opacity:1;stroke-linecap:round;stroke-linejoin:round"
       d="m 370.75391,35.4375 -18.05274,1.337891 -8.35937,13.705078 19.39062,10.365234 14.375,-7.021484 z m -247.0586,11.367188 -14.375,9.693359 2.00586,15.378906 17.38477,7.689453 10.36328,-19.05664 z m 92.31836,2.265624 -56.15234,50.083985 -25.29492,10.623043 -12.64649,29.84766 -15.17773,21.75391 7.58789,28.33007 -7.58789,17.19922 8.09375,25.29492 27.82422,7.5879 27.82422,30.35351 -18.71876,9.10547 -20.74023,-8.59961 -11.12891,19.22266 18.21094,13.66015 -17.19922,60.70703 12.64649,55.64649 -12.14063,10.625 10.11719,21.24609 17.19922,-11.1289 27.82422,22.76562 59.18945,15.17578 75.88281,-5.56445 49.57813,-31.36524 21.24609,9.10547 5.0586,-21.24609 -11.12891,-11.13086 16.69531,-49.07031 -16.69531,-63.23633 13.6582,-17.70703 -10.62304,-18.21094 -20.74024,10.11719 -21.24805,-13.15234 63.23633,-40.97657 4.04688,-64.7539 -13.1543,-35.91797 -92.07031,-73.353518 z" /><g
       id="g13"
       transform="matrix(0.91521929,0,0,0.91521929,-109.35422,-109.62839)"
       style="fill:#3e3126;fill-opacity:1"><g
         clip-path="url(#b-8)"
         id="g3"
         style="fill:#3e3126;fill-opacity:1"><path
           d="m 563.48,326.86 2.3516,-4.7031 c 3.1523,-6.3008 4.8164,-13.355 4.8164,-20.398 0,-12.184 -4.7461,-23.637 -13.359,-32.254 l -3.0195,-3.0195 c -1.5586,-21.195 -17.176,-39.133 -38.277,-43.352 l -3.9062,-0.78125 c -6.3477,-18.594 -23.035,-31.684 -42.59,-33.434 l -1.4609,-2.1914 c -9.3516,-14.016 -24.988,-22.387 -41.832,-22.387 -7.7617,0 -15.535,1.8359 -22.484,5.3086 l -3.7148,1.8594 -3.7188,-1.8594 c -6.9492,-3.4727 -14.723,-5.3086 -22.484,-5.3086 -16.844,0 -32.484,8.3672 -41.828,22.387 l -1.4609,2.1914 c -19.555,1.75 -36.242,14.84 -42.59,33.434 l -3.9062,0.78125 c -21.102,4.2188 -36.719,22.156 -38.277,43.352 l -3.0195,3.0195 c -8.6172,8.6172 -13.363,20.07 -13.363,32.254 0,7.0469 1.6641,14.098 4.8164,20.398 l 2.3516,4.7031 -3.0586,6.1172 c -2.6875,5.375 -4.1094,11.395 -4.1094,17.402 0,18.484 13.156,34.527 31.277,38.156 l 12.582,2.5156 0.12891,0.19531 c 5.8633,8.793 13.34,16.352 21.98,22.305 -2.0312,1.6445 -4.0156,3.3516 -5.9531,5.1211 l -12.945,-7.9961 c -2.6992,-1.6719 -5.8125,-2.5547 -8.9961,-2.5547 -6.5312,0 -12.402,3.6289 -15.324,9.4727 l -4.6836,9.3711 c -1.1875,2.3633 -1.8125,5.0117 -1.8125,7.6602 v 0.97656 c 0,5.9844 3.0391,11.434 8.1328,14.578 l 7.5703,4.6758 c -10.289,19.344 -15.703,40.934 -15.703,62.938 0,19.637 4.3398,39.113 12.598,56.789 l -3.8828,2.3984 c -5.457,3.3672 -8.7148,9.207 -8.7148,15.621 0,2.8359 0.67188,5.6758 1.9375,8.2109 l 4.5547,9.1094 c 2.9219,5.8438 8.793,9.4727 15.328,9.4727 3.1836,0 6.2969,-0.88281 9.0039,-2.5547 l 7.8398,-4.8438 c 25.129,25.438 59.531,39.902 95.441,39.902 h 40.57 c 35.91,0 70.312,-14.465 95.441,-39.902 l 7.8398,4.8438 c 2.707,1.6719 5.8203,2.5547 9.0039,2.5547 6.5312,0 12.402,-3.6289 15.324,-9.4727 l 4.6836,-9.3711 c 1.1836,-2.3672 1.8086,-5.0156 1.8086,-7.6641 v -0.97656 c 0,-5.9844 -3.0391,-11.434 -8.1289,-14.578 l -4.4648,-2.7578 c 8.2617,-17.672 12.602,-37.145 12.602,-56.781 0,-22.004 -5.4141,-43.594 -15.703,-62.938 l 6.9883,-4.3164 c 5.457,-3.3711 8.7148,-9.2109 8.7148,-15.625 0,-2.8359 -0.67188,-5.6758 -1.9375,-8.2109 l -4.5547,-9.1094 c -2.9219,-5.8438 -8.793,-9.4727 -15.328,-9.4727 -3.1836,0 -6.2969,0.88281 -9.0039,2.5547 l -12.945,7.9961 c -1.9375,-1.7695 -3.9219,-3.4766 -5.9531,-5.1211 8.6406,-5.957 16.117,-13.512 21.98,-22.305 l 0.13281,-0.19531 12.582,-2.5156 c 18.125,-3.625 31.281,-19.672 31.281,-38.156 0,-6.0078 -1.4219,-12.027 -4.1094,-17.402 z m -62.945,117.15 6.4688,11.32 -11.047,6.8242 -6.4688,-11.32 z m -24.883,15.367 6.4688,11.32 -11.047,6.8242 -6.4688,-11.32 z m -24.883,15.371 6.4688,11.32 -11.047,6.8242 -6.4688,-11.32 z m 41.293,103.53 6.4688,-11.316 11.047,6.8242 -6.4688,11.32 z m -13.836,-8.543 -11.047,-6.8242 6.4688,-11.32 11.047,6.8242 z m -24.883,-15.367 -11.047,-6.8242 6.4688,-11.32 11.047,6.8242 z m -156.45,30.734 -6.4688,-11.32 11.051,-6.8203 6.4688,11.32 z m -35.035,-67.305 c 0,-18.984 4.5781,-37.625 13.297,-54.387 l 81.523,50.352 -84.535,52.211 c -6.7383,-15.062 -10.285,-31.551 -10.285,-48.176 z m 148.19,-5.4883 -6.4688,11.32 -11.047,-6.8242 6.4688,-11.32 z m -88.27,57.426 -6.4688,-11.32 11.047,-6.8242 6.4688,11.32 z m 24.883,-15.367 -6.4688,-11.32 11.047,-6.8242 6.4688,11.32 z m 24.883,-15.371 -6.4688,-11.32 7.0664,-4.3633 12.395,7.6562 z m 52.34,-18.141 11.047,6.8242 -6.4688,11.32 -11.047,-6.8242 z m 2.0039,-30.738 6.4688,11.32 -4.4922,2.7734 -12.395,-7.6562 z m -47.191,18.141 -11.047,-6.8242 6.4688,-11.32 11.047,6.8242 z m -24.879,-15.367 -11.047,-6.8242 6.4688,-11.32 11.047,6.8242 z m -24.883,-15.367 -11.047,-6.8242 6.4688,-11.32 11.047,6.8242 z m -24.883,-15.371 -11.047,-6.8242 6.4688,-11.32 11.047,6.8242 z m -42.191,-27.523 c 0,-0.13672 0.0312,-0.27344 0.0937,-0.39453 l 4.6836,-9.3711 c 0.14844,-0.30078 0.45313,-0.48828 0.78906,-0.48828 0.16406,0 0.32422,0.0469 0.46484,0.13281 l 17.742,10.957 -6.4688,11.32 -16.887,-10.43 c -0.25781,-0.16016 -0.42188,-0.44922 -0.42188,-0.75 z m 6.0352,168.39 c -0.42578,0.26562 -1.0312,0.0898 -1.2539,-0.35938 l -4.5547,-9.1094 c -0.14453,-0.29297 -0.22266,-0.61719 -0.22266,-0.94531 0,-0.73828 0.375,-1.4102 1,-1.7969 l 10.211,-6.3047 -4.2695,-6.9141 4.2695,6.9141 3.5195,-2.1758 6.4688,11.32 z m 152.39,32.637 h -40.57 c -30.301,0 -59.383,-11.723 -81.199,-32.445 l 101.48,-62.688 101.49,62.684 c -21.82,20.727 -50.902,32.449 -81.203,32.449 z m 117.86,-42.758 c 0,0.13672 -0.0312,0.27344 -0.0937,0.39453 l -4.6836,9.3711 c -0.22266,0.44922 -0.82812,0.62109 -1.2539,0.35938 l -15.168,-9.3672 6.4688,-11.32 14.312,8.8398 c 0.25781,0.16016 0.42188,0.44922 0.42188,0.75 z m -94.816,-79.133 81.52,-50.352 c 8.7188,16.762 13.297,35.398 13.297,54.387 0,16.625 -3.5469,33.113 -10.285,48.18 z m 88.785,-89.254 c 0.42578,-0.26172 1.0312,-0.0898 1.2539,0.35938 l 4.5547,9.1094 c 0.14453,0.29297 0.22266,0.61719 0.22266,0.94531 0,0.73828 -0.375,1.4102 -1,1.7969 l -13.652,8.4336 4.2695,6.9141 -4.2695,-6.9141 -2.6523,1.6367 -6.4688,-11.32 z m -132.11,62.496 -96.16,-59.395 c 9.582,-8.0781 20.34,-14.535 32.102,-19.238 l 0.61719,-0.24609 h 126.88 l 0.61328,0.24609 c 11.762,4.7031 22.52,11.164 32.102,19.242 z m 8.125,-208.89 v 16.25 h -16.25 v -16.25 z m 48.754,32.504 0.0117,16.25 h -0.0117 -113.76 v -16.25 z m -16.25,32.504 v 16.25 h -81.258 v -16.25 z m 16.25,32.504 v 16.25 h -113.76 v -16.25 z m 95.121,-35.371 c 1.5664,3.1289 2.3906,6.6328 2.3906,10.133 0,10.762 -7.6602,20.109 -18.215,22.219 l -19.184,3.8359 -3.8672,5.7969 c -5.8477,8.7695 -13.684,16.02 -22.84,21.168 -5.4727,-3.3477 -11.195,-6.3086 -17.156,-8.8633 l 0.004,-18.918 c 0,-8.9609 -7.293,-16.25 -16.25,-16.25 v -16.25 c 8.9609,0 16.25,-7.293 16.25,-16.25 v -16.25 c 0,-8.9609 -7.293,-16.25 -16.25,-16.25 h -32.504 v -16.25 c 0,-2.1406 -0.42578,-4.1836 -1.1836,-6.0586 3.7227,-2.0977 7.1914,-4.707 10.293,-7.8125 l 2.5273,-2.5273 c 16.617,-1.3828 30.938,-12.5 36.285,-28.539 l 0.41797,-1.25 -15.418,-5.1406 -0.42188,1.2422 c -3.5039,10.508 -13.301,17.57 -24.375,17.57 h -3.3633 l -7.1406,7.1406 c -5.8789,5.875 -13.691,9.1094 -22,9.1094 -8.309,0 -16.121,-3.2344 -21.996,-9.1133 l -7.1445,-7.1367 h -3.3633 c -11.078,0 -20.875,-7.0586 -24.379,-17.57 l -0.41797,-1.25 -15.418,5.1367 0.41797,1.25 c 5.3438,16.039 19.668,27.156 36.285,28.539 l 2.5234,2.5234 c 3.1055,3.1055 6.5703,5.7148 10.297,7.8125 -0.75781,1.8789 -1.1836,3.9219 -1.1836,6.0625 v 16.25 h -32.504 c -8.9609,0 -16.25,7.293 -16.25,16.25 v 16.25 c 0,8.9609 7.293,16.25 16.25,16.25 v 16.25 c -8.9609,0 -16.25,7.293 -16.25,16.25 v 18.922 c -5.9609,2.5508 -11.684,5.5156 -17.156,8.8594 -9.1523,-5.1484 -16.992,-12.398 -22.84,-21.168 l -3.8633,-5.7969 -19.184,-3.8359 c -10.559,-2.0977 -18.219,-11.445 -18.219,-22.207 0,-3.5 0.82812,-7.0039 2.3906,-10.133 l 6.6953,-13.387 -5.9844,-11.969 c -2.0312,-4.0547 -3.1016,-8.5977 -3.1016,-13.133 0,-7.8438 3.0547,-15.215 8.6016,-20.762 l 7.6484,-7.6523 v -3.3633 c 0,-14.973 10.656,-27.973 25.34,-30.91 l 13.801,-2.7617 1.4922,-5.957 c 3.7344,-14.945 17.102,-25.379 32.504,-25.379 h 4.3477 l 6.1523,-9.2305 c 6.3242,-9.4844 16.906,-15.148 28.305,-15.148 5.2539,0 10.516,1.2422 15.215,3.5898 l 10.988,5.4961 10.984,-5.4961 c 4.6992,-2.3477 9.9609,-3.5898 15.215,-3.5898 11.398,0 21.98,5.6641 28.305,15.148 l 6.1523,9.2305 h 4.3516 c 15.402,0 28.77,10.438 32.504,25.379 l 1.4883,5.957 13.801,2.7617 c 14.684,2.9336 25.34,15.934 25.34,30.91 v 3.3633 l 7.6523,7.6523 c 5.5469,5.5469 8.5977,12.918 8.5977,20.762 0,4.5352 -1.0703,9.0742 -3.1016,13.133 l -5.9805,11.969 z"
           id="path3"
           style="fill:#3e3126;fill-opacity:1" /></g><path
         d="m 285.38,290.73 -14.535,7.2695 c 6.3984,12.793 19.262,20.742 33.566,20.742 h 6.207 v -16.25 h -6.207 c -8.1094,0 -15.402,-4.5078 -19.031,-11.762 z"
         id="path4"
         style="fill:#3e3126;fill-opacity:1" /><path
         d="m 495.59,302.49 h -6.207 v 16.25 h 6.207 c 14.305,0 27.168,-7.9492 33.562,-20.742 l -14.535,-7.2695 c -3.625,7.2539 -10.914,11.762 -19.027,11.762 z"
         id="path5"
         style="fill:#3e3126;fill-opacity:1" /><path
         d="m 253.73,213.1 c 13.441,0 24.379,-10.938 24.379,-24.379 0,-13.441 -10.938,-24.379 -24.379,-24.379 -13.441,0 -24.379,10.938 -24.379,24.379 0,13.441 10.938,24.379 24.379,24.379 z m 0,-32.504 c 4.4805,0 8.125,3.6445 8.125,8.125 0,4.4805 -3.6445,8.125 -8.125,8.125 -4.4805,0 -8.125,-3.6445 -8.125,-8.125 0,-4.4805 3.6445,-8.125 8.125,-8.125 z"
         id="path6-4"
         style="fill:#3e3126;fill-opacity:1" /><g
         clip-path="url(#a-0)"
         id="g7"
         style="fill:#3e3126;fill-opacity:1"><path
           d="m 513.76,196.85 c 13.441,0 24.379,-10.938 24.379,-24.379 0,-13.438 -10.938,-24.375 -24.379,-24.375 -13.441,0 -24.379,10.938 -24.379,24.379 0,13.441 10.938,24.375 24.379,24.375 z m 0,-32.504 c 4.4805,0 8.125,3.6445 8.125,8.125 0,4.4805 -3.6445,8.125 -8.125,8.125 -4.4805,0 -8.125,-3.6445 -8.125,-8.125 0,-4.4766 3.6445,-8.125 8.125,-8.125 z"
           id="path7-8"
           style="fill:#3e3126;fill-opacity:1" /></g></g></g></svg>
