<?xml version="1.0" encoding="UTF-8" standalone="no"?>
<svg
   viewBox="0 0 512 512"
   style="height: 512px; width: 512px;"
   version="1.1"
   id="svg12"
   sodipodi:docname="bubbling-flask.svg"
   inkscape:version="1.4 (e7c3feb1, 2024-10-09)"
   xmlns:inkscape="http://www.inkscape.org/namespaces/inkscape"
   xmlns:sodipodi="http://sodipodi.sourceforge.net/DTD/sodipodi-0.dtd"
   xmlns="http://www.w3.org/2000/svg"
   xmlns:svg="http://www.w3.org/2000/svg">
  <sodipodi:namedview
     id="namedview12"
     pagecolor="#505050"
     bordercolor="#ffffff"
     borderopacity="1"
     inkscape:showpageshadow="0"
     inkscape:pageopacity="0"
     inkscape:pagecheckerboard="1"
     inkscape:deskcolor="#d1d1d1"
     inkscape:zoom="0.36482289"
     inkscape:cx="226.13713"
     inkscape:cy="212.43185"
     inkscape:window-width="1248"
     inkscape:window-height="406"
     inkscape:window-x="0"
     inkscape:window-y="38"
     inkscape:window-maximized="0"
     inkscape:current-layer="svg12" />
  <defs
     id="defs2">
    <radialGradient
       id="lorc-bubbling-flask-gradient-0">
      <stop
         offset="0%"
         stop-color="#830000"
         stop-opacity="1"
         id="stop1" />
      <stop
         offset="100%"
         stop-color="#000"
         stop-opacity="1"
         id="stop2" />
    </radialGradient>
  </defs>
  <path
     d="M0 0h512v512H0z"
     fill="url(#pattern)"
     id="path2" />
  <svg
     version="1.1"
     id="svg11">
    <defs
       id="defs6">
      <filter
         id="b"
         x="-0.023338979"
         width="1.046678"
         y="-0.023448784"
         height="1.0468976"
         color-interpolation-filters="sRGB">
        <feGaussianBlur
           stdDeviation="4.823"
           id="feGaussianBlur2" />
      </filter>
      <filter
         id="a"
         x="-0.012011281"
         width="1.0240226"
         y="-0.011988317"
         height="1.0239766"
         color-interpolation-filters="sRGB">
        <feGaussianBlur
           stdDeviation="2.55"
           id="feGaussianBlur3" />
      </filter>
      <filter
         id="c"
         x="-0.11244604"
         width="1.2248921"
         y="-0.082623731"
         height="1.1652475"
         color-interpolation-filters="sRGB">
        <feGaussianBlur
           stdDeviation="15.63"
           id="feGaussianBlur4" />
      </filter>
      <filter
         id="e"
         x="-0.23758603"
         width="1.4751721"
         y="-0.24869778"
         height="1.4973956"
         color-interpolation-filters="sRGB">
        <feGaussianBlur
           stdDeviation="18.7"
           id="feGaussianBlur5" />
      </filter>
      <filter
         id="d"
         x="-0.21301439"
         width="1.4260288"
         y="-0.15141701"
         height="1.302834"
         color-interpolation-filters="sRGB">
        <feGaussianBlur
           stdDeviation="18.7"
           id="feGaussianBlur6" />
      </filter>
    </defs>
    <path
       d="M196.6 1.207c-2.5 11.323-4.8 22.703-10.2 33.383-7-10.68-12.6-20.91-16.7-31.988L2.494 4.338C13 104.9 10.86 175.3 1.979 278.3L15.4 295.5l-9.494 6.3L2.6 462.7l1.019 45.9 112.681 3.1c3.6-16.1 6.5-32.5 13.2-47.3 4.5 14.4 5.7 29.4 7 44.4l160 .3c.8-6.1.7-8.1 2.3-14.4 5.1 4.5 7.8 9.5 10.6 14.5.8-10.1 3.9-19.8 7-29.5 4.8 9.2 6.7 19.4 8.8 29.5l185.2.4-4.6-78.2-21.4-8.2 21.3-4.9 5.8-395.47c-7-6.73-13.3-13.744-18-21.465l-15.1.114-2.1 20.321-1.4 47.23.8 84.87-8.6-97.14c9.3-16.86 2.2-39.69 5.7-55.239-92.1 1.696-184.1.685-276.2-.314z"
       overflow="visible"
       color="#000"
       fill="#ebc893"
       fill-rule="evenodd"
       stroke="#e0aa58"
       enable-background="accumulate"
       id="path6" />
    <path
       d="M196.6 1.203c-2.5 11.327-4.8 22.707-10.2 33.387-7-10.68-12.6-20.91-16.7-31.99L2.494 4.336C13 104.9 10.86 175.3 1.979 278.3L15.4 295.5l-9.494 6.3L2.6 462.7l1.019 45.9 112.681 3.1c.5-2.1-7.9-2.3-7.4-4.5L5.244 504.5l-.914-47.3 4.63-153.7 12.42-9-13.093-16.8C16.95 177.3 16.36 104 6.113 5.992l162.687.164c4 10.804 10.3 24.254 17.1 34.664 5.3-10.41 9.5-25.97 12-37.02 89.8.974 173.8 3.521 263.6 1.867 4.6 1.226 10.6.431 11.3-4.149-92.1 1.696-184.1.684-276.2-.315zm296.9.158l-15.1.116-.6 6.277 13.5-2.557c4.6 7.533 9.7 12.383 16.6 18.943l-4.6 389.06-19.9 9.9 4.1-.6 18.2-4.2 5.8-395.47c-7-6.73-13.3-13.748-18-21.469zm9.6 435.739l3.5 69.7-177.7.1c.4 2.1-4.1.2-3.7 2.3l185.2.4-4.6-78.2zm-370 25.1c-1 2.2-2.9.4-3.7 2.6 4.2 14 5.8 29.5 7.1 44l158 .3c1.9-5 .8-9.7 4.3-14.4 5.1 4.5 7.8 9.5 10.6 14.5.8-10.1 3.9-19.8 7-29.5 1.8 3.4 3.2 7 4.3 10.6-1.4-5.6-2.4-8.3-5.1-13.4-3 9.4-6.7 16.2-7.5 26-2.7-4.9-5.4-9.7-10.4-14.1-3.4 4.6-6.2 9.1-8 14l-147.6 3.4c-3.4-14.6-7.1-30.3-9-44z"
       overflow="visible"
       color="#000"
       opacity=".527"
       fill="#c87137"
       fill-rule="evenodd"
       filter="url(#a)"
       enable-background="accumulate"
       id="path7" />
    <path
       d="M200.1 16.1c-2.3 10.67-10.5 21.38-15.6 31.44-6.6-10.06-13.9-19.69-17.7-30.12L17.34 19.05C24.61 113.6 7.605 179.3 16.85 277l18.26 20.1L10.34 309l7.1 141.6.96 43.3 90.2 3.4c3.4-15.2 15-35.6 21.3-49.6 4.3 13.6 15.4 36.7 16.6 50.9l45.1.8 13.8-18.7 14.4 22.2 68.7-8.6c1.8-4.7 4.5-9.1 7.8-13.5 4.8 4.2 7.4 8.9 10 13.6.8-9.5 7.7-19.6 10.6-28.7 4.5 8.6 19.9 28.9 33.1 33.9l114.6 5.6 22.3-14.7 19.4 14.7-14.5-67.6-34.6-14.2 37.5-15.1 2.1-96.9-14.5-21.9 15.2-13.4 5.1-239.63c-5.2-21.09-11.8-24.89-16.9-20.22l-4.2 2.11 2 19.14.7 44.47-7.1 124.23-18.3-137.78c8.8-15.88-3.9-35.38-.6-50.02-67.1 1.24-140.4-13.332-202.8-3.28-14 2.25-23.7 21.31-36.9 24.48-4.3 1.03-13.9-23.45-18.4-23.5z"
       overflow="visible"
       enable-background="accumulate"
       filter="url(#b)"
       fill-rule="evenodd"
       fill="#f6e7d0"
       color="#000"
       id="path8" />
    <path
       d="M354 27.39l-70.3 96.91 46.4 97.6-56.2 43.6 33 74.4-30.2 63.2 69.8 48.8 31.6 29.5 31.6-13.3L365.9 335l55.5-36.5 2.1-146.1-56.9-101.83zM116.6 55.48L89.9 123.6s33.7 65.3 35.8 68.8c2.1 3.6-7 118-7 118l42.8 73.8s9.9-82.9 7.1-83.6c-2.8-.7-29.5-42.1-29.5-42.1l23.8-84.3-36.5-37.2z"
       color="#000"
       overflow="visible"
       fill="#f2dbb9"
       fill-rule="evenodd"
       filter="url(#c)"
       enable-background="accumulate"
       id="path9" />
    <path
       d="M39.33 172.1l-5.62 108.1L74.45 328 42.84 464.9l96.96-39.3 30.2 42.9 74.4-38.7-80.8-169.9-60.4-16.9z"
       color="#000"
       overflow="visible"
       fill="#eed3a4"
       fill-rule="evenodd"
       enable-background="accumulate"
       filter="url(#d)"
       id="path10" />
    <path
       d="M266.9 66.72L324.5 191 434 221.2l21.8-111.6-41.4-68.86z"
       color="#000"
       overflow="visible"
       fill="#eed3a4"
       fill-rule="evenodd"
       enable-background="accumulate"
       filter="url(#e)"
       id="path11" />
  </svg>
  <g
     class=""
     transform="matrix(0.8609924,0,0,0.8609924,49.165506,34.428467)"
     id="g12">
    <path
       d="m 186.22,14.882798 c 1.304,7.696 2.775,14.91 4.436,21.625 h -24.999 l 10.53,14.78 c 0,0 13.66,19.322 21.75,43.814 4.047,12.245002 6.576,25.603002 5.595,38.000002 -0.98,12.394 -5.132,23.72 -15.093,33.718 -20.252,20.325 -47.89,40.234 -70.968,64.406 -23.08,24.17 -41.844,53.534 -41.845,91.656 0,2.038 0.002,39.462 -0.03,76.813 -0.018,18.675 -0.04,37.337 -0.064,51.593 -0.01,7.13 -0.017,13.167 -0.03,17.53 -0.013,4.366 -0.07,7.62 -0.063,7.345 l -0.28,9.564 9.562,0.062 312.53,2.28 9.75,0.064 -0.344,-9.75 c 0.007,0.21 -0.043,-3.14 -0.062,-7.594 -0.02,-4.454 -0.046,-10.56 -0.063,-17.78 -0.033,-14.443 -0.068,-33.324 -0.092,-52.188 -0.05,-37.73 -0.063,-75.526 -0.063,-77.938 0,-38.97 -19.523,-68.73 -43.53,-93.03 -24.01,-24.302 -52.733,-44.122 -73.75,-64.407 -9.965,-9.617 -13.824,-20.463 -14.408,-32.563 -0.583,-12.1 2.526,-25.324 7.188,-37.500002 9.003,-23.515 23.025,-42.038 24,-43.313 l 15.53,-15.562 h -32.53 c 1.647,-6.712 3.142,-13.924 4.438,-21.625 z m 30.78,78.53 c 14.52,15.522002 31.15,15.580002 45.656,0.064 -4.346,12.522002 -7.3,26.290002 -6.625,40.312002 0.764,15.827 6.586,32.085 20.064,45.094 v 0.03 c 22.692,21.903 51.186,41.51 73.47,64.064 22.28,22.555 38.123,47.073 38.123,79.906 0,2.55 0.014,40.232 0.063,77.97 0.024,18.867 0.06,37.73 0.094,52.186 0.016,6.595 0.045,11.937 0.062,16.28 l -293.719,-2.155 c 0.013,-4.24 0.02,-9.396 0.032,-15.842 0.023,-14.266 0.044,-32.948 0.06,-51.625 0.035,-37.356 0.032,-74.663 0.032,-76.813 0,-32.095 15.238,-56.318 36.657,-78.75 21.417,-22.432 48.81,-42.17 70.686,-64.125 13.238,-13.287 19.274,-29.548 20.53,-45.438 1.135,-14.317 -1.343,-28.396 -5.186,-41.156002 z m 34.47,98.782002 c -17.31,0 -31.532,14.224 -31.532,31.532 0,17.307 14.223,31.53 31.53,31.53 17.308,0 31.532,-14.223 31.532,-31.53 0,-17.308 -14.224,-31.53 -31.53,-31.53 z m 0,18.688 c 7.206,0 12.843,5.636 12.843,12.844 0,7.207 -5.637,12.844 -12.844,12.844 -7.21,0 -12.845,-5.637 -12.845,-12.844 0,-7.208 5.636,-12.844 12.844,-12.844 z m -119.97,60.375 c -10.615,14.95 -18.094,31.583 -18.094,52 0,5.323 -0.142,119.566 -0.344,124.72 l 256.094,3.81 c -0.304,-6.364 -0.53,-121.892 -0.53,-128.53 0,-20.39 -7.51,-37.15 -18.126,-52 h -37 c 3.193,5.568 5.03,12.007 5.03,18.844 0,20.968 -17.215,38.186 -38.186,38.186 -20.97,0 -38.156,-17.217 -38.156,-38.187 0,-6.838 1.842,-13.277 5.03,-18.845 H 131.5 Z m 144,0 c -8.475,2.115 -14.625,9.648 -14.625,18.844 0,10.87 8.597,19.5 19.47,19.5 10.87,0 19.5,-8.632 19.5,-19.5 0,-9.197 -6.175,-16.73 -14.658,-18.845 H 275.5 Z m -64.156,41.875 c 18.92,0 34.437,15.518 34.437,34.438 0,18.918 -15.516,34.468 -34.436,34.468 -18.92,0 -34.47,-15.55 -34.47,-34.47 0,-18.918 15.55,-34.436 34.47,-34.436 z m 0,18.688 c -8.82,0 -15.78,6.93 -15.78,15.75 0,8.82 6.96,15.78 15.78,15.78 8.82,0 15.75,-6.96 15.75,-15.78 0,-8.82 -6.93,-15.75 -15.75,-15.75 z m 92.97,10.125 c 25.53,0 46.436,20.905 46.436,46.437 0,25.53 -20.905,46.438 -46.438,46.438 -25.532,0 -46.437,-20.906 -46.437,-46.438 0,-25.532 20.905,-46.438 46.438,-46.438 z m -0.004,18.687 c -15.433,0 -27.75,12.317 -27.75,27.75 0,15.433 12.317,27.75 27.75,27.75 15.433,0 27.75,-12.32 27.75,-27.75 0,-15.433 -12.316,-27.75 -27.75,-27.75 z"
       fill="#3e3126"
       fill-opacity="1"
       id="path12" />
  </g>
</svg>
