<?xml version="1.0" encoding="UTF-8" standalone="no"?>
<svg
   viewBox="0 0 512 512"
   style="height: 512px; width: 512px;"
   version="1.1"
   id="svg12"
   sodipodi:docname="footwork copy.svg"
   inkscape:version="1.4 (e7c3feb1, 2024-10-09)"
   xmlns:inkscape="http://www.inkscape.org/namespaces/inkscape"
   xmlns:sodipodi="http://sodipodi.sourceforge.net/DTD/sodipodi-0.dtd"
   xmlns="http://www.w3.org/2000/svg"
   xmlns:svg="http://www.w3.org/2000/svg">
  <sodipodi:namedview
     id="namedview12"
     pagecolor="#505050"
     bordercolor="#ffffff"
     borderopacity="1"
     inkscape:showpageshadow="0"
     inkscape:pageopacity="0"
     inkscape:pagecheckerboard="1"
     inkscape:deskcolor="#d1d1d1"
     inkscape:zoom="0.40928916"
     inkscape:cx="279.75332"
     inkscape:cy="487.43045"
     inkscape:window-width="1248"
     inkscape:window-height="806"
     inkscape:window-x="490"
     inkscape:window-y="174"
     inkscape:window-maximized="0"
     inkscape:current-layer="svg12" />
  <defs
     id="defs2">
    <radialGradient
       id="lorc-foot-trip-gradient-0">
      <stop
         offset="0%"
         stop-color="#830000"
         stop-opacity="1"
         id="stop1" />
      <stop
         offset="100%"
         stop-color="#000"
         stop-opacity="1"
         id="stop2" />
    </radialGradient>
  </defs>
  <path
     d="M0 0h512v512H0z"
     fill="url(#pattern)"
     id="path2" />
  <svg
     version="1.1"
     id="svg11">
    <defs
       id="defs6">
      <filter
         id="b"
         x="-0.023338979"
         width="1.046678"
         y="-0.023448784"
         height="1.0468976"
         color-interpolation-filters="sRGB">
        <feGaussianBlur
           stdDeviation="4.823"
           id="feGaussianBlur2" />
      </filter>
      <filter
         id="a"
         x="-0.012011281"
         width="1.0240226"
         y="-0.011988317"
         height="1.0239766"
         color-interpolation-filters="sRGB">
        <feGaussianBlur
           stdDeviation="2.55"
           id="feGaussianBlur3" />
      </filter>
      <filter
         id="c"
         x="-0.11244604"
         width="1.2248921"
         y="-0.082623731"
         height="1.1652475"
         color-interpolation-filters="sRGB">
        <feGaussianBlur
           stdDeviation="15.63"
           id="feGaussianBlur4" />
      </filter>
      <filter
         id="e"
         x="-0.23758603"
         width="1.4751721"
         y="-0.24869778"
         height="1.4973956"
         color-interpolation-filters="sRGB">
        <feGaussianBlur
           stdDeviation="18.7"
           id="feGaussianBlur5" />
      </filter>
      <filter
         id="d"
         x="-0.21301439"
         width="1.4260288"
         y="-0.15141701"
         height="1.302834"
         color-interpolation-filters="sRGB">
        <feGaussianBlur
           stdDeviation="18.7"
           id="feGaussianBlur6" />
      </filter>
    </defs>
    <path
       d="M196.6 1.207c-2.5 11.323-4.8 22.703-10.2 33.383-7-10.68-12.6-20.91-16.7-31.988L2.494 4.338C13 104.9 10.86 175.3 1.979 278.3L15.4 295.5l-9.494 6.3L2.6 462.7l1.019 45.9 112.681 3.1c3.6-16.1 6.5-32.5 13.2-47.3 4.5 14.4 5.7 29.4 7 44.4l160 .3c.8-6.1.7-8.1 2.3-14.4 5.1 4.5 7.8 9.5 10.6 14.5.8-10.1 3.9-19.8 7-29.5 4.8 9.2 6.7 19.4 8.8 29.5l185.2.4-4.6-78.2-21.4-8.2 21.3-4.9 5.8-395.47c-7-6.73-13.3-13.744-18-21.465l-15.1.114-2.1 20.321-1.4 47.23.8 84.87-8.6-97.14c9.3-16.86 2.2-39.69 5.7-55.239-92.1 1.696-184.1.685-276.2-.314z"
       overflow="visible"
       color="#000"
       fill="#ebc893"
       fill-rule="evenodd"
       stroke="#e0aa58"
       enable-background="accumulate"
       id="path6" />
    <path
       d="M196.6 1.203c-2.5 11.327-4.8 22.707-10.2 33.387-7-10.68-12.6-20.91-16.7-31.99L2.494 4.336C13 104.9 10.86 175.3 1.979 278.3L15.4 295.5l-9.494 6.3L2.6 462.7l1.019 45.9 112.681 3.1c.5-2.1-7.9-2.3-7.4-4.5L5.244 504.5l-.914-47.3 4.63-153.7 12.42-9-13.093-16.8C16.95 177.3 16.36 104 6.113 5.992l162.687.164c4 10.804 10.3 24.254 17.1 34.664 5.3-10.41 9.5-25.97 12-37.02 89.8.974 173.8 3.521 263.6 1.867 4.6 1.226 10.6.431 11.3-4.149-92.1 1.696-184.1.684-276.2-.315zm296.9.158l-15.1.116-.6 6.277 13.5-2.557c4.6 7.533 9.7 12.383 16.6 18.943l-4.6 389.06-19.9 9.9 4.1-.6 18.2-4.2 5.8-395.47c-7-6.73-13.3-13.748-18-21.469zm9.6 435.739l3.5 69.7-177.7.1c.4 2.1-4.1.2-3.7 2.3l185.2.4-4.6-78.2zm-370 25.1c-1 2.2-2.9.4-3.7 2.6 4.2 14 5.8 29.5 7.1 44l158 .3c1.9-5 .8-9.7 4.3-14.4 5.1 4.5 7.8 9.5 10.6 14.5.8-10.1 3.9-19.8 7-29.5 1.8 3.4 3.2 7 4.3 10.6-1.4-5.6-2.4-8.3-5.1-13.4-3 9.4-6.7 16.2-7.5 26-2.7-4.9-5.4-9.7-10.4-14.1-3.4 4.6-6.2 9.1-8 14l-147.6 3.4c-3.4-14.6-7.1-30.3-9-44z"
       overflow="visible"
       color="#000"
       opacity=".527"
       fill="#c87137"
       fill-rule="evenodd"
       filter="url(#a)"
       enable-background="accumulate"
       id="path7" />
    <path
       d="M200.1 16.1c-2.3 10.67-10.5 21.38-15.6 31.44-6.6-10.06-13.9-19.69-17.7-30.12L17.34 19.05C24.61 113.6 7.605 179.3 16.85 277l18.26 20.1L10.34 309l7.1 141.6.96 43.3 90.2 3.4c3.4-15.2 15-35.6 21.3-49.6 4.3 13.6 15.4 36.7 16.6 50.9l45.1.8 13.8-18.7 14.4 22.2 68.7-8.6c1.8-4.7 4.5-9.1 7.8-13.5 4.8 4.2 7.4 8.9 10 13.6.8-9.5 7.7-19.6 10.6-28.7 4.5 8.6 19.9 28.9 33.1 33.9l114.6 5.6 22.3-14.7 19.4 14.7-14.5-67.6-34.6-14.2 37.5-15.1 2.1-96.9-14.5-21.9 15.2-13.4 5.1-239.63c-5.2-21.09-11.8-24.89-16.9-20.22l-4.2 2.11 2 19.14.7 44.47-7.1 124.23-18.3-137.78c8.8-15.88-3.9-35.38-.6-50.02-67.1 1.24-140.4-13.332-202.8-3.28-14 2.25-23.7 21.31-36.9 24.48-4.3 1.03-13.9-23.45-18.4-23.5z"
       overflow="visible"
       enable-background="accumulate"
       filter="url(#b)"
       fill-rule="evenodd"
       fill="#f6e7d0"
       color="#000"
       id="path8" />
    <path
       d="M354 27.39l-70.3 96.91 46.4 97.6-56.2 43.6 33 74.4-30.2 63.2 69.8 48.8 31.6 29.5 31.6-13.3L365.9 335l55.5-36.5 2.1-146.1-56.9-101.83zM116.6 55.48L89.9 123.6s33.7 65.3 35.8 68.8c2.1 3.6-7 118-7 118l42.8 73.8s9.9-82.9 7.1-83.6c-2.8-.7-29.5-42.1-29.5-42.1l23.8-84.3-36.5-37.2z"
       color="#000"
       overflow="visible"
       fill="#f2dbb9"
       fill-rule="evenodd"
       filter="url(#c)"
       enable-background="accumulate"
       id="path9" />
    <path
       d="M39.33 172.1l-5.62 108.1L74.45 328 42.84 464.9l96.96-39.3 30.2 42.9 74.4-38.7-80.8-169.9-60.4-16.9z"
       color="#000"
       overflow="visible"
       fill="#eed3a4"
       fill-rule="evenodd"
       enable-background="accumulate"
       filter="url(#d)"
       id="path10" />
    <path
       d="M266.9 66.72L324.5 191 434 221.2l21.8-111.6-41.4-68.86z"
       color="#000"
       overflow="visible"
       fill="#eed3a4"
       fill-rule="evenodd"
       enable-background="accumulate"
       filter="url(#e)"
       id="path11" />
  </svg>
  <path
     id="path19"
     style="fill:#3e7474;fill-opacity:1;stroke-width:0.80167"
     d="m 207.5564,65.953616 c -0.89188,10.942367 6.57481,63.503294 12.40186,87.883534 L 232.3457,142.17026 C 223.81022,124.65247 209.42125,79.659631 207.5564,65.953616 Z m 88.09559,2.548722 -43.23151,47.410742 h -6.09798 c -1.10436,0.82746 -1.98957,1.91381 -2.57755,3.16222 -1.68606,4.35097 0.47455,9.24422 4.82569,10.92987 20.9513,8.1165 39.14975,13.00093 63.99802,38.43256 1.72836,1.78551 3.46629,3.603 5.24155,5.55655 0.24684,0.27146 0.49915,0.56032 0.74732,0.83585 1.93641,2.14915 3.90359,4.40939 5.8983,6.77119 0.80185,0.95497 1.61922,1.96044 2.43549,2.95841 0.7471,0.90704 1.50707,1.85973 2.26256,2.79783 5.84529,7.31408 12.05624,15.70815 18.7366,25.4584 2.63746,3.84899 7.89409,4.83005 11.74305,2.19255 3.7268,-2.56194 4.77666,-7.60325 2.37991,-11.43836 17.61521,-10.64777 35.55474,-19.51509 52.9961,-26.38688 l -0.33968,0.0164 C 399.74098,121.14993 355.0164,90.034578 295.65199,68.502338 Z M 169.44294,123.62925 c -0.8919,10.94237 3.12434,41.73829 8.95141,66.11851 l 4.49835,-4.02278 7.88909,-7.18294 c -8.53548,-17.51779 -19.47399,-41.20681 -21.33885,-54.91279 z m -46.18991,4.96156 c -0.89188,10.94237 7.878,71.38621 13.70504,95.76644 l 12.61802,-10.7425 c -8.53551,-17.51783 -24.4582,-71.31793 -26.32306,-85.02394 z m 121.13013,13.53416 -38.79079,37.75319 c -21.03401,19.65999 -42.36278,38.75976 -62.82041,57.71268 l 0.2738,-0.0371 c 2.15408,16.02764 11.22192,34.92815 24.66578,50.42268 13.44148,15.49454 31.09543,27.51989 49.71241,31.29493 l 4.75569,0.96554 1.06438,4.73305 c 6.99048,31.12856 32.24707,58.2938 65.52972,74.85376 30.95219,15.39993 68.48709,21.41507 103.16144,13.61651 -1.8222,-8.27317 -5.78555,-16.66611 -11.56395,-23.35436 -24.93971,-26.99845 -45.12057,-58.04547 -59.49761,-91.2784 -22.81773,-2.00094 -37.57263,6.90517 -57.02094,20.19831 l -8.45319,-12.36891 c 18.04699,-12.33521 35.85104,-22.89998 59.36378,-23.04349 -1.84941,-4.9703 -3.57234,-9.98023 -5.16126,-15.02675 -21.44446,-7.75607 -37.97277,-2.97892 -60.14199,4.80922 l -4.96569,-14.13325 c 14.87407,-5.22685 29.38744,-9.59983 44.85791,-9.40021 5.95236,0.0761 12.0471,0.83565 18.35779,2.47666 1.86148,-2.77778 3.79439,-5.53251 5.79536,-8.26379 -14.45079,-11.46937 -30.53117,-14.13696 -47.02782,-14.53058 l 0.35411,-14.97528 c 17.95239,0.42889 38.14067,3.80044 55.85981,17.69487 3.87887,-4.71426 8.00225,-9.31185 12.24127,-13.84298 -5.53305,-7.90356 -10.76171,-14.92501 -15.70819,-21.11444 -0.75548,-0.93811 -1.51545,-1.89078 -2.26256,-2.79783 -0.81628,-0.99797 -1.63366,-2.00345 -2.43548,-2.9584 -1.99471,-2.36182 -3.96189,-4.62205 -5.8983,-6.77121 -0.24817,-0.27553 -0.50049,-0.56439 -0.74732,-0.83585 -1.77526,-1.95354 -3.51319,-3.77103 -5.24156,-5.55654 -22.52386,-23.05265 -39.65703,-29.24432 -58.25619,-36.24207 z m -142.9466,66.04029 c -0.89188,10.94238 -1.04666,20.46736 4.78039,44.84761 l 11.69365,-10.28136 c -8.53549,-17.5178 -14.60919,-20.86026 -16.47404,-34.56625 z m 28.68855,41.22422 c -6.46138,6.09824 -12.80798,12.19174 -18.996,18.29398 7.02816,23.93445 24.85482,54.74983 53.65696,71.09655 l 25.69515,-13.56504 C 177.52313,318.44894 165.96696,308.82546 156.3967,297.7946 143.73042,283.1947 134.40361,266.17471 130.12511,249.38948 Z m -31.667555,60.61757 c 17.457785,40.71026 54.948755,88.45921 116.872655,104.35552 l -24.77695,-26.27572 c -59.40565,-15.20158 -87.00648,-72.93308 -92.095705,-78.0798 z m 92.163655,15.28409 2.48902,8.762 c 13.30273,46.82756 52.50443,82.54374 100.04862,100.39038 27.20845,10.21316 56.97274,14.45332 85.80214,11.69159 8.1449,-2.07149 12.55744,-8.90383 13.76475,-17.52812 -37.74474,7.85147 -77.50173,1.11208 -110.62645,-15.3685 -34.90117,-17.364 -62.77052,-45.77142 -72.29268,-80.47618 -6.66513,-1.75224 -13.08051,-4.29707 -19.1854,-7.47117 z" />
  <path
     style="fill:#eed3a4;fill-opacity:1;stroke:none;stroke-width:15;stroke-linecap:round;paint-order:stroke fill markers"
     d="m 461.52145,366.90333 c -22.92241,-37.37542 -52.25204,-68.34361 -97.73429,-83.15918 h 110.8674 l 44.29089,55.3117 z"
     id="path3"
     sodipodi:nodetypes="ccccc" />
</svg>
