<?xml version="1.0" encoding="UTF-8" standalone="no"?>
<svg
   viewBox="0 0 512 512"
   style="height: 512px; width: 512px;"
   version="1.1"
   id="svg12"
   sodipodi:docname="fangs.svg"
   inkscape:version="1.3.2 (091e20e, 2023-11-25)"
   xmlns:inkscape="http://www.inkscape.org/namespaces/inkscape"
   xmlns:sodipodi="http://sodipodi.sourceforge.net/DTD/sodipodi-0.dtd"
   xmlns="http://www.w3.org/2000/svg"
   xmlns:svg="http://www.w3.org/2000/svg">
  <sodipodi:namedview
     id="namedview12"
     pagecolor="#505050"
     bordercolor="#ffffff"
     borderopacity="1"
     inkscape:showpageshadow="0"
     inkscape:pageopacity="0"
     inkscape:pagecheckerboard="1"
     inkscape:deskcolor="#d1d1d1"
     inkscape:zoom="0.24320318"
     inkscape:cx="291.93698"
     inkscape:cy="168.58332"
     inkscape:window-width="1248"
     inkscape:window-height="406"
     inkscape:window-x="0"
     inkscape:window-y="38"
     inkscape:window-maximized="0"
     inkscape:current-layer="svg12" />
  <defs
     id="defs2">
    <radialGradient
       id="skoll-fangs-gradient-0">
      <stop
         offset="0%"
         stop-color="#830000"
         stop-opacity="1"
         id="stop1" />
      <stop
         offset="100%"
         stop-color="#000"
         stop-opacity="1"
         id="stop2" />
    </radialGradient>
  </defs>
  <path
     d="M0 0h512v512H0z"
     fill="url(#pattern)"
     id="path2" />
  <svg
     version="1.1"
     id="svg11">
    <defs
       id="defs6">
      <filter
         id="b"
         x="-0.023338979"
         width="1.046678"
         y="-0.023448784"
         height="1.0468976"
         color-interpolation-filters="sRGB">
        <feGaussianBlur
           stdDeviation="4.823"
           id="feGaussianBlur2" />
      </filter>
      <filter
         id="a"
         x="-0.012011281"
         width="1.0240226"
         y="-0.011988317"
         height="1.0239766"
         color-interpolation-filters="sRGB">
        <feGaussianBlur
           stdDeviation="2.55"
           id="feGaussianBlur3" />
      </filter>
      <filter
         id="c"
         x="-0.11244604"
         width="1.2248921"
         y="-0.082623731"
         height="1.1652475"
         color-interpolation-filters="sRGB">
        <feGaussianBlur
           stdDeviation="15.63"
           id="feGaussianBlur4" />
      </filter>
      <filter
         id="e"
         x="-0.23758603"
         width="1.4751721"
         y="-0.24869778"
         height="1.4973956"
         color-interpolation-filters="sRGB">
        <feGaussianBlur
           stdDeviation="18.7"
           id="feGaussianBlur5" />
      </filter>
      <filter
         id="d"
         x="-0.21301439"
         width="1.4260288"
         y="-0.15141701"
         height="1.302834"
         color-interpolation-filters="sRGB">
        <feGaussianBlur
           stdDeviation="18.7"
           id="feGaussianBlur6" />
      </filter>
    </defs>
    <path
       d="M196.6 1.207c-2.5 11.323-4.8 22.703-10.2 33.383-7-10.68-12.6-20.91-16.7-31.988L2.494 4.338C13 104.9 10.86 175.3 1.979 278.3L15.4 295.5l-9.494 6.3L2.6 462.7l1.019 45.9 112.681 3.1c3.6-16.1 6.5-32.5 13.2-47.3 4.5 14.4 5.7 29.4 7 44.4l160 .3c.8-6.1.7-8.1 2.3-14.4 5.1 4.5 7.8 9.5 10.6 14.5.8-10.1 3.9-19.8 7-29.5 4.8 9.2 6.7 19.4 8.8 29.5l185.2.4-4.6-78.2-21.4-8.2 21.3-4.9 5.8-395.47c-7-6.73-13.3-13.744-18-21.465l-15.1.114-2.1 20.321-1.4 47.23.8 84.87-8.6-97.14c9.3-16.86 2.2-39.69 5.7-55.239-92.1 1.696-184.1.685-276.2-.314z"
       overflow="visible"
       color="#000"
       fill="#ebc893"
       fill-rule="evenodd"
       stroke="#e0aa58"
       enable-background="accumulate"
       id="path6" />
    <path
       d="M196.6 1.203c-2.5 11.327-4.8 22.707-10.2 33.387-7-10.68-12.6-20.91-16.7-31.99L2.494 4.336C13 104.9 10.86 175.3 1.979 278.3L15.4 295.5l-9.494 6.3L2.6 462.7l1.019 45.9 112.681 3.1c.5-2.1-7.9-2.3-7.4-4.5L5.244 504.5l-.914-47.3 4.63-153.7 12.42-9-13.093-16.8C16.95 177.3 16.36 104 6.113 5.992l162.687.164c4 10.804 10.3 24.254 17.1 34.664 5.3-10.41 9.5-25.97 12-37.02 89.8.974 173.8 3.521 263.6 1.867 4.6 1.226 10.6.431 11.3-4.149-92.1 1.696-184.1.684-276.2-.315zm296.9.158l-15.1.116-.6 6.277 13.5-2.557c4.6 7.533 9.7 12.383 16.6 18.943l-4.6 389.06-19.9 9.9 4.1-.6 18.2-4.2 5.8-395.47c-7-6.73-13.3-13.748-18-21.469zm9.6 435.739l3.5 69.7-177.7.1c.4 2.1-4.1.2-3.7 2.3l185.2.4-4.6-78.2zm-370 25.1c-1 2.2-2.9.4-3.7 2.6 4.2 14 5.8 29.5 7.1 44l158 .3c1.9-5 .8-9.7 4.3-14.4 5.1 4.5 7.8 9.5 10.6 14.5.8-10.1 3.9-19.8 7-29.5 1.8 3.4 3.2 7 4.3 10.6-1.4-5.6-2.4-8.3-5.1-13.4-3 9.4-6.7 16.2-7.5 26-2.7-4.9-5.4-9.7-10.4-14.1-3.4 4.6-6.2 9.1-8 14l-147.6 3.4c-3.4-14.6-7.1-30.3-9-44z"
       overflow="visible"
       color="#000"
       opacity=".527"
       fill="#c87137"
       fill-rule="evenodd"
       filter="url(#a)"
       enable-background="accumulate"
       id="path7" />
    <path
       d="M200.1 16.1c-2.3 10.67-10.5 21.38-15.6 31.44-6.6-10.06-13.9-19.69-17.7-30.12L17.34 19.05C24.61 113.6 7.605 179.3 16.85 277l18.26 20.1L10.34 309l7.1 141.6.96 43.3 90.2 3.4c3.4-15.2 15-35.6 21.3-49.6 4.3 13.6 15.4 36.7 16.6 50.9l45.1.8 13.8-18.7 14.4 22.2 68.7-8.6c1.8-4.7 4.5-9.1 7.8-13.5 4.8 4.2 7.4 8.9 10 13.6.8-9.5 7.7-19.6 10.6-28.7 4.5 8.6 19.9 28.9 33.1 33.9l114.6 5.6 22.3-14.7 19.4 14.7-14.5-67.6-34.6-14.2 37.5-15.1 2.1-96.9-14.5-21.9 15.2-13.4 5.1-239.63c-5.2-21.09-11.8-24.89-16.9-20.22l-4.2 2.11 2 19.14.7 44.47-7.1 124.23-18.3-137.78c8.8-15.88-3.9-35.38-.6-50.02-67.1 1.24-140.4-13.332-202.8-3.28-14 2.25-23.7 21.31-36.9 24.48-4.3 1.03-13.9-23.45-18.4-23.5z"
       overflow="visible"
       enable-background="accumulate"
       filter="url(#b)"
       fill-rule="evenodd"
       fill="#f6e7d0"
       color="#000"
       id="path8" />
    <path
       d="M354 27.39l-70.3 96.91 46.4 97.6-56.2 43.6 33 74.4-30.2 63.2 69.8 48.8 31.6 29.5 31.6-13.3L365.9 335l55.5-36.5 2.1-146.1-56.9-101.83zM116.6 55.48L89.9 123.6s33.7 65.3 35.8 68.8c2.1 3.6-7 118-7 118l42.8 73.8s9.9-82.9 7.1-83.6c-2.8-.7-29.5-42.1-29.5-42.1l23.8-84.3-36.5-37.2z"
       color="#000"
       overflow="visible"
       fill="#f2dbb9"
       fill-rule="evenodd"
       filter="url(#c)"
       enable-background="accumulate"
       id="path9" />
    <path
       d="M39.33 172.1l-5.62 108.1L74.45 328 42.84 464.9l96.96-39.3 30.2 42.9 74.4-38.7-80.8-169.9-60.4-16.9z"
       color="#000"
       overflow="visible"
       fill="#eed3a4"
       fill-rule="evenodd"
       enable-background="accumulate"
       filter="url(#d)"
       id="path10" />
    <path
       d="M266.9 66.72L324.5 191 434 221.2l21.8-111.6-41.4-68.86z"
       color="#000"
       overflow="visible"
       fill="#eed3a4"
       fill-rule="evenodd"
       enable-background="accumulate"
       filter="url(#e)"
       id="path11" />
  </svg>
  <path
     d="m 192.81421,145.61262 c -1.39185,-10.70877 -20.84365,-22.50025 -30.38984,-22.50025 -1.87847,0 -3.37237,0.45261 -4.26945,1.45988 -16.12972,18.03408 10.52018,60.0978 10.52018,60.0978 0,0 26.43617,-21.28812 24.13911,-39.05743 z m 95.27848,44.76089 c 0,0 25.37786,-40.07358 10.01654,-57.21205 -0.85419,-0.95551 -2.28005,-1.39037 -4.0646,-1.39037 -9.10245,0 -27.62389,11.22868 -28.9477,21.43233 -2.19426,16.84709 22.99576,37.17009 22.99576,37.17009 z m -39.73191,-37.23812 c -1.32381,-10.2044 -19.85338,-21.43234 -28.94622,-21.43234 -1.78529,0 -3.21189,0.43486 -4.06534,1.39037 -15.36945,17.17249 10.01655,57.21205 10.01655,57.21205 0,0 25.18927,-20.25422 22.99575,-37.17008 z M 110.39661,110.68783 a 12.235214,12.235214 0 0 0 -1.23062,0.0592 c -64.89604,6.60941 8.41097,211.55442 29.98899,225.18296 0,0 -12.56061,-112.14331 2.06706,-180.6262 5.35291,-25.22403 -17.75378,-44.61593 -30.82691,-44.61593 z m 293.89511,0.0592 a 12.176789,12.176789 0 0 0 -1.22988,-0.0592 c -13.07387,0 -36.21458,19.37489 -30.82617,44.61593 14.62694,68.48289 2.06632,180.6262 2.06632,180.6262 21.61204,-13.61966 94.8939,-218.56468 29.98899,-225.18223 z m -53.25764,12.36537 c -9.55507,0 -29.03349,11.79222 -30.39132,22.50025 -2.29706,17.72716 24.14798,39.06557 24.14798,39.06557 0,0 26.64177,-42.07186 10.52019,-60.09632 -0.90522,-1.01689 -2.39912,-1.4695 -4.27759,-1.4695 z M 241.35792,381.20262 c -1.50277,-8.40875 -18.93115,-26.14552 -18.93115,-26.14552 0,0 -15.19048,17.72715 -15.02778,24.943 0,1.58783 -0.85418,17.07783 1.5013,19.22846 2.12696,1.95612 9.4959,2.99002 16.72876,2.99002 7.00211,0 13.86667,-0.96512 15.72887,-2.98928 1.70838,-1.82671 0.24776,-16.81233 0,-18.0252 z m -44.40294,-18.00819 c -8.92274,-15.30141 -14.16619,-37.72475 -17.07782,-54.52968 -2.28819,-13.28686 -3.09874,-23.05492 -3.09874,-23.05492 -11.18727,8.73416 -32.75642,101.81837 1.87847,101.81837 a 22.238448,22.238448 0 0 0 3.66228,-0.31653 c 3.41675,-0.56354 7.73576,-3.17639 11.10074,-6.83054 4.38926,-4.75534 6.99324,-11.21906 3.53507,-17.08596 z m 139.66515,-77.60161 c 0,0 -0.74399,8.89686 -2.7933,21.25336 -2.81771,16.9839 -8.12033,40.48329 -17.36848,56.35712 -2.78368,4.78197 -1.57969,9.92263 1.28979,14.2261 3.41527,5.07336 9.10246,8.97452 13.33789,9.67487 1.20992,0.20634 2.43536,0.31136 3.66302,0.3158 34.69405,-0.034 13.07313,-93.1175 1.89549,-101.86201 z m -30.62205,94.4413 c 0.1627,-7.21585 -15.02778,-24.94227 -15.02778,-24.94227 0,0 -17.40323,17.70128 -18.87199,26.11151 -0.18785,1.06792 -1.89548,15.96849 0,18.03481 1.89622,2.06632 8.73563,2.98781 15.72887,2.98781 7.23286,0 14.6018,-1.03242 16.72876,-2.98781 3.24443,-3.02331 1.45101,-18.70041 1.46802,-19.22993 z"
     fill="#3e3126"
     fill-opacity="1"
     id="path12"
     style="fill:#3e7474;fill-opacity:1;stroke-width:0.739556" />
</svg>
