<?xml version="1.0" encoding="UTF-8" standalone="no"?>
<svg
   viewBox="0 0 512 512"
   style="height: 512px; width: 512px;"
   version="1.1"
   id="svg12"
   sodipodi:docname="sword-slash copy.svg"
   inkscape:version="1.4 (e7c3feb1, 2024-10-09)"
   xml:space="preserve"
   xmlns:inkscape="http://www.inkscape.org/namespaces/inkscape"
   xmlns:sodipodi="http://sodipodi.sourceforge.net/DTD/sodipodi-0.dtd"
   xmlns="http://www.w3.org/2000/svg"
   xmlns:svg="http://www.w3.org/2000/svg"><sodipodi:namedview
     id="namedview12"
     pagecolor="#505050"
     bordercolor="#ffffff"
     borderopacity="1"
     inkscape:showpageshadow="0"
     inkscape:pageopacity="0"
     inkscape:pagecheckerboard="1"
     inkscape:deskcolor="#d1d1d1"
     inkscape:zoom="0.12442479"
     inkscape:cx="-405.86768"
     inkscape:cy="502.31148"
     inkscape:window-width="992"
     inkscape:window-height="644"
     inkscape:window-x="0"
     inkscape:window-y="38"
     inkscape:window-maximized="0"
     inkscape:current-layer="svg12" /><defs
     id="defs2"><radialGradient
       id="delapouite-viking-shield-gradient-0"><stop
         offset="0%"
         stop-color="#830000"
         stop-opacity="1"
         id="stop1" /><stop
         offset="100%"
         stop-color="#000"
         stop-opacity="1"
         id="stop2" /></radialGradient></defs><path
     d="M0 0h512v512H0z"
     fill="url(#pattern)"
     id="path2" /><svg
     version="1.1"
     id="svg11"><defs
       id="defs6"><filter
         id="b"
         x="-0.023338979"
         width="1.046678"
         y="-0.023448784"
         height="1.0468976"
         color-interpolation-filters="sRGB"><feGaussianBlur
           stdDeviation="4.823"
           id="feGaussianBlur2" /></filter><filter
         id="a"
         x="-0.012011281"
         width="1.0240226"
         y="-0.011988317"
         height="1.0239766"
         color-interpolation-filters="sRGB"><feGaussianBlur
           stdDeviation="2.55"
           id="feGaussianBlur3" /></filter><filter
         id="c"
         x="-0.11244604"
         width="1.2248921"
         y="-0.082623731"
         height="1.1652475"
         color-interpolation-filters="sRGB"><feGaussianBlur
           stdDeviation="15.63"
           id="feGaussianBlur4" /></filter><filter
         id="e"
         x="-0.23758603"
         width="1.4751721"
         y="-0.24869778"
         height="1.4973956"
         color-interpolation-filters="sRGB"><feGaussianBlur
           stdDeviation="18.7"
           id="feGaussianBlur5" /></filter><filter
         id="d"
         x="-0.21301439"
         width="1.4260288"
         y="-0.15141701"
         height="1.302834"
         color-interpolation-filters="sRGB"><feGaussianBlur
           stdDeviation="18.7"
           id="feGaussianBlur6" /></filter></defs><path
       d="M196.6 1.207c-2.5 11.323-4.8 22.703-10.2 33.383-7-10.68-12.6-20.91-16.7-31.988L2.494 4.338C13 104.9 10.86 175.3 1.979 278.3L15.4 295.5l-9.494 6.3L2.6 462.7l1.019 45.9 112.681 3.1c3.6-16.1 6.5-32.5 13.2-47.3 4.5 14.4 5.7 29.4 7 44.4l160 .3c.8-6.1.7-8.1 2.3-14.4 5.1 4.5 7.8 9.5 10.6 14.5.8-10.1 3.9-19.8 7-29.5 4.8 9.2 6.7 19.4 8.8 29.5l185.2.4-4.6-78.2-21.4-8.2 21.3-4.9 5.8-395.47c-7-6.73-13.3-13.744-18-21.465l-15.1.114-2.1 20.321-1.4 47.23.8 84.87-8.6-97.14c9.3-16.86 2.2-39.69 5.7-55.239-92.1 1.696-184.1.685-276.2-.314z"
       overflow="visible"
       color="#000"
       fill="#ebc893"
       fill-rule="evenodd"
       stroke="#e0aa58"
       enable-background="accumulate"
       id="path6" /><path
       d="M196.6 1.203c-2.5 11.327-4.8 22.707-10.2 33.387-7-10.68-12.6-20.91-16.7-31.99L2.494 4.336C13 104.9 10.86 175.3 1.979 278.3L15.4 295.5l-9.494 6.3L2.6 462.7l1.019 45.9 112.681 3.1c.5-2.1-7.9-2.3-7.4-4.5L5.244 504.5l-.914-47.3 4.63-153.7 12.42-9-13.093-16.8C16.95 177.3 16.36 104 6.113 5.992l162.687.164c4 10.804 10.3 24.254 17.1 34.664 5.3-10.41 9.5-25.97 12-37.02 89.8.974 173.8 3.521 263.6 1.867 4.6 1.226 10.6.431 11.3-4.149-92.1 1.696-184.1.684-276.2-.315zm296.9.158l-15.1.116-.6 6.277 13.5-2.557c4.6 7.533 9.7 12.383 16.6 18.943l-4.6 389.06-19.9 9.9 4.1-.6 18.2-4.2 5.8-395.47c-7-6.73-13.3-13.748-18-21.469zm9.6 435.739l3.5 69.7-177.7.1c.4 2.1-4.1.2-3.7 2.3l185.2.4-4.6-78.2zm-370 25.1c-1 2.2-2.9.4-3.7 2.6 4.2 14 5.8 29.5 7.1 44l158 .3c1.9-5 .8-9.7 4.3-14.4 5.1 4.5 7.8 9.5 10.6 14.5.8-10.1 3.9-19.8 7-29.5 1.8 3.4 3.2 7 4.3 10.6-1.4-5.6-2.4-8.3-5.1-13.4-3 9.4-6.7 16.2-7.5 26-2.7-4.9-5.4-9.7-10.4-14.1-3.4 4.6-6.2 9.1-8 14l-147.6 3.4c-3.4-14.6-7.1-30.3-9-44z"
       overflow="visible"
       color="#000"
       opacity=".527"
       fill="#c87137"
       fill-rule="evenodd"
       filter="url(#a)"
       enable-background="accumulate"
       id="path7" /><path
       d="M200.1 16.1c-2.3 10.67-10.5 21.38-15.6 31.44-6.6-10.06-13.9-19.69-17.7-30.12L17.34 19.05C24.61 113.6 7.605 179.3 16.85 277l18.26 20.1L10.34 309l7.1 141.6.96 43.3 90.2 3.4c3.4-15.2 15-35.6 21.3-49.6 4.3 13.6 15.4 36.7 16.6 50.9l45.1.8 13.8-18.7 14.4 22.2 68.7-8.6c1.8-4.7 4.5-9.1 7.8-13.5 4.8 4.2 7.4 8.9 10 13.6.8-9.5 7.7-19.6 10.6-28.7 4.5 8.6 19.9 28.9 33.1 33.9l114.6 5.6 22.3-14.7 19.4 14.7-14.5-67.6-34.6-14.2 37.5-15.1 2.1-96.9-14.5-21.9 15.2-13.4 5.1-239.63c-5.2-21.09-11.8-24.89-16.9-20.22l-4.2 2.11 2 19.14.7 44.47-7.1 124.23-18.3-137.78c8.8-15.88-3.9-35.38-.6-50.02-67.1 1.24-140.4-13.332-202.8-3.28-14 2.25-23.7 21.31-36.9 24.48-4.3 1.03-13.9-23.45-18.4-23.5z"
       overflow="visible"
       enable-background="accumulate"
       filter="url(#b)"
       fill-rule="evenodd"
       fill="#f6e7d0"
       color="#000"
       id="path8" /><path
       d="M354 27.39l-70.3 96.91 46.4 97.6-56.2 43.6 33 74.4-30.2 63.2 69.8 48.8 31.6 29.5 31.6-13.3L365.9 335l55.5-36.5 2.1-146.1-56.9-101.83zM116.6 55.48L89.9 123.6s33.7 65.3 35.8 68.8c2.1 3.6-7 118-7 118l42.8 73.8s9.9-82.9 7.1-83.6c-2.8-.7-29.5-42.1-29.5-42.1l23.8-84.3-36.5-37.2z"
       color="#000"
       overflow="visible"
       fill="#f2dbb9"
       fill-rule="evenodd"
       filter="url(#c)"
       enable-background="accumulate"
       id="path9" /><path
       d="M39.33 172.1l-5.62 108.1L74.45 328 42.84 464.9l96.96-39.3 30.2 42.9 74.4-38.7-80.8-169.9-60.4-16.9z"
       color="#000"
       overflow="visible"
       fill="#eed3a4"
       fill-rule="evenodd"
       enable-background="accumulate"
       filter="url(#d)"
       id="path10" /><path
       d="M266.9 66.72L324.5 191 434 221.2l21.8-111.6-41.4-68.86z"
       color="#000"
       overflow="visible"
       fill="#eed3a4"
       fill-rule="evenodd"
       enable-background="accumulate"
       filter="url(#e)"
       id="path11" /></svg><path
     id="path1"
     style="fill:#3e7474;fill-opacity:1;stroke-width:0.758045"
     d="m 316.92203,90.599609 c -3.81949,-0.0078 -7.61221,0.345846 -10.3125,1.064453 -21.58311,5.743742 -34.81364,27.179038 -30.2832,49.064458 2.97018,14.34828 15.33955,27.4179 29.57422,31.24609 5.61587,1.51029 16.82391,1.49675 21.95117,-0.0254 13.84826,-4.11111 23.85449,-13.66825 28.35937,-27.08789 2.58712,-7.70706 2.6599,-18.26813 0.17578,-25.55469 -4.68528,-13.74347 -15.56944,-24.101882 -28.99804,-27.599609 -2.802,-0.7298 -6.6473,-1.099646 -10.4668,-1.107422 z m -76.76172,29.667971 c -5.81676,0.13429 -11.60622,1.48831 -19.875,4.11914 -14.01769,4.45991 -41.63784,19.16871 -53.21484,28.33789 -3.96482,3.14019 -6.04823,7.25831 -6.01367,11.88867 0.0149,1.997 3.54528,18.73293 7.8457,37.18945 l 7.81836,33.5586 -1.92969,0.48437 c -1.06225,0.2666 -2.04035,0.17347 -2.17383,-0.20508 -0.74298,-2.10743 -3.81025,-6.71988 -4.93359,-7.41992 -2.00301,-1.24823 -3.17332,0.48772 -3.61523,5.36328 l -0.38477,4.25391 -15.16211,3.30078 c -25.09574,5.46519 -50.700796,11.456 -75.406249,17.58789 L 59.400547,262.25 v 11.64258 l 13.714844,-3.96875 c 0.120981,-0.0299 0.240333,-0.0619 0.361328,-0.0918 38.960591,-9.60974 91.625961,-20.82521 92.708981,-19.74219 0.25754,0.25754 1.33548,2.22773 2.39453,4.37696 3.61571,7.33744 6.23488,6.74563 6.85352,-1.54688 0.35181,-4.7152 0.50595,-5.08008 2.1543,-5.08008 1.36145,0 1.99467,0.63967 2.71679,2.74024 2.36358,6.87505 7.32718,10.52539 14.31055,10.52539 h 4.08398 l -12.12304,32.11523 -12.1211,32.11524 -5.38671,0.47461 c -2.9621,0.26101 -12.54931,1.14477 -21.30469,1.96289 -22.52634,2.10491 -48.664448,3.79855 -74.648439,5.10937 l -13.714844,0.20313 v 11.2207 l 13.714844,-0.77344 c 7.236592,-0.44189 14.699113,-0.88067 20.828125,-1.34765 C 226.2555,332.10467 348.25651,309.59134 454.06656,276.35156 v -5.76367 c -23.36111,7.16319 -47.15284,13.66259 -71.11719,19.31055 l -10.41992,2.45703 -3.51758,-3.91406 c -1.93465,-2.15182 -4.75165,-4.53648 -6.25781,-5.29883 -1.50615,-0.76235 -15.18855,-5.91341 -30.40625,-11.44727 -15.21766,-5.53382 -27.82304,-10.19118 -28.01172,-10.35156 -0.18875,-0.16036 0.22198,-2.39884 0.91211,-4.97461 0.69012,-2.57575 1.18406,-4.75131 1.09961,-4.83398 -0.0845,-0.0827 -22.49625,1.00452 -49.80468,2.41796 -55.53004,2.87419 -58.87951,2.96676 -63.0254,1.72461 -4.15906,-1.24603 -8.89329,-5.58802 -10.98046,-10.07031 -5.58648,-11.99712 2.33112,-25.54366 15.63476,-26.75 2.84759,-0.25821 4.55078,-0.75909 4.55078,-1.33789 0,-0.50849 -2.37921,-11.11157 -5.28515,-23.56445 -3.98071,-17.05866 -5.05412,-22.78807 -4.35743,-23.23047 11.37753,-7.22401 34.73237,-18.95511 35.73633,-17.95117 0.17177,0.17177 -2.18184,9.69294 -5.23047,21.1582 -3.0486,11.46526 -6.92276,26.0757 -8.60742,32.46875 l -3.0625,11.625 8.85742,-0.48828 c 4.87216,-0.26753 24.86311,-1.30805 44.42383,-2.3125 19.56073,-1.00443 35.82289,-2.09151 36.13672,-2.41797 0.73606,-0.7656 4.48242,-13.74848 4.48242,-15.5332 0,-1.01583 0.59694,-1.35938 2.35938,-1.35938 2.30052,0 2.34483,0.0668 1.84179,2.74805 -0.58536,3.12026 -3.68675,14.00957 -4.88476,17.15039 -0.71317,1.86974 -1.16969,2.08488 -4.41602,2.09375 -1.99073,0.005 -26.36542,1.18174 -54.16797,2.61328 -45.49475,2.3425 -50.84078,2.75178 -53.44335,4.08008 -5.13596,2.62124 -7.81836,7.05419 -7.81836,12.91992 0,4.70376 0.76626,6.76119 3.81054,10.22852 4.59525,5.23367 2.39154,5.17297 68.20313,1.87695 32.31151,-1.61825 60.03315,-3.29454 61.60351,-3.72461 3.84579,-1.05325 7.61848,-4.51568 9.66602,-8.87109 2.57439,-5.47626 8.06866,-22.45285 9.80859,-30.31055 0.85363,-3.85518 1.9526,-11.19014 2.44336,-16.29883 0.49068,-5.10868 0.96375,-9.39076 1.05078,-9.51758 0.0871,-0.12683 10.17418,-2.5693 22.41602,-5.42578 39.48546,-9.21335 42.47066,-9.98464 42.11719,-10.90625 -0.18406,-0.4798 -0.78227,-2.86911 -1.32813,-5.30859 -0.5458,-2.43947 -1.3871,-4.58652 -1.86914,-4.77149 -0.48196,-0.18498 -7.15565,1.33674 -14.83203,3.38282 -7.67645,2.04605 -20.70505,5.33372 -28.95117,7.30468 -11.62708,2.77907 -15.93884,4.15307 -19.20703,6.1211 -16.76979,10.09826 -39.30783,7.90921 -53.80664,-5.22656 -9.39259,-8.50961 -14.56251,-19.49887 -15.27735,-32.47266 -0.22507,-4.08402 -0.50375,-7.42578 -0.62109,-7.42578 -0.11727,0 -4.75975,-1.21764 -10.31446,-2.70703 -8.37837,-2.24649 -14.22225,-3.33352 -20.03906,-3.19922 z m -30.12304,74.50586 c -2.62602,0.31716 -7.30939,1.56557 -7.29688,2.16211 0.0211,0.99663 1.36963,7.2207 1.87305,8.64453 0.37,1.04646 2.53715,1.24234 3.93164,0.35547 0.87903,-0.55905 3.74585,-10.57198 3.18164,-11.11133 -0.1678,-0.16041 -0.81415,-0.15653 -1.68945,-0.0508 z m -45.63672,7.16211 c -0.17104,-0.29234 -17.4008,1.63158 -20.53516,2.29297 -0.0596,0.0126 -0.32342,0.58344 -0.58594,1.26757 -0.66669,1.73739 1.48985,4.73377 4.35157,6.04493 1.8077,0.82821 4.36202,1.01059 10.26562,0.73437 4.32236,-0.20223 8.04499,-0.55279 8.27149,-0.7793 0.36444,-0.36447 -1.13647,-8.48189 -1.76758,-9.56054 z m 75.73828,78.73437 c 0.43295,-0.11581 1.04956,0.54661 2.14062,2.19531 1.0568,1.59694 3.26281,3.83198 4.90039,4.9668 1.6376,1.13485 13.66067,5.96945 26.71875,10.74414 13.05803,4.77473 23.85965,8.79911 24.00391,8.94336 0.34203,0.3421 -28.66092,5.2258 -50.83398,8.56055 -20.48222,3.08043 -21.97591,3.17385 -21.25,1.31054 0.28427,-0.72957 3.40221,-8.96624 6.92773,-18.30273 3.5255,-9.33649 6.68053,-17.45896 7.01172,-18.05078 0.11398,-0.20368 0.23654,-0.3286 0.38086,-0.36719 z m 132.13476,31.48047 c -0.14584,-0.14588 -8.59025,1.75359 -18.76757,4.2207 -10.1773,2.46715 -22.08716,5.25296 -26.46485,6.19141 -4.37768,0.93846 -8.2478,1.95664 -8.59961,2.26172 -0.35189,0.30508 -7.60252,16.84159 -16.11328,36.74609 -10.72089,25.07352 -15.61647,37.39923 -15.9375,40.13086 -1.17391,9.98786 5.24474,19.82264 15.41016,23.61133 1.82181,0.67899 4.84583,0.973 8.23633,0.80273 6.39702,-0.32127 11.96018,-2.97769 15.91796,-7.60156 1.83925,-2.14879 8.61415,-17.18977 24.5625,-54.5332 12.11206,-28.36073 21.90171,-51.6842 21.75586,-51.83008 z M 215.30875,343.9375 c -0.19422,-0.1942 -9.16106,0.87279 -19.92578,2.36914 -22.88594,3.18126 -38.37506,5.13339 -55.19922,6.96094 l -12.12891,1.31836 -23.45117,14.47265 c -13.381142,8.25776 -24.836247,15.86399 -26.675779,17.71485 -11.834727,11.90751 -6.190814,32.31767 10.330078,37.36133 3.317461,1.01275 9.352272,0.7024 13.265621,-0.68165 2.08463,-0.73724 13.68268,-7.50963 25.77344,-15.05078 12.09077,-7.54112 34.43468,-21.40774 49.65234,-30.81445 15.84831,-9.7965 29.31354,-18.65838 31.52149,-20.74219 2.75383,-2.59887 4.3321,-4.91068 5.52344,-8.0957 0.91724,-2.45213 1.50858,-4.61831 1.31445,-4.8125 z" /></svg>
