<?xml version="1.0" encoding="UTF-8" standalone="no"?>
<svg
   viewBox="0 0 512 512"
   style="height: 512px; width: 512px;"
   version="1.1"
   id="svg12"
   sodipodi:docname="cat--bastet.svg"
   inkscape:version="1.4 (e7c3feb1, 2024-10-09)"
   xmlns:inkscape="http://www.inkscape.org/namespaces/inkscape"
   xmlns:sodipodi="http://sodipodi.sourceforge.net/DTD/sodipodi-0.dtd"
   xmlns="http://www.w3.org/2000/svg"
   xmlns:svg="http://www.w3.org/2000/svg">
  <sodipodi:namedview
     id="namedview12"
     pagecolor="#505050"
     bordercolor="#ffffff"
     borderopacity="1"
     inkscape:showpageshadow="0"
     inkscape:pageopacity="0"
     inkscape:pagecheckerboard="1"
     inkscape:deskcolor="#d1d1d1"
     inkscape:zoom="0.4609375"
     inkscape:cx="257.08475"
     inkscape:cy="257.08475"
     inkscape:window-width="1248"
     inkscape:window-height="514"
     inkscape:window-x="0"
     inkscape:window-y="38"
     inkscape:window-maximized="0"
     inkscape:current-layer="svg12" />
  <defs
     id="defs2">
    <radialGradient
       id="delapouite-bastet-gradient-0">
      <stop
         offset="0%"
         stop-color="#830000"
         stop-opacity="1"
         id="stop1" />
      <stop
         offset="100%"
         stop-color="#000"
         stop-opacity="1"
         id="stop2" />
    </radialGradient>
  </defs>
  <path
     d="M0 0h512v512H0z"
     fill="url(#pattern)"
     id="path2" />
  <svg
     version="1.1"
     id="svg11">
    <defs
       id="defs6">
      <filter
         id="b"
         x="-0.023338979"
         width="1.046678"
         y="-0.023448784"
         height="1.0468976"
         color-interpolation-filters="sRGB">
        <feGaussianBlur
           stdDeviation="4.823"
           id="feGaussianBlur2" />
      </filter>
      <filter
         id="a"
         x="-0.012011281"
         width="1.0240226"
         y="-0.011988317"
         height="1.0239766"
         color-interpolation-filters="sRGB">
        <feGaussianBlur
           stdDeviation="2.55"
           id="feGaussianBlur3" />
      </filter>
      <filter
         id="c"
         x="-0.11244604"
         width="1.2248921"
         y="-0.082623731"
         height="1.1652475"
         color-interpolation-filters="sRGB">
        <feGaussianBlur
           stdDeviation="15.63"
           id="feGaussianBlur4" />
      </filter>
      <filter
         id="e"
         x="-0.23758603"
         width="1.4751721"
         y="-0.24869778"
         height="1.4973956"
         color-interpolation-filters="sRGB">
        <feGaussianBlur
           stdDeviation="18.7"
           id="feGaussianBlur5" />
      </filter>
      <filter
         id="d"
         x="-0.21301439"
         width="1.4260288"
         y="-0.15141701"
         height="1.302834"
         color-interpolation-filters="sRGB">
        <feGaussianBlur
           stdDeviation="18.7"
           id="feGaussianBlur6" />
      </filter>
    </defs>
    <path
       d="M196.6 1.207c-2.5 11.323-4.8 22.703-10.2 33.383-7-10.68-12.6-20.91-16.7-31.988L2.494 4.338C13 104.9 10.86 175.3 1.979 278.3L15.4 295.5l-9.494 6.3L2.6 462.7l1.019 45.9 112.681 3.1c3.6-16.1 6.5-32.5 13.2-47.3 4.5 14.4 5.7 29.4 7 44.4l160 .3c.8-6.1.7-8.1 2.3-14.4 5.1 4.5 7.8 9.5 10.6 14.5.8-10.1 3.9-19.8 7-29.5 4.8 9.2 6.7 19.4 8.8 29.5l185.2.4-4.6-78.2-21.4-8.2 21.3-4.9 5.8-395.47c-7-6.73-13.3-13.744-18-21.465l-15.1.114-2.1 20.321-1.4 47.23.8 84.87-8.6-97.14c9.3-16.86 2.2-39.69 5.7-55.239-92.1 1.696-184.1.685-276.2-.314z"
       overflow="visible"
       color="#000"
       fill="#ebc893"
       fill-rule="evenodd"
       stroke="#e0aa58"
       enable-background="accumulate"
       id="path6" />
    <path
       d="M196.6 1.203c-2.5 11.327-4.8 22.707-10.2 33.387-7-10.68-12.6-20.91-16.7-31.99L2.494 4.336C13 104.9 10.86 175.3 1.979 278.3L15.4 295.5l-9.494 6.3L2.6 462.7l1.019 45.9 112.681 3.1c.5-2.1-7.9-2.3-7.4-4.5L5.244 504.5l-.914-47.3 4.63-153.7 12.42-9-13.093-16.8C16.95 177.3 16.36 104 6.113 5.992l162.687.164c4 10.804 10.3 24.254 17.1 34.664 5.3-10.41 9.5-25.97 12-37.02 89.8.974 173.8 3.521 263.6 1.867 4.6 1.226 10.6.431 11.3-4.149-92.1 1.696-184.1.684-276.2-.315zm296.9.158l-15.1.116-.6 6.277 13.5-2.557c4.6 7.533 9.7 12.383 16.6 18.943l-4.6 389.06-19.9 9.9 4.1-.6 18.2-4.2 5.8-395.47c-7-6.73-13.3-13.748-18-21.469zm9.6 435.739l3.5 69.7-177.7.1c.4 2.1-4.1.2-3.7 2.3l185.2.4-4.6-78.2zm-370 25.1c-1 2.2-2.9.4-3.7 2.6 4.2 14 5.8 29.5 7.1 44l158 .3c1.9-5 .8-9.7 4.3-14.4 5.1 4.5 7.8 9.5 10.6 14.5.8-10.1 3.9-19.8 7-29.5 1.8 3.4 3.2 7 4.3 10.6-1.4-5.6-2.4-8.3-5.1-13.4-3 9.4-6.7 16.2-7.5 26-2.7-4.9-5.4-9.7-10.4-14.1-3.4 4.6-6.2 9.1-8 14l-147.6 3.4c-3.4-14.6-7.1-30.3-9-44z"
       overflow="visible"
       color="#000"
       opacity=".527"
       fill="#c87137"
       fill-rule="evenodd"
       filter="url(#a)"
       enable-background="accumulate"
       id="path7" />
    <path
       d="M200.1 16.1c-2.3 10.67-10.5 21.38-15.6 31.44-6.6-10.06-13.9-19.69-17.7-30.12L17.34 19.05C24.61 113.6 7.605 179.3 16.85 277l18.26 20.1L10.34 309l7.1 141.6.96 43.3 90.2 3.4c3.4-15.2 15-35.6 21.3-49.6 4.3 13.6 15.4 36.7 16.6 50.9l45.1.8 13.8-18.7 14.4 22.2 68.7-8.6c1.8-4.7 4.5-9.1 7.8-13.5 4.8 4.2 7.4 8.9 10 13.6.8-9.5 7.7-19.6 10.6-28.7 4.5 8.6 19.9 28.9 33.1 33.9l114.6 5.6 22.3-14.7 19.4 14.7-14.5-67.6-34.6-14.2 37.5-15.1 2.1-96.9-14.5-21.9 15.2-13.4 5.1-239.63c-5.2-21.09-11.8-24.89-16.9-20.22l-4.2 2.11 2 19.14.7 44.47-7.1 124.23-18.3-137.78c8.8-15.88-3.9-35.38-.6-50.02-67.1 1.24-140.4-13.332-202.8-3.28-14 2.25-23.7 21.31-36.9 24.48-4.3 1.03-13.9-23.45-18.4-23.5z"
       overflow="visible"
       enable-background="accumulate"
       filter="url(#b)"
       fill-rule="evenodd"
       fill="#f6e7d0"
       color="#000"
       id="path8" />
    <path
       d="M354 27.39l-70.3 96.91 46.4 97.6-56.2 43.6 33 74.4-30.2 63.2 69.8 48.8 31.6 29.5 31.6-13.3L365.9 335l55.5-36.5 2.1-146.1-56.9-101.83zM116.6 55.48L89.9 123.6s33.7 65.3 35.8 68.8c2.1 3.6-7 118-7 118l42.8 73.8s9.9-82.9 7.1-83.6c-2.8-.7-29.5-42.1-29.5-42.1l23.8-84.3-36.5-37.2z"
       color="#000"
       overflow="visible"
       fill="#f2dbb9"
       fill-rule="evenodd"
       filter="url(#c)"
       enable-background="accumulate"
       id="path9" />
    <path
       d="M39.33 172.1l-5.62 108.1L74.45 328 42.84 464.9l96.96-39.3 30.2 42.9 74.4-38.7-80.8-169.9-60.4-16.9z"
       color="#000"
       overflow="visible"
       fill="#eed3a4"
       fill-rule="evenodd"
       enable-background="accumulate"
       filter="url(#d)"
       id="path10" />
    <path
       d="M266.9 66.72L324.5 191 434 221.2l21.8-111.6-41.4-68.86z"
       color="#000"
       overflow="visible"
       fill="#eed3a4"
       fill-rule="evenodd"
       enable-background="accumulate"
       filter="url(#e)"
       id="path11" />
  </svg>
  <path
     d="m 272.11485,56 c -9.55442,10.920618 -14.73346,24.028931 -15.09063,35.601393 -0.44647,14.010177 5.08974,25.171887 18.75167,30.886687 l 5.17904,2.14305 -0.17859,5.53621 c -0.44647,13.66193 9.82231,30.62773 25.09153,41.87874 15.17992,11.16171 34.11018,16.34074 49.73658,10.80453 9.19725,-4.91115 20.00179,-11.51888 26.60952,-18.84097 6.51844,-7.32208 9.19725,-13.66193 5.26833,-23.21635 -3.12528,-3.83963 -7.85785,-6.60774 -16.07287,-10.35807 l -4.64327,-2.23234 v -5.17904 c 0,-3.03598 -3.57175,-10.2152 -13.21547,-16.47468 -9.64371,-6.22377 -24.64505,-11.465313 -44.02178,-12.376109 l -1.87517,-0.08929 -1.60729,-0.857219 C 293.36675,86.368783 286.22325,79.037771 281.22281,71.483525 277.82965,66.340209 275.32942,61.384409 272.11485,56 Z m 60.54112,57.79087 c 9.64372,0.0893 18.12662,12.09037 17.94803,14.05483 -0.26788,3.66104 -31.16349,4.46468 -31.16349,-0.62506 0,-3.03598 3.30386,-13.51906 13.21546,-13.42977 z m -50.98669,57.71944 -0.26788,2.9467 c -0.53577,5.6255 -1.69658,11.34029 -3.83963,16.60862 7.85784,6.60773 16.43004,12.32253 25.09152,16.60863 10.89383,5.44691 21.87696,8.57219 31.78856,8.84007 -0.80365,-5.26833 -1.07153,-10.53665 -0.71435,-15.80498 -13.48335,-1.78587 -26.43094,-7.67926 -37.41406,-15.71569 -5.35762,-3.92892 -10.35807,-8.4829 -14.64416,-13.48335 z m -28.03822,18.84097 c -1.96446,3.92892 -4.2861,7.41138 -6.87561,10.53666 32.32431,37.94981 72.32788,53.48691 100.63398,55.0942 0.17859,-7.32208 -0.17859,-15.35851 -1.25011,-24.28788 -16.51933,2.8574 -34.19948,-1.4287 -50.62952,-9.64372 -15.44781,-7.58996 -29.91339,-18.75167 -41.87874,-31.69926 z m -18.84097,21.43049 c -3.66104,2.41093 -7.41138,4.46468 -11.07242,6.33985 28.66328,39.91428 66.07733,63.30922 113.49228,76.07822 4.01822,-5.35762 6.96491,-12.85829 8.66149,-22.23413 -33.30655,-1.87517 -76.25681,-19.46602 -111.08135,-60.18394 z m -21.87695,18.84096 c -53.04045,27.32387 -76.07822,58.93384 -85.27547,95.18707 -9.55443,37.41406 -3.57175,81.16797 3.57174,129.47585 l 159.65712,0.53576 c -0.26788,-5.71479 -1.16082,-9.8223 -2.41093,-12.59041 -1.78588,-4.01821 -3.92893,-5.89338 -8.21502,-7.76855 -8.5722,-3.66104 -25.98447,-4.1968 -50.09376,-5.89338 l -19.55532,-1.4287 14.82275,-12.6797 c 12.14395,-10.35807 21.69837,-20.35896 29.28833,-30.18127 3.21458,-7.0542 3.57175,-17.32298 0.80365,-28.48469 -3.48246,-14.46557 -11.96536,-29.73479 -21.60908,-38.75346 -4.91115,-4.55397 -9.9116,-7.41137 -14.46557,-8.4829 -4.55398,-1.07152 -8.5722,-0.71435 -13.21547,2.05376 -9.37584,5.53621 -21.2519,22.85918 -29.46692,59.46959 l -15.71568,-3.57174 c 8.75078,-38.57488 20.98401,-60.27324 36.96758,-69.73837 6.07197,-3.57175 12.59041,-5.00045 18.93026,-4.73257 2.14305,0.0893 4.19681,0.35718 6.25056,0.89294 8.03643,1.87517 15.26922,6.42914 21.60907,12.32253 12.67971,11.78676 22.14484,29.19903 26.34164,46.78989 0.17859,0.80364 0.35718,1.69658 0.53576,2.50022 0.80365,-2.14305 1.60729,-4.28609 2.23235,-6.42914 1.25011,-4.01822 2.23234,-8.12573 2.94669,-12.32253 -10.53666,-19.19814 -13.12617,-41.61086 -14.91205,-58.93384 -18.3945,-12.59041 -34.73524,-28.2168 -49.02223,-47.23636 z m 66.70238,58.13019 c 2.8574,19.46603 7.85785,40.36075 20.98402,53.66551 l 1.25011,1.25011 0.62506,1.69658 c 14.28699,40.18216 22.41271,70.54201 29.55621,110.367 L 384.08914,456 c -0.89294,-7.14349 -3.30387,-11.96535 -6.69703,-15.6264 -4.55398,-4.82185 -11.69747,-8.03643 -21.60907,-9.64371 l -5.62551,-0.89294 -0.98223,-5.53621 c -7.23278,-37.77123 -21.51977,-70.98848 -16.69792,-114.5638 -18.93026,-5.17903 -36.61041,-12.05465 -52.86186,-20.98402 z"
     fill="#3e3126"
     fill-opacity="1"
     id="path12"
     style="fill:#3e7474;fill-opacity:1;stroke-width:0.892937" />
</svg>
