<?xml version="1.0" encoding="UTF-8" standalone="no"?>
<svg
   viewBox="0 0 512 512"
   style="height: 512px; width: 512px;"
   version="1.1"
   id="svg12"
   sodipodi:docname="balance.svg"
   inkscape:version="1.3.2 (091e20e, 2023-11-25)"
   xml:space="preserve"
   xmlns:inkscape="http://www.inkscape.org/namespaces/inkscape"
   xmlns:sodipodi="http://sodipodi.sourceforge.net/DTD/sodipodi-0.dtd"
   xmlns="http://www.w3.org/2000/svg"
   xmlns:svg="http://www.w3.org/2000/svg"><sodipodi:namedview
     id="namedview12"
     pagecolor="#505050"
     bordercolor="#ffffff"
     borderopacity="1"
     inkscape:showpageshadow="0"
     inkscape:pageopacity="0"
     inkscape:pagecheckerboard="1"
     inkscape:deskcolor="#d1d1d1"
     inkscape:zoom="0.47583537"
     inkscape:cx="149.21127"
     inkscape:cy="380.38366"
     inkscape:window-width="1248"
     inkscape:window-height="582"
     inkscape:window-x="0"
     inkscape:window-y="38"
     inkscape:window-maximized="0"
     inkscape:current-layer="svg12" /><defs
     id="defs2"><radialGradient
       id="delapouite-shield-impact-gradient-0"><stop
         offset="0%"
         stop-color="#830000"
         stop-opacity="1"
         id="stop1" /><stop
         offset="100%"
         stop-color="#000"
         stop-opacity="1"
         id="stop2" /></radialGradient></defs><path
     d="M0 0h512v512H0z"
     fill="url(#pattern)"
     id="path2" /><svg
     version="1.1"
     id="svg11"><defs
       id="defs6"><filter
         id="b"
         x="-0.023338979"
         width="1.046678"
         y="-0.023448784"
         height="1.0468976"
         color-interpolation-filters="sRGB"><feGaussianBlur
           stdDeviation="4.823"
           id="feGaussianBlur2" /></filter><filter
         id="a"
         x="-0.012011281"
         width="1.0240226"
         y="-0.011988317"
         height="1.0239766"
         color-interpolation-filters="sRGB"><feGaussianBlur
           stdDeviation="2.55"
           id="feGaussianBlur3" /></filter><filter
         id="c"
         x="-0.11244604"
         width="1.2248921"
         y="-0.082623731"
         height="1.1652475"
         color-interpolation-filters="sRGB"><feGaussianBlur
           stdDeviation="15.63"
           id="feGaussianBlur4" /></filter><filter
         id="e"
         x="-0.23758603"
         width="1.4751721"
         y="-0.24869778"
         height="1.4973956"
         color-interpolation-filters="sRGB"><feGaussianBlur
           stdDeviation="18.7"
           id="feGaussianBlur5" /></filter><filter
         id="d"
         x="-0.21301439"
         width="1.4260288"
         y="-0.15141701"
         height="1.302834"
         color-interpolation-filters="sRGB"><feGaussianBlur
           stdDeviation="18.7"
           id="feGaussianBlur6" /></filter></defs><path
       d="M196.6 1.207c-2.5 11.323-4.8 22.703-10.2 33.383-7-10.68-12.6-20.91-16.7-31.988L2.494 4.338C13 104.9 10.86 175.3 1.979 278.3L15.4 295.5l-9.494 6.3L2.6 462.7l1.019 45.9 112.681 3.1c3.6-16.1 6.5-32.5 13.2-47.3 4.5 14.4 5.7 29.4 7 44.4l160 .3c.8-6.1.7-8.1 2.3-14.4 5.1 4.5 7.8 9.5 10.6 14.5.8-10.1 3.9-19.8 7-29.5 4.8 9.2 6.7 19.4 8.8 29.5l185.2.4-4.6-78.2-21.4-8.2 21.3-4.9 5.8-395.47c-7-6.73-13.3-13.744-18-21.465l-15.1.114-2.1 20.321-1.4 47.23.8 84.87-8.6-97.14c9.3-16.86 2.2-39.69 5.7-55.239-92.1 1.696-184.1.685-276.2-.314z"
       overflow="visible"
       color="#000"
       fill="#ebc893"
       fill-rule="evenodd"
       stroke="#e0aa58"
       enable-background="accumulate"
       id="path6" /><path
       d="M196.6 1.203c-2.5 11.327-4.8 22.707-10.2 33.387-7-10.68-12.6-20.91-16.7-31.99L2.494 4.336C13 104.9 10.86 175.3 1.979 278.3L15.4 295.5l-9.494 6.3L2.6 462.7l1.019 45.9 112.681 3.1c.5-2.1-7.9-2.3-7.4-4.5L5.244 504.5l-.914-47.3 4.63-153.7 12.42-9-13.093-16.8C16.95 177.3 16.36 104 6.113 5.992l162.687.164c4 10.804 10.3 24.254 17.1 34.664 5.3-10.41 9.5-25.97 12-37.02 89.8.974 173.8 3.521 263.6 1.867 4.6 1.226 10.6.431 11.3-4.149-92.1 1.696-184.1.684-276.2-.315zm296.9.158l-15.1.116-.6 6.277 13.5-2.557c4.6 7.533 9.7 12.383 16.6 18.943l-4.6 389.06-19.9 9.9 4.1-.6 18.2-4.2 5.8-395.47c-7-6.73-13.3-13.748-18-21.469zm9.6 435.739l3.5 69.7-177.7.1c.4 2.1-4.1.2-3.7 2.3l185.2.4-4.6-78.2zm-370 25.1c-1 2.2-2.9.4-3.7 2.6 4.2 14 5.8 29.5 7.1 44l158 .3c1.9-5 .8-9.7 4.3-14.4 5.1 4.5 7.8 9.5 10.6 14.5.8-10.1 3.9-19.8 7-29.5 1.8 3.4 3.2 7 4.3 10.6-1.4-5.6-2.4-8.3-5.1-13.4-3 9.4-6.7 16.2-7.5 26-2.7-4.9-5.4-9.7-10.4-14.1-3.4 4.6-6.2 9.1-8 14l-147.6 3.4c-3.4-14.6-7.1-30.3-9-44z"
       overflow="visible"
       color="#000"
       opacity=".527"
       fill="#c87137"
       fill-rule="evenodd"
       filter="url(#a)"
       enable-background="accumulate"
       id="path7" /><path
       d="M200.1 16.1c-2.3 10.67-10.5 21.38-15.6 31.44-6.6-10.06-13.9-19.69-17.7-30.12L17.34 19.05C24.61 113.6 7.605 179.3 16.85 277l18.26 20.1L10.34 309l7.1 141.6.96 43.3 90.2 3.4c3.4-15.2 15-35.6 21.3-49.6 4.3 13.6 15.4 36.7 16.6 50.9l45.1.8 13.8-18.7 14.4 22.2 68.7-8.6c1.8-4.7 4.5-9.1 7.8-13.5 4.8 4.2 7.4 8.9 10 13.6.8-9.5 7.7-19.6 10.6-28.7 4.5 8.6 19.9 28.9 33.1 33.9l114.6 5.6 22.3-14.7 19.4 14.7-14.5-67.6-34.6-14.2 37.5-15.1 2.1-96.9-14.5-21.9 15.2-13.4 5.1-239.63c-5.2-21.09-11.8-24.89-16.9-20.22l-4.2 2.11 2 19.14.7 44.47-7.1 124.23-18.3-137.78c8.8-15.88-3.9-35.38-.6-50.02-67.1 1.24-140.4-13.332-202.8-3.28-14 2.25-23.7 21.31-36.9 24.48-4.3 1.03-13.9-23.45-18.4-23.5z"
       overflow="visible"
       enable-background="accumulate"
       filter="url(#b)"
       fill-rule="evenodd"
       fill="#f6e7d0"
       color="#000"
       id="path8" /><path
       d="M354 27.39l-70.3 96.91 46.4 97.6-56.2 43.6 33 74.4-30.2 63.2 69.8 48.8 31.6 29.5 31.6-13.3L365.9 335l55.5-36.5 2.1-146.1-56.9-101.83zM116.6 55.48L89.9 123.6s33.7 65.3 35.8 68.8c2.1 3.6-7 118-7 118l42.8 73.8s9.9-82.9 7.1-83.6c-2.8-.7-29.5-42.1-29.5-42.1l23.8-84.3-36.5-37.2z"
       color="#000"
       overflow="visible"
       fill="#f2dbb9"
       fill-rule="evenodd"
       filter="url(#c)"
       enable-background="accumulate"
       id="path9" /><path
       d="M39.33 172.1l-5.62 108.1L74.45 328 42.84 464.9l96.96-39.3 30.2 42.9 74.4-38.7-80.8-169.9-60.4-16.9z"
       color="#000"
       overflow="visible"
       fill="#eed3a4"
       fill-rule="evenodd"
       enable-background="accumulate"
       filter="url(#d)"
       id="path10" /><path
       d="M266.9 66.72L324.5 191 434 221.2l21.8-111.6-41.4-68.86z"
       color="#000"
       overflow="visible"
       fill="#eed3a4"
       fill-rule="evenodd"
       enable-background="accumulate"
       filter="url(#e)"
       id="path11" /></svg><path
     style="fill:#3e7474;fill-opacity:1;stroke-width:1.38452"
     d="m 197.62392,425.07442 c 1.86185,-3.26088 10.08097,-18.38956 18.26473,-33.61929 8.18375,-15.22972 16.68132,-30.90643 18.88349,-34.83715 l 4.00397,-7.14675 4.46788,2.30093 c 2.53154,1.30372 7.53129,2.27083 11.53636,2.2315 l 7.06847,-0.0695 -2.48326,5.60753 c -1.36581,3.08413 -9.30525,20.24882 -17.64323,38.14375 l -15.15996,32.53622 -16.16181,0.39079 -16.16181,0.3908 z m 49.52914,-81.67714 c -1.8303,-0.98169 -4.63396,-3.54617 -6.23033,-5.69884 -3.33084,-4.49156 -3.3999,-13.50522 -0.30946,-40.39068 1.70774,-14.85657 1.67197,-15.40239 -1.45948,-22.27649 -6.83456,-15.00308 -12.89115,-51.11019 -11.15578,-66.50642 0.69175,-6.13711 -0.84976,-8.29328 -2.41141,-3.37296 -0.46849,1.47608 -3.02429,4.59125 -5.67956,6.9226 -3.61536,3.17432 -6.17977,4.23883 -10.21144,4.23883 -7.74679,0 -12.71695,-4.87175 -20.22931,-19.82874 -5.30824,-10.56866 -6.27684,-13.67054 -5.75468,-18.42933 l 0.62783,-5.72183 -6.23521,-0.85464 c -3.42936,-0.47004 -18.14166,-0.93389 -32.69397,-1.03076 -14.55234,-0.0969 -33.31215,-0.56416 -41.6885,-1.03839 -15.092544,-0.85449 -15.233474,-0.89449 -15.645854,-4.44207 -0.813113,-6.99493 -0.625539,-7.01261 58.074794,-5.47659 29.96811,0.78417 58.94931,1.42932 64.40267,1.43365 l 9.9152,0.008 3.93001,-8.38197 3.92999,-8.38196 4.82821,3.58006 c 5.62265,4.16913 16.34742,7.64579 23.58571,7.64579 6.75017,0 16.77844,-3.11832 22.01135,-6.84448 2.33441,-1.66226 4.79501,-2.68197 5.46798,-2.26604 0.67298,0.41591 2.58535,4.11136 4.2497,8.21209 3.01891,7.43808 3.04323,7.4579 10.20815,8.31866 3.95013,0.47455 14.65845,0.86606 23.79628,0.87003 l 16.61425,0.007 12.56448,-23.18589 c 10.99613,-20.29176 13.02677,-23.24057 16.26811,-23.62398 2.037,-0.24095 3.68845,0.0706 3.6699,0.69226 -0.0185,0.6217 -4.68498,11.05332 -10.36982,23.18139 -5.68485,12.12807 -10.04967,22.33745 -9.69959,22.68752 0.35008,0.35008 24.14971,1.20661 52.8881,1.90343 33.25003,0.80621 42.86907,1.80608 44.00582,2.74949 2.36182,1.96015 2.272,5.93951 -0.18001,7.97449 -1.4958,1.24141 -5.13142,1.3183 -47.07933,0.32128 -30.32979,-0.72086 -55.54407,-0.9117 -56.03175,-0.42403 -0.48767,0.48765 -10.3825,21.44676 -21.98847,46.57581 -11.60599,25.12904 -21.32756,45.94504 -21.6035,46.25777 -0.27593,0.31274 -2.5303,-0.42635 -5.00966,-1.64241 -2.47939,-1.21605 -5.59828,-2.54269 -6.93088,-2.94806 -1.3326,-0.40537 -2.42291,-1.56643 -2.42291,-2.58013 0,-1.0137 4.04193,-9.32086 8.98206,-18.46038 7.99347,-14.78837 9.58958,-16.88536 14.50188,-19.05265 3.03589,-1.33944 7.7594,-5.04523 10.49668,-8.23508 6.74069,-7.85521 16.0067,-26.90945 16.88792,-34.72769 l 0.71882,-6.37732 h -5.02588 c -4.72352,0 -5.02588,0.26462 -5.02588,4.39857 0,6.03297 -10.07062,26.34755 -16.00152,32.27845 -3.98961,3.98961 -5.88329,4.85858 -10.58785,4.85858 -4.96411,0 -6.50933,-0.81412 -11.57021,-6.09595 l -5.84096,-6.09596 -0.73281,14.05695 c -0.40304,7.73131 -2.30143,22.76665 -4.21862,33.41183 -1.9172,10.64521 -3.32168,19.51904 -3.12108,19.71964 0.2006,0.20061 3.5632,0.97133 7.47244,1.7127 8.54432,1.62038 11.70808,3.44528 14.67215,8.46305 2.97991,5.04459 2.81736,10.70157 -0.46208,16.07995 -3.74406,6.14037 -7.22084,7.60104 -17.11473,7.19023 l -8.5678,-0.35576 -1.09668,10.99134 c -1.77202,17.75973 -2.32229,19.89969 -6.24627,24.29099 -4.33766,4.85427 -12.78652,6.58481 -18.13721,3.71496 z M 212.27434,172.25639 c -5.87936,-0.97922 -6.75409,0.0478 -4.50621,5.29037 l 2.07775,4.84582 2.54876,-4.84582 c 2.49348,-4.74071 2.49087,-4.85547 -0.12031,-5.29037 z m 91.9061,5.31194 c 0.58235,-2.22686 0.0568,-2.79061 -2.60191,-2.79061 -3.74722,0 -3.93762,0.43435 -1.8777,4.28336 1.67074,3.1218 3.42583,2.53695 4.47961,-1.49275 z M 179.74706,331.21029 c -5.24593,-3.36157 -10.82854,-13.43518 -12.87952,-23.24065 -2.22965,-10.65964 -1.9744,-16.42721 0.77367,-17.48175 3.40376,-1.30614 4.19527,0.22961 5.90251,11.45247 1.88092,12.36461 4.2993,17.55173 10.85544,23.28371 4.30212,3.76129 4.75181,4.6896 3.18584,6.57647 -2.29559,2.76601 -2.64087,2.74001 -7.83794,-0.59025 z m 22.85273,-7.25052 c -7.80619,-5.98541 -14.52146,-18.38866 -16.58749,-30.63742 -1.81493,-10.76022 -0.97106,-24.27131 1.6158,-25.87008 4.03615,-2.49448 5.09747,0.33229 5.65524,15.06243 0.70081,18.5078 3.5894,25.64568 14.49024,35.8061 4.22959,3.94231 7.27706,7.83627 6.77214,8.65326 -1.64556,2.66257 -5.96296,1.57317 -11.94593,-3.01429 z m 144.59765,-19.75102 c -0.49665,-1.29427 1.42423,-4.51705 5.01264,-8.41004 7.95479,-8.62992 11.36796,-17.00334 12.36006,-30.32261 0.73668,-9.89015 1.12519,-11.08847 3.59498,-11.08847 2.56717,0 2.76584,0.9084 2.72521,12.46069 -0.0368,10.47413 -0.61632,13.67466 -3.6349,20.07554 -6.68993,14.18599 -17.62959,23.61319 -20.05799,17.28489 z m -21.26019,-5.52803 c 0,-1.14857 3.95432,-5.97709 8.78737,-10.73003 10.63177,-10.45553 13.84468,-18.36254 14.20046,-34.94758 0.22853,-10.65255 0.3627,-11.07616 3.50848,-11.07616 3.07686,0 3.29524,0.55789 3.68164,9.40571 0.53319,12.2091 -2.69927,24.67223 -8.7829,33.86355 -7.33444,11.08108 -21.39505,19.94296 -21.39505,13.48451 z M 248.00742,146.53359 c -12.75896,-3.49043 -22.4728,-14.84091 -24.0364,-28.0862 -3.45946,-29.305138 31.98552,-48.097259 53.70629,-28.473844 10.44271,9.434366 14.05822,21.186894 10.38222,33.748384 -5.16848,17.66154 -22.59564,27.58718 -40.05211,22.81166 z"
     id="path1"
     sodipodi:nodetypes="ssscsscsscccscssssssssscscsssccccssssssccssssssssssssssssssscssssscssssssscssccsscssssssssssssssssssssssssssssssssssssssss" /></svg>
