<?xml version="1.0" encoding="UTF-8" standalone="no"?>
<svg
   viewBox="0 0 512 512"
   style="height: 512px; width: 512px;"
   version="1.1"
   id="svg12"
   sodipodi:docname="dagger-slash copy.svg"
   inkscape:version="1.4 (e7c3feb1, 2024-10-09)"
   xml:space="preserve"
   xmlns:inkscape="http://www.inkscape.org/namespaces/inkscape"
   xmlns:sodipodi="http://sodipodi.sourceforge.net/DTD/sodipodi-0.dtd"
   xmlns="http://www.w3.org/2000/svg"
   xmlns:svg="http://www.w3.org/2000/svg"><sodipodi:namedview
     id="namedview12"
     pagecolor="#505050"
     bordercolor="#ffffff"
     borderopacity="1"
     inkscape:showpageshadow="0"
     inkscape:pageopacity="0"
     inkscape:pagecheckerboard="1"
     inkscape:deskcolor="#d1d1d1"
     inkscape:zoom="0.43096201"
     inkscape:cx="237.83999"
     inkscape:cy="113.69912"
     inkscape:window-width="1248"
     inkscape:window-height="767"
     inkscape:window-x="0"
     inkscape:window-y="38"
     inkscape:window-maximized="0"
     inkscape:current-layer="svg12" /><defs
     id="defs2"><radialGradient
       id="delapouite-viking-shield-gradient-0"><stop
         offset="0%"
         stop-color="#830000"
         stop-opacity="1"
         id="stop1" /><stop
         offset="100%"
         stop-color="#000"
         stop-opacity="1"
         id="stop2" /></radialGradient></defs><path
     d="M0 0h512v512H0z"
     fill="url(#pattern)"
     id="path2" /><svg
     version="1.1"
     id="svg11"><defs
       id="defs6"><filter
         id="b"
         x="-0.023338979"
         width="1.046678"
         y="-0.023448784"
         height="1.0468976"
         color-interpolation-filters="sRGB"><feGaussianBlur
           stdDeviation="4.823"
           id="feGaussianBlur2" /></filter><filter
         id="a"
         x="-0.012011281"
         width="1.0240226"
         y="-0.011988317"
         height="1.0239766"
         color-interpolation-filters="sRGB"><feGaussianBlur
           stdDeviation="2.55"
           id="feGaussianBlur3" /></filter><filter
         id="c"
         x="-0.11244604"
         width="1.2248921"
         y="-0.082623731"
         height="1.1652475"
         color-interpolation-filters="sRGB"><feGaussianBlur
           stdDeviation="15.63"
           id="feGaussianBlur4" /></filter><filter
         id="e"
         x="-0.23758603"
         width="1.4751721"
         y="-0.24869778"
         height="1.4973956"
         color-interpolation-filters="sRGB"><feGaussianBlur
           stdDeviation="18.7"
           id="feGaussianBlur5" /></filter><filter
         id="d"
         x="-0.21301439"
         width="1.4260288"
         y="-0.15141701"
         height="1.302834"
         color-interpolation-filters="sRGB"><feGaussianBlur
           stdDeviation="18.7"
           id="feGaussianBlur6" /></filter></defs><path
       d="M196.6 1.207c-2.5 11.323-4.8 22.703-10.2 33.383-7-10.68-12.6-20.91-16.7-31.988L2.494 4.338C13 104.9 10.86 175.3 1.979 278.3L15.4 295.5l-9.494 6.3L2.6 462.7l1.019 45.9 112.681 3.1c3.6-16.1 6.5-32.5 13.2-47.3 4.5 14.4 5.7 29.4 7 44.4l160 .3c.8-6.1.7-8.1 2.3-14.4 5.1 4.5 7.8 9.5 10.6 14.5.8-10.1 3.9-19.8 7-29.5 4.8 9.2 6.7 19.4 8.8 29.5l185.2.4-4.6-78.2-21.4-8.2 21.3-4.9 5.8-395.47c-7-6.73-13.3-13.744-18-21.465l-15.1.114-2.1 20.321-1.4 47.23.8 84.87-8.6-97.14c9.3-16.86 2.2-39.69 5.7-55.239-92.1 1.696-184.1.685-276.2-.314z"
       overflow="visible"
       color="#000"
       fill="#ebc893"
       fill-rule="evenodd"
       stroke="#e0aa58"
       enable-background="accumulate"
       id="path6" /><path
       d="M196.6 1.203c-2.5 11.327-4.8 22.707-10.2 33.387-7-10.68-12.6-20.91-16.7-31.99L2.494 4.336C13 104.9 10.86 175.3 1.979 278.3L15.4 295.5l-9.494 6.3L2.6 462.7l1.019 45.9 112.681 3.1c.5-2.1-7.9-2.3-7.4-4.5L5.244 504.5l-.914-47.3 4.63-153.7 12.42-9-13.093-16.8C16.95 177.3 16.36 104 6.113 5.992l162.687.164c4 10.804 10.3 24.254 17.1 34.664 5.3-10.41 9.5-25.97 12-37.02 89.8.974 173.8 3.521 263.6 1.867 4.6 1.226 10.6.431 11.3-4.149-92.1 1.696-184.1.684-276.2-.315zm296.9.158l-15.1.116-.6 6.277 13.5-2.557c4.6 7.533 9.7 12.383 16.6 18.943l-4.6 389.06-19.9 9.9 4.1-.6 18.2-4.2 5.8-395.47c-7-6.73-13.3-13.748-18-21.469zm9.6 435.739l3.5 69.7-177.7.1c.4 2.1-4.1.2-3.7 2.3l185.2.4-4.6-78.2zm-370 25.1c-1 2.2-2.9.4-3.7 2.6 4.2 14 5.8 29.5 7.1 44l158 .3c1.9-5 .8-9.7 4.3-14.4 5.1 4.5 7.8 9.5 10.6 14.5.8-10.1 3.9-19.8 7-29.5 1.8 3.4 3.2 7 4.3 10.6-1.4-5.6-2.4-8.3-5.1-13.4-3 9.4-6.7 16.2-7.5 26-2.7-4.9-5.4-9.7-10.4-14.1-3.4 4.6-6.2 9.1-8 14l-147.6 3.4c-3.4-14.6-7.1-30.3-9-44z"
       overflow="visible"
       color="#000"
       opacity=".527"
       fill="#c87137"
       fill-rule="evenodd"
       filter="url(#a)"
       enable-background="accumulate"
       id="path7" /><path
       d="M200.1 16.1c-2.3 10.67-10.5 21.38-15.6 31.44-6.6-10.06-13.9-19.69-17.7-30.12L17.34 19.05C24.61 113.6 7.605 179.3 16.85 277l18.26 20.1L10.34 309l7.1 141.6.96 43.3 90.2 3.4c3.4-15.2 15-35.6 21.3-49.6 4.3 13.6 15.4 36.7 16.6 50.9l45.1.8 13.8-18.7 14.4 22.2 68.7-8.6c1.8-4.7 4.5-9.1 7.8-13.5 4.8 4.2 7.4 8.9 10 13.6.8-9.5 7.7-19.6 10.6-28.7 4.5 8.6 19.9 28.9 33.1 33.9l114.6 5.6 22.3-14.7 19.4 14.7-14.5-67.6-34.6-14.2 37.5-15.1 2.1-96.9-14.5-21.9 15.2-13.4 5.1-239.63c-5.2-21.09-11.8-24.89-16.9-20.22l-4.2 2.11 2 19.14.7 44.47-7.1 124.23-18.3-137.78c8.8-15.88-3.9-35.38-.6-50.02-67.1 1.24-140.4-13.332-202.8-3.28-14 2.25-23.7 21.31-36.9 24.48-4.3 1.03-13.9-23.45-18.4-23.5z"
       overflow="visible"
       enable-background="accumulate"
       filter="url(#b)"
       fill-rule="evenodd"
       fill="#f6e7d0"
       color="#000"
       id="path8" /><path
       d="M354 27.39l-70.3 96.91 46.4 97.6-56.2 43.6 33 74.4-30.2 63.2 69.8 48.8 31.6 29.5 31.6-13.3L365.9 335l55.5-36.5 2.1-146.1-56.9-101.83zM116.6 55.48L89.9 123.6s33.7 65.3 35.8 68.8c2.1 3.6-7 118-7 118l42.8 73.8s9.9-82.9 7.1-83.6c-2.8-.7-29.5-42.1-29.5-42.1l23.8-84.3-36.5-37.2z"
       color="#000"
       overflow="visible"
       fill="#f2dbb9"
       fill-rule="evenodd"
       filter="url(#c)"
       enable-background="accumulate"
       id="path9" /><path
       d="M39.33 172.1l-5.62 108.1L74.45 328 42.84 464.9l96.96-39.3 30.2 42.9 74.4-38.7-80.8-169.9-60.4-16.9z"
       color="#000"
       overflow="visible"
       fill="#eed3a4"
       fill-rule="evenodd"
       enable-background="accumulate"
       filter="url(#d)"
       id="path10" /><path
       d="M266.9 66.72L324.5 191 434 221.2l21.8-111.6-41.4-68.86z"
       color="#000"
       overflow="visible"
       fill="#eed3a4"
       fill-rule="evenodd"
       enable-background="accumulate"
       filter="url(#e)"
       id="path11" /></svg><path
     style="fill:#3e7474;fill-opacity:1;stroke-width:0.755244"
     d="m 133.47851,447.86949 -1.90765,-1.90765 0.24268,-20.56084 0.24269,-20.56084 2.49865,-5.27696 c 2.31317,-4.88523 4.89088,-7.67526 34.72389,-37.58407 l 32.22524,-32.30712 15.68936,15.67602 15.68936,15.67602 -19.4616,19.64233 c -10.70387,10.80328 -24.63844,24.93486 -30.96572,31.40352 l -11.50414,11.76121 v 11.40772 11.40771 l -1.98996,1.56531 c -1.86909,1.47022 -2.9492,1.5653 -17.78256,1.5653 h -15.79259 z m 134.10298,-72.7708 c -1.84671,-1.1963 -19.5432,-18.44417 -39.32553,-38.3286 -38.45238,-38.65087 -38.3143,-38.48477 -37.4359,-45.03379 0.79476,-5.92541 9.62283,-15.02826 15.54495,-16.02879 6.44201,-1.08838 6.08242,-1.38893 46.39323,38.77629 20.69388,20.61912 38.11168,38.40706 38.70622,39.52874 1.43281,2.70312 1.37416,8.4197 -0.11592,11.30122 -1.80743,3.49518 -7.0663,8.88566 -10.2565,10.51318 -4.30384,2.19566 -9.42291,1.91973 -13.51055,-0.72825 z m -5.04506,-69.74712 -25.09711,-25.0971 50.43377,-50.61605 c 51.92069,-52.10835 57.2465,-57.94995 68.52516,-75.16145 9.78,-14.92454 16.53151,-28.76778 21.9163,-44.93699 4.32274,-12.980118 6.3365,-22.951023 6.86393,-33.985952 0.70681,-14.788 2.66183,-15.855 10.84885,-5.921056 14.07421,17.077307 22.50981,33.750418 26.5119,52.401248 2.39545,11.16348 2.38862,29.38804 -0.0153,40.75042 -1.9064,9.01091 -4.99812,18.69944 -8.22152,25.76388 l -2.2009,4.82348 -0.88784,-3.02098 c -1.56928,-5.33968 -3.87124,-20.02413 -3.87124,-24.69513 0,-5.90299 -1.66112,-9.46287 -4.80671,-10.30109 -5.35342,-1.42655 -8.78767,2.04256 -8.78767,8.87686 0,2.08326 -0.52515,7.55284 -1.16698,12.15462 -2.95531,21.18864 -10.75704,36.51803 -21.14471,41.54663 -1.86948,0.905 -5.6261,1.92164 -8.34803,2.25921 -5.40661,0.67051 -7.51805,2.01198 -8.22371,5.22484 -1.08401,4.93545 2.14822,7.84449 9.52136,8.56933 4.23851,0.41668 8.42173,2.17036 11.99147,5.02703 l 1.8881,1.51095 -44.9346,44.96221 c -24.71403,24.72921 -45.10624,44.9622 -45.31602,44.9622 -0.20979,0 -11.67512,-11.2937 -25.47853,-25.09711 z m 5.53911,-14.85366 c 1.62002,-1.20374 12.44456,-11.72466 24.05454,-23.37983 19.62134,-19.69772 21.10906,-21.37837 21.10906,-23.84664 0,-3.8545 -2.69044,-6.47294 -6.65092,-6.47294 -3.01266,0 -3.45792,0.39338 -26.30187,23.23733 -20.18449,20.18448 -23.23733,23.53594 -23.23733,25.51023 0,3.77101 3.07271,6.94203 6.87269,7.09258 0.6646,0.0264 2.53382,-0.937 4.15383,-2.14073 z m 131.71449,-38.91343 c 0,-2.88575 -6.71384,-13.8734 -11.71943,-19.17961 l -5.33718,-5.65772 3.65792,-3.42156 c 4.515,-4.22325 10.43606,-12.95494 12.30018,-18.1389 0.76829,-2.13655 1.61259,-3.88464 1.87623,-3.88464 0.26363,0 0.84128,1.17936 1.28367,2.62081 1.51051,4.92166 6.38364,12.60135 11.3097,17.82324 l 4.92074,5.21625 -5.41224,5.79538 c -3.98407,4.2661 -6.3176,7.65645 -8.8432,12.84813 -1.88704,3.87901 -3.5672,7.05275 -3.73368,7.05275 -0.16649,0 -0.30271,-0.48336 -0.30271,-1.07413 z M 316.71325,168.3371 c -9.63531,-5.85214 -32.92961,-17.74682 -43.92077,-22.42709 -17.97973,-7.65614 -37.73677,-14.04149 -55.56626,-17.95865 -18.86074,-4.14373 -29.15258,-5.31274 -50.42878,-5.72801 -20.88913,-0.40772 -32.90409,0.474 -49.18064,3.60913 -6.77691,1.30534 -23.782939,5.68446 -27.854199,7.17256 -1.093631,0.39973 -0.78099,-0.23019 1.132864,-2.28253 4.959073,-5.31793 16.977375,-14.91594 27.126885,-21.66398 25.64408,-17.04981 54.78581,-27.420216 87.67012,-31.198382 11.8559,-1.362157 37.70302,-1.553241 50.60131,-0.374087 26.80033,2.45007 55.65944,9.088033 83.32799,19.1665 12.18785,4.439519 25.42706,10.245379 25.42706,11.150669 0,1.42597 -5.60416,14.16286 -10.23478,23.26119 -7.2393,14.22389 -20.45501,33.13917 -28.02712,40.11445 l -2.14362,1.97466 z"
     id="path3" /></svg>
