<?xml version="1.0" encoding="UTF-8" standalone="no"?>
<svg
   viewBox="0 0 512 512"
   style="height: 512px; width: 512px;"
   version="1.1"
   id="svg12"
   sodipodi:docname="dagger-punch.svg"
   inkscape:version="1.4 (e7c3feb1, 2024-10-09)"
   xml:space="preserve"
   xmlns:inkscape="http://www.inkscape.org/namespaces/inkscape"
   xmlns:sodipodi="http://sodipodi.sourceforge.net/DTD/sodipodi-0.dtd"
   xmlns="http://www.w3.org/2000/svg"
   xmlns:svg="http://www.w3.org/2000/svg"><sodipodi:namedview
     id="namedview12"
     pagecolor="#505050"
     bordercolor="#ffffff"
     borderopacity="1"
     inkscape:showpageshadow="0"
     inkscape:pageopacity="0"
     inkscape:pagecheckerboard="1"
     inkscape:deskcolor="#d1d1d1"
     inkscape:zoom="0.59690783"
     inkscape:cx="577.97868"
     inkscape:cy="849.37737"
     inkscape:window-width="1728"
     inkscape:window-height="1051"
     inkscape:window-x="0"
     inkscape:window-y="38"
     inkscape:window-maximized="1"
     inkscape:current-layer="svg12" /><defs
     id="defs2"><radialGradient
       id="lorc-anvil-gradient-0"><stop
         offset="0%"
         stop-color="#830000"
         stop-opacity="1"
         id="stop1" /><stop
         offset="100%"
         stop-color="#000"
         stop-opacity="1"
         id="stop2" /></radialGradient></defs><path
     d="M0 0h512v512H0z"
     fill="url(#pattern)"
     id="path2" /><svg
     version="1.1"
     id="svg11"><defs
       id="defs6"><filter
         id="b"
         x="-0.023338979"
         width="1.046678"
         y="-0.023448784"
         height="1.0468976"
         color-interpolation-filters="sRGB"><feGaussianBlur
           stdDeviation="4.823"
           id="feGaussianBlur2" /></filter><filter
         id="a"
         x="-0.012011281"
         width="1.0240226"
         y="-0.011988317"
         height="1.0239766"
         color-interpolation-filters="sRGB"><feGaussianBlur
           stdDeviation="2.55"
           id="feGaussianBlur3" /></filter><filter
         id="c"
         x="-0.11244604"
         width="1.2248921"
         y="-0.082623731"
         height="1.1652475"
         color-interpolation-filters="sRGB"><feGaussianBlur
           stdDeviation="15.63"
           id="feGaussianBlur4" /></filter><filter
         id="e"
         x="-0.23758603"
         width="1.4751721"
         y="-0.24869778"
         height="1.4973956"
         color-interpolation-filters="sRGB"><feGaussianBlur
           stdDeviation="18.7"
           id="feGaussianBlur5" /></filter><filter
         id="d"
         x="-0.21301439"
         width="1.4260288"
         y="-0.15141701"
         height="1.302834"
         color-interpolation-filters="sRGB"><feGaussianBlur
           stdDeviation="18.7"
           id="feGaussianBlur6" /></filter></defs><path
       d="M196.6 1.207c-2.5 11.323-4.8 22.703-10.2 33.383-7-10.68-12.6-20.91-16.7-31.988L2.494 4.338C13 104.9 10.86 175.3 1.979 278.3L15.4 295.5l-9.494 6.3L2.6 462.7l1.019 45.9 112.681 3.1c3.6-16.1 6.5-32.5 13.2-47.3 4.5 14.4 5.7 29.4 7 44.4l160 .3c.8-6.1.7-8.1 2.3-14.4 5.1 4.5 7.8 9.5 10.6 14.5.8-10.1 3.9-19.8 7-29.5 4.8 9.2 6.7 19.4 8.8 29.5l185.2.4-4.6-78.2-21.4-8.2 21.3-4.9 5.8-395.47c-7-6.73-13.3-13.744-18-21.465l-15.1.114-2.1 20.321-1.4 47.23.8 84.87-8.6-97.14c9.3-16.86 2.2-39.69 5.7-55.239-92.1 1.696-184.1.685-276.2-.314z"
       overflow="visible"
       color="#000"
       fill="#ebc893"
       fill-rule="evenodd"
       stroke="#e0aa58"
       enable-background="accumulate"
       id="path6" /><path
       d="M196.6 1.203c-2.5 11.327-4.8 22.707-10.2 33.387-7-10.68-12.6-20.91-16.7-31.99L2.494 4.336C13 104.9 10.86 175.3 1.979 278.3L15.4 295.5l-9.494 6.3L2.6 462.7l1.019 45.9 112.681 3.1c.5-2.1-7.9-2.3-7.4-4.5L5.244 504.5l-.914-47.3 4.63-153.7 12.42-9-13.093-16.8C16.95 177.3 16.36 104 6.113 5.992l162.687.164c4 10.804 10.3 24.254 17.1 34.664 5.3-10.41 9.5-25.97 12-37.02 89.8.974 173.8 3.521 263.6 1.867 4.6 1.226 10.6.431 11.3-4.149-92.1 1.696-184.1.684-276.2-.315zm296.9.158l-15.1.116-.6 6.277 13.5-2.557c4.6 7.533 9.7 12.383 16.6 18.943l-4.6 389.06-19.9 9.9 4.1-.6 18.2-4.2 5.8-395.47c-7-6.73-13.3-13.748-18-21.469zm9.6 435.739l3.5 69.7-177.7.1c.4 2.1-4.1.2-3.7 2.3l185.2.4-4.6-78.2zm-370 25.1c-1 2.2-2.9.4-3.7 2.6 4.2 14 5.8 29.5 7.1 44l158 .3c1.9-5 .8-9.7 4.3-14.4 5.1 4.5 7.8 9.5 10.6 14.5.8-10.1 3.9-19.8 7-29.5 1.8 3.4 3.2 7 4.3 10.6-1.4-5.6-2.4-8.3-5.1-13.4-3 9.4-6.7 16.2-7.5 26-2.7-4.9-5.4-9.7-10.4-14.1-3.4 4.6-6.2 9.1-8 14l-147.6 3.4c-3.4-14.6-7.1-30.3-9-44z"
       overflow="visible"
       color="#000"
       opacity=".527"
       fill="#c87137"
       fill-rule="evenodd"
       filter="url(#a)"
       enable-background="accumulate"
       id="path7" /><path
       d="M200.1 16.1c-2.3 10.67-10.5 21.38-15.6 31.44-6.6-10.06-13.9-19.69-17.7-30.12L17.34 19.05C24.61 113.6 7.605 179.3 16.85 277l18.26 20.1L10.34 309l7.1 141.6.96 43.3 90.2 3.4c3.4-15.2 15-35.6 21.3-49.6 4.3 13.6 15.4 36.7 16.6 50.9l45.1.8 13.8-18.7 14.4 22.2 68.7-8.6c1.8-4.7 4.5-9.1 7.8-13.5 4.8 4.2 7.4 8.9 10 13.6.8-9.5 7.7-19.6 10.6-28.7 4.5 8.6 19.9 28.9 33.1 33.9l114.6 5.6 22.3-14.7 19.4 14.7-14.5-67.6-34.6-14.2 37.5-15.1 2.1-96.9-14.5-21.9 15.2-13.4 5.1-239.63c-5.2-21.09-11.8-24.89-16.9-20.22l-4.2 2.11 2 19.14.7 44.47-7.1 124.23-18.3-137.78c8.8-15.88-3.9-35.38-.6-50.02-67.1 1.24-140.4-13.332-202.8-3.28-14 2.25-23.7 21.31-36.9 24.48-4.3 1.03-13.9-23.45-18.4-23.5z"
       overflow="visible"
       enable-background="accumulate"
       filter="url(#b)"
       fill-rule="evenodd"
       fill="#f6e7d0"
       color="#000"
       id="path8" /><path
       d="M354 27.39l-70.3 96.91 46.4 97.6-56.2 43.6 33 74.4-30.2 63.2 69.8 48.8 31.6 29.5 31.6-13.3L365.9 335l55.5-36.5 2.1-146.1-56.9-101.83zM116.6 55.48L89.9 123.6s33.7 65.3 35.8 68.8c2.1 3.6-7 118-7 118l42.8 73.8s9.9-82.9 7.1-83.6c-2.8-.7-29.5-42.1-29.5-42.1l23.8-84.3-36.5-37.2z"
       color="#000"
       overflow="visible"
       fill="#f2dbb9"
       fill-rule="evenodd"
       filter="url(#c)"
       enable-background="accumulate"
       id="path9" /><path
       d="M39.33 172.1l-5.62 108.1L74.45 328 42.84 464.9l96.96-39.3 30.2 42.9 74.4-38.7-80.8-169.9-60.4-16.9z"
       color="#000"
       overflow="visible"
       fill="#eed3a4"
       fill-rule="evenodd"
       enable-background="accumulate"
       filter="url(#d)"
       id="path10" /><path
       d="M266.9 66.72L324.5 191 434 221.2l21.8-111.6-41.4-68.86z"
       color="#000"
       overflow="visible"
       fill="#eed3a4"
       fill-rule="evenodd"
       enable-background="accumulate"
       filter="url(#e)"
       id="path11" /></svg><path
     id="path1"
     style="fill:#3e3126;fill-opacity:1;stroke-width:0.875422"
     d="m 256,68.500035 c -0.2477,0 -0.76978,0.85327 -1.16211,1.89648 -0.39231,1.04322 -0.9363,2.42249 -1.20703,3.06446 -0.27073,0.64197 -1.7079,4.57766 -3.19336,8.74609 -3.86218,10.83791 -8.76588,24.201065 -9.64258,26.271485 -0.27182,0.64197 -1.72066,4.58107 -3.21875,8.75391 -1.4981,4.17284 -3.48102,9.62173 -4.4082,12.10938 -4.02533,10.80018 -5.20078,13.99341 -7.77539,21.15625 -2.84635,7.91886 -4.78623,13.19188 -5.58399,15.17382 -0.66688,1.65683 -2.4615,6.53025 -5.26562,14.29882 -3.59908,9.97092 -4.71557,13.00499 -5.26367,14.29883 -0.65073,1.53612 -3.89766,10.41145 -7.26172,19.85156 -1.48546,4.16843 -2.924,8.10215 -3.19727,8.74414 -0.98213,2.30719 -2.35547,6.16248 -2.35547,6.60938 0,0.25075 2.36307,3.5641 5.25196,7.36523 2.88888,3.80114 5.25195,7.07375 5.25195,7.27149 0,0.92533 -8.33264,5.27998 -15.75781,8.23437 -8.98689,3.57578 -12.32501,4.588 -23.19727,7.03711 -6.44785,1.45246 -7.8109,1.92988 -8.34179,2.92188 -0.92926,1.73628 -0.63522,4.95662 0.5957,6.52148 1.41228,1.79543 5.41367,2.58313 15.1875,2.99805 11.11333,0.4718 19.29567,2.45884 28.5957,6.93945 15.39538,7.41723 25.48383,17.35046 30.36719,29.90234 3.70701,9.52825 3.78658,25.8264 0.16992,34.61133 -5.63386,13.72019 -13.83228,30.57071 -28.05469,35.89063 -23.07392,8.63084 -60.2602,11.76312 -72.55468,-14.0625 l -0.002,-0.002 -14.00195,-37.16796 -17.48438,48.12109 -2.679678,8.41406 c -0.87687,3.2454 0.05382,7.82498 2.763668,11.76367 5.25939,7.64426 23.86681,20.24681 43.99023,28.2793 11.80652,4.71271 16.46233,6.12444 36.47657,11.05469 2.71997,0.67002 7.03707,1.53388 11.67187,2.33789 2.08641,0.36194 5.106,0.89615 6.71094,1.18555 2.70933,0.48855 5.06118,0.79683 17.50976,2.30078 4.2008,0.50751 19.0029,1.51611 29.76368,2.02929 2.09023,0.0997 4.81198,0.0632 7.30273,0.0781 2.4908,-0.0149 5.21253,0.0216 7.30273,-0.0781 10.7608,-0.51318 25.56288,-1.52179 29.76368,-2.02929 12.44858,-1.50395 14.80043,-1.81223 17.50976,-2.30078 1.60494,-0.2894 4.62453,-0.82361 6.71094,-1.18555 4.6348,-0.80401 8.9519,-1.66787 11.67187,-2.33789 20.01424,-4.93025 24.67005,-6.34198 36.47657,-11.05469 20.12342,-8.03249 38.73085,-20.63504 43.99025,-28.2793 2.7097,-3.93869 3.6405,-8.51827 2.7637,-11.76367 l -2.6797,-8.41406 -17.4844,-48.12109 -14.00196,37.16796 -0.002,0.002 c -12.29448,25.82562 -49.48076,22.69334 -72.55468,14.0625 -14.22241,-5.31992 -22.42081,-22.17044 -28.05469,-35.89063 -3.6166,-8.78493 -3.53708,-25.08308 0.16992,-34.61133 4.8834,-12.55188 14.97181,-22.48511 30.36719,-29.90234 9.30003,-4.48061 17.48237,-6.46765 28.5957,-6.93945 9.77383,-0.41492 13.77522,-1.20262 15.1875,-2.99805 1.23092,-1.56486 1.52496,-4.7852 0.5957,-6.52148 -0.5309,-0.992 -1.89394,-1.46942 -8.34179,-2.92188 -10.87226,-2.44911 -14.21038,-3.46133 -23.19727,-7.03711 -7.42517,-2.95439 -15.75781,-7.30904 -15.75781,-8.23437 0,-0.19774 2.36307,-3.47035 5.25195,-7.27149 2.88889,-3.80113 5.25196,-7.11448 5.25196,-7.36523 0,-0.4469 -1.37334,-4.30219 -2.35547,-6.60938 -0.27327,-0.64199 -1.71181,-4.57571 -3.19727,-8.74414 -3.36406,-9.44011 -6.61099,-18.31544 -7.26172,-19.85156 -0.5481,-1.29384 -1.66459,-4.32791 -5.26367,-14.29883 -2.80412,-7.76858 -4.59874,-12.642 -5.26562,-14.29882 -0.79776,-1.98194 -2.73764,-7.25496 -5.58399,-15.17382 -2.57461,-7.16284 -3.75002,-10.35607 -7.77539,-21.15625 -0.9271,-2.48765 -2.9101,-7.93654 -4.4082,-12.10938 -1.4981,-4.17284 -2.94695,-8.11194 -3.21875,-8.75391 -0.8767,-2.07042 -5.78038,-15.433575 -9.64258,-26.271485 -1.4855,-4.16843 -2.92256,-8.10412 -3.19336,-8.74609 -0.2707,-0.64197 -0.81473,-2.02124 -1.20703,-3.06446 -0.3923,-1.04321 -0.91441,-1.89648 -1.16211,-1.89648 z" /></svg>
