<?xml version="1.0" encoding="UTF-8" standalone="no"?>
<svg
   viewBox="0 0 512 512"
   style="height: 512px; width: 512px;"
   version="1.1"
   id="svg12"
   sodipodi:docname="anvil copy.svg"
   inkscape:version="1.4 (e7c3feb1, 2024-10-09)"
   xml:space="preserve"
   xmlns:inkscape="http://www.inkscape.org/namespaces/inkscape"
   xmlns:sodipodi="http://sodipodi.sourceforge.net/DTD/sodipodi-0.dtd"
   xmlns="http://www.w3.org/2000/svg"
   xmlns:svg="http://www.w3.org/2000/svg"><sodipodi:namedview
     id="namedview12"
     pagecolor="#505050"
     bordercolor="#ffffff"
     borderopacity="1"
     inkscape:showpageshadow="0"
     inkscape:pageopacity="0"
     inkscape:pagecheckerboard="1"
     inkscape:deskcolor="#d1d1d1"
     inkscape:zoom="0.33216085"
     inkscape:cx="251.38423"
     inkscape:cy="231.8154"
     inkscape:window-width="1728"
     inkscape:window-height="1051"
     inkscape:window-x="0"
     inkscape:window-y="38"
     inkscape:window-maximized="1"
     inkscape:current-layer="svg12" /><defs
     id="defs2"><radialGradient
       id="lorc-anvil-gradient-0"><stop
         offset="0%"
         stop-color="#830000"
         stop-opacity="1"
         id="stop1" /><stop
         offset="100%"
         stop-color="#000"
         stop-opacity="1"
         id="stop2" /></radialGradient></defs><path
     d="M0 0h512v512H0z"
     fill="url(#pattern)"
     id="path2" /><svg
     version="1.1"
     id="svg11"><defs
       id="defs6"><filter
         id="b"
         x="-0.023338979"
         width="1.046678"
         y="-0.023448784"
         height="1.0468976"
         color-interpolation-filters="sRGB"><feGaussianBlur
           stdDeviation="4.823"
           id="feGaussianBlur2" /></filter><filter
         id="a"
         x="-0.012011281"
         width="1.0240226"
         y="-0.011988317"
         height="1.0239766"
         color-interpolation-filters="sRGB"><feGaussianBlur
           stdDeviation="2.55"
           id="feGaussianBlur3" /></filter><filter
         id="c"
         x="-0.11244604"
         width="1.2248921"
         y="-0.082623731"
         height="1.1652475"
         color-interpolation-filters="sRGB"><feGaussianBlur
           stdDeviation="15.63"
           id="feGaussianBlur4" /></filter><filter
         id="e"
         x="-0.23758603"
         width="1.4751721"
         y="-0.24869778"
         height="1.4973956"
         color-interpolation-filters="sRGB"><feGaussianBlur
           stdDeviation="18.7"
           id="feGaussianBlur5" /></filter><filter
         id="d"
         x="-0.21301439"
         width="1.4260288"
         y="-0.15141701"
         height="1.302834"
         color-interpolation-filters="sRGB"><feGaussianBlur
           stdDeviation="18.7"
           id="feGaussianBlur6" /></filter></defs><path
       d="M196.6 1.207c-2.5 11.323-4.8 22.703-10.2 33.383-7-10.68-12.6-20.91-16.7-31.988L2.494 4.338C13 104.9 10.86 175.3 1.979 278.3L15.4 295.5l-9.494 6.3L2.6 462.7l1.019 45.9 112.681 3.1c3.6-16.1 6.5-32.5 13.2-47.3 4.5 14.4 5.7 29.4 7 44.4l160 .3c.8-6.1.7-8.1 2.3-14.4 5.1 4.5 7.8 9.5 10.6 14.5.8-10.1 3.9-19.8 7-29.5 4.8 9.2 6.7 19.4 8.8 29.5l185.2.4-4.6-78.2-21.4-8.2 21.3-4.9 5.8-395.47c-7-6.73-13.3-13.744-18-21.465l-15.1.114-2.1 20.321-1.4 47.23.8 84.87-8.6-97.14c9.3-16.86 2.2-39.69 5.7-55.239-92.1 1.696-184.1.685-276.2-.314z"
       overflow="visible"
       color="#000"
       fill="#ebc893"
       fill-rule="evenodd"
       stroke="#e0aa58"
       enable-background="accumulate"
       id="path6" /><path
       d="M196.6 1.203c-2.5 11.327-4.8 22.707-10.2 33.387-7-10.68-12.6-20.91-16.7-31.99L2.494 4.336C13 104.9 10.86 175.3 1.979 278.3L15.4 295.5l-9.494 6.3L2.6 462.7l1.019 45.9 112.681 3.1c.5-2.1-7.9-2.3-7.4-4.5L5.244 504.5l-.914-47.3 4.63-153.7 12.42-9-13.093-16.8C16.95 177.3 16.36 104 6.113 5.992l162.687.164c4 10.804 10.3 24.254 17.1 34.664 5.3-10.41 9.5-25.97 12-37.02 89.8.974 173.8 3.521 263.6 1.867 4.6 1.226 10.6.431 11.3-4.149-92.1 1.696-184.1.684-276.2-.315zm296.9.158l-15.1.116-.6 6.277 13.5-2.557c4.6 7.533 9.7 12.383 16.6 18.943l-4.6 389.06-19.9 9.9 4.1-.6 18.2-4.2 5.8-395.47c-7-6.73-13.3-13.748-18-21.469zm9.6 435.739l3.5 69.7-177.7.1c.4 2.1-4.1.2-3.7 2.3l185.2.4-4.6-78.2zm-370 25.1c-1 2.2-2.9.4-3.7 2.6 4.2 14 5.8 29.5 7.1 44l158 .3c1.9-5 .8-9.7 4.3-14.4 5.1 4.5 7.8 9.5 10.6 14.5.8-10.1 3.9-19.8 7-29.5 1.8 3.4 3.2 7 4.3 10.6-1.4-5.6-2.4-8.3-5.1-13.4-3 9.4-6.7 16.2-7.5 26-2.7-4.9-5.4-9.7-10.4-14.1-3.4 4.6-6.2 9.1-8 14l-147.6 3.4c-3.4-14.6-7.1-30.3-9-44z"
       overflow="visible"
       color="#000"
       opacity=".527"
       fill="#c87137"
       fill-rule="evenodd"
       filter="url(#a)"
       enable-background="accumulate"
       id="path7" /><path
       d="M200.1 16.1c-2.3 10.67-10.5 21.38-15.6 31.44-6.6-10.06-13.9-19.69-17.7-30.12L17.34 19.05C24.61 113.6 7.605 179.3 16.85 277l18.26 20.1L10.34 309l7.1 141.6.96 43.3 90.2 3.4c3.4-15.2 15-35.6 21.3-49.6 4.3 13.6 15.4 36.7 16.6 50.9l45.1.8 13.8-18.7 14.4 22.2 68.7-8.6c1.8-4.7 4.5-9.1 7.8-13.5 4.8 4.2 7.4 8.9 10 13.6.8-9.5 7.7-19.6 10.6-28.7 4.5 8.6 19.9 28.9 33.1 33.9l114.6 5.6 22.3-14.7 19.4 14.7-14.5-67.6-34.6-14.2 37.5-15.1 2.1-96.9-14.5-21.9 15.2-13.4 5.1-239.63c-5.2-21.09-11.8-24.89-16.9-20.22l-4.2 2.11 2 19.14.7 44.47-7.1 124.23-18.3-137.78c8.8-15.88-3.9-35.38-.6-50.02-67.1 1.24-140.4-13.332-202.8-3.28-14 2.25-23.7 21.31-36.9 24.48-4.3 1.03-13.9-23.45-18.4-23.5z"
       overflow="visible"
       enable-background="accumulate"
       filter="url(#b)"
       fill-rule="evenodd"
       fill="#f6e7d0"
       color="#000"
       id="path8" /><path
       d="M354 27.39l-70.3 96.91 46.4 97.6-56.2 43.6 33 74.4-30.2 63.2 69.8 48.8 31.6 29.5 31.6-13.3L365.9 335l55.5-36.5 2.1-146.1-56.9-101.83zM116.6 55.48L89.9 123.6s33.7 65.3 35.8 68.8c2.1 3.6-7 118-7 118l42.8 73.8s9.9-82.9 7.1-83.6c-2.8-.7-29.5-42.1-29.5-42.1l23.8-84.3-36.5-37.2z"
       color="#000"
       overflow="visible"
       fill="#f2dbb9"
       fill-rule="evenodd"
       filter="url(#c)"
       enable-background="accumulate"
       id="path9" /><path
       d="M39.33 172.1l-5.62 108.1L74.45 328 42.84 464.9l96.96-39.3 30.2 42.9 74.4-38.7-80.8-169.9-60.4-16.9z"
       color="#000"
       overflow="visible"
       fill="#eed3a4"
       fill-rule="evenodd"
       enable-background="accumulate"
       filter="url(#d)"
       id="path10" /><path
       d="M266.9 66.72L324.5 191 434 221.2l21.8-111.6-41.4-68.86z"
       color="#000"
       overflow="visible"
       fill="#eed3a4"
       fill-rule="evenodd"
       enable-background="accumulate"
       filter="url(#e)"
       id="path11" /></svg><path
     style="fill:#3e3126;fill-opacity:1;stroke-width:1.14652"
     d="m 296.3973,429.56126 c -10.70202,-4.78656 -13.8462,-18.52596 -6.0918,-26.61981 3.39377,-3.54235 4.17285,-5.6192 3.787,-10.09518 l -0.4858,-5.63531 -20.63743,-0.37892 c -18.28664,-0.33575 -21.91526,-0.86104 -31.85545,-4.61141 -6.16992,-2.32787 -11.38007,-4.00658 -11.57812,-3.73049 -6.46199,9.00857 -7.08522,10.50551 -5.56016,13.3551 3.91402,7.31341 0.70039,18.82167 -6.26112,22.42161 -7.49879,3.87778 -14.73361,2.81581 -20.5686,-3.01917 -4.26094,-4.26094 -5.19757,-6.35459 -5.19757,-11.6181 0,-5.26352 0.93663,-7.35717 5.19757,-11.61812 3.45986,-3.45985 6.6542,-5.2039 9.55437,-5.2165 3.28804,-0.0143 5.20586,-1.32963 7.81806,-5.3621 l 3.46126,-5.34316 -13.77998,-13.46869 c -17.69874,-17.29891 -17.85811,-20.91024 -1.15648,-26.20622 6.84169,-2.16946 9.6292,-6.30246 7.24958,-10.74884 -2.2567,-4.21668 -4.68004,-3.92423 -24.57915,2.96617 -15.31954,5.30464 -17.52584,6.51017 -18.48612,10.10079 -2.52238,9.43151 -11.70127,14.40077 -21.29234,11.5272 -16.05102,-4.809 -15.84852,-27.6243 0.2881,-32.45895 5.73872,-1.71936 6.99363,-1.58963 12.19789,1.26102 4.97693,2.72613 6.66793,2.94617 11.90297,1.54887 l 6.1019,-1.62869 -0.86377,-13.33238 c -0.95276,-14.70601 0.71648,-23.86967 6.41788,-35.23252 l 3.55971,-7.0945 -5.60061,-5.46885 c -4.89736,-4.78214 -6.50715,-5.45065 -12.82031,-5.32393 -8.76349,0.17591 -14.35937,-3.12062 -17.31822,-10.20214 -3.42929,-8.20745 -0.99396,-15.59379 6.9456,-21.06592 10.74452,-7.40537 27.15193,2.65315 25.77291,15.80002 -0.34728,3.31081 0.83897,5.74463 4.78357,9.81443 5.82812,6.01311 7.89301,6.5738 10.89381,2.95806 1.12006,-1.34959 6.19166,-5.26066 11.27025,-8.69127 12.22587,-8.25865 27.16932,-22.68345 33.1431,-31.99277 l 4.82077,-7.51251 -7.42845,-7.54184 c -6.87999,-6.98504 -7.97746,-7.54185 -14.8648,-7.54185 -6.15064,0 -8.19544,-0.75905 -11.8266,-4.39022 -7.85341,-7.85341 -7.85341,-16.99751 0,-24.85093 5.52367,-5.52367 15.75278,-6.13537 21.88862,-1.30891 4.52998,3.56329 7.86438,12.27751 6.42869,16.80096 -0.77107,2.42944 1.59993,5.96573 10.77813,16.07534 11.5418,12.71306 15.05486,14.80011 18.72867,11.12631 3.39888,-3.39889 1.87284,-7.64263 -6.02772,-16.76235 l -7.86215,-9.07541 1.89433,-6.41915 c 4.02853,-13.65116 14.91354,-28.49284 25.06228,-34.17236 3.8704,-2.16598 1.8736,-14.02003 -2.65676,-15.77189 -9.69024,-3.74716 -13.94114,-15.693746 -8.61517,-24.21181 6.30693,-10.086945 18.95455,-11.527953 27.0467,-3.081581 5.68123,5.929935 6.00665,15.556131 0.76553,22.645131 -3.01142,4.07316 -3.35952,5.69713 -2.23924,10.44678 l 1.32648,5.6239 10.64708,0.96714 c 11.75046,1.06737 27.32032,6.74889 35.41526,12.92319 2.88323,2.19915 5.44846,3.75701 5.7005,3.46191 4.09112,-4.7901 7.99273,-13.41836 6.8698,-15.19232 -0.75199,-1.18796 -1.37779,-5.07271 -1.39066,-8.63276 -0.0496,-13.74216 14.59442,-21.560717 25.96446,-13.86257 13.02307,8.81736 8.15604,28.68716 -7.64573,31.21398 -4.86293,0.7776 -6.20578,1.97376 -9.91619,8.83295 l -4.29158,7.93356 5.39932,7.57924 c 2.96961,4.16858 7.53565,11.84513 10.14674,17.05899 l 4.74744,9.47977 5.54502,-1.91974 c 4.24235,-1.46873 6.31105,-3.51624 8.80567,-8.71541 4.27567,-8.91114 12.2399,-13.20368 19.84244,-10.69461 10.19971,3.36621 14.94406,12.41108 11.68688,22.28045 -3.23731,9.8091 -14.16631,13.97998 -23.6603,9.02958 -4.10375,-2.1398 -5.3366,-2.14555 -12.22959,-0.0571 -4.21617,1.27747 -11.56366,3.41651 -16.32774,4.75341 -10.74653,3.01572 -13.11415,5.45229 -10.61908,10.92835 1.67491,3.67606 2.27322,3.87734 8.25042,2.77574 12.31916,-2.27045 15.34148,-1.84202 16.52453,2.34245 0.59426,2.10196 1.14905,11.21682 1.23286,20.25525 l 0.15239,16.43351 h 4.21292 c 3.13491,0 4.69342,-1.08553 6.09074,-4.24229 2.20557,-4.98272 9.19606,-9.516 14.67404,-9.516 15.99696,0 23.56334,18.89931 11.78133,29.42745 -6.17754,5.5201 -16.31106,5.86671 -22.24686,0.76095 -3.10973,-2.67488 -5.4686,-3.32639 -10.57354,-2.92038 l -6.57083,0.5226 -1.93132,8.653 c -2.70184,12.10525 -11.63976,37.33663 -16.95833,47.87266 -2.45632,4.86593 -4.46603,9.18592 -4.46603,9.59998 0,0.41405 2.46389,2.42709 5.47532,4.4734 4.74408,3.22369 6.67629,3.61167 14.46812,2.90513 8.75694,-0.79404 9.13969,-0.66858 14.59192,4.78367 5.19134,5.19133 5.54151,6.11021 4.80811,12.6169 -1.00449,8.91186 -6.0157,14.22298 -14.49259,15.35997 -10.42261,1.39796 -17.6146,-4.71051 -19.24488,-16.34554 -0.33324,-2.37824 -2.90225,-5.49486 -6.80158,-8.25139 l -6.26608,-4.42959 -9.00803,9.14898 c -9.74254,9.89498 -21.72832,18.81904 -25.27559,18.81904 -3.49745,0 -5.21902,-3.20435 -6.38646,-11.88714 -1.02082,-7.59228 -3.7977,-12.57203 -7.01059,-12.57203 -2.56878,0 -7.78748,6.30745 -6.97358,8.42844 0.43841,1.1425 1.67639,10.43756 2.75105,20.6557 1.89255,17.99471 2.08917,18.64836 6.2579,20.8041 2.36717,1.22411 5.40079,4.52574 6.74137,7.33696 6.68181,14.0119 -7.91285,29.42205 -21.92828,23.15353 z m -17.71888,-95.15929 c 7.94762,-6.42362 11.25761,-12.73355 12.21434,-23.2845 1.23523,-13.6224 -0.58833,-22.38485 -5.92301,-28.4607 -11.99042,-13.65633 -32.04039,-7.84849 -41.80495,12.10957 -8.57937,17.5356 -5.87054,35.46814 6.35972,42.10147 8.83179,4.79009 21.50241,3.71842 29.1539,-2.46584 z m 68.29683,-38.84118 c 5.2046,-6.18532 4.99493,-10.82449 -0.78682,-17.40955 -5.72581,-6.52134 -10.64593,-6.96791 -16.14815,-1.46568 -3.32154,3.32153 -3.80886,4.90046 -3.11323,10.0868 1.7239,12.85266 12.61214,17.62569 20.0482,8.78843 z m -24.12003,-75.96946 c 4.57581,-3.70654 6.67589,-8.40103 6.67589,-14.92319 0,-8.33845 -8.04837,-15.99896 -16.80901,-15.99896 -8.16803,0 -14.71359,4.53442 -16.64547,11.53113 -1.93261,6.99935 0.35141,14.97663 5.43237,18.97331 5.06512,3.98423 16.66312,4.21118 21.34622,0.41771 z M 112.27598,200.31698 c -19.733511,-7.05177 -33.451411,-25.16963 -33.451411,-44.18079 0,-4.77412 1.05517,-7.04537 5.19757,-11.18778 5.78218,-5.78218 10.64569,-6.56946 17.782941,-2.87865 4.50527,2.32977 9.12216,9.24156 9.12216,13.65649 0,2.97356 5.38996,8.48376 8.29864,8.48376 5.15438,0 7.39947,-4.81973 6.45486,-13.85724 -0.76795,-7.34736 -0.45415,-9.08903 2.04508,-11.3508 6.99229,-6.32794 22.9996,4.31688 25.35258,16.85939 3.80677,20.29181 -7.31281,40.53225 -24.66822,44.90239 -8.14165,2.05009 -9.23152,2.01991 -16.1342,-0.44677 z m 58.43977,-72.12353 c -5.74697,-4.83575 -7.30555,-12.04007 -4.91536,-22.72056 2.14283,-9.575138 9.12289,-18.601846 15.46062,-19.993852 11.85539,-2.60387 22.94768,5.754976 26.0535,19.633202 1.65448,7.393 1.54125,8.96957 -1.01998,14.20258 -5.98977,12.2381 -25.73146,17.1646 -35.57878,8.87863 z"
     id="path1" /></svg>
