<?xml version="1.0" encoding="UTF-8" standalone="no"?>
<svg
   viewBox="0 0 512 512"
   style="height: 512px; width: 512px;"
   version="1.1"
   id="svg12"
   sodipodi:docname="disintegrate copy.svg"
   inkscape:version="1.4 (e7c3feb1, 2024-10-09)"
   xmlns:inkscape="http://www.inkscape.org/namespaces/inkscape"
   xmlns:sodipodi="http://sodipodi.sourceforge.net/DTD/sodipodi-0.dtd"
   xmlns="http://www.w3.org/2000/svg"
   xmlns:svg="http://www.w3.org/2000/svg">
  <sodipodi:namedview
     id="namedview12"
     pagecolor="#505050"
     bordercolor="#ffffff"
     borderopacity="1"
     inkscape:showpageshadow="0"
     inkscape:pageopacity="0"
     inkscape:pagecheckerboard="1"
     inkscape:deskcolor="#d1d1d1"
     inkscape:zoom="0.32558877"
     inkscape:cx="285.63639"
     inkscape:cy="230.35193"
     inkscape:window-width="1728"
     inkscape:window-height="1051"
     inkscape:window-x="0"
     inkscape:window-y="38"
     inkscape:window-maximized="1"
     inkscape:current-layer="svg12" />
  <defs
     id="defs2">
    <radialGradient
       id="lorc-disintegrate-gradient-0">
      <stop
         offset="0%"
         stop-color="#830000"
         stop-opacity="1"
         id="stop1" />
      <stop
         offset="100%"
         stop-color="#000"
         stop-opacity="1"
         id="stop2" />
    </radialGradient>
  </defs>
  <path
     d="M0 0h512v512H0z"
     fill="url(#pattern)"
     id="path2" />
  <svg
     version="1.1"
     id="svg11">
    <defs
       id="defs6">
      <filter
         id="b"
         x="-0.023338979"
         width="1.046678"
         y="-0.023448784"
         height="1.0468976"
         color-interpolation-filters="sRGB">
        <feGaussianBlur
           stdDeviation="4.823"
           id="feGaussianBlur2" />
      </filter>
      <filter
         id="a"
         x="-0.012011281"
         width="1.0240226"
         y="-0.011988317"
         height="1.0239766"
         color-interpolation-filters="sRGB">
        <feGaussianBlur
           stdDeviation="2.55"
           id="feGaussianBlur3" />
      </filter>
      <filter
         id="c"
         x="-0.11244604"
         width="1.2248921"
         y="-0.082623731"
         height="1.1652475"
         color-interpolation-filters="sRGB">
        <feGaussianBlur
           stdDeviation="15.63"
           id="feGaussianBlur4" />
      </filter>
      <filter
         id="e"
         x="-0.23758603"
         width="1.4751721"
         y="-0.24869778"
         height="1.4973956"
         color-interpolation-filters="sRGB">
        <feGaussianBlur
           stdDeviation="18.7"
           id="feGaussianBlur5" />
      </filter>
      <filter
         id="d"
         x="-0.21301439"
         width="1.4260288"
         y="-0.15141701"
         height="1.302834"
         color-interpolation-filters="sRGB">
        <feGaussianBlur
           stdDeviation="18.7"
           id="feGaussianBlur6" />
      </filter>
    </defs>
    <path
       d="M196.6 1.207c-2.5 11.323-4.8 22.703-10.2 33.383-7-10.68-12.6-20.91-16.7-31.988L2.494 4.338C13 104.9 10.86 175.3 1.979 278.3L15.4 295.5l-9.494 6.3L2.6 462.7l1.019 45.9 112.681 3.1c3.6-16.1 6.5-32.5 13.2-47.3 4.5 14.4 5.7 29.4 7 44.4l160 .3c.8-6.1.7-8.1 2.3-14.4 5.1 4.5 7.8 9.5 10.6 14.5.8-10.1 3.9-19.8 7-29.5 4.8 9.2 6.7 19.4 8.8 29.5l185.2.4-4.6-78.2-21.4-8.2 21.3-4.9 5.8-395.47c-7-6.73-13.3-13.744-18-21.465l-15.1.114-2.1 20.321-1.4 47.23.8 84.87-8.6-97.14c9.3-16.86 2.2-39.69 5.7-55.239-92.1 1.696-184.1.685-276.2-.314z"
       overflow="visible"
       color="#000"
       fill="#ebc893"
       fill-rule="evenodd"
       stroke="#e0aa58"
       enable-background="accumulate"
       id="path6" />
    <path
       d="M196.6 1.203c-2.5 11.327-4.8 22.707-10.2 33.387-7-10.68-12.6-20.91-16.7-31.99L2.494 4.336C13 104.9 10.86 175.3 1.979 278.3L15.4 295.5l-9.494 6.3L2.6 462.7l1.019 45.9 112.681 3.1c.5-2.1-7.9-2.3-7.4-4.5L5.244 504.5l-.914-47.3 4.63-153.7 12.42-9-13.093-16.8C16.95 177.3 16.36 104 6.113 5.992l162.687.164c4 10.804 10.3 24.254 17.1 34.664 5.3-10.41 9.5-25.97 12-37.02 89.8.974 173.8 3.521 263.6 1.867 4.6 1.226 10.6.431 11.3-4.149-92.1 1.696-184.1.684-276.2-.315zm296.9.158l-15.1.116-.6 6.277 13.5-2.557c4.6 7.533 9.7 12.383 16.6 18.943l-4.6 389.06-19.9 9.9 4.1-.6 18.2-4.2 5.8-395.47c-7-6.73-13.3-13.748-18-21.469zm9.6 435.739l3.5 69.7-177.7.1c.4 2.1-4.1.2-3.7 2.3l185.2.4-4.6-78.2zm-370 25.1c-1 2.2-2.9.4-3.7 2.6 4.2 14 5.8 29.5 7.1 44l158 .3c1.9-5 .8-9.7 4.3-14.4 5.1 4.5 7.8 9.5 10.6 14.5.8-10.1 3.9-19.8 7-29.5 1.8 3.4 3.2 7 4.3 10.6-1.4-5.6-2.4-8.3-5.1-13.4-3 9.4-6.7 16.2-7.5 26-2.7-4.9-5.4-9.7-10.4-14.1-3.4 4.6-6.2 9.1-8 14l-147.6 3.4c-3.4-14.6-7.1-30.3-9-44z"
       overflow="visible"
       color="#000"
       opacity=".527"
       fill="#c87137"
       fill-rule="evenodd"
       filter="url(#a)"
       enable-background="accumulate"
       id="path7" />
    <path
       d="M200.1 16.1c-2.3 10.67-10.5 21.38-15.6 31.44-6.6-10.06-13.9-19.69-17.7-30.12L17.34 19.05C24.61 113.6 7.605 179.3 16.85 277l18.26 20.1L10.34 309l7.1 141.6.96 43.3 90.2 3.4c3.4-15.2 15-35.6 21.3-49.6 4.3 13.6 15.4 36.7 16.6 50.9l45.1.8 13.8-18.7 14.4 22.2 68.7-8.6c1.8-4.7 4.5-9.1 7.8-13.5 4.8 4.2 7.4 8.9 10 13.6.8-9.5 7.7-19.6 10.6-28.7 4.5 8.6 19.9 28.9 33.1 33.9l114.6 5.6 22.3-14.7 19.4 14.7-14.5-67.6-34.6-14.2 37.5-15.1 2.1-96.9-14.5-21.9 15.2-13.4 5.1-239.63c-5.2-21.09-11.8-24.89-16.9-20.22l-4.2 2.11 2 19.14.7 44.47-7.1 124.23-18.3-137.78c8.8-15.88-3.9-35.38-.6-50.02-67.1 1.24-140.4-13.332-202.8-3.28-14 2.25-23.7 21.31-36.9 24.48-4.3 1.03-13.9-23.45-18.4-23.5z"
       overflow="visible"
       enable-background="accumulate"
       filter="url(#b)"
       fill-rule="evenodd"
       fill="#f6e7d0"
       color="#000"
       id="path8" />
    <path
       d="M354 27.39l-70.3 96.91 46.4 97.6-56.2 43.6 33 74.4-30.2 63.2 69.8 48.8 31.6 29.5 31.6-13.3L365.9 335l55.5-36.5 2.1-146.1-56.9-101.83zM116.6 55.48L89.9 123.6s33.7 65.3 35.8 68.8c2.1 3.6-7 118-7 118l42.8 73.8s9.9-82.9 7.1-83.6c-2.8-.7-29.5-42.1-29.5-42.1l23.8-84.3-36.5-37.2z"
       color="#000"
       overflow="visible"
       fill="#f2dbb9"
       fill-rule="evenodd"
       filter="url(#c)"
       enable-background="accumulate"
       id="path9" />
    <path
       d="M39.33 172.1l-5.62 108.1L74.45 328 42.84 464.9l96.96-39.3 30.2 42.9 74.4-38.7-80.8-169.9-60.4-16.9z"
       color="#000"
       overflow="visible"
       fill="#eed3a4"
       fill-rule="evenodd"
       enable-background="accumulate"
       filter="url(#d)"
       id="path10" />
    <path
       d="M266.9 66.72L324.5 191 434 221.2l21.8-111.6-41.4-68.86z"
       color="#000"
       overflow="visible"
       fill="#eed3a4"
       fill-rule="evenodd"
       enable-background="accumulate"
       filter="url(#e)"
       id="path11" />
  </svg>
  <path
     id="path1"
     style="fill:#3e3126;fill-opacity:1;stroke-width:0.931292"
     d="m 302.56307,101.62179 h 0.002 c 2.58898,-0.0242 5.16922,0.0466 7.74144,0.203 -0.0334,0.0903 -0.0847,0.16918 -0.1172,0.25952 -6.28808,17.40956 35.89125,35.36226 45.75177,13.94256 51.22754,31.78217 64.32304,108.9722 33.58393,162.21878 -0.66123,1.1427 -1.35063,2.23829 -2.06773,3.28786 l -5.87881,6.37482 c 6.94742,4.03622 11.86503,10.97405 11.32021,19.84648 -0.002,0.0401 10e-4,0.078 0,0.1172 5.42384,0.83443 10.40819,4.88301 10.0394,10.85351 -0.74038,12.07886 -12.85137,13.26685 -19.23537,8.26676 -14.45829,10.86163 -40.69417,1.33978 -40.59917,-18.01524 -1.82068,0.65004 -3.61278,1.28557 -5.47071,1.95053 l -25.26072,-25.69809 -12.42734,12.19503 20.08298,20.42829 c -10.07654,4.53541 -20.00138,10.36893 -28.75364,19.12027 l -0.81622,0.81412 -0.58181,0.9941 -6.2032,10.7091 -13.79188,-7.97584 9.60408,-16.64442 -15.07688,-8.70206 -9.60408,16.64651 -12.71824,-7.33543 9.60617,-16.64653 -15.07687,-8.69997 -0.97736,-0.56297 -9.60826,16.64233 -11.99831,-6.94197 9.60408,-16.64861 -13.67048,-7.89004 -1.40431,-0.80993 -0.70528,-0.40811 -9.61036,16.64442 -13.48632,-7.77493 6.19274,-10.70283 c 5.15005,-11.74358 3.79167,-26.72268 2.73744,-36.6102 l 28.17184,7.27475 4.36359,-16.84744 -0.52531,-0.13394 0.0397,-0.15069 -34.88778,-9.02645 c -0.35306,-1.94146 -0.69699,-3.8116 -1.04433,-5.71348 -0.0126,0.007 -0.0251,0.01 -0.0377,0.0167 -0.20499,-1.16376 -0.42491,-2.35546 -0.61948,-3.50342 -2.0507,-12.07884 -3.41067,-23.16128 -1.86473,-33.67184 l 4.86169,-15.5394 c 0.44887,-0.89404 0.91325,-1.79039 1.42732,-2.67885 9.05775,-15.6876 21.81656,-29.10951 36.66881,-39.52136 1.81042,18.17602 27.105,26.6593 41.15167,15.88891 7.3423,11.72217 31.28164,12.54563 32.56682,-8.35255 0.74504,-12.13474 -13.1943,-19.02408 -23.63035,-15.71521 -0.7888,-4.73748 -3.20677,-8.77125 -6.57992,-11.90411 8.32574,-2.1373 16.80737,-3.44208 25.26068,-3.78387 1.18461,-0.0466 2.36975,-0.0738 3.55156,-0.0858 z m 5.79511,53.40321 c -5.97703,-0.0596 -11.83719,3.54955 -12.37084,12.25154 -0.85492,13.93212 24.47124,18.56436 25.6102,0 0.45632,-7.40005 -6.46796,-12.18261 -13.23936,-12.25154 z m -76.16504,4.45359 c -4.4581,0.13488 -8.87999,1.34325 -13.01333,3.80479 -3.09571,1.60485 -5.80997,3.84914 -7.91725,6.8206 -0.84912,1.01495 -1.67212,2.10698 -2.46538,3.28577 -4.73284,7.03384 -4.70067,15.10092 -1.68056,22.56928 2.12853,6.51239 6.67289,11.96009 12.39805,16.01447 9.78621,7.79638 22.89554,11.58911 34.33108,6.38948 4.92507,-1.61826 9.20784,-4.55586 12.15945,-9.05786 7.32665,3.28467 17.68016,0.86784 18.40032,-10.85979 0.47483,-7.72539 -7.09442,-12.52173 -14.133,-12.15736 -0.5563,-2.3548 -1.3884,-4.59894 -2.51352,-6.69083 l 0.002,-0.006 c -4.00318,-7.44365 -11.29021,-13.10448 -19.46767,-16.34514 -5.09178,-2.50158 -10.61182,-3.9322 -16.0982,-3.76713 z M 78.502719,169.79423 c 4.424082,-0.38917 8.861353,2.43907 11.190464,6.3811 2.74007,4.63798 2.55751,10.80476 -3.993158,15.14176 -10.490298,6.9491 -25.517913,-10.72826 -11.537874,-19.98461 1.39315,-0.92287 2.865863,-1.40852 4.340568,-1.53825 z m 43.845171,17.12788 c 6.04166,0.51822 11.77713,4.58874 14.98061,10.0101 h 0.002 v 0.002 c 4.30698,7.28841 4.02333,16.99786 -6.27645,23.8187 -16.48954,10.92031 -40.103437,-16.8533 -18.13035,-31.40528 2.18979,-1.45028 4.50321,-2.21721 6.82059,-2.42352 0.86901,-0.0772 1.74041,-0.0763 2.60351,-0.002 z m 217.17908,34.10924 c -8.52596,0.25703 -16.94629,4.2884 -23.40014,13.87977 -18.23095,27.09405 33.76543,69.63546 58.06189,33.52744 13.38823,-19.89797 -11.08609,-48.11872 -34.66175,-47.40721 z m -246.165027,4.06432 c 4.42412,-0.38839 8.860667,2.44153 11.190457,6.38318 2.74051,4.63886 2.57167,10.83344 -3.9785,15.17106 -10.490747,6.94835 -25.534273,-10.75655 -11.554617,-20.01391 1.39292,-0.92274 2.86797,-1.41087 4.34266,-1.54033 z m 55.868587,2.92789 c 4.2581,0.33953 8.49807,2.66416 10.52284,6.40203 v 0.006 c 1.5819,2.92581 1.80429,6.72219 -0.3788,11.10466 -0.67961,1.36334 -1.58086,2.4318 -2.64327,3.27739 11.32015,5.39553 19.00193,17.85278 10.86397,34.1846 -12.32411,24.74032 -60.38056,7.60067 -43.94981,-25.3737 3.30243,-6.6254 9.18495,-10.24998 15.68171,-11.37045 -2.48266,-3.07991 -3.33876,-7.47604 -0.72621,-12.72033 2.0949,-4.20294 6.37148,-5.85 10.62957,-5.51047 z m 137.67804,1.27245 -1.39802,0.98364 -44.55256,31.32157 0.002,0.002 -0.0147,0.0107 19.98042,11.52741 20.97661,12.11969 z m -110.8519,78.16999 12.53197,7.21614 0.92504,0.53367 -10.37425,17.99431 0.72831,0.41858 14.34439,8.28349 0.002,-0.002 0.72832,0.42067 10.39098,-17.98176 11.97319,6.92734 -10.38681,17.98802 7.77285,4.48917 0.002,-0.006 8.30233,4.79261 10.39099,-17.98593 12.71824,7.33543 -10.39099,17.98595 15.07269,8.69997 10.391,-17.98385 13.79606,7.97166 -20.08298,34.74966 -49.83282,-28.76411 v -0.002 l -49.08119,-28.34625 z m 169.98743,34.51526 h 0.002 c 8.499,-0.2308 16.53445,10.03941 11.34952,17.87082 -3.2353,4.88462 -7.47018,6.34232 -11.37881,5.73232 2.27795,6.18658 2.07738,13.09208 -2.00914,19.26467 -20.34125,30.71669 -59.21137,-2.32913 -43.94563,-25.37579 10.0747,-15.21357 24.7058,-14.79069 35.03847,-7.68494 0.20116,-1.34292 0.67425,-2.65799 1.51522,-3.92827 2.70381,-4.08182 6.10339,-5.78586 9.42828,-5.87881 z m 43.68193,0.66971 h 0.002 c 9.59511,0.0969 19.41724,6.85918 18.77285,17.34553 -1.6158,26.30525 -37.47533,19.74057 -36.26279,0 0.75715,-12.33029 9.02241,-17.43122 17.48784,-17.34553 z m 41.79419,30.87789 c 6.10462,0.0614 12.37133,4.35752 11.96063,11.0293 -1.02628,16.7353 -23.85078,12.55938 -23.07784,0 0.48055,-7.84148 5.73063,-11.08333 11.11721,-11.0293 z m -55.32445,14.78387 c 6.10461,0.0625 12.37341,4.35848 11.96272,11.02932 -1.02721,16.73535 -23.88127,12.55945 -23.10923,0 0.48146,-7.84148 5.75898,-11.08332 11.14651,-11.02932 z"
     sodipodi:nodetypes="ssccccccccccccccccccccccccccccccccccccccccccccccccccccccscccccccccccccccccccscccscccccccccsccscccssccccccccscccccccccccccccccccccccccccccccccssccccccsssccscccccccc" />
</svg>
