<?xml version="1.0" encoding="UTF-8" standalone="no"?>
<svg
   viewBox="0 0 512 512"
   style="height: 512px; width: 512px;"
   version="1.1"
   id="svg12"
   sodipodi:docname="disintegrate.svg"
   inkscape:version="1.4 (e7c3feb1, 2024-10-09)"
   xmlns:inkscape="http://www.inkscape.org/namespaces/inkscape"
   xmlns:sodipodi="http://sodipodi.sourceforge.net/DTD/sodipodi-0.dtd"
   xmlns="http://www.w3.org/2000/svg"
   xmlns:svg="http://www.w3.org/2000/svg">
  <sodipodi:namedview
     id="namedview12"
     pagecolor="#505050"
     bordercolor="#ffffff"
     borderopacity="1"
     inkscape:showpageshadow="0"
     inkscape:pageopacity="0"
     inkscape:pagecheckerboard="1"
     inkscape:deskcolor="#d1d1d1"
     inkscape:zoom="0.32558877"
     inkscape:cx="282.56503"
     inkscape:cy="230.35193"
     inkscape:window-width="1728"
     inkscape:window-height="1051"
     inkscape:window-x="0"
     inkscape:window-y="38"
     inkscape:window-maximized="1"
     inkscape:current-layer="svg12" />
  <defs
     id="defs2">
    <radialGradient
       id="lorc-disintegrate-gradient-0">
      <stop
         offset="0%"
         stop-color="#830000"
         stop-opacity="1"
         id="stop1" />
      <stop
         offset="100%"
         stop-color="#000"
         stop-opacity="1"
         id="stop2" />
    </radialGradient>
  </defs>
  <path
     d="M0 0h512v512H0z"
     fill="url(#pattern)"
     id="path2" />
  <svg
     version="1.1"
     id="svg11">
    <defs
       id="defs6">
      <filter
         id="b"
         x="-0.023338979"
         width="1.046678"
         y="-0.023448784"
         height="1.0468976"
         color-interpolation-filters="sRGB">
        <feGaussianBlur
           stdDeviation="4.823"
           id="feGaussianBlur2" />
      </filter>
      <filter
         id="a"
         x="-0.012011281"
         width="1.0240226"
         y="-0.011988317"
         height="1.0239766"
         color-interpolation-filters="sRGB">
        <feGaussianBlur
           stdDeviation="2.55"
           id="feGaussianBlur3" />
      </filter>
      <filter
         id="c"
         x="-0.11244604"
         width="1.2248921"
         y="-0.082623731"
         height="1.1652475"
         color-interpolation-filters="sRGB">
        <feGaussianBlur
           stdDeviation="15.63"
           id="feGaussianBlur4" />
      </filter>
      <filter
         id="e"
         x="-0.23758603"
         width="1.4751721"
         y="-0.24869778"
         height="1.4973956"
         color-interpolation-filters="sRGB">
        <feGaussianBlur
           stdDeviation="18.7"
           id="feGaussianBlur5" />
      </filter>
      <filter
         id="d"
         x="-0.21301439"
         width="1.4260288"
         y="-0.15141701"
         height="1.302834"
         color-interpolation-filters="sRGB">
        <feGaussianBlur
           stdDeviation="18.7"
           id="feGaussianBlur6" />
      </filter>
    </defs>
    <path
       d="M196.6 1.207c-2.5 11.323-4.8 22.703-10.2 33.383-7-10.68-12.6-20.91-16.7-31.988L2.494 4.338C13 104.9 10.86 175.3 1.979 278.3L15.4 295.5l-9.494 6.3L2.6 462.7l1.019 45.9 112.681 3.1c3.6-16.1 6.5-32.5 13.2-47.3 4.5 14.4 5.7 29.4 7 44.4l160 .3c.8-6.1.7-8.1 2.3-14.4 5.1 4.5 7.8 9.5 10.6 14.5.8-10.1 3.9-19.8 7-29.5 4.8 9.2 6.7 19.4 8.8 29.5l185.2.4-4.6-78.2-21.4-8.2 21.3-4.9 5.8-395.47c-7-6.73-13.3-13.744-18-21.465l-15.1.114-2.1 20.321-1.4 47.23.8 84.87-8.6-97.14c9.3-16.86 2.2-39.69 5.7-55.239-92.1 1.696-184.1.685-276.2-.314z"
       overflow="visible"
       color="#000"
       fill="#ebc893"
       fill-rule="evenodd"
       stroke="#e0aa58"
       enable-background="accumulate"
       id="path6" />
    <path
       d="M196.6 1.203c-2.5 11.327-4.8 22.707-10.2 33.387-7-10.68-12.6-20.91-16.7-31.99L2.494 4.336C13 104.9 10.86 175.3 1.979 278.3L15.4 295.5l-9.494 6.3L2.6 462.7l1.019 45.9 112.681 3.1c.5-2.1-7.9-2.3-7.4-4.5L5.244 504.5l-.914-47.3 4.63-153.7 12.42-9-13.093-16.8C16.95 177.3 16.36 104 6.113 5.992l162.687.164c4 10.804 10.3 24.254 17.1 34.664 5.3-10.41 9.5-25.97 12-37.02 89.8.974 173.8 3.521 263.6 1.867 4.6 1.226 10.6.431 11.3-4.149-92.1 1.696-184.1.684-276.2-.315zm296.9.158l-15.1.116-.6 6.277 13.5-2.557c4.6 7.533 9.7 12.383 16.6 18.943l-4.6 389.06-19.9 9.9 4.1-.6 18.2-4.2 5.8-395.47c-7-6.73-13.3-13.748-18-21.469zm9.6 435.739l3.5 69.7-177.7.1c.4 2.1-4.1.2-3.7 2.3l185.2.4-4.6-78.2zm-370 25.1c-1 2.2-2.9.4-3.7 2.6 4.2 14 5.8 29.5 7.1 44l158 .3c1.9-5 .8-9.7 4.3-14.4 5.1 4.5 7.8 9.5 10.6 14.5.8-10.1 3.9-19.8 7-29.5 1.8 3.4 3.2 7 4.3 10.6-1.4-5.6-2.4-8.3-5.1-13.4-3 9.4-6.7 16.2-7.5 26-2.7-4.9-5.4-9.7-10.4-14.1-3.4 4.6-6.2 9.1-8 14l-147.6 3.4c-3.4-14.6-7.1-30.3-9-44z"
       overflow="visible"
       color="#000"
       opacity=".527"
       fill="#c87137"
       fill-rule="evenodd"
       filter="url(#a)"
       enable-background="accumulate"
       id="path7" />
    <path
       d="M200.1 16.1c-2.3 10.67-10.5 21.38-15.6 31.44-6.6-10.06-13.9-19.69-17.7-30.12L17.34 19.05C24.61 113.6 7.605 179.3 16.85 277l18.26 20.1L10.34 309l7.1 141.6.96 43.3 90.2 3.4c3.4-15.2 15-35.6 21.3-49.6 4.3 13.6 15.4 36.7 16.6 50.9l45.1.8 13.8-18.7 14.4 22.2 68.7-8.6c1.8-4.7 4.5-9.1 7.8-13.5 4.8 4.2 7.4 8.9 10 13.6.8-9.5 7.7-19.6 10.6-28.7 4.5 8.6 19.9 28.9 33.1 33.9l114.6 5.6 22.3-14.7 19.4 14.7-14.5-67.6-34.6-14.2 37.5-15.1 2.1-96.9-14.5-21.9 15.2-13.4 5.1-239.63c-5.2-21.09-11.8-24.89-16.9-20.22l-4.2 2.11 2 19.14.7 44.47-7.1 124.23-18.3-137.78c8.8-15.88-3.9-35.38-.6-50.02-67.1 1.24-140.4-13.332-202.8-3.28-14 2.25-23.7 21.31-36.9 24.48-4.3 1.03-13.9-23.45-18.4-23.5z"
       overflow="visible"
       enable-background="accumulate"
       filter="url(#b)"
       fill-rule="evenodd"
       fill="#f6e7d0"
       color="#000"
       id="path8" />
    <path
       d="M354 27.39l-70.3 96.91 46.4 97.6-56.2 43.6 33 74.4-30.2 63.2 69.8 48.8 31.6 29.5 31.6-13.3L365.9 335l55.5-36.5 2.1-146.1-56.9-101.83zM116.6 55.48L89.9 123.6s33.7 65.3 35.8 68.8c2.1 3.6-7 118-7 118l42.8 73.8s9.9-82.9 7.1-83.6c-2.8-.7-29.5-42.1-29.5-42.1l23.8-84.3-36.5-37.2z"
       color="#000"
       overflow="visible"
       fill="#f2dbb9"
       fill-rule="evenodd"
       filter="url(#c)"
       enable-background="accumulate"
       id="path9" />
    <path
       d="M39.33 172.1l-5.62 108.1L74.45 328 42.84 464.9l96.96-39.3 30.2 42.9 74.4-38.7-80.8-169.9-60.4-16.9z"
       color="#000"
       overflow="visible"
       fill="#eed3a4"
       fill-rule="evenodd"
       enable-background="accumulate"
       filter="url(#d)"
       id="path10" />
    <path
       d="M266.9 66.72L324.5 191 434 221.2l21.8-111.6-41.4-68.86z"
       color="#000"
       overflow="visible"
       fill="#eed3a4"
       fill-rule="evenodd"
       enable-background="accumulate"
       filter="url(#e)"
       id="path11" />
  </svg>
  <path
     id="path1"
     style="fill:#3e3126;fill-opacity:1;stroke-width:0.869117"
     d="M 317.28516 96.25 C 315.88728 96.213 314.42762 96.216719 312.91211 96.261719 C 286.64312 97.036239 243.52227 110.02324 212.21875 133.66992 C 194.06177 147.38569 192.20672 158.093 178.35938 165.47266 C 163.49728 173.39311 158.38268 153.88638 140.0918 180.34961 C 130.42432 172.16833 123.1068 177.12459 114.41992 182.94531 L 114.40625 182.93359 C 113.88867 180.72466 113.04935 178.6015 111.91797 176.63477 C 107.18878 168.44558 97.972406 163.93289 88.603516 165.21875 L 88.601562 165.21875 C 85.618972 165.62795 82.744409 166.6128 80.136719 168.11719 C 69.008743 174.54303 65.195846 188.77405 71.621094 199.90234 C 76.851774 208.94186 87.465845 213.38811 97.578125 210.77734 C 98.040925 213.34581 98.563623 215.655 99.414062 218.18945 C 97.361892 218.71287 95.391931 219.51346 93.556641 220.57031 C 82.427301 226.99556 78.613442 241.22625 85.039062 252.35547 C 91.387732 263.32187 105.34595 267.19336 116.43555 261.0625 C 116.40875 261.1496 116.41376 261.22587 116.38086 261.31445 C 112.51338 271.63051 118.21167 285.12377 127.08594 294.89453 C 128.80551 296.42025 130.39755 297.98635 131.90625 299.57617 C 132.02323 299.67607 132.13789 299.78296 132.25586 299.88086 L 132.20117 299.90039 C 142.24102 310.61936 147.26409 322.91114 143.50977 338.46484 L 140.06055 344.44336 L 147.08398 348.50781 L 148.64453 349.41016 L 148.63672 349.41797 L 196.10352 376.81641 L 200.26953 379.22266 L 253.80078 410.12109 L 260.83398 414.16797 L 264.28516 408.19336 C 275.8778 397.16514 289.03509 395.36782 303.33789 398.70312 L 303.33008 398.64844 C 303.47379 398.70164 303.62488 398.74491 303.76953 398.79688 C 305.90076 399.30854 308.05143 399.90448 310.23242 400.63086 C 323.13134 403.43083 337.66779 401.62061 344.66797 393.11328 C 344.72807 393.04008 344.79937 393.00616 344.86133 392.93945 C 345.0966 405.60877 355.42615 415.76047 368.09766 415.77539 C 380.9486 415.77562 391.36549 405.3587 391.36523 392.50781 C 391.36323 390.38994 391.07089 388.28113 390.49805 386.24219 C 393.11814 385.71153 395.38023 385.01227 397.83594 384.12891 C 400.63115 394.19174 409.78858 401.15787 420.23242 401.16797 C 433.08247 401.16823 443.49901 390.75239 443.5 377.90234 C 443.499 374.89184 442.9143 371.91061 441.77734 369.12305 L 441.7793 369.11719 L 441.77344 369.11523 C 438.20255 360.35864 429.68717 354.63378 420.23047 354.63281 C 417.9616 354.63681 415.70507 354.97259 413.5332 355.62891 L 413.51758 355.62109 C 414.21498 345.18771 414.84669 336.37339 402.92773 332.0918 C 416.70019 303.01978 397.25142 308.34293 396.67969 291.51172 C 396.14693 275.82977 404.49324 268.86943 407.29297 246.28711 C 413.23372 198.36962 396.23992 143.02543 380.5293 127.98633 C 375.1448 122.70405 369.30156 117.81218 362.67578 113.59375 L 355.16016 109.17188 C 346.42289 103.75517 337.3233 100.27429 328.05469 97.695312 C 325.11851 96.839433 321.47878 96.36075 317.28516 96.25 z M 299.3457 114.16211 L 299.34766 114.16211 C 301.7638 114.13951 304.17177 114.20563 306.57227 114.35156 C 306.54107 114.43586 306.49319 114.50944 306.46289 114.59375 C 300.59462 130.84101 339.95796 147.59514 349.16016 127.60547 C 396.96763 157.26579 409.18885 229.30243 380.50195 278.99414 C 379.88487 280.06055 379.24149 281.083 378.57227 282.0625 L 373.08594 288.01172 C 379.56954 291.77847 384.15883 298.25312 383.65039 306.5332 C 383.64839 306.5706 383.65139 306.60598 383.65039 306.64258 C 388.71212 307.4213 393.3637 311.19959 393.01953 316.77148 C 392.32858 328.04393 381.02615 329.15261 375.06836 324.48633 C 361.57534 334.62282 337.09103 325.73667 337.17969 307.67383 C 335.48056 308.28048 333.80811 308.87358 332.07422 309.49414 L 308.5 285.51172 L 296.90234 296.89258 L 315.64453 315.95703 C 306.24073 320.18964 296.97849 325.6337 288.81055 333.80078 L 288.04883 334.56055 L 287.50586 335.48828 L 281.7168 345.48242 L 268.8457 338.03906 L 277.80859 322.50586 L 263.73828 314.38477 L 254.77539 329.91992 L 242.90625 323.07422 L 251.87109 307.53906 L 237.80078 299.41992 L 236.88867 298.89453 L 227.92188 314.42578 L 216.72461 307.94727 L 225.6875 292.41016 L 212.92969 285.04688 L 211.61914 284.29102 L 210.96094 283.91016 L 201.99219 299.44336 L 189.40625 292.1875 L 195.18555 282.19922 C 199.99177 271.23967 198.72408 257.26061 197.74023 248.0332 L 224.03125 254.82227 L 228.10352 239.09961 L 227.61328 238.97461 L 227.65039 238.83398 L 195.0918 230.41016 C 194.76231 228.59831 194.44134 226.85303 194.11719 225.07812 C 194.10539 225.08513 194.09383 225.08675 194.08203 225.09375 C 193.89072 224.00768 193.68549 222.89554 193.50391 221.82422 C 191.59012 210.55179 190.32094 200.20924 191.76367 190.40039 L 196.30078 175.89844 C 196.71968 175.06409 197.15306 174.22758 197.63281 173.39844 C 206.08584 158.75818 217.99285 146.23235 231.85352 136.51562 C 233.54308 153.47816 257.14893 161.39508 270.25781 151.34375 C 277.10992 162.28332 299.45102 163.0518 300.65039 143.54883 C 301.34569 132.22424 288.33698 125.79484 278.59766 128.88281 C 277.86152 124.46161 275.60498 120.69715 272.45703 117.77344 C 280.22693 115.77883 288.1423 114.56116 296.03125 114.24219 C 297.13677 114.19869 298.24279 114.17331 299.3457 114.16211 z M 304.75391 164 C 299.17592 163.9444 293.707 167.31257 293.20898 175.43359 C 292.41113 188.43557 316.04646 192.75855 317.10938 175.43359 C 317.53524 168.52759 311.07324 164.06432 304.75391 164 z M 233.67383 168.15625 C 229.51336 168.28213 225.38669 169.40982 221.5293 171.70703 C 218.64027 173.20473 216.10722 175.29919 214.14062 178.07227 C 213.34819 179.01946 212.58014 180.03858 211.83984 181.13867 C 207.42297 187.70292 207.453 195.23142 210.27148 202.20117 C 212.2579 208.27878 216.49887 213.36278 221.8418 217.14648 C 230.97466 224.42235 243.20878 227.96187 253.88086 223.10938 C 258.47712 221.59916 262.47396 218.85768 265.22852 214.65625 C 272.06602 217.72162 281.72831 215.46615 282.40039 204.52148 C 282.84352 197.31186 275.77961 192.83573 269.21094 193.17578 C 268.69178 190.97819 267.91523 188.88387 266.86523 186.93164 L 266.86719 186.92578 C 263.13127 179.97909 256.33074 174.69619 248.69922 171.67188 C 243.94738 169.33731 238.79587 168.0022 233.67578 168.15625 L 233.67383 168.15625 z M 90.244141 177.7832 C 94.372861 177.42001 98.513889 180.05943 100.6875 183.73828 C 103.24464 188.06662 103.07427 193.82169 96.960938 197.86914 C 87.170997 204.3543 73.146661 187.85712 86.193359 179.21875 C 87.493499 178.35749 88.867891 177.90427 90.244141 177.7832 z M 131.16211 193.76758 C 136.80041 194.2512 142.15297 198.04996 145.14258 203.10938 L 145.14453 203.10938 L 145.14453 203.11133 C 149.16397 209.91315 148.89926 218.97437 139.28711 225.33984 C 123.89845 235.53108 101.86107 209.6117 122.36719 196.03125 C 124.41078 194.67779 126.56975 193.96206 128.73242 193.76953 C 129.54341 193.69743 130.35664 193.69828 131.16211 193.76758 z M 333.8418 225.59961 C 325.88505 225.83948 318.02688 229.6017 312.00391 238.55273 C 294.9901 263.83792 343.51508 303.53916 366.18945 269.8418 C 378.68385 251.27226 355.84349 224.9356 333.8418 225.59961 z M 104.11133 229.39258 C 108.24008 229.03012 112.38044 231.67111 114.55469 235.34961 C 117.11223 239.67876 116.95467 245.45978 110.8418 249.50781 C 101.05144 255.99227 87.012253 239.46939 100.05859 230.83008 C 101.35852 229.96894 102.73509 229.5134 104.11133 229.39258 z M 156.25 232.125 C 160.22382 232.44186 164.18072 234.61129 166.07031 238.09961 L 166.07031 238.10547 C 167.5466 240.83594 167.75414 244.37887 165.7168 248.46875 C 165.08256 249.74107 164.24148 250.7382 163.25 251.52734 C 173.81439 256.56265 180.98332 268.18822 173.38867 283.42969 C 161.88734 306.51829 117.03925 290.52292 132.37305 259.75 C 135.455 253.56693 140.94479 250.18433 147.00781 249.13867 C 144.6909 246.26438 143.89195 242.16175 146.33008 237.26758 C 148.28512 233.34524 152.27619 231.80814 156.25 232.125 z M 284.73633 233.3125 L 283.43164 234.23047 L 241.85352 263.46094 L 241.85547 263.46289 L 241.8418 263.47266 L 260.48828 274.23047 L 280.06445 285.54102 L 284.73633 233.3125 z M 181.28516 306.26367 L 192.98047 312.99805 L 193.84375 313.49609 L 184.16211 330.28906 L 184.8418 330.67969 L 198.22852 338.41016 L 198.23047 338.4082 L 198.91016 338.80078 L 208.60742 322.01953 L 219.78125 328.48438 L 210.08789 345.27148 L 217.3418 349.46094 L 217.34375 349.45508 L 225.0918 353.92773 L 234.78906 337.14258 L 246.6582 343.98828 L 236.96094 360.77344 L 251.02734 368.89258 L 260.72461 352.10938 L 273.59961 359.54883 L 254.85742 391.97852 L 208.35156 365.13477 L 208.35156 365.13281 L 162.54688 338.67969 L 181.28516 306.26367 z M 339.92383 338.47461 L 339.92578 338.47461 C 347.85736 338.25922 355.35635 347.84377 350.51758 355.15234 C 347.49827 359.71085 343.54612 361.07123 339.89844 360.50195 C 342.02431 366.2755 341.83713 372.71997 338.02344 378.48047 C 319.04022 407.14644 282.76516 376.30684 297.01172 354.79883 C 306.41381 340.60095 320.0681 340.9956 329.71094 347.62695 C 329.89867 346.37369 330.34018 345.14641 331.125 343.96094 C 333.6483 340.15163 336.82091 338.56136 339.92383 338.47461 z M 380.68945 339.09961 L 380.69141 339.09961 C 389.64593 339.19001 398.81231 345.50086 398.21094 355.28711 C 396.70301 379.83616 363.23755 373.70976 364.36914 355.28711 C 365.07574 343.78002 372.78919 339.01964 380.68945 339.09961 z M 419.69336 367.91602 C 425.39042 367.97332 431.23875 371.98262 430.85547 378.20898 C 429.89771 393.82699 408.59703 389.92987 409.31836 378.20898 C 409.76683 370.89102 414.6664 367.8656 419.69336 367.91602 z M 368.0625 381.71289 C 373.75956 381.77119 379.60984 385.78038 379.22656 392.00586 C 378.26793 407.62392 356.93966 403.72681 357.66016 392.00586 C 358.10948 384.6879 363.03466 381.66249 368.0625 381.71289 z " />
</svg>
