<?xml version="1.0" encoding="UTF-8" standalone="no"?>
<svg
   viewBox="0 0 512 512"
   style="height: 512px; width: 512px;"
   version="1.1"
   id="svg12"
   sodipodi:docname="dodge.svg"
   xml:space="preserve"
   inkscape:version="1.3.2 (091e20e, 2023-11-25)"
   xmlns:inkscape="http://www.inkscape.org/namespaces/inkscape"
   xmlns:sodipodi="http://sodipodi.sourceforge.net/DTD/sodipodi-0.dtd"
   xmlns="http://www.w3.org/2000/svg"
   xmlns:svg="http://www.w3.org/2000/svg"><sodipodi:namedview
     id="namedview12"
     pagecolor="#505050"
     bordercolor="#ffffff"
     borderopacity="1"
     inkscape:showpageshadow="0"
     inkscape:pageopacity="0"
     inkscape:pagecheckerboard="1"
     inkscape:deskcolor="#d1d1d1"
     inkscape:zoom="0.43074489"
     inkscape:cx="143.9367"
     inkscape:cy="270.46171"
     inkscape:window-width="1640"
     inkscape:window-height="817"
     inkscape:window-x="0"
     inkscape:window-y="38"
     inkscape:window-maximized="0"
     inkscape:current-layer="svg12" /><defs
     id="defs2"><radialGradient
       id="delapouite-mighty-force-gradient-0"><stop
         offset="0%"
         stop-color="#830000"
         stop-opacity="1"
         id="stop1" /><stop
         offset="100%"
         stop-color="#000"
         stop-opacity="1"
         id="stop2" /></radialGradient></defs><path
     d="M0 0h512v512H0z"
     fill="url(#pattern)"
     id="path2" /><svg
     version="1.1"
     id="svg11"><defs
       id="defs6"><filter
         id="b"
         x="-0.023338979"
         width="1.046678"
         y="-0.023448784"
         height="1.0468976"
         color-interpolation-filters="sRGB"><feGaussianBlur
           stdDeviation="4.823"
           id="feGaussianBlur2" /></filter><filter
         id="a"
         x="-0.012011281"
         width="1.0240226"
         y="-0.011988317"
         height="1.0239766"
         color-interpolation-filters="sRGB"><feGaussianBlur
           stdDeviation="2.55"
           id="feGaussianBlur3" /></filter><filter
         id="c"
         x="-0.11244604"
         width="1.2248921"
         y="-0.082623731"
         height="1.1652475"
         color-interpolation-filters="sRGB"><feGaussianBlur
           stdDeviation="15.63"
           id="feGaussianBlur4" /></filter><filter
         id="e"
         x="-0.23758603"
         width="1.4751721"
         y="-0.24869778"
         height="1.4973956"
         color-interpolation-filters="sRGB"><feGaussianBlur
           stdDeviation="18.7"
           id="feGaussianBlur5" /></filter><filter
         id="d"
         x="-0.21301439"
         width="1.4260288"
         y="-0.15141701"
         height="1.302834"
         color-interpolation-filters="sRGB"><feGaussianBlur
           stdDeviation="18.7"
           id="feGaussianBlur6" /></filter></defs><path
       d="M196.6 1.207c-2.5 11.323-4.8 22.703-10.2 33.383-7-10.68-12.6-20.91-16.7-31.988L2.494 4.338C13 104.9 10.86 175.3 1.979 278.3L15.4 295.5l-9.494 6.3L2.6 462.7l1.019 45.9 112.681 3.1c3.6-16.1 6.5-32.5 13.2-47.3 4.5 14.4 5.7 29.4 7 44.4l160 .3c.8-6.1.7-8.1 2.3-14.4 5.1 4.5 7.8 9.5 10.6 14.5.8-10.1 3.9-19.8 7-29.5 4.8 9.2 6.7 19.4 8.8 29.5l185.2.4-4.6-78.2-21.4-8.2 21.3-4.9 5.8-395.47c-7-6.73-13.3-13.744-18-21.465l-15.1.114-2.1 20.321-1.4 47.23.8 84.87-8.6-97.14c9.3-16.86 2.2-39.69 5.7-55.239-92.1 1.696-184.1.685-276.2-.314z"
       overflow="visible"
       color="#000"
       fill="#ebc893"
       fill-rule="evenodd"
       stroke="#e0aa58"
       enable-background="accumulate"
       id="path6" /><path
       d="M196.6 1.203c-2.5 11.327-4.8 22.707-10.2 33.387-7-10.68-12.6-20.91-16.7-31.99L2.494 4.336C13 104.9 10.86 175.3 1.979 278.3L15.4 295.5l-9.494 6.3L2.6 462.7l1.019 45.9 112.681 3.1c.5-2.1-7.9-2.3-7.4-4.5L5.244 504.5l-.914-47.3 4.63-153.7 12.42-9-13.093-16.8C16.95 177.3 16.36 104 6.113 5.992l162.687.164c4 10.804 10.3 24.254 17.1 34.664 5.3-10.41 9.5-25.97 12-37.02 89.8.974 173.8 3.521 263.6 1.867 4.6 1.226 10.6.431 11.3-4.149-92.1 1.696-184.1.684-276.2-.315zm296.9.158l-15.1.116-.6 6.277 13.5-2.557c4.6 7.533 9.7 12.383 16.6 18.943l-4.6 389.06-19.9 9.9 4.1-.6 18.2-4.2 5.8-395.47c-7-6.73-13.3-13.748-18-21.469zm9.6 435.739l3.5 69.7-177.7.1c.4 2.1-4.1.2-3.7 2.3l185.2.4-4.6-78.2zm-370 25.1c-1 2.2-2.9.4-3.7 2.6 4.2 14 5.8 29.5 7.1 44l158 .3c1.9-5 .8-9.7 4.3-14.4 5.1 4.5 7.8 9.5 10.6 14.5.8-10.1 3.9-19.8 7-29.5 1.8 3.4 3.2 7 4.3 10.6-1.4-5.6-2.4-8.3-5.1-13.4-3 9.4-6.7 16.2-7.5 26-2.7-4.9-5.4-9.7-10.4-14.1-3.4 4.6-6.2 9.1-8 14l-147.6 3.4c-3.4-14.6-7.1-30.3-9-44z"
       overflow="visible"
       color="#000"
       opacity=".527"
       fill="#c87137"
       fill-rule="evenodd"
       filter="url(#a)"
       enable-background="accumulate"
       id="path7" /><path
       d="M200.1 16.1c-2.3 10.67-10.5 21.38-15.6 31.44-6.6-10.06-13.9-19.69-17.7-30.12L17.34 19.05C24.61 113.6 7.605 179.3 16.85 277l18.26 20.1L10.34 309l7.1 141.6.96 43.3 90.2 3.4c3.4-15.2 15-35.6 21.3-49.6 4.3 13.6 15.4 36.7 16.6 50.9l45.1.8 13.8-18.7 14.4 22.2 68.7-8.6c1.8-4.7 4.5-9.1 7.8-13.5 4.8 4.2 7.4 8.9 10 13.6.8-9.5 7.7-19.6 10.6-28.7 4.5 8.6 19.9 28.9 33.1 33.9l114.6 5.6 22.3-14.7 19.4 14.7-14.5-67.6-34.6-14.2 37.5-15.1 2.1-96.9-14.5-21.9 15.2-13.4 5.1-239.63c-5.2-21.09-11.8-24.89-16.9-20.22l-4.2 2.11 2 19.14.7 44.47-7.1 124.23-18.3-137.78c8.8-15.88-3.9-35.38-.6-50.02-67.1 1.24-140.4-13.332-202.8-3.28-14 2.25-23.7 21.31-36.9 24.48-4.3 1.03-13.9-23.45-18.4-23.5z"
       overflow="visible"
       enable-background="accumulate"
       filter="url(#b)"
       fill-rule="evenodd"
       fill="#f6e7d0"
       color="#000"
       id="path8" /><path
       d="M354 27.39l-70.3 96.91 46.4 97.6-56.2 43.6 33 74.4-30.2 63.2 69.8 48.8 31.6 29.5 31.6-13.3L365.9 335l55.5-36.5 2.1-146.1-56.9-101.83zM116.6 55.48L89.9 123.6s33.7 65.3 35.8 68.8c2.1 3.6-7 118-7 118l42.8 73.8s9.9-82.9 7.1-83.6c-2.8-.7-29.5-42.1-29.5-42.1l23.8-84.3-36.5-37.2z"
       color="#000"
       overflow="visible"
       fill="#f2dbb9"
       fill-rule="evenodd"
       filter="url(#c)"
       enable-background="accumulate"
       id="path9" /><path
       d="M39.33 172.1l-5.62 108.1L74.45 328 42.84 464.9l96.96-39.3 30.2 42.9 74.4-38.7-80.8-169.9-60.4-16.9z"
       color="#000"
       overflow="visible"
       fill="#eed3a4"
       fill-rule="evenodd"
       enable-background="accumulate"
       filter="url(#d)"
       id="path10" /><path
       d="M266.9 66.72L324.5 191 434 221.2l21.8-111.6-41.4-68.86z"
       color="#000"
       overflow="visible"
       fill="#eed3a4"
       fill-rule="evenodd"
       enable-background="accumulate"
       filter="url(#e)"
       id="path11" /></svg><path
     id="path13"
     style="fill:#3e3126;fill-opacity:1;stroke-width:0.71652"
     d="m 359.01614,91.331329 c -4.82727,0.158646 -9.7535,1.007406 -12.94627,2.426966 -3.62879,1.61344 -4.77448,2.21511 -7.15494,3.75397 -3.2803,2.12049 -8.10065,6.601945 -10.22491,9.507225 -6.3669,8.70773 -8.91169,19.24714 -7.05095,29.20418 1.32441,7.08747 3.66378,12.85583 6.83711,16.86282 2.60602,3.29061 1.21693,3.68895 -6.86202,1.97 -4.02401,-0.85632 -5.08625,-0.85638 -9.22014,-0.001 -5.15738,1.06667 -9.32036,1.82905 -11.9415,2.18676 -1.31367,0.17928 -3.78632,0.59021 -5.49401,0.91396 -1.70765,0.32374 -4.71728,0.88068 -6.68771,1.23619 -1.9704,0.3555 -4.97999,0.91098 -6.68771,1.23472 -1.70768,0.32374 -4.17894,0.73469 -5.49253,0.91396 -1.31367,0.17927 -3.78635,0.59167 -5.49401,0.91542 -1.70768,0.32373 -4.71582,0.87922 -6.68625,1.23472 -1.97043,0.3555 -4.97996,0.91098 -6.68771,1.23472 -1.70768,0.32374 -4.18041,0.73469 -5.494,0.91396 -1.31367,0.17927 -3.78486,0.59168 -5.49254,0.91543 -6.87705,1.30373 -14.05817,2.58985 -22.92951,4.10695 -2.49586,0.42681 -6.14974,1.07288 -8.12017,1.43538 -4.14188,0.76196 -9.69284,1.72376 -16.48054,2.85612 -2.62727,0.43828 -6.11055,1.101 -7.74081,1.47347 -1.63038,0.37246 -3.56468,0.67671 -4.29883,0.67521 -3.81344,-0.007 -11.34332,4.22225 -14.39778,8.08648 -1.05239,1.33141 -2.61712,3.87326 -3.47713,5.64779 -1.5192,3.13419 -1.56373,3.4031 -1.5716,9.43545 l -0.007,6.21023 1.89089,3.81987 c 3.50651,7.07601 9.72257,11.70218 17.4194,12.96239 3.73075,0.61085 6.70444,0.39084 13.61417,-1.00476 1.83902,-0.37146 5.06336,-0.99698 7.1652,-1.39145 2.10177,-0.39446 5.54091,-1.03983 7.64268,-1.43392 2.10181,-0.39408 5.59532,-1.05119 7.76279,-1.46028 2.16747,-0.40908 5.71395,-1.07562 7.88142,-1.48079 2.16745,-0.40516 5.44482,-1.03699 7.28384,-1.40462 1.83907,-0.36762 5.06346,-0.99112 7.16519,-1.38559 2.10185,-0.39446 5.64982,-1.06549 7.88289,-1.48957 2.23318,-0.42409 5.77966,-1.08916 7.88143,-1.47933 2.10184,-0.39016 5.32618,-1.01389 7.1652,-1.38558 7.94331,-1.60538 9.16336,-1.81725 10.7478,-1.86307 1.49255,-0.0432 1.66562,0.0793 1.6126,1.14538 -0.0327,0.65681 -0.33192,1.94683 -0.66496,2.86637 -0.33304,0.91953 -0.87786,2.42434 -1.20982,3.34386 -0.33197,0.91954 -1.93399,5.86343 -3.56063,10.98654 -1.62657,5.1231 -3.25936,10.02125 -3.62801,10.88401 -0.36865,0.86275 -0.66936,1.87642 -0.66936,2.25267 0,0.37627 -0.3048,1.3899 -0.67667,2.25267 -0.37188,0.86277 -1.68127,4.79303 -2.91032,8.73387 -1.22897,3.94085 -2.5378,7.8711 -2.90738,8.73387 -0.3695,0.86276 -0.67082,1.87641 -0.67082,2.25267 0,0.37626 -0.3058,1.3899 -0.67961,2.25267 -0.37381,0.86277 -1.15082,3.11703 -1.72539,5.00919 -1.04211,3.43154 -3.21764,6.43827 -9.95541,13.75625 -0.96758,1.05088 -3.79307,4.27525 -6.2776,7.1652 -2.48453,2.88995 -4.75145,5.47004 -5.03849,5.73274 -0.28703,0.26272 -2.54349,2.84133 -5.01505,5.73128 -2.47157,2.88995 -4.72948,5.47001 -5.01652,5.73274 -0.28703,0.26272 -2.54351,2.84134 -5.01505,5.73128 -2.47156,2.88996 -4.72948,5.47002 -5.01652,5.73275 -0.28704,0.26272 -2.54349,2.84277 -5.01505,5.73274 -2.47154,2.88994 -4.72802,5.46856 -5.01506,5.73128 -0.28703,0.26272 -2.54711,2.81316 -5.02237,5.66684 -7.60081,8.76271 -12.36923,14.23102 -18.5926,21.32275 -3.28403,3.74228 -7.79842,8.90095 -10.03157,11.46403 -2.23318,2.56306 -6.74755,7.72173 -10.03158,11.46402 -3.28399,3.74227 -7.79692,8.90094 -10.0301,11.46403 -2.23318,2.56305 -6.74758,7.71193 -10.03157,11.44205 -9.54473,10.84125 -10.08523,11.58534 -11.97812,16.50251 -0.28677,0.74638 -0.48593,1.75826 -0.64446,2.83708 h 57.56764 c 0.0611,-0.0732 0.11772,-0.13626 0.17869,-0.20945 2.07977,-2.49586 3.91882,-4.64495 4.08792,-4.77631 0.16918,-0.13135 2.10081,-2.38929 4.2915,-5.01651 2.19062,-2.62724 4.10666,-4.8837 4.25928,-5.01506 0.32717,-0.28167 3.5799,-4.11959 9.10882,-10.7478 2.19155,-2.62723 5.11122,-6.06633 6.48705,-7.64268 2.12492,-2.43444 15.38853,-18.041 21.88081,-25.74608 1.08431,-1.28689 2.1989,-2.57692 2.47677,-2.86638 0.27794,-0.28945 2.26938,-2.62774 4.42625,-5.19667 2.15684,-2.56894 4.43222,-5.25638 5.05606,-5.97149 0.62388,-0.7151 3.32996,-3.87922 6.01397,-7.03191 2.68399,-3.15267 5.3526,-6.27613 5.93047,-6.93964 0.57795,-0.66351 3.39781,-3.99523 6.26589,-7.40393 11.99341,-14.25407 14.02858,-16.46736 15.13597,-16.46736 0.55358,0 2.09939,0.30863 3.43613,0.68546 1.33673,0.37683 3.71992,1.00438 5.29627,1.39584 1.57634,0.39147 4.20933,1.05071 5.85138,1.46468 3.80089,0.95826 7.96868,2.00018 11.46549,2.86637 1.51064,0.3742 4.08924,1.01848 5.73128,1.43245 1.64205,0.41397 4.32951,1.08995 5.97149,1.5013 1.64205,0.41134 4.07973,1.05563 5.41637,1.43245 1.33673,0.37683 2.88216,0.68547 3.43466,0.68547 2.52473,0 1.93266,1.26834 -3.63825,7.79061 -2.28713,2.67766 -4.60714,5.44837 -5.1542,6.1575 -0.54706,0.70912 -2.08795,2.53607 -3.42441,4.06009 -2.60841,2.97463 -10.3353,12.09787 -14.11216,16.66216 -1.27139,1.53639 -2.73948,3.63235 -3.26183,4.65621 -7.18682,14.08732 -0.1311,31.04332 14.88843,35.78204 3.74991,1.18312 11.35922,1.14422 14.82399,-0.0762 6.29467,-2.21708 9.12324,-4.63891 22.86654,-19.56808 0.63189,-0.68642 3.64142,-3.91605 6.68771,-7.17691 3.04618,-3.26084 6.25549,-6.69997 7.13151,-7.64268 0.87594,-0.94271 3.24639,-3.43324 5.26698,-5.53502 2.02065,-2.10178 6.55998,-6.93831 10.08869,-10.74779 3.52869,-3.80949 6.64068,-7.16031 6.91474,-7.44642 2.85248,-2.9772 13.92253,-14.77939 15.43769,-16.45857 3.45918,-3.83365 5.80597,-9.81024 5.80597,-14.78737 0,-5.19698 -2.42559,-10.92075 -6.24684,-14.74198 -4.03429,-4.03426 -7.40591,-5.39322 -18.55892,-7.48156 -2.23317,-0.41816 -5.56485,-1.0619 -7.40394,-1.42953 -1.83902,-0.36763 -5.17079,-1.00782 -7.40393,-1.42367 -2.23318,-0.41586 -5.38461,-1.06956 -7.00409,-1.45295 -1.61949,-0.3834 -3.39986,-0.69719 -3.95609,-0.69719 -1.99695,0 -1.80852,-0.92114 1.762,-8.59911 1.65516,-3.55931 4.05913,-8.80871 5.46911,-11.94151 0.53208,-1.18226 1.56808,-3.44018 2.301,-5.01652 0.73301,-1.57633 1.8671,-4.04756 2.52071,-5.49254 0.65354,-1.44496 1.87838,-4.13242 2.72137,-5.97148 0.84305,-1.83905 1.92219,-4.20291 2.39768,-5.2538 0.47548,-1.05088 1.50965,-3.30881 2.29954,-5.01651 0.78993,-1.70771 1.93645,-4.22881 2.54707,-5.60386 1.25269,-2.82102 1.90803,-3.26781 3.41709,-2.3303 3.06506,1.90419 8.70524,5.53851 12.42632,8.00739 2.31608,1.53665 4.29065,2.79314 4.38817,2.79314 0.0975,0 1.58915,0.96789 3.31603,2.15014 1.72681,1.18225 3.23165,2.14868 3.34385,2.14868 0.11221,0 1.56849,0.9342 3.23548,2.07545 1.66698,1.14123 3.23881,2.16209 3.49325,2.26878 0.25436,0.10669 2.39714,1.46524 4.76166,3.0187 2.36451,1.55346 5.69625,3.72449 7.40394,4.82465 1.70772,1.10015 4.07301,2.62307 5.25526,3.38486 0.74232,0.47832 1.13483,0.70614 1.64923,1.01942 v -57.85033 c -0.0267,-0.016 -0.44463,-0.29334 -0.45552,-0.29879 -0.26268,-0.13137 -2.72837,-1.74355 -5.47935,-3.58261 -2.75101,-1.83906 -5.22366,-3.45125 -5.49401,-3.58259 -0.58031,-0.28205 -9.27108,-6.00451 -24.05292,-15.83609 -5.86548,-3.90123 -10.76974,-7.09343 -10.89865,-7.09342 -0.12897,0 -0.96108,-0.55353 -1.84842,-1.23034 -0.94874,-0.72366 -2.94304,-1.50818 -4.84222,-1.90554 -1.77626,-0.37163 -3.55518,-1.00076 -3.9517,-1.3973 -0.44295,-0.44295 -0.50849,-0.72062 -0.17137,-0.72062 1.3111,0 7.98456,-6.00802 10.61598,-9.55701 6.9376,-9.35676 9.44794,-19.76635 7.4303,-30.80655 -0.81648,-4.46761 -1.5361,-6.58766 -3.56941,-10.50905 -2.14219,-4.13123 -2.34997,-4.43856 -5.46325,-8.03082 -5.45126,-6.290035 -11.25634,-9.834905 -20.10562,-12.279855 -1.58464,-0.43783 -3.46982,-0.72161 -5.49546,-0.86123 -1.51923,-0.104722 -3.11742,-0.129048 -4.72652,-0.07617 z m -192.95795,11.455241 -1.49251,1.25523 c -1.361,1.14521 -1.48012,1.47065 -1.35043,3.68659 0.12697,2.16868 0.31957,2.54945 1.7913,3.53866 l 1.64923,1.10729 16.37361,-0.13621 16.37217,-0.13768 1.26254,-1.26109 c 1.86911,-1.86992 1.74803,-4.93916 -0.26511,-6.73898 l -1.46906,-1.31381 h -16.43514 z m 93.07434,0 c -40.7545,0 -44.14105,0.0615 -45.42548,0.82022 -1.4736,0.87047 -1.90538,1.71344 -1.9656,3.83892 -0.0584,2.054 0.45944,3.16708 1.88797,4.05276 1.21743,0.75475 4.6614,0.81725 45.42987,0.829 40.91813,0.0118 44.21251,-0.0473 45.50604,-0.81143 1.68268,-0.99395 2.44209,-3.28794 1.82645,-5.51743 -0.25845,-0.93608 -0.9922,-1.89609 -1.82645,-2.38889 -1.29303,-0.76383 -4.59815,-0.82315 -45.4328,-0.82315 z m -101.12566,51.58884 c -65.796626,0 -60.87728,-0.23273 -62.53437,2.97182 -1.083013,2.0943 -0.140728,4.95096 1.933373,5.86164 1.199953,0.52688 12.106747,0.64913 60.362247,0.68107 63.43274,0.042 60.86428,0.13798 62.18138,-2.32297 0.97394,-1.81993 0.58548,-4.30358 -0.90517,-5.79426 l -1.39583,-1.3973 z m -58.859495,51.5903 c -13.017816,0 -17.226786,0.0463 -23.204872,0.0835 v 9.36514 c 23.250072,0.31282 61.806307,0.13951 63.549377,-0.5888 2.92792,-1.22336 3.44872,-5.59522 0.92714,-7.78622 l -1.23765,-1.07361 z m -23.204872,51.58884 v 9.4457 c 61.878137,0.17401 154.701127,0.0519 155.635057,-0.42915 3.55538,-1.83114 4.32483,-5.09308 1.79717,-7.62071 l -1.39584,-1.39584 H 126.66278 Z m 0,51.58884 v 9.31681 c 4.087081,-0.27424 5.205024,-0.93791 6.166289,-2.72284 1.068109,-1.98339 0.816795,-3.42631 -0.916888,-5.28015 l -1.227399,-1.31382 z m 28.520177,0 -1.48225,1.68877 c -0.8154,0.92867 -1.47933,2.16575 -1.47933,2.74774 0.004,1.50692 1.61294,3.74755 3.19007,4.44529 1.03902,0.45966 11.00521,0.60428 43.75429,0.63421 47.10058,0.0431 45.11722,0.17239 46.45368,-3.02603 0.7934,-1.89892 0.37744,-3.59844 -1.32407,-5.41491 l -1.00623,-1.07507 h -44.05308 z m -19.598832,51.5903 -1.285986,1.52913 c -1.067539,1.2685 -1.243787,1.85064 -1.034062,3.41415 0.301369,2.24717 1.535482,3.61347 3.730531,4.13186 2.38371,0.56296 65.290399,0.57394 67.250619,0.0117 2.58606,-0.74167 3.86235,-2.24221 3.86235,-4.54342 0,-1.54243 -0.29487,-2.2589 -1.34017,-3.26037 l -1.34018,-1.28306 h -34.92082 z m 0.47895,51.58884 -1.237652,1.47053 c -2.034693,2.41809 -1.361111,6.04848 1.322603,7.13152 1.632512,0.65878 35.512881,0.58319 36.761911,-0.082 1.65666,-0.88236 2.20543,-1.9169 2.22192,-4.18897 0.011,-1.53247 -0.27262,-2.42556 -1.02381,-3.22522 l -1.03846,-1.10583 h -18.50326 z" /></svg>
