<?xml version="1.0" encoding="UTF-8" standalone="no"?>
<svg
   viewBox="0 0 512 512"
   style="height: 512px; width: 512px;"
   version="1.1"
   id="svg11"
   sodipodi:docname="empty-hourglass.svg"
   inkscape:version="1.4 (e7c3feb1, 2024-10-09)"
   xmlns:inkscape="http://www.inkscape.org/namespaces/inkscape"
   xmlns:sodipodi="http://sodipodi.sourceforge.net/DTD/sodipodi-0.dtd"
   xmlns="http://www.w3.org/2000/svg"
   xmlns:svg="http://www.w3.org/2000/svg">
  <defs
     id="defs11" />
  <sodipodi:namedview
     id="namedview11"
     pagecolor="#505050"
     bordercolor="#ffffff"
     borderopacity="1"
     inkscape:showpageshadow="0"
     inkscape:pageopacity="0"
     inkscape:pagecheckerboard="1"
     inkscape:deskcolor="#d1d1d1"
     inkscape:zoom="0.22322342"
     inkscape:cx="-55.997708"
     inkscape:cy="268.789"
     inkscape:window-width="992"
     inkscape:window-height="217"
     inkscape:window-x="0"
     inkscape:window-y="38"
     inkscape:window-maximized="0"
     inkscape:current-layer="svg11" />
  <path
     d="M0 0h512v512H0z"
     fill="url(#pattern)"
     fill-opacity="1"
     id="path1" />
  <svg
     version="1.1"
     id="svg10">
    <defs
       id="defs5">
      <filter
         id="b"
         x="-0.023338979"
         width="1.046678"
         y="-0.023448784"
         height="1.0468976"
         color-interpolation-filters="sRGB">
        <feGaussianBlur
           stdDeviation="4.823"
           id="feGaussianBlur1" />
      </filter>
      <filter
         id="a"
         x="-0.012011281"
         width="1.0240226"
         y="-0.011988317"
         height="1.0239766"
         color-interpolation-filters="sRGB">
        <feGaussianBlur
           stdDeviation="2.55"
           id="feGaussianBlur2" />
      </filter>
      <filter
         id="c"
         x="-0.11244604"
         width="1.2248921"
         y="-0.082623731"
         height="1.1652475"
         color-interpolation-filters="sRGB">
        <feGaussianBlur
           stdDeviation="15.63"
           id="feGaussianBlur3" />
      </filter>
      <filter
         id="e"
         x="-0.23758603"
         width="1.4751721"
         y="-0.24869778"
         height="1.4973956"
         color-interpolation-filters="sRGB">
        <feGaussianBlur
           stdDeviation="18.7"
           id="feGaussianBlur4" />
      </filter>
      <filter
         id="d"
         x="-0.21301439"
         width="1.4260288"
         y="-0.15141701"
         height="1.302834"
         color-interpolation-filters="sRGB">
        <feGaussianBlur
           stdDeviation="18.7"
           id="feGaussianBlur5" />
      </filter>
    </defs>
    <path
       d="M196.6 1.207c-2.5 11.323-4.8 22.703-10.2 33.383-7-10.68-12.6-20.91-16.7-31.988L2.494 4.338C13 104.9 10.86 175.3 1.979 278.3L15.4 295.5l-9.494 6.3L2.6 462.7l1.019 45.9 112.681 3.1c3.6-16.1 6.5-32.5 13.2-47.3 4.5 14.4 5.7 29.4 7 44.4l160 .3c.8-6.1.7-8.1 2.3-14.4 5.1 4.5 7.8 9.5 10.6 14.5.8-10.1 3.9-19.8 7-29.5 4.8 9.2 6.7 19.4 8.8 29.5l185.2.4-4.6-78.2-21.4-8.2 21.3-4.9 5.8-395.47c-7-6.73-13.3-13.744-18-21.465l-15.1.114-2.1 20.321-1.4 47.23.8 84.87-8.6-97.14c9.3-16.86 2.2-39.69 5.7-55.239-92.1 1.696-184.1.685-276.2-.314z"
       overflow="visible"
       color="#000"
       fill="#ebc893"
       fill-rule="evenodd"
       stroke="#e0aa58"
       enable-background="accumulate"
       id="path5" />
    <path
       d="M196.6 1.203c-2.5 11.327-4.8 22.707-10.2 33.387-7-10.68-12.6-20.91-16.7-31.99L2.494 4.336C13 104.9 10.86 175.3 1.979 278.3L15.4 295.5l-9.494 6.3L2.6 462.7l1.019 45.9 112.681 3.1c.5-2.1-7.9-2.3-7.4-4.5L5.244 504.5l-.914-47.3 4.63-153.7 12.42-9-13.093-16.8C16.95 177.3 16.36 104 6.113 5.992l162.687.164c4 10.804 10.3 24.254 17.1 34.664 5.3-10.41 9.5-25.97 12-37.02 89.8.974 173.8 3.521 263.6 1.867 4.6 1.226 10.6.431 11.3-4.149-92.1 1.696-184.1.684-276.2-.315zm296.9.158l-15.1.116-.6 6.277 13.5-2.557c4.6 7.533 9.7 12.383 16.6 18.943l-4.6 389.06-19.9 9.9 4.1-.6 18.2-4.2 5.8-395.47c-7-6.73-13.3-13.748-18-21.469zm9.6 435.739l3.5 69.7-177.7.1c.4 2.1-4.1.2-3.7 2.3l185.2.4-4.6-78.2zm-370 25.1c-1 2.2-2.9.4-3.7 2.6 4.2 14 5.8 29.5 7.1 44l158 .3c1.9-5 .8-9.7 4.3-14.4 5.1 4.5 7.8 9.5 10.6 14.5.8-10.1 3.9-19.8 7-29.5 1.8 3.4 3.2 7 4.3 10.6-1.4-5.6-2.4-8.3-5.1-13.4-3 9.4-6.7 16.2-7.5 26-2.7-4.9-5.4-9.7-10.4-14.1-3.4 4.6-6.2 9.1-8 14l-147.6 3.4c-3.4-14.6-7.1-30.3-9-44z"
       overflow="visible"
       color="#000"
       opacity=".527"
       fill="#c87137"
       fill-rule="evenodd"
       filter="url(#a)"
       enable-background="accumulate"
       id="path6" />
    <path
       d="M200.1 16.1c-2.3 10.67-10.5 21.38-15.6 31.44-6.6-10.06-13.9-19.69-17.7-30.12L17.34 19.05C24.61 113.6 7.605 179.3 16.85 277l18.26 20.1L10.34 309l7.1 141.6.96 43.3 90.2 3.4c3.4-15.2 15-35.6 21.3-49.6 4.3 13.6 15.4 36.7 16.6 50.9l45.1.8 13.8-18.7 14.4 22.2 68.7-8.6c1.8-4.7 4.5-9.1 7.8-13.5 4.8 4.2 7.4 8.9 10 13.6.8-9.5 7.7-19.6 10.6-28.7 4.5 8.6 19.9 28.9 33.1 33.9l114.6 5.6 22.3-14.7 19.4 14.7-14.5-67.6-34.6-14.2 37.5-15.1 2.1-96.9-14.5-21.9 15.2-13.4 5.1-239.63c-5.2-21.09-11.8-24.89-16.9-20.22l-4.2 2.11 2 19.14.7 44.47-7.1 124.23-18.3-137.78c8.8-15.88-3.9-35.38-.6-50.02-67.1 1.24-140.4-13.332-202.8-3.28-14 2.25-23.7 21.31-36.9 24.48-4.3 1.03-13.9-23.45-18.4-23.5z"
       overflow="visible"
       enable-background="accumulate"
       filter="url(#b)"
       fill-rule="evenodd"
       fill="#f6e7d0"
       color="#000"
       id="path7" />
    <path
       d="M354 27.39l-70.3 96.91 46.4 97.6-56.2 43.6 33 74.4-30.2 63.2 69.8 48.8 31.6 29.5 31.6-13.3L365.9 335l55.5-36.5 2.1-146.1-56.9-101.83zM116.6 55.48L89.9 123.6s33.7 65.3 35.8 68.8c2.1 3.6-7 118-7 118l42.8 73.8s9.9-82.9 7.1-83.6c-2.8-.7-29.5-42.1-29.5-42.1l23.8-84.3-36.5-37.2z"
       color="#000"
       overflow="visible"
       fill="#f2dbb9"
       fill-rule="evenodd"
       filter="url(#c)"
       enable-background="accumulate"
       id="path8" />
    <path
       d="M39.33 172.1l-5.62 108.1L74.45 328 42.84 464.9l96.96-39.3 30.2 42.9 74.4-38.7-80.8-169.9-60.4-16.9z"
       color="#000"
       overflow="visible"
       fill="#eed3a4"
       fill-rule="evenodd"
       enable-background="accumulate"
       filter="url(#d)"
       id="path9" />
    <path
       d="M266.9 66.72L324.5 191 434 221.2l21.8-111.6-41.4-68.86z"
       color="#000"
       overflow="visible"
       fill="#eed3a4"
       fill-rule="evenodd"
       enable-background="accumulate"
       filter="url(#e)"
       id="path10" />
  </svg>
  <g
     class=""
     transform="matrix(0.87220913,0.14135493,-0.14135493,0.87220913,59.586271,-5.1085267)"
     id="g11">
    <path
       d="M 388.656,21.406 76.876,72.063 80.56,95 392.373,44.344 388.653,21.406 Z m -13.344,44.624 -18.437,3 16.25,100.282 c -7.01,4.713 -11.034,13.208 -9.594,22.094 0.474,2.913 1.5,5.587 2.94,7.97 5.55,-4.228 12.173,-7.207 19.5,-8.407 h 0.06 c 2.25,-0.367 4.475,-0.546 6.69,-0.564 0.737,-0.006 1.485,0 2.217,0.03 4.273,0.182 8.436,0.995 12.375,2.345 0.62,-2.72 0.724,-5.61 0.25,-8.53 -1.433,-8.843 -7.885,-15.59 -15.968,-17.875 L 375.314,66.03 Z M 332.406,73 148.25,102.938 c 9.082,42.138 25.73,78.544 45.72,103.843 22.553,28.546 48.246,42.31 71.874,38.47 23.628,-3.84 43.653,-25.027 56.03,-59.25 10.974,-30.34 15.237,-70.14 10.532,-113 z M 123,107.03 l -18.438,3 16.344,100.72 c -6.837,4.75 -10.734,13.14 -9.312,21.906 0.457,2.82 1.446,5.43 2.812,7.75 5.593,-4.288 12.283,-7.297 19.688,-8.5 2.25,-0.365 4.474,-0.545 6.687,-0.562 0.74,-0.006 1.488,0 2.22,0.03 4.293,0.183 8.482,0.983 12.438,2.345 0.56,-2.633 0.644,-5.403 0.187,-8.22 -1.456,-8.977 -8.087,-15.82 -16.344,-18 z m 269.938,102.032 c -1.288,0.012 -2.592,0.13 -3.907,0.344 -14.024,2.28 -23.4,15.275 -21.124,29.313 2.276,14.036 15.257,23.403 29.28,21.124 14.026,-2.28 23.402,-15.275 21.127,-29.313 -1.992,-12.282 -12.182,-20.98 -24.094,-21.436 -0.427,-0.017 -0.853,-0.035 -1.283,-0.03 z M 141,250 c -1.287,0.012 -2.59,0.13 -3.906,0.344 -14.025,2.28 -23.4,15.275 -21.125,29.312 2.275,14.038 15.255,23.404 29.28,21.125 14.025,-2.278 23.4,-15.274 21.125,-29.31 -1.99,-12.284 -12.182,-20.982 -24.094,-21.44 -0.424,-0.015 -0.85,-0.034 -1.28,-0.03 z m 134.656,13.844 c -2.244,0.054 -4.472,0.265 -6.687,0.625 -23.63,3.84 -43.654,25.057 -56.033,59.28 -11.165,30.868 -15.416,71.534 -10.312,115.25 L 387,409.062 c -8.967,-43.092 -25.812,-80.345 -46.156,-106.093 -19.735,-24.98 -41.883,-38.67 -62.938,-39.126 -0.752,-0.017 -1.502,-0.018 -2.25,0 z m 144.094,6.03 c -5.567,4.238 -12.213,7.213 -19.563,8.407 -7.386,1.2 -14.665,0.472 -21.312,-1.81 -0.606,2.7 -0.72,5.57 -0.25,8.467 1.447,8.927 7.996,15.75 16.188,17.97 l 16.562,102.187 18.438,-3 -16.594,-102.313 c 6.896,-4.736 10.864,-13.16 9.436,-21.967 -0.47,-2.896 -1.477,-5.567 -2.906,-7.938 z m -252.063,41.032 c -5.54,4.187 -12.143,7.128 -19.437,8.313 -7.352,1.193 -14.597,0.476 -21.22,-1.783 -0.666,2.79 -0.83,5.742 -0.343,8.75 1.427,8.8 7.816,15.528 15.844,17.844 l 16.532,102.064 18.438,-3 -16.53,-101.875 c 7.103,-4.692 11.2,-13.24 9.75,-22.19 -0.484,-2.975 -1.542,-5.71 -3.032,-8.124 z m 285.157,106.374 -311.781,50.66 3.687,22.937 311.813,-50.656 -3.72,-22.94 z"
       fill="#3e3126"
       fill-opacity="1"
       id="path11" />
  </g>
</svg>
