<?xml version="1.0" encoding="UTF-8" standalone="no"?>
<svg
   viewBox="0 0 512 512"
   style="height: 512px; width: 512px;"
   version="1.1"
   id="svg12"
   sodipodi:docname="anvil copy 2.svg"
   inkscape:version="1.4 (e7c3feb1, 2024-10-09)"
   xml:space="preserve"
   xmlns:inkscape="http://www.inkscape.org/namespaces/inkscape"
   xmlns:sodipodi="http://sodipodi.sourceforge.net/DTD/sodipodi-0.dtd"
   xmlns="http://www.w3.org/2000/svg"
   xmlns:svg="http://www.w3.org/2000/svg"><sodipodi:namedview
     id="namedview12"
     pagecolor="#505050"
     bordercolor="#ffffff"
     borderopacity="1"
     inkscape:showpageshadow="0"
     inkscape:pageopacity="0"
     inkscape:pagecheckerboard="1"
     inkscape:deskcolor="#d1d1d1"
     inkscape:zoom="0.38421998"
     inkscape:cx="100.20301"
     inkscape:cy="-54.656189"
     inkscape:window-width="1728"
     inkscape:window-height="1051"
     inkscape:window-x="0"
     inkscape:window-y="38"
     inkscape:window-maximized="1"
     inkscape:current-layer="svg12" /><defs
     id="defs2"><radialGradient
       id="lorc-anvil-gradient-0"><stop
         offset="0%"
         stop-color="#830000"
         stop-opacity="1"
         id="stop1" /><stop
         offset="100%"
         stop-color="#000"
         stop-opacity="1"
         id="stop2" /></radialGradient></defs><path
     d="M0 0h512v512H0z"
     fill="url(#pattern)"
     id="path2" /><svg
     version="1.1"
     id="svg11"><defs
       id="defs6"><filter
         id="b"
         x="-0.023338979"
         width="1.046678"
         y="-0.023448784"
         height="1.0468976"
         color-interpolation-filters="sRGB"><feGaussianBlur
           stdDeviation="4.823"
           id="feGaussianBlur2" /></filter><filter
         id="a"
         x="-0.012011281"
         width="1.0240226"
         y="-0.011988317"
         height="1.0239766"
         color-interpolation-filters="sRGB"><feGaussianBlur
           stdDeviation="2.55"
           id="feGaussianBlur3" /></filter><filter
         id="c"
         x="-0.11244604"
         width="1.2248921"
         y="-0.082623731"
         height="1.1652475"
         color-interpolation-filters="sRGB"><feGaussianBlur
           stdDeviation="15.63"
           id="feGaussianBlur4" /></filter><filter
         id="e"
         x="-0.23758603"
         width="1.4751721"
         y="-0.24869778"
         height="1.4973956"
         color-interpolation-filters="sRGB"><feGaussianBlur
           stdDeviation="18.7"
           id="feGaussianBlur5" /></filter><filter
         id="d"
         x="-0.21301439"
         width="1.4260288"
         y="-0.15141701"
         height="1.302834"
         color-interpolation-filters="sRGB"><feGaussianBlur
           stdDeviation="18.7"
           id="feGaussianBlur6" /></filter></defs><path
       d="M196.6 1.207c-2.5 11.323-4.8 22.703-10.2 33.383-7-10.68-12.6-20.91-16.7-31.988L2.494 4.338C13 104.9 10.86 175.3 1.979 278.3L15.4 295.5l-9.494 6.3L2.6 462.7l1.019 45.9 112.681 3.1c3.6-16.1 6.5-32.5 13.2-47.3 4.5 14.4 5.7 29.4 7 44.4l160 .3c.8-6.1.7-8.1 2.3-14.4 5.1 4.5 7.8 9.5 10.6 14.5.8-10.1 3.9-19.8 7-29.5 4.8 9.2 6.7 19.4 8.8 29.5l185.2.4-4.6-78.2-21.4-8.2 21.3-4.9 5.8-395.47c-7-6.73-13.3-13.744-18-21.465l-15.1.114-2.1 20.321-1.4 47.23.8 84.87-8.6-97.14c9.3-16.86 2.2-39.69 5.7-55.239-92.1 1.696-184.1.685-276.2-.314z"
       overflow="visible"
       color="#000"
       fill="#ebc893"
       fill-rule="evenodd"
       stroke="#e0aa58"
       enable-background="accumulate"
       id="path6" /><path
       d="M196.6 1.203c-2.5 11.327-4.8 22.707-10.2 33.387-7-10.68-12.6-20.91-16.7-31.99L2.494 4.336C13 104.9 10.86 175.3 1.979 278.3L15.4 295.5l-9.494 6.3L2.6 462.7l1.019 45.9 112.681 3.1c.5-2.1-7.9-2.3-7.4-4.5L5.244 504.5l-.914-47.3 4.63-153.7 12.42-9-13.093-16.8C16.95 177.3 16.36 104 6.113 5.992l162.687.164c4 10.804 10.3 24.254 17.1 34.664 5.3-10.41 9.5-25.97 12-37.02 89.8.974 173.8 3.521 263.6 1.867 4.6 1.226 10.6.431 11.3-4.149-92.1 1.696-184.1.684-276.2-.315zm296.9.158l-15.1.116-.6 6.277 13.5-2.557c4.6 7.533 9.7 12.383 16.6 18.943l-4.6 389.06-19.9 9.9 4.1-.6 18.2-4.2 5.8-395.47c-7-6.73-13.3-13.748-18-21.469zm9.6 435.739l3.5 69.7-177.7.1c.4 2.1-4.1.2-3.7 2.3l185.2.4-4.6-78.2zm-370 25.1c-1 2.2-2.9.4-3.7 2.6 4.2 14 5.8 29.5 7.1 44l158 .3c1.9-5 .8-9.7 4.3-14.4 5.1 4.5 7.8 9.5 10.6 14.5.8-10.1 3.9-19.8 7-29.5 1.8 3.4 3.2 7 4.3 10.6-1.4-5.6-2.4-8.3-5.1-13.4-3 9.4-6.7 16.2-7.5 26-2.7-4.9-5.4-9.7-10.4-14.1-3.4 4.6-6.2 9.1-8 14l-147.6 3.4c-3.4-14.6-7.1-30.3-9-44z"
       overflow="visible"
       color="#000"
       opacity=".527"
       fill="#c87137"
       fill-rule="evenodd"
       filter="url(#a)"
       enable-background="accumulate"
       id="path7" /><path
       d="M200.1 16.1c-2.3 10.67-10.5 21.38-15.6 31.44-6.6-10.06-13.9-19.69-17.7-30.12L17.34 19.05C24.61 113.6 7.605 179.3 16.85 277l18.26 20.1L10.34 309l7.1 141.6.96 43.3 90.2 3.4c3.4-15.2 15-35.6 21.3-49.6 4.3 13.6 15.4 36.7 16.6 50.9l45.1.8 13.8-18.7 14.4 22.2 68.7-8.6c1.8-4.7 4.5-9.1 7.8-13.5 4.8 4.2 7.4 8.9 10 13.6.8-9.5 7.7-19.6 10.6-28.7 4.5 8.6 19.9 28.9 33.1 33.9l114.6 5.6 22.3-14.7 19.4 14.7-14.5-67.6-34.6-14.2 37.5-15.1 2.1-96.9-14.5-21.9 15.2-13.4 5.1-239.63c-5.2-21.09-11.8-24.89-16.9-20.22l-4.2 2.11 2 19.14.7 44.47-7.1 124.23-18.3-137.78c8.8-15.88-3.9-35.38-.6-50.02-67.1 1.24-140.4-13.332-202.8-3.28-14 2.25-23.7 21.31-36.9 24.48-4.3 1.03-13.9-23.45-18.4-23.5z"
       overflow="visible"
       enable-background="accumulate"
       filter="url(#b)"
       fill-rule="evenodd"
       fill="#f6e7d0"
       color="#000"
       id="path8" /><path
       d="M354 27.39l-70.3 96.91 46.4 97.6-56.2 43.6 33 74.4-30.2 63.2 69.8 48.8 31.6 29.5 31.6-13.3L365.9 335l55.5-36.5 2.1-146.1-56.9-101.83zM116.6 55.48L89.9 123.6s33.7 65.3 35.8 68.8c2.1 3.6-7 118-7 118l42.8 73.8s9.9-82.9 7.1-83.6c-2.8-.7-29.5-42.1-29.5-42.1l23.8-84.3-36.5-37.2z"
       color="#000"
       overflow="visible"
       fill="#f2dbb9"
       fill-rule="evenodd"
       filter="url(#c)"
       enable-background="accumulate"
       id="path9" /><path
       d="M39.33 172.1l-5.62 108.1L74.45 328 42.84 464.9l96.96-39.3 30.2 42.9 74.4-38.7-80.8-169.9-60.4-16.9z"
       color="#000"
       overflow="visible"
       fill="#eed3a4"
       fill-rule="evenodd"
       enable-background="accumulate"
       filter="url(#d)"
       id="path10" /><path
       d="M266.9 66.72L324.5 191 434 221.2l21.8-111.6-41.4-68.86z"
       color="#000"
       overflow="visible"
       fill="#eed3a4"
       fill-rule="evenodd"
       enable-background="accumulate"
       filter="url(#e)"
       id="path11" /></svg><path
     d="m 257.48345,152.82569 c -18.24088,0.0453 -23.9001,0.39211 -32.64047,1.98257 -24.7559,4.50474 -47.1707,13.63133 -63.55695,25.917 -7.41867,5.56224 -32.4575,28.09386 -48.55844,43.67386 -42.392972,41.02143 -59.693522,62.46599 -56.316292,69.87817 0.69088,1.51643 1.80911,2.29863 3.27554,2.29863 4.50393,0 19.48231,-11.78536 54.362462,-42.72568 33.1183,-29.37752 42.74738,-36.90038 54.2188,-42.43835 5.6833,-2.7437 9.68295,-3.85944 9.68295,-2.70088 0,0.21708 -1.72746,3.01046 -3.85019,6.20628 -4.55459,6.857 -9.2464,17.58404 -10.7748,24.65274 -1.51663,7.01445 -1.32709,22.32532 0.37352,28.96267 1.87136,7.30339 6.00424,15.62333 10.14268,20.45776 7.68439,8.97681 22.67698,17.06677 38.35829,20.65888 11.70827,2.68202 28.64453,2.67771 38.50195,0 20.17789,-5.48203 38.19198,-19.87702 46.83444,-37.43884 5.03096,-10.22224 6.74224,-17.47842 6.72357,-28.50294 -0.0395,-22.81889 -11.08663,-39.0655 -29.04891,-42.72567 -11.87401,-2.42002 -23.70458,2.5855 -23.70458,10.02774 0,1.34989 1.34469,4.45029 2.98821,6.89587 1.64353,2.4456 4.11819,6.11107 5.48798,8.13139 5.94985,8.77599 5.34554,18.12912 -1.5803,25.05501 -10.30098,10.30098 -26.19817,8.28018 -33.10021,-4.22373 -2.41281,-4.37117 -2.75494,-5.91196 -2.75834,-12.35511 0,-9.45064 2.67849,-15.23017 10.7748,-23.24483 6.96878,-6.89851 10.39234,-9.27233 20.80254,-14.4526 9.55025,-4.75238 17.55319,-7.3095 27.49736,-8.7635 13.12367,-1.91899 33.43808,1.46041 48.50097,8.07391 9.9524,4.36998 27.26184,15.27896 33.73219,21.26227 10.09648,9.33555 10.81411,12.08346 6.2063,23.76203 -7.90112,20.02772 -20.53931,38.99954 -36.83535,55.31065 -16.72461,16.73937 -32.90049,27.41438 -51.54674,33.99091 -12.20261,4.30397 -21.15373,5.66036 -37.18022,5.66036 -26.07439,0 -43.05115,-3.94815 -93.58272,-21.75073 -12.08718,-4.25841 -25.00614,-8.21734 -28.70408,-8.79225 -9.06201,-1.40882 -14.91076,0.28779 -27.727152,7.98773 -24.34399,14.6255 -31.16952,25.13816 -23.67582,36.46194 5.47587,8.27457 19.36222,12.01405 24.7102,6.66601 2.77876,-2.7787 3.77701,-6.98008 3.10314,-12.95849 -0.40786,-3.61881 -0.1444,-4.53912 1.810172,-6.49363 2.19003,-2.19009 2.63565,-2.27218 11.17706,-1.81017 5.74592,0.3108 12.61581,1.51134 19.4521,3.36174 28.18592,7.62916 46.72754,12.22569 59.3045,14.71121 63.29152,12.50799 108.12946,4.48986 150.18638,-26.86519 19.52174,-14.55425 34.64769,-30.32898 66.77501,-69.59084 8.06909,-9.8611 21.93653,-25.25555 30.80158,-34.22078 8.86515,-8.96523 16.65161,-17.5786 17.29716,-19.13604 1.49815,-3.6141 0.0469,-6.96925 -4.02259,-9.33816 -1.56215,-0.9095 -21.83602,-6.86859 -45.05306,-13.21709 -92.59684,-25.31979 -108.85997,-28.40114 -148.86464,-28.30183 z"
     id="rect3000"
     style="fill:#3e3126;fill-opacity:1;fill-rule:nonzero;stroke:none" /></svg>
