<?xml version="1.0" encoding="UTF-8" standalone="no"?>
<svg
   viewBox="0 0 512 512"
   style="height: 512px; width: 512px;"
   version="1.1"
   id="svg12"
   sodipodi:docname="eye.svg"
   inkscape:version="1.4 (e7c3feb1, 2024-10-09)"
   xml:space="preserve"
   xmlns:inkscape="http://www.inkscape.org/namespaces/inkscape"
   xmlns:sodipodi="http://sodipodi.sourceforge.net/DTD/sodipodi-0.dtd"
   xmlns="http://www.w3.org/2000/svg"
   xmlns:svg="http://www.w3.org/2000/svg"><sodipodi:namedview
     id="namedview12"
     pagecolor="#505050"
     bordercolor="#ffffff"
     borderopacity="1"
     inkscape:showpageshadow="0"
     inkscape:pageopacity="0"
     inkscape:pagecheckerboard="1"
     inkscape:deskcolor="#d1d1d1"
     inkscape:zoom="0.44617865"
     inkscape:cx="-317.13754"
     inkscape:cy="396.70208"
     inkscape:window-width="1728"
     inkscape:window-height="1051"
     inkscape:window-x="0"
     inkscape:window-y="38"
     inkscape:window-maximized="1"
     inkscape:current-layer="svg12" /><defs
     id="defs2"><radialGradient
       id="lorc-dead-eye-gradient-0"><stop
         offset="0%"
         stop-color="#830000"
         stop-opacity="1"
         id="stop1" /><stop
         offset="100%"
         stop-color="#000"
         stop-opacity="1"
         id="stop2" /></radialGradient></defs><path
     d="M0 0h512v512H0z"
     fill="url(#pattern)"
     id="path2" /><svg
     version="1.1"
     id="svg11"><defs
       id="defs6"><filter
         id="b"
         x="-0.023338979"
         width="1.046678"
         y="-0.023448784"
         height="1.0468976"
         color-interpolation-filters="sRGB"><feGaussianBlur
           stdDeviation="4.823"
           id="feGaussianBlur2" /></filter><filter
         id="a"
         x="-0.012011281"
         width="1.0240226"
         y="-0.011988317"
         height="1.0239766"
         color-interpolation-filters="sRGB"><feGaussianBlur
           stdDeviation="2.55"
           id="feGaussianBlur3" /></filter><filter
         id="c"
         x="-0.11244604"
         width="1.2248921"
         y="-0.082623731"
         height="1.1652475"
         color-interpolation-filters="sRGB"><feGaussianBlur
           stdDeviation="15.63"
           id="feGaussianBlur4" /></filter><filter
         id="e"
         x="-0.23758603"
         width="1.4751721"
         y="-0.24869778"
         height="1.4973956"
         color-interpolation-filters="sRGB"><feGaussianBlur
           stdDeviation="18.7"
           id="feGaussianBlur5" /></filter><filter
         id="d"
         x="-0.21301439"
         width="1.4260288"
         y="-0.15141701"
         height="1.302834"
         color-interpolation-filters="sRGB"><feGaussianBlur
           stdDeviation="18.7"
           id="feGaussianBlur6" /></filter></defs><path
       d="M196.6 1.207c-2.5 11.323-4.8 22.703-10.2 33.383-7-10.68-12.6-20.91-16.7-31.988L2.494 4.338C13 104.9 10.86 175.3 1.979 278.3L15.4 295.5l-9.494 6.3L2.6 462.7l1.019 45.9 112.681 3.1c3.6-16.1 6.5-32.5 13.2-47.3 4.5 14.4 5.7 29.4 7 44.4l160 .3c.8-6.1.7-8.1 2.3-14.4 5.1 4.5 7.8 9.5 10.6 14.5.8-10.1 3.9-19.8 7-29.5 4.8 9.2 6.7 19.4 8.8 29.5l185.2.4-4.6-78.2-21.4-8.2 21.3-4.9 5.8-395.47c-7-6.73-13.3-13.744-18-21.465l-15.1.114-2.1 20.321-1.4 47.23.8 84.87-8.6-97.14c9.3-16.86 2.2-39.69 5.7-55.239-92.1 1.696-184.1.685-276.2-.314z"
       overflow="visible"
       color="#000"
       fill="#ebc893"
       fill-rule="evenodd"
       stroke="#e0aa58"
       enable-background="accumulate"
       id="path6" /><path
       d="M196.6 1.203c-2.5 11.327-4.8 22.707-10.2 33.387-7-10.68-12.6-20.91-16.7-31.99L2.494 4.336C13 104.9 10.86 175.3 1.979 278.3L15.4 295.5l-9.494 6.3L2.6 462.7l1.019 45.9 112.681 3.1c.5-2.1-7.9-2.3-7.4-4.5L5.244 504.5l-.914-47.3 4.63-153.7 12.42-9-13.093-16.8C16.95 177.3 16.36 104 6.113 5.992l162.687.164c4 10.804 10.3 24.254 17.1 34.664 5.3-10.41 9.5-25.97 12-37.02 89.8.974 173.8 3.521 263.6 1.867 4.6 1.226 10.6.431 11.3-4.149-92.1 1.696-184.1.684-276.2-.315zm296.9.158l-15.1.116-.6 6.277 13.5-2.557c4.6 7.533 9.7 12.383 16.6 18.943l-4.6 389.06-19.9 9.9 4.1-.6 18.2-4.2 5.8-395.47c-7-6.73-13.3-13.748-18-21.469zm9.6 435.739l3.5 69.7-177.7.1c.4 2.1-4.1.2-3.7 2.3l185.2.4-4.6-78.2zm-370 25.1c-1 2.2-2.9.4-3.7 2.6 4.2 14 5.8 29.5 7.1 44l158 .3c1.9-5 .8-9.7 4.3-14.4 5.1 4.5 7.8 9.5 10.6 14.5.8-10.1 3.9-19.8 7-29.5 1.8 3.4 3.2 7 4.3 10.6-1.4-5.6-2.4-8.3-5.1-13.4-3 9.4-6.7 16.2-7.5 26-2.7-4.9-5.4-9.7-10.4-14.1-3.4 4.6-6.2 9.1-8 14l-147.6 3.4c-3.4-14.6-7.1-30.3-9-44z"
       overflow="visible"
       color="#000"
       opacity=".527"
       fill="#c87137"
       fill-rule="evenodd"
       filter="url(#a)"
       enable-background="accumulate"
       id="path7" /><path
       d="M200.1 16.1c-2.3 10.67-10.5 21.38-15.6 31.44-6.6-10.06-13.9-19.69-17.7-30.12L17.34 19.05C24.61 113.6 7.605 179.3 16.85 277l18.26 20.1L10.34 309l7.1 141.6.96 43.3 90.2 3.4c3.4-15.2 15-35.6 21.3-49.6 4.3 13.6 15.4 36.7 16.6 50.9l45.1.8 13.8-18.7 14.4 22.2 68.7-8.6c1.8-4.7 4.5-9.1 7.8-13.5 4.8 4.2 7.4 8.9 10 13.6.8-9.5 7.7-19.6 10.6-28.7 4.5 8.6 19.9 28.9 33.1 33.9l114.6 5.6 22.3-14.7 19.4 14.7-14.5-67.6-34.6-14.2 37.5-15.1 2.1-96.9-14.5-21.9 15.2-13.4 5.1-239.63c-5.2-21.09-11.8-24.89-16.9-20.22l-4.2 2.11 2 19.14.7 44.47-7.1 124.23-18.3-137.78c8.8-15.88-3.9-35.38-.6-50.02-67.1 1.24-140.4-13.332-202.8-3.28-14 2.25-23.7 21.31-36.9 24.48-4.3 1.03-13.9-23.45-18.4-23.5z"
       overflow="visible"
       enable-background="accumulate"
       filter="url(#b)"
       fill-rule="evenodd"
       fill="#f6e7d0"
       color="#000"
       id="path8" /><path
       d="M354 27.39l-70.3 96.91 46.4 97.6-56.2 43.6 33 74.4-30.2 63.2 69.8 48.8 31.6 29.5 31.6-13.3L365.9 335l55.5-36.5 2.1-146.1-56.9-101.83zM116.6 55.48L89.9 123.6s33.7 65.3 35.8 68.8c2.1 3.6-7 118-7 118l42.8 73.8s9.9-82.9 7.1-83.6c-2.8-.7-29.5-42.1-29.5-42.1l23.8-84.3-36.5-37.2z"
       color="#000"
       overflow="visible"
       fill="#f2dbb9"
       fill-rule="evenodd"
       filter="url(#c)"
       enable-background="accumulate"
       id="path9" /><path
       d="M39.33 172.1l-5.62 108.1L74.45 328 42.84 464.9l96.96-39.3 30.2 42.9 74.4-38.7-80.8-169.9-60.4-16.9z"
       color="#000"
       overflow="visible"
       fill="#eed3a4"
       fill-rule="evenodd"
       enable-background="accumulate"
       filter="url(#d)"
       id="path10" /><path
       d="M266.9 66.72L324.5 191 434 221.2l21.8-111.6-41.4-68.86z"
       color="#000"
       overflow="visible"
       fill="#eed3a4"
       fill-rule="evenodd"
       enable-background="accumulate"
       filter="url(#e)"
       id="path11" /></svg><path
     id="path1-6"
     style="fill:#3e3126;fill-opacity:1;stroke-width:2.03659"
     d="M 250.66797 162.62891 C 229.83556 163.11174 209.40386 168.15544 189.7207 174.69727 C 172.91176 180.53266 157.08903 188.81944 141.61719 197.52734 C 131.2555 203.6713 121.4194 210.65805 111.66406 217.70898 C 97.086664 228.42628 83.490472 240.43973 70.919922 253.45508 C 70.113572 254.2807 69.30654 255.10629 68.5 255.93164 C 96.27153 284.64503 128.73574 308.99936 164.70117 326.48828 C 186.02979 336.82064 208.87191 344.26804 232.36914 347.51758 C 239.84714 348.62428 247.41874 348.85546 254.95312 349.36523 C 260.04449 349.47714 265.11873 348.90898 270.19336 348.57812 C 283.49098 347.50013 296.75149 345.39564 309.55078 341.56445 C 325.2635 336.99257 340.50016 330.84034 355.10352 323.4668 C 374.94857 313.35247 393.55861 300.9167 410.99219 287.08203 C 421.42148 278.71173 431.44305 269.82115 440.78906 260.24805 C 441.85081 258.97941 443.511 257.83605 443.49609 256.01367 C 443.56899 254.22171 442.29166 252.81669 441.08203 251.66602 C 435.45675 245.6796 429.25847 240.27329 423.12695 234.82031 C 407.69469 221.27715 391.07331 209.09831 373.49219 198.48438 C 350.74487 184.71919 326.10623 173.85399 300.18945 167.68555 C 287.31367 164.61334 274.11343 162.89337 260.87305 162.69531 C 257.47241 162.61631 254.06939 162.61121 250.66797 162.62891 z M 310.29492 195.63477 C 310.71662 195.77534 311.13687 195.91607 311.55859 196.05664 L 311.56055 196.05664 C 331.58539 202.98083 350.72428 212.53218 368.44922 224.1582 C 378.99262 230.88753 389.29175 238.03971 398.8418 246.13281 C 402.73125 249.27775 406.59749 252.45173 410.37695 255.72852 C 403.74988 262.08368 396.39828 267.59998 389.16406 273.22656 C 374.58897 284.29462 359.05846 294.13038 342.69727 302.36719 C 333.16036 307.20883 323.3281 311.53131 313.24219 315.05469 C 326.6141 302.01087 335.65281 284.46055 338 265.89258 C 338.94376 256.86756 338.64127 247.67316 336.82227 238.77539 C 334.96219 230.31685 331.86174 222.08943 327.34961 214.68555 C 326.58665 213.53535 325.34518 212.7589 324.00391 212.53516 L 316.30273 216.76758 L 304.54883 223.22656 C 308.3842 230.77875 312.59399 238.3925 313.54492 246.92383 C 315.16573 258.93558 313.62682 271.50617 307.83008 282.25391 C 300.95851 295.44953 288.91758 305.97767 274.69531 310.42383 C 264.98483 313.53184 254.44467 313.83181 244.41797 311.875 C 239.24997 310.86086 234.28836 308.95057 229.67773 306.37695 C 223.66668 303.17877 218.21788 298.90163 213.77539 293.7207 C 208.19364 287.4644 204.15501 279.97683 201.68945 271.99414 C 199.55173 264.91144 199.13184 257.41257 199.75 250.04102 C 200.41552 242.66821 202.64244 235.36848 206.21484 228.8457 C 211.6566 218.62353 220.22048 209.99209 230.58594 204.81836 C 239.42084 200.17497 249.51357 197.97202 259.45898 198.69531 C 268.34545 199.03364 277.23263 201.28418 284.95117 205.82617 C 288.2985 207.71468 291.37648 210.03413 294.64258 212.03516 C 295.05404 212.20626 295.4797 212.26628 295.9043 212.25586 L 305.09766 202.26758 L 310.25977 196.66016 C 310.2908 196.31861 310.32996 195.97506 310.29492 195.63477 z M 200.63477 196.60547 L 200.53906 196.69531 L 200.49805 196.73242 C 188.50789 208.20577 179.72324 223.24385 176.69141 239.63867 C 172.2962 261.54507 177.05958 285.33051 190.32422 303.4082 C 193.486 307.71086 197.10372 311.66398 200.99219 315.31836 C 180.99122 308.47501 162.28689 298.38064 144.46484 287.0918 C 129.94047 277.77502 116.13232 267.33548 103.26758 255.83203 C 115.62675 245.00781 128.62822 234.88853 142.36133 225.86328 C 155.61686 217.21445 169.57406 209.60914 183.97852 203.08984 C 189.44069 200.67742 194.9887 198.48321 200.63477 196.60547 z M 257.73633 217.19141 C 256.20484 217.17744 254.67298 217.2004 253.14258 217.20898 C 243.66039 217.44416 234.75349 222.3376 228.36328 229.16797 C 220.60095 237.45481 216.51775 249.17647 217.97852 260.49023 C 219.50069 273.07088 227.52032 284.63346 238.74414 290.50781 C 246.46213 294.62984 255.61611 296.0421 264.20117 294.23828 C 275.93763 292.01251 286.44072 284.09293 291.75195 273.38086 C 294.50191 268.18203 295.91948 262.26226 295.58203 256.375 C 295.66353 251.49767 295.37729 246.48575 293.40039 241.95508 C 292.3869 239.42915 291.31112 236.85483 289.64062 234.6875 C 288.75905 233.78516 287.57189 233.31428 286.3457 233.22656 L 266.63281 244.05859 L 280.61719 228.86523 C 281.34739 226.47659 280.16922 223.58856 277.75977 222.69727 C 273.07475 219.8533 267.83374 217.77306 262.32422 217.39844 C 260.79822 217.2565 259.26781 217.20537 257.73633 217.19141 z " /><path
     style="fill:#3e3126;stroke-width:10;stroke-linejoin:round;paint-order:stroke fill markers"
     d="m 68.5,239.62242 c 0,0 72.05991,-116.5192 187.49805,-116.5192 115.43813,0 187.49804,116.6012 187.49804,116.6012 0,0 -117.6817,-93.37429 -187.49805,-93.38653 C 186.1817,146.30566 68.5,239.62242 68.5,239.62242 Z"
     id="path1"
     sodipodi:nodetypes="czczc" /><path
     style="fill:#3e3126;stroke-width:10;stroke-linejoin:round;paint-order:stroke fill markers"
     d="m 68.5,272.40486 c 0,0 72.05991,116.5192 187.49805,116.5192 115.43813,0 187.49804,-116.6012 187.49804,-116.6012 0,0 -117.6817,93.37429 -187.49805,93.38653 C 186.1817,365.72162 68.5,272.40486 68.5,272.40486 Z"
     id="path3"
     sodipodi:nodetypes="czczc" /></svg>
