<?xml version="1.0" encoding="UTF-8" standalone="no"?>
<svg
   viewBox="0 0 512 512"
   style="height: 512px; width: 512px;"
   version="1.1"
   id="svg12"
   sodipodi:docname="fall.svg"
   inkscape:version="1.3.2 (091e20e, 2023-11-25)"
   xml:space="preserve"
   xmlns:inkscape="http://www.inkscape.org/namespaces/inkscape"
   xmlns:sodipodi="http://sodipodi.sourceforge.net/DTD/sodipodi-0.dtd"
   xmlns="http://www.w3.org/2000/svg"
   xmlns:svg="http://www.w3.org/2000/svg"><sodipodi:namedview
     id="namedview12"
     pagecolor="#505050"
     bordercolor="#ffffff"
     borderopacity="1"
     inkscape:showpageshadow="0"
     inkscape:pageopacity="0"
     inkscape:pagecheckerboard="1"
     inkscape:deskcolor="#d1d1d1"
     inkscape:zoom="0.29163164"
     inkscape:cx="325.75341"
     inkscape:cy="363.47222"
     inkscape:window-width="1248"
     inkscape:window-height="406"
     inkscape:window-x="0"
     inkscape:window-y="38"
     inkscape:window-maximized="0"
     inkscape:current-layer="svg12" /><defs
     id="defs2"><radialGradient
       id="delapouite-viking-shield-gradient-0"><stop
         offset="0%"
         stop-color="#830000"
         stop-opacity="1"
         id="stop1" /><stop
         offset="100%"
         stop-color="#000"
         stop-opacity="1"
         id="stop2" /></radialGradient></defs><path
     d="M0 0h512v512H0z"
     fill="url(#pattern)"
     id="path2" /><svg
     version="1.1"
     id="svg11"><defs
       id="defs6"><filter
         id="b"
         x="-0.023338979"
         width="1.046678"
         y="-0.023448784"
         height="1.0468976"
         color-interpolation-filters="sRGB"><feGaussianBlur
           stdDeviation="4.823"
           id="feGaussianBlur2" /></filter><filter
         id="a"
         x="-0.012011281"
         width="1.0240226"
         y="-0.011988317"
         height="1.0239766"
         color-interpolation-filters="sRGB"><feGaussianBlur
           stdDeviation="2.55"
           id="feGaussianBlur3" /></filter><filter
         id="c"
         x="-0.11244604"
         width="1.2248921"
         y="-0.082623731"
         height="1.1652475"
         color-interpolation-filters="sRGB"><feGaussianBlur
           stdDeviation="15.63"
           id="feGaussianBlur4" /></filter><filter
         id="e"
         x="-0.23758603"
         width="1.4751721"
         y="-0.24869778"
         height="1.4973956"
         color-interpolation-filters="sRGB"><feGaussianBlur
           stdDeviation="18.7"
           id="feGaussianBlur5" /></filter><filter
         id="d"
         x="-0.21301439"
         width="1.4260288"
         y="-0.15141701"
         height="1.302834"
         color-interpolation-filters="sRGB"><feGaussianBlur
           stdDeviation="18.7"
           id="feGaussianBlur6" /></filter></defs><path
       d="M196.6 1.207c-2.5 11.323-4.8 22.703-10.2 33.383-7-10.68-12.6-20.91-16.7-31.988L2.494 4.338C13 104.9 10.86 175.3 1.979 278.3L15.4 295.5l-9.494 6.3L2.6 462.7l1.019 45.9 112.681 3.1c3.6-16.1 6.5-32.5 13.2-47.3 4.5 14.4 5.7 29.4 7 44.4l160 .3c.8-6.1.7-8.1 2.3-14.4 5.1 4.5 7.8 9.5 10.6 14.5.8-10.1 3.9-19.8 7-29.5 4.8 9.2 6.7 19.4 8.8 29.5l185.2.4-4.6-78.2-21.4-8.2 21.3-4.9 5.8-395.47c-7-6.73-13.3-13.744-18-21.465l-15.1.114-2.1 20.321-1.4 47.23.8 84.87-8.6-97.14c9.3-16.86 2.2-39.69 5.7-55.239-92.1 1.696-184.1.685-276.2-.314z"
       overflow="visible"
       color="#000"
       fill="#ebc893"
       fill-rule="evenodd"
       stroke="#e0aa58"
       enable-background="accumulate"
       id="path6" /><path
       d="M196.6 1.203c-2.5 11.327-4.8 22.707-10.2 33.387-7-10.68-12.6-20.91-16.7-31.99L2.494 4.336C13 104.9 10.86 175.3 1.979 278.3L15.4 295.5l-9.494 6.3L2.6 462.7l1.019 45.9 112.681 3.1c.5-2.1-7.9-2.3-7.4-4.5L5.244 504.5l-.914-47.3 4.63-153.7 12.42-9-13.093-16.8C16.95 177.3 16.36 104 6.113 5.992l162.687.164c4 10.804 10.3 24.254 17.1 34.664 5.3-10.41 9.5-25.97 12-37.02 89.8.974 173.8 3.521 263.6 1.867 4.6 1.226 10.6.431 11.3-4.149-92.1 1.696-184.1.684-276.2-.315zm296.9.158l-15.1.116-.6 6.277 13.5-2.557c4.6 7.533 9.7 12.383 16.6 18.943l-4.6 389.06-19.9 9.9 4.1-.6 18.2-4.2 5.8-395.47c-7-6.73-13.3-13.748-18-21.469zm9.6 435.739l3.5 69.7-177.7.1c.4 2.1-4.1.2-3.7 2.3l185.2.4-4.6-78.2zm-370 25.1c-1 2.2-2.9.4-3.7 2.6 4.2 14 5.8 29.5 7.1 44l158 .3c1.9-5 .8-9.7 4.3-14.4 5.1 4.5 7.8 9.5 10.6 14.5.8-10.1 3.9-19.8 7-29.5 1.8 3.4 3.2 7 4.3 10.6-1.4-5.6-2.4-8.3-5.1-13.4-3 9.4-6.7 16.2-7.5 26-2.7-4.9-5.4-9.7-10.4-14.1-3.4 4.6-6.2 9.1-8 14l-147.6 3.4c-3.4-14.6-7.1-30.3-9-44z"
       overflow="visible"
       color="#000"
       opacity=".527"
       fill="#c87137"
       fill-rule="evenodd"
       filter="url(#a)"
       enable-background="accumulate"
       id="path7" /><path
       d="M200.1 16.1c-2.3 10.67-10.5 21.38-15.6 31.44-6.6-10.06-13.9-19.69-17.7-30.12L17.34 19.05C24.61 113.6 7.605 179.3 16.85 277l18.26 20.1L10.34 309l7.1 141.6.96 43.3 90.2 3.4c3.4-15.2 15-35.6 21.3-49.6 4.3 13.6 15.4 36.7 16.6 50.9l45.1.8 13.8-18.7 14.4 22.2 68.7-8.6c1.8-4.7 4.5-9.1 7.8-13.5 4.8 4.2 7.4 8.9 10 13.6.8-9.5 7.7-19.6 10.6-28.7 4.5 8.6 19.9 28.9 33.1 33.9l114.6 5.6 22.3-14.7 19.4 14.7-14.5-67.6-34.6-14.2 37.5-15.1 2.1-96.9-14.5-21.9 15.2-13.4 5.1-239.63c-5.2-21.09-11.8-24.89-16.9-20.22l-4.2 2.11 2 19.14.7 44.47-7.1 124.23-18.3-137.78c8.8-15.88-3.9-35.38-.6-50.02-67.1 1.24-140.4-13.332-202.8-3.28-14 2.25-23.7 21.31-36.9 24.48-4.3 1.03-13.9-23.45-18.4-23.5z"
       overflow="visible"
       enable-background="accumulate"
       filter="url(#b)"
       fill-rule="evenodd"
       fill="#f6e7d0"
       color="#000"
       id="path8" /><path
       d="M354 27.39l-70.3 96.91 46.4 97.6-56.2 43.6 33 74.4-30.2 63.2 69.8 48.8 31.6 29.5 31.6-13.3L365.9 335l55.5-36.5 2.1-146.1-56.9-101.83zM116.6 55.48L89.9 123.6s33.7 65.3 35.8 68.8c2.1 3.6-7 118-7 118l42.8 73.8s9.9-82.9 7.1-83.6c-2.8-.7-29.5-42.1-29.5-42.1l23.8-84.3-36.5-37.2z"
       color="#000"
       overflow="visible"
       fill="#f2dbb9"
       fill-rule="evenodd"
       filter="url(#c)"
       enable-background="accumulate"
       id="path9" /><path
       d="M39.33 172.1l-5.62 108.1L74.45 328 42.84 464.9l96.96-39.3 30.2 42.9 74.4-38.7-80.8-169.9-60.4-16.9z"
       color="#000"
       overflow="visible"
       fill="#eed3a4"
       fill-rule="evenodd"
       enable-background="accumulate"
       filter="url(#d)"
       id="path10" /><path
       d="M266.9 66.72L324.5 191 434 221.2l21.8-111.6-41.4-68.86z"
       color="#000"
       overflow="visible"
       fill="#eed3a4"
       fill-rule="evenodd"
       enable-background="accumulate"
       filter="url(#e)"
       id="path11" /></svg><path
     style="fill:#3e3126;fill-opacity:1;stroke-width:0.56233"
     d="m 190.3236,435.6532 v -2.24933 h 69.72893 69.72894 v 2.24933 2.24931 H 260.05253 190.3236 Z m -74.4775,-7.99759 c -0.27492,-0.27492 -0.49985,-1.28712 -0.49985,-2.24933 v -1.74947 h 18.21033 18.21032 l 2.5959,2.21886 2.59588,2.21884 -20.30637,0.0305 c -11.1685,0.0167 -20.5313,-0.19446 -20.80621,-0.46938 z m 66.295,0.1849 c 0.17322,-0.17322 3.74893,-1.18541 7.94602,-2.24932 l 7.63107,-1.93438 H 301.2385 404.75881 v 2.24932 2.24932 H 293.29249 c -61.30647,0 -111.3246,-0.14172 -111.15139,-0.31494 z m -20.93251,-6.54227 c -9.11395,-4.51131 -10.27213,-18.00023 -2.08188,-24.24722 2.10394,-1.60476 12.29654,-4.40333 57.55204,-15.80193 30.2474,-7.61849 55.5518,-14.09888 56.232,-14.40088 0.94345,-0.41887 -7.68383,-8.24657 -36.38037,-33.00866 -35.17835,-30.3552 -41.70814,-36.58387 -41.70814,-39.78474 0,-0.63903 18.52897,-0.85859 72.45388,-0.85859 H 339.73 l -5.5366,2.74365 c -10.58717,5.24645 -20.35727,17.46502 -23.05548,28.83337 -3.54105,14.91945 0.29852,30.51943 10.12359,41.13168 3.71186,4.00925 4.07822,4.6808 3.18397,5.83635 -4.4269,5.72054 -11.84355,13.5917 -14.07276,14.93513 -1.73089,1.04314 -25.4579,7.36183 -65.69054,17.49393 -34.63955,8.72353 -65.33599,16.50801 -68.21433,17.29885 -6.83333,1.87747 -11.22023,1.82832 -15.25926,-0.17094 z m 67.72835,-5.525 c 5.99346,-1.74804 6.03553,-1.74947 53.42136,-1.80646 l 47.42317,-0.057 v 1.87443 1.87444 l -53.42136,-0.0679 -53.42136,-0.068 z m 117.33955,-39.77699 c -14.94339,-3.23605 -27.61217,-15.65407 -31.11142,-30.49563 -3.2682,-13.86156 0.66391,-27.78347 10.73992,-38.02544 8.29433,-8.43095 18.09182,-12.42057 30.14141,-12.27384 11.27853,0.13735 20.82634,4.50355 28.99872,13.26112 4.83061,5.17652 7.87524,10.79381 9.69017,17.87818 1.59924,6.24243 1.05328,17.20709 -1.16833,23.46348 -4.67198,13.15706 -16.43409,23.30228 -30.42058,26.23877 -6.40507,1.34477 -10.49693,1.33344 -16.86989,-0.0466 z m 26.99184,-81.3212 c -4.40216,-2.35515 -12.71455,-3.86643 -19.79031,-3.59808 -3.5504,0.13465 -6.45447,0.0368 -6.45351,-0.21753 8.1e-4,-0.25429 0.72153,-2.19434 1.60126,-4.3112 l 1.59951,-3.84885 h 15.64528 c 8.6049,0 15.64529,0.1764 15.64529,0.39199 0,0.60712 -4.70111,11.91495 -5.18987,12.48344 -0.23839,0.27729 -1.61434,-0.12761 -3.05765,-0.89977 z M 161.08244,287.9478 v -2.24932 h 15.74523 c 15.2454,0 15.74525,-0.0477 15.74525,-1.49955 0,-1.48849 0.49986,-1.49954 67.75339,-1.49954 66.61808,0 67.78533,0.0251 69.65974,1.49954 1.5889,1.24981 3.04168,1.49955 8.72352,1.49955 h 6.81714 v 2.24932 2.24932 h -92.22214 -92.22213 z m -99.719887,-9.74706 v -2.24931 h 64.480527 c 63.98067,0 64.48052,-0.0117 64.48052,-1.49956 0,-1.48769 0.49985,-1.49955 63.25475,-1.49955 62.32499,0 63.28304,0.0223 65.17987,1.51432 1.81684,1.42912 2.84066,1.50294 18.19978,1.3121 l 16.27464,-0.2022 18.25433,-44.17659 c 10.03989,-24.29712 19.01844,-44.99558 19.95234,-45.99658 4.9762,-5.33374 13.74635,-6.23213 19.11874,-1.9585 3.55332,2.8266 6.2038,7.92434 6.17539,11.87733 -0.0158,2.20189 -4.37987,13.55924 -16.0005,41.64099 l -15.97877,38.61335 30.24621,0.19585 30.24621,0.19585 v 2.24091 2.24091 H 253.30457 61.362553 Z m 99.719887,-9.74706 v -2.24931 h 13.95824 c 12.95262,0 13.93341,-0.0951 13.61332,-1.3191 -0.18973,-0.7255 -3.14398,-15.99277 -6.56501,-33.92724 -3.42101,-17.93449 -6.59477,-32.99357 -7.05278,-33.46463 -0.45801,-0.47105 -11.96688,-3.28321 -25.57526,-6.24924 -49.946193,-10.88608 -65.019493,-14.31128 -67.451559,-15.32745 -3.746603,-1.56542 -8.52928,-6.252 -10.724825,-10.5093 -1.583736,-3.07097 -1.964528,-4.87102 -1.992685,-9.41976 -0.05693,-9.19677 3.978121,-15.97634 11.92505,-20.03614 7.416128,-3.78862 7.218996,-3.81577 66.369569,9.1421 29.48485,6.45913 55.00135,12.4062 56.70334,13.21574 3.96383,1.88534 8.11146,5.92089 10.10843,9.83527 1.0082,1.97623 3.70088,14.07902 7.53461,33.86573 3.28115,16.93476 6.06503,30.88978 6.1864,31.01115 0.47244,0.47243 31.18348,-52.13159 31.18348,-53.41323 0,-0.7486 -3.73412,-21.97413 -8.29805,-47.16786 -9.01654,-49.772903 -9.0416,-50.030462 -5.56121,-57.144138 8.42901,-17.228299 34.5297,-15.56423 40.71705,2.595948 1.63898,4.810512 19.05452,103.242 19.01012,107.44399 -0.0246,2.32714 -0.57066,5.48993 -1.21349,7.02845 -0.64283,1.5385 -6.94865,12.55397 -14.01293,24.4788 l -12.84414,21.68152 2.99629,2.56472 c 1.64796,1.4106 8.85333,7.63846 16.01192,13.83969 l 13.01559,11.27498 h 18.2014 18.2014 v 2.24931 2.24933 h -92.22214 -92.22213 z m 64.48051,-137.20855 v -2.24931 h 8.54218 c 7.09769,0 8.61913,0.20055 8.99728,1.18598 1.21634,3.16971 0.84772,3.31266 -8.54217,3.31266 h -8.99729 z m 78.4763,1.74948 c -0.27492,-0.27492 -0.49986,-1.28711 -0.49986,-2.24932 v -1.74947 h 30.36584 30.36582 v 2.24931 2.24933 h -29.86598 c -16.42629,0 -30.09091,-0.22493 -30.36582,-0.49985 z M 150.5856,121.49808 v -2.24933 h 45.36129 c 38.65867,0 45.36131,0.15713 45.36131,1.06335 0,0.58483 0.2048,1.59703 0.45509,2.24932 0.41195,1.07348 -3.89076,1.18598 -45.36128,1.18598 H 150.5856 Z m 151.29432,0 -0.33014,-2.24933 h 68.84932 68.84931 v 2.24933 2.24932 h -68.51918 -68.51918 z m -76.31697,-9.74706 v -2.24931 h 7.12284 7.12286 v 2.24931 2.24933 h -7.12286 -7.12284 z m 74.70014,0.56233 c -0.24864,-0.92784 -0.45669,-1.94004 -0.46232,-2.24931 -0.006,-0.30929 14.49788,-0.56233 32.23002,-0.56233 h 32.24026 v 2.24931 2.24933 H 332.49312 300.7152 Z"
     id="path1" /></svg>
