<?xml version="1.0" encoding="UTF-8" standalone="no"?>
<svg
   viewBox="0 0 512 512"
   style="height: 512px; width: 512px;"
   version="1.1"
   id="svg12"
   sodipodi:docname="flock copy 2.svg"
   xml:space="preserve"
   inkscape:version="1.4 (e7c3feb1, 2024-10-09)"
   xmlns:inkscape="http://www.inkscape.org/namespaces/inkscape"
   xmlns:sodipodi="http://sodipodi.sourceforge.net/DTD/sodipodi-0.dtd"
   xmlns="http://www.w3.org/2000/svg"
   xmlns:svg="http://www.w3.org/2000/svg"><sodipodi:namedview
     id="namedview12"
     pagecolor="#505050"
     bordercolor="#ffffff"
     borderopacity="1"
     inkscape:showpageshadow="0"
     inkscape:pageopacity="0"
     inkscape:pagecheckerboard="1"
     inkscape:deskcolor="#d1d1d1"
     inkscape:zoom="0.30539301"
     inkscape:cx="-476.43527"
     inkscape:cy="815.34283"
     inkscape:window-width="1728"
     inkscape:window-height="1051"
     inkscape:window-x="0"
     inkscape:window-y="38"
     inkscape:window-maximized="1"
     inkscape:current-layer="svg12" /><defs
     id="defs2"><radialGradient
       id="lorc-fizzing-flask-gradient-0"><stop
         offset="0%"
         stop-color="#830000"
         stop-opacity="1"
         id="stop1" /><stop
         offset="100%"
         stop-color="#000"
         stop-opacity="1"
         id="stop2" /></radialGradient></defs><path
     d="M0 0h512v512H0z"
     fill="url(#pattern)"
     id="path2" /><svg
     version="1.1"
     id="svg11"><defs
       id="defs6"><filter
         id="b"
         x="-0.023338979"
         width="1.046678"
         y="-0.023448784"
         height="1.0468976"
         color-interpolation-filters="sRGB"><feGaussianBlur
           stdDeviation="4.823"
           id="feGaussianBlur2" /></filter><filter
         id="a"
         x="-0.012011281"
         width="1.0240226"
         y="-0.011988317"
         height="1.0239766"
         color-interpolation-filters="sRGB"><feGaussianBlur
           stdDeviation="2.55"
           id="feGaussianBlur3" /></filter><filter
         id="c"
         x="-0.11244604"
         width="1.2248921"
         y="-0.082623731"
         height="1.1652475"
         color-interpolation-filters="sRGB"><feGaussianBlur
           stdDeviation="15.63"
           id="feGaussianBlur4" /></filter><filter
         id="e"
         x="-0.23758603"
         width="1.4751721"
         y="-0.24869778"
         height="1.4973956"
         color-interpolation-filters="sRGB"><feGaussianBlur
           stdDeviation="18.7"
           id="feGaussianBlur5" /></filter><filter
         id="d"
         x="-0.21301439"
         width="1.4260288"
         y="-0.15141701"
         height="1.302834"
         color-interpolation-filters="sRGB"><feGaussianBlur
           stdDeviation="18.7"
           id="feGaussianBlur6" /></filter></defs><path
       d="M196.6 1.207c-2.5 11.323-4.8 22.703-10.2 33.383-7-10.68-12.6-20.91-16.7-31.988L2.494 4.338C13 104.9 10.86 175.3 1.979 278.3L15.4 295.5l-9.494 6.3L2.6 462.7l1.019 45.9 112.681 3.1c3.6-16.1 6.5-32.5 13.2-47.3 4.5 14.4 5.7 29.4 7 44.4l160 .3c.8-6.1.7-8.1 2.3-14.4 5.1 4.5 7.8 9.5 10.6 14.5.8-10.1 3.9-19.8 7-29.5 4.8 9.2 6.7 19.4 8.8 29.5l185.2.4-4.6-78.2-21.4-8.2 21.3-4.9 5.8-395.47c-7-6.73-13.3-13.744-18-21.465l-15.1.114-2.1 20.321-1.4 47.23.8 84.87-8.6-97.14c9.3-16.86 2.2-39.69 5.7-55.239-92.1 1.696-184.1.685-276.2-.314z"
       overflow="visible"
       color="#000"
       fill="#ebc893"
       fill-rule="evenodd"
       stroke="#e0aa58"
       enable-background="accumulate"
       id="path6" /><path
       d="M196.6 1.203c-2.5 11.327-4.8 22.707-10.2 33.387-7-10.68-12.6-20.91-16.7-31.99L2.494 4.336C13 104.9 10.86 175.3 1.979 278.3L15.4 295.5l-9.494 6.3L2.6 462.7l1.019 45.9 112.681 3.1c.5-2.1-7.9-2.3-7.4-4.5L5.244 504.5l-.914-47.3 4.63-153.7 12.42-9-13.093-16.8C16.95 177.3 16.36 104 6.113 5.992l162.687.164c4 10.804 10.3 24.254 17.1 34.664 5.3-10.41 9.5-25.97 12-37.02 89.8.974 173.8 3.521 263.6 1.867 4.6 1.226 10.6.431 11.3-4.149-92.1 1.696-184.1.684-276.2-.315zm296.9.158l-15.1.116-.6 6.277 13.5-2.557c4.6 7.533 9.7 12.383 16.6 18.943l-4.6 389.06-19.9 9.9 4.1-.6 18.2-4.2 5.8-395.47c-7-6.73-13.3-13.748-18-21.469zm9.6 435.739l3.5 69.7-177.7.1c.4 2.1-4.1.2-3.7 2.3l185.2.4-4.6-78.2zm-370 25.1c-1 2.2-2.9.4-3.7 2.6 4.2 14 5.8 29.5 7.1 44l158 .3c1.9-5 .8-9.7 4.3-14.4 5.1 4.5 7.8 9.5 10.6 14.5.8-10.1 3.9-19.8 7-29.5 1.8 3.4 3.2 7 4.3 10.6-1.4-5.6-2.4-8.3-5.1-13.4-3 9.4-6.7 16.2-7.5 26-2.7-4.9-5.4-9.7-10.4-14.1-3.4 4.6-6.2 9.1-8 14l-147.6 3.4c-3.4-14.6-7.1-30.3-9-44z"
       overflow="visible"
       color="#000"
       opacity=".527"
       fill="#c87137"
       fill-rule="evenodd"
       filter="url(#a)"
       enable-background="accumulate"
       id="path7" /><path
       d="M200.1 16.1c-2.3 10.67-10.5 21.38-15.6 31.44-6.6-10.06-13.9-19.69-17.7-30.12L17.34 19.05C24.61 113.6 7.605 179.3 16.85 277l18.26 20.1L10.34 309l7.1 141.6.96 43.3 90.2 3.4c3.4-15.2 15-35.6 21.3-49.6 4.3 13.6 15.4 36.7 16.6 50.9l45.1.8 13.8-18.7 14.4 22.2 68.7-8.6c1.8-4.7 4.5-9.1 7.8-13.5 4.8 4.2 7.4 8.9 10 13.6.8-9.5 7.7-19.6 10.6-28.7 4.5 8.6 19.9 28.9 33.1 33.9l114.6 5.6 22.3-14.7 19.4 14.7-14.5-67.6-34.6-14.2 37.5-15.1 2.1-96.9-14.5-21.9 15.2-13.4 5.1-239.63c-5.2-21.09-11.8-24.89-16.9-20.22l-4.2 2.11 2 19.14.7 44.47-7.1 124.23-18.3-137.78c8.8-15.88-3.9-35.38-.6-50.02-67.1 1.24-140.4-13.332-202.8-3.28-14 2.25-23.7 21.31-36.9 24.48-4.3 1.03-13.9-23.45-18.4-23.5z"
       overflow="visible"
       enable-background="accumulate"
       filter="url(#b)"
       fill-rule="evenodd"
       fill="#f6e7d0"
       color="#000"
       id="path8" /><path
       d="M354 27.39l-70.3 96.91 46.4 97.6-56.2 43.6 33 74.4-30.2 63.2 69.8 48.8 31.6 29.5 31.6-13.3L365.9 335l55.5-36.5 2.1-146.1-56.9-101.83zM116.6 55.48L89.9 123.6s33.7 65.3 35.8 68.8c2.1 3.6-7 118-7 118l42.8 73.8s9.9-82.9 7.1-83.6c-2.8-.7-29.5-42.1-29.5-42.1l23.8-84.3-36.5-37.2z"
       color="#000"
       overflow="visible"
       fill="#f2dbb9"
       fill-rule="evenodd"
       filter="url(#c)"
       enable-background="accumulate"
       id="path9" /><path
       d="M39.33 172.1l-5.62 108.1L74.45 328 42.84 464.9l96.96-39.3 30.2 42.9 74.4-38.7-80.8-169.9-60.4-16.9z"
       color="#000"
       overflow="visible"
       fill="#eed3a4"
       fill-rule="evenodd"
       enable-background="accumulate"
       filter="url(#d)"
       id="path10" /><path
       d="M266.9 66.72L324.5 191 434 221.2l21.8-111.6-41.4-68.86z"
       color="#000"
       overflow="visible"
       fill="#eed3a4"
       fill-rule="evenodd"
       enable-background="accumulate"
       filter="url(#e)"
       id="path11" /></svg><path
     d="m 378.43398,50.521055 c -2.39203,2.42292 -10.5972,13.11495 -12.75943,16.62515 -7.10597,11.53981 -13.51987,24.125445 -15.8206,31.044395 -2.12296,6.3839 -3.03867,14.94635 -2.82342,26.3953 0.17424,9.28627 1.52221,23.47086 2.71977,28.62678 0.53636,2.30778 0.32112,12.10705 -0.32993,15.00943 -0.26686,1.18874 -0.45962,2.38541 -0.42919,2.65845 0.0794,0.70662 -2.3885,8.48879 -2.83356,8.93649 -0.20379,0.20467 -0.17644,-1.5544 0.0604,-3.90938 0.23687,-2.35499 0.23907,-6.62518 0.006,-9.48918 -0.23422,-2.86401 -0.39654,-5.63317 -0.36081,-6.1541 0.13232,-1.93639 -2.22354,-12.51418 -4.15508,-18.65548 -1.09743,-3.49168 -2.2897,-7.64719 -2.6483,-9.23556 -1.00304,-4.43648 -2.35013,-14.75095 -2.25309,-17.25017 0.0851,-2.19442 1.96153,-10.85921 3.42154,-15.80118 1.03347,-3.4983 0.69383,-4.22786 -0.81381,-1.74982 -0.68722,1.1292 -2.14062,3.3448 -3.22967,4.92435 -11.74668,17.03359 -14.39675,22.07084 -17.26252,32.81096 -0.88086,3.30156 -2.01755,9.04059 -2.51378,12.69414 -0.82175,6.0478 -0.26862,22.24993 1.07053,31.38404 0.83763,5.71256 1.51118,10.59675 1.49618,10.85435 -0.015,0.2576 0.24525,3.96717 0.57783,8.24399 0.96069,12.34877 0.22099,28.89099 -1.36253,30.4745 -0.25936,0.25936 -0.49843,-3.88071 -0.5324,-9.19983 -0.0586,-9.28275 -0.89276,-17.45483 -2.56979,-25.19067 -0.79617,-3.67297 -4.21815,-14.17092 -4.81318,-14.76595 -0.6237,-0.62371 -3.72986,-11.13225 -4.38797,-14.84623 -1.00436,-5.66933 -1.01716,-8.17782 -0.0626,-12.54109 1.86097,-8.50996 1.77716,-13.93713 -0.12129,-7.84038 -0.69252,2.22398 -1.90419,4.00113 -5.45365,7.99961 -4.77436,5.37778 -6.75,8.38734 -8.47511,12.90808 -0.56813,1.48912 -1.21609,2.89047 -1.4406,3.11498 -0.88748,0.88747 -2.12341,12.88867 -1.98756,19.30742 0.18835,8.94311 0.75868,13.9561 2.09783,18.44464 1.47015,4.92742 -0.1041,3.70693 -1.83053,-1.41854 -0.74809,-2.2231 -1.49089,-4.17184 -1.64968,-4.33063 -0.15879,-0.1588 -1.04715,-3.21467 -1.97299,-6.79059 -1.69732,-6.55373 -1.69776,-6.56211 -0.21879,-20.31222 0.26157,-2.4335 0.14116,-3.00824 -0.49843,-2.36866 -0.46403,0.46403 -0.96466,1.50632 -1.11199,2.31529 -0.614,3.36905 -3.73559,7.963 -10.51824,15.48227 -10.61573,11.76874 -12.45949,16.42225 -12.04839,30.41717 0.23554,8.03667 2.17678,15.98027 6.12895,25.07909 7.02437,16.17346 8.39881,29.40442 4.02584,38.76789 -1.47545,3.16041 -1.59366,3.07749 -1.65409,-1.1636 -0.0666,-4.691 -1.7132,-13.05275 -3.54461,-18.00179 -1.1142,-3.01088 -3.88071,-8.14253 -10.389,-19.26904 -0.54387,-0.93026 -1.81244,-3.96496 -2.81857,-6.7434 -1.00613,-2.77842 -1.92051,-5.14311 -2.03167,-5.25426 -0.11159,-0.1116 -0.58532,-1.94565 -1.05376,-4.07612 -0.60871,-2.77093 -0.54255,-5.31073 0.23245,-8.92547 0.59548,-2.77887 0.98805,-5.45452 0.87204,-5.94546 -0.146,-0.61797 -0.27965,-0.60341 -0.43271,0.0463 -0.12174,0.51696 -2.69065,3.46786 -5.70815,6.55857 -4.71747,4.83039 -5.61111,6.01339 -6.37685,8.44116 -0.81646,2.58787 -1.52794,3.4608 -8.52581,10.45869 -8.9392,8.93915 -10.9011,11.94739 -14.7086,22.55473 -3.0925,8.61494 -4.2636,17.05697 -3.2636,23.52645 1.1852,7.671 2.5468,14.23752 3.8079,18.36745 4.0558,13.2808 3.1247,28.43005 -2.0767,33.79107 -1.0608,1.09346 -1.0714,1.07317 -0.4486,-0.88968 0.9149,-2.88385 0.9171,-7.01908 0.01,-13.18023 -1.0759,-7.27932 -2.0683,-10.4093 -5.9477,-18.75341 -2.4331,-5.23398 -5.0284,-13.53177 -5.9622,-19.06437 -0.8941,-5.29706 -0.4998,-9.19366 1.4741,-14.56746 0.7172,-1.95139 1.5434,-4.20139 1.8363,-4.99888 0.2933,-0.79793 0.415,-1.45074 0.2703,-1.45074 -0.288,-4.5e-4 -9.161,10.18345 -14.8691,17.0649 -5.1965,6.2657 -10.5893,16.48753 -13.4586,25.51004 -3.0126,9.47551 -3.3858,20.52659 -1.0987,32.53087 0.8204,4.30769 0.1596,10.64793 -1.6409,15.74339 -1.6245,4.59572 -3.4559,7.01995 -2.658,3.51725 0.27,-1.18565 0.4455,-5.03196 0.3904,-8.54789 -0.098,-6.27714 -1.0137,-11.66595 -3.6426,-21.44051 -0.7273,-2.70433 -1.3735,-6.87749 -1.4361,-9.27349 -0.097,-3.69943 0.2337,-5.00638 2.1908,-8.66787 2.7361,-5.11974 2.9818,-8.50246 0.7746,-10.66381 l -1.4415,-1.41149 0.895,2.50319 c 0.4927,1.37664 0.7944,2.95486 0.67,3.50711 -0.1239,0.55181 -3.4555,4.23976 -7.4037,8.1959 -6.293,6.30451 -7.2829,7.5131 -8.0226,9.79486 -0.8151,2.51245 -0.2266,8.58715 0.9493,9.80104 1.3083,1.35062 4.5503,9.06174 5.687,13.52514 1.9933,7.82803 1.108,14.803 -2.8362,22.35182 -2.576,4.92874 -3.4035,5.42453 -1.9368,1.16051 2.9521,-8.58318 2.646,-22.50047 -0.7062,-32.11095 -2.8804,-8.25632 -3.838,-12.71531 -3.1971,-14.88238 0.2907,-0.98231 0.3066,-1.58043 0.035,-1.32812 -0.2713,0.25186 -0.7993,1.96638 -1.1742,3.81014 -0.6382,3.14365 -0.5037,5.01076 1.1235,15.61326 0.9307,6.06411 0.6564,17.45043 -0.5363,22.25655 -1.3401,5.39983 -3.8415,10.82039 -6.5944,14.29045 -1.2161,1.53279 -2.4467,3.27951 -2.7343,3.88204 -1.1358,2.37792 -0.4561,-0.78426 0.8553,-3.97467 4.5653,-11.11019 7.9237,-32.05052 6.7932,-42.35484 -0.5394,-4.9186 -0.7997,-5.66933 -2.3012,-6.63003 -2.9526,-1.88875 -4.8736,-1.83802 -6.9255,0.18217 -1.9814,1.95139 -2.1088,2.94957 -0.6767,5.28074 1.2091,1.96859 1.517,1.56631 0.7195,-0.93997 -0.7133,-2.24029 0.5809,-4.16169 2.6721,-3.96717 0.9638,0.0896 1.4953,0.59548 2.4119,2.29632 1.7246,3.19968 1.404,4.96801 -1.5341,8.46365 -1.4014,1.66688 -2.8517,3.91821 -3.2226,5.00285 -1.5624,4.5644 -2.5668,12.22129 -2.9011,22.11231 -0.4168,12.3395 -1.1031,15.12808 -4.5542,18.51124 -5.6111,5.50085 -24.4519,14.71523 -48.769195,23.85197 -2.4053,0.90382 -4.448,1.71762 -4.5397,1.80938 -0.091,0.0913 -4.370804,1.63953 -9.510404,3.44005 -5.1396,1.80053 -10.6409,3.78545 -12.2257,4.41137 -3.8344,1.51333 -8.618,4.37911 -8.6185,5.16204 5e-4,1.20199 3.857,0.5946 24.7007,-3.88906 3.0175,-0.64888 25.530704,-7.99302 28.449899,-9.28009 1.01,-0.44552 3.8529,-1.61308 6.3177,-2.59406 5.2838,-2.10357 20.2902,-9.6026 21.3638,-10.67621 0.4102,-0.41021 2.2968,-1.55481 4.1921,-2.54328 1.8954,-0.98853 5.3826,-3.03693 7.7496,-4.55163 2.3664,-1.51515 6.0407,-3.79559 8.1645,-5.06813 20.9602,-12.55741 50.504,-35.14785 79.4876,-60.77918 12.76824,-11.29147 49.2107,-47.72247 59.77703,-59.75851 9.76266,-11.12034 23.52645,-27.82002 28.14908,-34.15408 1.86757,-2.55921 4.02671,-5.28382 4.79774,-6.05486 0.77102,-0.77102 3.04396,-3.80793 5.05137,-6.74868 2.00696,-2.94119 5.7055,-8.25325 8.21884,-11.80491 11.23458,-15.8775 11.51599,-16.30271 16.27889,-24.61197 1.74187,-3.03867 3.56886,-5.77696 4.05979,-6.08528 0.49094,-0.30833 0.25848,0.59106 -0.51696,1.99902 -0.77587,1.40752 -1.92932,3.62841 -2.56405,4.93448 -0.63429,1.30651 -1.87067,3.44448 -2.74667,4.75187 -0.87645,1.30695 -3.29451,5.2406 -5.37337,8.74153 -11.58921,19.51826 -24.18014,36.31896 -50.07392,66.81508 -12.67959,14.93356 -51.31339,53.58236 -67.03297,67.05856 -29.4834,25.27625 -41.6045,34.72971 -63.6882,49.67207 -11.7109,7.92375 -16.2211,10.61131 -18.5042,11.02506 -1.6289,0.29509 -5.2785,3.62972 -5.0473,4.6107 0.081,0.34228 1.1454,-0.17335 2.366,-1.14679 1.22,-0.97306 2.8662,-1.79968 3.6588,-1.83717 2.4957,-0.11733 7.821,2.0021 14.9428,5.94812 9.7376,5.39452 12.5469,6.70855 16.937,7.91847 7.3257,2.01929 16.9467,1.65056 27.3596,-1.04848 3.9274,-1.01804 13.2927,-2.15696 15.9679,-1.94213 1.1684,0.0939 1.8764,-0.0909 1.5738,-0.41108 -0.8099,-0.8566 -6.6023,-2.65007 -9.3119,-2.88344 -4.8321,-0.41594 -9.9854,-2.22926 -15.7998,-5.55952 -7.4483,-4.26532 -10.0415,-5.47612 -16.6481,-7.77156 -6.2216,-2.16178 -15.9031,-4.27857 -17.7341,-3.87762 -1.2447,0.27259 -1.2557,0.26068 -0.2408,-0.26907 0.584,-0.30435 1.2346,-0.72647 1.4459,-0.93776 0.2108,-0.21084 1.9593,-0.0732 3.8847,0.30568 1.9258,0.37934 3.9257,0.66164 4.4444,0.62811 1.9598,-0.12659 13.6041,2.55303 18.6453,4.29137 2.8865,0.9951 7.4858,2.93722 10.2201,4.31652 4.6513,2.34526 6.1885,2.95883 11.8883,4.74083 3.1913,0.9982 12.5794,0.88791 18.0335,-0.21084 8.88841,-1.79036 15.25114,-4.24327 25.04644,-9.65589 6.24673,-3.4511 10.4018,-5.44482 12.96585,-6.22158 1.3965,-0.42345 2.37307,-0.93512 2.17062,-1.13758 -0.20247,-0.20245 -3.95262,-0.34802 -8.33397,-0.32376 -4.38135,0.0251 -9.30922,-0.19981 -10.95096,-0.49887 -3.59136,-0.6537 -13.34696,-3.57945 -13.95125,-4.18374 -0.92364,-0.92364 -13.12733,-4.998 -18.06043,-6.03015 -10.8861,-2.27692 -26.2877,-3.43742 -31.8295,-2.39733 -3.044,0.57121 -3.1975,0.53591 -1.7154,-0.39213 6.1743,-3.86836 34.5431,-4.07964 53.85357,-0.40051 17.98679,3.42727 35.92682,-0.56989 55.9122,-12.45684 3.37831,-2.00917 9.24172,-5.97678 10.09656,-6.83161 0.25936,-0.25936 -2.59052,-0.48564 -6.33362,-0.50329 -5.6239,-0.0264 -7.64322,-0.38021 -11.63553,-2.03828 -2.65668,-1.10316 -6.95776,-2.87943 -9.55799,-3.94643 -6.33229,-2.59802 -19.8848,-6.31509 -25.86511,-7.09406 -2.66287,-0.34714 -4.84141,-0.81425 -4.84141,-1.03833 -4.4e-4,-0.22363 2.79387,-0.31405 6.20923,-0.20069 9.13631,0.30391 19.24875,1.99328 27.9378,4.66762 12.14984,3.73912 23.1824,4.03641 31.99759,0.86189 3.24907,-1.17065 4.54279,-3.07308 1.44281,-2.12297 -3.03559,0.9307 -13.35314,1.15786 -18.81693,0.41462 -2.48333,-0.33787 -8.80505,-1.99726 -14.04741,-3.68707 -5.24148,-1.68982 -10.69909,-3.27642 -12.12735,-3.52608 -3.95261,-0.69031 -17.05652,-2.69198 -17.59289,-2.68757 -5.72138,0.0481 -11.17856,-0.35154 -11.17856,-0.8191 4.4e-4,-0.59768 8.47467,-1.53985 12.06956,-1.34136 8.99648,0.49579 12.77751,0.8963 20.41015,2.16046 24.8259,4.11317 33.87046,3.86925 46.25849,-1.24696 8.88356,-3.66811 14.30721,-7.91052 26.44646,-20.68318 5.68346,-5.97986 10.8473,-11.70213 11.47497,-12.71619 l 1.14022,-1.84332 -3.37081,1.22006 c -6.13778,2.22265 -16.96919,1.15873 -28.97921,-2.84548 -14.98738,-4.99668 -32.81625,-6.50433 -43.70767,-3.69546 -5.09636,1.31445 -2.89531,-0.30877 2.71801,-2.00431 11.06211,-3.34038 22.34476,-4.27505 32.1952,-2.66684 2.50274,0.40845 4.9777,0.71237 5.49996,0.67531 0.52225,-0.0371 2.12076,0.15085 3.55254,0.41727 6.38611,1.1883 20.35677,2.0718 24.40995,1.54382 7.53251,-0.98143 11.48026,-2.96457 18.21219,-9.14866 3.31832,-3.04838 7.07774,-7.03452 8.80902,-9.34009 3.46609,-4.61646 4.56529,-6.50256 13.81628,-23.69142 4.82244,-8.95987 8.22546,-14.31074 10.63293,-16.71822 2.95839,-2.95839 2.4282,-3.8688 -0.93423,-1.6038 -1.52618,1.02774 -4.77392,3.20629 -7.21713,4.84141 -8.65463,5.79284 -24.76811,10.29947 -39.52921,11.05594 -4.57676,0.23466 -13.45591,-1.16184 -18.96513,-2.98266 -5.44703,-1.80009 -8.01947,-3.65003 -3.14674,-2.26279 1.75334,0.49975 7.96124,0.86144 13.79511,0.80499 14.67994,-0.14247 22.54149,-1.80847 33.84223,-7.17213 10.00614,-4.74923 13.49781,-7.22375 21.24601,-15.05487 8.16017,-8.24839 9.89366,-11.06431 3.41669,-5.55068 -2.44629,2.08283 -5.76241,4.52294 -7.36886,5.42277 -1.60645,0.89982 -3.74794,2.12826 -4.75892,2.73079 -3.18689,1.89889 -13.85334,5.10386 -17.75522,5.33587 -7.54001,0.44727 -10.06305,0.44374 -11.58084,-0.019 -1.46442,-0.44638 -1.46707,-0.48256 -0.049,-0.65943 0.82572,-0.10322 3.55475,-0.31714 6.06411,-0.47638 10.48385,-0.6634 22.61296,-6.76456 33.74961,-16.97581 3.03735,-2.78504 5.02799,-4.76422 4.42414,-4.39767 -18.58712,11.27824 -27.88575,14.45894 -43.21497,14.78226 -6.70546,0.14116 -16.86157,-0.71059 -16.86157,-1.41457 -4.4e-4,-0.25275 2.11724,-0.47285 4.70468,-0.48873 10.75776,-0.0657 26.44294,-4.91596 39.98927,-12.36642 4.24461,-2.33381 15.33054,-10.50236 18.37627,-13.54016 4.92786,-4.91462 6.43772,-12.26364 4.72232,-22.98963 -0.38684,-2.42027 -0.7353,-7.04554 -0.77367,-10.27829 -0.0644,-5.37778 -0.15262,-5.72889 -1.03789,-4.1317 -0.5324,0.96025 -1.14419,2.31926 -1.36077,3.02015 -0.72868,2.36071 -7.35871,10.44546 -11.96193,14.58642 -3.1441,2.82827 -5.91856,4.76554 -8.98413,6.27319 l -4.43561,2.18075 2.39556,-2.45643 c 2.91208,-2.98706 11.03035,-14.058 13.43606,-18.32247 4.49604,-7.97182 6.3742,-14.2009 6.60666,-21.91425 0.10012,-3.32979 -1.33077,-11.62583 -2.14591,-12.44096 -0.36699,-0.36699 -0.59679,-0.96291 -0.51166,-1.32416 0.36787,-1.55881 -7.29873,-14.68522 -14.32795,-24.53125 -9.53593,-13.357535 -13.00688,-19.754675 -14.54143,-26.798455 -0.90159,-4.13831 -0.98805,-10.16184 -0.15791,-10.99197 0.29597,-0.29597 0.46226,-0.85925 0.36963,-1.25182 -0.0997,-0.42168 -0.76132,-0.11292 -1.6188,0.75514"
     stroke="none"
     fill="undefined"
     fill-rule="evenodd"
     id="path1-9"
     style="fill:#3e3126;fill-opacity:1;stroke-width:0.623796" /></svg>
