<?xml version="1.0" encoding="UTF-8" standalone="no"?>
<svg
   viewBox="0 0 512 512"
   style="height: 512px; width: 512px;"
   version="1.1"
   id="svg12"
   sodipodi:docname="glowing-hands.svg"
   inkscape:version="1.3.2 (091e20e, 2023-11-25)"
   xmlns:inkscape="http://www.inkscape.org/namespaces/inkscape"
   xmlns:sodipodi="http://sodipodi.sourceforge.net/DTD/sodipodi-0.dtd"
   xmlns="http://www.w3.org/2000/svg"
   xmlns:svg="http://www.w3.org/2000/svg">
  <sodipodi:namedview
     id="namedview12"
     pagecolor="#505050"
     bordercolor="#ffffff"
     borderopacity="1"
     inkscape:showpageshadow="0"
     inkscape:pageopacity="0"
     inkscape:pagecheckerboard="1"
     inkscape:deskcolor="#d1d1d1"
     inkscape:zoom="0.44298482"
     inkscape:cx="261.85999"
     inkscape:cy="250.57292"
     inkscape:window-width="1248"
     inkscape:window-height="406"
     inkscape:window-x="0"
     inkscape:window-y="38"
     inkscape:window-maximized="0"
     inkscape:current-layer="svg12" />
  <defs
     id="defs2">
    <radialGradient
       id="lorc-glowing-hands-gradient-0">
      <stop
         offset="0%"
         stop-color="#830000"
         stop-opacity="1"
         id="stop1" />
      <stop
         offset="100%"
         stop-color="#000"
         stop-opacity="1"
         id="stop2" />
    </radialGradient>
  </defs>
  <path
     d="M0 0h512v512H0z"
     fill="url(#pattern)"
     id="path2" />
  <svg
     version="1.1"
     id="svg11">
    <defs
       id="defs6">
      <filter
         id="b"
         x="-0.023338979"
         width="1.046678"
         y="-0.023448784"
         height="1.0468976"
         color-interpolation-filters="sRGB">
        <feGaussianBlur
           stdDeviation="4.823"
           id="feGaussianBlur2" />
      </filter>
      <filter
         id="a"
         x="-0.012011281"
         width="1.0240226"
         y="-0.011988317"
         height="1.0239766"
         color-interpolation-filters="sRGB">
        <feGaussianBlur
           stdDeviation="2.55"
           id="feGaussianBlur3" />
      </filter>
      <filter
         id="c"
         x="-0.11244604"
         width="1.2248921"
         y="-0.082623731"
         height="1.1652475"
         color-interpolation-filters="sRGB">
        <feGaussianBlur
           stdDeviation="15.63"
           id="feGaussianBlur4" />
      </filter>
      <filter
         id="e"
         x="-0.23758603"
         width="1.4751721"
         y="-0.24869778"
         height="1.4973956"
         color-interpolation-filters="sRGB">
        <feGaussianBlur
           stdDeviation="18.7"
           id="feGaussianBlur5" />
      </filter>
      <filter
         id="d"
         x="-0.21301439"
         width="1.4260288"
         y="-0.15141701"
         height="1.302834"
         color-interpolation-filters="sRGB">
        <feGaussianBlur
           stdDeviation="18.7"
           id="feGaussianBlur6" />
      </filter>
    </defs>
    <path
       d="M196.6 1.207c-2.5 11.323-4.8 22.703-10.2 33.383-7-10.68-12.6-20.91-16.7-31.988L2.494 4.338C13 104.9 10.86 175.3 1.979 278.3L15.4 295.5l-9.494 6.3L2.6 462.7l1.019 45.9 112.681 3.1c3.6-16.1 6.5-32.5 13.2-47.3 4.5 14.4 5.7 29.4 7 44.4l160 .3c.8-6.1.7-8.1 2.3-14.4 5.1 4.5 7.8 9.5 10.6 14.5.8-10.1 3.9-19.8 7-29.5 4.8 9.2 6.7 19.4 8.8 29.5l185.2.4-4.6-78.2-21.4-8.2 21.3-4.9 5.8-395.47c-7-6.73-13.3-13.744-18-21.465l-15.1.114-2.1 20.321-1.4 47.23.8 84.87-8.6-97.14c9.3-16.86 2.2-39.69 5.7-55.239-92.1 1.696-184.1.685-276.2-.314z"
       overflow="visible"
       color="#000"
       fill="#ebc893"
       fill-rule="evenodd"
       stroke="#e0aa58"
       enable-background="accumulate"
       id="path6" />
    <path
       d="M196.6 1.203c-2.5 11.327-4.8 22.707-10.2 33.387-7-10.68-12.6-20.91-16.7-31.99L2.494 4.336C13 104.9 10.86 175.3 1.979 278.3L15.4 295.5l-9.494 6.3L2.6 462.7l1.019 45.9 112.681 3.1c.5-2.1-7.9-2.3-7.4-4.5L5.244 504.5l-.914-47.3 4.63-153.7 12.42-9-13.093-16.8C16.95 177.3 16.36 104 6.113 5.992l162.687.164c4 10.804 10.3 24.254 17.1 34.664 5.3-10.41 9.5-25.97 12-37.02 89.8.974 173.8 3.521 263.6 1.867 4.6 1.226 10.6.431 11.3-4.149-92.1 1.696-184.1.684-276.2-.315zm296.9.158l-15.1.116-.6 6.277 13.5-2.557c4.6 7.533 9.7 12.383 16.6 18.943l-4.6 389.06-19.9 9.9 4.1-.6 18.2-4.2 5.8-395.47c-7-6.73-13.3-13.748-18-21.469zm9.6 435.739l3.5 69.7-177.7.1c.4 2.1-4.1.2-3.7 2.3l185.2.4-4.6-78.2zm-370 25.1c-1 2.2-2.9.4-3.7 2.6 4.2 14 5.8 29.5 7.1 44l158 .3c1.9-5 .8-9.7 4.3-14.4 5.1 4.5 7.8 9.5 10.6 14.5.8-10.1 3.9-19.8 7-29.5 1.8 3.4 3.2 7 4.3 10.6-1.4-5.6-2.4-8.3-5.1-13.4-3 9.4-6.7 16.2-7.5 26-2.7-4.9-5.4-9.7-10.4-14.1-3.4 4.6-6.2 9.1-8 14l-147.6 3.4c-3.4-14.6-7.1-30.3-9-44z"
       overflow="visible"
       color="#000"
       opacity=".527"
       fill="#c87137"
       fill-rule="evenodd"
       filter="url(#a)"
       enable-background="accumulate"
       id="path7" />
    <path
       d="M200.1 16.1c-2.3 10.67-10.5 21.38-15.6 31.44-6.6-10.06-13.9-19.69-17.7-30.12L17.34 19.05C24.61 113.6 7.605 179.3 16.85 277l18.26 20.1L10.34 309l7.1 141.6.96 43.3 90.2 3.4c3.4-15.2 15-35.6 21.3-49.6 4.3 13.6 15.4 36.7 16.6 50.9l45.1.8 13.8-18.7 14.4 22.2 68.7-8.6c1.8-4.7 4.5-9.1 7.8-13.5 4.8 4.2 7.4 8.9 10 13.6.8-9.5 7.7-19.6 10.6-28.7 4.5 8.6 19.9 28.9 33.1 33.9l114.6 5.6 22.3-14.7 19.4 14.7-14.5-67.6-34.6-14.2 37.5-15.1 2.1-96.9-14.5-21.9 15.2-13.4 5.1-239.63c-5.2-21.09-11.8-24.89-16.9-20.22l-4.2 2.11 2 19.14.7 44.47-7.1 124.23-18.3-137.78c8.8-15.88-3.9-35.38-.6-50.02-67.1 1.24-140.4-13.332-202.8-3.28-14 2.25-23.7 21.31-36.9 24.48-4.3 1.03-13.9-23.45-18.4-23.5z"
       overflow="visible"
       enable-background="accumulate"
       filter="url(#b)"
       fill-rule="evenodd"
       fill="#f6e7d0"
       color="#000"
       id="path8" />
    <path
       d="M354 27.39l-70.3 96.91 46.4 97.6-56.2 43.6 33 74.4-30.2 63.2 69.8 48.8 31.6 29.5 31.6-13.3L365.9 335l55.5-36.5 2.1-146.1-56.9-101.83zM116.6 55.48L89.9 123.6s33.7 65.3 35.8 68.8c2.1 3.6-7 118-7 118l42.8 73.8s9.9-82.9 7.1-83.6c-2.8-.7-29.5-42.1-29.5-42.1l23.8-84.3-36.5-37.2z"
       color="#000"
       overflow="visible"
       fill="#f2dbb9"
       fill-rule="evenodd"
       filter="url(#c)"
       enable-background="accumulate"
       id="path9" />
    <path
       d="M39.33 172.1l-5.62 108.1L74.45 328 42.84 464.9l96.96-39.3 30.2 42.9 74.4-38.7-80.8-169.9-60.4-16.9z"
       color="#000"
       overflow="visible"
       fill="#eed3a4"
       fill-rule="evenodd"
       enable-background="accumulate"
       filter="url(#d)"
       id="path10" />
    <path
       d="M266.9 66.72L324.5 191 434 221.2l21.8-111.6-41.4-68.86z"
       color="#000"
       overflow="visible"
       fill="#eed3a4"
       fill-rule="evenodd"
       enable-background="accumulate"
       filter="url(#e)"
       id="path11" />
  </svg>
  <g
     class=""
     transform="matrix(0.8999591,0,0,0.8999591,24.641384,25.639733)"
     id="g12">
    <path
       d="m 104.748,18.654 49.537,95.77 c -2.842,2.11 -5.612,4.31 -8.322,6.578 L 96.35,93.346 l 27.603,49.515 c -23.207,27.374 -38.42,61.737 -42.035,99.488 l -53.672,15.25 53.29,15.142 c 2.714,38.4 17.42,73.486 40.384,101.55 l -9.27,16.628 -93.978,89.217 v 13.795 h 12.61 l 93.935,-89.17 16.94,-9.446 c 28.21,24.968 64.26,41.267 104,44.72 l 14.052,49.456 13.972,-49.174 c 20.024,-1.333 39.16,-5.918 56.877,-13.24 l 32.15,66.854 h 20.735 l -36.006,-74.87 c 11.583,-6.262 22.403,-13.756 32.29,-22.298 l 44.143,24.607 -24.654,-44.227 c 24.54,-28.775 40.23,-65.33 42.833,-105.455 l 49.588,-14.09 -49.947,-14.192 c -0.628,-6.983 -1.64,-13.856 -3.037,-20.588 l 54.793,-20.605 v -19.967 l -59.577,22.404 c -7.712,-24.122 -20.35,-46.036 -36.725,-64.574 l 26.164,-46.935 -47.45,26.452 c -4.984,-4.07 -10.19,-7.883 -15.598,-11.412 L 422.433,18.655 H 399.74 l -55.18,80.1 C 323.59,87.98 300.23,81.204 275.492,79.38 L 260.21,25.597 244.84,79.678 c -27.16,2.56 -52.57,11.12 -74.897,24.343 L 125.79,18.655 h -21.042 z m 80.846,148.838 32.418,66.22 c 2.915,2.22 5.857,4.2 8.96,5.774 l 8.485,-39.52 18.272,3.923 -11.437,53.253 c -0.877,6.204 -2.08,11.73 -3.57,16.632 l -0.207,0.963 -0.088,-0.02 c -10.842,34.21 -36.004,37.086 -61.21,26.79 l -74.59,-18.977 4.606,-18.112 53.29,13.56 c 0.475,-2.618 1.07,-5.195 1.798,-7.718 l -59.506,-32.723 9.006,-16.377 57.885,31.832 c 1.276,-2.172 2.645,-4.256 4.115,-6.226 l -46.256,-45.905 13.165,-13.261 46.487,46.13 c 2.515,-1.71 5.16,-3.137 7.898,-4.283 L 168.81,175.71 Z m 153.21,0 16.784,8.217 -26.307,53.735 c 2.74,1.146 5.384,2.574 7.9,4.284 l 46.486,-46.132 13.164,13.263 -46.258,45.906 c 1.47,1.97 2.84,4.054 4.117,6.226 l 57.884,-31.832 9.006,16.377 -59.506,32.723 c 0.727,2.523 1.323,5.1 1.797,7.717 l 53.288,-13.56 4.61,18.114 -74.584,18.976 c -30.147,12.315 -60.23,5.795 -65.83,-50.63 L 270.69,204 l 18.224,-4.145 8.96,39.39 c 2.934,-1.535 5.736,-3.42 8.51,-5.53 z"
       fill="#3e3126"
       fill-opacity="1"
       id="path12" />
  </g>
</svg>
