<?xml version="1.0" encoding="UTF-8" standalone="no"?>
<svg
   viewBox="0 0 512 512"
   style="height: 512px; width: 512px;"
   version="1.1"
   id="svg12"
   sodipodi:docname="griffin--weaving-strike.svg"
   inkscape:version="1.4 (e7c3feb1, 2024-10-09)"
   xmlns:inkscape="http://www.inkscape.org/namespaces/inkscape"
   xmlns:sodipodi="http://sodipodi.sourceforge.net/DTD/sodipodi-0.dtd"
   xmlns="http://www.w3.org/2000/svg"
   xmlns:svg="http://www.w3.org/2000/svg">
  <sodipodi:namedview
     id="namedview12"
     pagecolor="#505050"
     bordercolor="#ffffff"
     borderopacity="1"
     inkscape:showpageshadow="0"
     inkscape:pageopacity="0"
     inkscape:pagecheckerboard="1"
     inkscape:deskcolor="#d1d1d1"
     inkscape:zoom="0.25762485"
     inkscape:cx="122.27081"
     inkscape:cy="161.08694"
     inkscape:window-width="1248"
     inkscape:window-height="550"
     inkscape:window-x="0"
     inkscape:window-y="38"
     inkscape:window-maximized="0"
     inkscape:current-layer="svg12" />
  <defs
     id="defs2">
    <radialGradient
       id="lorc-blade-drag-gradient-0">
      <stop
         offset="0%"
         stop-color="#830000"
         stop-opacity="1"
         id="stop1" />
      <stop
         offset="100%"
         stop-color="#000"
         stop-opacity="1"
         id="stop2" />
    </radialGradient>
  </defs>
  <path
     d="M0 0h512v512H0z"
     fill="url(#pattern)"
     id="path2" />
  <svg
     version="1.1"
     id="svg11">
    <defs
       id="defs6">
      <filter
         id="b"
         x="-0.023338979"
         width="1.046678"
         y="-0.023448784"
         height="1.0468976"
         color-interpolation-filters="sRGB">
        <feGaussianBlur
           stdDeviation="4.823"
           id="feGaussianBlur2" />
      </filter>
      <filter
         id="a"
         x="-0.012011281"
         width="1.0240226"
         y="-0.011988317"
         height="1.0239766"
         color-interpolation-filters="sRGB">
        <feGaussianBlur
           stdDeviation="2.55"
           id="feGaussianBlur3" />
      </filter>
      <filter
         id="c"
         x="-0.11244604"
         width="1.2248921"
         y="-0.082623731"
         height="1.1652475"
         color-interpolation-filters="sRGB">
        <feGaussianBlur
           stdDeviation="15.63"
           id="feGaussianBlur4" />
      </filter>
      <filter
         id="e"
         x="-0.23758603"
         width="1.4751721"
         y="-0.24869778"
         height="1.4973956"
         color-interpolation-filters="sRGB">
        <feGaussianBlur
           stdDeviation="18.7"
           id="feGaussianBlur5" />
      </filter>
      <filter
         id="d"
         x="-0.21301439"
         width="1.4260288"
         y="-0.15141701"
         height="1.302834"
         color-interpolation-filters="sRGB">
        <feGaussianBlur
           stdDeviation="18.7"
           id="feGaussianBlur6" />
      </filter>
    </defs>
    <path
       d="M196.6 1.207c-2.5 11.323-4.8 22.703-10.2 33.383-7-10.68-12.6-20.91-16.7-31.988L2.494 4.338C13 104.9 10.86 175.3 1.979 278.3L15.4 295.5l-9.494 6.3L2.6 462.7l1.019 45.9 112.681 3.1c3.6-16.1 6.5-32.5 13.2-47.3 4.5 14.4 5.7 29.4 7 44.4l160 .3c.8-6.1.7-8.1 2.3-14.4 5.1 4.5 7.8 9.5 10.6 14.5.8-10.1 3.9-19.8 7-29.5 4.8 9.2 6.7 19.4 8.8 29.5l185.2.4-4.6-78.2-21.4-8.2 21.3-4.9 5.8-395.47c-7-6.73-13.3-13.744-18-21.465l-15.1.114-2.1 20.321-1.4 47.23.8 84.87-8.6-97.14c9.3-16.86 2.2-39.69 5.7-55.239-92.1 1.696-184.1.685-276.2-.314z"
       overflow="visible"
       color="#000"
       fill="#ebc893"
       fill-rule="evenodd"
       stroke="#e0aa58"
       enable-background="accumulate"
       id="path6" />
    <path
       d="M196.6 1.203c-2.5 11.327-4.8 22.707-10.2 33.387-7-10.68-12.6-20.91-16.7-31.99L2.494 4.336C13 104.9 10.86 175.3 1.979 278.3L15.4 295.5l-9.494 6.3L2.6 462.7l1.019 45.9 112.681 3.1c.5-2.1-7.9-2.3-7.4-4.5L5.244 504.5l-.914-47.3 4.63-153.7 12.42-9-13.093-16.8C16.95 177.3 16.36 104 6.113 5.992l162.687.164c4 10.804 10.3 24.254 17.1 34.664 5.3-10.41 9.5-25.97 12-37.02 89.8.974 173.8 3.521 263.6 1.867 4.6 1.226 10.6.431 11.3-4.149-92.1 1.696-184.1.684-276.2-.315zm296.9.158l-15.1.116-.6 6.277 13.5-2.557c4.6 7.533 9.7 12.383 16.6 18.943l-4.6 389.06-19.9 9.9 4.1-.6 18.2-4.2 5.8-395.47c-7-6.73-13.3-13.748-18-21.469zm9.6 435.739l3.5 69.7-177.7.1c.4 2.1-4.1.2-3.7 2.3l185.2.4-4.6-78.2zm-370 25.1c-1 2.2-2.9.4-3.7 2.6 4.2 14 5.8 29.5 7.1 44l158 .3c1.9-5 .8-9.7 4.3-14.4 5.1 4.5 7.8 9.5 10.6 14.5.8-10.1 3.9-19.8 7-29.5 1.8 3.4 3.2 7 4.3 10.6-1.4-5.6-2.4-8.3-5.1-13.4-3 9.4-6.7 16.2-7.5 26-2.7-4.9-5.4-9.7-10.4-14.1-3.4 4.6-6.2 9.1-8 14l-147.6 3.4c-3.4-14.6-7.1-30.3-9-44z"
       overflow="visible"
       color="#000"
       opacity=".527"
       fill="#c87137"
       fill-rule="evenodd"
       filter="url(#a)"
       enable-background="accumulate"
       id="path7" />
    <path
       d="M200.1 16.1c-2.3 10.67-10.5 21.38-15.6 31.44-6.6-10.06-13.9-19.69-17.7-30.12L17.34 19.05C24.61 113.6 7.605 179.3 16.85 277l18.26 20.1L10.34 309l7.1 141.6.96 43.3 90.2 3.4c3.4-15.2 15-35.6 21.3-49.6 4.3 13.6 15.4 36.7 16.6 50.9l45.1.8 13.8-18.7 14.4 22.2 68.7-8.6c1.8-4.7 4.5-9.1 7.8-13.5 4.8 4.2 7.4 8.9 10 13.6.8-9.5 7.7-19.6 10.6-28.7 4.5 8.6 19.9 28.9 33.1 33.9l114.6 5.6 22.3-14.7 19.4 14.7-14.5-67.6-34.6-14.2 37.5-15.1 2.1-96.9-14.5-21.9 15.2-13.4 5.1-239.63c-5.2-21.09-11.8-24.89-16.9-20.22l-4.2 2.11 2 19.14.7 44.47-7.1 124.23-18.3-137.78c8.8-15.88-3.9-35.38-.6-50.02-67.1 1.24-140.4-13.332-202.8-3.28-14 2.25-23.7 21.31-36.9 24.48-4.3 1.03-13.9-23.45-18.4-23.5z"
       overflow="visible"
       enable-background="accumulate"
       filter="url(#b)"
       fill-rule="evenodd"
       fill="#f6e7d0"
       color="#000"
       id="path8" />
    <path
       d="M354 27.39l-70.3 96.91 46.4 97.6-56.2 43.6 33 74.4-30.2 63.2 69.8 48.8 31.6 29.5 31.6-13.3L365.9 335l55.5-36.5 2.1-146.1-56.9-101.83zM116.6 55.48L89.9 123.6s33.7 65.3 35.8 68.8c2.1 3.6-7 118-7 118l42.8 73.8s9.9-82.9 7.1-83.6c-2.8-.7-29.5-42.1-29.5-42.1l23.8-84.3-36.5-37.2z"
       color="#000"
       overflow="visible"
       fill="#f2dbb9"
       fill-rule="evenodd"
       filter="url(#c)"
       enable-background="accumulate"
       id="path9" />
    <path
       d="M39.33 172.1l-5.62 108.1L74.45 328 42.84 464.9l96.96-39.3 30.2 42.9 74.4-38.7-80.8-169.9-60.4-16.9z"
       color="#000"
       overflow="visible"
       fill="#eed3a4"
       fill-rule="evenodd"
       enable-background="accumulate"
       filter="url(#d)"
       id="path10" />
    <path
       d="M266.9 66.72L324.5 191 434 221.2l21.8-111.6-41.4-68.86z"
       color="#000"
       overflow="visible"
       fill="#eed3a4"
       fill-rule="evenodd"
       enable-background="accumulate"
       filter="url(#e)"
       id="path11" />
  </svg>
  <path
     id="path12"
     style="fill:#005780;stroke-width:0.838917;fill-opacity:1"
     d="M 234.09766 57.595703 C 231.20793 58.273598 228.33642 58.968632 225.49805 59.695312 C 255.48696 71.566723 283.801 87.350531 309.61133 106.67773 L 349.56641 174.44531 C 306.36934 125.2213 249.68387 89.590009 186.98047 71.759766 C 178.74795 74.875172 170.80424 78.266499 163.18945 81.96875 C 214.99048 93.245249 263.20996 117.03829 303.44922 151.0332 L 338.94727 232.75781 C 290.31418 160.77973 211.82157 113.90504 125.73047 104.74414 C 119.79616 109.23465 114.16689 114.01394 108.86523 119.10547 C 173.33562 122.36526 234.17711 147.95047 281.28516 190.24219 L 307.04688 263.91602 C 261.81084 192.12159 182.48146 147.594 97.328125 146.72656 C 93.349707 146.68582 89.356329 146.77624 85.355469 146.92969 C 81.819585 152.13543 78.542959 157.58692 75.523438 163.2832 C 147.41073 157.31837 216.80714 184.86305 264.98438 235.30078 L 282.34375 305.70117 C 247.66799 234.86394 175.61707 189.81128 97.623047 188.72656 C 96.569369 188.71146 95.514065 188.70418 94.457031 188.70508 C 84.236787 188.71901 73.920729 189.54119 63.582031 191.10938 C 61.757889 196.50417 60.136094 202.09111 58.705078 207.85938 C 133.29238 193.63938 207.36892 224.56927 250.45312 283.1582 L 254.33008 344.68945 C 230.02416 275.04848 163.82055 230.01744 92.203125 230.70703 C 80.626085 230.81776 68.907681 232.12706 57.203125 234.7168 L 57.203125 250.81445 C 121.98422 234.95558 187.51402 262.54393 222.54883 315.52734 L 227.47656 363.75781 C 247.04847 358.48691 267.35366 352.668 285.13281 346.24609 C 301.23497 340.43241 315.23619 334.06059 324.22266 327.75781 C 328.71421 324.60685 331.89299 321.48596 333.59766 318.88867 C 335.30317 316.29139 335.6695 314.53797 335.35742 312.51953 L 334.30664 305.70508 L 449.30078 272.52148 C 415.7391 175.7198 345.91787 100.25458 259.49609 57.595703 L 234.09766 57.595703 z M 454.31445 287.39453 L 420.59375 297.125 C 421.96118 312.77917 416.67921 327.80209 406.83789 340.78516 C 394.94206 356.47876 376.69124 369.8351 354.51953 381.26953 C 316.57536 400.84144 266.89597 414.72238 216.60547 421.51172 L 220.2793 435.22852 C 277.85411 428.80242 340.52958 416.73908 386.52734 394.50781 C 412.12855 382.13379 432.3602 366.7216 444.17969 348.0918 C 454.86719 331.24346 459.09147 311.69618 454.31445 287.39453 z M 405.22656 301.55859 L 350.67383 317.30078 C 350.05639 320.94587 348.70645 324.44105 346.70312 327.49219 C 343.41038 332.50891 338.76648 336.70816 333.22461 340.5957 C 322.14001 348.3691 307.22221 354.93885 290.45898 360.99414 C 263.67492 370.66684 233.06805 378.61012 206.9375 385.43555 L 212.51172 406.23242 C 262.03042 399.69727 311.20187 385.97078 347.33398 367.33594 C 368.16259 356.59362 384.57122 344.20413 394.34375 331.3125 C 401.72957 321.56933 405.48746 311.90326 405.22656 301.55859 z M 185.63672 366.51562 L 157.92578 373.94141 L 164.80078 399.60352 C 173.87114 402.91723 180.42578 411.66719 180.42578 421.82227 C 180.42578 427.58562 178.31019 432.89514 174.82617 437.01758 L 178.7832 451.7832 L 206.49609 444.35938 L 185.63672 366.51758 L 185.63672 366.51562 z M 156.78516 413.86328 C 155.53518 413.86328 154.36837 414.14038 153.32812 414.62695 L 89.90625 431.61914 C 92.360919 435.56708 93.785156 440.2086 93.785156 445.1582 C 93.785156 445.72027 93.759839 446.275 93.724609 446.82617 L 157.44922 429.75195 C 161.61023 429.42813 164.74609 426.08647 164.74609 421.82227 C 164.74609 417.33407 161.27504 413.86328 156.78516 413.86328 z M 67.949219 435 C 62.246267 435 57.789063 439.45525 57.789062 445.1582 C 57.789062 450.86116 62.246267 455.31836 67.949219 455.31836 C 73.652169 455.31836 78.109375 450.86116 78.109375 445.1582 C 78.109375 439.45525 73.65133 435 67.949219 435 z " />
</svg>
