<?xml version="1.0" encoding="UTF-8" standalone="no"?>
<svg
   viewBox="0 0 512 512"
   style="height: 512px; width: 512px;"
   version="1.1"
   id="svg12"
   sodipodi:docname="griffin--presence.svg"
   xml:space="preserve"
   inkscape:version="1.4 (e7c3feb1, 2024-10-09)"
   xmlns:inkscape="http://www.inkscape.org/namespaces/inkscape"
   xmlns:sodipodi="http://sodipodi.sourceforge.net/DTD/sodipodi-0.dtd"
   xmlns="http://www.w3.org/2000/svg"
   xmlns:svg="http://www.w3.org/2000/svg"><sodipodi:namedview
     id="namedview12"
     pagecolor="#505050"
     bordercolor="#ffffff"
     borderopacity="1"
     inkscape:showpageshadow="0"
     inkscape:pageopacity="0"
     inkscape:pagecheckerboard="1"
     inkscape:deskcolor="#d1d1d1"
     inkscape:zoom="0.32200456"
     inkscape:cx="-223.59932"
     inkscape:cy="366.45444"
     inkscape:window-width="1728"
     inkscape:window-height="1051"
     inkscape:window-x="0"
     inkscape:window-y="38"
     inkscape:window-maximized="1"
     inkscape:current-layer="svg12" /><defs
     id="defs2"><radialGradient
       id="lorc-bright-explosion-gradient-0"><stop
         offset="0%"
         stop-color="#830000"
         stop-opacity="1"
         id="stop1" /><stop
         offset="100%"
         stop-color="#000"
         stop-opacity="1"
         id="stop2" /></radialGradient></defs><path
     d="M0 0h512v512H0z"
     fill="url(#pattern)"
     id="path2" /><svg
     version="1.1"
     id="svg11"><defs
       id="defs6"><filter
         id="b"
         x="-0.023338979"
         width="1.046678"
         y="-0.023448784"
         height="1.0468976"
         color-interpolation-filters="sRGB"><feGaussianBlur
           stdDeviation="4.823"
           id="feGaussianBlur2" /></filter><filter
         id="a"
         x="-0.012011281"
         width="1.0240226"
         y="-0.011988317"
         height="1.0239766"
         color-interpolation-filters="sRGB"><feGaussianBlur
           stdDeviation="2.55"
           id="feGaussianBlur3" /></filter><filter
         id="c"
         x="-0.11244604"
         width="1.2248921"
         y="-0.082623731"
         height="1.1652475"
         color-interpolation-filters="sRGB"><feGaussianBlur
           stdDeviation="15.63"
           id="feGaussianBlur4" /></filter><filter
         id="e"
         x="-0.23758603"
         width="1.4751721"
         y="-0.24869778"
         height="1.4973956"
         color-interpolation-filters="sRGB"><feGaussianBlur
           stdDeviation="18.7"
           id="feGaussianBlur5" /></filter><filter
         id="d"
         x="-0.21301439"
         width="1.4260288"
         y="-0.15141701"
         height="1.302834"
         color-interpolation-filters="sRGB"><feGaussianBlur
           stdDeviation="18.7"
           id="feGaussianBlur6" /></filter></defs><path
       d="M196.6 1.207c-2.5 11.323-4.8 22.703-10.2 33.383-7-10.68-12.6-20.91-16.7-31.988L2.494 4.338C13 104.9 10.86 175.3 1.979 278.3L15.4 295.5l-9.494 6.3L2.6 462.7l1.019 45.9 112.681 3.1c3.6-16.1 6.5-32.5 13.2-47.3 4.5 14.4 5.7 29.4 7 44.4l160 .3c.8-6.1.7-8.1 2.3-14.4 5.1 4.5 7.8 9.5 10.6 14.5.8-10.1 3.9-19.8 7-29.5 4.8 9.2 6.7 19.4 8.8 29.5l185.2.4-4.6-78.2-21.4-8.2 21.3-4.9 5.8-395.47c-7-6.73-13.3-13.744-18-21.465l-15.1.114-2.1 20.321-1.4 47.23.8 84.87-8.6-97.14c9.3-16.86 2.2-39.69 5.7-55.239-92.1 1.696-184.1.685-276.2-.314z"
       overflow="visible"
       color="#000"
       fill="#ebc893"
       fill-rule="evenodd"
       stroke="#e0aa58"
       enable-background="accumulate"
       id="path6" /><path
       d="M196.6 1.203c-2.5 11.327-4.8 22.707-10.2 33.387-7-10.68-12.6-20.91-16.7-31.99L2.494 4.336C13 104.9 10.86 175.3 1.979 278.3L15.4 295.5l-9.494 6.3L2.6 462.7l1.019 45.9 112.681 3.1c.5-2.1-7.9-2.3-7.4-4.5L5.244 504.5l-.914-47.3 4.63-153.7 12.42-9-13.093-16.8C16.95 177.3 16.36 104 6.113 5.992l162.687.164c4 10.804 10.3 24.254 17.1 34.664 5.3-10.41 9.5-25.97 12-37.02 89.8.974 173.8 3.521 263.6 1.867 4.6 1.226 10.6.431 11.3-4.149-92.1 1.696-184.1.684-276.2-.315zm296.9.158l-15.1.116-.6 6.277 13.5-2.557c4.6 7.533 9.7 12.383 16.6 18.943l-4.6 389.06-19.9 9.9 4.1-.6 18.2-4.2 5.8-395.47c-7-6.73-13.3-13.748-18-21.469zm9.6 435.739l3.5 69.7-177.7.1c.4 2.1-4.1.2-3.7 2.3l185.2.4-4.6-78.2zm-370 25.1c-1 2.2-2.9.4-3.7 2.6 4.2 14 5.8 29.5 7.1 44l158 .3c1.9-5 .8-9.7 4.3-14.4 5.1 4.5 7.8 9.5 10.6 14.5.8-10.1 3.9-19.8 7-29.5 1.8 3.4 3.2 7 4.3 10.6-1.4-5.6-2.4-8.3-5.1-13.4-3 9.4-6.7 16.2-7.5 26-2.7-4.9-5.4-9.7-10.4-14.1-3.4 4.6-6.2 9.1-8 14l-147.6 3.4c-3.4-14.6-7.1-30.3-9-44z"
       overflow="visible"
       color="#000"
       opacity=".527"
       fill="#c87137"
       fill-rule="evenodd"
       filter="url(#a)"
       enable-background="accumulate"
       id="path7" /><path
       d="M200.1 16.1c-2.3 10.67-10.5 21.38-15.6 31.44-6.6-10.06-13.9-19.69-17.7-30.12L17.34 19.05C24.61 113.6 7.605 179.3 16.85 277l18.26 20.1L10.34 309l7.1 141.6.96 43.3 90.2 3.4c3.4-15.2 15-35.6 21.3-49.6 4.3 13.6 15.4 36.7 16.6 50.9l45.1.8 13.8-18.7 14.4 22.2 68.7-8.6c1.8-4.7 4.5-9.1 7.8-13.5 4.8 4.2 7.4 8.9 10 13.6.8-9.5 7.7-19.6 10.6-28.7 4.5 8.6 19.9 28.9 33.1 33.9l114.6 5.6 22.3-14.7 19.4 14.7-14.5-67.6-34.6-14.2 37.5-15.1 2.1-96.9-14.5-21.9 15.2-13.4 5.1-239.63c-5.2-21.09-11.8-24.89-16.9-20.22l-4.2 2.11 2 19.14.7 44.47-7.1 124.23-18.3-137.78c8.8-15.88-3.9-35.38-.6-50.02-67.1 1.24-140.4-13.332-202.8-3.28-14 2.25-23.7 21.31-36.9 24.48-4.3 1.03-13.9-23.45-18.4-23.5z"
       overflow="visible"
       enable-background="accumulate"
       filter="url(#b)"
       fill-rule="evenodd"
       fill="#f6e7d0"
       color="#000"
       id="path8" /><path
       d="M354 27.39l-70.3 96.91 46.4 97.6-56.2 43.6 33 74.4-30.2 63.2 69.8 48.8 31.6 29.5 31.6-13.3L365.9 335l55.5-36.5 2.1-146.1-56.9-101.83zM116.6 55.48L89.9 123.6s33.7 65.3 35.8 68.8c2.1 3.6-7 118-7 118l42.8 73.8s9.9-82.9 7.1-83.6c-2.8-.7-29.5-42.1-29.5-42.1l23.8-84.3-36.5-37.2z"
       color="#000"
       overflow="visible"
       fill="#f2dbb9"
       fill-rule="evenodd"
       filter="url(#c)"
       enable-background="accumulate"
       id="path9" /><path
       d="M39.33 172.1l-5.62 108.1L74.45 328 42.84 464.9l96.96-39.3 30.2 42.9 74.4-38.7-80.8-169.9-60.4-16.9z"
       color="#000"
       overflow="visible"
       fill="#eed3a4"
       fill-rule="evenodd"
       enable-background="accumulate"
       filter="url(#d)"
       id="path10" /><path
       d="M266.9 66.72L324.5 191 434 221.2l21.8-111.6-41.4-68.86z"
       color="#000"
       overflow="visible"
       fill="#eed3a4"
       fill-rule="evenodd"
       enable-background="accumulate"
       filter="url(#e)"
       id="path11" /></svg><path
     id="path1-7"
     style="fill:#005780;fill-opacity:1;stroke-width:0.85266"
     d="m 255.99893,56.00001 c -28.56412,0 -54.16524,12.95852 -71.23977,33.29958 l -67.99966,-20.70685 51.88438,48.48759 c -1.81958,4.96248 -3.22732,10.12279 -4.1823,15.43742 l -110.97054,16.46273 110.96202,16.46274 c 0.95327,5.31889 2.36059,10.4824 4.18016,15.44914 l -51.87372,48.47801 67.27384,-20.48518 c 1.38131,-2.28 2.85598,-4.47345 4.43596,-6.56759 1.83663,-2.43009 3.83868,-4.71565 5.98568,-6.84475 -9.75017,-12.90927 -15.52695,-28.99855 -15.52695,-46.47212 0,-42.65859 34.41081,-77.07196 77.07197,-77.07196 42.65859,0 77.07196,34.41337 77.07196,77.07196 0,17.47443 -5.77549,33.56071 -15.52481,46.46999 2.147,2.12909 4.15075,4.41423 5.98568,6.84688 1.58168,2.09326 3.05657,4.28677 4.43703,6.56759 l 67.27063,20.48409 -51.87371,-48.48012 c 1.81872,-4.96589 3.22688,-10.12981 4.18016,-15.447 L 458.50896,148.97942 347.53841,132.51668 c -0.95497,-5.31378 -2.36208,-10.4728 -4.18336,-15.43528 L 395.23943,68.5906 327.23977,89.29853 C 310.16013,68.95917 284.56305,56.00001 255.99893,56.00001 Z m 0.002,38.52532 c -1.57957,0 -3.12749,0.17414 -4.65872,0.42527 a 39.677982,55.266806 0 0 0 -1.1351,0.21743 c -1.38913,0.28498 -2.75657,0.65415 -4.0949,1.1351 a 39.677982,55.266806 0 0 0 -0.49455,0.15881 c -1.48549,0.56237 -2.92816,1.26154 -4.33897,2.05171 a 39.677982,55.266806 0 0 0 -1.12871,0.6768 c -1.08823,0.66532 -2.15005,1.39273 -3.18469,2.18707 a 39.677982,55.266806 0 0 0 -1.08288,0.81216 c -1.15948,0.95677 -2.27215,2.00801 -3.35202,3.11967 a 39.677982,55.266806 0 0 0 -1.60726,1.76394 c -0.59918,0.68582 -1.17769,1.40093 -1.74689,2.13379 a 39.677982,55.266806 0 0 0 -2.5324,3.57051 c -0.47308,0.72972 -0.95112,1.4526 -1.39623,2.21692 a 39.677982,55.266806 0 0 0 -1.52413,2.81804 c -0.34798,0.68163 -0.67469,1.38279 -1.00081,2.08689 a 39.677982,55.266806 0 0 0 -2.01974,4.90279 c -0.30073,0.82263 -0.6086,1.63869 -0.88037,2.48444 a 39.677982,55.266806 0 0 0 -0.92301,3.1751 c -0.23733,0.88134 -0.44764,1.77851 -0.65335,2.68055 a 39.677982,55.266806 0 0 0 -0.87717,4.48392 c -0.17807,1.09181 -0.3654,2.17814 -0.49668,3.29341 h 0.0266 a 39.677982,55.266806 0 0 0 -0.57661,8.87193 39.677982,55.266806 0 0 0 0.33253,7.06109 h -0.006 c 0.002,0.0275 0.008,0.0535 0.0107,0.081 a 39.677982,55.266806 0 0 0 0.0639,0.50094 c 0.21433,2.23146 0.53763,4.41046 0.93579,6.5495 a 39.677982,55.266806 0 0 0 0.0767,0.36131 c 2.5247,13.19087 8.39751,24.46615 16.31459,31.84367 h -8.79839 c -10.18673,2.03957 -17.72382,7.32775 -24.0642,15.72731 -6.44612,8.53768 -11.3438,20.3445 -14.78513,33.99984 -6.27985,24.91733 -7.65689,55.55083 -7.86153,82.98945 h 34.0819 l 8.79945,127.0943 h 69.15395 l 8.80052,-127.0943 h 34.08403 c -0.20464,-27.43867 -1.58254,-58.07218 -7.86153,-82.98945 -3.44219,-13.65452 -8.34073,-25.46128 -14.78513,-33.99984 -6.34124,-8.39869 -13.87981,-13.68796 -24.0674,-15.72838 h -8.79626 c 7.90839,-7.37013 13.77563,-18.62859 16.305,-31.80103 a 39.677982,55.266806 0 0 0 0.0906,-0.42207 c 0.39124,-2.10492 0.70645,-4.24945 0.9198,-6.44398 a 39.677982,55.266806 0 0 0 0.0778,-0.60219 c 0.002,-0.0228 0.007,-0.0444 0.009,-0.0671 h -0.005 a 39.677982,55.266806 0 0 0 0.33147,-7.06002 39.677982,55.266806 0 0 0 -22.48678,-49.79643 c -0.0116,-0.008 -0.0236,-0.0146 -0.0352,-0.0224 a 39.677982,55.266806 0 0 0 -3.07278,-1.84174 c -0.0994,-0.0529 -0.20073,-0.0996 -0.30056,-0.15135 a 39.677982,55.266806 0 0 0 -3.01202,-1.37704 c -0.12689,-0.05 -0.2563,-0.0903 -0.3837,-0.13856 a 39.677982,55.266806 0 0 0 -3.08876,-0.99548 39.677982,55.266806 0 0 0 -0.007,-0.002 c -0.10166,-0.0264 -0.20503,-0.045 -0.30696,-0.0703 a 39.677982,55.266806 0 0 0 -3.2497,-0.6235 c -0.06,-0.008 -0.12004,-0.0149 -0.18012,-0.0224 a 39.677982,55.266806 0 0 0 -3.55347,-0.22489 z" /></svg>
