<?xml version="1.0" encoding="UTF-8" standalone="no"?>
<svg
   viewBox="0 0 512 512"
   style="height: 512px; width: 512px;"
   version="1.1"
   id="svg12"
   sodipodi:docname="griffin--sign-intensity.svg"
   inkscape:version="1.4 (e7c3feb1, 2024-10-09)"
   xml:space="preserve"
   xmlns:inkscape="http://www.inkscape.org/namespaces/inkscape"
   xmlns:sodipodi="http://sodipodi.sourceforge.net/DTD/sodipodi-0.dtd"
   xmlns="http://www.w3.org/2000/svg"
   xmlns:svg="http://www.w3.org/2000/svg"><sodipodi:namedview
     id="namedview12"
     pagecolor="#505050"
     bordercolor="#ffffff"
     borderopacity="1"
     inkscape:showpageshadow="0"
     inkscape:pageopacity="0"
     inkscape:pagecheckerboard="1"
     inkscape:deskcolor="#d1d1d1"
     inkscape:zoom="0.39341629"
     inkscape:cx="123.27908"
     inkscape:cy="330.43878"
     inkscape:window-width="1248"
     inkscape:window-height="527"
     inkscape:window-x="1"
     inkscape:window-y="277"
     inkscape:window-maximized="0"
     inkscape:current-layer="svg12" /><defs
     id="defs2"><radialGradient
       id="delapouite-viking-shield-gradient-0"><stop
         offset="0%"
         stop-color="#830000"
         stop-opacity="1"
         id="stop1" /><stop
         offset="100%"
         stop-color="#000"
         stop-opacity="1"
         id="stop2" /></radialGradient></defs><path
     d="M 0,0 H 512 V 512 H 0 Z"
     fill="url(#pattern)"
     id="path2" /><svg
     version="1.1"
     id="svg11"
     width="100%"
     height="100%"><defs
       id="defs6"><filter
         id="b"
         x="-0.023338979"
         width="1.046678"
         y="-0.023448784"
         height="1.0468976"
         color-interpolation-filters="sRGB"><feGaussianBlur
           stdDeviation="4.823"
           id="feGaussianBlur2" /></filter><filter
         id="a"
         x="-0.012011281"
         width="1.0240226"
         y="-0.011988317"
         height="1.0239766"
         color-interpolation-filters="sRGB"><feGaussianBlur
           stdDeviation="2.55"
           id="feGaussianBlur3" /></filter><filter
         id="c"
         x="-0.11244604"
         width="1.2248921"
         y="-0.082623731"
         height="1.1652475"
         color-interpolation-filters="sRGB"><feGaussianBlur
           stdDeviation="15.63"
           id="feGaussianBlur4" /></filter><filter
         id="e"
         x="-0.23758603"
         width="1.4751721"
         y="-0.24869778"
         height="1.4973956"
         color-interpolation-filters="sRGB"><feGaussianBlur
           stdDeviation="18.7"
           id="feGaussianBlur5" /></filter><filter
         id="d"
         x="-0.21301439"
         width="1.4260288"
         y="-0.15141701"
         height="1.302834"
         color-interpolation-filters="sRGB"><feGaussianBlur
           stdDeviation="18.7"
           id="feGaussianBlur6" /></filter></defs><path
       d="m 195.86645,0.75011769 c -2.5,11.32300031 -4.8,22.70300031 -10.2,33.38300031 -7,-10.68 -12.6,-20.91 -16.7,-31.9880003 l -167.2060037,1.736 C 12.266446,104.44312 10.126446,174.84312 1.2454463,277.84312 l 13.4209997,17.2 -9.4939997,6.3 -3.306,160.9 1.019,45.9 112.6810037,3.1 c 3.6,-16.1 6.5,-32.5 13.2,-47.3 4.5,14.4 5.7,29.4 7,44.4 l 160,0.3 c 0.8,-6.1 0.7,-8.1 2.3,-14.4 5.1,4.5 7.8,9.5 10.6,14.5 0.8,-10.1 3.9,-19.8 7,-29.5 4.8,9.2 6.7,19.4 8.8,29.5 l 185.2,0.4 -4.6,-78.2 -21.4,-8.2 21.3,-4.9 5.8,-395.470002 c -7,-6.73 -13.3,-13.7440003 -18,-21.46500031 l -15.1,0.11400001 -2.1,20.3210003 -1.4,47.23 0.8,84.870002 -8.6,-97.140002 c 9.3,-16.86 2.2,-39.69 5.7,-55.2390003 -92.1,1.696 -184.1,0.685 -276.2,-0.31400001 z"
       overflow="visible"
       color="#000000"
       fill="#ebc893"
       fill-rule="evenodd"
       stroke="#e0aa58"
       enable-background="accumulate"
       id="path6" /><path
       d="M 196.6,1.203 C 194.1,12.53 191.8,23.91 186.4,34.59 179.4,23.91 173.8,13.68 169.7,2.6 L 2.494,4.336 C 13,104.9 10.86,175.3 1.979,278.3 L 15.4,295.5 5.906,301.8 2.6,462.7 3.619,508.6 116.3,511.7 c 0.5,-2.1 -7.9,-2.3 -7.4,-4.5 L 5.244,504.5 4.33,457.2 8.96,303.5 21.38,294.5 8.287,277.7 C 16.95,177.3 16.36,104 6.113,5.992 L 168.8,6.156 c 4,10.804 10.3,24.254 17.1,34.664 5.3,-10.41 9.5,-25.97 12,-37.02 89.8,0.974 173.8,3.521 263.6,1.867 4.6,1.226 10.6,0.431 11.3,-4.149 C 380.7,3.214 288.7,2.202 196.6,1.203 Z m 296.9,0.158 -15.1,0.116 -0.6,6.277 13.5,-2.557 c 4.6,7.533 9.7,12.383 16.6,18.943 l -4.6,389.06 -19.9,9.9 4.1,-0.6 18.2,-4.2 5.8,-395.47 c -7,-6.73 -13.3,-13.748 -18,-21.469 z m 9.6,435.739 3.5,69.7 -177.7,0.1 c 0.4,2.1 -4.1,0.2 -3.7,2.3 l 185.2,0.4 -4.6,-78.2 z m -370,25.1 c -1,2.2 -2.9,0.4 -3.7,2.6 4.2,14 5.8,29.5 7.1,44 l 158,0.3 c 1.9,-5 0.8,-9.7 4.3,-14.4 5.1,4.5 7.8,9.5 10.6,14.5 0.8,-10.1 3.9,-19.8 7,-29.5 1.8,3.4 3.2,7 4.3,10.6 -1.4,-5.6 -2.4,-8.3 -5.1,-13.4 -3,9.4 -6.7,16.2 -7.5,26 -2.7,-4.9 -5.4,-9.7 -10.4,-14.1 -3.4,4.6 -6.2,9.1 -8,14 l -147.6,3.4 c -3.4,-14.6 -7.1,-30.3 -9,-44 z"
       overflow="visible"
       color="#000000"
       opacity="0.527"
       fill="#c87137"
       fill-rule="evenodd"
       filter="url(#a)"
       enable-background="accumulate"
       id="path7" /><path
       d="M 200.1,16.1 C 197.8,26.77 189.6,37.48 184.5,47.54 177.9,37.48 170.6,27.85 166.8,17.42 L 17.34,19.05 C 24.61,113.6 7.605,179.3 16.85,277 l 18.26,20.1 -24.77,11.9 7.1,141.6 0.96,43.3 90.2,3.4 c 3.4,-15.2 15,-35.6 21.3,-49.6 4.3,13.6 15.4,36.7 16.6,50.9 l 45.1,0.8 13.8,-18.7 14.4,22.2 68.7,-8.6 c 1.8,-4.7 4.5,-9.1 7.8,-13.5 4.8,4.2 7.4,8.9 10,13.6 0.8,-9.5 7.7,-19.6 10.6,-28.7 4.5,8.6 19.9,28.9 33.1,33.9 l 114.6,5.6 22.3,-14.7 19.4,14.7 -14.5,-67.6 -34.6,-14.2 37.5,-15.1 2.1,-96.9 -14.5,-21.9 15.2,-13.4 5.1,-239.63 C 497.4,15.38 490.8,11.58 485.7,16.25 l -4.2,2.11 2,19.14 0.7,44.47 L 477.1,206.2 458.8,68.42 C 467.6,52.54 454.9,33.04 458.2,18.4 391.1,19.64 317.8,5.068 255.4,15.12 c -14,2.25 -23.7,21.31 -36.9,24.48 -4.3,1.03 -13.9,-23.45 -18.4,-23.5 z"
       overflow="visible"
       enable-background="accumulate"
       filter="url(#b)"
       fill-rule="evenodd"
       fill="#f6e7d0"
       color="#000000"
       id="path8" /><path
       d="m 354,27.39 -70.3,96.91 46.4,97.6 -56.2,43.6 33,74.4 -30.2,63.2 69.8,48.8 31.6,29.5 31.6,-13.3 L 365.9,335 421.4,298.5 423.5,152.4 366.6,50.57 Z M 116.6,55.48 89.9,123.6 c 0,0 33.7,65.3 35.8,68.8 2.1,3.6 -7,118 -7,118 l 42.8,73.8 c 0,0 9.9,-82.9 7.1,-83.6 -2.8,-0.7 -29.5,-42.1 -29.5,-42.1 L 162.9,174.2 126.4,137 Z"
       color="#000000"
       overflow="visible"
       fill="#f2dbb9"
       fill-rule="evenodd"
       filter="url(#c)"
       enable-background="accumulate"
       id="path9" /><path
       d="M 39.33,172.1 33.71,280.2 74.45,328 42.84,464.9 139.8,425.6 170,468.5 244.4,429.8 163.6,259.9 103.2,243 Z"
       color="#000000"
       overflow="visible"
       fill="#eed3a4"
       fill-rule="evenodd"
       enable-background="accumulate"
       filter="url(#d)"
       id="path10" /><path
       d="M 266.9,66.72 324.5,191 434,221.2 455.8,109.6 414.4,40.74 Z"
       color="#000000"
       overflow="visible"
       fill="#eed3a4"
       fill-rule="evenodd"
       enable-background="accumulate"
       filter="url(#e)"
       id="path11" /></svg><path
     id="path20"
     style="fill:#005780;fill-opacity:1;stroke-width:0.61286"
     d="m 255.93521,93.502038 v 0.003 c -180.090463,0 -166.968019,-0.19077 -172.728549,2.49762 -3.2712,1.52671 -8.780643,6.824422 -10.148315,9.758632 -2.091424,4.48676 -2.264434,5.13179 -2.476246,9.16176 -0.329249,6.26837 0.340153,9.13043 3.352626,14.33133 0.911133,1.5731 1.787009,3.13558 1.946793,3.47267 0.159785,0.33707 0.653862,1.16411 1.098362,1.83828 0.4445,0.67416 0.939335,1.50288 1.098362,1.83988 0.158942,0.33707 1.595378,2.82274 3.193138,5.52468 1.59767,2.70211 3.03478,5.18499 3.19314,5.51651 0.15834,0.33169 0.65212,1.15419 1.0967,1.82835 0.44443,0.67415 0.93779,1.5012 1.09673,1.83828 0.15893,0.33707 1.59538,2.82442 3.19313,5.52636 1.59766,2.70202 3.03478,5.18322 3.19313,5.51484 0.15844,0.33169 0.65222,1.15418 1.09672,1.82834 0.44442,0.67408 0.93777,1.50288 1.09671,1.83996 0.15902,0.33708 1.59706,2.82274 3.19478,5.52468 1.597759,2.70202 3.033059,5.18483 3.191489,5.51644 0.15835,0.33169 0.65222,1.15426 1.09672,1.82842 0.4444,0.67408 0.93778,1.50121 1.09672,1.83828 0.15902,0.33708 1.59702,2.82435 3.19477,5.52628 1.59777,2.70203 3.03479,5.18323 3.19314,5.51484 0.15836,0.33169 0.65058,1.15435 1.09507,1.82843 0.44443,0.67416 0.9377,1.50279 1.09671,1.83988 0.15895,0.33707 1.59711,2.82274 3.19478,5.52468 1.59775,2.70202 3.03479,5.1849 3.19314,5.51651 0.15834,0.33169 0.65057,1.15419 1.09508,1.82835 0.44449,0.67415 0.93932,1.50119 1.09835,1.83828 0.15894,0.33707 1.59549,2.82433 3.19314,5.52636 1.59776,2.70202 3.03478,5.18322 3.19313,5.51483 0.15836,0.33161 0.65223,1.15436 1.09672,1.82835 0.4445,0.67415 0.93777,1.50287 1.09671,1.83996 0.15895,0.33708 1.59538,2.82265 3.19314,5.52468 1.59766,2.70202 3.03478,5.18483 3.19314,5.51643 0.15834,0.33161 0.6522,1.15427 1.09671,1.82843 0.4444,0.67416 0.93777,1.50119 1.09672,1.83828 0.15894,0.33708 1.59702,2.82443 3.19477,5.52637 1.59767,2.70185 3.03305,5.18305 3.19149,5.51474 0.15835,0.33161 0.65223,1.15427 1.09672,1.82843 0.44442,0.67416 0.93778,1.50289 1.09671,1.83997 0.15903,0.33707 1.59704,2.82257 3.19478,5.52468 1.59776,2.70202 3.03479,5.18482 3.19314,5.51642 0.15835,0.3317 0.65056,1.15427 1.09507,1.82844 0.44442,0.67415 0.93777,1.5012 1.09671,1.83828 0.0608,0.12897 0.84912,1.46449 1.22168,2.11448 h 53.70288 c -0.26296,-0.46092 -0.94389,-1.61181 -0.99313,-1.71494 -0.15835,-0.33161 -0.65229,-1.15595 -1.09671,-1.83012 -0.4445,-0.67415 -0.93777,-1.5012 -1.09672,-1.83827 -0.15895,-0.33708 -1.59537,-2.82266 -3.19313,-5.52469 -1.59768,-2.70185 -3.0321,-5.18482 -3.18656,-5.51642 -0.15439,-0.33161 -0.46488,-0.87797 -0.69058,-1.21506 -0.61111,-0.91249 -6.33428,-10.73081 -6.66909,-11.44075 -0.15894,-0.33707 -0.65395,-1.1642 -1.09836,-1.83827 -0.4445,-0.67416 -0.93786,-1.5012 -1.0967,-1.83828 -0.15903,-0.33708 -1.59549,-2.82426 -3.19314,-5.52628 -0.009,-0.0152 -0.009,-0.016 -0.0181,-0.0312 h 0.0263 l -13.14578,-22.56206 c -0.0123,0.0211 -0.014,0.025 -0.0263,0.046 -0.32336,-0.51883 -0.68474,-1.09694 -0.79911,-1.34334 -0.1565,-0.33709 -1.0776,-1.96136 -2.04709,-3.60913 -0.18746,-0.31856 -0.17056,-0.31519 -0.34036,-0.60841 l -2.29702,-3.93964 c -0.16286,-0.2513 -0.15705,-0.27772 -0.35023,-0.56395 -0.67416,-0.99887 -1.22661,-1.91506 -1.22661,-2.03561 0,-0.0938 -1.18755,-2.14691 -2.32168,-4.09421 l -5.21391,-8.948 c -0.3757,-0.59006 -0.78333,-1.25303 -0.91586,-1.53403 -0.13534,-0.28707 -1.42081,-2.49434 -2.71959,-4.70421 l -4.53319,-7.78229 c -0.0939,-0.14842 -0.13704,-0.24178 -0.23019,-0.38304 -0.44459,-0.67417 -0.93779,-1.5012 -1.09673,-1.83828 -0.15894,-0.337 -1.59538,-2.82427 -3.19314,-5.52637 -1.59766,-2.70203 -3.03207,-5.18323 -3.18655,-5.51484 -0.15438,-0.33169 -0.46489,-0.87965 -0.69059,-1.21673 -0.6111,-0.91257 -6.33426,-10.72912 -6.66908,-11.43906 -0.15893,-0.33708 -0.65394,-1.16411 -1.09835,-1.83828 -1.19721,-1.8158 -1.3356,-2.18681 -1.07699,-2.86096 0.16684,-0.43482 22.51167,-0.53694 81.06651,-0.57222 -0.0385,0.0716 -0.29536,0.50335 -0.31078,0.53602 -0.15893,0.33707 -0.6523,1.1642 -1.09671,1.83827 -0.4445,0.67417 -0.93837,1.49683 -1.09672,1.82843 -0.15836,0.33161 -1.59546,2.81281 -3.19313,5.51484 -1.59775,2.70193 -3.0342,5.1892 -3.19314,5.52628 -0.15893,0.33707 -0.65229,1.16412 -1.09672,1.83827 -0.44458,0.67417 -0.93836,1.49683 -1.09671,1.82843 -0.15836,0.33161 -1.59545,2.81449 -3.19314,5.51643 -1.59775,2.70202 -3.03427,5.1893 -3.19313,5.52637 -0.15903,0.33708 -0.65386,1.16413 -1.09836,1.83828 -0.44449,0.67416 -0.93682,1.49682 -1.09508,1.82843 -0.15833,0.3316 -1.59539,2.81441 -3.19312,5.51643 -1.59766,2.70203 -3.03592,5.18761 -3.19479,5.52468 -0.15902,0.337 -0.65229,1.16413 -1.09671,1.83828 -0.4445,0.67416 -0.93857,1.49968 -1.09836,1.835 -0.15978,0.33539 -1.87216,3.27895 -3.80479,6.5408 -1.93257,3.26194 -3.64075,6.2055 -3.79658,6.5408 -0.069,0.14851 -0.19798,0.34567 -0.30747,0.54098 L 197.63336,232.54 c 13.14926,-0.0332 17.6077,-0.13672 18.06539,-0.67088 0.5396,-0.62944 2.8475,-4.50191 3.70778,-6.22182 0.17114,-0.34221 0.67376,-1.17405 1.1181,-1.84813 0.44433,-0.67415 0.93835,-1.49682 1.0967,-1.82842 0.15827,-0.33161 1.63018,-2.87284 3.27207,-5.64634 1.64186,-2.77366 2.98596,-5.10367 2.98596,-5.17774 0,-0.0741 1.34312,-2.40552 2.98431,-5.18104 1.64128,-2.77553 3.11303,-5.32247 3.27206,-5.65955 0.15893,-0.33709 0.65385,-1.1642 1.09835,-1.83828 0.44451,-0.67416 0.93867,-1.5012 1.09837,-1.83827 0.15962,-0.33709 1.31961,-2.36057 2.57819,-4.49536 1.25849,-2.13477 2.41849,-4.15666 2.57818,-4.49374 0.1597,-0.33707 0.65386,-1.1642 1.09836,-1.83827 0.44442,-0.67417 0.9398,-1.50197 1.1,-1.83828 0.16005,-0.33616 1.32416,-2.35813 2.58641,-4.49375 1.26226,-2.13562 2.4222,-4.15827 2.57817,-4.49534 0.156,-0.33708 0.78759,-1.4501 1.40256,-2.47295 0.61506,-1.02278 2.03672,-3.45811 3.16025,-5.41129 2.05325,-3.5693 3.17314,-4.41293 3.77027,-2.84127 0.14943,0.39324 1.57892,2.92629 3.17669,5.62831 1.59776,2.70203 3.03217,5.18323 3.18656,5.51485 0.15446,0.3316 0.46378,0.87965 0.6873,1.21673 0.0755,0.1139 0.61644,1.06874 0.83034,1.42391 h 53.69466 c -0.54127,-0.93741 -1.45626,-2.48886 -1.53244,-2.65059 -0.15904,-0.33707 -0.65222,-1.16403 -1.09673,-1.83818 -0.44449,-0.67417 -0.93843,-1.49683 -1.0967,-1.82844 -0.15835,-0.33169 -1.59539,-2.81449 -3.19314,-5.51651 -1.59768,-2.70202 -3.03419,-5.1876 -3.19314,-5.52469 -0.15894,-0.33707 -0.65229,-1.16411 -1.09671,-1.83827 -0.4445,-0.67399 -0.93845,-1.49674 -1.09672,-1.82835 -0.15835,-0.3316 -1.59538,-2.81449 -3.19313,-5.51651 -1.59773,-2.70202 -3.0342,-5.1892 -3.19314,-5.52628 -0.15893,-0.33709 -0.65393,-1.16413 -1.09835,-1.83828 -0.4445,-0.67407 -0.9368,-1.49682 -1.09508,-1.82843 -0.0743,-0.15558 -0.97621,-1.68506 -1.49791,-2.58803 58.25226,0.0353 80.59093,0.13839 80.75738,0.5722 0.23689,0.61726 0.0874,1.12076 -0.66592,2.24768 -0.6489,0.97083 -7.57174,12.8101 -7.88583,13.48612 -0.1559,0.33531 -0.46922,0.88462 -0.69552,1.2217 -0.63282,0.9428 -7.57022,12.78923 -7.8957,13.48284 -0.15809,0.33708 -0.65056,1.1658 -1.09506,1.83996 -0.44451,0.67415 -0.93836,1.49681 -1.09672,1.82842 -0.15835,0.33169 -1.59537,2.81273 -3.19314,5.51476 -1.59766,2.70209 -3.02595,5.23432 -3.17504,5.62663 -0.25542,0.67222 -3.00851,0.71927 -47.78193,0.81718 l -47.50898,0.10358 v 23.08531 23.08361 l 60.88332,0.10358 60.88496,0.10357 1.32198,-2.35129 c 0.72711,-1.29284 1.87067,-3.26986 2.54037,-4.3934 0.66966,-1.12345 1.40303,-2.40989 1.63109,-2.85937 0.22798,-0.44938 0.59699,-1.0934 0.82047,-1.43048 0.59721,-0.90071 5.10494,-8.68089 5.44413,-9.39696 0.15969,-0.33709 0.65386,-1.16421 1.09836,-1.8382 0.44449,-0.67416 0.93671,-1.49674 1.09507,-1.82843 0.15836,-0.33161 1.63192,-2.87275 3.27369,-5.64641 1.64187,-2.77358 2.98598,-5.14105 2.98598,-5.26161 0,-0.12055 0.5508,-1.03658 1.22497,-2.03553 0.67404,-0.99886 1.22495,-1.88407 1.22495,-1.96657 0,-0.0825 0.79472,-1.49766 1.76428,-3.14542 0.96957,-1.64777 1.89061,-3.27205 2.0471,-3.60913 0.1565,-0.33708 0.64728,-1.16412 1.09178,-1.83827 0.4445,-0.67417 0.93933,-1.50281 1.09836,-1.83989 0.15894,-0.33707 1.59537,-2.82266 3.19313,-5.52468 1.59767,-2.70202 3.0321,-5.18482 3.18656,-5.51651 0.15439,-0.33161 0.46489,-0.87797 0.6906,-1.21505 0.6111,-0.91258 6.33427,-10.73081 6.66906,-11.44075 0.15887,-0.33708 0.65223,-1.16412 1.09673,-1.83827 0.44442,-0.67417 0.93857,-1.5012 1.09836,-1.83829 0.15969,-0.33708 1.04858,-1.89956 1.97309,-3.47266 0.92461,-1.57301 1.80838,-3.13558 1.96489,-3.47265 0.15649,-0.33708 0.64893,-1.16572 1.09343,-1.83987 0.44442,-0.67417 0.93672,-1.49683 1.09506,-1.82844 0.15835,-0.3316 1.59539,-2.81272 3.19314,-5.51483 1.59765,-2.70202 3.0342,-5.1892 3.19314,-5.52629 0.15894,-0.33708 0.64249,-1.16411 1.0737,-1.83828 0.70462,-1.10156 2.44291,-4.21214 3.29343,-5.89467 2.9856,-5.90613 2.78027,-14.65563 -0.48999,-20.90827 -2.00571,-3.83499 -6.38758,-7.919012 -10.6268,-9.904942 -5.2705,-2.46917 6.53382,-2.31022 -172.33393,-2.31022 z m 99.58734,147.589642 -53.7374,0.003 c 0.26315,0.46134 0.94383,1.6135 0.99313,1.71655 0.15827,0.3316 0.65057,1.15427 1.09506,1.82842 0.44443,0.67417 0.93941,1.5012 1.09836,1.83828 0.15894,0.33708 1.59541,2.82426 3.19313,5.52637 1.59778,2.70202 3.03479,5.18323 3.19314,5.51483 0.15827,0.33169 0.65057,1.15419 1.09508,1.82834 0.44442,0.67417 0.93941,1.50289 1.09835,1.83996 0.1533,0.32513 1.55102,2.73983 3.07968,5.32904 0.0561,0.0952 0.0568,0.0999 0.11346,0.19565 l 3.95607,6.78747 c 0.13373,0.21492 0.19833,0.35198 0.33378,0.55739 0.4445,0.67416 0.93464,1.5012 1.09014,1.83827 0.10795,0.23388 0.97263,1.71933 1.78893,3.11917 l 13.36941,22.94716 c 0.31211,0.50469 0.66437,1.06906 0.77445,1.30882 0.0844,0.18378 1.10279,1.90833 1.78565,3.08457 l 20.17496,34.62791 -0.0395,0.0231 c 0.11295,0.18007 0.16485,0.2939 0.27789,0.4653 0.4444,0.67416 0.93942,1.5012 1.09836,1.83827 0.15893,0.33709 1.59546,2.82435 3.19314,5.52637 1.59775,2.70202 3.03476,5.18314 3.19312,5.51475 0.15827,0.33161 0.65222,1.15596 1.09672,1.83011 0.44441,0.67416 0.93768,1.5012 1.09671,1.83828 0.15886,0.33708 1.59548,2.82266 3.19314,5.52468 1.59776,2.70203 3.03208,5.18482 3.18656,5.51644 0.1544,0.33161 0.49437,0.90003 0.75636,1.26278 0.26174,0.36267 0.36142,0.95937 0.22032,1.32694 -0.19026,0.4961 -20.69978,0.59586 -81.08623,0.6281 0.0383,-0.0707 0.29374,-0.50182 0.30912,-0.53441 0.15886,-0.33708 0.65222,-1.1658 1.09671,-1.83996 0.44441,-0.67415 0.93673,-1.49674 1.09508,-1.82835 0.15842,-0.3316 1.59539,-2.81281 3.19312,-5.51483 1.59776,-2.70202 3.03577,-5.18929 3.19479,-5.52636 0.15894,-0.33708 0.6522,-1.16412 1.09672,-1.83828 0.4445,-0.67415 0.93858,-1.49969 1.09836,-1.83491 0.15979,-0.33532 1.87222,-3.27886 3.8048,-6.54089 1.93265,-3.26185 3.64073,-6.20549 3.79657,-6.5408 0.15583,-0.33523 0.4685,-0.88471 0.69386,-1.2217 0.6154,-0.92083 7.55941,-12.78402 7.89406,-13.48612 0.15968,-0.33532 0.65386,-1.16084 1.09836,-1.835 0.4445,-0.67415 0.93769,-1.5028 1.09671,-1.83987 0.15895,-0.33708 1.59701,-2.82267 3.19478,-5.52469 1.59767,-2.70202 3.0348,-5.18491 3.19313,-5.51651 0.0484,-0.10144 0.23543,-0.38397 0.33544,-0.559 l -17.97658,-30.85071 c -13.19734,0.0332 -17.65473,0.13774 -18.11305,0.67248 -0.53954,0.62946 -2.84585,4.50023 -3.70615,6.22023 -0.17115,0.34221 -0.67542,1.17396 -1.11974,1.84813 -0.44432,0.67415 -0.93672,1.49681 -1.09507,1.82842 -0.15836,0.3316 -1.63184,2.87275 -3.27371,5.64633 -1.64178,2.77367 -2.98431,5.10367 -2.98431,5.17775 0,0.0741 -1.34314,2.40552 -2.98431,5.18104 -1.64127,2.7756 -3.11042,5.32247 -3.26548,5.65946 -0.155,0.33709 -0.46654,0.8896 -0.69223,1.22667 -0.61111,0.91257 -6.33428,10.72913 -6.66908,11.43906 -0.15896,0.33708 -0.65394,1.16412 -1.09837,1.83828 -0.4445,0.67415 -0.93866,1.5028 -1.09836,1.83988 -0.15977,0.33708 -1.31961,2.35888 -2.57818,4.49374 -1.25856,2.13479 -2.41963,4.15667 -2.57983,4.49375 -0.16012,0.337 -0.79414,1.45018 -1.40912,2.47295 -0.61506,1.02278 -2.03827,3.45801 -3.1619,5.4112 -1.13783,1.97794 -2.31407,3.55011 -2.65546,3.54994 -0.48819,-4.1e-4 -4.57782,-6.41528 -6.23499,-9.78002 -0.17116,-0.34751 -0.67541,-1.18381 -1.11975,-1.85797 -0.44433,-0.67416 -0.93777,-1.50128 -1.09671,-1.83827 -0.0263,-0.0555 -0.43685,-0.74833 -0.52781,-0.91258 h -53.61242 c 1.26198,2.14774 2.53,4.32242 2.66204,4.59898 0.15836,0.3316 0.65057,1.15435 1.09507,1.82843 0.44442,0.67416 0.93942,1.50279 1.09837,1.83988 0.15902,0.33707 1.59547,2.82265 3.19312,5.52468 1.59774,2.7021 3.0348,5.1849 3.19314,5.51652 0.15834,0.3316 0.65221,1.15418 1.09671,1.82834 0.4445,0.67415 0.93768,1.50119 1.09672,1.83828 0.15894,0.33708 1.59546,2.82433 3.19313,5.52637 1.59777,2.70202 3.03478,5.18322 3.19314,5.51483 0.15835,0.3316 0.65221,1.15418 1.09671,1.82834 0.44451,0.67416 0.9377,1.50288 1.09672,1.83996 0.0154,0.0329 0.27081,0.46336 0.30912,0.53441 -58.28971,-0.0353 -80.6287,-0.13848 -80.7952,-0.57221 -0.25879,-0.67416 -0.12013,-1.04365 1.07699,-2.85936 0.44449,-0.67417 0.93932,-1.50289 1.09836,-1.83996 0.15885,-0.33709 1.59548,-2.82267 3.19313,-5.52469 1.59775,-2.70203 3.03477,-5.18474 3.19314,-5.51643 0.15834,-0.33161 0.65221,-1.15427 1.09671,-1.82843 0.44449,-0.67416 0.93671,-1.49691 1.09507,-1.82834 0.15826,-0.33161 1.59546,-2.81442 3.19314,-5.51652 1.59774,-2.70203 3.03584,-5.1876 3.19478,-5.52468 0.15895,-0.33709 0.6522,-1.16412 1.09671,-1.83828 0.44442,-0.67416 0.93672,-1.49833 1.09507,-1.83002 0.15826,-0.33162 1.59539,-2.81282 3.19314,-5.51484 1.59768,-2.70211 3.02767,-5.23433 3.1767,-5.62663 0.25549,-0.67222 3.00685,-0.71937 47.78027,-0.81719 h 33.73181 c -0.0113,-0.0202 -0.03,-0.0513 -0.0428,-0.0739 l 13.82158,-0.0295 v -23.0837 -23.08522 l -55.76971,-0.10526 c -61.4828,-0.11659 -57.24548,-0.27975 -62.79229,2.42523 -2.91895,1.42341 -6.89991,4.87039 -8.69315,7.52736 -0.6824,1.01108 -1.24141,1.90143 -1.24141,1.97804 0,0.0766 -1.61849,2.86988 -3.59762,6.20869 -1.97909,3.33921 -3.72448,6.34852 -3.87879,6.68559 -0.15423,0.33709 -0.4653,0.88783 -0.69058,1.2249 -0.64891,0.97093 -7.57329,12.81029 -7.88748,13.48621 -0.15582,0.3354 -0.46695,0.88622 -0.69223,1.2233 -0.6489,0.97092 -7.57329,12.8086 -7.88747,13.48452 -0.15584,0.3354 -0.46818,0.88622 -0.69388,1.2233 -0.61109,0.91266 -6.334269,10.73073 -6.669069,11.44067 -0.15894,0.33707 -0.65231,1.16411 -1.09673,1.83827 -0.4445,0.67424 -0.93843,1.49683 -1.0967,1.82843 -0.15836,0.33161 -1.59538,2.81432 -3.19314,5.51643 -1.59776,2.70202 -3.03419,5.18761 -3.19313,5.52469 -0.15895,0.33707 -0.65231,1.16411 -1.09672,1.83827 -0.4445,0.67416 -0.93844,1.49674 -1.09671,1.82843 -0.15844,0.33161 -1.59548,2.81441 -3.19314,5.51643 -1.59774,2.70211 -3.034189,5.18929 -3.193132,5.52637 -0.158935,0.33708 -0.653946,1.16411 -1.098362,1.83828 -0.4445,0.67416 -0.938577,1.5012 -1.098362,1.83827 -0.159784,0.33708 -1.035651,1.89965 -1.946793,3.47266 -3.012481,5.2009 -3.681959,8.06448 -3.352626,14.33295 0.211643,4.02988 0.386463,4.67331 2.477888,9.16006 1.190881,2.55487 6.880257,8.20861 9.436357,9.37719 1.12353,0.5137 2.38816,1.11251 2.81002,1.33022 0.42185,0.21778 2.076,0.63603 3.67655,0.92899 2.35641,0.43136 34.004349,0.5371 166.396539,0.55579 0.20763,0 0.71618,0.0941 0.83034,0.0789 0.1093,-0.0144 0.45555,-0.057 0.62318,-0.0789 170.53089,0.0236 165.40998,0.0715 169.88728,-1.63607 4.61157,-1.75888 10.22289,-6.67002 12.10004,-10.58895 2.33049,-4.86643 2.40389,-5.19997 2.40389,-10.99843 0,-6.22216 -0.13428,-6.73628 -3.25562,-12.49139 -0.60066,-1.10745 -1.44488,-2.56496 -1.87608,-3.23912 -0.43119,-0.67415 -0.91378,-1.49682 -1.07205,-1.82842 -0.15843,-0.33161 -1.5954,-2.81298 -3.19314,-5.51483 -1.59775,-2.70204 -3.03419,-5.18922 -3.19313,-5.52629 -0.15895,-0.337 -0.6523,-1.16412 -1.09672,-1.83828 -0.4445,-0.67415 -0.93838,-1.49682 -1.09671,-1.82842 -0.15836,-0.33162 -1.59546,-2.81433 -3.19314,-5.51644 -1.59775,-2.70194 -3.03419,-5.18929 -3.19312,-5.52637 -0.15895,-0.33707 -0.65396,-1.16412 -1.09837,-1.83827 -0.44459,-0.67417 -0.93672,-1.49683 -1.09507,-1.82843 -0.15833,-0.33161 -1.59549,-2.81281 -3.19313,-5.51475 -1.59775,-2.70202 -3.03592,-5.18929 -3.19479,-5.52637 -0.15902,-0.33707 -0.65221,-1.16412 -1.09671,-1.83827 -0.4445,-0.67417 -0.93681,-1.49674 -1.09508,-1.82843 -0.15835,-0.33161 -1.59536,-2.81441 -3.19314,-5.51643 -1.59765,-2.70211 -3.03591,-5.18929 -3.19477,-5.52637 -0.15902,-0.33708 -0.65228,-1.1642 -1.09672,-1.8382 -0.44449,-0.67415 -0.93844,-1.49681 -1.09671,-1.82842 -0.15835,-0.33169 -1.59373,-2.81281 -3.19149,-5.51483 -1.59766,-2.70211 -3.03585,-5.18929 -3.19478,-5.52637 -0.15895,-0.33708 -0.65232,-1.16413 -1.09672,-1.83828 -0.44449,-0.67407 -0.93843,-1.49673 -1.0967,-1.82834 -0.15836,-0.33169 -1.59539,-2.8145 -3.19314,-5.51652 -1.59774,-2.70202 -3.03419,-5.1892 -3.19314,-5.52629 -0.15894,-0.33707 -0.65231,-1.16411 -1.09672,-1.83827 -0.4445,-0.67408 -0.94022,-1.49969 -1.10001,-1.83499 -0.15977,-0.33532 -1.87058,-3.27887 -3.80314,-6.54081 -1.93264,-3.26194 -3.64239,-6.20389 -3.79822,-6.5392 -0.15582,-0.33531 -0.46809,-0.88623 -0.69387,-1.22331 -0.6111,-0.91256 -6.33436,-10.7308 -6.66909,-11.44074 -0.15902,-0.33708 -0.6522,-1.1642 -1.09671,-1.83828 -0.4445,-0.67415 -0.9368,-1.49673 -1.09507,-1.82834 -0.15834,-0.3316 -1.5954,-2.81281 -3.19314,-5.51483 -1.59765,-2.70202 -3.03591,-5.18929 -3.19477,-5.52637 -0.15903,-0.33708 -0.65222,-1.16411 -1.09672,-1.83828 -0.4445,-0.67415 -0.93846,-1.49673 -1.09671,-1.82834 -0.11965,-0.25054 -1.31487,-2.29516 -2.41212,-4.1682 z" /></svg>
