<?xml version="1.0" encoding="UTF-8" standalone="no"?>
<svg
   viewBox="0 0 512 512"
   style="height: 512px; width: 512px;"
   version="1.1"
   id="svg12"
   sodipodi:docname="griffin--book-cover.svg"
   inkscape:version="1.4 (e7c3feb1, 2024-10-09)"
   xmlns:inkscape="http://www.inkscape.org/namespaces/inkscape"
   xmlns:sodipodi="http://sodipodi.sourceforge.net/DTD/sodipodi-0.dtd"
   xmlns="http://www.w3.org/2000/svg"
   xmlns:svg="http://www.w3.org/2000/svg">
  <sodipodi:namedview
     id="namedview12"
     pagecolor="#505050"
     bordercolor="#ffffff"
     borderopacity="1"
     inkscape:showpageshadow="0"
     inkscape:pageopacity="0"
     inkscape:pagecheckerboard="1"
     inkscape:deskcolor="#d1d1d1"
     inkscape:zoom="0.12941726"
     inkscape:cx="50.225138"
     inkscape:cy="231.80833"
     inkscape:window-width="1728"
     inkscape:window-height="1051"
     inkscape:window-x="0"
     inkscape:window-y="38"
     inkscape:window-maximized="1"
     inkscape:current-layer="svg12" />
  <defs
     id="defs2"><radialGradient
   id="delapouite-book-cover-gradient-0">
  <stop
     offset="0%"
     stop-color="#830000"
     stop-opacity="1"
     id="stop1" />
  <stop
     offset="100%"
     stop-color="#000"
     stop-opacity="1"
     id="stop2" />
</radialGradient>

	
	
	
	
	
</defs>
  <path
     d="M0 0h512v512H0z"
     fill="url(#pattern)"
     id="path2" />
  <svg
     version="1.1"
     id="svg11">
    <defs
       id="defs6">
      <filter
         id="b"
         x="-0.023338979"
         width="1.046678"
         y="-0.023448784"
         height="1.0468976"
         color-interpolation-filters="sRGB">
        <feGaussianBlur
           stdDeviation="4.823"
           id="feGaussianBlur2" />
      </filter>
      <filter
         id="a"
         x="-0.012011281"
         width="1.0240226"
         y="-0.011988317"
         height="1.0239766"
         color-interpolation-filters="sRGB">
        <feGaussianBlur
           stdDeviation="2.55"
           id="feGaussianBlur3" />
      </filter>
      <filter
         id="c"
         x="-0.11244604"
         width="1.2248921"
         y="-0.082623731"
         height="1.1652475"
         color-interpolation-filters="sRGB">
        <feGaussianBlur
           stdDeviation="15.63"
           id="feGaussianBlur4" />
      </filter>
      <filter
         id="e"
         x="-0.23758603"
         width="1.4751721"
         y="-0.24869778"
         height="1.4973956"
         color-interpolation-filters="sRGB">
        <feGaussianBlur
           stdDeviation="18.7"
           id="feGaussianBlur5" />
      </filter>
      <filter
         id="d"
         x="-0.21301439"
         width="1.4260288"
         y="-0.15141701"
         height="1.302834"
         color-interpolation-filters="sRGB">
        <feGaussianBlur
           stdDeviation="18.7"
           id="feGaussianBlur6" />
      </filter>
    </defs>
    <path
       d="M196.6 1.207c-2.5 11.323-4.8 22.703-10.2 33.383-7-10.68-12.6-20.91-16.7-31.988L2.494 4.338C13 104.9 10.86 175.3 1.979 278.3L15.4 295.5l-9.494 6.3L2.6 462.7l1.019 45.9 112.681 3.1c3.6-16.1 6.5-32.5 13.2-47.3 4.5 14.4 5.7 29.4 7 44.4l160 .3c.8-6.1.7-8.1 2.3-14.4 5.1 4.5 7.8 9.5 10.6 14.5.8-10.1 3.9-19.8 7-29.5 4.8 9.2 6.7 19.4 8.8 29.5l185.2.4-4.6-78.2-21.4-8.2 21.3-4.9 5.8-395.47c-7-6.73-13.3-13.744-18-21.465l-15.1.114-2.1 20.321-1.4 47.23.8 84.87-8.6-97.14c9.3-16.86 2.2-39.69 5.7-55.239-92.1 1.696-184.1.685-276.2-.314z"
       overflow="visible"
       color="#000"
       fill="#ebc893"
       fill-rule="evenodd"
       stroke="#e0aa58"
       enable-background="accumulate"
       id="path6" />
    <path
       d="M196.6 1.203c-2.5 11.327-4.8 22.707-10.2 33.387-7-10.68-12.6-20.91-16.7-31.99L2.494 4.336C13 104.9 10.86 175.3 1.979 278.3L15.4 295.5l-9.494 6.3L2.6 462.7l1.019 45.9 112.681 3.1c.5-2.1-7.9-2.3-7.4-4.5L5.244 504.5l-.914-47.3 4.63-153.7 12.42-9-13.093-16.8C16.95 177.3 16.36 104 6.113 5.992l162.687.164c4 10.804 10.3 24.254 17.1 34.664 5.3-10.41 9.5-25.97 12-37.02 89.8.974 173.8 3.521 263.6 1.867 4.6 1.226 10.6.431 11.3-4.149-92.1 1.696-184.1.684-276.2-.315zm296.9.158l-15.1.116-.6 6.277 13.5-2.557c4.6 7.533 9.7 12.383 16.6 18.943l-4.6 389.06-19.9 9.9 4.1-.6 18.2-4.2 5.8-395.47c-7-6.73-13.3-13.748-18-21.469zm9.6 435.739l3.5 69.7-177.7.1c.4 2.1-4.1.2-3.7 2.3l185.2.4-4.6-78.2zm-370 25.1c-1 2.2-2.9.4-3.7 2.6 4.2 14 5.8 29.5 7.1 44l158 .3c1.9-5 .8-9.7 4.3-14.4 5.1 4.5 7.8 9.5 10.6 14.5.8-10.1 3.9-19.8 7-29.5 1.8 3.4 3.2 7 4.3 10.6-1.4-5.6-2.4-8.3-5.1-13.4-3 9.4-6.7 16.2-7.5 26-2.7-4.9-5.4-9.7-10.4-14.1-3.4 4.6-6.2 9.1-8 14l-147.6 3.4c-3.4-14.6-7.1-30.3-9-44z"
       overflow="visible"
       color="#000"
       opacity=".527"
       fill="#c87137"
       fill-rule="evenodd"
       filter="url(#a)"
       enable-background="accumulate"
       id="path7" />
    <path
       d="M200.1 16.1c-2.3 10.67-10.5 21.38-15.6 31.44-6.6-10.06-13.9-19.69-17.7-30.12L17.34 19.05C24.61 113.6 7.605 179.3 16.85 277l18.26 20.1L10.34 309l7.1 141.6.96 43.3 90.2 3.4c3.4-15.2 15-35.6 21.3-49.6 4.3 13.6 15.4 36.7 16.6 50.9l45.1.8 13.8-18.7 14.4 22.2 68.7-8.6c1.8-4.7 4.5-9.1 7.8-13.5 4.8 4.2 7.4 8.9 10 13.6.8-9.5 7.7-19.6 10.6-28.7 4.5 8.6 19.9 28.9 33.1 33.9l114.6 5.6 22.3-14.7 19.4 14.7-14.5-67.6-34.6-14.2 37.5-15.1 2.1-96.9-14.5-21.9 15.2-13.4 5.1-239.63c-5.2-21.09-11.8-24.89-16.9-20.22l-4.2 2.11 2 19.14.7 44.47-7.1 124.23-18.3-137.78c8.8-15.88-3.9-35.38-.6-50.02-67.1 1.24-140.4-13.332-202.8-3.28-14 2.25-23.7 21.31-36.9 24.48-4.3 1.03-13.9-23.45-18.4-23.5z"
       overflow="visible"
       enable-background="accumulate"
       filter="url(#b)"
       fill-rule="evenodd"
       fill="#f6e7d0"
       color="#000"
       id="path8" />
    <path
       d="M354 27.39l-70.3 96.91 46.4 97.6-56.2 43.6 33 74.4-30.2 63.2 69.8 48.8 31.6 29.5 31.6-13.3L365.9 335l55.5-36.5 2.1-146.1-56.9-101.83zM116.6 55.48L89.9 123.6s33.7 65.3 35.8 68.8c2.1 3.6-7 118-7 118l42.8 73.8s9.9-82.9 7.1-83.6c-2.8-.7-29.5-42.1-29.5-42.1l23.8-84.3-36.5-37.2z"
       color="#000"
       overflow="visible"
       fill="#f2dbb9"
       fill-rule="evenodd"
       filter="url(#c)"
       enable-background="accumulate"
       id="path9" />
    <path
       d="M39.33 172.1l-5.62 108.1L74.45 328 42.84 464.9l96.96-39.3 30.2 42.9 74.4-38.7-80.8-169.9-60.4-16.9z"
       color="#000"
       overflow="visible"
       fill="#eed3a4"
       fill-rule="evenodd"
       enable-background="accumulate"
       filter="url(#d)"
       id="path10" />
    <path
       d="M266.9 66.72L324.5 191 434 221.2l21.8-111.6-41.4-68.86z"
       color="#000"
       overflow="visible"
       fill="#eed3a4"
       fill-rule="evenodd"
       enable-background="accumulate"
       filter="url(#e)"
       id="path11" />
  </svg>
  <path
     id="rect1"
     style="fill:#005780;stroke-width:22.034;stroke-linecap:round;stroke-linejoin:round;paint-order:stroke fill markers"
     d="m 228.92712,72.833228 c -12.72945,0 -28.67353,5.609967 -44.86835,15.491659 11.55432,2.779228 21.588,10.625037 26.88927,21.541443 1.53133,3.15233 0.21638,6.94934 -2.93596,8.47982 -3.15148,1.53217 -6.94848,0.21722 -8.47981,-2.93594 -4.64389,-9.5636 -14.12817,-15.504111 -24.75184,-15.504111 -3.42899,0 -6.71073,0.636051 -9.74124,1.788351 -0.35787,0.18613 -0.72831,0.33408 -1.10647,0.44661 -9.78187,4.21664 -16.64788,13.95092 -16.64788,25.26158 0,5.00937 1.33335,9.83662 3.87315,14.08202 28.01987,1.78683 50.27261,25.13831 50.27261,53.60064 0,3.50513 -2.84101,6.34529 -6.34527,6.34529 -3.50429,0 -6.34529,-2.84016 -6.34529,-6.34529 0,-22.62553 -18.40696,-41.03249 -41.03249,-41.03249 -22.62555,0 -41.0325,18.40696 -41.0325,41.03249 0,5.28265 1.01478,10.46432 3.0182,15.40178 1.03639,2.55418 0.30474,5.48653 -1.81035,7.25475 -9.370691,7.83175 -14.744768,19.31065 -14.744768,31.49019 0,22.62554 18.406958,41.0325 41.032488,41.0325 3.50429,0 6.34528,2.84015 6.34528,6.34528 0,3.50512 -2.841,6.34527 -6.34528,6.34527 -13.59071,0 -26.0097,-5.08337 -35.48192,-13.43458 -3.642184,6.23105 -5.550568,13.26655 -5.550568,20.62622 0,16.18129 9.577268,30.89556 24.398978,37.48449 2.71999,1.20983 4.23372,4.14816 3.6398,7.06446 -0.64045,3.14555 -0.9659,6.3734 -0.9659,9.59681 0,21.54092 14.54368,40.49884 35.36716,46.10298 1.70646,0.4594 3.14272,1.60975 3.96592,3.17408 8.30639,15.78872 24.51791,25.59724 42.30921,25.59724 26.3574,0 47.80142,-21.44402 47.80142,-47.80143 0,-21.55107 -14.55192,-40.51145 -35.38724,-46.10967 -3.38416,-0.90864 -5.39088,-4.38906 -4.48139,-7.77404 0.90949,-3.38415 4.39074,-5.38749 7.77404,-4.48139 13.0831,3.51528 24.20531,11.19733 32.09459,21.37599 V 201.85329 c 0,-11.42994 -9.2985,-20.7276 -20.7276,-20.7276 -3.50428,0 -6.34528,-2.84015 -6.34528,-6.34528 0,-3.50513 2.84101,-6.34528 6.34528,-6.34528 7.82583,0 15.02616,2.71176 20.7276,7.23467 V 93.560823 c 0,-11.42995 -9.2985,-20.727595 -20.7276,-20.727595 z m 54.14576,0 c -11.4291,0 -20.72759,9.297645 -20.72759,20.727595 v 55.036097 c 5.70144,-4.5229 12.90177,-7.23467 20.72759,-7.23467 3.5043,0 6.34528,2.84015 6.34528,6.34529 0,3.50512 -2.84098,6.34527 -6.34528,6.34527 -11.4291,0 -20.72759,9.29766 -20.72759,20.7276 v 209.57787 c 0,0.59052 -0.0875,1.15997 -0.23813,1.70228 0.15482,1.75215 0.23813,3.52049 0.23813,5.30478 0,26.35741 21.44404,47.80143 47.80141,47.80143 17.79129,0 34.00284,-9.80936 42.3092,-25.59724 0.82236,-1.56433 2.25947,-2.71372 3.96592,-3.17312 20.8235,-5.60415 35.36717,-24.56207 35.36717,-46.10298 0,-3.2234 -0.32546,-6.45222 -0.96587,-9.59777 -0.59393,-2.91715 0.9198,-5.85462 3.63982,-7.06446 14.8217,-6.58977 24.39892,-21.3032 24.39892,-37.48449 0,-7.35967 -1.9075,-14.39517 -5.55053,-20.62622 -9.4722,8.35121 -21.89123,13.43458 -35.48191,13.43458 -3.50428,0 -6.34529,-2.84015 -6.34529,-6.34527 0,-3.50513 2.84095,-6.34528 6.34529,-6.34528 22.62548,0 41.03244,-18.40696 41.03244,-41.0325 0,-12.17954 -5.37398,-23.65844 -14.74379,-31.49019 -2.11511,-1.76822 -2.84678,-4.69973 -1.81036,-7.25475 2.00255,-4.93746 3.01723,-10.11913 3.01723,-15.40178 0,-22.62553 -18.40691,-41.03249 -41.03246,-41.03249 -22.62553,0 -41.03249,18.40696 -41.03249,41.03249 0,3.50513 -2.84102,6.34529 -6.34528,6.34529 -3.50428,0 -6.34529,-2.84016 -6.34529,-6.34529 0,-28.46233 22.25272,-51.81381 50.2726,-53.60064 2.53979,-4.2454 3.8741,-9.07265 3.8741,-14.08202 0,-11.31151 -6.86813,-21.0459 -16.65168,-25.26254 -0.37649,-0.11252 -0.7466,-0.25952 -1.10361,-0.44565 -3.02967,-1.1523 -6.31223,-1.788351 -9.74126,-1.788351 -10.62364,0 -20.10788,5.940511 -24.75181,15.504111 -1.5313,3.15316 -5.32751,4.46727 -8.47983,2.93594 -3.15233,-1.52964 -4.46727,-5.32665 -2.93595,-8.47982 5.30126,-10.916406 15.33493,-18.763055 26.88925,-21.541443 -16.19481,-9.881692 -32.13888,-15.491659 -44.86835,-15.491659 z m 94.75654,109.138822 c 3.50418,0 6.34525,2.84015 6.34525,6.34527 0,27.25506 -20.40522,49.81786 -46.73893,53.25446 2.6997,12.3462 13.71276,21.61986 26.85674,21.61986 3.5043,0 6.34525,2.84014 6.34525,6.34528 9e-5,3.50512 -2.84095,6.34528 -6.34525,6.34528 -20.11361,0 -36.82103,-14.85377 -39.73474,-34.16793 -12.31493,-1.33166 -23.68337,-6.81915 -32.48384,-15.80151 -2.45266,-2.50344 -2.41064,-6.52064 0.0928,-8.9733 2.50342,-2.45266 6.52051,-2.41171 8.97233,0.0909 7.78268,7.94428 18.19316,12.31951 29.31263,12.31951 22.62553,0 41.03249,-18.40696 41.03249,-41.03251 0,-3.50512 2.84096,-6.34527 6.34529,-6.34527 z m -230.12188,6.76798 c 3.50427,0 6.34528,2.84015 6.34528,6.34527 0,22.62555 18.40695,41.0325 41.0325,41.0325 11.11944,0 21.52896,-4.37426 29.31164,-12.31855 2.45266,-2.50341 6.47071,-2.54277 8.9733,-0.0918 2.50342,2.45181 2.54446,6.46987 0.0918,8.97329 -8.80046,8.98236 -20.16795,14.46984 -32.48286,15.80151 -2.91375,19.31415 -19.62108,34.16792 -39.73475,34.16792 -3.50428,0 -6.34526,-2.84015 -6.34526,-6.34527 0,-3.50513 2.84099,-6.34528 6.34526,-6.34528 13.14402,0 24.15706,-9.27366 26.85675,-21.61986 -26.3337,-3.4366 -46.73894,-25.99941 -46.73894,-53.25445 0,-3.50513 2.841,-6.34528 6.34528,-6.34528 z m 135.36534,94.75651 c 29.62315,0 53.72403,24.09995 53.72403,53.72305 0,0.30627 -0.0112,0.61288 -0.0162,0.92 2.35959,-0.31811 4.76183,-0.4973 7.20692,-0.4973 3.50427,0 6.34528,2.84016 6.34528,6.34529 0,3.50512 -2.84101,6.34527 -6.34528,6.34527 -22.62559,0 -41.0325,18.40696 -41.0325,41.03249 0,3.50514 -2.84099,6.34529 -6.34527,6.34529 -3.50429,0 -6.34528,-2.84015 -6.34528,-6.34529 0,-22.51386 13.92778,-41.82491 33.61422,-49.80303 0.15061,-1.43742 0.22759,-2.89262 0.22759,-4.34272 0,-22.62554 -18.4079,-41.03249 -41.03345,-41.03249 -3.50427,0 -6.34528,-2.84016 -6.34528,-6.34529 0,-3.50512 2.84101,-6.34527 6.34528,-6.34527 z m -74.45066,13.53595 c 3.50429,0 6.34529,2.84016 6.34529,6.34529 0,3.50512 -2.841,6.34527 -6.34529,6.34527 -22.62553,0 -41.03248,18.40791 -41.03248,41.03346 0,1.45094 0.0761,2.90434 0.22664,4.34175 19.68642,7.97813 33.61421,27.29014 33.61421,49.804 0,3.50513 -2.841,6.34529 -6.34527,6.34529 -3.50429,0 -6.34529,-2.84016 -6.34529,-6.34529 0,-22.62553 -18.40696,-41.03249 -41.03249,-41.03249 -3.50429,0 -6.34528,-2.84015 -6.34528,-6.34528 0,-3.50513 2.841,-6.34528 6.34528,-6.34528 2.44504,0 4.84734,0.17919 7.20694,0.49729 -0.005,-0.30711 -0.0153,-0.61373 -0.0153,-0.91999 0,-29.62311 24.09995,-53.72402 53.72305,-53.72402 z"
     sodipodi:nodetypes="sccccsccscsssssscsssscsccsccssccccsssscsssscssssscssccsscscssssccssssscsccsccccssscssscsscsssssscsccssscsssscsssssscsssssssscsssssscss" />
</svg>
