<?xml version="1.0" encoding="UTF-8" standalone="no"?>
<svg
   viewBox="0 0 512 512"
   style="height: 512px; width: 512px;"
   version="1.1"
   id="svg12"
   sodipodi:docname="griffin--weaving-strike copy.svg"
   inkscape:version="1.4 (e7c3feb1, 2024-10-09)"
   xmlns:inkscape="http://www.inkscape.org/namespaces/inkscape"
   xmlns:sodipodi="http://sodipodi.sourceforge.net/DTD/sodipodi-0.dtd"
   xmlns="http://www.w3.org/2000/svg"
   xmlns:svg="http://www.w3.org/2000/svg">
  <sodipodi:namedview
     id="namedview12"
     pagecolor="#505050"
     bordercolor="#ffffff"
     borderopacity="1"
     inkscape:showpageshadow="0"
     inkscape:pageopacity="0"
     inkscape:pagecheckerboard="1"
     inkscape:deskcolor="#d1d1d1"
     inkscape:zoom="1.2401471"
     inkscape:cx="264.88792"
     inkscape:cy="281.41822"
     inkscape:window-width="1728"
     inkscape:window-height="1051"
     inkscape:window-x="0"
     inkscape:window-y="38"
     inkscape:window-maximized="1"
     inkscape:current-layer="svg12" />
  <defs
     id="defs2">
    <radialGradient
       id="lorc-blade-drag-gradient-0">
      <stop
         offset="0%"
         stop-color="#830000"
         stop-opacity="1"
         id="stop1" />
      <stop
         offset="100%"
         stop-color="#000"
         stop-opacity="1"
         id="stop2" />
    </radialGradient>
  </defs>
  <path
     d="M0 0h512v512H0z"
     fill="url(#pattern)"
     id="path2" />
  <svg
     version="1.1"
     id="svg11">
    <defs
       id="defs6">
      <filter
         id="b"
         x="-0.023338979"
         width="1.046678"
         y="-0.023448784"
         height="1.0468976"
         color-interpolation-filters="sRGB">
        <feGaussianBlur
           stdDeviation="4.823"
           id="feGaussianBlur2" />
      </filter>
      <filter
         id="a"
         x="-0.012011281"
         width="1.0240226"
         y="-0.011988317"
         height="1.0239766"
         color-interpolation-filters="sRGB">
        <feGaussianBlur
           stdDeviation="2.55"
           id="feGaussianBlur3" />
      </filter>
      <filter
         id="c"
         x="-0.11244604"
         width="1.2248921"
         y="-0.082623731"
         height="1.1652475"
         color-interpolation-filters="sRGB">
        <feGaussianBlur
           stdDeviation="15.63"
           id="feGaussianBlur4" />
      </filter>
      <filter
         id="e"
         x="-0.23758603"
         width="1.4751721"
         y="-0.24869778"
         height="1.4973956"
         color-interpolation-filters="sRGB">
        <feGaussianBlur
           stdDeviation="18.7"
           id="feGaussianBlur5" />
      </filter>
      <filter
         id="d"
         x="-0.21301439"
         width="1.4260288"
         y="-0.15141701"
         height="1.302834"
         color-interpolation-filters="sRGB">
        <feGaussianBlur
           stdDeviation="18.7"
           id="feGaussianBlur6" />
      </filter>
    </defs>
    <path
       d="M196.6 1.207c-2.5 11.323-4.8 22.703-10.2 33.383-7-10.68-12.6-20.91-16.7-31.988L2.494 4.338C13 104.9 10.86 175.3 1.979 278.3L15.4 295.5l-9.494 6.3L2.6 462.7l1.019 45.9 112.681 3.1c3.6-16.1 6.5-32.5 13.2-47.3 4.5 14.4 5.7 29.4 7 44.4l160 .3c.8-6.1.7-8.1 2.3-14.4 5.1 4.5 7.8 9.5 10.6 14.5.8-10.1 3.9-19.8 7-29.5 4.8 9.2 6.7 19.4 8.8 29.5l185.2.4-4.6-78.2-21.4-8.2 21.3-4.9 5.8-395.47c-7-6.73-13.3-13.744-18-21.465l-15.1.114-2.1 20.321-1.4 47.23.8 84.87-8.6-97.14c9.3-16.86 2.2-39.69 5.7-55.239-92.1 1.696-184.1.685-276.2-.314z"
       overflow="visible"
       color="#000"
       fill="#ebc893"
       fill-rule="evenodd"
       stroke="#e0aa58"
       enable-background="accumulate"
       id="path6" />
    <path
       d="M196.6 1.203c-2.5 11.327-4.8 22.707-10.2 33.387-7-10.68-12.6-20.91-16.7-31.99L2.494 4.336C13 104.9 10.86 175.3 1.979 278.3L15.4 295.5l-9.494 6.3L2.6 462.7l1.019 45.9 112.681 3.1c.5-2.1-7.9-2.3-7.4-4.5L5.244 504.5l-.914-47.3 4.63-153.7 12.42-9-13.093-16.8C16.95 177.3 16.36 104 6.113 5.992l162.687.164c4 10.804 10.3 24.254 17.1 34.664 5.3-10.41 9.5-25.97 12-37.02 89.8.974 173.8 3.521 263.6 1.867 4.6 1.226 10.6.431 11.3-4.149-92.1 1.696-184.1.684-276.2-.315zm296.9.158l-15.1.116-.6 6.277 13.5-2.557c4.6 7.533 9.7 12.383 16.6 18.943l-4.6 389.06-19.9 9.9 4.1-.6 18.2-4.2 5.8-395.47c-7-6.73-13.3-13.748-18-21.469zm9.6 435.739l3.5 69.7-177.7.1c.4 2.1-4.1.2-3.7 2.3l185.2.4-4.6-78.2zm-370 25.1c-1 2.2-2.9.4-3.7 2.6 4.2 14 5.8 29.5 7.1 44l158 .3c1.9-5 .8-9.7 4.3-14.4 5.1 4.5 7.8 9.5 10.6 14.5.8-10.1 3.9-19.8 7-29.5 1.8 3.4 3.2 7 4.3 10.6-1.4-5.6-2.4-8.3-5.1-13.4-3 9.4-6.7 16.2-7.5 26-2.7-4.9-5.4-9.7-10.4-14.1-3.4 4.6-6.2 9.1-8 14l-147.6 3.4c-3.4-14.6-7.1-30.3-9-44z"
       overflow="visible"
       color="#000"
       opacity=".527"
       fill="#c87137"
       fill-rule="evenodd"
       filter="url(#a)"
       enable-background="accumulate"
       id="path7" />
    <path
       d="M200.1 16.1c-2.3 10.67-10.5 21.38-15.6 31.44-6.6-10.06-13.9-19.69-17.7-30.12L17.34 19.05C24.61 113.6 7.605 179.3 16.85 277l18.26 20.1L10.34 309l7.1 141.6.96 43.3 90.2 3.4c3.4-15.2 15-35.6 21.3-49.6 4.3 13.6 15.4 36.7 16.6 50.9l45.1.8 13.8-18.7 14.4 22.2 68.7-8.6c1.8-4.7 4.5-9.1 7.8-13.5 4.8 4.2 7.4 8.9 10 13.6.8-9.5 7.7-19.6 10.6-28.7 4.5 8.6 19.9 28.9 33.1 33.9l114.6 5.6 22.3-14.7 19.4 14.7-14.5-67.6-34.6-14.2 37.5-15.1 2.1-96.9-14.5-21.9 15.2-13.4 5.1-239.63c-5.2-21.09-11.8-24.89-16.9-20.22l-4.2 2.11 2 19.14.7 44.47-7.1 124.23-18.3-137.78c8.8-15.88-3.9-35.38-.6-50.02-67.1 1.24-140.4-13.332-202.8-3.28-14 2.25-23.7 21.31-36.9 24.48-4.3 1.03-13.9-23.45-18.4-23.5z"
       overflow="visible"
       enable-background="accumulate"
       filter="url(#b)"
       fill-rule="evenodd"
       fill="#f6e7d0"
       color="#000"
       id="path8" />
    <path
       d="M354 27.39l-70.3 96.91 46.4 97.6-56.2 43.6 33 74.4-30.2 63.2 69.8 48.8 31.6 29.5 31.6-13.3L365.9 335l55.5-36.5 2.1-146.1-56.9-101.83zM116.6 55.48L89.9 123.6s33.7 65.3 35.8 68.8c2.1 3.6-7 118-7 118l42.8 73.8s9.9-82.9 7.1-83.6c-2.8-.7-29.5-42.1-29.5-42.1l23.8-84.3-36.5-37.2z"
       color="#000"
       overflow="visible"
       fill="#f2dbb9"
       fill-rule="evenodd"
       filter="url(#c)"
       enable-background="accumulate"
       id="path9" />
    <path
       d="M39.33 172.1l-5.62 108.1L74.45 328 42.84 464.9l96.96-39.3 30.2 42.9 74.4-38.7-80.8-169.9-60.4-16.9z"
       color="#000"
       overflow="visible"
       fill="#eed3a4"
       fill-rule="evenodd"
       enable-background="accumulate"
       filter="url(#d)"
       id="path10" />
    <path
       d="M266.9 66.72L324.5 191 434 221.2l21.8-111.6-41.4-68.86z"
       color="#000"
       overflow="visible"
       fill="#eed3a4"
       fill-rule="evenodd"
       enable-background="accumulate"
       filter="url(#e)"
       id="path11" />
  </svg>
  <path
     id="path38"
     style="fill:#005780;fill-opacity:1;stroke-width:1.46861;stroke-linejoin:round;paint-order:stroke fill markers"
     d="m 151.67012,77.720647 c 0,33.555203 12.71858,62.149623 29.98882,82.769803 17.27024,20.62019 37.99875,34.44757 56.43521,46.33571 18.43646,11.88816 34.78118,22.09589 44.2418,31.01861 9.46063,8.9227 11.90659,13.29482 11.90659,22.42781 0,9.13299 -2.37371,13.30826 -11.79189,22.10657 -5.10796,4.77184 -12.36523,9.96368 -20.78711,15.56379 1.90831,1.23229 3.80971,2.47885 5.72243,3.70594 21.37984,-18.63905 35.65162,-38.1027 27.99254,-61.67005 9.11021,23.94791 -4.85992,43.78047 -25.93018,63.00384 2.18661,1.40242 4.35751,2.82728 6.53986,4.2366 23.53385,-19.67186 40.01559,-40.05431 31.89346,-65.04613 9.65066,25.36828 -6.62093,46.11896 -29.77073,66.42008 5.18256,3.36242 10.33473,6.76586 15.40305,10.29172 22.23795,-19.05245 37.36299,-38.88896 29.51842,-63.02679 9.33374,24.53519 -5.5716,44.75081 -27.50188,64.41795 3.45901,2.43968 6.85238,4.97144 10.20859,7.55531 20.39998,-18.17896 33.6527,-37.22537 26.2026,-60.14982 8.88126,23.34592 -4.15822,42.78437 -24.33542,61.55818 0.46922,0.36818 0.96179,0.70389 1.42852,1.07564 1.60798,1.28192 3.13459,2.66676 4.70409,3.99852 21.21448,-18.56451 35.28183,-37.96434 27.65697,-61.42623 9.10081,23.92309 -4.83333,43.73886 -25.86703,62.9436 1.01114,0.87875 2.06722,1.70192 3.06058,2.6016 3.0315,-2.46877 6.0398,-5.01707 8.97789,-7.76181 17.31401,-16.17457 32.76258,-40.92662 32.76258,-70.39851 0,-29.47188 -15.37617,-54.21503 -32.64773,-70.50463 -17.27156,-16.28961 -36.56995,-27.38995 -53.7763,-38.48498 -17.2065,-11.09502 -32.12094,-21.92709 -41.58289,-33.22439 -9.46194,-11.29727 -14.5655,-21.877947 -14.5655,-40.337933 -22.84049,-8.925099 -44.99726,-10.329386 -66.08734,0 z m 142.57242,0 c 0,18.459986 -5.1037,29.040663 -14.5655,40.337933 -4.83216,5.76942 -11.11354,11.4173 -18.3692,17.04102 18.57436,13.31245 38.70192,24.42776 56.79678,38.39319 4.20727,-4.03576 8.31805,-8.32392 12.23644,-13.00234 17.27024,-20.62018 29.98882,-49.2146 29.98882,-82.769803 -21.27211,-9.841078 -43.06942,-12.854518 -66.08734,0 z M 193.59989,181.682 c -3.13738,2.56981 -6.24731,5.22385 -9.28204,8.08595 -17.27156,16.2896 -32.64773,41.03275 -32.64773,70.50463 0,22.10391 8.69034,41.55258 20.33962,56.71924 1.9415,2.52777 3.96422,4.93736 6.04362,7.21969 2.0794,2.28233 4.21505,4.43777 6.37919,6.45958 1.68728,1.57608 3.40159,3.07446 5.12588,4.54351 1.23216,1.06083 2.47137,2.09269 3.71734,3.10932 0.0191,0.015 0.0369,0.031 0.0545,0.0458 12.08972,9.85593 24.598,17.62645 36.59197,25.14416 -35.8236,-28.75691 -72.79256,-55.20645 -59.31809,-90.62627 -15.8241,48.69114 61.66874,79.90266 102.86862,122.42794 0.74179,0.722 1.58007,1.437 2.28031,2.16275 1.3774,1.42778 2.6733,2.86344 3.878,4.3083 1.94502,2.33274 3.66227,4.65506 5.23764,7.01891 5.36835,7.48735 9.40585,15.35768 11.45338,23.76161 -7.80375,-68.1839 -139.9426,-102.64186 -116.2638,-164.8856 -19.99832,61.53512 109.08876,95.14381 125.53731,158.96816 C 305.09026,354.49545 164.61413,319.87489 188.96746,255.85808 166.60718,324.66118 330.63302,358.5466 315.18165,438.80012 353.88534,348.21919 177.02915,313.38134 204.11821,242.17306 180.1799,315.83152 369.86849,349.46952 324.25148,442.82732 h 0.45894 C 374.44996,347.58362 188.92135,312.79317 216.62149,239.97876 192.49682,314.21078 385.33234,347.79899 335.63892,442.82732 h 0.99542 c 35.61961,-64.27889 -35.37494,-101.21037 -79.05823,-140.21474 -2.36196,-1.53063 -5.10077,-3.24599 -7.31425,-4.71847 0,-0.003 -0.0147,-0.006 -0.0147,-0.009 -4.18744,-2.78575 -8.08689,-5.46969 -11.57395,-8.05153 0,-0.003 -0.0147,-0.006 -0.0147,-0.009 -1.64954,-1.22156 -3.18834,-2.41858 -4.64109,-3.59408 -0.0955,-0.0775 -0.20649,-0.15779 -0.30121,-0.2352 -1.5109,-1.2311 -2.90726,-2.43702 -4.17055,-3.61702 -9.41789,-8.79831 -11.79189,-12.97357 -11.79189,-22.10656 0,-9.133 2.44596,-13.50511 11.90659,-22.42782 5.10106,-4.81118 12.30502,-10.03233 20.65802,-15.65272 -2.35256,-1.52691 -4.70616,-3.0545 -7.05049,-4.57792 -17.17654,-11.03591 -34.46602,-22.24705 -49.66582,-35.93213 z m 84.15812,133.99037 c 14.63555,11.099 30.27755,22.2394 43.79432,34.13938 -14.00964,-14.24121 -29.4215,-24.86171 -43.79432,-34.13938 z m -84.13506,30.97844 c -0.97486,0.94018 -1.92226,1.94542 -2.88567,2.91426 1.03581,-0.90903 2.11024,-1.80432 3.16955,-2.70487 -0.094,-0.0714 -0.19048,-0.1379 -0.28388,-0.20939 z m 4.36852,3.22405 c -26.74305,25.33835 -44.12358,54.1579 -22.62581,92.95253 h 0.99542 c -19.54907,-37.38358 -1.58154,-65.2637 25.97012,-89.84321 -1.45744,-1.02127 -2.90196,-2.06071 -4.33973,-3.10932 z m 8.82016,6.21576 c -23.81083,23.87924 -38.14693,51.07303 -19.52205,86.73677 h 0.45894 c -16.85345,-34.49144 -1.56818,-60.82397 23.18212,-84.0405 -1.36889,-0.90435 -2.76099,-1.77672 -4.11901,-2.69627 z m 8.96938,5.87157 c -20.28353,21.57036 -32.15531,45.96248 -18.96281,76.838 -5.22252,-27.12611 10.08566,-48.94706 31.74439,-68.61724 -4.27541,-2.71962 -8.52761,-5.47047 -12.78158,-8.22076 z m 17.49141,11.2182 c -15.50791,15.846 -26.72587,33.17354 -26.86803,53.46936 4.64197,-18.01204 18.25846,-33.61394 34.95976,-48.11983 -2.69372,-1.78796 -5.36849,-3.602 -8.09173,-5.34953 z m 12.49755,8.26953 c -15.7442,15.27131 -27.88665,31.84674 -30.09221,51.11729 2.0515,-8.42004 6.10133,-16.30445 11.48496,-23.80463 1.56861,-2.34887 3.27572,-4.65725 5.209,-6.97588 2.0352,-2.44084 4.37718,-4.8499 6.88983,-7.24553 3.37706,-3.4382 6.98073,-6.8041 10.75652,-10.11101 -0.95004,-0.68848 -1.89318,-1.39014 -2.8513,-2.05662 -0.45909,-0.31673 -0.93609,-0.60906 -1.3968,-0.92362 z"
     sodipodi:nodetypes="csssssccccccccccccccccccssscscccccccccccsssccccccccsccccccccccccccccccccscccccccccccccccccccccccccccccccccscccc" />
</svg>
