<?xml version="1.0" encoding="UTF-8" standalone="no"?>
<svg
   viewBox="0 0 512 512"
   style="height: 512px; width: 512px;"
   version="1.1"
   id="svg12"
   sodipodi:docname="griffin--arcane-might.svg"
   inkscape:version="1.4 (e7c3feb1, 2024-10-09)"
   xmlns:inkscape="http://www.inkscape.org/namespaces/inkscape"
   xmlns:sodipodi="http://sodipodi.sourceforge.net/DTD/sodipodi-0.dtd"
   xmlns="http://www.w3.org/2000/svg"
   xmlns:svg="http://www.w3.org/2000/svg">
  <sodipodi:namedview
     id="namedview12"
     pagecolor="#505050"
     bordercolor="#ffffff"
     borderopacity="1"
     inkscape:showpageshadow="0"
     inkscape:pageopacity="0"
     inkscape:pagecheckerboard="1"
     inkscape:deskcolor="#d1d1d1"
     inkscape:zoom="0.54393941"
     inkscape:cx="284.95821"
     inkscape:cy="316.21169"
     inkscape:window-width="1728"
     inkscape:window-height="1051"
     inkscape:window-x="0"
     inkscape:window-y="38"
     inkscape:window-maximized="1"
     inkscape:current-layer="svg12" />
  <defs
     id="defs2">
    <radialGradient
       id="delapouite-mighty-force-gradient-0">
      <stop
         offset="0%"
         stop-color="#830000"
         stop-opacity="1"
         id="stop1" />
      <stop
         offset="100%"
         stop-color="#000"
         stop-opacity="1"
         id="stop2" />
    </radialGradient>
  </defs>
  <path
     d="M0 0h512v512H0z"
     fill="url(#pattern)"
     id="path2" />
  <svg
     version="1.1"
     id="svg11">
    <defs
       id="defs6">
      <filter
         id="b"
         x="-0.023338979"
         width="1.046678"
         y="-0.023448784"
         height="1.0468976"
         color-interpolation-filters="sRGB">
        <feGaussianBlur
           stdDeviation="4.823"
           id="feGaussianBlur2" />
      </filter>
      <filter
         id="a"
         x="-0.012011281"
         width="1.0240226"
         y="-0.011988317"
         height="1.0239766"
         color-interpolation-filters="sRGB">
        <feGaussianBlur
           stdDeviation="2.55"
           id="feGaussianBlur3" />
      </filter>
      <filter
         id="c"
         x="-0.11244604"
         width="1.2248921"
         y="-0.082623731"
         height="1.1652475"
         color-interpolation-filters="sRGB">
        <feGaussianBlur
           stdDeviation="15.63"
           id="feGaussianBlur4" />
      </filter>
      <filter
         id="e"
         x="-0.23758603"
         width="1.4751721"
         y="-0.24869778"
         height="1.4973956"
         color-interpolation-filters="sRGB">
        <feGaussianBlur
           stdDeviation="18.7"
           id="feGaussianBlur5" />
      </filter>
      <filter
         id="d"
         x="-0.21301439"
         width="1.4260288"
         y="-0.15141701"
         height="1.302834"
         color-interpolation-filters="sRGB">
        <feGaussianBlur
           stdDeviation="18.7"
           id="feGaussianBlur6" />
      </filter>
    </defs>
    <path
       d="M196.6 1.207c-2.5 11.323-4.8 22.703-10.2 33.383-7-10.68-12.6-20.91-16.7-31.988L2.494 4.338C13 104.9 10.86 175.3 1.979 278.3L15.4 295.5l-9.494 6.3L2.6 462.7l1.019 45.9 112.681 3.1c3.6-16.1 6.5-32.5 13.2-47.3 4.5 14.4 5.7 29.4 7 44.4l160 .3c.8-6.1.7-8.1 2.3-14.4 5.1 4.5 7.8 9.5 10.6 14.5.8-10.1 3.9-19.8 7-29.5 4.8 9.2 6.7 19.4 8.8 29.5l185.2.4-4.6-78.2-21.4-8.2 21.3-4.9 5.8-395.47c-7-6.73-13.3-13.744-18-21.465l-15.1.114-2.1 20.321-1.4 47.23.8 84.87-8.6-97.14c9.3-16.86 2.2-39.69 5.7-55.239-92.1 1.696-184.1.685-276.2-.314z"
       overflow="visible"
       color="#000"
       fill="#ebc893"
       fill-rule="evenodd"
       stroke="#e0aa58"
       enable-background="accumulate"
       id="path6" />
    <path
       d="M196.6 1.203c-2.5 11.327-4.8 22.707-10.2 33.387-7-10.68-12.6-20.91-16.7-31.99L2.494 4.336C13 104.9 10.86 175.3 1.979 278.3L15.4 295.5l-9.494 6.3L2.6 462.7l1.019 45.9 112.681 3.1c.5-2.1-7.9-2.3-7.4-4.5L5.244 504.5l-.914-47.3 4.63-153.7 12.42-9-13.093-16.8C16.95 177.3 16.36 104 6.113 5.992l162.687.164c4 10.804 10.3 24.254 17.1 34.664 5.3-10.41 9.5-25.97 12-37.02 89.8.974 173.8 3.521 263.6 1.867 4.6 1.226 10.6.431 11.3-4.149-92.1 1.696-184.1.684-276.2-.315zm296.9.158l-15.1.116-.6 6.277 13.5-2.557c4.6 7.533 9.7 12.383 16.6 18.943l-4.6 389.06-19.9 9.9 4.1-.6 18.2-4.2 5.8-395.47c-7-6.73-13.3-13.748-18-21.469zm9.6 435.739l3.5 69.7-177.7.1c.4 2.1-4.1.2-3.7 2.3l185.2.4-4.6-78.2zm-370 25.1c-1 2.2-2.9.4-3.7 2.6 4.2 14 5.8 29.5 7.1 44l158 .3c1.9-5 .8-9.7 4.3-14.4 5.1 4.5 7.8 9.5 10.6 14.5.8-10.1 3.9-19.8 7-29.5 1.8 3.4 3.2 7 4.3 10.6-1.4-5.6-2.4-8.3-5.1-13.4-3 9.4-6.7 16.2-7.5 26-2.7-4.9-5.4-9.7-10.4-14.1-3.4 4.6-6.2 9.1-8 14l-147.6 3.4c-3.4-14.6-7.1-30.3-9-44z"
       overflow="visible"
       color="#000"
       opacity=".527"
       fill="#c87137"
       fill-rule="evenodd"
       filter="url(#a)"
       enable-background="accumulate"
       id="path7" />
    <path
       d="M200.1 16.1c-2.3 10.67-10.5 21.38-15.6 31.44-6.6-10.06-13.9-19.69-17.7-30.12L17.34 19.05C24.61 113.6 7.605 179.3 16.85 277l18.26 20.1L10.34 309l7.1 141.6.96 43.3 90.2 3.4c3.4-15.2 15-35.6 21.3-49.6 4.3 13.6 15.4 36.7 16.6 50.9l45.1.8 13.8-18.7 14.4 22.2 68.7-8.6c1.8-4.7 4.5-9.1 7.8-13.5 4.8 4.2 7.4 8.9 10 13.6.8-9.5 7.7-19.6 10.6-28.7 4.5 8.6 19.9 28.9 33.1 33.9l114.6 5.6 22.3-14.7 19.4 14.7-14.5-67.6-34.6-14.2 37.5-15.1 2.1-96.9-14.5-21.9 15.2-13.4 5.1-239.63c-5.2-21.09-11.8-24.89-16.9-20.22l-4.2 2.11 2 19.14.7 44.47-7.1 124.23-18.3-137.78c8.8-15.88-3.9-35.38-.6-50.02-67.1 1.24-140.4-13.332-202.8-3.28-14 2.25-23.7 21.31-36.9 24.48-4.3 1.03-13.9-23.45-18.4-23.5z"
       overflow="visible"
       enable-background="accumulate"
       filter="url(#b)"
       fill-rule="evenodd"
       fill="#f6e7d0"
       color="#000"
       id="path8" />
    <path
       d="M354 27.39l-70.3 96.91 46.4 97.6-56.2 43.6 33 74.4-30.2 63.2 69.8 48.8 31.6 29.5 31.6-13.3L365.9 335l55.5-36.5 2.1-146.1-56.9-101.83zM116.6 55.48L89.9 123.6s33.7 65.3 35.8 68.8c2.1 3.6-7 118-7 118l42.8 73.8s9.9-82.9 7.1-83.6c-2.8-.7-29.5-42.1-29.5-42.1l23.8-84.3-36.5-37.2z"
       color="#000"
       overflow="visible"
       fill="#f2dbb9"
       fill-rule="evenodd"
       filter="url(#c)"
       enable-background="accumulate"
       id="path9" />
    <path
       d="M39.33 172.1l-5.62 108.1L74.45 328 42.84 464.9l96.96-39.3 30.2 42.9 74.4-38.7-80.8-169.9-60.4-16.9z"
       color="#000"
       overflow="visible"
       fill="#eed3a4"
       fill-rule="evenodd"
       enable-background="accumulate"
       filter="url(#d)"
       id="path10" />
    <path
       d="M266.9 66.72L324.5 191 434 221.2l21.8-111.6-41.4-68.86z"
       color="#000"
       overflow="visible"
       fill="#eed3a4"
       fill-rule="evenodd"
       enable-background="accumulate"
       filter="url(#e)"
       id="path11" />
  </svg>
  <path
     d="M 255.99999,65.557808 230.99998,165.5578 C 205.99999,153.05781 180.99999,128.0578 156,90.557802 c 0,37.499998 0,74.999998 24.99999,99.999988 -24.99999,13.28126 -50,0 -74.99999,-24.99999 0,24.99999 0,62.49999 37.49999,87.5 -24.99999,12.49999 -50.000003,0 -62.499996,-25.00001 0,37.5 12.499993,75 37.500006,100.00001 -12.5,12.49999 -37.500006,0 -50.000006,-12.50001 0,50.00001 37.500006,87.5 87.500006,112.5 h 59.99999 l 13.04687,-53.59374 -13.43749,-67.26563 -76.48437,3.90625 c 0,0 15.85937,-58.75 27.26562,-81.01562 3.90625,-7.5 5.625,-14.0625 15.625,-14.29688 8.82812,0 15.9375,7.65625 15.9375,17.10938 0,9.37499 -7.10938,17.03124 -15.9375,17.03124 -1.79688,0 -3.59375,-0.39062 -5.15625,-1.01561 l -3.98437,36.56249 c 23.12499,-6.95313 44.45312,-14.6875 65.62499,-24.14063 0,-0.0781 -0.0781,-0.15624 -0.0781,-0.23437 -4.84374,-6.87499 -8.125,-16.79687 -8.125,-27.89063 0,-11.01562 3.20313,-20.93749 8.125,-27.89061 4.76563,-6.95313 11.01563,-10.70313 17.57813,-10.70313 6.64062,0 12.89062,3.75 17.65625,10.70313 4.84375,6.95312 7.96875,16.87499 7.96875,27.89061 0,11.09376 -3.125,21.01564 -7.96875,27.89063 -0.0781,0.23437 -0.39063,0.54687 -0.46875,0.70313 21.32813,9.45312 43.82812,16.09375 65.85937,23.67187 l -3.90625,-36.56249 c -1.71875,0.62499 -3.35938,1.01561 -5.23437,1.01561 -8.75001,0 -15.85938,-7.65625 -15.85938,-17.03124 0,-9.45313 7.10937,-17.10938 15.85938,-17.10938 10,0.23438 11.87499,6.79688 15.62499,14.29688 11.5625,22.26562 27.34375,81.01562 27.34375,81.01562 l -76.48437,-3.90625 -13.43749,67.26563 13.04687,53.59374 h 59.99999 c 50,-25 87.5,-62.49999 87.5,-112.5 -12.5,12.50001 -37.5,25 -50,12.50001 25,-25.00001 37.5,-62.50001 37.5,-100.00001 -12.5,25.00001 -37.5,37.5 -62.49999,25.00001 37.49999,-25.00001 37.49999,-62.50001 37.49999,-87.5 -25,24.99999 -50,37.5 -74.99999,24.99999 24.99999,-24.99999 24.99999,-62.49999 24.99999,-99.999988 -24.99999,37.499998 -49.99999,62.500008 -74.99999,74.999998 z"
     fill="#3e3126"
     fill-opacity="1"
     id="path12"
     style="fill:#005780;fill-opacity:1;stroke-width:0.78125" />
</svg>
