<?xml version="1.0" encoding="UTF-8" standalone="no"?>
<svg
   viewBox="0 0 512 512"
   style="height: 512px; width: 512px;"
   version="1.1"
   id="svg12"
   sodipodi:docname="quen-arcanum.svg"
   inkscape:version="1.4 (e7c3feb1, 2024-10-09)"
   xml:space="preserve"
   xmlns:inkscape="http://www.inkscape.org/namespaces/inkscape"
   xmlns:sodipodi="http://sodipodi.sourceforge.net/DTD/sodipodi-0.dtd"
   xmlns="http://www.w3.org/2000/svg"
   xmlns:svg="http://www.w3.org/2000/svg"><sodipodi:namedview
     id="namedview12"
     pagecolor="#505050"
     bordercolor="#ffffff"
     borderopacity="1"
     inkscape:showpageshadow="0"
     inkscape:pageopacity="0"
     inkscape:pagecheckerboard="1"
     inkscape:deskcolor="#d1d1d1"
     inkscape:zoom="0.89234188"
     inkscape:cx="273.99812"
     inkscape:cy="278.48071"
     inkscape:window-width="1248"
     inkscape:window-height="890"
     inkscape:window-x="433"
     inkscape:window-y="38"
     inkscape:window-maximized="0"
     inkscape:current-layer="svg12" /><defs
     id="defs2"><radialGradient
       id="delapouite-viking-shield-gradient-0"><stop
         offset="0%"
         stop-color="#830000"
         stop-opacity="1"
         id="stop1" /><stop
         offset="100%"
         stop-color="#000"
         stop-opacity="1"
         id="stop2" /></radialGradient></defs><path
     d="M0 0h512v512H0z"
     fill="url(#pattern)"
     id="path2" /><svg
     version="1.1"
     id="svg11"><defs
       id="defs6"><filter
         id="b"
         x="-0.023338979"
         width="1.046678"
         y="-0.023448784"
         height="1.0468976"
         color-interpolation-filters="sRGB"><feGaussianBlur
           stdDeviation="4.823"
           id="feGaussianBlur2" /></filter><filter
         id="a"
         x="-0.012011281"
         width="1.0240226"
         y="-0.011988317"
         height="1.0239766"
         color-interpolation-filters="sRGB"><feGaussianBlur
           stdDeviation="2.55"
           id="feGaussianBlur3" /></filter><filter
         id="c"
         x="-0.11244604"
         width="1.2248921"
         y="-0.082623731"
         height="1.1652475"
         color-interpolation-filters="sRGB"><feGaussianBlur
           stdDeviation="15.63"
           id="feGaussianBlur4" /></filter><filter
         id="e"
         x="-0.23758603"
         width="1.4751721"
         y="-0.24869778"
         height="1.4973956"
         color-interpolation-filters="sRGB"><feGaussianBlur
           stdDeviation="18.7"
           id="feGaussianBlur5" /></filter><filter
         id="d"
         x="-0.21301439"
         width="1.4260288"
         y="-0.15141701"
         height="1.302834"
         color-interpolation-filters="sRGB"><feGaussianBlur
           stdDeviation="18.7"
           id="feGaussianBlur6" /></filter></defs><path
       d="M196.6 1.207c-2.5 11.323-4.8 22.703-10.2 33.383-7-10.68-12.6-20.91-16.7-31.988L2.494 4.338C13 104.9 10.86 175.3 1.979 278.3L15.4 295.5l-9.494 6.3L2.6 462.7l1.019 45.9 112.681 3.1c3.6-16.1 6.5-32.5 13.2-47.3 4.5 14.4 5.7 29.4 7 44.4l160 .3c.8-6.1.7-8.1 2.3-14.4 5.1 4.5 7.8 9.5 10.6 14.5.8-10.1 3.9-19.8 7-29.5 4.8 9.2 6.7 19.4 8.8 29.5l185.2.4-4.6-78.2-21.4-8.2 21.3-4.9 5.8-395.47c-7-6.73-13.3-13.744-18-21.465l-15.1.114-2.1 20.321-1.4 47.23.8 84.87-8.6-97.14c9.3-16.86 2.2-39.69 5.7-55.239-92.1 1.696-184.1.685-276.2-.314z"
       overflow="visible"
       color="#000"
       fill="#ebc893"
       fill-rule="evenodd"
       stroke="#e0aa58"
       enable-background="accumulate"
       id="path6" /><path
       d="M196.6 1.203c-2.5 11.327-4.8 22.707-10.2 33.387-7-10.68-12.6-20.91-16.7-31.99L2.494 4.336C13 104.9 10.86 175.3 1.979 278.3L15.4 295.5l-9.494 6.3L2.6 462.7l1.019 45.9 112.681 3.1c.5-2.1-7.9-2.3-7.4-4.5L5.244 504.5l-.914-47.3 4.63-153.7 12.42-9-13.093-16.8C16.95 177.3 16.36 104 6.113 5.992l162.687.164c4 10.804 10.3 24.254 17.1 34.664 5.3-10.41 9.5-25.97 12-37.02 89.8.974 173.8 3.521 263.6 1.867 4.6 1.226 10.6.431 11.3-4.149-92.1 1.696-184.1.684-276.2-.315zm296.9.158l-15.1.116-.6 6.277 13.5-2.557c4.6 7.533 9.7 12.383 16.6 18.943l-4.6 389.06-19.9 9.9 4.1-.6 18.2-4.2 5.8-395.47c-7-6.73-13.3-13.748-18-21.469zm9.6 435.739l3.5 69.7-177.7.1c.4 2.1-4.1.2-3.7 2.3l185.2.4-4.6-78.2zm-370 25.1c-1 2.2-2.9.4-3.7 2.6 4.2 14 5.8 29.5 7.1 44l158 .3c1.9-5 .8-9.7 4.3-14.4 5.1 4.5 7.8 9.5 10.6 14.5.8-10.1 3.9-19.8 7-29.5 1.8 3.4 3.2 7 4.3 10.6-1.4-5.6-2.4-8.3-5.1-13.4-3 9.4-6.7 16.2-7.5 26-2.7-4.9-5.4-9.7-10.4-14.1-3.4 4.6-6.2 9.1-8 14l-147.6 3.4c-3.4-14.6-7.1-30.3-9-44z"
       overflow="visible"
       color="#000"
       opacity=".527"
       fill="#c87137"
       fill-rule="evenodd"
       filter="url(#a)"
       enable-background="accumulate"
       id="path7" /><path
       d="M200.1 16.1c-2.3 10.67-10.5 21.38-15.6 31.44-6.6-10.06-13.9-19.69-17.7-30.12L17.34 19.05C24.61 113.6 7.605 179.3 16.85 277l18.26 20.1L10.34 309l7.1 141.6.96 43.3 90.2 3.4c3.4-15.2 15-35.6 21.3-49.6 4.3 13.6 15.4 36.7 16.6 50.9l45.1.8 13.8-18.7 14.4 22.2 68.7-8.6c1.8-4.7 4.5-9.1 7.8-13.5 4.8 4.2 7.4 8.9 10 13.6.8-9.5 7.7-19.6 10.6-28.7 4.5 8.6 19.9 28.9 33.1 33.9l114.6 5.6 22.3-14.7 19.4 14.7-14.5-67.6-34.6-14.2 37.5-15.1 2.1-96.9-14.5-21.9 15.2-13.4 5.1-239.63c-5.2-21.09-11.8-24.89-16.9-20.22l-4.2 2.11 2 19.14.7 44.47-7.1 124.23-18.3-137.78c8.8-15.88-3.9-35.38-.6-50.02-67.1 1.24-140.4-13.332-202.8-3.28-14 2.25-23.7 21.31-36.9 24.48-4.3 1.03-13.9-23.45-18.4-23.5z"
       overflow="visible"
       enable-background="accumulate"
       filter="url(#b)"
       fill-rule="evenodd"
       fill="#f6e7d0"
       color="#000"
       id="path8" /><path
       d="M354 27.39l-70.3 96.91 46.4 97.6-56.2 43.6 33 74.4-30.2 63.2 69.8 48.8 31.6 29.5 31.6-13.3L365.9 335l55.5-36.5 2.1-146.1-56.9-101.83zM116.6 55.48L89.9 123.6s33.7 65.3 35.8 68.8c2.1 3.6-7 118-7 118l42.8 73.8s9.9-82.9 7.1-83.6c-2.8-.7-29.5-42.1-29.5-42.1l23.8-84.3-36.5-37.2z"
       color="#000"
       overflow="visible"
       fill="#f2dbb9"
       fill-rule="evenodd"
       filter="url(#c)"
       enable-background="accumulate"
       id="path9" /><path
       d="M39.33 172.1l-5.62 108.1L74.45 328 42.84 464.9l96.96-39.3 30.2 42.9 74.4-38.7-80.8-169.9-60.4-16.9z"
       color="#000"
       overflow="visible"
       fill="#eed3a4"
       fill-rule="evenodd"
       enable-background="accumulate"
       filter="url(#d)"
       id="path10" /><path
       d="M266.9 66.72L324.5 191 434 221.2l21.8-111.6-41.4-68.86z"
       color="#000"
       overflow="visible"
       fill="#eed3a4"
       fill-rule="evenodd"
       enable-background="accumulate"
       filter="url(#e)"
       id="path11" /></svg><path
     style="fill:#005780;fill-opacity:1;stroke-width:0.612827"
     d="m 252.25914,429.45122 c -7.68801,-1.32156 -12.75201,-5.00878 -17.18112,-12.50957 -1.22374,-2.07262 -2.36515,-4.0577 -2.53629,-4.41126 -0.17123,-0.35356 -0.67479,-1.19428 -1.11903,-1.86839 -0.4443,-0.67413 -0.93735,-1.49701 -1.09569,-1.82859 -0.15835,-0.33167 -1.59507,-2.81359 -3.19274,-5.51547 -1.59759,-2.70196 -3.03481,-5.18825 -3.19384,-5.52531 -0.15892,-0.33707 -0.65265,-1.16439 -1.09704,-1.83852 -0.44448,-0.67412 -0.93761,-1.49699 -1.09596,-1.82858 -0.15834,-0.33159 -1.59506,-2.81359 -3.19274,-5.51546 -1.59764,-2.70188 -3.03484,-5.18825 -3.19381,-5.52532 -0.15897,-0.33706 -0.65267,-1.16439 -1.09709,-1.83852 -0.44449,-0.67411 -0.93763,-1.49699 -1.09599,-1.82857 -0.15835,-0.3316 -1.59506,-2.81359 -3.1927,-5.51547 -1.59765,-2.70187 -3.03484,-5.18825 -3.19381,-5.52532 -0.15897,-0.33706 -0.65266,-1.16439 -1.09709,-1.83851 -0.44448,-0.67412 -0.93762,-1.497 -1.09598,-1.82858 -0.15836,-0.33159 -1.59507,-2.81359 -3.1927,-5.51547 -1.59766,-2.70187 -3.03485,-5.18825 -3.19382,-5.52531 -0.15897,-0.33706 -0.65266,-1.16439 -1.09708,-1.83852 -0.44449,-0.67404 -0.93763,-1.49699 -1.09599,-1.82859 -0.15835,-0.33158 -1.59506,-2.81358 -3.19271,-5.51545 -1.59764,-2.70189 -3.03485,-5.18825 -3.19381,-5.52532 -0.15897,-0.33706 -0.65267,-1.16439 -1.09709,-1.83852 -0.44448,-0.67403 -0.93762,-1.49699 -1.09598,-1.82858 -0.15835,-0.33158 -1.59506,-2.81358 -3.19271,-5.51546 -1.59764,-2.70188 -3.03485,-5.18826 -3.19382,-5.52532 -0.15897,-0.33706 -0.65266,-1.16438 -1.09708,-1.83842 -0.44448,-0.67413 -0.93762,-1.49708 -1.09597,-1.82868 -0.15837,-0.33158 -1.59508,-2.8135 -3.19272,-5.51545 -1.59763,-2.70189 -3.03485,-5.18826 -3.19382,-5.52532 -0.15896,-0.33706 -0.65266,-1.16431 -1.09707,-1.83843 -0.44449,-0.67413 -0.93763,-1.49708 -1.09599,-1.82867 -0.15836,-0.33159 -1.59507,-2.81351 -3.19271,-5.51546 -1.59764,-2.70189 -3.03484,-5.18826 -3.19381,-5.52532 -0.15897,-0.33706 -0.65266,-1.16431 -1.09708,-1.83842 -0.44449,-0.67413 -0.93764,-1.49701 -1.09599,-1.82868 -0.15835,-0.33158 -1.59507,-2.8135 -3.1927,-5.51538 -1.59765,-2.70197 -3.03485,-5.18834 -3.19382,-5.52532 -0.15897,-0.33705 -0.65266,-1.1644 -1.09709,-1.83851 -0.44448,-0.67413 -0.93763,-1.49699 -1.09598,-1.82868 -0.15835,-0.33158 -1.59507,-2.8135 -3.19271,-5.51537 -1.59764,-2.70197 -3.03485,-5.18825 -3.19382,-5.52531 -0.15896,-0.33707 -0.65265,-1.1644 -1.09708,-1.83852 -0.44449,-0.67413 -0.93762,-1.497 -1.09598,-1.82858 -0.15835,-0.33167 -1.59507,-2.81359 -3.19271,-5.51547 -1.59763,-2.70188 -3.03485,-5.18825 -3.19381,-5.52531 -0.15897,-0.33707 -0.65266,-1.1644 -1.09708,-1.83851 -0.44449,-0.67413 -0.93763,-1.49701 -1.09598,-1.82859 -0.15836,-0.33159 -1.59507,-2.81359 -3.19272,-5.51547 -1.59763,-2.70187 -3.03484,-5.18825 -3.19381,-5.5253 -0.15896,-0.33707 -0.65266,-1.1644 -1.09708,-1.83852 -0.44449,-0.67413 -0.93763,-1.497 -1.09599,-1.82858 -0.15835,-0.3316 -1.59506,-2.8136 -3.1927,-5.51547 -1.59765,-2.70188 -3.03484,-5.18825 -3.19381,-5.52531 -0.15897,-0.33707 -0.65266,-1.1644 -1.09709,-1.83853 -0.44448,-0.67411 -0.93763,-1.4969 -1.09598,-1.82857 -0.15835,-0.33159 -1.59506,-2.81359 -3.1927,-5.51547 -1.59766,-2.7018 -3.03485,-5.18825 -3.19382,-5.52532 -0.15897,-0.33706 -0.65266,-1.16439 -1.09709,-1.83851 -0.44447,-0.67404 -0.93762,-1.4969 -1.09598,-1.82858 -0.15835,-0.33159 -1.59506,-2.81359 -3.19271,-5.51546 -1.59764,-2.7018 -3.03485,-5.18825 -3.19382,-5.52532 -0.15896,-0.33706 -0.65266,-1.16439 -1.09708,-1.83843 -0.44448,-0.67413 -0.93762,-1.49699 -1.09598,-1.82866 -0.15835,-0.3316 -1.59507,-2.8136 -3.192712,-5.51547 -1.59763,-2.7018 -3.03485,-5.18825 -3.19382,-5.52532 -0.15896,-0.33706 -0.65266,-1.16439 -1.09707,-1.83843 -0.44449,-0.67412 -0.93763,-1.49699 -1.09598,-1.82867 -0.15837,-0.33158 -1.59508,-2.8135 -3.19272,-5.51546 -1.59763,-2.70179 -3.03484,-5.18825 -3.19381,-5.52532 -0.15897,-0.33705 -0.65266,-1.1643 -1.09708,-1.83842 -0.44449,-0.67413 -0.93763,-1.49699 -1.09599,-1.82868 -0.15836,-0.33158 -1.59507,-2.8135 -3.1927,-5.51545 -1.59765,-2.7018 -3.034857,-5.18826 -3.193825,-5.52532 -0.158967,-0.33698 -0.652656,-1.16431 -1.097082,-1.83843 -0.444484,-0.67413 -0.938855,-1.50145 -1.098614,-1.83851 -0.159768,-0.33707 -1.035924,-1.89972 -1.947018,-3.47273 -3.012354,-5.20062 -3.68199,-8.06311 -3.352716,-14.33116 0.211725,-4.02984 0.385895,-4.67399 2.477233,-9.16051 1.367648,-2.93404 6.876482,-8.23131 10.147562,-9.75794 5.76022,-2.68832 -7.362387,-2.49849 172.719282,-2.49849 178.85909,0 167.05453,-0.15827 172.32477,2.31077 4.23903,1.98592 8.6199,6.0693 10.62552,9.90408 3.2701,6.2523 3.47499,15.00117 0.48951,20.90706 -0.85048,1.68243 -2.58798,4.7931 -3.29258,5.8946 -0.43117,0.67413 -0.91403,1.50146 -1.07297,1.83852 -0.15893,0.33706 -1.59616,2.82343 -3.19375,5.52532 -1.59768,2.70195 -3.03439,5.18387 -3.19274,5.51546 -0.15834,0.33159 -0.65156,1.15446 -1.09595,1.82858 -0.44448,0.67413 -0.93618,1.50146 -1.09267,1.83852 -0.15649,0.33705 -1.04098,1.89971 -1.96555,3.47263 -0.92447,1.57302 -1.81174,3.13567 -1.97143,3.47273 -0.15978,0.33706 -0.65426,1.1644 -1.09865,1.83852 -0.44448,0.67413 -0.9382,1.50146 -1.09705,1.83851 -0.33478,0.7099 -6.05776,10.52685 -6.66883,11.43939 -0.22569,0.33705 -0.53674,0.88415 -0.69113,1.21573 -0.15447,0.33167 -1.58799,2.81359 -3.18558,5.51547 -1.59768,2.70196 -3.0349,5.18825 -3.19384,5.52532 -0.15901,0.33706 -0.65265,1.16439 -1.09713,1.83851 -0.44448,0.67412 -0.93609,1.50145 -1.09258,1.83852 -0.1565,0.33706 -1.07777,1.96091 -2.04728,3.60859 -0.96953,1.64768 -1.76277,3.06326 -1.76277,3.14576 0,0.0825 -0.55155,0.96732 -1.22558,1.96613 -0.67413,0.9989 -1.22568,1.91471 -1.22568,2.03526 0,0.12054 -1.34329,2.48839 -2.98506,5.26182 -1.64171,2.77351 -3.11454,5.31394 -3.27288,5.64552 -0.15836,0.33168 -0.65157,1.15455 -1.09604,1.82868 -0.44448,0.67411 -0.93871,1.50137 -1.0984,1.83842 -0.33917,0.71605 -4.84538,8.49607 -5.44256,9.39673 -0.22351,0.33705 -0.59289,0.98054 -0.82085,1.4299 -0.22805,0.44944 -0.96236,1.7364 -1.63202,2.85989 -0.66966,1.12347 -1.81234,3.10047 -2.53941,4.39323 l -1.3219,2.35051 -60.8814,-0.10345 -60.88132,-0.10346 v -23.08323 -23.08314 l 47.50763,-0.10379 c 44.77124,-0.0978 47.52329,-0.14497 47.77869,-0.81716 0.14908,-0.39228 1.57823,-2.92386 3.17582,-5.62582 1.59768,-2.70188 3.0344,-5.18379 3.19274,-5.51547 0.15834,-0.33158 0.65147,-1.15437 1.09595,-1.8285 0.44448,-0.67411 0.93753,-1.50145 1.09562,-1.83851 0.32545,-0.69356 7.26214,-12.53945 7.89493,-13.4822 0.22627,-0.33706 0.53884,-0.88718 0.69474,-1.22248 0.31408,-0.67598 7.23774,-12.51462 7.8866,-13.4854 0.75325,-1.12685 0.90209,-1.62982 0.6652,-2.24705 -0.20826,-0.54279 -14.05169,-0.61284 -121.19214,-0.61284 -107.14045,0 -120.98386,0.0699 -121.19216,0.61284 -0.25867,0.67413 -0.11919,1.04419 1.07791,2.85989 0.44441,0.67413 0.93811,1.50146 1.09708,1.83852 0.33478,0.7099 6.05774,10.52685 6.66879,11.43937 0.2257,0.33707 0.53671,0.88416 0.69114,1.21583 0.15443,0.33159 1.58796,2.81351 3.1856,5.51538 1.59765,2.70197 3.03485,5.18834 3.19382,5.52531 0.1589,0.33707 0.6526,1.1644 1.09708,1.83853 0.44443,0.67411 0.93763,1.49699 1.09598,1.82857 0.15836,0.33167 1.59507,2.81359 3.19272,5.51547 1.59763,2.70196 3.03485,5.18825 3.19381,5.52532 0.15891,0.33706 0.6526,1.16439 1.09708,1.83851 0.44443,0.67412 0.93763,1.49699 1.09598,1.82858 0.15836,0.33168 1.63117,2.8721 3.27293,5.64561 1.64177,2.77343 2.98502,5.14127 2.98502,5.26182 0,0.12055 0.55154,1.03645 1.22566,2.03526 0.67412,0.99881 1.22565,1.88363 1.22565,1.96613 0,0.0825 0.79325,1.49809 1.76275,3.14577 0.96949,1.64767 1.89075,3.27152 2.04726,3.60858 0.15647,0.33707 0.64813,1.1644 1.09262,1.83853 0.44442,0.67411 0.9383,1.49858 1.09739,1.8322 0.15909,0.33361 1.59924,2.81561 3.20031,5.51546 1.60114,2.69986 3.03767,5.18463 3.1924,5.5217 0.15475,0.33706 0.64501,1.16439 1.08949,1.83851 0.44443,0.67412 0.93763,1.49691 1.09598,1.8285 0.15835,0.33159 1.59507,2.81358 3.19272,5.51547 1.59763,2.70187 3.03484,5.18832 3.1938,5.52539 0.1589,0.33706 0.65261,1.16439 1.09709,1.83852 0.44443,0.67404 0.93811,1.50137 1.09708,1.83843 0.33479,0.7099 6.05775,10.52694 6.6688,11.43946 0.2257,0.33705 0.53672,0.88415 0.69114,1.21574 0.15444,0.3316 1.58796,2.81358 3.1856,5.51547 1.59765,2.70187 3.03485,5.18825 3.19382,5.52531 0.1589,0.33706 0.6526,1.1644 1.09709,1.83851 0.44442,0.67413 0.93762,1.49699 1.09597,1.82859 0.15836,0.33159 1.59507,2.81359 3.19272,5.51548 1.59763,2.70187 3.03485,5.18825 3.1938,5.52531 0.15892,0.33705 0.65261,1.16439 1.09709,1.83851 0.44443,0.67404 0.93763,1.49699 1.09598,1.82859 0.15836,0.33158 1.59511,2.81358 3.1927,5.51546 1.59768,2.70188 3.03489,5.18825 3.19383,5.52531 0.15893,0.33706 0.65257,1.1644 1.09705,1.83844 0.44447,0.67411 0.93693,1.50144 1.09426,1.83851 0.15742,0.33706 1.07871,1.92304 2.0473,3.52442 0.96858,1.60137 1.76107,3.0577 1.76107,3.23633 0,0.17847 0.2522,0.61478 0.56048,0.9696 0.30826,0.35474 1.15917,1.74811 1.89087,3.09628 0.7317,1.34824 1.58252,2.7416 1.89079,3.09634 0.30827,0.35474 0.56048,0.75325 0.56048,0.88551 0,0.13224 0.79323,1.5885 1.76276,3.23617 0.96951,1.64776 1.89079,3.27162 2.04728,3.60868 0.15649,0.33705 0.6481,1.1643 1.09258,1.83843 0.44448,0.67412 0.9377,1.49699 1.09604,1.82858 0.15834,0.33159 1.59507,2.81359 3.19265,5.51546 1.59768,2.70188 3.03491,5.18834 3.19384,5.5254 0.15894,0.33698 0.65249,1.16431 1.0968,1.83844 0.44431,0.67412 0.94787,1.50995 1.11902,1.85746 1.6571,3.36454 5.74704,9.77991 6.23521,9.78032 0.34135,3.4e-4 1.51779,-1.57267 2.65557,-3.5505 1.12357,-1.95308 2.54589,-4.38794 3.16092,-5.41066 0.61495,-1.02271 1.24917,-2.13534 1.40928,-2.47232 0.1602,-0.33706 1.32097,-2.35943 2.57948,-4.49409 1.25851,-2.13475 2.41877,-4.15704 2.57855,-4.49409 0.1597,-0.33706 0.65392,-1.1644 1.09839,-1.83852 0.4444,-0.67413 0.93812,-1.50138 1.09705,-1.83844 0.3348,-0.7099 6.05776,-10.52693 6.66884,-11.43946 0.22569,-0.33706 0.53724,-0.88862 0.69222,-1.22567 0.15506,-0.33698 1.62469,-2.88355 3.26589,-5.659 1.64111,-2.77536 2.98388,-5.10684 2.98388,-5.18101 0,-0.0741 1.34329,-2.40405 2.98498,-5.17756 1.64179,-2.77343 3.11462,-5.31394 3.27296,-5.64552 0.15836,-0.33159 0.6514,-1.15455 1.09571,-1.82867 0.44431,-0.67412 0.94787,-1.50567 1.11902,-1.84787 0.86025,-1.71989 3.16681,-5.59155 3.70633,-6.22098 0.57183,-0.66721 2.37895,-0.71495 27.08124,-0.71495 14.95006,0 26.5658,0.15759 26.69232,0.36223 0.12307,0.19926 -0.0497,0.58944 -0.38453,0.86715 -0.33454,0.27763 -0.6083,0.66647 -0.6083,0.86413 0,0.19757 -1.34261,2.6139 -2.98363,5.36957 -1.64103,2.75559 -3.11378,5.28312 -3.27287,5.61682 -0.15911,0.33361 -0.653,1.15807 -1.09739,1.8322 -0.44448,0.67413 -0.93821,1.50146 -1.09714,1.83852 -0.15894,0.33706 -1.59615,2.82343 -3.19375,5.52532 -1.59767,2.70195 -3.03439,5.18387 -3.19273,5.51545 -0.15835,0.3316 -0.65156,1.15447 -1.09596,1.82859 -0.44448,0.67413 -0.93769,1.49699 -1.09604,1.82858 -0.15834,0.3316 -1.59507,2.81358 -3.19265,5.51547 -1.59768,2.70188 -3.0349,5.18825 -3.19383,5.52531 -0.15903,0.33706 -0.65266,1.1644 -1.09714,1.83851 -0.44447,0.67413 -0.93879,1.50003 -1.09848,1.83532 -0.33462,0.70207 -7.27838,12.56463 -7.89375,13.4854 -0.22535,0.33698 -0.53716,0.88718 -0.69298,1.2224 -0.15581,0.33529 -1.86444,3.27835 -3.79699,6.54003 -1.93246,3.26176 -3.64428,6.20482 -3.80405,6.54012 -0.15978,0.33521 -0.65409,1.16111 -1.09857,1.83523 -0.44448,0.67412 -0.93811,1.50145 -1.09705,1.83851 -0.15902,0.33707 -1.59616,2.82345 -3.19383,5.52532 -1.59768,2.70188 -3.03431,5.18387 -3.19274,5.51547 -0.15835,0.33158 -0.65156,1.15446 -1.09596,1.82857 -0.44447,0.67413 -0.93819,1.50146 -1.09704,1.83852 -0.15902,0.33707 -1.59616,2.82344 -3.19384,5.52532 -1.59767,2.70187 -3.03439,5.18387 -3.19274,5.51546 -0.15834,0.33159 -0.65156,1.15446 -1.09595,1.82858 -0.44448,0.67413 -0.93819,1.50145 -1.09705,1.83852 -0.15901,0.33706 -1.63185,2.88354 -3.27296,5.65891 -1.64119,2.77545 -2.98397,5.1103 -2.98397,5.18859 0,0.0783 -0.55147,0.95966 -1.22559,1.95847 -0.67413,0.99881 -1.22568,1.93095 -1.22568,2.07136 0,0.14042 -0.49954,1.03299 -1.1101,1.98348 -0.61048,0.95057 -1.45886,2.36431 -1.88515,3.14172 -3.41691,6.23075 -9.98245,10.81164 -16.68066,11.63839 -1.19992,0.14815 -2.64127,0.33116 -3.20301,0.40693 -0.56174,0.0757 -2.40025,-0.0995 -4.08548,-0.38926 z"
     id="path4"
     sodipodi:nodetypes="ssssssssssssssssssssssssssssssssssssssssssssssssssssssssssssssssssssssssssssssssssssssssssssssssssssssssssssssssscccccsssssssssssssssssssssssssssssssssssssssssssssssssssssssssssssssssssssssssssssssssssssssssssssssssssssssssssssssssssssssscsss" /></svg>
