<?xml version="1.0" encoding="UTF-8" standalone="no"?>
<svg
   viewBox="0 0 512 512"
   style="height: 512px; width: 512px;"
   version="1.1"
   id="svg12"
   sodipodi:docname="igni-arcanum.svg"
   inkscape:version="1.4 (e7c3feb1, 2024-10-09)"
   xml:space="preserve"
   xmlns:inkscape="http://www.inkscape.org/namespaces/inkscape"
   xmlns:sodipodi="http://sodipodi.sourceforge.net/DTD/sodipodi-0.dtd"
   xmlns="http://www.w3.org/2000/svg"
   xmlns:svg="http://www.w3.org/2000/svg"><sodipodi:namedview
     id="namedview12"
     pagecolor="#505050"
     bordercolor="#ffffff"
     borderopacity="1"
     inkscape:showpageshadow="0"
     inkscape:pageopacity="0"
     inkscape:pagecheckerboard="1"
     inkscape:deskcolor="#d1d1d1"
     inkscape:zoom="0.47856668"
     inkscape:cx="406.42195"
     inkscape:cy="494.18401"
     inkscape:window-width="1248"
     inkscape:window-height="878"
     inkscape:window-x="480"
     inkscape:window-y="38"
     inkscape:window-maximized="0"
     inkscape:current-layer="svg12" /><defs
     id="defs2"><radialGradient
       id="delapouite-viking-shield-gradient-0"><stop
         offset="0%"
         stop-color="#830000"
         stop-opacity="1"
         id="stop1" /><stop
         offset="100%"
         stop-color="#000"
         stop-opacity="1"
         id="stop2" /></radialGradient></defs><path
     d="M0 0h512v512H0z"
     fill="url(#pattern)"
     id="path2" /><svg
     version="1.1"
     id="svg11"><defs
       id="defs6"><filter
         id="b"
         x="-0.023338979"
         width="1.046678"
         y="-0.023448784"
         height="1.0468976"
         color-interpolation-filters="sRGB"><feGaussianBlur
           stdDeviation="4.823"
           id="feGaussianBlur2" /></filter><filter
         id="a"
         x="-0.012011281"
         width="1.0240226"
         y="-0.011988317"
         height="1.0239766"
         color-interpolation-filters="sRGB"><feGaussianBlur
           stdDeviation="2.55"
           id="feGaussianBlur3" /></filter><filter
         id="c"
         x="-0.11244604"
         width="1.2248921"
         y="-0.082623731"
         height="1.1652475"
         color-interpolation-filters="sRGB"><feGaussianBlur
           stdDeviation="15.63"
           id="feGaussianBlur4" /></filter><filter
         id="e"
         x="-0.23758603"
         width="1.4751721"
         y="-0.24869778"
         height="1.4973956"
         color-interpolation-filters="sRGB"><feGaussianBlur
           stdDeviation="18.7"
           id="feGaussianBlur5" /></filter><filter
         id="d"
         x="-0.21301439"
         width="1.4260288"
         y="-0.15141701"
         height="1.302834"
         color-interpolation-filters="sRGB"><feGaussianBlur
           stdDeviation="18.7"
           id="feGaussianBlur6" /></filter></defs><path
       d="M 196.6,0.99585981 C 194.1,12.31886 191.8,23.69886 186.4,34.37886 c -7,-10.68 -12.6,-20.91 -16.7,-31.9880002 l -167.206,1.736 C 13,104.68886 10.86,175.08886 1.979,278.08886 l 13.421,17.2 -9.494,6.3 -3.306,160.9 1.019,45.9 112.681,3.1 c 3.6,-16.1 6.5,-32.5 13.2,-47.3 4.5,14.4 5.7,29.4 7,44.4 l 160,0.3 c 0.8,-6.1 0.7,-8.1 2.3,-14.4 5.1,4.5 7.8,9.5 10.6,14.5 0.8,-10.1 3.9,-19.8 7,-29.5 4.8,9.2 6.7,19.4 8.8,29.5 l 185.2,0.4 -4.6,-78.2 -21.4,-8.2 21.3,-4.9 5.8,-395.47 c -7,-6.73 -13.3,-13.7440002 -18,-21.4650002 l -15.1,0.114 -2.1,20.3210002 -1.4,47.23 0.8,84.87 -8.6,-97.14 c 9.3,-16.86 2.2,-39.69 5.7,-55.2390002 -92.1,1.696 -184.1,0.685 -276.2,-0.31399999 z"
       overflow="visible"
       color="#000000"
       fill="#ebc893"
       fill-rule="evenodd"
       stroke="#e0aa58"
       enable-background="accumulate"
       id="path6" /><path
       d="M196.6 1.203c-2.5 11.327-4.8 22.707-10.2 33.387-7-10.68-12.6-20.91-16.7-31.99L2.494 4.336C13 104.9 10.86 175.3 1.979 278.3L15.4 295.5l-9.494 6.3L2.6 462.7l1.019 45.9 112.681 3.1c.5-2.1-7.9-2.3-7.4-4.5L5.244 504.5l-.914-47.3 4.63-153.7 12.42-9-13.093-16.8C16.95 177.3 16.36 104 6.113 5.992l162.687.164c4 10.804 10.3 24.254 17.1 34.664 5.3-10.41 9.5-25.97 12-37.02 89.8.974 173.8 3.521 263.6 1.867 4.6 1.226 10.6.431 11.3-4.149-92.1 1.696-184.1.684-276.2-.315zm296.9.158l-15.1.116-.6 6.277 13.5-2.557c4.6 7.533 9.7 12.383 16.6 18.943l-4.6 389.06-19.9 9.9 4.1-.6 18.2-4.2 5.8-395.47c-7-6.73-13.3-13.748-18-21.469zm9.6 435.739l3.5 69.7-177.7.1c.4 2.1-4.1.2-3.7 2.3l185.2.4-4.6-78.2zm-370 25.1c-1 2.2-2.9.4-3.7 2.6 4.2 14 5.8 29.5 7.1 44l158 .3c1.9-5 .8-9.7 4.3-14.4 5.1 4.5 7.8 9.5 10.6 14.5.8-10.1 3.9-19.8 7-29.5 1.8 3.4 3.2 7 4.3 10.6-1.4-5.6-2.4-8.3-5.1-13.4-3 9.4-6.7 16.2-7.5 26-2.7-4.9-5.4-9.7-10.4-14.1-3.4 4.6-6.2 9.1-8 14l-147.6 3.4c-3.4-14.6-7.1-30.3-9-44z"
       overflow="visible"
       color="#000"
       opacity=".527"
       fill="#c87137"
       fill-rule="evenodd"
       filter="url(#a)"
       enable-background="accumulate"
       id="path7" /><path
       d="M200.1 16.1c-2.3 10.67-10.5 21.38-15.6 31.44-6.6-10.06-13.9-19.69-17.7-30.12L17.34 19.05C24.61 113.6 7.605 179.3 16.85 277l18.26 20.1L10.34 309l7.1 141.6.96 43.3 90.2 3.4c3.4-15.2 15-35.6 21.3-49.6 4.3 13.6 15.4 36.7 16.6 50.9l45.1.8 13.8-18.7 14.4 22.2 68.7-8.6c1.8-4.7 4.5-9.1 7.8-13.5 4.8 4.2 7.4 8.9 10 13.6.8-9.5 7.7-19.6 10.6-28.7 4.5 8.6 19.9 28.9 33.1 33.9l114.6 5.6 22.3-14.7 19.4 14.7-14.5-67.6-34.6-14.2 37.5-15.1 2.1-96.9-14.5-21.9 15.2-13.4 5.1-239.63c-5.2-21.09-11.8-24.89-16.9-20.22l-4.2 2.11 2 19.14.7 44.47-7.1 124.23-18.3-137.78c8.8-15.88-3.9-35.38-.6-50.02-67.1 1.24-140.4-13.332-202.8-3.28-14 2.25-23.7 21.31-36.9 24.48-4.3 1.03-13.9-23.45-18.4-23.5z"
       overflow="visible"
       enable-background="accumulate"
       filter="url(#b)"
       fill-rule="evenodd"
       fill="#f6e7d0"
       color="#000"
       id="path8" /><path
       d="M354 27.39l-70.3 96.91 46.4 97.6-56.2 43.6 33 74.4-30.2 63.2 69.8 48.8 31.6 29.5 31.6-13.3L365.9 335l55.5-36.5 2.1-146.1-56.9-101.83zM116.6 55.48L89.9 123.6s33.7 65.3 35.8 68.8c2.1 3.6-7 118-7 118l42.8 73.8s9.9-82.9 7.1-83.6c-2.8-.7-29.5-42.1-29.5-42.1l23.8-84.3-36.5-37.2z"
       color="#000"
       overflow="visible"
       fill="#f2dbb9"
       fill-rule="evenodd"
       filter="url(#c)"
       enable-background="accumulate"
       id="path9" /><path
       d="M39.33 172.1l-5.62 108.1L74.45 328 42.84 464.9l96.96-39.3 30.2 42.9 74.4-38.7-80.8-169.9-60.4-16.9z"
       color="#000"
       overflow="visible"
       fill="#eed3a4"
       fill-rule="evenodd"
       enable-background="accumulate"
       filter="url(#d)"
       id="path10" /><path
       d="M266.9 66.72L324.5 191 434 221.2l21.8-111.6-41.4-68.86z"
       color="#000"
       overflow="visible"
       fill="#eed3a4"
       fill-rule="evenodd"
       enable-background="accumulate"
       filter="url(#e)"
       id="path11" /></svg><path
     style="fill:#005780;fill-opacity:1;stroke-width:0.61298"
     d="m 89.869897,406.56093 c -6.64624,-1.32384 -13.073895,-6.09472 -15.986715,-11.86602 -1.783536,-3.53379 -2.429122,-6.40053 -2.429122,-10.78688 0,-5.34128 0.805697,-8.04728 4.011094,-13.47166 1.22823,-2.07853 2.233149,-3.83541 2.233149,-3.9042 0,-0.069 1.930889,-3.37878 4.290864,-7.35565 2.35997,-3.97677 4.29086,-7.28684 4.29086,-7.35572 0,-0.069 1.9309,-3.37894 4.29087,-7.35573 2.35997,-3.97686 4.29086,-7.28693 4.29086,-7.35581 0,-0.069 1.93089,-3.37894 4.29087,-7.35573 2.359973,-3.97686 4.290863,-7.28693 4.290863,-7.35581 0,-0.069 1.93088,-3.37894 4.29086,-7.35573 2.35998,-3.97686 4.29086,-7.28693 4.29086,-7.35581 0,-0.069 1.93089,-3.37894 4.29087,-7.35573 2.35997,-3.97686 4.29086,-7.28693 4.29086,-7.3558 0,-0.0691 1.9309,-3.37887 4.29086,-7.35574 2.35998,-3.97686 4.29086,-7.28693 4.29086,-7.35573 0,-0.069 1.9309,-3.37894 4.29088,-7.3558 2.35996,-3.97687 4.29086,-7.28694 4.29086,-7.35574 0,-0.069 1.93088,-3.37894 4.29086,-7.3558 2.35997,-3.97679 4.29085,-7.28694 4.29085,-7.35573 0,-0.0691 1.9309,-3.37895 4.29088,-7.35581 2.35996,-3.97679 4.29086,-7.28693 4.29086,-7.35573 0,-0.0691 1.93087,-3.37895 4.29085,-7.35581 2.35998,-3.97679 4.29086,-7.28693 4.29086,-7.35573 0,-0.0691 1.93089,-3.37895 4.29086,-7.35581 2.35998,-3.97679 4.29087,-7.28685 4.29087,-7.35573 0,-0.0691 1.93089,-3.37895 4.29086,-7.35572 2.35998,-3.97687 4.29086,-7.28694 4.29086,-7.35582 0,-0.0691 1.9309,-3.37895 4.29087,-7.35572 2.35997,-3.97687 4.29087,-7.28694 4.29087,-7.35582 0,-0.0691 1.93088,-3.37895 4.29086,-7.35572 2.35998,-3.97687 4.29086,-7.28399 4.29086,-7.34916 0,-0.0648 1.37921,-2.44843 3.0649,-5.29606 1.6857,-2.84772 3.06491,-5.24774 3.06491,-5.33345 0,-0.0857 0.55168,-0.97329 1.22596,-1.97243 0.67428,-0.99906 1.22596,-1.91206 1.22596,-2.02893 0,-0.1168 1.93088,-3.46619 4.29086,-7.44305 2.35998,-3.97686 4.29086,-7.28693 4.29086,-7.35573 0,-0.069 1.9309,-3.37895 4.29086,-7.35581 2.35998,-3.97686 4.29087,-7.28508 4.29087,-7.35159 0,-0.0666 1.67337,-2.94295 3.71864,-6.39188 2.04522,-3.449 4.18005,-7.09849 4.74404,-8.10991 3.2686,-5.861818 6.26308,-10.577888 7.82653,-12.326358 5.00022,-5.59168 13.42808,-8.49894 20.69399,-7.13848 8.45397,1.58291 13.288,5.30305 17.87947,13.75938 0.79792,1.46958 2.02063,3.63837 2.71709,4.819648 0.69653,1.18127 1.26636,2.42544 1.26636,2.76485 0,0.62841 -1.25176,3.00855 -4.27731,8.133 -0.92898,1.57332 -1.8197,3.13645 -1.97956,3.47359 -0.15981,0.33715 -0.6543,1.16461 -1.09889,1.83889 -0.44453,0.67429 -0.93633,1.50182 -1.09288,1.83897 -0.15656,0.33715 -1.04121,1.9002 -1.96602,3.47359 -0.9248,1.57332 -1.81215,3.13645 -1.97202,3.47351 -0.1598,0.33714 -0.6543,1.16468 -1.09889,1.83897 -0.44453,0.67429 -0.93553,1.50183 -1.09111,1.83898 -0.15557,0.33714 -1.35291,2.423 -2.66076,4.63532 -1.30785,2.21233 -2.37793,4.0822 -2.37793,4.15538 0,0.0733 -1.06665,1.94094 -2.37033,4.15074 -1.3037,2.20971 -2.50103,4.29346 -2.66078,4.63061 -0.15968,0.33714 -0.6541,1.16468 -1.09869,1.83888 -0.44454,0.67429 -0.93633,1.50183 -1.0929,1.83898 -0.33854,0.72919 -3.64073,6.47792 -4.22526,7.35582 -0.22448,0.33705 -0.53507,0.88874 -0.6901,1.22589 -0.15508,0.33715 -1.62507,2.88434 -3.26664,5.66041 -1.64162,2.77614 -2.98471,5.10575 -2.98471,5.17707 0,0.0716 -1.06665,1.93758 -2.37035,4.14729 -1.30368,2.20972 -2.50101,4.29347 -2.66076,4.63061 -0.15968,0.33715 -0.65337,1.16468 -1.0971,1.83898 -0.44369,0.67429 -0.97808,1.61155 -1.18753,2.08283 -0.3434,0.77263 -3.14466,5.58386 -4.14081,7.11187 -0.21975,0.33715 -0.52717,0.88884 -0.68304,1.22598 -0.15594,0.33706 -1.0401,1.90019 -1.96491,3.47351 -0.92481,1.5734 -1.80952,3.13644 -1.96601,3.47359 -0.15656,0.33715 -0.64835,1.16468 -1.09295,1.83897 -0.44454,0.6743 -0.93896,1.50183 -1.09864,1.83889 -0.34346,0.72498 -4.85505,8.51191 -5.4456,9.39906 -0.22442,0.33715 -0.53213,0.88884 -0.68378,1.22598 -0.30269,0.67286 -4.78824,8.41626 -5.44467,9.39898 -0.22515,0.33714 -0.53698,0.88883 -0.69286,1.22598 -0.15594,0.33715 -1.0401,1.9002 -1.9649,3.47359 -0.92481,1.57332 -1.80953,3.13645 -1.96601,3.47359 -0.15657,0.33706 -0.64835,1.1646 -1.09295,1.83889 -0.44454,0.67429 -0.93896,1.50183 -1.09864,1.83897 -0.34346,0.7249 -4.85505,8.51183 -5.44561,9.39898 -0.22441,0.33714 -0.53212,0.88883 -0.68377,1.22598 -0.30269,0.67295 -4.78824,8.41626 -5.44467,9.39898 -0.22515,0.33715 -0.53429,0.88884 -0.68692,1.22599 -0.15262,0.33714 -1.03409,1.90027 -1.9589,3.47358 -0.9248,1.57324 -1.81214,3.13637 -1.97201,3.47351 -0.15981,0.33715 -0.6543,1.16468 -1.09889,1.83898 -0.44454,0.67428 -0.93898,1.50173 -1.09865,1.83888 -0.15974,0.33715 -1.35708,2.42097 -2.66077,4.6307 -1.30368,2.20971 -2.3704,4.07967 -2.3704,4.15545 0,0.0758 -1.06664,1.94566 -2.37032,4.15538 -1.30369,2.20972 -2.50103,4.29347 -2.66076,4.63061 -0.15969,0.33715 -0.65412,1.16468 -1.09872,1.83898 -0.44453,0.67429 -0.93633,1.50173 -1.09287,1.83888 -0.15656,0.33715 -1.04121,1.90028 -1.96602,3.47359 -0.9248,1.57332 -1.81216,3.13636 -1.97201,3.47351 -0.15981,0.33714 -0.6543,1.16468 -1.0989,1.83897 -0.44453,0.67429 -0.93552,1.50183 -1.0911,1.83898 -0.15558,0.33705 -1.35291,2.42308 -2.66077,4.6354 -1.30786,2.21225 -2.37794,4.0822 -2.37794,4.15537 0,0.0733 -1.06664,1.94095 -2.37033,4.15067 -1.30368,2.20971 -2.50102,4.29355 -2.66076,4.63061 -0.15968,0.33714 -0.65412,1.16468 -1.09871,1.83897 -0.44453,0.67429 -0.93633,1.50183 -1.09288,1.83898 -0.33855,0.72919 -3.64074,6.47792 -4.22527,7.35573 -0.22448,0.33714 -0.53507,0.88883 -0.6901,1.22598 -0.15508,0.33714 -1.62507,2.88434 -3.26663,5.66039 -1.64162,2.77607 -2.98473,5.10577 -2.98473,5.177 0,0.0716 -1.06664,1.93758 -2.37033,4.14729 -1.30369,2.20981 -2.50102,4.29355 -2.66076,4.6307 -0.15968,0.33715 -0.65338,1.16461 -1.09711,1.83889 -0.44367,0.67429 -0.97807,1.61155 -1.18753,2.08283 -0.34339,0.77263 -3.14464,5.58386 -4.14081,7.11187 -0.74917,1.14927 -0.89059,1.63436 -0.65527,2.24761 0.20835,0.54294 14.05521,0.61299 121.22234,0.61299 111.63489,0 121.00699,-0.0513 121.24367,-0.66848 0.1411,-0.36772 0.0422,-0.96537 -0.21977,-1.32812 -0.26191,-0.36283 -0.60261,-0.93103 -0.75708,-1.26269 -0.15448,-0.33168 -1.58836,-2.81429 -3.1864,-5.51685 -1.5981,-2.70254 -3.03566,-5.18962 -3.1946,-5.52676 -0.15901,-0.33715 -0.65283,-1.16469 -1.09743,-1.8389 -0.44453,-0.67429 -0.93785,-1.49737 -1.09626,-1.82903 -0.15833,-0.33168 -1.59539,-2.81429 -3.19343,-5.51685 -1.59811,-2.70254 -3.03567,-5.18962 -3.19462,-5.52676 -0.159,-0.33715 -0.65282,-1.16461 -1.09742,-1.8389 -0.44452,-0.67429 -0.93834,-1.50183 -1.09735,-1.83897 -0.15895,-0.33715 -1.63213,-2.88434 -3.27368,-5.6604 -1.64163,-2.77606 -2.98473,-5.10298 -2.98473,-5.17102 0,-0.0683 -1.34653,-2.39395 -2.99226,-5.16892 -1.64579,-2.77488 -3.11896,-5.32115 -3.27374,-5.6583 -0.15478,-0.33714 -0.64517,-1.16468 -1.08976,-1.83888 -0.44453,-0.67429 -0.93787,-1.49737 -1.09626,-1.82905 -0.33254,-0.69651 -6.06795,-10.53586 -6.67554,-11.45223 -0.22355,-0.33715 -0.53279,-0.88438 -0.68727,-1.21605 -0.15447,-0.33168 -1.58836,-2.81429 -3.18639,-5.51684 -1.59811,-2.70256 -3.03567,-5.18963 -3.19461,-5.52677 -0.15901,-0.33706 -0.65283,-1.16461 -1.09742,-1.83889 -0.44454,-0.67429 -0.93787,-1.49737 -1.09626,-1.82904 -0.15833,-0.33168 -1.5954,-2.8142 -3.19344,-5.51684 -1.5981,-2.70255 -3.03567,-5.18963 -3.19461,-5.52668 -0.159,-0.33715 -0.65283,-1.1647 -1.09742,-1.83898 -0.44453,-0.67429 -0.93786,-1.49737 -1.09625,-1.82904 -0.15834,-0.33168 -1.5954,-2.8142 -3.19346,-5.51684 -1.59808,-2.70254 -3.03565,-5.18954 -3.19459,-5.52668 -0.15901,-0.33715 -0.65283,-1.16468 -1.09742,-1.83898 -0.44454,-0.67429 -0.93903,-1.50183 -1.09883,-1.83897 -0.15987,-0.33715 -1.04722,-1.9002 -1.97201,-3.47352 -0.92482,-1.5733 -1.80953,-3.13643 -1.96603,-3.47358 -0.15655,-0.33706 -0.64834,-1.1646 -1.09294,-1.83889 -0.44454,-0.67429 -0.93848,-1.49896 -1.09767,-1.83275 -0.15912,-0.33369 -1.59963,-2.81621 -3.2011,-5.51674 -1.60148,-2.70062 -3.03843,-5.18601 -3.1932,-5.52308 -0.15478,-0.33714 -0.64516,-1.16468 -1.08976,-1.83897 -0.44453,-0.67429 -0.93896,-1.50183 -1.09864,-1.83898 -0.15974,-0.33714 -1.32036,-2.35993 -2.57924,-4.49513 -1.25882,-2.13519 -2.41944,-4.15806 -2.57918,-4.4952 -0.15968,-0.33715 -0.6541,-1.16461 -1.09869,-1.8389 -0.44454,-0.67428 -0.93787,-1.49736 -1.09626,-1.82912 -0.15833,-0.33167 -1.63372,-2.90614 -3.27853,-5.7211 -1.64481,-2.81488 -3.14576,-5.3929 -3.33541,-5.72887 -0.32145,-0.56929 0,-1.30412 2.69153,-6.13201 0.31312,-0.56188 0.92475,-1.57332 1.35923,-2.24761 0.43442,-0.6743 0.91947,-1.49728 1.07781,-1.82896 0.15839,-0.33175 1.59545,-2.81428 3.1935,-5.51683 1.5981,-2.70264 3.03565,-5.18963 3.1946,-5.52678 0.15901,-0.33714 0.65283,-1.16468 1.09736,-1.83897 0.44459,-0.67429 0.93841,-1.50174 1.09742,-1.83889 0.15895,-0.33714 1.5965,-2.82423 3.19462,-5.5267 1.59803,-2.70262 3.03509,-5.18515 3.19343,-5.51683 0.1584,-0.33175 0.6516,-1.15483 1.09602,-1.82912 0.4444,-0.6742 0.94803,-1.50605 1.1193,-1.84832 1.08846,-2.1762 3.22433,-5.58032 3.74935,-5.97558 0.52023,-0.39162 0.94926,0.0758 2.62435,2.8606 1.10141,1.83081 2.45346,4.15631 3.00465,5.16774 0.55119,1.01135 1.35506,2.39058 1.78635,3.06487 0.43129,0.67429 0.91439,1.49897 1.07357,1.83267 0.15913,0.33369 1.59964,2.8163 3.20111,5.51683 1.60148,2.70053 3.03842,5.18592 3.1932,5.52307 0.15478,0.33714 0.64516,1.16468 1.08969,1.83897 0.4446,0.67429 0.93792,1.49728 1.09626,1.82896 0.15839,0.33175 1.59546,2.81428 3.1935,5.51683 1.59811,2.70256 3.03567,5.18963 3.19462,5.52678 0.159,0.33714 0.65282,1.16468 1.09735,1.83897 0.44459,0.67429 0.93792,1.49728 1.09625,1.82895 0.1584,0.33168 1.59547,2.81429 3.1935,5.51684 1.59811,2.70256 3.03567,5.18963 3.19462,5.52678 0.15901,0.33714 0.65282,1.16468 1.09735,1.83897 0.4446,0.6742 0.93792,1.49728 1.09626,1.82895 0.1584,0.33168 1.59546,2.81429 3.19351,5.51684 1.5981,2.70256 3.03566,5.18963 3.19461,5.52677 0.159,0.33715 0.65281,1.16469 1.09735,1.8389 0.44459,0.67428 0.93792,1.49736 1.09625,1.82903 0.15839,0.33168 1.59547,2.81429 3.19351,5.51684 1.5981,2.70256 3.03566,5.18963 3.19461,5.52677 0.15901,0.33715 0.65282,1.16461 1.09735,1.8389 0.44461,0.67428 0.93792,1.49736 1.09626,1.82903 0.1584,0.33168 1.59547,2.81429 3.19351,5.51684 1.5981,2.70256 3.03566,5.18955 3.19461,5.52669 0.159,0.33715 0.65282,1.16469 1.09736,1.83898 0.44459,0.6742 0.93791,1.49736 1.09624,1.82903 0.1584,0.33168 1.59547,2.81429 3.19351,5.51684 1.5981,2.70255 3.03567,5.18955 3.19461,5.52669 0.15901,0.33715 0.65283,1.16469 1.09736,1.83889 0.4446,0.67429 0.93792,1.49745 1.09626,1.82912 0.15839,0.33168 1.59545,2.81421 3.1935,5.51684 1.5981,2.70255 3.03567,5.18955 3.19461,5.52669 0.159,0.33715 0.65282,1.1646 1.09736,1.83889 0.44459,0.67429 0.93792,1.49744 1.09625,1.82912 0.15839,0.33168 1.59546,2.81421 3.19351,5.51683 1.59809,2.70256 3.03566,5.18956 3.1946,5.5267 0.15901,0.33714 0.65283,1.1646 1.09735,1.83889 0.44461,0.67429 0.93843,1.50183 1.09743,1.83897 0.15894,0.33715 1.5965,2.82414 3.1946,5.52678 1.59804,2.70255 3.03512,5.18508 3.19345,5.51674 0.15839,0.33177 0.65172,1.15476 1.09626,1.82905 0.44459,0.67429 0.93841,1.50183 1.09742,1.83897 0.15894,0.33715 1.59651,2.82414 3.19459,5.52669 1.59806,2.70264 3.03512,5.18517 3.19346,5.51683 0.15839,0.33168 0.65172,1.15475 1.09625,1.82905 0.44459,0.67429 0.93842,1.50182 1.09742,1.83897 0.15894,0.33715 1.59651,2.82414 3.19461,5.52669 1.59803,2.70263 3.03511,5.18517 3.19344,5.51683 0.15839,0.33168 0.65172,1.15475 1.09626,1.82905 0.44459,0.67429 0.9384,1.50182 1.09742,1.83897 0.15894,0.33706 1.59651,2.82414 3.19461,5.52669 1.59803,2.70263 3.0351,5.18517 3.19344,5.51683 0.1584,0.33168 0.65172,1.15475 1.09625,1.82904 0.44459,0.6743 0.93842,1.50174 1.09742,1.83889 0.15895,0.33715 1.59651,2.82423 3.19461,5.52678 1.59803,2.70254 3.03512,5.18517 3.19344,5.51683 0.1584,0.33168 0.64088,1.15475 1.07217,1.82904 0.4313,0.6743 1.27567,2.13225 1.8764,3.23985 3.12196,5.75622 3.2559,6.27002 3.2559,12.49332 0,5.79967 -0.0729,6.13311 -2.4043,11.00058 -1.87749,3.91969 -7.49042,8.83136 -12.10293,10.5906 -4.49099,1.71292 1.0148,1.66039 -171.02154,1.63285 -135.10296,-0.0219 -164.351873,-0.12218 -166.614383,-0.57282 z"
     id="path1"
     sodipodi:nodetypes="sssssssssssssssssssssssssssssssssssssssssssssssssssssssssssssssssssssssssssssssssssssssssssssssssssssssssssssssssssssssssssssssssssssssssssssssssssssssssssssssssssssssssssssscssssssssssssssssssssssssssssssssssssssssssssssssssssssssssssssssss" /></svg>
