<?xml version="1.0" encoding="UTF-8" standalone="no"?>
<svg
   viewBox="0 0 512 512"
   style="height: 512px; width: 512px;"
   version="1.1"
   id="svg12"
   sodipodi:docname="yrden-arcanum.svg"
   inkscape:version="1.4 (e7c3feb1, 2024-10-09)"
   xml:space="preserve"
   xmlns:inkscape="http://www.inkscape.org/namespaces/inkscape"
   xmlns:sodipodi="http://sodipodi.sourceforge.net/DTD/sodipodi-0.dtd"
   xmlns="http://www.w3.org/2000/svg"
   xmlns:svg="http://www.w3.org/2000/svg"><sodipodi:namedview
     id="namedview12"
     pagecolor="#505050"
     bordercolor="#ffffff"
     borderopacity="1"
     inkscape:showpageshadow="0"
     inkscape:pageopacity="0"
     inkscape:pagecheckerboard="1"
     inkscape:deskcolor="#d1d1d1"
     inkscape:zoom="0.35228888"
     inkscape:cx="177.41122"
     inkscape:cy="400.23971"
     inkscape:window-width="1248"
     inkscape:window-height="729"
     inkscape:window-x="202"
     inkscape:window-y="182"
     inkscape:window-maximized="0"
     inkscape:current-layer="svg12" /><defs
     id="defs2"><radialGradient
       id="delapouite-viking-shield-gradient-0"><stop
         offset="0%"
         stop-color="#830000"
         stop-opacity="1"
         id="stop1" /><stop
         offset="100%"
         stop-color="#000"
         stop-opacity="1"
         id="stop2" /></radialGradient></defs><path
     d="M0 0h512v512H0z"
     fill="url(#pattern)"
     id="path2" /><svg
     version="1.1"
     id="svg11"><defs
       id="defs6"><filter
         id="b"
         x="-0.023338979"
         width="1.046678"
         y="-0.023448784"
         height="1.0468976"
         color-interpolation-filters="sRGB"><feGaussianBlur
           stdDeviation="4.823"
           id="feGaussianBlur2" /></filter><filter
         id="a"
         x="-0.012011281"
         width="1.0240226"
         y="-0.011988317"
         height="1.0239766"
         color-interpolation-filters="sRGB"><feGaussianBlur
           stdDeviation="2.55"
           id="feGaussianBlur3" /></filter><filter
         id="c"
         x="-0.11244604"
         width="1.2248921"
         y="-0.082623731"
         height="1.1652475"
         color-interpolation-filters="sRGB"><feGaussianBlur
           stdDeviation="15.63"
           id="feGaussianBlur4" /></filter><filter
         id="e"
         x="-0.23758603"
         width="1.4751721"
         y="-0.24869778"
         height="1.4973956"
         color-interpolation-filters="sRGB"><feGaussianBlur
           stdDeviation="18.7"
           id="feGaussianBlur5" /></filter><filter
         id="d"
         x="-0.21301439"
         width="1.4260288"
         y="-0.15141701"
         height="1.302834"
         color-interpolation-filters="sRGB"><feGaussianBlur
           stdDeviation="18.7"
           id="feGaussianBlur6" /></filter></defs><path
       d="M196.6 1.207c-2.5 11.323-4.8 22.703-10.2 33.383-7-10.68-12.6-20.91-16.7-31.988L2.494 4.338C13 104.9 10.86 175.3 1.979 278.3L15.4 295.5l-9.494 6.3L2.6 462.7l1.019 45.9 112.681 3.1c3.6-16.1 6.5-32.5 13.2-47.3 4.5 14.4 5.7 29.4 7 44.4l160 .3c.8-6.1.7-8.1 2.3-14.4 5.1 4.5 7.8 9.5 10.6 14.5.8-10.1 3.9-19.8 7-29.5 4.8 9.2 6.7 19.4 8.8 29.5l185.2.4-4.6-78.2-21.4-8.2 21.3-4.9 5.8-395.47c-7-6.73-13.3-13.744-18-21.465l-15.1.114-2.1 20.321-1.4 47.23.8 84.87-8.6-97.14c9.3-16.86 2.2-39.69 5.7-55.239-92.1 1.696-184.1.685-276.2-.314z"
       overflow="visible"
       color="#000"
       fill="#ebc893"
       fill-rule="evenodd"
       stroke="#e0aa58"
       enable-background="accumulate"
       id="path6" /><path
       d="M196.6 1.203c-2.5 11.327-4.8 22.707-10.2 33.387-7-10.68-12.6-20.91-16.7-31.99L2.494 4.336C13 104.9 10.86 175.3 1.979 278.3L15.4 295.5l-9.494 6.3L2.6 462.7l1.019 45.9 112.681 3.1c.5-2.1-7.9-2.3-7.4-4.5L5.244 504.5l-.914-47.3 4.63-153.7 12.42-9-13.093-16.8C16.95 177.3 16.36 104 6.113 5.992l162.687.164c4 10.804 10.3 24.254 17.1 34.664 5.3-10.41 9.5-25.97 12-37.02 89.8.974 173.8 3.521 263.6 1.867 4.6 1.226 10.6.431 11.3-4.149-92.1 1.696-184.1.684-276.2-.315zm296.9.158l-15.1.116-.6 6.277 13.5-2.557c4.6 7.533 9.7 12.383 16.6 18.943l-4.6 389.06-19.9 9.9 4.1-.6 18.2-4.2 5.8-395.47c-7-6.73-13.3-13.748-18-21.469zm9.6 435.739l3.5 69.7-177.7.1c.4 2.1-4.1.2-3.7 2.3l185.2.4-4.6-78.2zm-370 25.1c-1 2.2-2.9.4-3.7 2.6 4.2 14 5.8 29.5 7.1 44l158 .3c1.9-5 .8-9.7 4.3-14.4 5.1 4.5 7.8 9.5 10.6 14.5.8-10.1 3.9-19.8 7-29.5 1.8 3.4 3.2 7 4.3 10.6-1.4-5.6-2.4-8.3-5.1-13.4-3 9.4-6.7 16.2-7.5 26-2.7-4.9-5.4-9.7-10.4-14.1-3.4 4.6-6.2 9.1-8 14l-147.6 3.4c-3.4-14.6-7.1-30.3-9-44z"
       overflow="visible"
       color="#000"
       opacity=".527"
       fill="#c87137"
       fill-rule="evenodd"
       filter="url(#a)"
       enable-background="accumulate"
       id="path7" /><path
       d="M200.1 16.1c-2.3 10.67-10.5 21.38-15.6 31.44-6.6-10.06-13.9-19.69-17.7-30.12L17.34 19.05C24.61 113.6 7.605 179.3 16.85 277l18.26 20.1L10.34 309l7.1 141.6.96 43.3 90.2 3.4c3.4-15.2 15-35.6 21.3-49.6 4.3 13.6 15.4 36.7 16.6 50.9l45.1.8 13.8-18.7 14.4 22.2 68.7-8.6c1.8-4.7 4.5-9.1 7.8-13.5 4.8 4.2 7.4 8.9 10 13.6.8-9.5 7.7-19.6 10.6-28.7 4.5 8.6 19.9 28.9 33.1 33.9l114.6 5.6 22.3-14.7 19.4 14.7-14.5-67.6-34.6-14.2 37.5-15.1 2.1-96.9-14.5-21.9 15.2-13.4 5.1-239.63c-5.2-21.09-11.8-24.89-16.9-20.22l-4.2 2.11 2 19.14.7 44.47-7.1 124.23-18.3-137.78c8.8-15.88-3.9-35.38-.6-50.02-67.1 1.24-140.4-13.332-202.8-3.28-14 2.25-23.7 21.31-36.9 24.48-4.3 1.03-13.9-23.45-18.4-23.5z"
       overflow="visible"
       enable-background="accumulate"
       filter="url(#b)"
       fill-rule="evenodd"
       fill="#f6e7d0"
       color="#000"
       id="path8" /><path
       d="M354 27.39l-70.3 96.91 46.4 97.6-56.2 43.6 33 74.4-30.2 63.2 69.8 48.8 31.6 29.5 31.6-13.3L365.9 335l55.5-36.5 2.1-146.1-56.9-101.83zM116.6 55.48L89.9 123.6s33.7 65.3 35.8 68.8c2.1 3.6-7 118-7 118l42.8 73.8s9.9-82.9 7.1-83.6c-2.8-.7-29.5-42.1-29.5-42.1l23.8-84.3-36.5-37.2z"
       color="#000"
       overflow="visible"
       fill="#f2dbb9"
       fill-rule="evenodd"
       filter="url(#c)"
       enable-background="accumulate"
       id="path9" /><path
       d="M39.33 172.1l-5.62 108.1L74.45 328 42.84 464.9l96.96-39.3 30.2 42.9 74.4-38.7-80.8-169.9-60.4-16.9z"
       color="#000"
       overflow="visible"
       fill="#eed3a4"
       fill-rule="evenodd"
       enable-background="accumulate"
       filter="url(#d)"
       id="path10" /><path
       d="M266.9 66.72L324.5 191 434 221.2l21.8-111.6-41.4-68.86z"
       color="#000"
       overflow="visible"
       fill="#eed3a4"
       fill-rule="evenodd"
       enable-background="accumulate"
       filter="url(#e)"
       id="path11" /></svg><path
     id="path5"
     style="fill:#005780;fill-opacity:1;stroke-width:0.606638"
     d="m 256.6862,93.957169 c -110.16446,0 -106.07438,-0.0631 -110.20681,1.68008 -10.90031,4.598081 -17.34687,12.345881 -19.58538,23.538061 -0.80131,4.00376 -0.8024,6.61364 -0.006,10.63158 0.89862,4.53274 2.16346,7.75721 4.41828,11.26546 1.04694,1.62895 6.70651,8.53729 12.0937,14.76195 0.48132,0.55609 2.32663,2.74 4.1007,4.8531 1.77399,2.11317 3.32346,3.93266 3.44436,4.04385 0.12091,0.11122 1.56441,1.84055 3.20737,3.84245 1.6429,2.00192 3.27274,3.92902 3.62205,4.28318 0.34924,0.35409 1.36378,1.53018 2.25354,2.6126 0.8897,1.08243 4.31794,5.15977 7.61854,9.06167 3.30059,3.90184 6.30728,7.45916 6.68132,7.90407 0.37406,0.44485 2.1315,2.53738 3.90645,4.65049 1.77503,2.11316 3.33203,3.93267 3.45971,4.04386 0.23654,0.20607 7.67508,8.98983 9.87918,11.66595 1.11798,1.35754 11.71473,13.91605 13.70268,16.23941 3.41653,3.99289 5.93974,6.97701 7.32705,8.6659 0.88975,1.08302 1.80008,2.1717 2.02254,2.41945 0.22238,0.24775 1.85521,2.17747 3.62921,4.28796 1.77399,2.1105 3.61775,4.29228 4.09717,4.84839 1.83672,2.13038 12.72941,14.9984 16.96095,20.03683 2.4368,2.90132 5.58853,6.63178 7.00364,8.29033 2.78556,3.26487 3.95989,4.65401 15.03322,17.77735 8.99627,10.66174 8.05507,9.54327 11.92191,14.1541 1.77212,2.11315 3.82911,4.50866 4.57108,5.32228 0.74192,0.81355 1.74494,2.01143 2.22867,2.66236 0.48373,0.65092 1.813,2.2599 2.95384,3.57582 1.91249,2.20604 6.29922,7.35452 7.89698,9.26786 0.3715,0.44485 2.44287,2.90174 4.60312,5.45975 6.28325,7.4403 7.20668,8.53637 9.70499,11.52613 1.30112,1.557 2.47595,2.92193 2.61019,3.03319 0.13425,0.11122 1.9822,2.29509 4.1067,4.85312 2.1245,2.55794 6.7113,8.00884 10.19316,12.11262 3.4818,4.10373 6.33064,7.60748 6.33058,7.78559 6e-5,0.17813 -32.30399,0.32347 -71.7859,0.32347 -39.74556,0 -71.7848,-0.15482 -71.7848,-0.34718 0,-0.19109 0.69618,-1.14654 1.54741,-2.12323 0.85124,-0.97669 1.92844,-2.23183 2.39337,-2.78794 0.46493,-0.55605 4.5479,-5.37846 9.07355,-10.71687 4.52559,-5.33842 9.5184,-11.25272 11.09603,-13.14343 1.57762,-1.89071 3.33529,-3.9844 3.90524,-4.6517 0.56993,-0.66731 2.18571,-2.57822 3.59123,-4.24647 1.40553,-1.66825 2.65496,-3.1234 2.7761,-3.23461 0.1212,-0.11121 1.37215,-1.60776 2.77962,-3.32467 l 2.55929,-3.12086 -1.34838,-1.73226 c -0.74131,-0.95229 -1.44841,-1.8224 -1.57113,-1.93364 -0.25249,-0.22901 -4.93192,-5.67766 -6.47041,-7.53439 -8.82373,-10.64869 -18.47609,-21.59046 -18.96333,-21.49661 -0.33281,0.0642 -1.41092,1.11724 -2.39695,2.3401 -0.98604,1.22286 -2.3642,2.86012 -3.06165,3.63862 -0.69745,0.77856 -2.71076,3.14524 -4.47395,5.25835 -1.76321,2.1131 -3.30843,3.9326 -3.43365,4.04384 -0.12521,0.11122 -1.67856,1.93076 -3.45261,4.04386 -1.774,2.11317 -3.61824,4.29706 -4.0984,4.85311 -0.48015,0.55611 -6.64802,7.83655 -13.70625,16.17784 -7.05807,8.34127 -13.22607,15.62051 -13.70622,16.17662 -0.48021,0.55604 -2.32433,2.73787 -4.09839,4.84838 -1.77398,2.11049 -3.46494,4.09213 -3.75709,4.40285 -0.29222,0.31066 -1.83872,2.13234 -3.43721,4.04859 -1.59849,1.91625 -3.16369,3.75436 -3.47756,4.08413 -1.51775,1.59455 -3.89698,5.94093 -5.20617,9.51076 -0.75696,2.06396 -1.70496,7.4608 -1.70496,9.70621 0,2.46217 0.9708,7.65894 1.9265,10.31286 3.93485,10.92696 14.23052,19.11809 25.57478,20.34841 0.7785,0.0843 47.73245,0.13559 104.34183,0.11375 99.13194,-0.0383 103.02336,-0.0669 105.55509,-0.79265 7.04466,-2.01931 13.99806,-6.72585 17.47053,-11.82586 l 0.93125,-1.36731 3.13388,-6.14221 1.18253,-4.06168 c 0.52771,-2.26471 0.80799,-4.58006 0.83528,-6.90525 0,-0.12757 -0.007,-0.25515 -0.009,-0.38267 -0.15463,-1.98128 -1.25714,-7.52796 -1.79505,-9.0036 -1.29025,-3.53992 -3.68241,-7.91355 -5.20265,-9.51076 -0.31394,-0.32977 -2.84513,-3.33057 -5.62439,-6.66708 -2.77925,-3.33651 -5.14957,-6.15658 -5.2678,-6.26779 -0.11817,-0.11121 -1.66595,-1.93191 -3.43964,-4.04506 -1.77363,-2.1131 -3.32347,-3.93266 -3.44432,-4.04386 -0.1209,-0.11121 -1.56439,-1.84053 -3.20735,-3.84245 -1.64295,-2.0019 -3.27282,-3.92902 -3.62206,-4.28316 -0.3493,-0.35416 -1.36392,-1.52903 -2.2536,-2.6114 -0.88963,-1.08243 -4.31788,-5.16104 -7.61847,-9.06288 -3.3006,-3.9019 -6.30728,-7.45801 -6.68134,-7.90285 -0.37411,-0.44486 -2.13264,-2.53855 -3.9076,-4.65171 -1.77496,-2.11311 -3.32832,-3.93266 -3.45262,-4.04385 -0.12437,-0.11121 -2.66545,-3.11412 -5.64695,-6.67302 -5.27534,-6.29703 -16.96411,-20.11601 -22.23476,-26.28686 -0.7785,-0.91147 -2.14343,-2.53964 -3.0332,-3.61855 -0.88975,-1.07884 -1.80165,-2.16242 -2.02725,-2.40755 -0.22561,-0.24509 -1.85888,-2.1748 -3.62916,-4.28797 -1.7703,-2.11311 -3.61405,-4.29701 -4.09718,-4.85312 -0.48307,-0.55603 -5.09892,-6.01578 -10.25717,-12.13276 -5.15824,-6.11692 -10.31915,-12.20424 -11.46807,-13.52731 -1.14891,-1.32308 -3.06728,-3.59723 -4.26303,-5.05457 -1.19569,-1.45733 -2.95863,-3.55964 -3.91827,-4.67179 -0.95965,-1.11215 -5.04524,-5.93571 -9.07944,-10.71808 -4.03421,-4.78232 -7.64413,-9.05875 -8.0214,-9.50361 -0.37727,-0.44485 -2.13549,-2.53732 -3.90761,-4.65048 -1.77217,-2.11311 -3.82915,-4.5075 -4.57107,-5.32112 -0.74199,-0.81364 -1.745,-2.01259 -2.22873,-2.66352 -0.48374,-0.65086 -1.81489,-2.25998 -2.95737,-3.57589 -1.14253,-1.31592 -6.14949,-7.2147 -11.12684,-13.10904 -4.97734,-5.89452 -9.68413,-11.4677 -10.45972,-12.38397 -0.77558,-0.91627 -3.61071,-4.28353 -6.30104,-7.48228 -2.69037,-3.1988 -7.74064,-9.17358 -11.2228,-13.27732 -3.48223,-4.10378 -6.33179,-7.60633 -6.33179,-7.78437 0,-0.17811 32.30404,-0.32347 71.78596,-0.32347 39.48209,0 71.78473,0.14911 71.78473,0.33171 7e-5,0.30471 -3.10889,4.14831 -7.41943,9.17188 -0.95429,1.11221 -3.2273,3.80133 -5.05098,5.97631 -1.82369,2.17498 -3.74794,4.4503 -4.27608,5.05573 -0.5282,0.60548 -3.63898,4.28516 -6.91241,8.17778 -3.27328,3.89262 -6.34331,7.53287 -6.82225,8.08892 -6.49383,7.54063 -8.95034,10.55333 -8.95034,10.97754 0,0.65827 27.41223,32.70044 27.97531,32.70044 0.29836,0 0.89055,-0.4095 1.31635,-0.90997 0.4258,-0.50047 6.62559,-7.82605 13.77615,-16.27853 7.15063,-8.45248 13.9502,-16.45932 15.11142,-17.79393 1.16129,-1.3346 3.46142,-4.06447 5.11143,-6.06638 1.65,-2.0019 3.11763,-3.73119 3.26067,-3.84245 0.14299,-0.11121 1.68664,-1.93074 3.43013,-4.04385 1.74341,-2.11316 3.27225,-3.93388 3.39813,-4.04507 0.12587,-0.11121 1.53613,-1.76973 3.1339,-3.68604 1.59777,-1.91626 3.1439,-3.73582 3.43606,-4.04386 0.29222,-0.30812 1.83988,-2.12882 3.43837,-4.04506 1.59849,-1.91626 3.15379,-3.73575 3.4562,-4.04386 3.68515,-3.75412 8.02437,-10.44741 9.53914,-14.7145 0.75576,-2.129 1.69077,-7.49636 1.69077,-9.70622 0,-4.29403 -1.5405,-10.17145 -3.76305,-14.35792 -3.56265,-6.71076 -8.67352,-11.212561 -16.45864,-14.496541 -4.13248,-1.74317 -0.0414,-1.68008 -110.20558,-1.68008 z" /></svg>
