<?xml version="1.0" encoding="UTF-8" standalone="no"?>
<svg
   viewBox="0 0 512 512"
   style="height: 512px; width: 512px;"
   version="1.1"
   id="svg12"
   sodipodi:docname="glowing-hands copy.svg"
   inkscape:version="1.3.2 (091e20e, 2023-11-25)"
   xmlns:inkscape="http://www.inkscape.org/namespaces/inkscape"
   xmlns:sodipodi="http://sodipodi.sourceforge.net/DTD/sodipodi-0.dtd"
   xmlns="http://www.w3.org/2000/svg"
   xmlns:svg="http://www.w3.org/2000/svg">
  <sodipodi:namedview
     id="namedview12"
     pagecolor="#505050"
     bordercolor="#ffffff"
     borderopacity="1"
     inkscape:showpageshadow="0"
     inkscape:pageopacity="0"
     inkscape:pagecheckerboard="1"
     inkscape:deskcolor="#d1d1d1"
     inkscape:zoom="0.44298482"
     inkscape:cx="261.85999"
     inkscape:cy="249.44421"
     inkscape:window-width="1248"
     inkscape:window-height="729"
     inkscape:window-x="0"
     inkscape:window-y="38"
     inkscape:window-maximized="0"
     inkscape:current-layer="svg12" />
  <defs
     id="defs2">
    <radialGradient
       id="lorc-glowing-hands-gradient-0">
      <stop
         offset="0%"
         stop-color="#830000"
         stop-opacity="1"
         id="stop1" />
      <stop
         offset="100%"
         stop-color="#000"
         stop-opacity="1"
         id="stop2" />
    </radialGradient>
  </defs>
  <path
     d="M0 0h512v512H0z"
     fill="url(#pattern)"
     id="path2" />
  <svg
     version="1.1"
     id="svg11">
    <defs
       id="defs6">
      <filter
         id="b"
         x="-0.023338979"
         width="1.046678"
         y="-0.023448784"
         height="1.0468976"
         color-interpolation-filters="sRGB">
        <feGaussianBlur
           stdDeviation="4.823"
           id="feGaussianBlur2" />
      </filter>
      <filter
         id="a"
         x="-0.012011281"
         width="1.0240226"
         y="-0.011988317"
         height="1.0239766"
         color-interpolation-filters="sRGB">
        <feGaussianBlur
           stdDeviation="2.55"
           id="feGaussianBlur3" />
      </filter>
      <filter
         id="c"
         x="-0.11244604"
         width="1.2248921"
         y="-0.082623731"
         height="1.1652475"
         color-interpolation-filters="sRGB">
        <feGaussianBlur
           stdDeviation="15.63"
           id="feGaussianBlur4" />
      </filter>
      <filter
         id="e"
         x="-0.23758603"
         width="1.4751721"
         y="-0.24869778"
         height="1.4973956"
         color-interpolation-filters="sRGB">
        <feGaussianBlur
           stdDeviation="18.7"
           id="feGaussianBlur5" />
      </filter>
      <filter
         id="d"
         x="-0.21301439"
         width="1.4260288"
         y="-0.15141701"
         height="1.302834"
         color-interpolation-filters="sRGB">
        <feGaussianBlur
           stdDeviation="18.7"
           id="feGaussianBlur6" />
      </filter>
    </defs>
    <path
       d="M196.6 1.207c-2.5 11.323-4.8 22.703-10.2 33.383-7-10.68-12.6-20.91-16.7-31.988L2.494 4.338C13 104.9 10.86 175.3 1.979 278.3L15.4 295.5l-9.494 6.3L2.6 462.7l1.019 45.9 112.681 3.1c3.6-16.1 6.5-32.5 13.2-47.3 4.5 14.4 5.7 29.4 7 44.4l160 .3c.8-6.1.7-8.1 2.3-14.4 5.1 4.5 7.8 9.5 10.6 14.5.8-10.1 3.9-19.8 7-29.5 4.8 9.2 6.7 19.4 8.8 29.5l185.2.4-4.6-78.2-21.4-8.2 21.3-4.9 5.8-395.47c-7-6.73-13.3-13.744-18-21.465l-15.1.114-2.1 20.321-1.4 47.23.8 84.87-8.6-97.14c9.3-16.86 2.2-39.69 5.7-55.239-92.1 1.696-184.1.685-276.2-.314z"
       overflow="visible"
       color="#000"
       fill="#ebc893"
       fill-rule="evenodd"
       stroke="#e0aa58"
       enable-background="accumulate"
       id="path6" />
    <path
       d="M196.6 1.203c-2.5 11.327-4.8 22.707-10.2 33.387-7-10.68-12.6-20.91-16.7-31.99L2.494 4.336C13 104.9 10.86 175.3 1.979 278.3L15.4 295.5l-9.494 6.3L2.6 462.7l1.019 45.9 112.681 3.1c.5-2.1-7.9-2.3-7.4-4.5L5.244 504.5l-.914-47.3 4.63-153.7 12.42-9-13.093-16.8C16.95 177.3 16.36 104 6.113 5.992l162.687.164c4 10.804 10.3 24.254 17.1 34.664 5.3-10.41 9.5-25.97 12-37.02 89.8.974 173.8 3.521 263.6 1.867 4.6 1.226 10.6.431 11.3-4.149-92.1 1.696-184.1.684-276.2-.315zm296.9.158l-15.1.116-.6 6.277 13.5-2.557c4.6 7.533 9.7 12.383 16.6 18.943l-4.6 389.06-19.9 9.9 4.1-.6 18.2-4.2 5.8-395.47c-7-6.73-13.3-13.748-18-21.469zm9.6 435.739l3.5 69.7-177.7.1c.4 2.1-4.1.2-3.7 2.3l185.2.4-4.6-78.2zm-370 25.1c-1 2.2-2.9.4-3.7 2.6 4.2 14 5.8 29.5 7.1 44l158 .3c1.9-5 .8-9.7 4.3-14.4 5.1 4.5 7.8 9.5 10.6 14.5.8-10.1 3.9-19.8 7-29.5 1.8 3.4 3.2 7 4.3 10.6-1.4-5.6-2.4-8.3-5.1-13.4-3 9.4-6.7 16.2-7.5 26-2.7-4.9-5.4-9.7-10.4-14.1-3.4 4.6-6.2 9.1-8 14l-147.6 3.4c-3.4-14.6-7.1-30.3-9-44z"
       overflow="visible"
       color="#000"
       opacity=".527"
       fill="#c87137"
       fill-rule="evenodd"
       filter="url(#a)"
       enable-background="accumulate"
       id="path7" />
    <path
       d="M200.1 16.1c-2.3 10.67-10.5 21.38-15.6 31.44-6.6-10.06-13.9-19.69-17.7-30.12L17.34 19.05C24.61 113.6 7.605 179.3 16.85 277l18.26 20.1L10.34 309l7.1 141.6.96 43.3 90.2 3.4c3.4-15.2 15-35.6 21.3-49.6 4.3 13.6 15.4 36.7 16.6 50.9l45.1.8 13.8-18.7 14.4 22.2 68.7-8.6c1.8-4.7 4.5-9.1 7.8-13.5 4.8 4.2 7.4 8.9 10 13.6.8-9.5 7.7-19.6 10.6-28.7 4.5 8.6 19.9 28.9 33.1 33.9l114.6 5.6 22.3-14.7 19.4 14.7-14.5-67.6-34.6-14.2 37.5-15.1 2.1-96.9-14.5-21.9 15.2-13.4 5.1-239.63c-5.2-21.09-11.8-24.89-16.9-20.22l-4.2 2.11 2 19.14.7 44.47-7.1 124.23-18.3-137.78c8.8-15.88-3.9-35.38-.6-50.02-67.1 1.24-140.4-13.332-202.8-3.28-14 2.25-23.7 21.31-36.9 24.48-4.3 1.03-13.9-23.45-18.4-23.5z"
       overflow="visible"
       enable-background="accumulate"
       filter="url(#b)"
       fill-rule="evenodd"
       fill="#f6e7d0"
       color="#000"
       id="path8" />
    <path
       d="M354 27.39l-70.3 96.91 46.4 97.6-56.2 43.6 33 74.4-30.2 63.2 69.8 48.8 31.6 29.5 31.6-13.3L365.9 335l55.5-36.5 2.1-146.1-56.9-101.83zM116.6 55.48L89.9 123.6s33.7 65.3 35.8 68.8c2.1 3.6-7 118-7 118l42.8 73.8s9.9-82.9 7.1-83.6c-2.8-.7-29.5-42.1-29.5-42.1l23.8-84.3-36.5-37.2z"
       color="#000"
       overflow="visible"
       fill="#f2dbb9"
       fill-rule="evenodd"
       filter="url(#c)"
       enable-background="accumulate"
       id="path9" />
    <path
       d="M39.33 172.1l-5.62 108.1L74.45 328 42.84 464.9l96.96-39.3 30.2 42.9 74.4-38.7-80.8-169.9-60.4-16.9z"
       color="#000"
       overflow="visible"
       fill="#eed3a4"
       fill-rule="evenodd"
       enable-background="accumulate"
       filter="url(#d)"
       id="path10" />
    <path
       d="M266.9 66.72L324.5 191 434 221.2l21.8-111.6-41.4-68.86z"
       color="#000"
       overflow="visible"
       fill="#eed3a4"
       fill-rule="evenodd"
       enable-background="accumulate"
       filter="url(#e)"
       id="path11" />
  </svg>
  <path
     d="m 118.9103,42.42757 44.58127,86.18908 c -2.55768,1.89892 -5.05057,3.87883 -7.48946,5.91993 l -44.64967,-24.88926 24.84157,44.56147 c -20.88535,24.63548 -34.57642,55.56077 -37.829776,89.53513 l -48.302605,13.72438 47.95882,13.62718 c 2.442491,34.55843 15.677291,66.13439 36.343951,91.39084 l -8.34262,14.96452 -84.57636,80.29166 v 12.41493 h 11.348485 l 84.537655,-80.24935 15.24531,-8.50102 c 25.38785,22.47018 57.83137,37.13862 93.59575,40.24618 l 12.64622,44.50837 12.57423,-44.25459 c 18.02078,-1.19964 35.2424,-5.32595 51.18697,-11.91545 l 28.93369,60.16586 h 18.66065 l -32.40393,-67.37994 c 10.42423,-5.63554 20.16179,-12.37983 29.05968,-20.06728 l 39.7269,22.14529 -22.18759,-39.80249 c 22.08499,-25.89633 36.20535,-58.79433 38.54794,-94.90519 L 467.54456,257.4674 422.5943,244.69518 c -0.56518,-6.28442 -1.47593,-12.46984 -2.73318,-18.52836 l 49.31146,-18.54366 v -17.96948 l -53.61686,20.16268 c -6.94049,-21.70881 -18.31417,-41.43051 -33.051,-58.11396 l 23.54653,-42.23958 -42.70306,23.80572 c -4.4854,-3.66283 -9.17058,-7.09438 -14.03756,-10.27033 l 55.50318,-80.56974 h -20.42278 l -49.65974,72.08672 C 315.85915,104.81813 294.8361,98.720012 272.57292,97.078486 l -13.75318,-48.4025 -13.83237,48.670688 c -24.44289,2.303895 -47.31085,10.007546 -67.40424,21.907706 L 137.84724,42.42847 H 118.9103 Z m 72.75809,133.94811 29.17488,59.59529 c 2.62338,1.99791 5.27106,3.77983 8.06363,5.19637 l 7.63615,-35.56639 16.44406,3.53054 -10.29284,47.92553 c -0.78926,5.58334 -1.87191,10.55652 -3.21285,14.96812 l -0.18629,0.86666 -0.0792,-0.018 c -9.75735,30.7876 -32.40213,33.37588 -55.08649,24.1099 l -67.12795,-17.07852 4.14521,-16.30006 47.95882,12.20344 c 0.42748,-2.35609 0.96295,-4.67528 1.61813,-6.94588 l -53.55297,-29.44936 8.10503,-14.73863 52.09413,28.6475 c 1.14835,-1.95472 2.38039,-3.83023 3.70333,-5.60315 l -41.6285,-41.31262 11.84796,-11.93436 41.8364,41.51511 c 2.26339,-1.53893 4.64379,-2.82317 7.10787,-3.85452 l -23.67342,-48.3611 z m 137.88274,0 15.10491,7.39497 -23.67522,48.3593 c 2.46588,1.03135 4.84538,2.31649 7.10967,3.85542 l 41.8355,-41.51691 11.84706,11.93616 -41.6303,41.31352 c 1.32294,1.77292 2.55588,3.64843 3.70513,5.60315 l 52.09323,-28.6475 8.10503,14.73863 -53.55296,29.44936 c 0.65427,2.2706 1.19064,4.58979 1.61722,6.94498 l 47.95702,-12.20344 4.14881,16.30186 -67.12255,17.07762 c -27.13106,11.083 -54.20453,5.21526 -59.2443,-45.56493 l -9.59807,-42.18648 16.40086,-3.73033 8.06363,35.44939 c 2.64048,-1.38144 5.16217,-3.07786 7.65865,-4.97678 z"
     fill="#3e3126"
     fill-opacity="1"
     id="path12"
     style="stroke-width:0.899959;fill:#005780;fill-opacity:1" />
</svg>
