<?xml version="1.0" encoding="UTF-8" standalone="no"?>
<svg
   viewBox="0 0 512 512"
   style="height: 512px; width: 512px;"
   version="1.1"
   id="svg12"
   sodipodi:docname="hogwarts.svg"
   xml:space="preserve"
   inkscape:version="1.4 (e7c3feb1, 2024-10-09)"
   xmlns:inkscape="http://www.inkscape.org/namespaces/inkscape"
   xmlns:sodipodi="http://sodipodi.sourceforge.net/DTD/sodipodi-0.dtd"
   xmlns="http://www.w3.org/2000/svg"
   xmlns:svg="http://www.w3.org/2000/svg"><sodipodi:namedview
     id="namedview12"
     pagecolor="#505050"
     bordercolor="#ffffff"
     borderopacity="1"
     inkscape:showpageshadow="0"
     inkscape:pageopacity="0"
     inkscape:pagecheckerboard="1"
     inkscape:deskcolor="#d1d1d1"
     inkscape:zoom="0.64568977"
     inkscape:cx="350.78765"
     inkscape:cy="226.88914"
     inkscape:window-width="1616"
     inkscape:window-height="822"
     inkscape:window-x="0"
     inkscape:window-y="38"
     inkscape:window-maximized="0"
     inkscape:current-layer="svg12" /><defs
     id="defs2"><radialGradient
       id="lorc-lamellar-gradient-0"><stop
         offset="0%"
         stop-color="#830000"
         stop-opacity="1"
         id="stop1" /><stop
         offset="100%"
         stop-color="#000"
         stop-opacity="1"
         id="stop2" /></radialGradient></defs><path
     d="M0 0h512v512H0z"
     fill="url(#pattern)"
     id="path2" /><svg
     version="1.1"
     id="svg11"><defs
       id="defs6"><filter
         id="b"
         x="-0.023338979"
         width="1.046678"
         y="-0.023448784"
         height="1.0468976"
         color-interpolation-filters="sRGB"><feGaussianBlur
           stdDeviation="4.823"
           id="feGaussianBlur2" /></filter><filter
         id="a"
         x="-0.012011281"
         width="1.0240226"
         y="-0.011988317"
         height="1.0239766"
         color-interpolation-filters="sRGB"><feGaussianBlur
           stdDeviation="2.55"
           id="feGaussianBlur3" /></filter><filter
         id="c"
         x="-0.11244604"
         width="1.2248921"
         y="-0.082623731"
         height="1.1652475"
         color-interpolation-filters="sRGB"><feGaussianBlur
           stdDeviation="15.63"
           id="feGaussianBlur4" /></filter><filter
         id="e"
         x="-0.23758603"
         width="1.4751721"
         y="-0.24869778"
         height="1.4973956"
         color-interpolation-filters="sRGB"><feGaussianBlur
           stdDeviation="18.7"
           id="feGaussianBlur5" /></filter><filter
         id="d"
         x="-0.21301439"
         width="1.4260288"
         y="-0.15141701"
         height="1.302834"
         color-interpolation-filters="sRGB"><feGaussianBlur
           stdDeviation="18.7"
           id="feGaussianBlur6" /></filter></defs><path
       d="M196.6 1.207c-2.5 11.323-4.8 22.703-10.2 33.383-7-10.68-12.6-20.91-16.7-31.988L2.494 4.338C13 104.9 10.86 175.3 1.979 278.3L15.4 295.5l-9.494 6.3L2.6 462.7l1.019 45.9 112.681 3.1c3.6-16.1 6.5-32.5 13.2-47.3 4.5 14.4 5.7 29.4 7 44.4l160 .3c.8-6.1.7-8.1 2.3-14.4 5.1 4.5 7.8 9.5 10.6 14.5.8-10.1 3.9-19.8 7-29.5 4.8 9.2 6.7 19.4 8.8 29.5l185.2.4-4.6-78.2-21.4-8.2 21.3-4.9 5.8-395.47c-7-6.73-13.3-13.744-18-21.465l-15.1.114-2.1 20.321-1.4 47.23.8 84.87-8.6-97.14c9.3-16.86 2.2-39.69 5.7-55.239-92.1 1.696-184.1.685-276.2-.314z"
       overflow="visible"
       color="#000"
       fill="#ebc893"
       fill-rule="evenodd"
       stroke="#e0aa58"
       enable-background="accumulate"
       id="path6" /><path
       d="M196.6 1.203c-2.5 11.327-4.8 22.707-10.2 33.387-7-10.68-12.6-20.91-16.7-31.99L2.494 4.336C13 104.9 10.86 175.3 1.979 278.3L15.4 295.5l-9.494 6.3L2.6 462.7l1.019 45.9 112.681 3.1c.5-2.1-7.9-2.3-7.4-4.5L5.244 504.5l-.914-47.3 4.63-153.7 12.42-9-13.093-16.8C16.95 177.3 16.36 104 6.113 5.992l162.687.164c4 10.804 10.3 24.254 17.1 34.664 5.3-10.41 9.5-25.97 12-37.02 89.8.974 173.8 3.521 263.6 1.867 4.6 1.226 10.6.431 11.3-4.149-92.1 1.696-184.1.684-276.2-.315zm296.9.158l-15.1.116-.6 6.277 13.5-2.557c4.6 7.533 9.7 12.383 16.6 18.943l-4.6 389.06-19.9 9.9 4.1-.6 18.2-4.2 5.8-395.47c-7-6.73-13.3-13.748-18-21.469zm9.6 435.739l3.5 69.7-177.7.1c.4 2.1-4.1.2-3.7 2.3l185.2.4-4.6-78.2zm-370 25.1c-1 2.2-2.9.4-3.7 2.6 4.2 14 5.8 29.5 7.1 44l158 .3c1.9-5 .8-9.7 4.3-14.4 5.1 4.5 7.8 9.5 10.6 14.5.8-10.1 3.9-19.8 7-29.5 1.8 3.4 3.2 7 4.3 10.6-1.4-5.6-2.4-8.3-5.1-13.4-3 9.4-6.7 16.2-7.5 26-2.7-4.9-5.4-9.7-10.4-14.1-3.4 4.6-6.2 9.1-8 14l-147.6 3.4c-3.4-14.6-7.1-30.3-9-44z"
       overflow="visible"
       color="#000"
       opacity=".527"
       fill="#c87137"
       fill-rule="evenodd"
       filter="url(#a)"
       enable-background="accumulate"
       id="path7" /><path
       d="M200.1 16.1c-2.3 10.67-10.5 21.38-15.6 31.44-6.6-10.06-13.9-19.69-17.7-30.12L17.34 19.05C24.61 113.6 7.605 179.3 16.85 277l18.26 20.1L10.34 309l7.1 141.6.96 43.3 90.2 3.4c3.4-15.2 15-35.6 21.3-49.6 4.3 13.6 15.4 36.7 16.6 50.9l45.1.8 13.8-18.7 14.4 22.2 68.7-8.6c1.8-4.7 4.5-9.1 7.8-13.5 4.8 4.2 7.4 8.9 10 13.6.8-9.5 7.7-19.6 10.6-28.7 4.5 8.6 19.9 28.9 33.1 33.9l114.6 5.6 22.3-14.7 19.4 14.7-14.5-67.6-34.6-14.2 37.5-15.1 2.1-96.9-14.5-21.9 15.2-13.4 5.1-239.63c-5.2-21.09-11.8-24.89-16.9-20.22l-4.2 2.11 2 19.14.7 44.47-7.1 124.23-18.3-137.78c8.8-15.88-3.9-35.38-.6-50.02-67.1 1.24-140.4-13.332-202.8-3.28-14 2.25-23.7 21.31-36.9 24.48-4.3 1.03-13.9-23.45-18.4-23.5z"
       overflow="visible"
       enable-background="accumulate"
       filter="url(#b)"
       fill-rule="evenodd"
       fill="#f6e7d0"
       color="#000"
       id="path8" /><path
       d="M354 27.39l-70.3 96.91 46.4 97.6-56.2 43.6 33 74.4-30.2 63.2 69.8 48.8 31.6 29.5 31.6-13.3L365.9 335l55.5-36.5 2.1-146.1-56.9-101.83zM116.6 55.48L89.9 123.6s33.7 65.3 35.8 68.8c2.1 3.6-7 118-7 118l42.8 73.8s9.9-82.9 7.1-83.6c-2.8-.7-29.5-42.1-29.5-42.1l23.8-84.3-36.5-37.2z"
       color="#000"
       overflow="visible"
       fill="#f2dbb9"
       fill-rule="evenodd"
       filter="url(#c)"
       enable-background="accumulate"
       id="path9" /><path
       d="M39.33 172.1l-5.62 108.1L74.45 328 42.84 464.9l96.96-39.3 30.2 42.9 74.4-38.7-80.8-169.9-60.4-16.9z"
       color="#000"
       overflow="visible"
       fill="#eed3a4"
       fill-rule="evenodd"
       enable-background="accumulate"
       filter="url(#d)"
       id="path10" /><path
       d="M266.9 66.72L324.5 191 434 221.2l21.8-111.6-41.4-68.86z"
       color="#000"
       overflow="visible"
       fill="#eed3a4"
       fill-rule="evenodd"
       enable-background="accumulate"
       filter="url(#e)"
       id="path11" /></svg><path
     id="path13"
     style="fill:#3e3126;fill-opacity:1;stroke-width:0.274522"
     d="m 284.85725,76.468815 c -0.32429,-0.102709 -0.68686,-0.106567 -1.02303,0.01062 -0.91898,0.320359 -1.10954,0.836663 -1.10954,2.996221 0,2.198304 -0.16717,2.455706 -1.12775,1.745518 -1.26193,-0.932993 -2.60982,-0.781058 -3.07667,0.346069 -0.31746,0.766389 -0.0552,1.259224 1.26133,2.375423 1.0452,0.886156 1.5646,1.32701 1.80775,1.592217 0.24315,0.265207 0.20979,0.354725 0.14722,0.540352 -0.0659,0.19538 -0.73912,1.011625 -1.49507,1.813822 -1.35166,1.434375 -1.90945,2.256797 -1.90945,2.81408 0,0.155178 0.2213,0.513034 0.49179,0.79535 0.33808,0.352891 0.69431,0.523325 1.09285,0.509995 0.39853,-0.01333 0.83921,-0.20938 1.34328,-0.590441 0.43277,-0.32714 0.88706,-0.670443 1.00937,-0.761957 0.12227,-0.09151 0.35747,-0.114796 0.52214,-0.05161 0.24371,0.09351 0.30053,0.398061 0.30053,1.631681 0.001,1.670194 0.34919,2.505926 1.13838,2.732116 0.60245,0.172656 0.62233,0.172069 1.1308,-0.02125 0.7344,-0.279211 1.02302,-1.238946 1.02302,-3.39845 0,-1.344406 0.0659,-1.906428 0.22919,-1.961053 0.12581,-0.0421 0.69096,0.239333 1.25678,0.625352 1.5055,1.027064 2.62274,0.922952 3.08274,-0.286873 0.37837,-0.995212 -0.0779,-1.57878 -2.99016,-3.823445 -0.36469,-0.281099 -0.66329,-0.612102 -0.66329,-0.734635 0,-0.122533 0.62302,-0.880541 1.38427,-1.684806 1.97999,-2.091838 2.32258,-3.017648 1.42525,-3.849249 -0.81362,-0.75406 -1.82985,-0.501024 -3.15255,0.787761 -0.13806,0.134499 -0.38403,0.219414 -0.54795,0.188212 -0.24001,-0.04568 -0.31701,-0.376606 -0.39615,-1.701502 -0.0575,-0.963298 -0.20821,-1.81446 -0.36277,-2.05364 -0.18171,-0.281209 -0.46802,-0.483179 -0.79231,-0.585887 z m -55.72304,31.181035 c -0.45399,-0.0761 -0.96825,0.0342 -1.40552,0.35366 -0.33683,0.24613 -0.37153,0.51817 -0.42803,3.40604 -0.0698,3.57051 -0.19092,3.85084 -1.15812,2.67747 -1.40637,-1.70617 -3.04418,-1.60203 -3.21782,0.20491 -0.0811,0.84391 -0.0386,0.94251 1.05642,2.41944 0.6278,0.8467 1.23374,1.65045 1.34633,1.7865 0.11258,0.13606 0.28638,0.34821 0.38704,0.47054 0.10067,0.12233 0.54231,0.69398 0.98053,1.27043 l 0.79687,1.04731 -0.7908,1.14901 c -1.75853,2.5528 -2.60392,3.88825 -3.1313,4.9512 -0.54444,1.09729 -0.54864,1.12655 -0.23983,1.69998 0.324,0.60161 0.9432,0.99267 1.57097,0.99267 0.19716,0 0.72373,-0.36971 1.17026,-0.82267 0.64205,-0.65127 0.96606,-0.97288 1.15204,-0.69213 0.18599,0.28074 0.23454,1.16283 0.3233,2.91729 0.0732,1.44643 0.15142,2.37431 0.27625,2.99318 0.12483,0.61888 0.29578,0.92976 0.55705,1.14142 0.21745,0.17616 0.59775,0.32027 0.84392,0.32027 0.28431,0 0.66332,-0.2549 0.97445,-0.58741 0.31113,-0.3325 0.55391,-0.74276 0.5616,-1.0549 0.006,-0.25437 0.001,-1.87152 -0.0106,-3.59273 -0.0156,-2.22675 0.0177,-3.43225 0.21402,-3.88264 0.19633,-0.45039 0.55616,-0.14536 1.19454,0.65267 0.38249,0.47813 1.05634,1.21906 1.49811,1.64686 0.68427,0.66263 0.91481,0.77755 1.55579,0.77258 0.52822,-0.004 0.8982,-0.0992 1.13382,-0.30509 0.23563,-0.20587 0.33648,-0.52272 0.32482,-0.9699 -0.0158,-0.60244 -0.26876,-1.05877 -1.5482,-2.78524 -0.84162,-1.13571 -1.5779,-2.10652 -1.63471,-2.15685 -0.4047,-0.35853 -1.82445,-2.40566 -1.82445,-2.63042 0,-0.15333 0.88711,-1.33262 1.97168,-2.62132 2.56817,-3.05155 2.60461,-3.10585 2.60461,-4.03898 0,-1.49546 -1.37581,-2.17531 -2.64256,-1.30534 -0.30821,0.21166 -0.9215,0.8752 -1.3615,1.47382 -0.4931,0.67088 -0.91059,1.06666 -1.08982,1.03214 -0.43874,-0.0845 -0.74647,-1.90786 -0.75588,-4.48371 -0.004,-1.25179 -0.0981,-2.43224 -0.21401,-2.68658 -0.19375,-0.42523 -0.58725,-0.68741 -1.04125,-0.76348 z m 114.38614,8.69269 c -0.3912,0.005 -0.78885,0.18776 -1.14749,0.54642 -0.47329,0.47322 -0.53429,0.66269 -0.53429,1.64079 0,0.91842 -0.0633,1.13808 -0.36731,1.30079 -0.25413,0.13593 -0.4737,0.1376 -0.71945,0.006 -1.05826,-0.56635 -2.39061,0.18748 -2.39061,1.3524 0,0.5155 0.24867,0.87518 1.60132,2.31319 0.88075,0.93633 1.59692,1.83208 1.59071,1.98989 -0.006,0.15782 -0.74715,1.2753 -1.64686,2.48319 -1.44209,1.9361 -1.63624,2.28496 -1.63624,2.95373 -9.1e-4,1.53114 1.02812,1.91717 2.76702,1.03668 0.53571,-0.27124 1.02488,-0.44138 1.0883,-0.37794 0.0635,0.0634 0.10409,1.92758 0.0895,4.14219 -0.0331,5.01822 0.0512,5.73093 0.76044,6.44021 0.61537,0.61538 0.89245,0.65649 1.59526,0.24133 0.97368,-0.57517 0.9786,-0.61147 0.94409,-6.75743 -0.0255,-4.53117 0.0172,-5.74032 0.20946,-5.89985 0.18561,-0.15405 0.45348,-0.002 1.15205,0.65874 1.92119,1.81591 2.2564,2.04605 2.99774,2.04605 0.95155,0 1.21533,-0.36223 1.17026,-1.61043 l -0.0364,-1.00329 -2.25095,-2.26311 c -1.23829,-1.24445 -2.27588,-2.36843 -2.30409,-2.49685 -0.0283,-0.12841 0.44295,-0.9083 1.04731,-1.73337 2.13776,-2.91843 2.33679,-3.40744 1.69088,-4.18014 -0.57414,-0.6868 -1.0905,-0.86532 -1.74249,-0.60259 -0.318,0.12815 -0.76468,0.42846 -0.99267,0.66785 -0.25225,0.2649 -0.5737,0.41332 -0.82266,0.37795 -0.36397,-0.0517 -0.41617,-0.17957 -0.46598,-1.1566 -0.0454,-0.89175 -0.14621,-1.1926 -0.53732,-1.60132 -0.33389,-0.34894 -0.71835,-0.52004 -1.10954,-0.51455 z m -214.09018,4.42755 c -0.31983,0.0471 -0.64157,0.22781 -0.94713,0.54035 -0.61471,0.62872 -0.81869,1.50006 -0.74982,3.20264 0.0249,0.61646 -0.0463,1.02368 -0.24285,1.25526 -0.0983,0.11579 -0.22899,0.1882 -0.39312,0.22009 -0.16413,0.0319 -0.36261,0.0241 -0.59955,-0.0197 -0.80784,-0.14933 -1.43681,0.14472 -1.70757,0.79838 -0.37256,0.89943 -0.0977,1.47053 1.37516,2.86113 0.74947,0.70764 1.36302,1.40969 1.36302,1.56035 10e-6,0.15065 -0.58649,0.84781 -1.3023,1.54971 -1.15506,1.13265 -1.84936,1.93385 -2.16141,2.56061 -0.31205,0.62675 -0.24198,1.07875 0.13357,1.51176 0.29165,0.33627 0.59133,0.50803 0.96838,0.51759 0.37706,0.01 0.83182,-0.14328 1.43436,-0.45687 0.59937,-0.31194 1.13112,-0.49887 1.1824,-0.41589 0.0513,0.083 0.14622,0.72127 0.21098,1.41767 0.16046,1.72532 0.39955,2.59121 0.7741,2.80952 0.17317,0.10093 0.62484,0.18662 1.0033,0.18973 1.16619,0.009 1.31037,-0.33122 1.41614,-3.33925 0.0427,-1.21497 0.0726,-1.86735 0.13357,-2.2206 0.061,-0.35327 0.15397,-0.40756 0.32482,-0.42956 0.2149,-0.0277 0.70493,0.25403 1.18847,0.68304 0.87499,0.77631 1.77989,1.28561 2.28436,1.28561 0.27187,0 0.6163,-0.25301 0.89249,-0.5874 0.27618,-0.33441 0.48419,-0.75003 0.48419,-1.0792 0,-0.51108 -0.23637,-0.82682 -1.64686,-2.19631 -0.90592,-0.87957 -1.64838,-1.71563 -1.64838,-1.85784 0,-0.14221 0.73772,-1.00576 1.63927,-1.91855 1.63695,-1.65734 1.97304,-2.23193 1.77132,-3.03569 -0.13734,-0.54716 -1.19406,-1.12846 -1.78346,-0.98053 -0.24345,0.0611 -1.04115,0.61333 -1.77132,1.22794 -0.9202,0.77458 -1.45222,1.09963 -1.7349,1.05945 -0.39888,-0.0567 -0.40984,-0.12503 -0.49937,-3.11613 -0.0833,-2.78424 -0.12363,-3.08172 -0.45687,-3.33318 -0.29665,-0.22383 -0.61515,-0.31122 -0.93499,-0.2641 z m 171.74086,2.06123 c -1.16576,0.23315 -1.76095,0.79875 -2.52722,2.40426 -0.40113,0.84046 -0.73008,1.69289 -0.73008,1.89427 0,0.20137 -0.0756,0.4131 -0.16848,0.47053 -0.0929,0.0574 -0.22662,0.36794 -0.2975,0.69062 -0.0709,0.32268 -0.19269,0.71391 -0.27017,0.8682 -0.18627,0.37073 -0.59115,1.43374 -1.18544,3.11613 -0.26667,0.75494 -0.60176,1.68224 -0.74526,2.05971 -0.14346,0.37746 -0.37867,0.99467 -0.52214,1.37213 -0.14346,0.37747 -0.47859,1.30478 -0.74526,2.05972 -0.62676,1.77438 -1.0036,2.75817 -1.2082,3.15407 -0.0903,0.17479 -0.16393,0.40865 -0.16393,0.52063 0,0.11197 -0.11655,0.46297 -0.25803,0.78016 -0.14149,0.31719 -0.39657,0.98875 -0.56768,1.49204 -0.17113,0.50329 -0.37335,1.07974 -0.44927,1.28106 -0.0759,0.20131 -0.38828,1.02525 -0.69366,1.83052 -0.30537,0.80527 -0.77594,2.08192 -1.04579,2.83685 -0.26983,0.75494 -0.6017,1.66035 -0.73767,2.01265 -0.13597,0.3523 -0.47007,1.25925 -0.74223,2.01418 -0.27216,0.75494 -0.60009,1.61962 -0.72856,1.9216 -0.12851,0.30197 -0.38008,0.9599 -0.55857,1.46319 -0.17849,0.50329 -0.48773,1.15305 -0.68758,1.44347 -0.34617,0.50303 -0.3751,0.51236 -0.61321,0.1867 -0.28795,-0.39379 -0.58677,-1.33419 -1.36454,-4.28335 -0.3053,-1.15757 -0.62272,-2.35122 -0.70428,-2.65319 -0.0815,-0.30199 -0.45713,-1.74463 -0.83482,-3.20417 -0.37768,-1.45954 -0.81024,-2.84297 -0.96078,-3.07515 -0.33909,-0.52296 -1.73247,-1.49963 -2.14016,-1.49963 -0.37591,0 -1.64926,1.23793 -1.81079,1.7607 -0.0659,0.2132 -0.2801,0.53252 -0.4766,0.71035 -0.34733,0.31433 -0.36726,0.29901 -0.72705,-0.54035 -0.20355,-0.47488 -0.37035,-0.93575 -0.37035,-1.02455 0,-0.0888 -0.1118,-0.51429 -0.24741,-0.94561 -0.13562,-0.43131 -0.46046,-1.4834 -0.72249,-2.339 -0.26206,-0.85559 -0.61723,-2.0085 -0.78928,-2.56211 -0.40453,-1.30177 -0.85833,-1.90098 -1.74552,-2.30105 -0.66942,-0.30181 -0.7598,-0.30253 -1.34329,-0.0243 -0.73229,0.34921 -1.06043,0.91467 -1.46472,2.52418 -0.48072,1.91374 -0.60691,2.39799 -0.91981,3.55174 -0.34928,1.28797 -0.78206,3.02469 -0.98356,3.94943 -0.0785,0.36005 -0.19837,0.74624 -0.26714,0.85758 -0.0688,0.11134 -0.20099,0.55814 -0.29447,0.99267 -0.0935,0.43452 -0.30319,1.36574 -0.46597,2.07034 -0.37525,1.62398 -0.28564,2.16506 0.60106,3.63523 l 0.71642,1.18999 0.1017,6.73922 c 0.11316,7.59424 0.16636,7.94407 1.44346,9.48955 1.038,1.2561 1.07756,1.36442 1.1475,3.14801 0.0779,1.98524 0.33345,2.60694 1.69087,4.11639 0.5899,0.65593 1.20592,1.55254 1.37061,1.99292 0.33489,0.89549 0.81002,5.25872 0.78018,7.17029 -0.0243,1.55992 -0.22527,2.27072 -1.99445,7.08225 -0.57369,1.56021 -1.10687,3.00134 -1.18543,3.20266 -0.49865,1.27731 -0.82019,2.1369 -1.74401,4.66736 -0.5696,1.56021 -1.11125,2.97928 -1.20365,3.15408 -0.0924,0.17477 -0.16696,0.41015 -0.16696,0.52213 0,0.11197 -0.11626,0.46299 -0.25803,0.78017 -0.14173,0.31719 -0.59996,1.52296 -1.01847,2.68052 -0.41854,1.15757 -0.84662,2.31198 -0.95017,2.56363 -0.10353,0.25162 -0.31149,0.8281 -0.46294,1.28106 -0.15148,0.45296 -0.3802,1.07015 -0.50848,1.37213 -0.12832,0.30197 -0.49865,1.29039 -0.82267,2.19632 -0.32401,0.90592 -0.66309,1.7893 -0.75437,1.96409 -0.0913,0.17479 -0.16696,0.41016 -0.16696,0.52213 0,0.11199 -0.11611,0.46299 -0.25804,0.78018 -0.1419,0.31717 -0.5209,1.31772 -0.8424,2.22363 -0.32149,0.90592 -0.6489,1.81132 -0.72705,2.01266 -0.31377,0.80811 -0.7216,1.87714 -1.03972,2.72302 -0.18859,0.50155 -0.7952,1.40437 -1.38578,2.06122 -1.34764,1.49881 -1.71262,2.31026 -1.41616,3.14952 0.32032,0.9067 1.67897,2.09414 2.66989,2.33141 1.0401,0.24907 0.9866,-0.42626 0.9866,12.25355 0,6.47189 -0.0497,11.89699 -0.11081,12.05622 -0.10036,0.26153 -2.07723,0.28991 -20.49239,0.28991 h -20.38007 l -0.20946,-0.39161 c -0.14501,-0.271 -0.16891,-0.98904 -0.0774,-2.3314 0.1299,-1.90604 0.14447,-1.94967 0.76651,-2.53632 0.34814,-0.32835 0.74384,-0.59651 0.88035,-0.59651 0.33094,0 1.00633,-0.87751 1.00633,-1.30686 0,-0.18803 -0.52832,-0.87272 -1.17482,-1.5224 -1.1129,-1.11841 -1.1811,-1.23804 -1.28713,-2.24185 -0.0616,-0.58314 -0.18912,-1.67817 -0.28231,-2.43311 -0.0932,-0.75493 -0.2982,-2.81324 -0.45687,-4.57477 -0.1587,-1.76151 -0.36563,-3.73834 -0.45839,-4.39264 -0.0928,-0.65426 -0.21563,-1.7257 -0.27322,-2.37997 -0.0576,-0.6543 -0.18192,-1.84794 -0.27776,-2.65319 -0.0958,-0.80526 -0.30212,-2.78211 -0.45687,-4.39263 -0.15475,-1.61055 -0.35685,-3.54512 -0.4508,-4.30006 -0.0939,-0.75493 -0.2194,-1.95011 -0.27777,-2.6547 -0.0584,-0.70461 -0.18291,-1.89825 -0.27776,-2.6532 -0.0949,-0.75493 -0.30403,-2.64878 -0.46446,-4.20897 -0.16041,-1.56021 -0.4097,-3.86603 -0.55401,-5.12423 -0.14432,-1.25823 -0.26259,-2.57105 -0.26259,-2.9173 3.1e-4,-0.34624 -0.0769,-1.08869 -0.17303,-1.64838 -0.15473,-0.90149 -0.5925,-4.87913 -0.84696,-7.69698 -0.14714,-1.6295 -0.47687,-2.70346 -1.03972,-3.3863 -0.58734,-0.71254 -0.97221,-0.78194 -1.90034,-0.34151 -0.80042,0.37982 -1.04835,0.97954 -1.31445,3.17835 -0.11571,0.95625 -0.3385,2.60413 -0.49482,3.66104 -0.15634,1.05691 -0.36138,2.4573 -0.45535,3.11158 -0.094,0.65427 -0.29919,2.05315 -0.45687,3.11006 -0.15766,1.05691 -0.40623,2.78626 -0.55249,3.84318 -0.1463,1.0569 -0.34675,2.45728 -0.44625,3.11158 -0.68424,4.49988 -1.26149,8.51673 -1.47231,10.24847 -0.10415,0.8556 -0.22837,1.68292 -0.27625,1.8381 -0.0478,0.15519 -0.16664,0.85536 -0.2641,1.55579 -0.0975,0.70041 -0.30383,2.13815 -0.45839,3.19506 -0.15456,1.05691 -0.3662,2.62178 -0.46901,3.47738 -0.10278,0.85558 -0.22769,1.69245 -0.27929,1.85936 -0.0515,0.16693 -0.17135,0.90788 -0.26561,1.64685 -0.19572,1.5345 -0.57961,4.27229 -1.00937,7.20065 -0.16249,1.10723 -0.36598,2.58911 -0.45232,3.29372 -0.38111,3.11028 -0.5285,3.61799 -1.27195,4.39263 -0.38645,0.40262 -0.7549,0.90962 -0.81964,1.12624 -0.14868,0.49708 0.38843,1.13677 1.6332,1.94436 l 0.91526,0.59347 0.0516,2.12195 c 0.0409,1.68944 -0.003,2.16718 -0.21704,2.34507 -0.19892,0.16507 -2.83876,0.26383 -10.11794,0.38249 -5.41641,0.0883 -11.57712,0.21132 -13.69094,0.2717 -2.11382,0.0604 -8.41406,0.18336 -14.00058,0.27472 -5.58653,0.0914 -13.85093,0.25543 -18.36438,0.36429 -4.51344,0.10882 -8.36224,0.14752 -8.55456,0.0865 -0.33352,-0.10583 -0.35062,-0.35205 -0.35062,-5.32762 v -5.21834 l 0.55553,-0.55402 c 1.81352,-1.81352 1.90543,-2.55784 0.50696,-4.07085 -1.01139,-1.09421 -1.20916,-1.54556 -1.69391,-3.85684 -0.16889,-0.80525 -0.37724,-1.75293 -0.46295,-2.10525 -0.0857,-0.3523 -0.21055,-1.01024 -0.27776,-1.4632 -0.0672,-0.45296 -0.19345,-1.11243 -0.2808,-1.46472 -0.17663,-0.71233 -0.53583,-2.41741 -1.11562,-5.30637 -0.34329,-1.71069 -0.624,-3.0728 -1.05945,-5.12576 -0.20987,-0.98959 -0.71223,-1.81433 -1.16267,-1.91248 -1.26247,-0.27513 -1.94345,-0.15919 -2.48774,0.42348 -0.58751,0.6289 -0.71854,1.06823 -2.21757,7.43743 -0.30799,1.30855 -0.6358,2.6682 -0.72856,3.0205 -0.15393,0.5847 -0.26223,1.00814 -0.74223,2.92792 -0.0881,0.3523 -0.29059,1.17622 -0.4508,1.83052 -0.16021,0.65427 -0.41539,1.68344 -0.56615,2.28739 -0.15075,0.60395 -0.32285,1.30414 -0.3825,1.55579 -0.0597,0.25163 -0.55052,1.1215 -1.09133,1.93373 -0.54081,0.81221 -0.98356,1.65885 -0.98356,1.8806 0,0.22177 0.35086,0.78216 0.77865,1.24616 l 0.77714,0.84392 v 3.5897 c 0,5.94828 -0.2769,24.50088 -0.37946,25.42386 -0.0979,0.88154 -0.54892,2.76772 -0.81812,3.42273 -0.0827,0.20134 -0.27015,0.65404 -0.41589,1.00633 -0.14577,0.3523 -0.44959,1.09474 -0.67544,1.64838 -0.22582,0.55362 -0.55517,1.33531 -0.73312,1.73793 -0.17794,0.40264 -0.37332,0.88232 -0.4341,1.06553 -0.17679,0.53298 -0.87826,0.31455 -1.07311,-0.33393 -0.0907,-0.30198 -0.23835,-0.71395 -0.32938,-0.91526 -0.35984,-0.79581 -2.18721,-6.51352 -2.18721,-6.84396 0,-0.41101 -0.93272,-1.25142 -1.56489,-1.41007 -0.947,-0.2377 -2.27829,1.21421 -2.27829,2.48319 0,0.19334 -0.0771,0.39792 -0.16999,0.45535 -0.0929,0.0574 -0.22663,0.36795 -0.2975,0.69062 -0.0709,0.32268 -0.19692,0.71393 -0.2808,0.86821 -0.0839,0.15428 -0.31987,0.93875 -0.52366,1.744 -0.93348,3.68876 -1.45371,5.16163 -2.3906,6.77109 l -0.63901,1.09892 -0.0182,4.75844 c -0.01,2.61713 -0.1139,5.49938 -0.23072,6.4053 -0.11682,0.90592 -0.29424,2.88276 -0.39464,4.39263 -0.1004,1.50987 -0.30425,4.22766 -0.45231,6.03949 -0.14807,1.81185 -0.35158,4.57038 -0.45384,6.13058 -0.10226,1.56018 -0.23635,3.20806 -0.2975,3.66103 -0.0611,0.45296 -0.18246,1.93484 -0.27017,3.29372 -0.13754,2.13079 -0.31134,4.32942 -0.79535,10.06633 -0.0552,0.65427 -0.2277,2.91783 -0.3825,5.03165 -0.15479,2.11384 -0.40296,5.24355 -0.55097,6.95475 -0.14802,1.71119 -0.30564,3.56429 -0.35063,4.11791 -0.24554,3.02216 -0.4793,4.82548 -0.65419,5.0362 -0.23766,0.28636 -2.19099,0.40834 -9.887222,0.61928 -5.47658,0.15011 -5.608165,0.1629 -6.588954,0.62687 -0.866136,0.40975 -2.372389,1.82951 -2.372389,2.23578 0,0.23691 -0.747358,1.82234 -2.1948,4.65978 -1.487714,2.91636 -2.289254,5.27223 -3.008364,8.83536 -0.212686,1.05384 -0.28839,2.54468 -0.28839,5.73896 0,4.72175 -0.163021,5.81504 -1.285613,8.57733 -0.122724,0.30198 -0.290552,0.71243 -0.371871,0.91374 -0.08132,0.20134 -0.268048,0.65556 -0.415889,1.00785 -0.314245,0.74884 -1.00595,2.81252 -1.595252,4.75844 -0.228625,0.75493 -0.567768,1.85894 -0.75285,2.45435 -0.432984,1.3929 -0.424525,2.24809 0.02884,2.99167 0.709958,1.16439 2.069639,1.60501 3.456128,1.12168 0.601374,-0.20963 1.515253,-1.3486 1.747037,-2.17658 0.07045,-0.25163 0.194497,-0.62135 0.27473,-0.82268 0.08023,-0.2013 0.277572,-0.82002 0.438656,-1.37364 0.824469,-2.83359 1.309196,-4.21545 1.953463,-5.5629 0.780146,-1.63159 1.672003,-4.34745 1.991409,-6.06833 0.117335,-0.63216 0.209939,-3.19035 0.215534,-5.94843 0.01554,-7.62139 0.251295,-8.82786 1.818376,-9.27401 0.588218,-0.16746 3.847728,-0.28618 11.438461,-0.41437 26.44594,-0.44665 31.60306,-0.54178 39.07534,-0.7225 8.7249,-0.21099 30.13459,-0.64423 32.02344,-0.64812 1.80531,-0.004 1.72976,0.28509 -0.69669,2.66078 -1.10934,1.08614 -2.39781,2.44188 -2.86417,3.01444 -0.80048,0.98276 -2.65774,3.67809 -2.65774,3.85684 0,0.0454 -0.32898,0.60406 -0.7316,1.24159 -0.40264,0.63752 -0.73312,1.21438 -0.73312,1.28106 0,0.0666 -0.19673,0.43278 -0.43714,0.81356 -0.24036,0.38079 -0.92751,1.63451 -1.52846,2.78676 -1.5211,2.91642 -2.09034,3.91498 -2.2707,3.98586 -0.0854,0.0336 -0.15482,0.15892 -0.15482,0.27776 0,0.47923 -2.26015,2.66927 -4.04808,3.92362 -2.44001,1.71184 -5.05461,3.52279 -6.9244,4.79639 -0.81279,0.55362 -1.63395,1.13006 -1.82444,1.28105 -0.19049,0.15099 -1.31165,0.93419 -2.49079,1.73945 -3.65265,2.49458 -6.01518,4.23637 -6.48574,4.78272 -0.34477,0.40034 -0.46811,0.78473 -0.52214,1.62713 -0.0693,1.0803 -0.0554,1.11824 0.68,1.87605 1.47187,1.51668 2.98527,1.08289 7.26136,-2.07944 0.73709,-0.54512 1.38385,-0.99115 1.43739,-0.99115 0.0535,0 0.65564,-0.40304 1.33722,-0.89553 1.43729,-1.03857 4.2698,-3.02083 5.72227,-4.00407 0.5536,-0.37474 1.04855,-0.72811 1.09891,-0.78623 0.0503,-0.0582 0.62678,-0.46694 1.28106,-0.90768 1.82933,-1.2323 4.94213,-3.6113 5.827,-4.45335 1.10536,-1.05191 2.14775,-2.43796 3.56997,-4.74326 0.66922,-1.08475 1.21731,-1.99866 1.21731,-2.03239 0,-0.0337 0.33779,-0.67091 0.75133,-1.41462 0.41354,-0.74371 1.10483,-2.01035 1.53454,-2.8156 0.42968,-0.80526 0.9544,-1.75293 1.16722,-2.10526 0.21281,-0.35229 0.44468,-0.76426 0.51454,-0.91525 0.29473,-0.63709 1.66136,-2.55148 2.58186,-3.61702 1.92698,-2.23057 4.37101,-3.74379 7.36001,-4.55656 1.00036,-0.27202 1.88743,-0.31941 5.58111,-0.29446 4.48561,0.0302 8.26524,0.39613 11.07267,1.07159 2.32417,0.5592 4.73143,0.6976 8.19483,0.47205 3.67073,-0.23903 7.82134,-0.79321 9.74151,-1.30231 0.45296,-0.12011 1.31764,-0.34347 1.92159,-0.49633 0.60395,-0.15285 1.22486,-0.34321 1.37972,-0.42196 0.15486,-0.0787 0.62692,-0.20172 1.05035,-0.27321 0.42339,-0.0715 0.81594,-0.2056 0.87275,-0.2975 0.0568,-0.0919 0.3006,-0.16697 0.54036,-0.16697 0.23977,0 0.48292,-0.0755 0.54035,-0.16847 0.0574,-0.0929 0.36794,-0.22663 0.69062,-0.2975 0.3227,-0.0709 0.71237,-0.19315 0.86669,-0.2717 0.30277,-0.15414 2.68014,-1.11042 3.57603,-1.43891 1.54386,-0.56607 4.68095,-0.98854 6.51003,-0.87579 2.25802,0.13915 3.55613,0.98829 4.99825,3.26943 0.53241,0.84217 3.32573,4.81298 3.9039,5.54923 0.0791,0.10071 0.50643,0.67716 0.95017,1.28106 2.70198,3.67744 4.28623,5.28518 6.49029,6.58592 2.55385,1.50713 3.90769,1.89965 8.16751,2.36935 4.11673,0.45389 4.22174,0.47262 4.338,0.77562 0.11886,0.30979 -1.85708,4.27945 -2.58034,5.18343 -0.12078,0.15099 -0.379,0.58504 -0.57374,0.96383 -0.19478,0.37877 -0.54147,0.88944 -0.76955,1.13535 -0.22804,0.24594 -0.41437,0.50243 -0.41437,0.56919 0,0.22721 -2.75938,3.51772 -3.64282,4.34407 -1.1296,1.05663 -1.79597,1.3886 -4.79334,2.37997 -3.65952,1.21034 -7.08302,2.96972 -9.31197,4.78727 -3.72474,3.03727 -6.58448,7.23369 -8.166,11.98185 -1.01392,3.04412 -1.42407,5.25795 -1.71364,9.25277 -0.10216,1.4092 -0.27874,3.4431 -0.39312,4.52014 -0.19278,1.81503 -0.1823,2.00855 0.14723,2.65319 0.78489,1.53531 2.98733,1.81084 4.10576,0.51303 0.39757,-0.46135 0.89009,-2.17769 0.89553,-3.12373 0.002,-0.39602 0.0829,-1.05469 0.17759,-1.46471 0.0947,-0.41002 0.25926,-1.56295 0.3658,-2.56212 0.40618,-3.80988 0.93053,-6.36987 1.64838,-8.04001 0.41159,-0.95764 1.497,-3.18871 1.87301,-3.85077 1.49457,-2.63157 4.06982,-5.30536 6.55101,-6.80145 1.57927,-0.95223 3.47343,-1.88364 3.82952,-1.88364 0.10849,0 0.33975,-0.0778 0.51454,-0.17303 0.17479,-0.0953 0.72921,-0.29333 1.2325,-0.43867 2.60952,-0.75347 3.17917,-0.95053 3.93576,-1.36605 1.73577,-0.95331 2.90673,-1.95391 4.54746,-3.88416 1.59961,-1.88188 1.70428,-2.01203 2.22364,-2.78676 0.25166,-0.37537 0.51953,-0.68454 0.59499,-0.68454 0.0756,-7e-4 0.13661,-0.0962 0.13661,-0.2125 0,-0.11631 0.19149,-0.46564 0.425,-0.77714 0.48658,-0.64899 2.50292,-3.90312 2.50292,-4.03898 0,-0.0496 0.3305,-0.6278 0.73311,-1.28561 0.40265,-0.65784 0.7316,-1.23747 0.7316,-1.28713 1e-5,-0.20774 2.1839,-3.60709 3.40604,-5.30183 3.33229,-4.62081 7.33124,-8.3536 11.95302,-11.15614 1.98913,-1.20614 5.22977,-2.77897 7.15207,-3.47282 0.75493,-0.27249 1.57735,-0.58257 1.829,-0.68911 0.60035,-0.25413 1.98069,-0.62177 5.03316,-1.33721 2.46452,-0.57762 5.60523,-0.98704 7.63475,-0.99722 1.81552,-0.009 2.03,0.11877 2.72756,1.62864 0.21193,0.45867 0.59445,1.26409 0.84999,1.78953 0.45925,0.94432 1.73994,2.30012 3.33774,3.53354 0.45263,0.34941 0.98683,0.77451 1.18847,0.94562 0.20167,0.17109 1.23066,0.95429 2.28587,1.73945 3.11475,2.31768 3.57518,3.43951 3.55024,8.65625 -0.008,1.76506 -0.10845,3.52727 -0.22161,3.92514 -0.11293,0.39707 -0.29957,1.9277 -0.41588,3.40301 -0.40539,5.14262 0.27119,8.00167 2.65925,11.24114 1.18113,1.60225 1.82085,2.31589 4.58844,5.11513 2.80526,2.83735 3.92752,3.7851 5.12424,4.32585 2.49537,1.1276 3.92934,1.04668 4.89352,-0.27625 0.47922,-0.65734 0.53013,-0.85544 0.46446,-1.78954 -0.0843,-1.19859 -0.48673,-1.76382 -1.69694,-2.37694 -0.40264,-0.20396 -1.59392,-0.9961 -2.64712,-1.76069 -5.57846,-4.04975 -8.10885,-8.44907 -7.81537,-13.58773 0.39506,-6.91815 0.59414,-8.19951 1.49355,-9.59125 0.6104,-0.94452 2.12974,-2.46508 3.56997,-3.573 0.45296,-0.34844 1.77838,-1.41671 2.94613,-2.3739 1.1678,-0.95722 2.36142,-1.93266 2.65319,-2.16748 1.65496,-1.3321 4.85825,-3.26562 6.66181,-4.02077 2.18731,-0.91584 3.58617,-1.24618 7.50421,-1.77588 1.2371,-0.16727 2.66943,-0.45298 4.30005,-0.85757 0.80526,-0.1998 1.79369,-0.44198 2.19632,-0.53884 1.33904,-0.32209 3.87606,-1.16442 5.08477,-1.68784 0.38089,-0.16493 0.78074,-0.30053 0.88794,-0.30053 0.19955,0 0.55918,-0.1476 2.40578,-0.98508 0.58156,-0.26374 1.09081,-0.47812 1.13231,-0.47812 0.0415,0 0.84178,-0.35929 1.77891,-0.79839 2.88355,-1.35117 5.81356,-2.24712 9.57455,-2.9264 2.76154,-0.49875 3.99408,-0.64203 10.52321,-1.2249 1.05691,-0.0943 2.10022,-0.21418 2.31926,-0.26562 0.21904,-0.0514 1.12599,-0.17561 2.01418,-0.27624 0.88819,-0.10061 2.56113,-0.30925 3.71871,-0.46447 5.00412,-0.67087 6.05844,-0.6901 7.32056,-0.13205 1.19297,0.52747 1.90165,1.48833 2.9355,3.98282 0.0834,0.20133 0.2692,0.65403 0.41285,1.00633 0.14363,0.35229 0.36315,0.88802 0.48875,1.18999 0.24088,0.57934 0.59784,1.83763 1.03669,3.65951 0.14547,0.60395 0.37777,1.55165 0.51607,2.10525 0.13827,0.55364 0.38671,1.62353 0.55249,2.37847 0.16579,0.75494 0.37168,1.66187 0.45687,2.01417 0.0852,0.35232 0.2949,1.29847 0.4675,2.10373 0.35711,1.66598 0.54252,2.33937 1.3782,5.03317 0.32789,1.05691 0.66595,2.00049 0.75133,2.09614 0.0854,0.0956 0.15482,0.29013 0.15482,0.43258 0,0.14243 0.46744,1.21792 1.03972,2.38908 2.506,5.12852 5.91365,9.12706 10.93606,12.83336 1.40319,1.03552 2.66207,1.97363 2.79738,2.08552 0.13531,0.11188 0.34716,0.28639 0.47054,0.38705 2.10965,1.7212 5.6486,5.09775 6.90617,6.58896 1.77168,2.10078 3.7958,5.2049 4.94969,7.59376 0.96044,1.98834 2.19395,5.38812 2.45738,6.77262 0.067,0.35232 0.19248,0.88649 0.27929,1.18846 0.0868,0.30198 0.29296,1.2904 0.45839,2.19633 0.47072,2.57784 0.82955,4.18171 1.01392,4.52772 0.0932,0.17478 0.17,0.4498 0.17,0.61169 0,0.45043 0.72049,2.69262 0.97293,3.02809 0.123,0.16339 0.51008,0.47238 0.86062,0.68607 0.80072,0.48808 1.67645,0.49403 2.65622,0.0197 1.45483,-0.70429 1.65361,-1.8905 0.91526,-5.48701 -0.17564,-0.85561 -0.42785,-2.0915 -0.56008,-2.74578 -0.29775,-1.47316 -0.88604,-3.96329 -1.42677,-6.03949 -0.33286,-1.2782 -0.98022,-3.21444 -1.32356,-3.96157 -0.14577,-0.31719 -0.26411,-0.65197 -0.26411,-0.74375 0,-0.0918 -0.21285,-0.61538 -0.47204,-1.16266 -2.77559,-5.86045 -5.15466,-9.30949 -9.21331,-13.35853 -1.98235,-1.97766 -3.29578,-3.1094 -5.41415,-4.66281 -3.95466,-2.89992 -4.92281,-3.68835 -6.55555,-5.34281 -0.97047,-0.98339 -2.37018,-2.62578 -3.11007,-3.6489 -1.66418,-2.30121 -3.81507,-6.59631 -4.32584,-8.63804 -0.0916,-0.36613 -0.29949,-1.11752 -0.46143,-1.67114 -0.16194,-0.5536 -0.37026,-1.37756 -0.46294,-1.83052 -0.0927,-0.45296 -0.28754,-1.35989 -0.4341,-2.01418 -0.14655,-0.65426 -0.40517,-1.84793 -0.57527,-2.65319 -0.17012,-0.80528 -0.37494,-1.75143 -0.45383,-2.10373 -0.0789,-0.35228 -0.2414,-1.09475 -0.36125,-1.64837 -1.50751,-6.96389 -3.42584,-10.88523 -6.50244,-13.29175 -0.72767,-0.56919 -2.93358,-1.75245 -3.68836,-1.97775 -0.21718,-0.0648 -0.44876,-0.25448 -0.51302,-0.42196 -0.0643,-0.16748 -0.1968,-3.14936 -0.29447,-6.6269 -0.29602,-10.53776 -0.39163,-11.86849 -0.92588,-12.72863 -0.90207,-1.45225 -0.90477,-1.4972 -1.07767,-22.32746 -0.0894,-10.7704 -0.17953,-20.48861 -0.20036,-21.59586 -0.021,-1.10724 0.0261,-2.73607 0.10474,-3.62006 0.0907,-1.02019 0.0711,-1.88998 -0.0531,-2.37998 -0.82269,-3.24593 -1.21053,-4.93863 -1.32811,-5.80422 -0.1435,-1.05659 -0.49478,-3.48431 -0.99419,-6.86369 -0.16364,-1.10723 -0.37371,-2.58911 -0.46597,-3.29372 -0.61112,-4.6671 -0.8213,-5.29429 -2.03543,-6.06075 -0.69869,-0.44105 -0.80653,-0.45857 -1.45561,-0.24437 -0.38574,0.1273 -0.81662,0.36163 -0.95625,0.52214 -0.30298,0.34831 -0.59396,1.58858 -0.84391,3.58666 -0.10073,0.80528 -0.31235,2.24641 -0.47053,3.20265 -0.15822,0.95625 -0.34794,2.23291 -0.42045,2.83685 -0.14692,1.22369 -0.29158,1.55579 -0.67999,1.55579 -0.14504,0 -0.26999,-0.0203 -0.27777,-0.0455 -0.0315,-0.10316 -0.54245,-3.80318 -0.70124,-5.0787 -0.094,-0.75493 -0.21578,-1.49588 -0.27018,-1.64686 -0.0544,-0.15099 -0.18993,-1.05793 -0.30053,-2.01418 -0.1106,-0.95623 -0.32129,-2.6856 -0.46901,-3.84317 -0.14772,-1.15758 -0.34096,-2.77791 -0.42955,-3.60032 -0.0886,-0.82245 -0.20835,-1.64486 -0.26562,-1.82901 -0.0573,-0.18415 -0.18775,-0.99492 -0.28991,-1.80016 -0.10215,-0.80528 -0.31106,-2.28716 -0.46446,-3.29372 -0.15338,-1.00658 -0.35257,-2.32397 -0.44321,-2.92792 -0.46982,-3.12985 -0.64702,-3.87127 -1.06098,-4.43816 -0.35558,-0.48694 -0.55879,-0.595 -1.11713,-0.595 -1.36945,0 -1.86291,0.89778 -2.21756,4.02683 -0.097,0.85561 -0.30459,2.42048 -0.46143,3.47738 -0.29113,1.96204 -0.4673,3.3284 -0.82419,6.4053 -0.11089,0.95626 -0.27756,2.10915 -0.37035,2.56211 -0.0928,0.45296 -0.2189,1.39915 -0.27928,2.10374 -0.0605,0.70462 -0.18455,1.65228 -0.27625,2.10524 -0.0917,0.45297 -0.29646,1.93484 -0.45535,3.29372 -0.15889,1.35888 -0.36156,2.92376 -0.4508,3.47738 -0.0892,0.5536 -0.21228,1.46055 -0.27321,2.01418 -0.061,0.55363 -0.18736,1.54205 -0.2808,2.19632 -0.0934,0.65426 -0.29888,2.13613 -0.45687,3.29371 -0.15796,1.15758 -0.37237,2.69502 -0.47509,3.41666 -0.10273,0.72164 -0.26069,1.95754 -0.35214,2.74579 -0.0915,0.78823 -0.29692,2.33826 -0.45535,3.4455 -0.15846,1.10722 -0.36698,2.7132 -0.46446,3.56845 -0.0975,0.85524 -0.21639,1.67918 -0.2641,1.83051 -0.0477,0.15134 -0.16918,1.01567 -0.27018,1.92159 -0.101,0.90592 -0.30959,2.51154 -0.46294,3.56845 -0.15335,1.05691 -0.35975,2.58105 -0.45839,3.3863 -0.0986,0.80526 -0.29309,2.19274 -0.43258,3.08274 -0.40677,2.59514 -1.07465,2.83156 -1.87606,0.66482 -0.24116,-0.65199 -0.51304,-1.34994 -0.6041,-1.55124 -0.17147,-0.3792 -0.59133,-2.18414 -0.91526,-3.93425 -0.10248,-0.55362 -0.30722,-1.62503 -0.45384,-2.37997 -0.14665,-0.75494 -0.40244,-2.15533 -0.56919,-3.11158 -0.16678,-0.95627 -0.3784,-1.99042 -0.47053,-2.29953 -0.0921,-0.30911 -0.16848,-0.74047 -0.16848,-0.95776 0,-0.50356 -0.48011,-3.08337 -0.84695,-4.54897 -0.36097,-1.44217 -0.90134,-1.98382 -1.97624,-1.98382 -1.26952,0 -1.76816,0.67878 -2.11587,2.87631 -0.10008,0.63253 -0.31379,1.84921 -0.47356,2.70479 -0.15978,0.8556 -0.35777,1.98036 -0.44018,2.49838 -0.0824,0.518 -0.19679,1.09446 -0.255,1.28105 -0.0582,0.18662 -0.18911,0.87418 -0.29142,1.52847 -0.16631,1.06355 -0.3916,2.24493 -0.89705,4.71898 -0.0882,0.4318 -0.20323,0.82858 -0.25499,0.88034 -0.1925,0.19249 -0.22323,0.18825 -7.08985,-0.77258 -1.05691,-0.14788 -2.49807,-0.34063 -3.20265,-0.42955 -0.70461,-0.0889 -2.18649,-0.29515 -3.29372,-0.45839 -1.10725,-0.16325 -2.9196,-0.41068 -4.02683,-0.54946 -2.17347,-0.27235 -3.52458,-0.53937 -3.72024,-0.73463 -0.0677,-0.0675 -0.14255,-2.93719 -0.16696,-6.37646 -0.0243,-3.4393 -0.13239,-13.33545 -0.23981,-21.99202 -0.4056,-32.68168 -0.42565,-36.84794 -0.18063,-37.14312 0.12579,-0.15157 0.63574,-0.33003 1.13383,-0.39617 1.62923,-0.21612 2.71853,-1.37954 2.71542,-2.90363 -10e-4,-0.91531 -0.42149,-1.56861 -1.50721,-2.34051 -1.43815,-1.02249 -1.5865,-1.29222 -2.7807,-5.07566 -0.17473,-0.55362 -0.38178,-1.17083 -0.4599,-1.37213 -0.0781,-0.20134 -0.40884,-1.23049 -0.73615,-2.28739 -0.32729,-1.05692 -0.65929,-2.08608 -0.73768,-2.28739 -0.0784,-0.2013 -0.61462,-1.8492 -1.1915,-3.66104 -0.57688,-1.81185 -1.4803,-4.6111 -2.00659,-6.22163 -0.52626,-1.61054 -1.30578,-4.04009 -1.73337,-5.39897 -0.42762,-1.35888 -0.88441,-2.75928 -1.01544,-3.11158 -0.13103,-0.35231 -0.58409,-1.75269 -1.00634,-3.11157 -0.42226,-1.35889 -0.8496,-2.67627 -0.95016,-2.92792 -0.20317,-0.50851 -0.37685,-1.04199 -1.24615,-3.84318 -0.328,-1.05691 -0.66004,-2.08608 -0.73768,-2.28739 -0.0777,-0.20131 -0.61741,-1.84919 -1.19908,-3.66104 -0.58172,-1.81184 -1.48323,-4.61111 -2.00356,-6.22163 -0.52032,-1.61054 -1.29438,-4.04009 -1.72123,-5.39897 -0.42686,-1.35889 -0.89299,-2.74156 -1.03517,-3.07211 -0.14216,-0.33056 -0.25804,-0.72383 -0.25804,-0.87276 0,-0.14894 -0.0755,-0.41262 -0.16696,-0.58741 -0.0914,-0.17479 -0.63954,-1.80061 -1.21731,-3.61246 -0.57775,-1.81184 -1.35681,-4.2414 -1.73185,-5.39897 -1.22223,-3.77209 -2.6653,-8.26176 -3.73541,-11.62212 -0.57697,-1.81184 -1.11383,-3.4582 -1.19303,-3.65951 -0.0792,-0.20133 -0.53412,-1.60171 -1.01088,-3.11158 -0.47674,-1.50988 -0.93303,-2.91026 -1.01544,-3.11158 -0.0824,-0.20132 -0.60908,-1.80694 -1.17026,-3.56845 -2.56711,-8.05778 -2.48164,-7.83559 -3.42729,-8.87027 -0.99196,-1.08538 -2.21786,-1.66987 -3.12219,-1.489 z M 190.282,135.94548 c -0.40023,0.0742 -0.79996,0.27077 -1.1566,0.60713 -0.52228,0.4926 -0.65419,0.75258 -0.65419,1.29776 0,0.81214 0.41292,1.57617 1.07464,1.98685 1.33433,0.82811 3.13585,-0.19358 3.13585,-1.77891 0,-1.46222 -1.19903,-2.33543 -2.3997,-2.11283 z m 173.68824,6.94564 c -0.72465,0 -0.9484,0.0905 -1.4298,0.58285 -0.47713,0.48801 -0.57072,0.72673 -0.57072,1.45409 0,0.52018 0.12302,0.94428 0.36732,1.27196 0.2443,0.32768 0.61051,0.55924 1.0974,0.69214 0.8333,0.22743 0.72991,0.23579 1.45865,-0.12143 0.81962,-0.40174 1.13821,-1.02123 1.03972,-2.01873 -0.11624,-1.17718 -0.83796,-1.86088 -1.96257,-1.86088 z m -121.02366,12.81667 c -0.9267,-0.008 -1.70211,0.55692 -1.96408,1.43132 -0.17299,0.57732 -0.1509,0.80153 0.13356,1.404 0.18617,0.3944 0.54373,0.82159 0.79535,0.94866 1.00821,0.50912 2.21223,0.17278 2.76399,-0.77107 0.41969,-0.71788 0.42392,-1.34566 0.0121,-1.97016 -0.50211,-0.76149 -0.96261,-1.03654 -1.74096,-1.04275 z m -84.33437,1.79257 c -0.49438,-0.0453 -1.01984,0.0838 -1.34481,0.4083 -0.34006,0.33955 -0.36756,0.63562 -0.39919,4.15888 -0.0186,2.08569 -0.0408,3.89495 -0.047,4.02077 -0.0233,0.45462 -0.70565,0.21474 -1.1232,-0.39464 -0.58934,-0.86011 -1.28584,-1.22401 -2.3906,-1.24918 -0.56236,-0.0128 -0.94182,0.0713 -1.16268,0.27624 -0.22085,0.20496 -0.28249,0.53034 -0.20946,0.99723 0.094,0.60107 0.42632,1.11055 2.00507,3.06908 0.48684,0.60395 0.98243,1.22113 1.10044,1.37212 0.11799,0.15099 0.52278,0.65381 0.90008,1.11714 0.78913,0.9691 0.8133,1.09896 0.33089,1.77284 -0.19527,0.27272 -1.18369,1.84841 -2.19632,3.50014 -2.05746,3.35595 -2.18944,3.82248 -1.32659,4.64915 0.36957,0.35407 0.71701,0.51525 1.07463,0.48268 0.35762,-0.0326 0.72469,-0.25968 1.13231,-0.68455 0.70119,-0.73086 1.08181,-1.21345 1.41615,-1.79257 0.11163,-0.19336 0.3591,-0.35062 0.54946,-0.35062 0.32906,0 0.35369,0.28321 0.49026,5.76476 0.15909,6.38516 0.26003,7.04776 1.12927,7.43288 1.07505,0.47629 1.98708,-0.0783 2.22668,-1.35544 0.069,-0.36753 0.0306,-3.26024 -0.085,-6.42806 -0.20943,-5.73849 -0.19296,-6.03741 0.35214,-6.05164 0.0591,-0.002 0.51332,0.38705 1.00785,0.86517 1.21467,1.17436 1.77507,1.51026 2.52569,1.51026 0.43955,0 0.7426,-0.0991 0.93499,-0.32938 0.19239,-0.23025 0.27473,-0.59107 0.27473,-1.11713 0,-0.92468 -0.0617,-1.01561 -4.04506,-5.95146 -0.74828,-0.92719 -0.84727,-1.13992 -0.67847,-1.46472 0.10858,-0.20889 0.97913,-1.65008 1.93373,-3.20416 1.93758,-3.15438 2.18745,-3.91609 1.49508,-4.56112 -0.23162,-0.21578 -0.61481,-0.3916 -0.85151,-0.3916 -0.67283,0 -1.7699,0.64371 -2.31623,1.35999 -0.40171,0.52666 -0.95355,0.84717 -1.04579,0.60713 -0.01,-0.0252 -0.0769,-1.6104 -0.14875,-3.52291 -0.0786,-2.09423 -0.21645,-3.63604 -0.34759,-3.87657 -0.20333,-0.37294 -0.66676,-0.59367 -1.16115,-0.63901 z m 141.53275,4.58843 c -0.39712,0.015 -0.83162,0.18703 -1.16874,0.51 0.33712,-0.32297 0.77162,-0.49498 1.16874,-0.51 z m 4.49889,17.47341 c -0.37481,0.1865 -0.73061,0.52768 -0.9699,0.97446 0.23929,-0.44678 0.59509,-0.78796 0.9699,-0.97446 z m 59.84246,8.05216 c -0.1607,0.0639 -0.30943,0.20352 -0.5358,0.45687 -0.28421,0.3181 -0.52196,0.72095 -0.52973,0.89552 -0.007,0.17456 -0.0277,2.24678 -0.0455,4.60362 -0.0206,2.71722 -0.10187,4.30746 -0.22008,4.3471 -0.10254,0.0344 -0.62446,-0.26763 -1.16115,-0.67089 -0.53669,-0.40325 -1.14049,-0.73312 -1.34177,-0.73312 -0.20128,0 -0.65487,0.28907 -1.00785,0.64205 -0.48621,0.48622 -0.69847,0.80268 -0.43714,1.4116 0.26133,0.60891 0.99536,1.51107 2.40123,3.16773 2.17712,2.56552 2.19343,2.63393 1.00481,4.3213 -1.10569,1.56962 -1.92463,3.23421 -1.92463,3.91148 0,0.30625 0.12866,0.74013 0.28536,0.96383 0.24268,0.34653 0.45351,0.40678 1.42677,0.40678 0.64469,0 1.2391,0.0962 1.36302,0.22009 0.13856,0.13856 0.21857,0.83249 0.21857,1.88061 0,1.63156 0.19265,2.26908 0.81357,2.70024 0.10648,0.074 0.50566,0.13501 0.88794,0.13812 0.51703,0.002 0.80934,-0.11991 1.13989,-0.4766 0.42717,-0.46092 0.44656,-0.59487 0.49482,-3.43032 0.0564,-3.31192 0.13847,-3.48564 1.22338,-2.57275 0.3618,0.30442 0.79967,0.47537 1.22187,0.50544 0.42219,0.0301 0.82932,-0.0811 1.12775,-0.33848 0.80235,-0.69201 0.41858,-2.03612 -1.01088,-3.54264 -0.45636,-0.48099 -1.57012,-1.86289 -1.75462,-2.17658 -0.19709,-0.33511 -0.0211,-0.72456 1.10194,-2.44221 0.48712,-0.74498 0.92706,-1.43692 0.9775,-1.53758 0.0505,-0.10065 0.38614,-0.63709 0.74677,-1.19151 1.69625,-2.60775 1.94848,-3.43131 1.27348,-4.15584 -0.19689,-0.21133 -0.60704,-0.4399 -0.91223,-0.50697 -0.77818,-0.17093 -1.43532,0.34897 -2.48926,1.96713 -1.82892,2.80804 -2.09072,2.78166 -2.10828,-0.20491 -0.007,-1.17196 -0.0743,-3.32944 -0.14875,-4.79487 -0.15365,-3.02345 -0.35591,-3.54113 -1.47231,-3.76121 -0.27468,-0.0541 -0.44795,-0.0669 -0.60865,-0.003 z m -69.62344,2.96585 c -0.27304,0.27305 -0.69268,0.42629 -1.10044,0.44929 -0.40775,0.023 -0.80269,-0.0842 -1.02454,-0.32937 0.22185,0.24514 0.61679,0.35237 1.02454,0.32937 0.40776,-0.023 0.8274,-0.17624 1.10044,-0.44929 z m 16.39877,2.93855 c 0.18071,0.22973 0.27517,0.40615 0.32482,1.08526 -0.0496,-0.67911 -0.14411,-0.85553 -0.32482,-1.08526 z m 32.46817,2.2631 c -0.57105,0 -1.63644,1.01753 -1.81686,1.73642 -0.16043,0.63915 0.29137,1.54198 0.9866,1.97319 0.61959,0.38429 1.28353,0.39714 2.00355,0.038 0.50105,-0.24996 0.82315,-0.60966 0.98812,-1.00785 0.16497,-0.39819 0.17265,-0.83565 0.0455,-1.24159 -0.12711,-0.40595 -0.38978,-0.78017 -0.76499,-1.05339 -0.37521,-0.27321 -0.86263,-0.44473 -1.44195,-0.44473 z m -105.09238,7.34636 c -0.29068,0.0443 -0.55587,0.19462 -0.81357,0.45232 -0.46943,0.46941 -0.47878,0.5283 -0.5282,3.33925 l -0.0501,2.86266 -0.49178,0.0562 c -0.2701,0.0312 -0.73908,-0.0706 -1.04276,-0.22767 -1.26102,-0.6521 -2.40122,-0.009 -2.40122,1.35391 0,0.69683 0.0685,0.78943 1.14446,1.5816 0.62912,0.46316 1.37005,0.9603 1.64685,1.10347 0.27683,0.14316 0.50392,0.3857 0.50392,0.54035 0,0.15464 -0.56982,0.83632 -1.26587,1.51329 -0.9868,0.95978 -1.29533,1.38767 -1.39945,1.94284 -0.11838,0.63085 -0.0767,0.76017 0.36124,1.13686 0.50095,0.43084 0.65003,0.46545 2.12043,0.49786 l 0.82418,0.0182 0.0531,1.54516 c 0.0517,1.48716 0.0767,1.56784 0.67696,2.15078 0.35827,0.34793 0.70467,0.54175 1.02757,0.58285 0.32291,0.0411 0.62279,-0.0718 0.89098,-0.33999 0.46136,-0.46134 0.50398,-0.68663 0.68151,-3.66407 0.14185,-2.37889 0.16281,-2.47344 0.56312,-2.53025 0.23117,-0.0328 0.82152,0.19128 1.32963,0.50393 1.07426,0.66099 2.31227,0.76787 2.78676,0.24133 0.85367,-0.94729 0.46699,-2.02536 -1.07615,-3.00077 -1.2407,-0.78426 -1.38614,-1.17089 -0.67848,-1.8032 0.78211,-0.69879 1.5224,-1.72212 1.5224,-2.10373 0,-0.18234 -0.20921,-0.60745 -0.46597,-0.94409 -0.30341,-0.39781 -0.63691,-0.60149 -1.03518,-0.61169 -0.39827,-0.0102 -0.86186,0.1724 -1.42677,0.54794 -0.45466,0.30225 -0.79696,0.47522 -1.0458,0.52062 -0.24883,0.0454 -0.40401,-0.0364 -0.48267,-0.24134 -0.057,-0.14861 -0.0961,-1.46357 -0.0865,-2.92185 0.0191,-2.8935 -0.13568,-3.58419 -0.87731,-3.9221 -0.35926,-0.16369 -0.67467,-0.22492 -0.96535,-0.18063 z m -122.75856,8.26465 c -0.17977,0.003 -0.33012,0.0825 -0.59651,0.23983 -1.07381,0.63431 -1.21189,2.40462 -0.2641,3.39389 0.57817,0.60349 1.45441,0.69407 2.23881,0.23071 0.58287,-0.34431 1.12017,-1.21555 1.12017,-1.81534 0,-0.62627 -0.80739,-1.48316 -1.72882,-1.83506 -0.38048,-0.14529 -0.58977,-0.21738 -0.76955,-0.21403 z m 75.1666,7.31449 c -1.00341,0.13459 -1.40548,0.52119 -1.78043,1.71061 -0.25756,0.81704 -0.27028,1.08967 -0.082,1.71819 0.29844,0.99608 1.06904,1.82684 1.85329,1.99597 0.35084,0.0757 0.76123,0.1033 0.91222,0.0607 1.49524,-0.42226 1.90641,-0.98327 1.90641,-2.60158 0,-0.96775 -0.0831,-1.30984 -0.42651,-1.77436 -0.62867,-0.85033 -1.45399,-1.23416 -2.38302,-1.10954 z m 201.5953,1.04883 c -0.39865,0 -0.74667,0.18678 -0.99419,0.49785 -0.24752,0.31107 -0.39464,0.74667 -0.39464,1.24767 0,0.54518 0.13188,0.80669 0.65419,1.29927 0.50474,0.47605 0.81015,0.61624 1.34481,0.61624 0.38782,0 0.80343,-0.16543 1.12168,-0.40223 0.31826,-0.2368 0.54036,-0.54472 0.54036,-0.83329 0,-0.18598 0.0956,-0.43558 0.21402,-0.55401 0.45625,-0.45626 -1.42356,-1.8715 -2.48623,-1.8715 z m -78.57415,59.32943 c 0.36911,0.45933 0.55738,0.87735 0.56766,1.29472 0.0103,0.41736 -0.15731,0.83421 -0.50392,1.28864 0.34661,-0.45443 0.51421,-0.87128 0.50392,-1.28864 -0.0103,-0.41737 -0.19855,-0.83539 -0.56766,-1.29472 z m -73.41198,1.79712 c -0.28028,0 -0.59922,0.26274 -0.8849,0.68152 0.28568,-0.41878 0.60462,-0.68152 0.8849,-0.68152 z m 16.63859,0.3567 c 0.42101,0.009 0.83985,0.1491 1.08981,0.41741 -0.24996,-0.26831 -0.6688,-0.40843 -1.08981,-0.41741 z m 0,0 c -0.42101,-0.009 -0.84448,0.11439 -1.10195,0.37187 0.25747,-0.25748 0.68094,-0.38086 1.10195,-0.37187 z m -61.33754,0.45838 c 0.38994,0.17585 0.64276,0.39147 0.82268,0.78776 -0.17992,-0.39629 -0.43274,-0.61191 -0.82268,-0.78776 z m -31.22505,0.21553 c 0.34944,0.0976 0.69809,0.45096 0.96079,0.91071 -0.2627,-0.45975 -0.61135,-0.81307 -0.96079,-0.91071 z m 13.19005,0.20947 c -0.35472,0.49094 -0.61953,1.22769 -0.79536,2.21301 0.17583,-0.98532 0.44064,-1.72207 0.79536,-2.21301 z m -14.39826,0.0956 c -0.32897,0.25092 -0.53467,0.50356 -0.70883,1.05187 0.17416,-0.54831 0.37986,-0.80095 0.70883,-1.05187 z m 61.69879,0.0364 c 0.11208,-0.037 0.2312,-0.0356 0.36731,0.008 -0.27224,-0.0863 -0.47901,-0.007 -0.68758,0.21705 0.10429,-0.11193 0.20819,-0.18767 0.32027,-0.22464 z m -109.89332,9.28313 c 8.7e-4,5.7e-4 6.3e-4,0.002 0.002,0.003 -2.1e-4,-1.4e-4 -10e-4,1.3e-4 -0.002,0 -5.1e-4,-3.3e-4 5e-4,-0.003 0,-0.003 z m 211.991,54.32206 c -0.61117,0.22867 -1.19407,0.62818 -1.72427,1.1733 0.5302,-0.54512 1.1131,-0.94463 1.72427,-1.1733 z m 51.47762,0.55553 c 0.5552,0.59539 1.19287,1.67304 1.72883,2.83382 0.53596,1.16077 0.97093,2.40468 1.11865,3.33166 -0.14772,-0.92698 -0.58269,-2.17089 -1.11865,-3.33166 -0.53596,-1.16078 -1.17363,-2.23843 -1.72883,-2.83382 z m -38.07508,0.20947 c 0.51201,0.0912 0.9704,0.33004 1.39945,0.73919 -0.42905,-0.40915 -0.88744,-0.64797 -1.39945,-0.73919 z m -39.04194,0.13964 c -0.66476,0.28496 -1.29931,0.74508 -1.87302,1.34633 0.57371,-0.60125 1.20826,-1.06137 1.87302,-1.34633 z m 35.66019,1.20516 c -0.4551,0.68225 -0.86586,1.7273 -1.39186,3.37569 0.526,-1.64839 0.93676,-2.69344 1.39186,-3.37569 z m -19.08839,0.42045 c 0.5049,0.70443 0.93954,1.61967 1.32508,2.7731 -0.38554,-1.15343 -0.82018,-2.06867 -1.32508,-2.7731 z" /></svg>
