<?xml version="1.0" encoding="UTF-8" standalone="no"?>
<svg
   viewBox="0 0 512 512"
   style="height: 512px; width: 512px;"
   version="1.1"
   id="svg12"
   sodipodi:docname="manticore-shield.svg"
   inkscape:version="1.3.2 (091e20e, 2023-11-25)"
   xmlns:inkscape="http://www.inkscape.org/namespaces/inkscape"
   xmlns:sodipodi="http://sodipodi.sourceforge.net/DTD/sodipodi-0.dtd"
   xmlns="http://www.w3.org/2000/svg"
   xmlns:svg="http://www.w3.org/2000/svg">
  <sodipodi:namedview
     id="namedview12"
     pagecolor="#505050"
     bordercolor="#ffffff"
     borderopacity="1"
     inkscape:showpageshadow="0"
     inkscape:pageopacity="0"
     inkscape:pagecheckerboard="1"
     inkscape:deskcolor="#d1d1d1"
     inkscape:zoom="0.38758386"
     inkscape:cx="319.93076"
     inkscape:cy="109.65369"
     inkscape:window-width="1248"
     inkscape:window-height="767"
     inkscape:window-x="480"
     inkscape:window-y="39"
     inkscape:window-maximized="0"
     inkscape:current-layer="svg12" />
  <defs
     id="defs2">
    <radialGradient
       id="delapouite-viking-shield-gradient-0">
      <stop
         offset="0%"
         stop-color="#830000"
         stop-opacity="1"
         id="stop1" />
      <stop
         offset="100%"
         stop-color="#000"
         stop-opacity="1"
         id="stop2" />
    </radialGradient>
  </defs>
  <path
     d="M0 0h512v512H0z"
     fill="url(#pattern)"
     id="path2" />
  <svg
     version="1.1"
     id="svg11">
    <defs
       id="defs6">
      <filter
         id="b"
         x="-0.023338979"
         width="1.046678"
         y="-0.023448784"
         height="1.0468976"
         color-interpolation-filters="sRGB">
        <feGaussianBlur
           stdDeviation="4.823"
           id="feGaussianBlur2" />
      </filter>
      <filter
         id="a"
         x="-0.012011281"
         width="1.0240226"
         y="-0.011988317"
         height="1.0239766"
         color-interpolation-filters="sRGB">
        <feGaussianBlur
           stdDeviation="2.55"
           id="feGaussianBlur3" />
      </filter>
      <filter
         id="c"
         x="-0.11244604"
         width="1.2248921"
         y="-0.082623731"
         height="1.1652475"
         color-interpolation-filters="sRGB">
        <feGaussianBlur
           stdDeviation="15.63"
           id="feGaussianBlur4" />
      </filter>
      <filter
         id="e"
         x="-0.23758603"
         width="1.4751721"
         y="-0.24869778"
         height="1.4973956"
         color-interpolation-filters="sRGB">
        <feGaussianBlur
           stdDeviation="18.7"
           id="feGaussianBlur5" />
      </filter>
      <filter
         id="d"
         x="-0.21301439"
         width="1.4260288"
         y="-0.15141701"
         height="1.302834"
         color-interpolation-filters="sRGB">
        <feGaussianBlur
           stdDeviation="18.7"
           id="feGaussianBlur6" />
      </filter>
    </defs>
    <path
       d="M196.6 1.207c-2.5 11.323-4.8 22.703-10.2 33.383-7-10.68-12.6-20.91-16.7-31.988L2.494 4.338C13 104.9 10.86 175.3 1.979 278.3L15.4 295.5l-9.494 6.3L2.6 462.7l1.019 45.9 112.681 3.1c3.6-16.1 6.5-32.5 13.2-47.3 4.5 14.4 5.7 29.4 7 44.4l160 .3c.8-6.1.7-8.1 2.3-14.4 5.1 4.5 7.8 9.5 10.6 14.5.8-10.1 3.9-19.8 7-29.5 4.8 9.2 6.7 19.4 8.8 29.5l185.2.4-4.6-78.2-21.4-8.2 21.3-4.9 5.8-395.47c-7-6.73-13.3-13.744-18-21.465l-15.1.114-2.1 20.321-1.4 47.23.8 84.87-8.6-97.14c9.3-16.86 2.2-39.69 5.7-55.239-92.1 1.696-184.1.685-276.2-.314z"
       overflow="visible"
       color="#000"
       fill="#ebc893"
       fill-rule="evenodd"
       stroke="#e0aa58"
       enable-background="accumulate"
       id="path6" />
    <path
       d="M196.6 1.203c-2.5 11.327-4.8 22.707-10.2 33.387-7-10.68-12.6-20.91-16.7-31.99L2.494 4.336C13 104.9 10.86 175.3 1.979 278.3L15.4 295.5l-9.494 6.3L2.6 462.7l1.019 45.9 112.681 3.1c.5-2.1-7.9-2.3-7.4-4.5L5.244 504.5l-.914-47.3 4.63-153.7 12.42-9-13.093-16.8C16.95 177.3 16.36 104 6.113 5.992l162.687.164c4 10.804 10.3 24.254 17.1 34.664 5.3-10.41 9.5-25.97 12-37.02 89.8.974 173.8 3.521 263.6 1.867 4.6 1.226 10.6.431 11.3-4.149-92.1 1.696-184.1.684-276.2-.315zm296.9.158l-15.1.116-.6 6.277 13.5-2.557c4.6 7.533 9.7 12.383 16.6 18.943l-4.6 389.06-19.9 9.9 4.1-.6 18.2-4.2 5.8-395.47c-7-6.73-13.3-13.748-18-21.469zm9.6 435.739l3.5 69.7-177.7.1c.4 2.1-4.1.2-3.7 2.3l185.2.4-4.6-78.2zm-370 25.1c-1 2.2-2.9.4-3.7 2.6 4.2 14 5.8 29.5 7.1 44l158 .3c1.9-5 .8-9.7 4.3-14.4 5.1 4.5 7.8 9.5 10.6 14.5.8-10.1 3.9-19.8 7-29.5 1.8 3.4 3.2 7 4.3 10.6-1.4-5.6-2.4-8.3-5.1-13.4-3 9.4-6.7 16.2-7.5 26-2.7-4.9-5.4-9.7-10.4-14.1-3.4 4.6-6.2 9.1-8 14l-147.6 3.4c-3.4-14.6-7.1-30.3-9-44z"
       overflow="visible"
       color="#000"
       opacity=".527"
       fill="#c87137"
       fill-rule="evenodd"
       filter="url(#a)"
       enable-background="accumulate"
       id="path7" />
    <path
       d="M200.1 16.1c-2.3 10.67-10.5 21.38-15.6 31.44-6.6-10.06-13.9-19.69-17.7-30.12L17.34 19.05C24.61 113.6 7.605 179.3 16.85 277l18.26 20.1L10.34 309l7.1 141.6.96 43.3 90.2 3.4c3.4-15.2 15-35.6 21.3-49.6 4.3 13.6 15.4 36.7 16.6 50.9l45.1.8 13.8-18.7 14.4 22.2 68.7-8.6c1.8-4.7 4.5-9.1 7.8-13.5 4.8 4.2 7.4 8.9 10 13.6.8-9.5 7.7-19.6 10.6-28.7 4.5 8.6 19.9 28.9 33.1 33.9l114.6 5.6 22.3-14.7 19.4 14.7-14.5-67.6-34.6-14.2 37.5-15.1 2.1-96.9-14.5-21.9 15.2-13.4 5.1-239.63c-5.2-21.09-11.8-24.89-16.9-20.22l-4.2 2.11 2 19.14.7 44.47-7.1 124.23-18.3-137.78c8.8-15.88-3.9-35.38-.6-50.02-67.1 1.24-140.4-13.332-202.8-3.28-14 2.25-23.7 21.31-36.9 24.48-4.3 1.03-13.9-23.45-18.4-23.5z"
       overflow="visible"
       enable-background="accumulate"
       filter="url(#b)"
       fill-rule="evenodd"
       fill="#f6e7d0"
       color="#000"
       id="path8" />
    <path
       d="M354 27.39l-70.3 96.91 46.4 97.6-56.2 43.6 33 74.4-30.2 63.2 69.8 48.8 31.6 29.5 31.6-13.3L365.9 335l55.5-36.5 2.1-146.1-56.9-101.83zM116.6 55.48L89.9 123.6s33.7 65.3 35.8 68.8c2.1 3.6-7 118-7 118l42.8 73.8s9.9-82.9 7.1-83.6c-2.8-.7-29.5-42.1-29.5-42.1l23.8-84.3-36.5-37.2z"
       color="#000"
       overflow="visible"
       fill="#f2dbb9"
       fill-rule="evenodd"
       filter="url(#c)"
       enable-background="accumulate"
       id="path9" />
    <path
       d="M39.33 172.1l-5.62 108.1L74.45 328 42.84 464.9l96.96-39.3 30.2 42.9 74.4-38.7-80.8-169.9-60.4-16.9z"
       color="#000"
       overflow="visible"
       fill="#eed3a4"
       fill-rule="evenodd"
       enable-background="accumulate"
       filter="url(#d)"
       id="path10" />
    <path
       d="M266.9 66.72L324.5 191 434 221.2l21.8-111.6-41.4-68.86z"
       color="#000"
       overflow="visible"
       fill="#eed3a4"
       fill-rule="evenodd"
       enable-background="accumulate"
       filter="url(#e)"
       id="path11" />
  </svg>
  <path
     d="m 256.73356,77.05862 c -99.16142,0 -179.398268,80.23684 -179.398268,179.39826 0,99.16142 80.236848,179.39826 179.398268,179.39826 99.16142,0 179.39826,-80.23684 179.39826,-179.39826 0,-99.16142 -80.23684,-179.39826 -179.39826,-179.39826 z m 0,10.872622 c 92.99198,0 168.52564,75.533658 168.52564,168.525638 0,92.99198 -75.53366,168.52564 -168.52564,168.52564 -92.99198,0 -168.525646,-75.53366 -168.525646,-168.52564 0,-92.99198 75.533666,-168.525638 168.525646,-168.525638 z m 0,13.979078 c -6.04207,0 -12.00104,0.35725 -17.86216,1.0298 v 86.74566 c 5.70036,-1.52838 11.68806,-2.34771 17.86216,-2.34771 6.1741,0 12.1618,0.81933 17.86216,2.34771 v -86.74566 c -5.86112,-0.67255 -11.82009,-1.0298 -17.86216,-1.0298 z m -31.84125,3.28276 c -12.53613,2.61952 -24.51,6.75345 -35.72433,12.20529 v 107.21726 h 6.24011 c 6.56706,-12.58739 16.89683,-22.91793 29.48422,-29.48422 z m 63.6825,0 v 89.93833 c 12.58739,6.56706 22.91793,16.89683 29.48422,29.48422 h 6.24011 V 117.39837 c -11.21433,-5.45184 -23.1882,-9.58577 -35.72433,-12.20529 z m -113.38592,19.92641 c -13.42302,8.34396 -25.47067,18.68538 -35.72433,30.61575 v 85.5388 c 2.34538,-1.24569 4.38012,-2.29723 5.96907,-3.24625 2.24675,-1.34044 3.49478,-2.41761 4.05705,-3.18413 0.56382,-0.76652 0.84651,-1.29695 0.84651,-3.23849 v -6.98954 h 24.8517 z m 163.08934,0 v 99.49614 h 24.8517 v 6.98954 c 0,1.94154 0.30288,2.55507 0.87214,3.36896 0.57004,0.8139 1.74972,1.88718 3.78212,3.2416 1.6441,1.09658 3.79377,2.34771 6.21837,3.89628 V 155.73446 C 363.7489,143.80331 351.70125,133.46267 338.27823,125.11871 Z M 125.48548,174.76854 C 110.72201,198.46387 102.187,226.45 102.187,256.45688 c 0,30.00844 8.53501,57.99457 23.29848,81.68756 v -74.96207 c -0.50635,-0.35957 -1.01504,-0.72691 -1.52993,-1.10745 l -7.58754,-5.61804 7.58987,-5.61804 c 0.51489,-0.38054 1.02358,-0.74788 1.52993,-1.10745 v -74.96207 z m 262.49616,0 v 78.79389 l 2.89678,2.89445 -2.89678,2.89445 v 78.79311 c 14.76347,-23.69299 23.29848,-51.6799 23.29848,-81.68756 0,-30.00844 -8.53501,-57.99457 -23.29848,-81.68756 z m -131.24808,26.54861 c -30.53654,0 -55.13973,24.60319 -55.13973,55.13973 0,30.53654 24.60319,55.13973 55.13973,55.13973 30.53654,0 55.13973,-24.60319 55.13973,-55.13973 0,-30.53654 -24.60319,-55.13973 -55.13973,-55.13973 z m 0,23.29848 c 17.50259,0 31.84125,14.33866 31.84125,31.84125 0,17.50259 -14.33866,31.84125 -31.84125,31.84125 -17.50259,0 -31.84125,-14.33866 -31.84125,-31.84125 0,-17.50259 14.33866,-31.84125 31.84125,-31.84125 z m -93.65677,13.97909 c -0.58712,1.64176 -1.33888,3.19033 -2.32208,4.52767 -2.29101,3.11656 -5.20022,5.14585 -8.15757,6.91188 -3.55224,2.12016 -7.4229,4.04073 -11.59022,6.42261 4.16655,2.38188 8.03798,4.30245 11.59022,6.42261 2.95735,1.76603 5.86656,3.79532 8.15757,6.91188 0.9832,1.33734 1.73496,2.88591 2.32208,4.52767 h 26.88644 c -1.52993,-5.70036 -2.34848,-11.68806 -2.34848,-17.86216 0,-6.1741 0.81933,-12.1618 2.34771,-17.86216 h -26.88644 z m 93.65677,0 c -9.94845,0 -17.86216,7.91371 -17.86216,17.86216 0,9.94845 7.91371,17.86216 17.86216,17.86216 9.94845,0 17.86216,-7.91371 17.86216,-17.86216 0,-9.94845 -7.91371,-17.86216 -17.86216,-17.86216 z m 66.7711,0 c 1.52838,5.70036 2.34771,11.68806 2.34771,17.86216 0,6.1741 -0.81933,12.1618 -2.34771,17.86216 h 26.86547 c 0.5615,-1.59361 1.26977,-3.09714 2.17997,-4.39719 2.14811,-3.06919 4.85151,-5.10237 7.47881,-6.85442 3.32779,-2.21801 6.7053,-4.16266 10.10144,-6.61055 -3.39614,-2.44789 -6.77365,-4.39254 -10.10067,-6.61055 -2.62807,-1.75205 -5.33147,-3.78523 -7.47881,-6.85442 -0.91097,-1.30005 -1.61924,-2.80358 -2.18074,-4.39719 z m 50.4979,32.20625 c -2.4246,1.54935 -4.57427,2.80048 -6.21914,3.89706 -2.03163,1.35442 -3.21131,2.4277 -3.78212,3.2416 -0.56849,0.81544 -0.87137,1.42742 -0.87137,3.36896 v 6.98954 h -24.8517 v 99.49614 c 13.42302,-8.34396 25.47067,-18.68538 35.72433,-30.61575 z m -234.538,0.83875 v 85.5388 c 10.25366,11.93115 22.30131,22.27179 35.72433,30.61575 v -99.49614 h -24.8517 v -6.98954 c 0,-1.94154 -0.28269,-2.47197 -0.84651,-3.23849 -0.56305,-0.76652 -1.80952,-1.84369 -4.05705,-3.18413 -1.58895,-0.94902 -3.62446,-2.00056 -5.96907,-3.24625 z m 49.70342,16.65841 v 107.21726 c 11.21433,5.45184 23.1882,9.58577 35.72433,12.20529 v -89.93833 c -12.58739,-6.56706 -22.91793,-16.89683 -29.48422,-29.48422 z m 128.89105,0 c -6.56706,12.58739 -16.89683,22.91793 -29.48422,29.48422 v 89.93833 c 12.53613,-2.61952 24.51,-6.75345 35.72433,-12.20529 V 288.29813 Z m -79.18763,34.92985 v 86.74566 c 5.86112,0.67255 11.82009,1.0298 17.86216,1.0298 6.04207,0 12.00104,-0.35725 17.86216,-1.0298 v -86.74566 c -5.70036,1.52838 -11.68806,2.34771 -17.86216,2.34771 -6.1741,0 -12.1618,-0.81933 -17.86216,-2.34771 z"
     fill="#ffffff"
     fill-opacity="1"
     id="path12"
     style="fill:#aa4400;fill-opacity:1;stroke-width:0.776616" />
</svg>
