<?xml version="1.0" encoding="UTF-8" standalone="no"?>
<svg
   viewBox="0 0 512 512"
   style="height: 512px; width: 512px;"
   version="1.1"
   id="svg12"
   sodipodi:docname="manticore--shield-impact copy.svg"
   inkscape:version="1.4 (e7c3feb1, 2024-10-09)"
   xml:space="preserve"
   xmlns:inkscape="http://www.inkscape.org/namespaces/inkscape"
   xmlns:sodipodi="http://sodipodi.sourceforge.net/DTD/sodipodi-0.dtd"
   xmlns="http://www.w3.org/2000/svg"
   xmlns:svg="http://www.w3.org/2000/svg"><sodipodi:namedview
     id="namedview12"
     pagecolor="#505050"
     bordercolor="#ffffff"
     borderopacity="1"
     inkscape:showpageshadow="0"
     inkscape:pageopacity="0"
     inkscape:pagecheckerboard="1"
     inkscape:deskcolor="#d1d1d1"
     inkscape:zoom="0.10933869"
     inkscape:cx="-164.62608"
     inkscape:cy="-36.583574"
     inkscape:window-width="1728"
     inkscape:window-height="1051"
     inkscape:window-x="0"
     inkscape:window-y="38"
     inkscape:window-maximized="1"
     inkscape:current-layer="svg12" /><defs
     id="defs2"><radialGradient
       id="delapouite-shield-impact-gradient-0"><stop
         offset="0%"
         stop-color="#830000"
         stop-opacity="1"
         id="stop1" /><stop
         offset="100%"
         stop-color="#000"
         stop-opacity="1"
         id="stop2" /></radialGradient></defs><path
     d="M0 0h512v512H0z"
     fill="url(#pattern)"
     id="path2" /><svg
     version="1.1"
     id="svg11"><defs
       id="defs6"><filter
         id="b"
         x="-0.023338979"
         width="1.046678"
         y="-0.023448784"
         height="1.0468976"
         color-interpolation-filters="sRGB"><feGaussianBlur
           stdDeviation="4.823"
           id="feGaussianBlur2" /></filter><filter
         id="a"
         x="-0.012011281"
         width="1.0240226"
         y="-0.011988317"
         height="1.0239766"
         color-interpolation-filters="sRGB"><feGaussianBlur
           stdDeviation="2.55"
           id="feGaussianBlur3" /></filter><filter
         id="c"
         x="-0.11244604"
         width="1.2248921"
         y="-0.082623731"
         height="1.1652475"
         color-interpolation-filters="sRGB"><feGaussianBlur
           stdDeviation="15.63"
           id="feGaussianBlur4" /></filter><filter
         id="e"
         x="-0.23758603"
         width="1.4751721"
         y="-0.24869778"
         height="1.4973956"
         color-interpolation-filters="sRGB"><feGaussianBlur
           stdDeviation="18.7"
           id="feGaussianBlur5" /></filter><filter
         id="d"
         x="-0.21301439"
         width="1.4260288"
         y="-0.15141701"
         height="1.302834"
         color-interpolation-filters="sRGB"><feGaussianBlur
           stdDeviation="18.7"
           id="feGaussianBlur6" /></filter></defs><path
       d="M196.6 1.207c-2.5 11.323-4.8 22.703-10.2 33.383-7-10.68-12.6-20.91-16.7-31.988L2.494 4.338C13 104.9 10.86 175.3 1.979 278.3L15.4 295.5l-9.494 6.3L2.6 462.7l1.019 45.9 112.681 3.1c3.6-16.1 6.5-32.5 13.2-47.3 4.5 14.4 5.7 29.4 7 44.4l160 .3c.8-6.1.7-8.1 2.3-14.4 5.1 4.5 7.8 9.5 10.6 14.5.8-10.1 3.9-19.8 7-29.5 4.8 9.2 6.7 19.4 8.8 29.5l185.2.4-4.6-78.2-21.4-8.2 21.3-4.9 5.8-395.47c-7-6.73-13.3-13.744-18-21.465l-15.1.114-2.1 20.321-1.4 47.23.8 84.87-8.6-97.14c9.3-16.86 2.2-39.69 5.7-55.239-92.1 1.696-184.1.685-276.2-.314z"
       overflow="visible"
       color="#000"
       fill="#ebc893"
       fill-rule="evenodd"
       stroke="#e0aa58"
       enable-background="accumulate"
       id="path6" /><path
       d="M196.6 1.203c-2.5 11.327-4.8 22.707-10.2 33.387-7-10.68-12.6-20.91-16.7-31.99L2.494 4.336C13 104.9 10.86 175.3 1.979 278.3L15.4 295.5l-9.494 6.3L2.6 462.7l1.019 45.9 112.681 3.1c.5-2.1-7.9-2.3-7.4-4.5L5.244 504.5l-.914-47.3 4.63-153.7 12.42-9-13.093-16.8C16.95 177.3 16.36 104 6.113 5.992l162.687.164c4 10.804 10.3 24.254 17.1 34.664 5.3-10.41 9.5-25.97 12-37.02 89.8.974 173.8 3.521 263.6 1.867 4.6 1.226 10.6.431 11.3-4.149-92.1 1.696-184.1.684-276.2-.315zm296.9.158l-15.1.116-.6 6.277 13.5-2.557c4.6 7.533 9.7 12.383 16.6 18.943l-4.6 389.06-19.9 9.9 4.1-.6 18.2-4.2 5.8-395.47c-7-6.73-13.3-13.748-18-21.469zm9.6 435.739l3.5 69.7-177.7.1c.4 2.1-4.1.2-3.7 2.3l185.2.4-4.6-78.2zm-370 25.1c-1 2.2-2.9.4-3.7 2.6 4.2 14 5.8 29.5 7.1 44l158 .3c1.9-5 .8-9.7 4.3-14.4 5.1 4.5 7.8 9.5 10.6 14.5.8-10.1 3.9-19.8 7-29.5 1.8 3.4 3.2 7 4.3 10.6-1.4-5.6-2.4-8.3-5.1-13.4-3 9.4-6.7 16.2-7.5 26-2.7-4.9-5.4-9.7-10.4-14.1-3.4 4.6-6.2 9.1-8 14l-147.6 3.4c-3.4-14.6-7.1-30.3-9-44z"
       overflow="visible"
       color="#000"
       opacity=".527"
       fill="#c87137"
       fill-rule="evenodd"
       filter="url(#a)"
       enable-background="accumulate"
       id="path7" /><path
       d="M200.1 16.1c-2.3 10.67-10.5 21.38-15.6 31.44-6.6-10.06-13.9-19.69-17.7-30.12L17.34 19.05C24.61 113.6 7.605 179.3 16.85 277l18.26 20.1L10.34 309l7.1 141.6.96 43.3 90.2 3.4c3.4-15.2 15-35.6 21.3-49.6 4.3 13.6 15.4 36.7 16.6 50.9l45.1.8 13.8-18.7 14.4 22.2 68.7-8.6c1.8-4.7 4.5-9.1 7.8-13.5 4.8 4.2 7.4 8.9 10 13.6.8-9.5 7.7-19.6 10.6-28.7 4.5 8.6 19.9 28.9 33.1 33.9l114.6 5.6 22.3-14.7 19.4 14.7-14.5-67.6-34.6-14.2 37.5-15.1 2.1-96.9-14.5-21.9 15.2-13.4 5.1-239.63c-5.2-21.09-11.8-24.89-16.9-20.22l-4.2 2.11 2 19.14.7 44.47-7.1 124.23-18.3-137.78c8.8-15.88-3.9-35.38-.6-50.02-67.1 1.24-140.4-13.332-202.8-3.28-14 2.25-23.7 21.31-36.9 24.48-4.3 1.03-13.9-23.45-18.4-23.5z"
       overflow="visible"
       enable-background="accumulate"
       filter="url(#b)"
       fill-rule="evenodd"
       fill="#f6e7d0"
       color="#000"
       id="path8" /><path
       d="M354 27.39l-70.3 96.91 46.4 97.6-56.2 43.6 33 74.4-30.2 63.2 69.8 48.8 31.6 29.5 31.6-13.3L365.9 335l55.5-36.5 2.1-146.1-56.9-101.83zM116.6 55.48L89.9 123.6s33.7 65.3 35.8 68.8c2.1 3.6-7 118-7 118l42.8 73.8s9.9-82.9 7.1-83.6c-2.8-.7-29.5-42.1-29.5-42.1l23.8-84.3-36.5-37.2z"
       color="#000"
       overflow="visible"
       fill="#f2dbb9"
       fill-rule="evenodd"
       filter="url(#c)"
       enable-background="accumulate"
       id="path9" /><path
       d="M39.33 172.1l-5.62 108.1L74.45 328 42.84 464.9l96.96-39.3 30.2 42.9 74.4-38.7-80.8-169.9-60.4-16.9z"
       color="#000"
       overflow="visible"
       fill="#eed3a4"
       fill-rule="evenodd"
       enable-background="accumulate"
       filter="url(#d)"
       id="path10" /><path
       d="M266.9 66.72L324.5 191 434 221.2l21.8-111.6-41.4-68.86z"
       color="#000"
       overflow="visible"
       fill="#eed3a4"
       fill-rule="evenodd"
       enable-background="accumulate"
       filter="url(#e)"
       id="path11" /></svg><path
     id="path47"
     style="fill:#aa4400;fill-opacity:1;stroke-width:4.3615"
     d="m 66.6706,406.35266 c 8.9646,22 13.7987,27.49366 36.4031,37.14732 l 4.1508,-4.09333 -0.067,-0.0126 c 5.9537,-5.61764 12.3439,-11.77247 19.2317,-18.6923 l 38.1198,-38.29963 -18.7085,-18.36334 -18.7103,-18.35973 -40.2788,40.44787 z m 58.7123,-91.14071 c -0.63,6.56165 9.0824,20.18648 28.8079,40.19797 28.6838,29.0994 45.1182,37.00317 45.1182,21.69445 0,-9.92557 -56.6667,-66.39922 -66.6257,-66.39922 -4.5903,0 -7.014,1.52423 -7.3004,4.5068 z m 29.696,-7.57904 23.057,23.34292 c 12.6797,12.83939 24.1023,23.24858 25.3833,23.13078 1.2814,-0.11767 9.1434,-5.02366 17.4717,-10.90294 9.3279,-6.5854 21.2001,-10.68903 30.9201,-10.68903 12.9624,0 16.7693,-2.14065 21.3206,-11.99413 22.7163,-49.18135 61.4584,-141.93384 59.9257,-143.46587 -0.065,-0.065 -0.2629,-0.0695 -0.5896,-0.018 v 0.002 c -4.9014,0.77644 -38.5318,14.34576 -78.1777,31.60326 l -76.8922,33.46926 v 16.24206 c 0,10.25197 -4.1325,22.33931 -11.2068,32.76456 z m 40.2339,-157.21274 c 0.01,0.70484 0.16,1.44944 0.4584,2.23093 0.8218,2.15191 2.6022,3.36526 4.9382,3.36526 3.1082,0 48.4572,-7.51742 49.679,-8.23519 1.3893,-0.81617 2.6246,-2.99685 2.6246,-4.63442 0,-0.66019 -0.3292,-1.82081 -0.7316,-2.57968 -0.9628,-1.81541 -11.2897,-8.34441 -15.0844,-9.5367 -5.1854,-1.6293 -10.8994,-1.4111 -15.8699,0.60582 -2.8782,1.1678 -23.6973,14.24411 -24.8404,15.60208 -0.7942,0.94327 -1.1861,2.00715 -1.1739,3.1819 z m 12.9559,-76.967791 c 0,1.70453 1.3725,3.71515 3.0003,4.39534 0.7712,0.32218 17.2952,6.44099 36.7195,13.59767 19.4244,7.15672 36.0779,13.317501 37.0071,13.691151 3.5973,1.44642 6.4433,6.43461 5.8227,10.20545 -0.4644,2.81999 -1.0742,3.81792 -6.6461,10.86879 -2.9657,3.75313 -5.6859,7.39023 -6.0438,8.08238 -1.5533,3.00388 0.014,7.68755 3.119,9.32278 1.7045,0.89762 1.2733,0.91457 43.8347,-1.66465 20.1459,-1.22087 37.3353,-2.1115 38.1972,-1.97925 5.0268,0.77131 9.3369,4.7853 10.493,9.77221 0.2999,1.29361 -0.1524,11.36806 -1.8264,40.77503 -1.2229,21.48106 -2.1026,39.69473 -1.9559,40.47662 0.7316,3.89941 5.6948,6.456 9.454,4.86813 0.7009,-0.29604 4.3819,-2.982 8.1795,-5.9683 3.7975,-2.9863 7.4511,-5.72558 8.1183,-6.08696 0.8211,-0.44481 2.1824,-0.65983 4.2138,-0.66514 2.6561,-0.007 3.2224,0.13033 4.9364,1.19006 1.0652,0.65853 2.4264,1.90601 3.0237,2.77203 0.6334,0.91822 6.7934,17.08393 14.7788,38.78321 7.5314,20.46554 13.9987,37.55244 14.3707,37.97065 1.8706,2.10324 5.2745,2.11802 7.2356,0.0306 l 0.9636,-1.02648 0.065,-112.33 c 0,-88.15275 -34.6811,-122.030291 -121.8631,-122.030291 -122.0262,0 -112.7822,-0.19888 -114.3974,2.45024 -0.4395,0.72093 -0.7999,1.8454 -0.7999,2.49877 z M 357.9491,313.42145 c 0.01,2.71024 2.515,4.94903 5.5441,4.94903 3.0331,0 3.4198,-0.43473 10.8472,-12.20806 7.2676,-11.51987 8.5531,-13.9281 9.2958,-17.41057 0.6079,-2.84984 0.5207,-8.13101 -0.1779,-10.72857 -0.3158,-1.17413 -0.9071,-2.88718 -1.3141,-3.80749 -1.221,-2.76015 -6.7097,-11.16092 -8.0033,-12.24941 -2.3832,-2.00528 -6.8908,-0.96021 -8.0519,1.866 -0.5581,1.35847 -8.1445,47.57487 -8.1399,49.58907 z" /></svg>
