<?xml version="1.0" encoding="UTF-8" standalone="no"?>
<svg
   viewBox="0 0 512 512"
   style="height: 512px; width: 512px;"
   version="1.1"
   id="svg11"
   sodipodi:docname="manticore--drum.svg"
   inkscape:version="1.4 (e7c3feb1, 2024-10-09)"
   xmlns:inkscape="http://www.inkscape.org/namespaces/inkscape"
   xmlns:sodipodi="http://sodipodi.sourceforge.net/DTD/sodipodi-0.dtd"
   xmlns="http://www.w3.org/2000/svg"
   xmlns:svg="http://www.w3.org/2000/svg">
  <defs
     id="defs11" />
  <sodipodi:namedview
     id="namedview11"
     pagecolor="#505050"
     bordercolor="#ffffff"
     borderopacity="1"
     inkscape:showpageshadow="0"
     inkscape:pageopacity="0"
     inkscape:pagecheckerboard="1"
     inkscape:deskcolor="#d1d1d1"
     inkscape:zoom="0.41334343"
     inkscape:cx="639.90372"
     inkscape:cy="360.47507"
     inkscape:window-width="1728"
     inkscape:window-height="1051"
     inkscape:window-x="0"
     inkscape:window-y="38"
     inkscape:window-maximized="1"
     inkscape:current-layer="svg11" />
  <path
     d="M0 0h512v512H0z"
     fill="url(#pattern)"
     fill-opacity="1"
     id="path1" />
  <svg
     version="1.1"
     id="svg10">
    <defs
       id="defs5">
      <filter
         id="b"
         x="-0.023338979"
         width="1.046678"
         y="-0.023448784"
         height="1.0468976"
         color-interpolation-filters="sRGB">
        <feGaussianBlur
           stdDeviation="4.823"
           id="feGaussianBlur1" />
      </filter>
      <filter
         id="a"
         x="-0.012011281"
         width="1.0240226"
         y="-0.011988317"
         height="1.0239766"
         color-interpolation-filters="sRGB">
        <feGaussianBlur
           stdDeviation="2.55"
           id="feGaussianBlur2" />
      </filter>
      <filter
         id="c"
         x="-0.11244604"
         width="1.2248921"
         y="-0.082623731"
         height="1.1652475"
         color-interpolation-filters="sRGB">
        <feGaussianBlur
           stdDeviation="15.63"
           id="feGaussianBlur3" />
      </filter>
      <filter
         id="e"
         x="-0.23758603"
         width="1.4751721"
         y="-0.24869778"
         height="1.4973956"
         color-interpolation-filters="sRGB">
        <feGaussianBlur
           stdDeviation="18.7"
           id="feGaussianBlur4" />
      </filter>
      <filter
         id="d"
         x="-0.21301439"
         width="1.4260288"
         y="-0.15141701"
         height="1.302834"
         color-interpolation-filters="sRGB">
        <feGaussianBlur
           stdDeviation="18.7"
           id="feGaussianBlur5" />
      </filter>
    </defs>
    <path
       d="M196.6 1.207c-2.5 11.323-4.8 22.703-10.2 33.383-7-10.68-12.6-20.91-16.7-31.988L2.494 4.338C13 104.9 10.86 175.3 1.979 278.3L15.4 295.5l-9.494 6.3L2.6 462.7l1.019 45.9 112.681 3.1c3.6-16.1 6.5-32.5 13.2-47.3 4.5 14.4 5.7 29.4 7 44.4l160 .3c.8-6.1.7-8.1 2.3-14.4 5.1 4.5 7.8 9.5 10.6 14.5.8-10.1 3.9-19.8 7-29.5 4.8 9.2 6.7 19.4 8.8 29.5l185.2.4-4.6-78.2-21.4-8.2 21.3-4.9 5.8-395.47c-7-6.73-13.3-13.744-18-21.465l-15.1.114-2.1 20.321-1.4 47.23.8 84.87-8.6-97.14c9.3-16.86 2.2-39.69 5.7-55.239-92.1 1.696-184.1.685-276.2-.314z"
       overflow="visible"
       color="#000"
       fill="#ebc893"
       fill-rule="evenodd"
       stroke="#e0aa58"
       enable-background="accumulate"
       id="path5" />
    <path
       d="M196.6 1.203c-2.5 11.327-4.8 22.707-10.2 33.387-7-10.68-12.6-20.91-16.7-31.99L2.494 4.336C13 104.9 10.86 175.3 1.979 278.3L15.4 295.5l-9.494 6.3L2.6 462.7l1.019 45.9 112.681 3.1c.5-2.1-7.9-2.3-7.4-4.5L5.244 504.5l-.914-47.3 4.63-153.7 12.42-9-13.093-16.8C16.95 177.3 16.36 104 6.113 5.992l162.687.164c4 10.804 10.3 24.254 17.1 34.664 5.3-10.41 9.5-25.97 12-37.02 89.8.974 173.8 3.521 263.6 1.867 4.6 1.226 10.6.431 11.3-4.149-92.1 1.696-184.1.684-276.2-.315zm296.9.158l-15.1.116-.6 6.277 13.5-2.557c4.6 7.533 9.7 12.383 16.6 18.943l-4.6 389.06-19.9 9.9 4.1-.6 18.2-4.2 5.8-395.47c-7-6.73-13.3-13.748-18-21.469zm9.6 435.739l3.5 69.7-177.7.1c.4 2.1-4.1.2-3.7 2.3l185.2.4-4.6-78.2zm-370 25.1c-1 2.2-2.9.4-3.7 2.6 4.2 14 5.8 29.5 7.1 44l158 .3c1.9-5 .8-9.7 4.3-14.4 5.1 4.5 7.8 9.5 10.6 14.5.8-10.1 3.9-19.8 7-29.5 1.8 3.4 3.2 7 4.3 10.6-1.4-5.6-2.4-8.3-5.1-13.4-3 9.4-6.7 16.2-7.5 26-2.7-4.9-5.4-9.7-10.4-14.1-3.4 4.6-6.2 9.1-8 14l-147.6 3.4c-3.4-14.6-7.1-30.3-9-44z"
       overflow="visible"
       color="#000"
       opacity=".527"
       fill="#c87137"
       fill-rule="evenodd"
       filter="url(#a)"
       enable-background="accumulate"
       id="path6" />
    <path
       d="M200.1 16.1c-2.3 10.67-10.5 21.38-15.6 31.44-6.6-10.06-13.9-19.69-17.7-30.12L17.34 19.05C24.61 113.6 7.605 179.3 16.85 277l18.26 20.1L10.34 309l7.1 141.6.96 43.3 90.2 3.4c3.4-15.2 15-35.6 21.3-49.6 4.3 13.6 15.4 36.7 16.6 50.9l45.1.8 13.8-18.7 14.4 22.2 68.7-8.6c1.8-4.7 4.5-9.1 7.8-13.5 4.8 4.2 7.4 8.9 10 13.6.8-9.5 7.7-19.6 10.6-28.7 4.5 8.6 19.9 28.9 33.1 33.9l114.6 5.6 22.3-14.7 19.4 14.7-14.5-67.6-34.6-14.2 37.5-15.1 2.1-96.9-14.5-21.9 15.2-13.4 5.1-239.63c-5.2-21.09-11.8-24.89-16.9-20.22l-4.2 2.11 2 19.14.7 44.47-7.1 124.23-18.3-137.78c8.8-15.88-3.9-35.38-.6-50.02-67.1 1.24-140.4-13.332-202.8-3.28-14 2.25-23.7 21.31-36.9 24.48-4.3 1.03-13.9-23.45-18.4-23.5z"
       overflow="visible"
       enable-background="accumulate"
       filter="url(#b)"
       fill-rule="evenodd"
       fill="#f6e7d0"
       color="#000"
       id="path7" />
    <path
       d="M354 27.39l-70.3 96.91 46.4 97.6-56.2 43.6 33 74.4-30.2 63.2 69.8 48.8 31.6 29.5 31.6-13.3L365.9 335l55.5-36.5 2.1-146.1-56.9-101.83zM116.6 55.48L89.9 123.6s33.7 65.3 35.8 68.8c2.1 3.6-7 118-7 118l42.8 73.8s9.9-82.9 7.1-83.6c-2.8-.7-29.5-42.1-29.5-42.1l23.8-84.3-36.5-37.2z"
       color="#000"
       overflow="visible"
       fill="#f2dbb9"
       fill-rule="evenodd"
       filter="url(#c)"
       enable-background="accumulate"
       id="path8" />
    <path
       d="M39.33 172.1l-5.62 108.1L74.45 328 42.84 464.9l96.96-39.3 30.2 42.9 74.4-38.7-80.8-169.9-60.4-16.9z"
       color="#000"
       overflow="visible"
       fill="#eed3a4"
       fill-rule="evenodd"
       enable-background="accumulate"
       filter="url(#d)"
       id="path9" />
    <path
       d="M266.9 66.72L324.5 191 434 221.2l21.8-111.6-41.4-68.86z"
       color="#000"
       overflow="visible"
       fill="#eed3a4"
       fill-rule="evenodd"
       enable-background="accumulate"
       filter="url(#e)"
       id="path10" />
  </svg>
  <g
     class=""
     transform="matrix(0.75190393,0,0,0.75190393,63.512594,61.815923)"
     style="fill:#aa4400"
     id="g11">
    <path
       d="m 476.865,25.514 -193.924,119.908 19.32,9.215 L 486.333,40.822 476.866,25.514 Z M 73.6,65.508 l -7.748,16.246 286.595,136.709 1.389,2.715 c 3.244,6.346 9.677,12.524 17.723,16.373 l 0.003,0.002 0.004,0.002 c 8.566,4.084 17.188,5.364 23.63,4.373 6.443,-0.992 10.352,-3.63 12.523,-8.18 2.17,-4.55 1.665,-8.39 -1.725,-13.603 -3.39,-5.213 -10.122,-10.882 -18.935,-15.086 -8.063,-3.843 -16.927,-4.961 -23.91,-3.487 l -2.983,0.63 L 73.6,65.507 Z m 121.097,97.65 c -40.936,2.913 -77.435,8.644 -106.084,16.283 -21.165,5.644 -38.06,12.392 -48.953,19.26 C 28.767,205.57 25,211.723 25,216 c 0,4.277 3.767,10.43 14.66,17.299 10.894,6.868 27.788,13.616 48.953,19.26 C 130.943,263.847 190.374,271 256,271 c 49.18,0 94.88,-4.017 132.512,-10.781 -8.123,-0.325 -16.546,-2.53 -24.703,-6.422 l -0.002,-0.002 -0.004,-0.002 c -10.2,-4.878 -18.614,-12.38 -24.135,-21.484 l -72.705,-34.68 -36.498,22.566 c -4.5,9.65 -12.051,18.021 -21.662,23.977 l -0.002,0.002 -0.004,0.002 c -10.715,6.625 -22.297,10.072 -33.281,9.588 -10.985,-0.484 -21.794,-5.485 -27.856,-15.29 -6.062,-9.803 -5.366,-21.696 -0.515,-31.294 4.85,-9.598 13.3,-17.76 23.785,-24.243 l 0.002,-0.001 h 0.002 c 9.63,-5.951 20.504,-8.973 31.16,-8.688 l 6.904,-4.27 -14.3,-6.82 z m 127.432,0.36 -0.545,0.336 41.3,19.7 c 10.563,-1.44 21.702,0.385 31.92,5.257 h 0.005 c 11.125,5.306 20.412,12.504 26.275,21.52 5.863,9.014 7.844,20.763 2.88,31.167 -3.08,6.457 -8.178,11.27 -14.2,14.395 4.699,-1.07 9.273,-2.174 13.623,-3.334 21.165,-5.644 38.06,-12.392 48.953,-19.26 C 483.233,226.43 487,220.277 487,216 c 0,-4.277 -3.767,-10.43 -14.66,-17.299 -10.894,-6.868 -27.788,-13.616 -48.953,-19.26 -27.516,-7.337 -62.286,-12.91 -101.258,-15.923 z m -93.81,15.677 -21.499,13.293 -3.033,-0.3 c -7.102,-0.708 -15.793,1.364 -23.39,6.058 l -0.002,0.002 c -8.305,5.135 -14.382,11.502 -17.186,17.05 -2.804,5.55 -2.89,9.422 -0.238,13.71 2.651,4.288 6.822,6.486 13.336,6.773 6.513,0.287 14.949,-1.923 23.023,-6.916 7.58,-4.699 13.305,-11.538 15.842,-18.199 l 1.086,-2.85 31.383,-19.404 -19.323,-9.217 z m -188.677,74.717 26.941,44.9 33.31,-24.982 a 408.545,408.545 0 0 1 -15.92,-3.879 C 66.621,265.324 51.72,260.023 39.642,253.912 Z m 432.714,0 c -12.078,6.11 -26.98,11.412 -44.332,16.04 -6.926,1.846 -14.283,3.565 -21.949,5.175 l 38.926,24.377 z m 14.644,10.58 -17.576,29.293 a 90.955,90.955 0 0 0 2.209,-0.97 c 5.948,-2.72 10.255,-5.583 12.627,-7.944 C 486.631,282.51 487,281.188 487,280 Z M 25,264.494 V 280 c 0,1.188 0.369,2.51 2.74,4.871 2.372,2.361 6.679,5.224 12.627,7.943 0.712,0.326 1.45,0.65 2.207,0.971 L 25,264.495 Z m 98.639,14.027 -36.737,27.553 c 1.874,0.36 3.74,0.72 5.674,1.065 21.728,3.862 47.224,6.792 74.612,8.775 l -36.143,-36.143 a 573.54,573.54 0 0 1 -7.406,-1.25 z m 233.996,4.538 c -23.345,2.877 -48.603,4.787 -75.155,5.552 l 37.08,27.809 z m 27.261,0.045 -37.195,32.59 c 26.286,-1.979 50.764,-4.83 71.723,-8.555 1.011,-0.18 1.972,-0.373 2.967,-0.557 z m -224.369,0.697 32.317,32.316 36.676,-27.506 c -24.226,-0.698 -47.389,-2.342 -68.993,-4.81 z M 256,291.25 219.678,318.492 C 231.702,318.824 243.849,319 256,319 c 12.15,0 24.298,-0.176 36.322,-0.508 z M 25,305.121 V 440 c 0,5.5 4.3,11.699 16.09,18.436 3.953,2.259 8.63,4.452 13.91,6.554 V 317.13 C 46.72,314.753 39.307,312.123 32.883,309.187 30.07,307.9 27.443,306.557 25,305.122 Z m 462,0 c -2.443,1.435 -5.07,2.778 -7.883,4.065 -6.424,2.936 -13.838,5.566 -22.117,7.943 V 464.99 c 5.28,-2.103 9.957,-4.295 13.91,-6.554 C 482.7,451.699 487,445.5 487,440 Z M 73,321.63 v 149.488 c 6.196,1.816 12.868,3.523 19.953,5.098 25.716,5.714 56.789,9.79 90.047,12.2 V 334.978 C 148.736,333.033 116.54,329.681 89.424,324.86 A 430.035,430.035 0 0 1 73,321.63 Z m 366,0 a 430.032,430.032 0 0 1 -16.424,3.232 c -27.115,4.82 -59.312,8.173 -93.576,10.118 v 153.435 c 33.258,-2.409 64.331,-6.485 90.047,-12.2 7.085,-1.574 13.757,-3.281 19.953,-5.097 z m -238,14.24 v 153.684 c 18.028,0.96 36.517,1.445 55,1.445 18.483,0 36.972,-0.485 55,-1.445 V 335.87 c -18.053,0.752 -36.52,1.129 -55,1.129 -18.48,0 -36.947,-0.377 -55,-1.129 z"
       fill="#3e3126"
       fill-opacity="1"
       id="path11"
       style="fill:#aa4400" />
  </g>
</svg>
