<?xml version="1.0" encoding="UTF-8" standalone="no"?>
<svg
   viewBox="0 0 512 512"
   style="height: 512px; width: 512px;"
   version="1.1"
   id="svg12"
   sodipodi:docname="manticore--head.svg"
   inkscape:version="1.4 (e7c3feb1, 2024-10-09)"
   xmlns:inkscape="http://www.inkscape.org/namespaces/inkscape"
   xmlns:sodipodi="http://sodipodi.sourceforge.net/DTD/sodipodi-0.dtd"
   xmlns="http://www.w3.org/2000/svg"
   xmlns:svg="http://www.w3.org/2000/svg">
  <sodipodi:namedview
     id="namedview12"
     pagecolor="#505050"
     bordercolor="#ffffff"
     borderopacity="1"
     inkscape:showpageshadow="0"
     inkscape:pageopacity="0"
     inkscape:pagecheckerboard="1"
     inkscape:deskcolor="#d1d1d1"
     inkscape:zoom="0.1797612"
     inkscape:cx="-191.92129"
     inkscape:cy="147.4178"
     inkscape:window-width="1248"
     inkscape:window-height="594"
     inkscape:window-x="0"
     inkscape:window-y="38"
     inkscape:window-maximized="0"
     inkscape:current-layer="svg12" />
  <defs
     id="defs2">
    <radialGradient
       id="lorc-lion-gradient-0">
      <stop
         offset="0%"
         stop-color="#830000"
         stop-opacity="1"
         id="stop1" />
      <stop
         offset="100%"
         stop-color="#000"
         stop-opacity="1"
         id="stop2" />
    </radialGradient>
  </defs>
  <path
     d="M0 0h512v512H0z"
     fill="url(#pattern)"
     id="path2" />
  <svg
     version="1.1"
     id="svg11">
    <defs
       id="defs6">
      <filter
         id="b"
         x="-0.023338979"
         width="1.046678"
         y="-0.023448784"
         height="1.0468976"
         color-interpolation-filters="sRGB">
        <feGaussianBlur
           stdDeviation="4.823"
           id="feGaussianBlur2" />
      </filter>
      <filter
         id="a"
         x="-0.012011281"
         width="1.0240226"
         y="-0.011988317"
         height="1.0239766"
         color-interpolation-filters="sRGB">
        <feGaussianBlur
           stdDeviation="2.55"
           id="feGaussianBlur3" />
      </filter>
      <filter
         id="c"
         x="-0.11244604"
         width="1.2248921"
         y="-0.082623731"
         height="1.1652475"
         color-interpolation-filters="sRGB">
        <feGaussianBlur
           stdDeviation="15.63"
           id="feGaussianBlur4" />
      </filter>
      <filter
         id="e"
         x="-0.23758603"
         width="1.4751721"
         y="-0.24869778"
         height="1.4973956"
         color-interpolation-filters="sRGB">
        <feGaussianBlur
           stdDeviation="18.7"
           id="feGaussianBlur5" />
      </filter>
      <filter
         id="d"
         x="-0.21301439"
         width="1.4260288"
         y="-0.15141701"
         height="1.302834"
         color-interpolation-filters="sRGB">
        <feGaussianBlur
           stdDeviation="18.7"
           id="feGaussianBlur6" />
      </filter>
    </defs>
    <path
       d="M196.6 1.207c-2.5 11.323-4.8 22.703-10.2 33.383-7-10.68-12.6-20.91-16.7-31.988L2.494 4.338C13 104.9 10.86 175.3 1.979 278.3L15.4 295.5l-9.494 6.3L2.6 462.7l1.019 45.9 112.681 3.1c3.6-16.1 6.5-32.5 13.2-47.3 4.5 14.4 5.7 29.4 7 44.4l160 .3c.8-6.1.7-8.1 2.3-14.4 5.1 4.5 7.8 9.5 10.6 14.5.8-10.1 3.9-19.8 7-29.5 4.8 9.2 6.7 19.4 8.8 29.5l185.2.4-4.6-78.2-21.4-8.2 21.3-4.9 5.8-395.47c-7-6.73-13.3-13.744-18-21.465l-15.1.114-2.1 20.321-1.4 47.23.8 84.87-8.6-97.14c9.3-16.86 2.2-39.69 5.7-55.239-92.1 1.696-184.1.685-276.2-.314z"
       overflow="visible"
       color="#000"
       fill="#ebc893"
       fill-rule="evenodd"
       stroke="#e0aa58"
       enable-background="accumulate"
       id="path6" />
    <path
       d="M196.6 1.203c-2.5 11.327-4.8 22.707-10.2 33.387-7-10.68-12.6-20.91-16.7-31.99L2.494 4.336C13 104.9 10.86 175.3 1.979 278.3L15.4 295.5l-9.494 6.3L2.6 462.7l1.019 45.9 112.681 3.1c.5-2.1-7.9-2.3-7.4-4.5L5.244 504.5l-.914-47.3 4.63-153.7 12.42-9-13.093-16.8C16.95 177.3 16.36 104 6.113 5.992l162.687.164c4 10.804 10.3 24.254 17.1 34.664 5.3-10.41 9.5-25.97 12-37.02 89.8.974 173.8 3.521 263.6 1.867 4.6 1.226 10.6.431 11.3-4.149-92.1 1.696-184.1.684-276.2-.315zm296.9.158l-15.1.116-.6 6.277 13.5-2.557c4.6 7.533 9.7 12.383 16.6 18.943l-4.6 389.06-19.9 9.9 4.1-.6 18.2-4.2 5.8-395.47c-7-6.73-13.3-13.748-18-21.469zm9.6 435.739l3.5 69.7-177.7.1c.4 2.1-4.1.2-3.7 2.3l185.2.4-4.6-78.2zm-370 25.1c-1 2.2-2.9.4-3.7 2.6 4.2 14 5.8 29.5 7.1 44l158 .3c1.9-5 .8-9.7 4.3-14.4 5.1 4.5 7.8 9.5 10.6 14.5.8-10.1 3.9-19.8 7-29.5 1.8 3.4 3.2 7 4.3 10.6-1.4-5.6-2.4-8.3-5.1-13.4-3 9.4-6.7 16.2-7.5 26-2.7-4.9-5.4-9.7-10.4-14.1-3.4 4.6-6.2 9.1-8 14l-147.6 3.4c-3.4-14.6-7.1-30.3-9-44z"
       overflow="visible"
       color="#000"
       opacity=".527"
       fill="#c87137"
       fill-rule="evenodd"
       filter="url(#a)"
       enable-background="accumulate"
       id="path7" />
    <path
       d="M200.1 16.1c-2.3 10.67-10.5 21.38-15.6 31.44-6.6-10.06-13.9-19.69-17.7-30.12L17.34 19.05C24.61 113.6 7.605 179.3 16.85 277l18.26 20.1L10.34 309l7.1 141.6.96 43.3 90.2 3.4c3.4-15.2 15-35.6 21.3-49.6 4.3 13.6 15.4 36.7 16.6 50.9l45.1.8 13.8-18.7 14.4 22.2 68.7-8.6c1.8-4.7 4.5-9.1 7.8-13.5 4.8 4.2 7.4 8.9 10 13.6.8-9.5 7.7-19.6 10.6-28.7 4.5 8.6 19.9 28.9 33.1 33.9l114.6 5.6 22.3-14.7 19.4 14.7-14.5-67.6-34.6-14.2 37.5-15.1 2.1-96.9-14.5-21.9 15.2-13.4 5.1-239.63c-5.2-21.09-11.8-24.89-16.9-20.22l-4.2 2.11 2 19.14.7 44.47-7.1 124.23-18.3-137.78c8.8-15.88-3.9-35.38-.6-50.02-67.1 1.24-140.4-13.332-202.8-3.28-14 2.25-23.7 21.31-36.9 24.48-4.3 1.03-13.9-23.45-18.4-23.5z"
       overflow="visible"
       enable-background="accumulate"
       filter="url(#b)"
       fill-rule="evenodd"
       fill="#f6e7d0"
       color="#000"
       id="path8" />
    <path
       d="M354 27.39l-70.3 96.91 46.4 97.6-56.2 43.6 33 74.4-30.2 63.2 69.8 48.8 31.6 29.5 31.6-13.3L365.9 335l55.5-36.5 2.1-146.1-56.9-101.83zM116.6 55.48L89.9 123.6s33.7 65.3 35.8 68.8c2.1 3.6-7 118-7 118l42.8 73.8s9.9-82.9 7.1-83.6c-2.8-.7-29.5-42.1-29.5-42.1l23.8-84.3-36.5-37.2z"
       color="#000"
       overflow="visible"
       fill="#f2dbb9"
       fill-rule="evenodd"
       filter="url(#c)"
       enable-background="accumulate"
       id="path9" />
    <path
       d="M39.33 172.1l-5.62 108.1L74.45 328 42.84 464.9l96.96-39.3 30.2 42.9 74.4-38.7-80.8-169.9-60.4-16.9z"
       color="#000"
       overflow="visible"
       fill="#eed3a4"
       fill-rule="evenodd"
       enable-background="accumulate"
       filter="url(#d)"
       id="path10" />
    <path
       d="M266.9 66.72L324.5 191 434 221.2l21.8-111.6-41.4-68.86z"
       color="#000"
       overflow="visible"
       fill="#eed3a4"
       fill-rule="evenodd"
       enable-background="accumulate"
       filter="url(#e)"
       id="path11" />
  </svg>
  <path
     id="path12"
     style="fill:#aa4400;fill-opacity:1;stroke-width:0.819063"
     d="m 164.40509,68.5 -0.002,0.06055 c -8.47566,0.382502 -17.47657,2.578163 -26.36914,4.396484 l 51.1836,53.753906 -17.72852,0.15234 c -24.06081,0.15317 -61.9973,5.04053 -84.816407,18.26758 L 112.68243,187.375 96.044733,196.01562 C 79.609173,203.99385 50.81571,226.15 50.81571,226.15 c 0,0 30.199873,25.75582 47.650899,35.62539 l 19.059571,10.7793 c -20.806308,15.67631 -49.787927,57.80076 -49.787927,57.80076 0,0 66.069727,0.38749 84.676597,-5.84178 l 26.12891,-8.73047 -17.87696,20.95703 c -15.36563,18.01939 -24.39399,45.15671 -41.55664,71.8418 26.13631,-1.96084 51.88912,-6.26448 79.28516,-21.13867 l 13.12695,-7.11328 -7.98242,63.16992 c 21.5684,-9.98438 42.67519,-23.6903 58.29883,-40.17969 18.57881,-19.60837 29.25149,-41.35314 27.32422,-59.55273 l -0.0605,-0.61524 c -15.14284,-10.39145 -26.42292,-25.53276 -32.13672,-44.37695 -6.8916,-22.73147 -4.80703,-51.05181 5.43946,-82.84375 -21.62819,-3.30902 -38.11537,-11.98874 -46.9375,-24.66211 -10.09906,-14.51053 -11.64871,-32.15624 -6.3379,-46.70117 5.30998,-14.54493 18.2574,-26.34588 35.57813,-27.35742 16.83831,-0.97878 36.43098,8.21814 57.31055,29.57031 9.3111,3.36635 17.79847,6.58003 25.50586,9.7793 1.9936,-17.52387 -1.19446,-31.15111 -8.52344,-43.32813 -6.88832,-11.44641 -19.01675,-21.648302 -33.66406,-31.601561 l 3.49609,35.128911 -13.45313,-8.99805 C 245.06695,87.500552 201.33306,66.957828 164.40313,68.683594 Z m 82.2207,63.875 v 0.0703 c -0.35711,0.007 -0.70936,0 -1.05664,0 h -0.002 c -11.09012,0.64296 -18.46517,7.45721 -22.0625,17.31055 -3.59816,9.85333 -2.65753,22.40567 4.51172,32.70703 7.1709,10.30054 20.58161,18.96703 43.85938,20.29883 l 10.3164,0.56445 -3.55859,9.6875 c -12.15244,33.13931 -13.30156,60.55252 -7.02344,81.26172 6.27403,20.69528 19.68863,35.05067 38.74414,43.04883 h 0.0312 l 88.94141,31.51367 c 4.62771,-9.74685 9.56117,-19.5056 14.73437,-29.25 -4.09285,1.79211 -8.61088,2.79297 -13.36718,2.79297 -18.44532,0 -33.40235,-14.95703 -33.40235,-33.40234 0,-18.44367 14.95703,-33.4004 33.40235,-33.4004 16.92184,0 30.87654,12.59064 33.06836,28.91211 8.73613,-14.79392 17.92484,-29.4872 27.42187,-43.9707 l -84.54687,-42.89844 -3.88868,-4.69531 c -3.21892,-11.10322 -9.42971,-19.101 -21.61328,-27.29492 -12.1844,-8.19227 -30.33333,-16.02893 -55.51953,-25.08203 l -1.70508,-0.62891 -1.25195,-1.3164 c -19.07025,-20.09327 -34.9742,-26.43656 -46.0332,-26.22852 z m 97.50195,73.72852 c 6.7753,0 12.00391,5.23219 12.00391,12.00586 0,6.77692 -5.23137,12.03124 -12.00586,12.03124 -6.77364,0 -12.0293,-5.25513 -12.0293,-12.03124 0,-6.77367 5.25484,-12.00196 12.0293,-12.00196 z"
     sodipodi:nodetypes="cccccccccccccccccccscccccccccccccccccscccccccccccsssccccccccccsssccs" />
</svg>
