<?xml version="1.0" encoding="UTF-8" standalone="no"?>
<svg
   viewBox="0 0 512 512"
   style="height: 512px; width: 512px;"
   version="1.1"
   id="svg12"
   sodipodi:docname="manticore--shield-bash.svg"
   inkscape:version="1.4 (e7c3feb1, 2024-10-09)"
   xmlns:inkscape="http://www.inkscape.org/namespaces/inkscape"
   xmlns:sodipodi="http://sodipodi.sourceforge.net/DTD/sodipodi-0.dtd"
   xmlns="http://www.w3.org/2000/svg"
   xmlns:svg="http://www.w3.org/2000/svg">
  <sodipodi:namedview
     id="namedview12"
     pagecolor="#505050"
     bordercolor="#ffffff"
     borderopacity="1"
     inkscape:showpageshadow="0"
     inkscape:pageopacity="0"
     inkscape:pagecheckerboard="1"
     inkscape:deskcolor="#d1d1d1"
     inkscape:zoom="0.49690318"
     inkscape:cx="-236.46457"
     inkscape:cy="169.04702"
     inkscape:window-width="1728"
     inkscape:window-height="1051"
     inkscape:window-x="0"
     inkscape:window-y="38"
     inkscape:window-maximized="1"
     inkscape:current-layer="svg12" />
  <defs
     id="defs2">
    <radialGradient
       id="delapouite-shield-bash-gradient-0">
      <stop
         offset="0%"
         stop-color="#830000"
         stop-opacity="1"
         id="stop1" />
      <stop
         offset="100%"
         stop-color="#000"
         stop-opacity="1"
         id="stop2" />
    </radialGradient>
  </defs>
  <path
     d="M0 0h512v512H0z"
     fill="url(#pattern)"
     id="path2" />
  <svg
     version="1.1"
     id="svg11">
    <defs
       id="defs6">
      <filter
         id="b"
         x="-0.023338979"
         width="1.046678"
         y="-0.023448784"
         height="1.0468976"
         color-interpolation-filters="sRGB">
        <feGaussianBlur
           stdDeviation="4.823"
           id="feGaussianBlur2" />
      </filter>
      <filter
         id="a"
         x="-0.012011281"
         width="1.0240226"
         y="-0.011988317"
         height="1.0239766"
         color-interpolation-filters="sRGB">
        <feGaussianBlur
           stdDeviation="2.55"
           id="feGaussianBlur3" />
      </filter>
      <filter
         id="c"
         x="-0.11244604"
         width="1.2248921"
         y="-0.082623731"
         height="1.1652475"
         color-interpolation-filters="sRGB">
        <feGaussianBlur
           stdDeviation="15.63"
           id="feGaussianBlur4" />
      </filter>
      <filter
         id="e"
         x="-0.23758603"
         width="1.4751721"
         y="-0.24869778"
         height="1.4973956"
         color-interpolation-filters="sRGB">
        <feGaussianBlur
           stdDeviation="18.7"
           id="feGaussianBlur5" />
      </filter>
      <filter
         id="d"
         x="-0.21301439"
         width="1.4260288"
         y="-0.15141701"
         height="1.302834"
         color-interpolation-filters="sRGB">
        <feGaussianBlur
           stdDeviation="18.7"
           id="feGaussianBlur6" />
      </filter>
    </defs>
    <path
       d="M196.6 1.207c-2.5 11.323-4.8 22.703-10.2 33.383-7-10.68-12.6-20.91-16.7-31.988L2.494 4.338C13 104.9 10.86 175.3 1.979 278.3L15.4 295.5l-9.494 6.3L2.6 462.7l1.019 45.9 112.681 3.1c3.6-16.1 6.5-32.5 13.2-47.3 4.5 14.4 5.7 29.4 7 44.4l160 .3c.8-6.1.7-8.1 2.3-14.4 5.1 4.5 7.8 9.5 10.6 14.5.8-10.1 3.9-19.8 7-29.5 4.8 9.2 6.7 19.4 8.8 29.5l185.2.4-4.6-78.2-21.4-8.2 21.3-4.9 5.8-395.47c-7-6.73-13.3-13.744-18-21.465l-15.1.114-2.1 20.321-1.4 47.23.8 84.87-8.6-97.14c9.3-16.86 2.2-39.69 5.7-55.239-92.1 1.696-184.1.685-276.2-.314z"
       overflow="visible"
       color="#000"
       fill="#ebc893"
       fill-rule="evenodd"
       stroke="#e0aa58"
       enable-background="accumulate"
       id="path6" />
    <path
       d="M196.6 1.203c-2.5 11.327-4.8 22.707-10.2 33.387-7-10.68-12.6-20.91-16.7-31.99L2.494 4.336C13 104.9 10.86 175.3 1.979 278.3L15.4 295.5l-9.494 6.3L2.6 462.7l1.019 45.9 112.681 3.1c.5-2.1-7.9-2.3-7.4-4.5L5.244 504.5l-.914-47.3 4.63-153.7 12.42-9-13.093-16.8C16.95 177.3 16.36 104 6.113 5.992l162.687.164c4 10.804 10.3 24.254 17.1 34.664 5.3-10.41 9.5-25.97 12-37.02 89.8.974 173.8 3.521 263.6 1.867 4.6 1.226 10.6.431 11.3-4.149-92.1 1.696-184.1.684-276.2-.315zm296.9.158l-15.1.116-.6 6.277 13.5-2.557c4.6 7.533 9.7 12.383 16.6 18.943l-4.6 389.06-19.9 9.9 4.1-.6 18.2-4.2 5.8-395.47c-7-6.73-13.3-13.748-18-21.469zm9.6 435.739l3.5 69.7-177.7.1c.4 2.1-4.1.2-3.7 2.3l185.2.4-4.6-78.2zm-370 25.1c-1 2.2-2.9.4-3.7 2.6 4.2 14 5.8 29.5 7.1 44l158 .3c1.9-5 .8-9.7 4.3-14.4 5.1 4.5 7.8 9.5 10.6 14.5.8-10.1 3.9-19.8 7-29.5 1.8 3.4 3.2 7 4.3 10.6-1.4-5.6-2.4-8.3-5.1-13.4-3 9.4-6.7 16.2-7.5 26-2.7-4.9-5.4-9.7-10.4-14.1-3.4 4.6-6.2 9.1-8 14l-147.6 3.4c-3.4-14.6-7.1-30.3-9-44z"
       overflow="visible"
       color="#000"
       opacity=".527"
       fill="#c87137"
       fill-rule="evenodd"
       filter="url(#a)"
       enable-background="accumulate"
       id="path7" />
    <path
       d="M200.1 16.1c-2.3 10.67-10.5 21.38-15.6 31.44-6.6-10.06-13.9-19.69-17.7-30.12L17.34 19.05C24.61 113.6 7.605 179.3 16.85 277l18.26 20.1L10.34 309l7.1 141.6.96 43.3 90.2 3.4c3.4-15.2 15-35.6 21.3-49.6 4.3 13.6 15.4 36.7 16.6 50.9l45.1.8 13.8-18.7 14.4 22.2 68.7-8.6c1.8-4.7 4.5-9.1 7.8-13.5 4.8 4.2 7.4 8.9 10 13.6.8-9.5 7.7-19.6 10.6-28.7 4.5 8.6 19.9 28.9 33.1 33.9l114.6 5.6 22.3-14.7 19.4 14.7-14.5-67.6-34.6-14.2 37.5-15.1 2.1-96.9-14.5-21.9 15.2-13.4 5.1-239.63c-5.2-21.09-11.8-24.89-16.9-20.22l-4.2 2.11 2 19.14.7 44.47-7.1 124.23-18.3-137.78c8.8-15.88-3.9-35.38-.6-50.02-67.1 1.24-140.4-13.332-202.8-3.28-14 2.25-23.7 21.31-36.9 24.48-4.3 1.03-13.9-23.45-18.4-23.5z"
       overflow="visible"
       enable-background="accumulate"
       filter="url(#b)"
       fill-rule="evenodd"
       fill="#f6e7d0"
       color="#000"
       id="path8" />
    <path
       d="M354 27.39l-70.3 96.91 46.4 97.6-56.2 43.6 33 74.4-30.2 63.2 69.8 48.8 31.6 29.5 31.6-13.3L365.9 335l55.5-36.5 2.1-146.1-56.9-101.83zM116.6 55.48L89.9 123.6s33.7 65.3 35.8 68.8c2.1 3.6-7 118-7 118l42.8 73.8s9.9-82.9 7.1-83.6c-2.8-.7-29.5-42.1-29.5-42.1l23.8-84.3-36.5-37.2z"
       color="#000"
       overflow="visible"
       fill="#f2dbb9"
       fill-rule="evenodd"
       filter="url(#c)"
       enable-background="accumulate"
       id="path9" />
    <path
       d="M39.33 172.1l-5.62 108.1L74.45 328 42.84 464.9l96.96-39.3 30.2 42.9 74.4-38.7-80.8-169.9-60.4-16.9z"
       color="#000"
       overflow="visible"
       fill="#eed3a4"
       fill-rule="evenodd"
       enable-background="accumulate"
       filter="url(#d)"
       id="path10" />
    <path
       d="M266.9 66.72L324.5 191 434 221.2l21.8-111.6-41.4-68.86z"
       color="#000"
       overflow="visible"
       fill="#eed3a4"
       fill-rule="evenodd"
       enable-background="accumulate"
       filter="url(#e)"
       id="path11" />
  </svg>
  <path
     id="path13"
     style="fill:#aa4400;stroke-width:0.813237"
     d="m 270.02344,99.060545 -149.5293,14.023445 125.39453,15.67187 c 4.11742,-10.84777 10.53394,-19.7941 18.33203,-25.88281 a 42.346891,42.346891 0 0 1 5.80274,-3.810555 z m 16.1289,10.414055 c -4.141,0.135 -8.53315,1.86665 -12.91406,5.28711 -6.37171,4.97539 -12.20512,13.48055 -15.3125,24.14453 -3.10738,10.66317 -2.82697,21.22431 -0.23437,29.2168 2.59259,7.99331 7.09911,13.06901 12.71289,14.95898 5.61377,1.88996 12.00911,0.48321 18.38086,-4.49218 6.37171,-4.97457 12.20593,-13.4786 15.3125,-24.14258 3.10819,-10.66397 2.83088,-21.22431 0.23828,-29.2168 -2.59342,-7.99249 -7.09912,-13.06902 -12.71289,-14.95898 a 15.465333,15.465333 0 0 0 -5.47071,-0.79688 z m 135.68946,7.71486 c -19.60959,11.34383 -37.56612,16.50641 -70.94141,14.02929 l -27.34961,102.37891 c -0.54893,2.1811 -0.25915,4.87938 1.5625,8.83984 1.8241,3.96535 5.16764,8.85584 9.625,14.31836 2.88176,3.53137 6.35182,7.47233 10.07422,11.61133 l 53.85352,7.91016 c 9.60071,-6.58752 16.40549,-13.75156 17.81054,-16.17774 L 450.6543,163.95703 C 437.0342,152.07319 426.68789,136.32981 421.8418,117.18946 Z M 187.57226,158.875 65.89453,176.57421 l 72.62891,10.56056 1.7539,-4.10742 z m 232.80274,1.89062 13.77539,4.94337 -31.81445,88.67186 -30.26368,15.59961 -6.70703,-13.00976 25.14063,-12.95704 z m -211.31445,3.57422 -57.40235,29.31054 -18.92187,44.30664 17.75195,2.3418 13.28711,-30.81836 L 212,190.79882 l -10.92578,56.45703 60.11914,8.82813 c 23.78606,-19.68992 26.42362,-41.80609 29.08398,-60.90821 -7.48422,3.6116 -15.85672,4.69373 -23.96875,1.96289 -10.96896,-3.69211 -18.64302,-13.39512 -22.33593,-24.78125 -0.13825,-0.42451 -0.26018,-0.85609 -0.38868,-1.2871 z m 94.83984,36.62695 c -1.10194,5.71461 -2.70209,11.52506 -4.95313,17.36328 l 11.42969,7.85938 4.82813,-18.07227 z m -251.60352,33.55664 -1.30859,8.92773 139.58789,20.5 v 0.002 l 1.60742,0.23633 19.52539,2.86718 v -0.002 l 42.3125,6.21483 5.51758,0.81055 15.80469,2.32227 1.45508,0.21289 7.66992,1.12696 25.35156,3.72266 18.80664,2.76367 v 0.002 l 35.28516,5.18164 8.13867,1.19531 27.14648,3.98633 5.19532,0.76172 8.3457,7.12891 48.27344,-5.41992 -44.89649,-15.11914 -10.41211,4.48437 -19.14062,-2.81055 0.002,-0.002 -21.00586,-3.08398 21.00196,3.08593 -32.17579,-4.72461 c -6e-4,-6.6e-4 -0.001,-10e-4 -0.002,-0.002 l -24.10937,-3.54102 -4.86133,-0.71484 -14.31445,-2.10156 -25.83204,-3.79492 -7.15625,-1.05078 -7.1582,-1.05274 -4.11719,-0.60351 -7.11328,-1.04493 -8.66797,-1.27343 -53.23437,-7.81836 -3.74414,-0.54883 -4.92578,-0.72461 z m 133.98633,37.91602 c -23.80029,33.00964 -51.25628,62.49852 -83.36328,90.53125 l -21.51758,36.95704 13.8418,5.89062 25.92188,-35.77148 1.12304,-0.73633 c 36.98278,-24.29302 61.74822,-50.69281 91.28906,-76.8457 l 3.68555,-3.26369 4.41406,2.18555 c 19.00129,9.40997 34.91563,19.61184 50.50782,30.66211 l 7.25586,5.14258 -56.11719,53.38476 20.04492,32.36329 14.37109,-8.38477 -16.33007,-23.1582 6.68945,-4.06836 c 24.30278,-14.78953 40.65171,-32.0676 58.50391,-53.70702 -11.57357,-17.41931 -21.76216,-28.47771 -33.23047,-38.39063 l -16.81641,-2.46875 -48.3457,-7.10156 z m -24.08203,7.79882 -103.16015,14.59961 81.05468,11.47071 a 487.11855,487.11855 0 0 0 22.10547,-26.07032 z m 74.63672,67.27931 -77.98242,17.42969 48.3125,10.79687 z" />
</svg>
