<?xml version="1.0" encoding="UTF-8" standalone="no"?>
<svg
   viewBox="0 0 512 512"
   style="height: 512px; width: 512px;"
   version="1.1"
   id="svg12"
   sodipodi:docname="medallion.svg"
   inkscape:version="1.4 (e7c3feb1, 2024-10-09)"
   xml:space="preserve"
   xmlns:inkscape="http://www.inkscape.org/namespaces/inkscape"
   xmlns:sodipodi="http://sodipodi.sourceforge.net/DTD/sodipodi-0.dtd"
   xmlns="http://www.w3.org/2000/svg"
   xmlns:svg="http://www.w3.org/2000/svg"><sodipodi:namedview
     id="namedview12"
     pagecolor="#505050"
     bordercolor="#ffffff"
     borderopacity="1"
     inkscape:showpageshadow="0"
     inkscape:pageopacity="0"
     inkscape:pagecheckerboard="1"
     inkscape:deskcolor="#d1d1d1"
     inkscape:zoom="0.22501124"
     inkscape:cx="-119.994"
     inkscape:cy="-319.98401"
     inkscape:window-width="1728"
     inkscape:window-height="1051"
     inkscape:window-x="0"
     inkscape:window-y="38"
     inkscape:window-maximized="1"
     inkscape:current-layer="svg12" /><defs
     id="defs2"><radialGradient
       id="delapouite-viking-shield-gradient-0"><stop
         offset="0%"
         stop-color="#830000"
         stop-opacity="1"
         id="stop1" /><stop
         offset="100%"
         stop-color="#000"
         stop-opacity="1"
         id="stop2" /></radialGradient></defs><path
     d="M0 0h512v512H0z"
     fill="url(#pattern)"
     id="path2" /><svg
     version="1.1"
     id="svg11"><defs
       id="defs6"><filter
         id="b"
         x="-0.023338979"
         width="1.046678"
         y="-0.023448784"
         height="1.0468976"
         color-interpolation-filters="sRGB"><feGaussianBlur
           stdDeviation="4.823"
           id="feGaussianBlur2" /></filter><filter
         id="a"
         x="-0.012011281"
         width="1.0240226"
         y="-0.011988317"
         height="1.0239766"
         color-interpolation-filters="sRGB"><feGaussianBlur
           stdDeviation="2.55"
           id="feGaussianBlur3" /></filter><filter
         id="c"
         x="-0.11244604"
         width="1.2248921"
         y="-0.082623731"
         height="1.1652475"
         color-interpolation-filters="sRGB"><feGaussianBlur
           stdDeviation="15.63"
           id="feGaussianBlur4" /></filter><filter
         id="e"
         x="-0.23758603"
         width="1.4751721"
         y="-0.24869778"
         height="1.4973956"
         color-interpolation-filters="sRGB"><feGaussianBlur
           stdDeviation="18.7"
           id="feGaussianBlur5" /></filter><filter
         id="d"
         x="-0.21301439"
         width="1.4260288"
         y="-0.15141701"
         height="1.302834"
         color-interpolation-filters="sRGB"><feGaussianBlur
           stdDeviation="18.7"
           id="feGaussianBlur6" /></filter></defs><path
       d="M196.6 1.207c-2.5 11.323-4.8 22.703-10.2 33.383-7-10.68-12.6-20.91-16.7-31.988L2.494 4.338C13 104.9 10.86 175.3 1.979 278.3L15.4 295.5l-9.494 6.3L2.6 462.7l1.019 45.9 112.681 3.1c3.6-16.1 6.5-32.5 13.2-47.3 4.5 14.4 5.7 29.4 7 44.4l160 .3c.8-6.1.7-8.1 2.3-14.4 5.1 4.5 7.8 9.5 10.6 14.5.8-10.1 3.9-19.8 7-29.5 4.8 9.2 6.7 19.4 8.8 29.5l185.2.4-4.6-78.2-21.4-8.2 21.3-4.9 5.8-395.47c-7-6.73-13.3-13.744-18-21.465l-15.1.114-2.1 20.321-1.4 47.23.8 84.87-8.6-97.14c9.3-16.86 2.2-39.69 5.7-55.239-92.1 1.696-184.1.685-276.2-.314z"
       overflow="visible"
       color="#000"
       fill="#ebc893"
       fill-rule="evenodd"
       stroke="#e0aa58"
       enable-background="accumulate"
       id="path6" /><path
       d="M196.6 1.203c-2.5 11.327-4.8 22.707-10.2 33.387-7-10.68-12.6-20.91-16.7-31.99L2.494 4.336C13 104.9 10.86 175.3 1.979 278.3L15.4 295.5l-9.494 6.3L2.6 462.7l1.019 45.9 112.681 3.1c.5-2.1-7.9-2.3-7.4-4.5L5.244 504.5l-.914-47.3 4.63-153.7 12.42-9-13.093-16.8C16.95 177.3 16.36 104 6.113 5.992l162.687.164c4 10.804 10.3 24.254 17.1 34.664 5.3-10.41 9.5-25.97 12-37.02 89.8.974 173.8 3.521 263.6 1.867 4.6 1.226 10.6.431 11.3-4.149-92.1 1.696-184.1.684-276.2-.315zm296.9.158l-15.1.116-.6 6.277 13.5-2.557c4.6 7.533 9.7 12.383 16.6 18.943l-4.6 389.06-19.9 9.9 4.1-.6 18.2-4.2 5.8-395.47c-7-6.73-13.3-13.748-18-21.469zm9.6 435.739l3.5 69.7-177.7.1c.4 2.1-4.1.2-3.7 2.3l185.2.4-4.6-78.2zm-370 25.1c-1 2.2-2.9.4-3.7 2.6 4.2 14 5.8 29.5 7.1 44l158 .3c1.9-5 .8-9.7 4.3-14.4 5.1 4.5 7.8 9.5 10.6 14.5.8-10.1 3.9-19.8 7-29.5 1.8 3.4 3.2 7 4.3 10.6-1.4-5.6-2.4-8.3-5.1-13.4-3 9.4-6.7 16.2-7.5 26-2.7-4.9-5.4-9.7-10.4-14.1-3.4 4.6-6.2 9.1-8 14l-147.6 3.4c-3.4-14.6-7.1-30.3-9-44z"
       overflow="visible"
       color="#000"
       opacity=".527"
       fill="#c87137"
       fill-rule="evenodd"
       filter="url(#a)"
       enable-background="accumulate"
       id="path7" /><path
       d="M200.1 16.1c-2.3 10.67-10.5 21.38-15.6 31.44-6.6-10.06-13.9-19.69-17.7-30.12L17.34 19.05C24.61 113.6 7.605 179.3 16.85 277l18.26 20.1L10.34 309l7.1 141.6.96 43.3 90.2 3.4c3.4-15.2 15-35.6 21.3-49.6 4.3 13.6 15.4 36.7 16.6 50.9l45.1.8 13.8-18.7 14.4 22.2 68.7-8.6c1.8-4.7 4.5-9.1 7.8-13.5 4.8 4.2 7.4 8.9 10 13.6.8-9.5 7.7-19.6 10.6-28.7 4.5 8.6 19.9 28.9 33.1 33.9l114.6 5.6 22.3-14.7 19.4 14.7-14.5-67.6-34.6-14.2 37.5-15.1 2.1-96.9-14.5-21.9 15.2-13.4 5.1-239.63c-5.2-21.09-11.8-24.89-16.9-20.22l-4.2 2.11 2 19.14.7 44.47-7.1 124.23-18.3-137.78c8.8-15.88-3.9-35.38-.6-50.02-67.1 1.24-140.4-13.332-202.8-3.28-14 2.25-23.7 21.31-36.9 24.48-4.3 1.03-13.9-23.45-18.4-23.5z"
       overflow="visible"
       enable-background="accumulate"
       filter="url(#b)"
       fill-rule="evenodd"
       fill="#f6e7d0"
       color="#000"
       id="path8" /><path
       d="M354 27.39l-70.3 96.91 46.4 97.6-56.2 43.6 33 74.4-30.2 63.2 69.8 48.8 31.6 29.5 31.6-13.3L365.9 335l55.5-36.5 2.1-146.1-56.9-101.83zM116.6 55.48L89.9 123.6s33.7 65.3 35.8 68.8c2.1 3.6-7 118-7 118l42.8 73.8s9.9-82.9 7.1-83.6c-2.8-.7-29.5-42.1-29.5-42.1l23.8-84.3-36.5-37.2z"
       color="#000"
       overflow="visible"
       fill="#f2dbb9"
       fill-rule="evenodd"
       filter="url(#c)"
       enable-background="accumulate"
       id="path9" /><path
       d="M39.33 172.1l-5.62 108.1L74.45 328 42.84 464.9l96.96-39.3 30.2 42.9 74.4-38.7-80.8-169.9-60.4-16.9z"
       color="#000"
       overflow="visible"
       fill="#eed3a4"
       fill-rule="evenodd"
       enable-background="accumulate"
       filter="url(#d)"
       id="path10" /><path
       d="M266.9 66.72L324.5 191 434 221.2l21.8-111.6-41.4-68.86z"
       color="#000"
       overflow="visible"
       fill="#eed3a4"
       fill-rule="evenodd"
       enable-background="accumulate"
       filter="url(#e)"
       id="path11" /></svg><path
     style="fill:#3e3126;fill-opacity:1;stroke-width:0.497285"
     d="m 240.54107,429.68957 c -4.72272,-1.09836 -7.1914,-1.79296 -12.89489,-3.6282 -5.82052,-1.87292 -23.24116,-12.62367 -23.24116,-14.34273 0,-0.29882 -0.2987,-0.54329 -0.66377,-0.54329 -1.1535,0 -10.21535,-9.84773 -11.44003,-12.43213 -0.38882,-0.82052 -0.95742,-1.49185 -1.26357,-1.49185 -0.30613,0 -0.55661,-0.27231 -0.55661,-0.60514 0,-0.33288 -1.04429,-2.1909 -2.32066,-4.12896 -1.27636,-1.93802 -2.32065,-3.90349 -2.32065,-4.36765 0,-0.46417 -0.29838,-0.84395 -0.66306,-0.84395 -0.36468,0 -0.66304,-0.53969 -0.66304,-1.19935 0,-0.65965 -0.43808,-1.77854 -0.97349,-2.48642 -0.53541,-0.70789 -0.98297,-1.68953 -0.99457,-2.18144 -0.0118,-0.49187 -0.43362,-1.83454 -0.93783,-2.98372 -0.50421,-1.14912 -1.38796,-4.02874 -1.96388,-6.39911 -4.54691,-18.71397 -2.76412,-37.50716 5.09477,-53.70677 2.61924,-5.39912 8.37998,-14.58705 9.14588,-14.58705 0.31614,0 0.57481,-0.34413 0.57481,-0.76472 0,-0.92924 12.22564,-13.15926 13.15456,-13.15926 0.36241,0 0.75837,-0.24113 0.87993,-0.53588 0.71986,-1.74541 17.06935,-10.66964 21.4348,-11.70002 3.63628,-0.85821 3.65046,-0.91236 3.65046,-13.93372 0,-12.65575 -0.0182,-12.75301 -3.34256,-17.92295 -0.7035,-1.09402 -1.60054,-2.72899 -1.99345,-3.63326 -0.3929,-0.90425 -0.91976,-1.79937 -1.17078,-1.98914 -0.25104,-0.18976 -1.14373,-1.68768 -1.98376,-3.32872 -0.84004,-1.64105 -2.10341,-3.87883 -2.8075,-4.97286 -0.70407,-1.09401 -1.58224,-2.58587 -1.95146,-3.31524 -0.36922,-0.72937 -0.96804,-1.77366 -1.33074,-2.32068 -1.10655,-1.66889 -8.62638,-14.67941 -8.62638,-14.92501 0,-0.32294 -4.85522,-8.54062 -5.28469,-8.94467 -0.19384,-0.1823 -1.04105,-1.74199 -1.88268,-3.46597 -0.84165,-1.72394 -1.81108,-3.30799 -2.1543,-3.52014 -0.34321,-0.21208 -0.62402,-1.7107 -0.62402,-3.33022 0,-3.98518 1.81436,-5.81778 5.75992,-5.81778 2.00065,0 3.24167,0.39007 4.04308,1.27082 1.05146,1.15558 6.11012,9.33865 6.11012,9.88398 0,0.12642 1.73066,3.16337 3.84593,6.7487 2.11526,3.58528 4.05796,6.96627 4.3171,7.51328 0.25914,0.54702 1.06019,1.88969 1.78012,2.98372 0.71991,1.09402 1.63042,2.72899 2.02332,3.63326 0.3929,0.90426 0.91975,1.79937 1.17079,1.98914 0.25102,0.18976 1.14371,1.68769 1.98374,3.32872 0.84004,1.64105 2.09349,3.87882 2.78544,4.97285 1.99379,3.15233 2.86871,4.65936 4.5889,7.90435 0.88517,1.66972 1.79903,3.03592 2.03082,3.03592 0.23178,0 1.96765,-0.74593 3.85749,-1.6576 3.07904,-1.48539 4.26352,-1.65765 11.39914,-1.65765 7.13561,0 8.3201,0.17226 11.39912,1.65765 1.88985,0.91167 3.61076,1.6576 3.82426,1.6576 0.21349,0 0.96972,-1.11889 1.68049,-2.48643 0.71077,-1.36753 2.0406,-3.6799 2.95517,-5.1386 2.74181,-4.37307 2.95066,-4.73355 4.67307,-8.06595 0.91134,-1.76323 1.86239,-3.3611 2.11342,-3.55086 0.25102,-0.18977 0.77788,-1.08488 1.17079,-1.98914 0.3929,-0.90427 1.30339,-2.53924 2.02332,-3.63326 0.71991,-1.09403 1.52097,-2.4367 1.78011,-2.98372 0.25913,-0.54701 2.20185,-3.928 4.31711,-7.51328 2.11526,-3.58533 3.84593,-6.62224 3.84593,-6.7487 0,-0.54533 5.05866,-8.7284 6.1101,-9.88398 0.80142,-0.88075 2.04243,-1.27082 4.04308,-1.27082 3.94557,0 5.75994,1.8326 5.75994,5.81778 0,1.61952 -0.28083,3.11814 -0.62404,3.33022 -0.34321,0.21215 -1.31265,1.7962 -2.15428,3.52014 -0.84165,1.72398 -1.68884,3.28367 -1.88268,3.46597 -0.42949,0.40405 -5.28471,8.62173 -5.28471,8.94467 0,0.12642 -1.79022,3.26229 -3.97827,6.96845 -2.18806,3.70622 -3.97828,7.01261 -3.97828,7.34753 0,0.33498 -0.26918,0.60903 -0.59818,0.60903 -0.32901,0 -0.92664,0.82053 -1.32806,1.8234 -0.40144,1.00287 -1.30949,2.71851 -2.01791,3.81252 -0.70842,1.09403 -1.97534,3.33181 -2.81537,4.97286 -0.84004,1.64104 -1.73273,3.13896 -1.98375,3.32872 -0.25103,0.18977 -0.77788,1.08489 -1.17079,1.98914 -0.3929,0.90427 -1.28996,2.53924 -1.99344,3.63326 -3.32444,5.16994 -3.34258,5.2672 -3.34258,17.92295 0,13.02136 0.0142,13.07551 3.65047,13.93372 4.36546,1.03038 20.71493,9.95461 21.4348,11.70002 0.12156,0.29475 0.51753,0.53588 0.87993,0.53588 0.92891,0 13.15458,12.23002 13.15458,13.15926 0,0.42059 0.25679,0.76472 0.57067,0.76472 1.57978,0 10.23369,15.65135 12.28141,22.21208 0.68292,2.18805 1.62144,5.17176 2.08556,6.63044 1.21939,3.83273 2.48219,14.44832 2.40561,20.22294 -0.1084,8.17328 -2.30198,20.71863 -4.48098,25.62747 -0.51011,1.14918 -0.93694,2.49185 -0.94852,2.98372 -0.0118,0.49191 -0.45919,1.47355 -0.99457,2.18144 -0.53543,0.70788 -0.97349,1.82677 -0.97349,2.48642 0,0.65966 -0.29836,1.19935 -0.66308,1.19935 -0.36466,0 -0.66303,0.37978 -0.66303,0.84395 0,0.46416 -1.0443,2.42963 -2.32068,4.36765 -1.27633,1.93806 -2.32063,3.79608 -2.32063,4.12896 0,0.33283 -0.25048,0.60514 -0.55661,0.60514 -0.30617,0 -0.87477,0.67133 -1.2636,1.49185 -1.22467,2.5844 -10.28652,12.43213 -11.44,12.43213 -0.36508,0 -0.66378,0.24447 -0.66378,0.54329 0,1.71906 -17.42065,12.46981 -23.24115,14.34273 -12.83264,4.12921 -18.05458,5.01533 -29.07442,4.93361 -6.87676,-0.051 -11.21511,-0.42899 -14.98365,-1.30541 z m 23.53814,-4.24274 c 4.55845,-0.52403 9.1832,-1.25783 10.27723,-1.63065 1.09403,-0.37286 3.77936,-1.25719 5.96742,-1.96522 2.18805,-0.70798 4.87338,-1.75675 5.96741,-2.33057 1.09403,-0.57387 2.33724,-1.0452 2.76269,-1.04743 0.42546,0 0.87302,-0.22786 0.99457,-0.50136 0.12156,-0.27351 1.4145,-1.0912 2.87321,-1.81703 1.45869,-0.72589 2.80137,-1.47267 2.98371,-1.65949 0.18234,-0.18688 1.66111,-1.23402 3.28615,-2.327 3.64442,-2.45126 14.6161,-13.06034 14.6161,-14.13309 0,-0.43099 0.27279,-0.78362 0.60617,-0.78362 0.3334,0 1.59161,-1.56645 2.79603,-3.48099 3.12225,-4.96315 3.61302,-5.8159 5.0561,-8.78534 1.13638,-2.33842 1.94194,-4.27853 4.20315,-10.12312 1.79694,-4.6447 3.25169,-14.79906 3.25169,-22.69768 0,-8.31804 -1.86974,-20.67174 -3.35682,-22.17891 -0.34178,-0.34646 -0.62146,-1.18692 -0.62146,-1.86775 0,-2.37513 -7.85441,-17.56938 -9.44843,-18.27786 -0.27351,-0.12156 -0.49729,-0.46575 -0.49729,-0.76487 0,-1.91976 -11.70918,-13.41441 -17.92367,-17.59529 -5.9629,-4.0116 -17.14881,-9.59829 -19.21815,-9.59829 -0.44295,0 -2.18809,-0.43229 -3.87806,-0.96061 -5.18367,-1.6206 -12.01245,-2.55639 -18.6543,-2.55639 -6.64185,0 -13.47063,0.93579 -18.6543,2.55639 -1.68999,0.52832 -3.43511,0.96061 -3.87807,0.96061 -2.06934,0 -13.25524,5.58669 -19.21816,9.59829 -6.21449,4.18088 -17.92367,15.67553 -17.92367,17.59529 0,0.29912 -0.22377,0.64334 -0.49728,0.76487 -1.59399,0.70848 -9.44841,15.90273 -9.44841,18.27786 0,0.68083 -0.27967,1.52129 -0.62149,1.86775 -1.48705,1.50717 -3.35679,13.86087 -3.35679,22.17891 0,7.89862 1.45471,18.05298 3.25168,22.69768 3.88865,10.05116 4.59617,11.49598 9.25924,18.90846 1.20442,1.91454 2.46262,3.48099 2.79602,3.48099 0.33339,0 0.60618,0.35263 0.60618,0.78362 0,2.44346 20.07941,19.09241 23.04087,19.10445 0.45583,0 0.8288,0.3017 0.8288,0.66636 0,0.3647 0.37296,0.66492 0.82881,0.66716 0.45585,0 1.72391,0.47356 2.81794,1.04743 1.09403,0.57382 3.77937,1.62448 5.96743,2.33484 2.18805,0.71033 5.02257,1.62962 6.29894,2.04286 1.93623,0.62682 4.90525,1.05279 16.90769,2.42565 0.36467,0.0418 4.39267,-0.35292 8.95112,-0.87691 z m -17.57073,-5.41627 c -3.28208,-0.52733 -7.60846,-1.43478 -9.61418,-2.01665 -4.54953,-1.31974 -17.80868,-7.6927 -19.73103,-9.48362 -0.78705,-0.73329 -1.56199,-1.33322 -1.72208,-1.33322 -1.39395,0 -12.92527,-11.67213 -15.4765,-15.66552 -3.35898,-5.25769 -5.56474,-9.20445 -5.90754,-10.57029 -0.22255,-0.88665 -0.67066,-1.61214 -0.9958,-1.61214 -0.32514,0 -0.59117,-0.5866 -0.59117,-1.30359 0,-0.71698 -0.41987,-2.28343 -0.93304,-3.48099 -2.73626,-6.38544 -3.37676,-10.63439 -3.37676,-22.4003 0,-9.3866 0.23816,-12.4267 1.24663,-15.91312 4.69809,-16.24207 12.16859,-28.0591 23.28609,-36.83449 1.82338,-1.43923 3.4147,-2.8406 3.53626,-3.11409 0.12156,-0.27351 0.6437,-0.49729 1.16032,-0.49729 0.51663,0 0.94036,-0.22378 0.94164,-0.49728 0.001,-0.27351 1.7169,-1.3924 3.81251,-2.48643 2.09561,-1.09403 3.95939,-2.13833 4.14173,-2.32063 0.37853,-0.37853 3.33977,-1.50454 8.61961,-3.27755 7.46378,-2.50642 12.83697,-3.35638 21.21749,-3.35638 8.84141,0 14.17675,0.90645 22.21206,3.77369 2.55272,0.91093 5.31266,1.81271 6.13318,2.00397 0.82051,0.1913 1.49184,0.6114 1.49184,0.93355 0,0.32213 0.37977,0.58575 0.84394,0.58575 0.46416,0 2.42961,1.0443 4.36767,2.32068 1.93806,1.27633 3.79607,2.32063 4.12893,2.32063 0.33284,0 0.60517,0.23407 0.60517,0.52011 0,0.28604 0.82052,1.01357 1.82337,1.61667 7.89501,4.74823 19.3498,20.41772 22.91538,31.3471 3.48219,10.67358 3.4076,10.17286 3.4076,22.87511 0,9.86032 -0.22797,12.98162 -1.16216,15.91312 -0.63916,2.0057 -1.48897,4.69103 -1.8884,5.96741 -1.59166,5.08559 -4.11417,10.31306 -7.29503,15.11752 -1.0382,1.56819 -1.88764,2.96113 -1.88764,3.09545 0,1.19771 -13.74272,14.93933 -14.94054,14.93933 -0.20074,0 -1.00894,0.59993 -1.79599,1.33322 -1.92782,1.796 -15.19314,8.16851 -19.73103,9.47856 -4.80442,1.38692 -16.19806,3.12931 -19.92034,3.04631 -1.62513,-0.0363 -5.64011,-0.49733 -8.92219,-1.0246 z m 22.21206,-152.92288 c 0,-5.57586 -0.16275,-6.54397 -1.16033,-6.90236 -3.29312,-1.18315 -4.69079,-6.30817 -2.50751,-9.19476 1.40784,-1.86127 1.24984,-2.52038 -0.91003,-3.79626 -1.44315,-0.8525 -3.45276,-1.13755 -8.02001,-1.13755 -4.56727,0 -6.57686,0.28505 -8.02002,1.13755 -2.15987,1.27588 -2.31786,1.93499 -0.91003,3.79626 2.18328,2.88659 0.78562,8.01161 -2.5075,9.19476 -0.99759,0.35839 -1.16034,1.3265 -1.16034,6.90236 v 6.48554 h 12.59789 12.59788 z m -70.94599,-57.97686 c -6.18681,-2.14976 -10.6151,-6.46122 -13.29924,-12.9483 -0.41495,-1.00287 -1.02365,-1.82339 -1.35264,-1.82339 -0.329,0 -0.59818,-0.27406 -0.59818,-0.60904 0,-0.33492 -1.79023,-3.64131 -3.97829,-7.34752 -2.18805,-3.70617 -3.97828,-6.83906 -3.97828,-6.96199 0,-0.21871 -7.3462,-12.95562 -8.60447,-14.91855 -2.41137,-3.76166 -3.33035,-7.05831 -3.33035,-11.94667 0,-5.02756 0.79998,-7.87462 3.2842,-11.68819 1.11418,-1.71041 1.64216,-1.27549 4.00931,3.30257 2.37325,4.58994 3.06601,5.76129 3.90148,6.59673 0.40691,0.40694 0.73983,1.5667 0.73983,2.57728 0,1.01064 1.34268,4.10847 2.98371,6.88417 1.64105,2.77574 2.98372,5.14988 2.98372,5.27594 0,0.32239 4.85583,8.54047 5.28469,8.94386 0.19384,0.18237 1.03974,1.67422 1.87976,3.31526 0.84005,1.64104 2.10341,3.87882 2.8075,4.97285 0.70408,1.09403 1.60162,2.729 1.99452,3.63326 0.3929,0.90426 0.91949,1.79938 1.17018,1.98914 0.25069,0.18976 0.98684,1.38931 1.6359,2.66569 0.64906,1.27633 2.38185,3.65853 3.85066,5.29371 2.52715,2.81334 3.37201,4.06768 5.3663,7.96719 0.46626,0.91173 1.00907,1.80684 1.20626,1.98914 0.19718,0.18235 0.71901,1.15206 1.15961,2.15494 l 0.8011,1.82334 -3.46679,-0.0524 c -1.90673,-0.0288 -4.80944,-0.51892 -6.45049,-1.08911 z m 107.58003,-0.68192 c 0.44061,-1.00288 0.96243,-1.97259 1.15961,-2.15494 0.19718,-0.1823 0.73999,-1.07741 1.20625,-1.98914 1.9943,-3.89951 2.83915,-5.15385 5.3663,-7.96719 1.46881,-1.63518 3.20161,-4.01738 3.85065,-5.29371 0.64906,-1.27638 1.38523,-2.47593 1.63592,-2.66569 0.25068,-0.18976 0.77726,-1.08488 1.17016,-1.98914 0.3929,-0.90426 1.29045,-2.53923 1.99456,-3.63326 0.70406,-1.09403 1.96745,-3.33181 2.80747,-4.97285 0.84006,-1.64104 1.68595,-3.13289 1.87978,-3.31526 0.42886,-0.40339 5.2847,-8.62147 5.2847,-8.94386 0,-0.12603 1.34267,-2.5002 2.98372,-5.27594 1.64103,-2.7757 2.9837,-5.87353 2.9837,-6.88417 0,-1.01058 0.33294,-2.17034 0.73981,-2.57728 0.83549,-0.83544 1.52826,-2.00679 3.9015,-6.59673 2.36713,-4.57806 2.89514,-5.01298 4.00931,-3.30257 2.48423,3.81357 3.28421,6.66063 3.28421,11.68819 0,4.88836 -0.91903,8.18501 -3.33036,11.94667 -1.25828,1.96293 -8.60447,14.69984 -8.60447,14.91855 0,0.12288 -1.7307,3.15691 -3.84595,6.74223 -2.11525,3.58529 -4.05795,6.96627 -4.31708,7.51328 -0.25918,0.54702 -1.06022,1.88969 -1.78013,2.98372 -0.71992,1.09403 -1.58266,2.58587 -1.91723,3.31525 -2.49692,5.44363 -11.00063,10.27718 -18.08062,10.27718 h -3.1829 z m -85.03644,-6.73394 c 0,-0.33039 -1.49186,-3.13543 -3.31523,-6.23341 -1.82338,-3.09799 -3.31524,-6.21313 -3.31524,-6.92245 0,-1.22497 -1.7818,-5.42783 -2.60086,-6.13481 -0.21124,-0.1823 -1.07137,-1.67416 -1.91141,-3.3152 -0.84004,-1.64104 -2.10341,-3.87883 -2.80748,-4.97285 -0.70409,-1.09403 -1.58226,-2.58588 -1.95148,-3.31525 -0.36922,-0.72936 -0.96804,-1.77366 -1.33074,-2.32068 -1.06941,-1.6129 -8.18716,-14.03571 -9.62428,-16.79754 -0.72752,-1.39812 -2.42671,-3.74395 -3.77599,-5.21299 -2.36742,-2.57748 -7.16094,-10.01323 -7.16094,-11.1081 0,-0.29389 -0.44756,-0.90581 -0.99457,-1.35978 -1.81649,-1.50756 -1.17159,-2.65247 1.49185,-2.64848 4.9947,0.008 10.97027,2.37179 14.96586,5.92162 1.55245,1.37922 8.65669,12.51502 10.60184,16.61826 0.25931,0.54702 1.0605,1.88968 1.78043,2.98371 0.71991,1.09402 1.63042,2.72901 2.02332,3.63326 0.39291,0.90427 0.91976,1.79938 1.17079,1.98914 0.25103,0.18977 1.20206,1.78764 2.11342,3.55087 2.10833,4.07907 2.86131,5.38524 3.74906,6.5034 1.52717,1.92343 4.41119,7.67175 5.27488,10.51369 1.62992,5.36311 0.8398,12.40064 -1.91686,17.07343 -1.21071,2.05224 -2.46637,2.84353 -2.46637,1.55416 z m 69.14266,-1.55416 c -2.75666,-4.67279 -3.54679,-11.71032 -1.91687,-17.07343 0.86371,-2.84194 3.74772,-8.59026 5.27488,-10.51369 0.88777,-1.11816 1.64074,-2.42433 3.74907,-6.5034 0.91135,-1.76323 1.86239,-3.3611 2.11343,-3.55087 0.25102,-0.18976 0.77788,-1.08487 1.17077,-1.98914 0.39292,-0.90425 1.30341,-2.53924 2.02332,-3.63326 0.71993,-1.09403 1.52112,-2.43669 1.78044,-2.98371 1.94515,-4.10324 9.04938,-15.23904 10.60183,-16.61826 3.99558,-3.54983 9.97115,-5.91421 14.96589,-5.92162 2.6634,-0.005 3.30834,1.14092 1.49185,2.64848 -0.54701,0.45397 -0.99457,1.06589 -0.99457,1.35978 0,1.09487 -4.79352,8.53062 -7.16096,11.1081 -1.34927,1.46904 -3.04501,3.81487 -3.76827,5.21299 -1.22883,2.37544 -8.25115,14.589 -9.65794,16.79754 -0.34842,0.54702 -0.93559,1.59132 -1.30481,2.32068 -0.36922,0.72937 -1.24737,2.22122 -1.95146,3.31525 -0.70409,1.09402 -1.96746,3.33181 -2.8075,4.97285 -0.84003,1.64104 -1.70016,3.1329 -1.91141,3.3152 -0.81906,0.70698 -2.60086,4.90984 -2.60086,6.13481 0,0.70932 -1.49185,3.82446 -3.31522,6.92245 -1.82339,3.09798 -3.31524,5.90302 -3.31524,6.23341 0,1.28937 -1.25567,0.49808 -2.46637,-1.55416 z M 177.99792,153.98725 c -2.4108,-2.60512 -2.86207,-3.25906 -4.62641,-6.70439 -0.84039,-1.64105 -2.10757,-3.87884 -2.81599,-4.97286 -0.70841,-1.09402 -1.61648,-2.80966 -2.01791,-3.81253 -0.40144,-1.00287 -0.99905,-1.8234 -1.32805,-1.8234 -0.32901,0 -0.59819,-0.33247 -0.59819,-0.73891 0,-0.40638 -1.79023,-3.70233 -3.97827,-7.32431 -2.18806,-3.62203 -3.97829,-6.69645 -3.97829,-6.8321 0,-0.13566 -1.73067,-3.18008 -3.84593,-6.76542 -2.11527,-3.58527 -4.05796,-6.96626 -4.31711,-7.51326 -0.25914,-0.54702 -1.06019,-1.8897 -1.78012,-2.98372 -0.71991,-1.09403 -1.63041,-2.729 -2.02331,-3.63327 -0.39292,-0.904246 -0.91949,-1.799356 -1.17018,-1.989136 -0.25069,-0.18976 -1.03777,-1.53849 -1.74905,-2.99723 -0.71129,-1.45868 -1.63875,-3.09973 -2.06103,-3.64673 -1.50923,-1.95508 -2.25664,-5.28376 -1.58376,-7.05355 1.48114,-3.89575 6.11053,-5.40944 9.04685,-2.95812 0.80114,0.6688 2.12769,2.52375 2.94788,4.12202 0.82018,1.59827 1.68652,3.05511 1.92518,3.23748 0.23866,0.1823 1.42352,2.12171 2.633,4.30976 1.2095,2.18806 3.49191,6.166136 5.07204,8.840176 1.58013,2.67401 2.87296,4.96499 2.87296,5.09111 0,0.32234 4.85583,8.54042 5.2847,8.94382 0.19383,0.18235 1.03973,1.67421 1.87976,3.31524 0.84004,1.64105 2.10694,3.87883 2.81536,4.97286 0.70842,1.09403 1.61649,2.80966 2.01791,3.81253 0.40144,1.00283 0.99907,1.82335 1.32806,1.82335 0.32901,0 0.59818,0.33154 0.59818,0.73672 0,0.40524 1.54712,3.29804 3.43802,6.42856 6.53404,10.81743 7.14265,13.23643 4.09661,16.28249 -2.45344,2.45341 -5.72027,2.38583 -8.08291,-0.16718 z m 148.16654,0.16718 c -3.04602,-3.04606 -2.43739,-5.46506 4.09664,-16.28249 1.89091,-3.13052 3.43803,-6.02332 3.43803,-6.42856 0,-0.40518 0.26917,-0.73672 0.59818,-0.73672 0.329,0 0.92659,-0.82052 1.32804,-1.82335 0.40141,-1.00287 1.30951,-2.7185 2.01789,-3.81253 0.70843,-1.09403 1.97536,-3.33181 2.81538,-4.97286 0.84006,-1.64103 1.68594,-3.13289 1.87978,-3.31524 0.42946,-0.40399 5.28469,-8.62168 5.28469,-8.94461 0,-0.12643 1.79024,-3.2623 3.97829,-6.96851 2.18806,-3.706156 3.97828,-6.869286 3.97828,-7.029166 0,-0.15987 0.81068,-1.55283 1.80151,-3.09546 0.99085,-1.54261 2.35992,-3.82257 3.04234,-5.06658 1.62701,-2.96602 3.70979,-4.65083 5.78313,-4.67813 1.62583,-0.0214 4.45065,1.49609 5.44173,2.92325 0.76886,1.10711 0.56885,5.20091 -0.33114,6.77826 -0.45049,0.78948 -1.56471,2.87808 -2.47603,4.6413 -0.91137,1.76323 -1.86243,3.36115 -2.11346,3.55091 -0.25102,0.18978 -0.77785,1.08489 -1.17076,1.989136 -0.3929,0.90427 -1.30338,2.53924 -2.02329,3.63327 -0.71998,1.09402 -1.521,2.4367 -1.78013,2.98372 -0.25915,0.547 -2.20183,3.92799 -4.31714,7.51326 -2.11525,3.58534 -3.8459,6.62976 -3.8459,6.76542 0,0.13565 -1.79023,3.21007 -3.97829,6.8321 -2.18804,3.62198 -3.97827,6.91793 -3.97827,7.32431 0,0.40644 -0.26919,0.73891 -0.59819,0.73891 -0.329,0 -0.92663,0.82053 -1.32809,1.8234 -0.40142,1.00287 -1.30946,2.71851 -2.01789,3.81253 -0.70843,1.09402 -1.97561,3.33181 -2.81597,4.97286 -4.32176,8.43926 -8.74828,10.8326 -12.70936,6.87157 z"
     id="path4"
     sodipodi:nodetypes="ssssssssssssssssssssssssssssssssssssssssssssssssssssssssssssssssssssssssssssssssssssssssssssssssssssssscsssssssssssssssssssssssssssssscscssssssssssssssssssscssssssssssscssscsssssssssssssssscccssssssssssssssssssssssssscsssssssssssssssssssssssssscssssssssssssssssssssssssssssssssscsssssssssssssssssssssssssssssssssssssssssssssssssssssssssssssssssssssssssss" /></svg>
