<?xml version="1.0" encoding="UTF-8" standalone="no"?>
<svg
   viewBox="0 0 512 512"
   style="height: 512px; width: 512px;"
   version="1.1"
   id="svg12"
   sodipodi:docname="werewolf-decoction.svg"
   inkscape:version="1.3.2 (091e20e, 2023-11-25)"
   xmlns:inkscape="http://www.inkscape.org/namespaces/inkscape"
   xmlns:sodipodi="http://sodipodi.sourceforge.net/DTD/sodipodi-0.dtd"
   xmlns="http://www.w3.org/2000/svg"
   xmlns:svg="http://www.w3.org/2000/svg">
  <path
     id="path31"
     style="fill:#3e3126;fill-opacity:1"
     d="M 255.40625 22.216797 L 243.875 65.123047 L 307.73438 82.25 L 307.73438 82.253906 L 384.28125 102.78516 L 395.76953 59.867188 L 357.74023 49.669922 L 255.40625 22.216797 z M 256.18945 87.777344 L 256.18555 87.779297 L 249.3418 113.24805 L 230.9668 108.3125 C 188.18716 96.848592 143.89516 121.80893 132.40625 164.6875 L 126.75391 185.7832 L 113.16992 236.47266 L 113.30469 236.47656 L 108.94922 252.89453 L 98.175781 293.10547 L 98.146484 293.10156 L 82.5 351.38672 C 70.990174 394.25904 96.84853 438.0364 139.62305 449.51758 L 158.00195 454.43945 L 176.07617 459.28711 L 246.05273 478.05859 L 264.12695 482.90625 L 282.50195 487.8418 C 325.28139 499.30498 369.57364 474.3447 381.0625 431.4668 L 406.48633 336.59375 L 430.96875 244.76758 C 442.47863 201.89461 416.62044 158.11871 373.8457 146.63672 L 355.4668 141.71484 L 362.28516 116.24219 L 362.28516 116.23828 L 344.2207 111.39258 L 334.98047 145.86523 L 332.57422 154.9043 L 341.58594 157.29883 L 368.98828 164.6543 C 402.19138 173.56662 421.80827 206.7923 412.92188 239.89258 L 412.32617 242.11523 L 412.29688 242.10547 L 411.125 246.46094 L 411.16797 246.46289 L 388.44727 331.51953 L 384.55664 346.08984 L 384.59375 346.08984 L 373.79688 386.37109 L 363 426.65234 C 354.13012 459.75708 320.51906 478.70677 287.3125 469.80859 L 259.90625 462.46484 L 250.90625 460.02734 L 180.89453 441.24609 L 171.88281 438.85156 L 144.48047 431.49609 C 111.27754 422.58371 91.660528 389.35745 100.54688 356.25781 L 101.14258 354.03516 L 101.17188 354.04492 L 103.3125 346.08984 L 126.83008 257.92383 L 145.02148 189.82031 L 145.13086 189.41016 L 150.46875 169.49805 C 159.33866 136.39332 192.94952 117.44289 226.15625 126.3418 L 253.5625 133.68555 L 262.5625 136.12305 L 265.00195 127.0918 L 274.25195 92.623047 L 256.18945 87.777344 z M 212.28516 171.97656 L 203.88867 182.65234 L 203.88281 182.6582 C 194.80086 194.19739 168.97731 207.62515 155.59961 207.76172 C 153.68207 207.78142 152.13389 208.15879 150.75977 209.08203 C 146.91317 211.40263 144.57144 218.10622 140.32422 235.4375 L 133.61914 262.80273 L 147.77344 276.95703 C 156.12469 285.30825 164.02705 298.36732 167.04688 308.80859 L 172.16406 326.50586 L 237.8125 344.67188 C 273.91856 354.66326 307.08648 362.96479 311.51953 363.11719 C 315.95253 363.27019 323.81651 358.86536 328.99414 353.33008 C 340.99708 340.4978 350.54506 335.34003 367.51172 332.51953 C 380.56167 330.35013 381.35514 329.24345 388.19922 303.64062 L 395.31445 277.01562 L 382.85742 264.16211 C 378.68397 259.85624 373.82935 252.61321 369.80469 245.07617 L 369.83008 245.07617 C 368.81226 243.19152 367.88688 241.30654 366.97461 239.42969 C 365.59761 236.47836 364.39648 233.57723 363.48828 230.89453 L 356.57812 210.48242 L 356.375 210.42773 L 356.31445 210.25195 L 284.30078 191.11328 L 212.28516 171.97656 z M 217.75 188.93555 C 260.14508 200.18462 302.54047 211.43453 344.93555 222.68359 C 347.36067 230.08827 350.06342 237.41424 353.25781 244.52148 L 353.34766 244.52539 C 355.99271 250.46318 358.90701 256.30039 362.56445 261.68164 C 367.28269 268.79148 373.00766 275.15136 378.87695 281.32422 C 375.73168 292.4953 373.00326 303.78221 369.43359 314.82227 C 369.02413 315.56713 369.08813 316.49873 368.58203 317.18945 C 360.93313 318.62643 353.28697 320.34603 346.04883 323.25781 C 337.42525 326.48001 329.8933 332.03278 323.22852 338.28906 C 319.42741 341.62326 316.1472 345.80037 311.49609 347.94727 C 309.70314 347.65267 307.86909 347.27881 306.11914 346.94141 C 265.19789 337.09973 224.68906 325.67562 184.11133 314.53125 C 181.35368 304.60077 177.79449 294.83336 172.75 285.81836 C 166.7567 275.40604 158.3345 266.70998 149.91602 258.24805 L 150.94336 254.14062 C 152.37759 248.73961 153.64794 243.29209 155.02148 237.875 L 155.23438 237.88281 C 156.55722 232.61275 157.96667 227.36777 159.76758 222.23633 C 168.34051 221.0016 176.64828 218.22655 184.41211 214.41797 C 195.88496 208.72489 206.93711 201.65548 215.40039 191.91602 C 215.44259 191.86252 215.48519 191.80936 215.52734 191.75586 C 216.26808 190.81565 217.00926 189.87577 217.75 188.93555 z M 274.41016 215.2168 C 260.84261 215.13816 247.89796 229.21295 239.19922 240.21484 C 231.30091 250.20438 229.96571 264.04063 227.06836 276.44141 C 224.17101 288.84219 210.21882 309.20152 221.89062 314.29492 C 232.5521 318.94746 232.64467 284.89853 244.02344 287.31445 C 255.64414 289.78177 242.41844 317.34447 253.48047 321.67578 C 260.83426 324.55508 265.92507 307.34338 273.60742 309.17383 C 281.22332 310.98845 278.20613 331.02952 285.82617 329.23242 C 298.10899 326.33542 286.15719 303.80086 289.00195 291.50586 C 291.93266 278.83921 304.33592 268.09802 303.13477 255.15234 C 301.70503 239.74277 293.70659 219.23604 278.63672 215.71484 C 277.22388 215.38472 275.8137 215.22493 274.41016 215.2168 z M 253.21875 236.79492 C 253.39004 236.80879 253.57052 236.84125 253.75977 236.88867 C 255.30033 237.27459 257.22792 238.72716 258.81836 240.70117 C 261.27734 243.75333 262.1917 247.097 260.85938 248.16797 C 259.52789 249.23781 256.4571 247.63364 254 244.58398 C 251.54241 241.53369 250.62964 238.19218 251.95898 237.11914 C 252.27611 236.86335 252.70487 236.7533 253.21875 236.79492 z M 290.25195 245.61133 C 290.72866 245.59998 291.16863 245.63458 291.55664 245.71875 C 292.31933 245.88411 292.84044 246.23151 293.06836 246.72461 C 293.78464 248.2756 291.48442 250.86616 287.92969 252.51172 C 284.37567 254.15694 280.91101 254.23458 280.19141 252.68555 C 279.47156 251.13512 281.77328 248.54114 285.33008 246.89453 C 287.05543 246.09584 288.82182 245.64538 290.25195 245.61133 z M 147.35547 323.80859 A 9.1776276 9.1776276 0 0 0 138.17773 332.98633 A 9.1776276 9.1776276 0 0 0 147.35547 342.16406 A 9.1776276 9.1776276 0 0 0 156.5332 332.98633 A 9.1776276 9.1776276 0 0 0 147.35547 323.80859 z M 295.08203 376.14648 A 27.204102 27.204102 0 0 0 267.87695 403.35156 A 27.204102 27.204102 0 0 0 295.08203 430.55469 A 27.204102 27.204102 0 0 0 322.28516 403.35156 A 27.204102 27.204102 0 0 0 295.08203 376.14648 z M 207.85938 386.80469 A 14.583642 14.583642 0 0 0 193.27734 401.38672 A 14.583642 14.583642 0 0 0 207.85938 415.9707 A 14.583642 14.583642 0 0 0 222.44336 401.38672 A 14.583642 14.583642 0 0 0 207.85938 386.80469 z " />
  <sodipodi:namedview
     id="namedview12"
     pagecolor="#505050"
     bordercolor="#ffffff"
     borderopacity="1"
     inkscape:showpageshadow="0"
     inkscape:pageopacity="0"
     inkscape:pagecheckerboard="1"
     inkscape:deskcolor="#d1d1d1"
     inkscape:zoom="1.0193268"
     inkscape:cx="206.01833"
     inkscape:cy="286.9541"
     inkscape:window-width="1728"
     inkscape:window-height="1051"
     inkscape:window-x="0"
     inkscape:window-y="38"
     inkscape:window-maximized="1"
     inkscape:current-layer="svg12" />
  <defs
     id="defs2">
    <radialGradient
       id="lorc-heart-bottle-gradient-0">
      <stop
         offset="0%"
         stop-color="#830000"
         stop-opacity="1"
         id="stop1" />
      <stop
         offset="100%"
         stop-color="#000"
         stop-opacity="1"
         id="stop2" />
    </radialGradient>
  </defs>
  <path
     d="M0 0h512v512H0z"
     fill="url(#pattern)"
     id="path2" />
  <svg
     version="1.1"
     id="svg11">
    <defs
       id="defs6">
      <filter
         id="b"
         x="-0.023338979"
         width="1.046678"
         y="-0.023448784"
         height="1.0468976"
         color-interpolation-filters="sRGB">
        <feGaussianBlur
           stdDeviation="4.823"
           id="feGaussianBlur2" />
      </filter>
      <filter
         id="a"
         x="-0.012011281"
         width="1.0240226"
         y="-0.011988317"
         height="1.0239766"
         color-interpolation-filters="sRGB">
        <feGaussianBlur
           stdDeviation="2.55"
           id="feGaussianBlur3" />
      </filter>
      <filter
         id="c"
         x="-0.11244604"
         width="1.2248921"
         y="-0.082623731"
         height="1.1652475"
         color-interpolation-filters="sRGB">
        <feGaussianBlur
           stdDeviation="15.63"
           id="feGaussianBlur4" />
      </filter>
      <filter
         id="e"
         x="-0.23758603"
         width="1.4751721"
         y="-0.24869778"
         height="1.4973956"
         color-interpolation-filters="sRGB">
        <feGaussianBlur
           stdDeviation="18.7"
           id="feGaussianBlur5" />
      </filter>
      <filter
         id="d"
         x="-0.21301439"
         width="1.4260288"
         y="-0.15141701"
         height="1.302834"
         color-interpolation-filters="sRGB">
        <feGaussianBlur
           stdDeviation="18.7"
           id="feGaussianBlur6" />
      </filter>
    </defs>
    <path
       d="M196.6 1.207c-2.5 11.323-4.8 22.703-10.2 33.383-7-10.68-12.6-20.91-16.7-31.988L2.494 4.338C13 104.9 10.86 175.3 1.979 278.3L15.4 295.5l-9.494 6.3L2.6 462.7l1.019 45.9 112.681 3.1c3.6-16.1 6.5-32.5 13.2-47.3 4.5 14.4 5.7 29.4 7 44.4l160 .3c.8-6.1.7-8.1 2.3-14.4 5.1 4.5 7.8 9.5 10.6 14.5.8-10.1 3.9-19.8 7-29.5 4.8 9.2 6.7 19.4 8.8 29.5l185.2.4-4.6-78.2-21.4-8.2 21.3-4.9 5.8-395.47c-7-6.73-13.3-13.744-18-21.465l-15.1.114-2.1 20.321-1.4 47.23.8 84.87-8.6-97.14c9.3-16.86 2.2-39.69 5.7-55.239-92.1 1.696-184.1.685-276.2-.314z"
       overflow="visible"
       color="#000"
       fill="#ebc893"
       fill-rule="evenodd"
       stroke="#e0aa58"
       enable-background="accumulate"
       id="path6" />
    <path
       d="M196.6 1.203c-2.5 11.327-4.8 22.707-10.2 33.387-7-10.68-12.6-20.91-16.7-31.99L2.494 4.336C13 104.9 10.86 175.3 1.979 278.3L15.4 295.5l-9.494 6.3L2.6 462.7l1.019 45.9 112.681 3.1c.5-2.1-7.9-2.3-7.4-4.5L5.244 504.5l-.914-47.3 4.63-153.7 12.42-9-13.093-16.8C16.95 177.3 16.36 104 6.113 5.992l162.687.164c4 10.804 10.3 24.254 17.1 34.664 5.3-10.41 9.5-25.97 12-37.02 89.8.974 173.8 3.521 263.6 1.867 4.6 1.226 10.6.431 11.3-4.149-92.1 1.696-184.1.684-276.2-.315zm296.9.158l-15.1.116-.6 6.277 13.5-2.557c4.6 7.533 9.7 12.383 16.6 18.943l-4.6 389.06-19.9 9.9 4.1-.6 18.2-4.2 5.8-395.47c-7-6.73-13.3-13.748-18-21.469zm9.6 435.739l3.5 69.7-177.7.1c.4 2.1-4.1.2-3.7 2.3l185.2.4-4.6-78.2zm-370 25.1c-1 2.2-2.9.4-3.7 2.6 4.2 14 5.8 29.5 7.1 44l158 .3c1.9-5 .8-9.7 4.3-14.4 5.1 4.5 7.8 9.5 10.6 14.5.8-10.1 3.9-19.8 7-29.5 1.8 3.4 3.2 7 4.3 10.6-1.4-5.6-2.4-8.3-5.1-13.4-3 9.4-6.7 16.2-7.5 26-2.7-4.9-5.4-9.7-10.4-14.1-3.4 4.6-6.2 9.1-8 14l-147.6 3.4c-3.4-14.6-7.1-30.3-9-44z"
       overflow="visible"
       color="#000"
       opacity=".527"
       fill="#c87137"
       fill-rule="evenodd"
       filter="url(#a)"
       enable-background="accumulate"
       id="path7" />
    <path
       d="M200.1 16.1c-2.3 10.67-10.5 21.38-15.6 31.44-6.6-10.06-13.9-19.69-17.7-30.12L17.34 19.05C24.61 113.6 7.605 179.3 16.85 277l18.26 20.1L10.34 309l7.1 141.6.96 43.3 90.2 3.4c3.4-15.2 15-35.6 21.3-49.6 4.3 13.6 15.4 36.7 16.6 50.9l45.1.8 13.8-18.7 14.4 22.2 68.7-8.6c1.8-4.7 4.5-9.1 7.8-13.5 4.8 4.2 7.4 8.9 10 13.6.8-9.5 7.7-19.6 10.6-28.7 4.5 8.6 19.9 28.9 33.1 33.9l114.6 5.6 22.3-14.7 19.4 14.7-14.5-67.6-34.6-14.2 37.5-15.1 2.1-96.9-14.5-21.9 15.2-13.4 5.1-239.63c-5.2-21.09-11.8-24.89-16.9-20.22l-4.2 2.11 2 19.14.7 44.47-7.1 124.23-18.3-137.78c8.8-15.88-3.9-35.38-.6-50.02-67.1 1.24-140.4-13.332-202.8-3.28-14 2.25-23.7 21.31-36.9 24.48-4.3 1.03-13.9-23.45-18.4-23.5z"
       overflow="visible"
       enable-background="accumulate"
       filter="url(#b)"
       fill-rule="evenodd"
       fill="#f6e7d0"
       color="#000"
       id="path8" />
    <path
       d="M354 27.39l-70.3 96.91 46.4 97.6-56.2 43.6 33 74.4-30.2 63.2 69.8 48.8 31.6 29.5 31.6-13.3L365.9 335l55.5-36.5 2.1-146.1-56.9-101.83zM116.6 55.48L89.9 123.6s33.7 65.3 35.8 68.8c2.1 3.6-7 118-7 118l42.8 73.8s9.9-82.9 7.1-83.6c-2.8-.7-29.5-42.1-29.5-42.1l23.8-84.3-36.5-37.2z"
       color="#000"
       overflow="visible"
       fill="#f2dbb9"
       fill-rule="evenodd"
       filter="url(#c)"
       enable-background="accumulate"
       id="path9" />
    <path
       d="M39.33 172.1l-5.62 108.1L74.45 328 42.84 464.9l96.96-39.3 30.2 42.9 74.4-38.7-80.8-169.9-60.4-16.9z"
       color="#000"
       overflow="visible"
       fill="#eed3a4"
       fill-rule="evenodd"
       enable-background="accumulate"
       filter="url(#d)"
       id="path10" />
    <path
       d="M266.9 66.72L324.5 191 434 221.2l21.8-111.6-41.4-68.86z"
       color="#000"
       overflow="visible"
       fill="#eed3a4"
       fill-rule="evenodd"
       enable-background="accumulate"
       filter="url(#e)"
       id="path11" />
  </svg>
  <path
     id="path12"
     style="fill:#6f9091;fill-opacity:1"
     d="m 255.4055,22.21686 -11.53125,42.90625 63.85937,17.12695 v 0.004 l 76.54688,20.53125 11.48828,-42.91797 -38.0293,-10.19727 z m 0.7832,65.56055 -0.004,0.002 -6.84375,25.46875 -18.375,-4.93555 c -42.77984,-11.46396 -87.07159,13.4962 -98.56055,56.375 L 82.5304,350.8106 c -11.48996,42.8801 14.12016,87.2309 57,98.7189 l 143.4375,38.4375 c 42.87984,11.4896 86.63079,-14.3763 98.09375,-57.1564 l 34.23047,-127.76166 0.0293,0.004 15.64649,-58.28516 c 11.50993,-42.87317 -14.34811,-86.64882 -57.12305,-98.13086 l -18.3789,-4.92187 6.81835,-25.47266 v -0.004 l -18.06445,-4.8457 -9.24023,34.47266 -2.40625,9.03906 9.01172,2.39453 27.40234,7.35547 c 33.20325,8.91237 52.82003,42.13785 43.93359,75.23828 l -0.5957,2.22266 -0.0293,-0.01 -2.14062,7.95508 H 372.5226 c -3.8173,-6.36965 -7.28019,-13.43448 -9.31641,-19.44922 l -6.89258,-20.35937 -72.01367,-19.13868 -72.01563,-19.13672 -8.39648,10.67579 c -9.07781,11.5406 -34.90899,24.97278 -48.28906,25.10937 -7.04539,0.0723 -9.30659,4.20417 -14.98633,27.38086 l -3.65625,14.91797 h -8.08203 l 21.59375,-80.5625 c 8.86996,-33.10488 42.48062,-52.05521 75.6875,-43.15625 l 27.40625,7.34375 9,2.4375 2.43945,-9.03125 9.25,-34.46875 z m -38.33398,101.02343 127.04687,33.78711 c 3.06709,9.37493 6.54691,18.64027 10.95117,27.47266 0.47874,0.96007 0.91533,1.93991 1.41797,2.88867 1.33504,2.63235 2.82572,5.16779 4.4375,7.62305 1.61178,2.45526 3.34537,4.83111 5.16407,7.14258 3.63738,4.62292 7.61805,8.9908 11.66406,13.23828 -1.5357,5.41401 -2.97136,10.85398 -4.44922,16.28125 -1.47786,5.42727 -2.99792,10.84187 -4.70508,16.20703 -0.26452,0.51556 -0.37579,1.0938 -0.51172,1.66015 -0.13593,0.56636 -0.29653,1.12084 -0.66015,1.58594 -8.97531,1.54494 -17.91177,3.78334 -26.17188,7.69144 -1.84119,0.7974 -3.61675,1.716 -5.33398,2.7304 -5.15169,3.0434 -9.783,6.9513 -14.12305,11.0528 -3.36678,2.8992 -6.28171,6.3268 -10.11328,8.6308 -2.01748,0.8733 -4.17878,-0.094 -6.21094,-0.4121 -40.91178,-9.8084 -81.39607,-21.2575 -121.95312,-32.41209 -2.74462,-9.88982 -6.29593,-19.61381 -11.32227,-28.58984 -1.48768,-2.59808 -3.13058,-5.08765 -4.88867,-7.49219 -1.75809,-2.40453 -3.6306,-4.72351 -5.58008,-6.98242 -3.89897,-4.51781 -8.1025,-8.79283 -12.29297,-13.01563 0.53452,-2.13345 1.06901,-4.26691 1.60352,-6.40039 0.12702,-0.47373 0.23516,-0.95316 0.35937,-1.42773 2.45014,-9.361 4.41542,-18.86572 7.64063,-28.00391 8.58374,-1.24817 16.91504,-3.9954 24.69531,-7.80468 11.47998,-5.68428 22.53302,-12.7609 31.00781,-22.4961 0.77604,-0.98502 1.55209,-1.97005 2.32813,-2.95508 z" />
  <path
     id="path25"
     style="fill:#3e3126;fill-opacity:1"
     d="M 255.40625 22.216797 L 243.875 65.123047 L 307.73438 82.25 L 307.73438 82.253906 L 384.28125 102.78516 L 395.76953 59.867188 L 357.74023 49.669922 L 255.40625 22.216797 z M 256.18945 87.777344 L 256.18555 87.779297 L 249.3418 113.24805 L 230.9668 108.3125 C 188.18712 96.848581 143.89517 121.80889 132.40625 164.6875 L 126.75391 185.7832 L 113.16992 236.47266 L 113.30469 236.47656 L 108.94922 252.89453 L 98.175781 293.10547 L 98.146484 293.10156 L 82.5 351.38672 C 70.990162 394.25908 96.84849 438.03639 139.62305 449.51758 L 158.00195 454.43945 L 176.07617 459.28711 L 246.05273 478.05859 L 264.12695 482.90625 L 282.50195 487.8418 C 325.28143 499.30499 369.57363 474.34475 381.0625 431.4668 L 406.48633 336.59375 L 430.96875 244.76758 C 442.47864 201.89457 416.62048 158.11872 373.8457 146.63672 L 355.4668 141.71484 L 362.28516 116.24219 L 362.28516 116.23828 L 344.2207 111.39258 L 334.98047 145.86523 L 332.57422 154.9043 L 341.58594 157.29883 L 368.98828 164.6543 C 402.19141 173.56663 421.80828 206.79227 412.92188 239.89258 L 412.32617 242.11523 L 412.29688 242.10547 L 411.125 246.46094 L 411.16797 246.46289 L 388.44727 331.51953 L 384.55664 346.08984 L 384.59375 346.08984 L 373.79688 386.37109 L 363 426.65234 C 354.13011 459.75711 320.51909 478.70678 287.3125 469.80859 L 259.90625 462.46484 L 250.90625 460.02734 L 180.89453 441.24609 L 171.88281 438.85156 L 144.48047 431.49609 C 111.27751 422.5837 91.660524 389.35748 100.54688 356.25781 L 101.14258 354.03516 L 101.17188 354.04492 L 103.3125 346.08984 L 126.83008 257.92383 L 145.02148 189.82031 L 145.13086 189.41016 L 150.46875 169.49805 C 159.33867 136.39329 192.94949 117.44288 226.15625 126.3418 L 253.5625 133.68555 L 262.5625 136.12305 L 265.00195 127.0918 L 274.25195 92.623047 L 256.18945 87.777344 z M 212.28516 171.97656 L 203.88867 182.65234 L 203.88281 182.6582 C 194.80085 194.1974 168.97732 207.62515 155.59961 207.76172 C 153.68207 207.78142 152.1339 208.15879 150.75977 209.08203 C 146.91317 211.40263 144.57145 218.1062 140.32422 235.4375 L 133.61914 262.80273 L 147.77344 276.95703 C 156.1247 285.30826 164.02705 298.36731 167.04688 308.80859 L 172.16406 326.50586 L 237.8125 344.67188 C 273.9186 354.66327 307.08647 362.96479 311.51953 363.11719 C 315.95253 363.27019 323.8165 358.86537 328.99414 353.33008 C 340.99709 340.49779 350.54504 335.34003 367.51172 332.51953 C 380.56168 330.35013 381.35513 329.24347 388.19922 303.64062 L 395.31445 277.01562 L 382.85742 264.16211 C 378.68396 259.85624 373.82936 252.61322 369.80469 245.07617 L 369.83008 245.07617 C 368.81226 243.19152 367.88688 241.30654 366.97461 239.42969 C 365.59761 236.47836 364.39648 233.57723 363.48828 230.89453 L 356.57812 210.48242 L 356.375 210.42773 L 356.31445 210.25195 L 284.30078 191.11328 L 212.28516 171.97656 z M 217.75 188.93555 C 260.14512 200.18463 302.54043 211.43452 344.93555 222.68359 C 347.36068 230.08827 350.06341 237.41423 353.25781 244.52148 L 353.34766 244.52539 C 355.99272 250.46319 358.907 256.30038 362.56445 261.68164 C 367.28269 268.79149 373.00765 275.15136 378.87695 281.32422 C 375.73167 292.49531 373.00326 303.7822 369.43359 314.82227 C 369.02413 315.56714 369.08813 316.49873 368.58203 317.18945 C 360.93312 318.62643 353.28698 320.34602 346.04883 323.25781 C 337.42524 326.48001 329.89331 332.03277 323.22852 338.28906 C 319.42741 341.62326 316.1472 345.80037 311.49609 347.94727 C 309.70313 347.65267 307.86909 347.27881 306.11914 346.94141 C 265.19785 337.09972 224.6891 325.67563 184.11133 314.53125 C 181.35368 304.60076 177.7945 294.83337 172.75 285.81836 C 166.75669 275.40603 158.33451 266.70999 149.91602 258.24805 L 150.94336 254.14062 C 152.37759 248.7396 153.64793 243.2921 155.02148 237.875 L 155.23438 237.88281 C 156.55723 232.61274 157.96667 227.36778 159.76758 222.23633 C 168.34052 221.0016 176.64827 218.22656 184.41211 214.41797 C 195.88497 208.72489 206.9371 201.65549 215.40039 191.91602 C 215.44259 191.86252 215.48519 191.80936 215.52734 191.75586 C 216.26808 190.81565 217.00926 189.87577 217.75 188.93555 z M 147.35547 323.80859 A 9.1776276 9.1776276 0 0 0 138.17773 332.98633 A 9.1776276 9.1776276 0 0 0 147.35547 342.16406 A 9.1776276 9.1776276 0 0 0 156.5332 332.98633 A 9.1776276 9.1776276 0 0 0 147.35547 323.80859 z M 295.08203 376.14648 A 27.204102 27.204102 0 0 0 267.87695 403.35156 A 27.204102 27.204102 0 0 0 295.08203 430.55469 A 27.204102 27.204102 0 0 0 322.28516 403.35156 A 27.204102 27.204102 0 0 0 295.08203 376.14648 z M 207.85938 386.80469 A 14.583642 14.583642 0 0 0 193.27734 401.38672 A 14.583642 14.583642 0 0 0 207.85938 415.9707 A 14.583642 14.583642 0 0 0 222.44336 401.38672 A 14.583642 14.583642 0 0 0 207.85938 386.80469 z " />
  <circle
     style="fill:#b7c7c8;fill-opacity:1;stroke-width:4.85423;stroke-linecap:round;stroke-linejoin:round;paint-order:stroke fill markers"
     id="path36"
     cx="295.1391"
     cy="403.40619"
     r="14.83111" />
  <circle
     style="fill:#b7c7c8;fill-opacity:1;stroke-width:1.45627;stroke-linecap:round;stroke-linejoin:round;paint-order:stroke fill markers"
     id="circle36"
     cx="208.00633"
     cy="401.18152"
     r="4.4493337" />
  <g
     class=""
     transform="matrix(0.24585825,0,0,0.24585825,200.79345,210.59345)"
     id="g12">
    <path
       d="m 255.563,22.094 c -126.81,0 -229.594,102.784 -229.594,229.594 0,25.4 4.132,49.846 11.75,72.687 40.154,-24.203 76.02,-41.17 107.56,-52.03 -35.752,5.615 -66.405,23.66 -109.843,4 31.552,-27.765 87.682,-65.842 138.532,-71.658 26.58,-21.615 68.113,-43.962 89.655,-37.28 30.492,-26.873 67.982,-61.093 108.125,-85.75 10.667,16.156 17.124,35.94 12.563,57.874 -80.37,20.205 -61.692,148.928 13.468,67.44 6.348,13.064 9.41,26.665 9.095,41.436 -32.675,33.83 -66.97,63.026 -101.938,87.906 0.466,23.99 -5.605,52.915 -19,84.813 -5.635,13.42 -7.33,36.406 22.875,53.97 101.14,-24.012 176.375,-114.924 176.375,-223.408 0,-126.81 -102.815,-229.593 -229.625,-229.593 z m 3.312,164.375 c -17.835,2.22 -32.794,9.046 -45.844,18.968 12.083,-0.036 25.612,2.882 37.5,6.156 6.208,-6.698 10.236,-18.52 8.345,-25.125 z"
       fill="#3e3126"
       fill-opacity="1"
       id="path12-3" />
  </g>
</svg>
