<?xml version="1.0" encoding="UTF-8" standalone="no"?>
<svg
   viewBox="0 0 512 512"
   style="height: 512px; width: 512px;"
   version="1.1"
   id="svg12"
   sodipodi:docname="wyvern1.svg"
   inkscape:version="1.3.2 (091e20e, 2023-11-25)"
   xmlns:inkscape="http://www.inkscape.org/namespaces/inkscape"
   xmlns:sodipodi="http://sodipodi.sourceforge.net/DTD/sodipodi-0.dtd"
   xmlns="http://www.w3.org/2000/svg"
   xmlns:svg="http://www.w3.org/2000/svg">
  <path
     id="path31"
     style="fill:#3e3126;fill-opacity:1"
     d="M 255.40625 22.216797 L 243.875 65.123047 L 307.73438 82.25 L 307.73438 82.253906 L 384.28125 102.78516 L 395.76953 59.867188 L 357.74023 49.669922 L 255.40625 22.216797 z M 256.18945 87.777344 L 256.18555 87.779297 L 249.3418 113.24805 L 230.9668 108.3125 C 188.18716 96.848592 143.89516 121.80893 132.40625 164.6875 L 126.75391 185.7832 L 113.16992 236.47266 L 113.30469 236.47656 L 108.94922 252.89453 L 98.175781 293.10547 L 98.146484 293.10156 L 82.5 351.38672 C 70.990174 394.25904 96.84853 438.0364 139.62305 449.51758 L 158.00195 454.43945 L 176.07617 459.28711 L 246.05273 478.05859 L 264.12695 482.90625 L 282.50195 487.8418 C 325.28139 499.30498 369.57364 474.3447 381.0625 431.4668 L 406.48633 336.59375 L 430.96875 244.76758 C 442.47863 201.89461 416.62044 158.11871 373.8457 146.63672 L 355.4668 141.71484 L 362.28516 116.24219 L 362.28516 116.23828 L 344.2207 111.39258 L 334.98047 145.86523 L 332.57422 154.9043 L 341.58594 157.29883 L 368.98828 164.6543 C 402.19138 173.56662 421.80827 206.7923 412.92188 239.89258 L 412.32617 242.11523 L 412.29688 242.10547 L 411.125 246.46094 L 411.16797 246.46289 L 388.44727 331.51953 L 384.55664 346.08984 L 384.59375 346.08984 L 373.79688 386.37109 L 363 426.65234 C 354.13012 459.75708 320.51906 478.70677 287.3125 469.80859 L 259.90625 462.46484 L 250.90625 460.02734 L 180.89453 441.24609 L 171.88281 438.85156 L 144.48047 431.49609 C 111.27754 422.58371 91.660528 389.35745 100.54688 356.25781 L 101.14258 354.03516 L 101.17188 354.04492 L 103.3125 346.08984 L 126.83008 257.92383 L 145.02148 189.82031 L 145.13086 189.41016 L 150.46875 169.49805 C 159.33866 136.39332 192.94952 117.44289 226.15625 126.3418 L 253.5625 133.68555 L 262.5625 136.12305 L 265.00195 127.0918 L 274.25195 92.623047 L 256.18945 87.777344 z M 212.28516 171.97656 L 203.88867 182.65234 L 203.88281 182.6582 C 194.80086 194.19739 168.97731 207.62515 155.59961 207.76172 C 153.68207 207.78142 152.13389 208.15879 150.75977 209.08203 C 146.91317 211.40263 144.57144 218.10622 140.32422 235.4375 L 133.61914 262.80273 L 147.77344 276.95703 C 156.12469 285.30825 164.02705 298.36732 167.04688 308.80859 L 172.16406 326.50586 L 237.8125 344.67188 C 273.91856 354.66326 307.08648 362.96479 311.51953 363.11719 C 315.95253 363.27019 323.81651 358.86536 328.99414 353.33008 C 340.99708 340.4978 350.54506 335.34003 367.51172 332.51953 C 380.56167 330.35013 381.35514 329.24345 388.19922 303.64062 L 395.31445 277.01562 L 382.85742 264.16211 C 378.68397 259.85624 373.82935 252.61321 369.80469 245.07617 L 369.83008 245.07617 C 368.81226 243.19152 367.88688 241.30654 366.97461 239.42969 C 365.59761 236.47836 364.39648 233.57723 363.48828 230.89453 L 356.57812 210.48242 L 356.375 210.42773 L 356.31445 210.25195 L 284.30078 191.11328 L 212.28516 171.97656 z M 217.75 188.93555 C 260.14508 200.18462 302.54047 211.43453 344.93555 222.68359 C 347.36067 230.08827 350.06342 237.41424 353.25781 244.52148 L 353.34766 244.52539 C 355.99271 250.46318 358.90701 256.30039 362.56445 261.68164 C 367.28269 268.79148 373.00766 275.15136 378.87695 281.32422 C 375.73168 292.4953 373.00326 303.78221 369.43359 314.82227 C 369.02413 315.56713 369.08813 316.49873 368.58203 317.18945 C 360.93313 318.62643 353.28697 320.34603 346.04883 323.25781 C 337.42525 326.48001 329.8933 332.03278 323.22852 338.28906 C 319.42741 341.62326 316.1472 345.80037 311.49609 347.94727 C 309.70314 347.65267 307.86909 347.27881 306.11914 346.94141 C 265.19789 337.09973 224.68906 325.67562 184.11133 314.53125 C 181.35368 304.60077 177.79449 294.83336 172.75 285.81836 C 166.7567 275.40604 158.3345 266.70998 149.91602 258.24805 L 150.94336 254.14062 C 152.37759 248.73961 153.64794 243.29209 155.02148 237.875 L 155.23438 237.88281 C 156.55722 232.61275 157.96667 227.36777 159.76758 222.23633 C 168.34051 221.0016 176.64828 218.22655 184.41211 214.41797 C 195.88496 208.72489 206.93711 201.65548 215.40039 191.91602 C 215.44259 191.86252 215.48519 191.80936 215.52734 191.75586 C 216.26808 190.81565 217.00926 189.87577 217.75 188.93555 z M 274.41016 215.2168 C 260.84261 215.13816 247.89796 229.21295 239.19922 240.21484 C 231.30091 250.20438 229.96571 264.04063 227.06836 276.44141 C 224.17101 288.84219 210.21882 309.20152 221.89062 314.29492 C 232.5521 318.94746 232.64467 284.89853 244.02344 287.31445 C 255.64414 289.78177 242.41844 317.34447 253.48047 321.67578 C 260.83426 324.55508 265.92507 307.34338 273.60742 309.17383 C 281.22332 310.98845 278.20613 331.02952 285.82617 329.23242 C 298.10899 326.33542 286.15719 303.80086 289.00195 291.50586 C 291.93266 278.83921 304.33592 268.09802 303.13477 255.15234 C 301.70503 239.74277 293.70659 219.23604 278.63672 215.71484 C 277.22388 215.38472 275.8137 215.22493 274.41016 215.2168 z M 253.21875 236.79492 C 253.39004 236.80879 253.57052 236.84125 253.75977 236.88867 C 255.30033 237.27459 257.22792 238.72716 258.81836 240.70117 C 261.27734 243.75333 262.1917 247.097 260.85938 248.16797 C 259.52789 249.23781 256.4571 247.63364 254 244.58398 C 251.54241 241.53369 250.62964 238.19218 251.95898 237.11914 C 252.27611 236.86335 252.70487 236.7533 253.21875 236.79492 z M 290.25195 245.61133 C 290.72866 245.59998 291.16863 245.63458 291.55664 245.71875 C 292.31933 245.88411 292.84044 246.23151 293.06836 246.72461 C 293.78464 248.2756 291.48442 250.86616 287.92969 252.51172 C 284.37567 254.15694 280.91101 254.23458 280.19141 252.68555 C 279.47156 251.13512 281.77328 248.54114 285.33008 246.89453 C 287.05543 246.09584 288.82182 245.64538 290.25195 245.61133 z M 147.35547 323.80859 A 9.1776276 9.1776276 0 0 0 138.17773 332.98633 A 9.1776276 9.1776276 0 0 0 147.35547 342.16406 A 9.1776276 9.1776276 0 0 0 156.5332 332.98633 A 9.1776276 9.1776276 0 0 0 147.35547 323.80859 z M 295.08203 376.14648 A 27.204102 27.204102 0 0 0 267.87695 403.35156 A 27.204102 27.204102 0 0 0 295.08203 430.55469 A 27.204102 27.204102 0 0 0 322.28516 403.35156 A 27.204102 27.204102 0 0 0 295.08203 376.14648 z M 207.85938 386.80469 A 14.583642 14.583642 0 0 0 193.27734 401.38672 A 14.583642 14.583642 0 0 0 207.85938 415.9707 A 14.583642 14.583642 0 0 0 222.44336 401.38672 A 14.583642 14.583642 0 0 0 207.85938 386.80469 z " />
  <sodipodi:namedview
     id="namedview12"
     pagecolor="#505050"
     bordercolor="#ffffff"
     borderopacity="1"
     inkscape:showpageshadow="0"
     inkscape:pageopacity="0"
     inkscape:pagecheckerboard="1"
     inkscape:deskcolor="#d1d1d1"
     inkscape:zoom="0.42635294"
     inkscape:cx="14.072848"
     inkscape:cy="12.900111"
     inkscape:window-width="1728"
     inkscape:window-height="1051"
     inkscape:window-x="0"
     inkscape:window-y="38"
     inkscape:window-maximized="1"
     inkscape:current-layer="svg12" />
  <defs
     id="defs2">
    <radialGradient
       id="lorc-heart-bottle-gradient-0">
      <stop
         offset="0%"
         stop-color="#830000"
         stop-opacity="1"
         id="stop1" />
      <stop
         offset="100%"
         stop-color="#000"
         stop-opacity="1"
         id="stop2" />
    </radialGradient>
  </defs>
  <path
     d="M0 0h512v512H0z"
     fill="url(#pattern)"
     id="path2" />
  <svg
     version="1.1"
     id="svg11">
    <defs
       id="defs6">
      <filter
         id="b"
         x="-0.023338979"
         width="1.046678"
         y="-0.023448784"
         height="1.0468976"
         color-interpolation-filters="sRGB">
        <feGaussianBlur
           stdDeviation="4.823"
           id="feGaussianBlur2" />
      </filter>
      <filter
         id="a"
         x="-0.012011281"
         width="1.0240226"
         y="-0.011988317"
         height="1.0239766"
         color-interpolation-filters="sRGB">
        <feGaussianBlur
           stdDeviation="2.55"
           id="feGaussianBlur3" />
      </filter>
      <filter
         id="c"
         x="-0.11244604"
         width="1.2248921"
         y="-0.082623731"
         height="1.1652475"
         color-interpolation-filters="sRGB">
        <feGaussianBlur
           stdDeviation="15.63"
           id="feGaussianBlur4" />
      </filter>
      <filter
         id="e"
         x="-0.23758603"
         width="1.4751721"
         y="-0.24869778"
         height="1.4973956"
         color-interpolation-filters="sRGB">
        <feGaussianBlur
           stdDeviation="18.7"
           id="feGaussianBlur5" />
      </filter>
      <filter
         id="d"
         x="-0.21301439"
         width="1.4260288"
         y="-0.15141701"
         height="1.302834"
         color-interpolation-filters="sRGB">
        <feGaussianBlur
           stdDeviation="18.7"
           id="feGaussianBlur6" />
      </filter>
    </defs>
    <path
       d="M196.6 1.207c-2.5 11.323-4.8 22.703-10.2 33.383-7-10.68-12.6-20.91-16.7-31.988L2.494 4.338C13 104.9 10.86 175.3 1.979 278.3L15.4 295.5l-9.494 6.3L2.6 462.7l1.019 45.9 112.681 3.1c3.6-16.1 6.5-32.5 13.2-47.3 4.5 14.4 5.7 29.4 7 44.4l160 .3c.8-6.1.7-8.1 2.3-14.4 5.1 4.5 7.8 9.5 10.6 14.5.8-10.1 3.9-19.8 7-29.5 4.8 9.2 6.7 19.4 8.8 29.5l185.2.4-4.6-78.2-21.4-8.2 21.3-4.9 5.8-395.47c-7-6.73-13.3-13.744-18-21.465l-15.1.114-2.1 20.321-1.4 47.23.8 84.87-8.6-97.14c9.3-16.86 2.2-39.69 5.7-55.239-92.1 1.696-184.1.685-276.2-.314z"
       overflow="visible"
       color="#000"
       fill="#ebc893"
       fill-rule="evenodd"
       stroke="#e0aa58"
       enable-background="accumulate"
       id="path6" />
    <path
       d="M196.6 1.203c-2.5 11.327-4.8 22.707-10.2 33.387-7-10.68-12.6-20.91-16.7-31.99L2.494 4.336C13 104.9 10.86 175.3 1.979 278.3L15.4 295.5l-9.494 6.3L2.6 462.7l1.019 45.9 112.681 3.1c.5-2.1-7.9-2.3-7.4-4.5L5.244 504.5l-.914-47.3 4.63-153.7 12.42-9-13.093-16.8C16.95 177.3 16.36 104 6.113 5.992l162.687.164c4 10.804 10.3 24.254 17.1 34.664 5.3-10.41 9.5-25.97 12-37.02 89.8.974 173.8 3.521 263.6 1.867 4.6 1.226 10.6.431 11.3-4.149-92.1 1.696-184.1.684-276.2-.315zm296.9.158l-15.1.116-.6 6.277 13.5-2.557c4.6 7.533 9.7 12.383 16.6 18.943l-4.6 389.06-19.9 9.9 4.1-.6 18.2-4.2 5.8-395.47c-7-6.73-13.3-13.748-18-21.469zm9.6 435.739l3.5 69.7-177.7.1c.4 2.1-4.1.2-3.7 2.3l185.2.4-4.6-78.2zm-370 25.1c-1 2.2-2.9.4-3.7 2.6 4.2 14 5.8 29.5 7.1 44l158 .3c1.9-5 .8-9.7 4.3-14.4 5.1 4.5 7.8 9.5 10.6 14.5.8-10.1 3.9-19.8 7-29.5 1.8 3.4 3.2 7 4.3 10.6-1.4-5.6-2.4-8.3-5.1-13.4-3 9.4-6.7 16.2-7.5 26-2.7-4.9-5.4-9.7-10.4-14.1-3.4 4.6-6.2 9.1-8 14l-147.6 3.4c-3.4-14.6-7.1-30.3-9-44z"
       overflow="visible"
       color="#000"
       opacity=".527"
       fill="#c87137"
       fill-rule="evenodd"
       filter="url(#a)"
       enable-background="accumulate"
       id="path7" />
    <path
       d="M200.1 16.1c-2.3 10.67-10.5 21.38-15.6 31.44-6.6-10.06-13.9-19.69-17.7-30.12L17.34 19.05C24.61 113.6 7.605 179.3 16.85 277l18.26 20.1L10.34 309l7.1 141.6.96 43.3 90.2 3.4c3.4-15.2 15-35.6 21.3-49.6 4.3 13.6 15.4 36.7 16.6 50.9l45.1.8 13.8-18.7 14.4 22.2 68.7-8.6c1.8-4.7 4.5-9.1 7.8-13.5 4.8 4.2 7.4 8.9 10 13.6.8-9.5 7.7-19.6 10.6-28.7 4.5 8.6 19.9 28.9 33.1 33.9l114.6 5.6 22.3-14.7 19.4 14.7-14.5-67.6-34.6-14.2 37.5-15.1 2.1-96.9-14.5-21.9 15.2-13.4 5.1-239.63c-5.2-21.09-11.8-24.89-16.9-20.22l-4.2 2.11 2 19.14.7 44.47-7.1 124.23-18.3-137.78c8.8-15.88-3.9-35.38-.6-50.02-67.1 1.24-140.4-13.332-202.8-3.28-14 2.25-23.7 21.31-36.9 24.48-4.3 1.03-13.9-23.45-18.4-23.5z"
       overflow="visible"
       enable-background="accumulate"
       filter="url(#b)"
       fill-rule="evenodd"
       fill="#f6e7d0"
       color="#000"
       id="path8" />
    <path
       d="M354 27.39l-70.3 96.91 46.4 97.6-56.2 43.6 33 74.4-30.2 63.2 69.8 48.8 31.6 29.5 31.6-13.3L365.9 335l55.5-36.5 2.1-146.1-56.9-101.83zM116.6 55.48L89.9 123.6s33.7 65.3 35.8 68.8c2.1 3.6-7 118-7 118l42.8 73.8s9.9-82.9 7.1-83.6c-2.8-.7-29.5-42.1-29.5-42.1l23.8-84.3-36.5-37.2z"
       color="#000"
       overflow="visible"
       fill="#f2dbb9"
       fill-rule="evenodd"
       filter="url(#c)"
       enable-background="accumulate"
       id="path9" />
    <path
       d="M39.33 172.1l-5.62 108.1L74.45 328 42.84 464.9l96.96-39.3 30.2 42.9 74.4-38.7-80.8-169.9-60.4-16.9z"
       color="#000"
       overflow="visible"
       fill="#eed3a4"
       fill-rule="evenodd"
       enable-background="accumulate"
       filter="url(#d)"
       id="path10" />
    <path
       d="M266.9 66.72L324.5 191 434 221.2l21.8-111.6-41.4-68.86z"
       color="#000"
       overflow="visible"
       fill="#eed3a4"
       fill-rule="evenodd"
       enable-background="accumulate"
       filter="url(#e)"
       id="path11" />
  </svg>
  <path
     id="path12"
     style="fill:#aa0000;fill-opacity:1"
     d="m 255.4055,22.21686 -11.53125,42.90625 63.85937,17.12695 v 0.004 l 76.54688,20.53125 11.48828,-42.91797 -38.0293,-10.19727 z m 0.7832,65.56055 -0.004,0.002 -6.84375,25.46875 -18.375,-4.93555 c -42.77984,-11.46396 -87.07159,13.4962 -98.56055,56.375 L 82.5304,350.8106 c -11.48996,42.8801 14.12016,87.2309 57,98.7189 l 143.4375,38.4375 c 42.87984,11.4896 86.63079,-14.3763 98.09375,-57.1564 l 34.23047,-127.76166 0.0293,0.004 15.64649,-58.28516 c 11.50993,-42.87317 -14.34811,-86.64882 -57.12305,-98.13086 l -18.3789,-4.92187 6.81835,-25.47266 v -0.004 l -18.06445,-4.8457 -9.24023,34.47266 -2.40625,9.03906 9.01172,2.39453 27.40234,7.35547 c 33.20325,8.91237 52.82003,42.13785 43.93359,75.23828 l -0.5957,2.22266 -0.0293,-0.01 -2.14062,7.95508 H 372.5226 c -3.8173,-6.36965 -7.28019,-13.43448 -9.31641,-19.44922 l -6.89258,-20.35937 -72.01367,-19.13868 -72.01563,-19.13672 -8.39648,10.67579 c -9.07781,11.5406 -34.90899,24.97278 -48.28906,25.10937 -7.04539,0.0723 -9.30659,4.20417 -14.98633,27.38086 l -3.65625,14.91797 h -8.08203 l 21.59375,-80.5625 c 8.86996,-33.10488 42.48062,-52.05521 75.6875,-43.15625 l 27.40625,7.34375 9,2.4375 2.43945,-9.03125 9.25,-34.46875 z m -38.33398,101.02343 127.04687,33.78711 c 3.06709,9.37493 6.54691,18.64027 10.95117,27.47266 0.47874,0.96007 0.91533,1.93991 1.41797,2.88867 1.33504,2.63235 2.82572,5.16779 4.4375,7.62305 1.61178,2.45526 3.34537,4.83111 5.16407,7.14258 3.63738,4.62292 7.61805,8.9908 11.66406,13.23828 -1.5357,5.41401 -2.97136,10.85398 -4.44922,16.28125 -1.47786,5.42727 -2.99792,10.84187 -4.70508,16.20703 -0.26452,0.51556 -0.37579,1.0938 -0.51172,1.66015 -0.13593,0.56636 -0.29653,1.12084 -0.66015,1.58594 -8.97531,1.54494 -17.91177,3.78334 -26.17188,7.69144 -1.84119,0.7974 -3.61675,1.716 -5.33398,2.7304 -5.15169,3.0434 -9.783,6.9513 -14.12305,11.0528 -3.36678,2.8992 -6.28171,6.3268 -10.11328,8.6308 -2.01748,0.8733 -4.17878,-0.094 -6.21094,-0.4121 -40.91178,-9.8084 -81.39607,-21.2575 -121.95312,-32.41209 -2.74462,-9.88982 -6.29593,-19.61381 -11.32227,-28.58984 -1.48768,-2.59808 -3.13058,-5.08765 -4.88867,-7.49219 -1.75809,-2.40453 -3.6306,-4.72351 -5.58008,-6.98242 -3.89897,-4.51781 -8.1025,-8.79283 -12.29297,-13.01563 0.53452,-2.13345 1.06901,-4.26691 1.60352,-6.40039 0.12702,-0.47373 0.23516,-0.95316 0.35937,-1.42773 2.45014,-9.361 4.41542,-18.86572 7.64063,-28.00391 8.58374,-1.24817 16.91504,-3.9954 24.69531,-7.80468 11.47998,-5.68428 22.53302,-12.7609 31.00781,-22.4961 0.77604,-0.98502 1.55209,-1.97005 2.32813,-2.95508 z" />
  <path
     id="path25"
     style="fill:#3e3126;fill-opacity:1"
     d="M 255.40625 22.216797 L 243.875 65.123047 L 307.73438 82.25 L 307.73438 82.253906 L 384.28125 102.78516 L 395.76953 59.867188 L 357.74023 49.669922 L 255.40625 22.216797 z M 256.18945 87.777344 L 256.18555 87.779297 L 249.3418 113.24805 L 230.9668 108.3125 C 188.18712 96.848581 143.89517 121.80889 132.40625 164.6875 L 126.75391 185.7832 L 113.16992 236.47266 L 113.30469 236.47656 L 108.94922 252.89453 L 98.175781 293.10547 L 98.146484 293.10156 L 82.5 351.38672 C 70.990162 394.25908 96.84849 438.03639 139.62305 449.51758 L 158.00195 454.43945 L 176.07617 459.28711 L 246.05273 478.05859 L 264.12695 482.90625 L 282.50195 487.8418 C 325.28143 499.30499 369.57363 474.34475 381.0625 431.4668 L 406.48633 336.59375 L 430.96875 244.76758 C 442.47864 201.89457 416.62048 158.11872 373.8457 146.63672 L 355.4668 141.71484 L 362.28516 116.24219 L 362.28516 116.23828 L 344.2207 111.39258 L 334.98047 145.86523 L 332.57422 154.9043 L 341.58594 157.29883 L 368.98828 164.6543 C 402.19141 173.56663 421.80828 206.79227 412.92188 239.89258 L 412.32617 242.11523 L 412.29688 242.10547 L 411.125 246.46094 L 411.16797 246.46289 L 388.44727 331.51953 L 384.55664 346.08984 L 384.59375 346.08984 L 373.79688 386.37109 L 363 426.65234 C 354.13011 459.75711 320.51909 478.70678 287.3125 469.80859 L 259.90625 462.46484 L 250.90625 460.02734 L 180.89453 441.24609 L 171.88281 438.85156 L 144.48047 431.49609 C 111.27751 422.5837 91.660524 389.35748 100.54688 356.25781 L 101.14258 354.03516 L 101.17188 354.04492 L 103.3125 346.08984 L 126.83008 257.92383 L 145.02148 189.82031 L 145.13086 189.41016 L 150.46875 169.49805 C 159.33867 136.39329 192.94949 117.44288 226.15625 126.3418 L 253.5625 133.68555 L 262.5625 136.12305 L 265.00195 127.0918 L 274.25195 92.623047 L 256.18945 87.777344 z M 212.28516 171.97656 L 203.88867 182.65234 L 203.88281 182.6582 C 194.80085 194.1974 168.97732 207.62515 155.59961 207.76172 C 153.68207 207.78142 152.1339 208.15879 150.75977 209.08203 C 146.91317 211.40263 144.57145 218.1062 140.32422 235.4375 L 133.61914 262.80273 L 147.77344 276.95703 C 156.1247 285.30826 164.02705 298.36731 167.04688 308.80859 L 172.16406 326.50586 L 237.8125 344.67188 C 273.9186 354.66327 307.08647 362.96479 311.51953 363.11719 C 315.95253 363.27019 323.8165 358.86537 328.99414 353.33008 C 340.99709 340.49779 350.54504 335.34003 367.51172 332.51953 C 380.56168 330.35013 381.35513 329.24347 388.19922 303.64062 L 395.31445 277.01562 L 382.85742 264.16211 C 378.68396 259.85624 373.82936 252.61322 369.80469 245.07617 L 369.83008 245.07617 C 368.81226 243.19152 367.88688 241.30654 366.97461 239.42969 C 365.59761 236.47836 364.39648 233.57723 363.48828 230.89453 L 356.57812 210.48242 L 356.375 210.42773 L 356.31445 210.25195 L 284.30078 191.11328 L 212.28516 171.97656 z M 217.75 188.93555 C 260.14512 200.18463 302.54043 211.43452 344.93555 222.68359 C 347.36068 230.08827 350.06341 237.41423 353.25781 244.52148 L 353.34766 244.52539 C 355.99272 250.46319 358.907 256.30038 362.56445 261.68164 C 367.28269 268.79149 373.00765 275.15136 378.87695 281.32422 C 375.73167 292.49531 373.00326 303.7822 369.43359 314.82227 C 369.02413 315.56714 369.08813 316.49873 368.58203 317.18945 C 360.93312 318.62643 353.28698 320.34602 346.04883 323.25781 C 337.42524 326.48001 329.89331 332.03277 323.22852 338.28906 C 319.42741 341.62326 316.1472 345.80037 311.49609 347.94727 C 309.70313 347.65267 307.86909 347.27881 306.11914 346.94141 C 265.19785 337.09972 224.6891 325.67563 184.11133 314.53125 C 181.35368 304.60076 177.7945 294.83337 172.75 285.81836 C 166.75669 275.40603 158.33451 266.70999 149.91602 258.24805 L 150.94336 254.14062 C 152.37759 248.7396 153.64793 243.2921 155.02148 237.875 L 155.23438 237.88281 C 156.55723 232.61274 157.96667 227.36778 159.76758 222.23633 C 168.34052 221.0016 176.64827 218.22656 184.41211 214.41797 C 195.88497 208.72489 206.9371 201.65549 215.40039 191.91602 C 215.44259 191.86252 215.48519 191.80936 215.52734 191.75586 C 216.26808 190.81565 217.00926 189.87577 217.75 188.93555 z M 147.35547 323.80859 A 9.1776276 9.1776276 0 0 0 138.17773 332.98633 A 9.1776276 9.1776276 0 0 0 147.35547 342.16406 A 9.1776276 9.1776276 0 0 0 156.5332 332.98633 A 9.1776276 9.1776276 0 0 0 147.35547 323.80859 z M 295.08203 376.14648 A 27.204102 27.204102 0 0 0 267.87695 403.35156 A 27.204102 27.204102 0 0 0 295.08203 430.55469 A 27.204102 27.204102 0 0 0 322.28516 403.35156 A 27.204102 27.204102 0 0 0 295.08203 376.14648 z M 207.85938 386.80469 A 14.583642 14.583642 0 0 0 193.27734 401.38672 A 14.583642 14.583642 0 0 0 207.85938 415.9707 A 14.583642 14.583642 0 0 0 222.44336 401.38672 A 14.583642 14.583642 0 0 0 207.85938 386.80469 z " />
  <circle
     style="fill:#ff0000;fill-opacity:1;stroke-width:4.85423;stroke-linecap:round;stroke-linejoin:round;paint-order:stroke fill markers"
     id="path36"
     cx="295.1391"
     cy="403.40619"
     r="14.83111" />
  <circle
     style="fill:#ff0000;fill-opacity:1;stroke-width:1.45627;stroke-linecap:round;stroke-linejoin:round;paint-order:stroke fill markers"
     id="circle36"
     cx="208.00633"
     cy="401.18152"
     r="4.4493337" />
  <path
     id="rect17"
     style="fill:#3e3126;fill-opacity:1;stroke:none;stroke-width:3.47968;stroke-linecap:round;stroke-linejoin:round;stroke-opacity:1"
     d="M 260.43945 206.47656 C 260.08024 206.41573 259.80656 206.43606 259.67578 206.55859 C 259.4321 206.78693 259.68689 207.22965 260.30859 207.66016 C 260.88128 208.05647 261.57824 208.63585 261.85742 208.94531 C 262.13659 209.25483 263.31555 210.38473 264.47656 211.45898 C 272.85978 219.21592 276.43377 226.84127 276.73828 237.62109 C 276.79678 239.69357 276.8811 242.29168 276.92578 243.39258 C 276.97038 244.49347 276.93034 246.16514 276.83594 247.10742 C 276.65492 248.91617 276.7521 253.51514 277.02734 256.17578 C 277.11744 257.047 277.19368 258.20374 277.19727 258.74609 C 277.21617 261.62434 278.95207 265.62687 282.20703 270.29297 C 282.81704 271.16751 283.13452 271.98757 282.91211 272.11523 C 282.15308 272.55106 276.46887 271.41215 274.89062 270.50781 C 271.63037 268.63968 267.03681 263.55067 263.73047 258.14453 C 262.72823 256.50575 261.83175 255.14443 261.73828 255.11914 C 261.64488 255.09384 261.41979 254.687 261.23828 254.21484 C 261.05668 253.74275 260.73306 253.45556 260.51953 253.57812 C 259.98926 253.88248 260.86097 257.91644 262.66406 263.50781 C 263.68564 266.67582 267.09057 272.65763 268.32422 273.45117 C 272.3176 276.02007 272.03726 282.16577 267.67773 287.60156 L 265.44922 290.38086 L 268.08594 294.5332 C 272.17388 300.96793 281.5812 317.35079 284.91016 323.83398 C 286.56138 327.04979 288.51515 330.74429 289.25195 332.04492 L 290.5918 334.41016 L 292.53516 328.55859 C 295.3635 320.04082 295.45213 319.61776 294.87109 317.51367 C 294.53641 316.30175 294.52837 314.98854 294.84766 313.80859 C 295.32115 312.05903 295.28924 311.96448 294.13086 311.63477 C 293.03713 311.32308 292.93393 311.1119 293.04688 309.45312 C 293.15288 307.8977 293.0189 307.57583 292.17578 307.34766 C 291.42596 307.14472 291.12981 306.68568 290.9707 305.48242 C 290.85456 304.60416 290.57986 303.83647 290.36133 303.77734 C 290.14282 303.71824 289.70235 303.4795 289.38281 303.24609 C 288.27052 302.43385 288.49277 303.95351 290.19727 308.80469 C 292.99335 316.76266 293.46546 320.1064 291.81641 320.27539 C 291.08456 320.35039 289.61414 319.05842 288.24805 317.14453 C 287.51281 316.11434 287.39843 315.51245 287.73438 314.39844 C 288.15378 313.00646 288.13396 312.97429 286.92188 313.0918 C 285.13157 313.26534 284.50717 312.60248 284.50977 310.5332 C 284.51177 308.90735 284.39786 308.71069 283.45508 308.69336 C 282.35165 308.67316 282.25343 308.29364 282.66016 305.65234 C 282.79407 304.78244 282.57614 304.50377 281.42578 304.07227 C 279.4361 303.32582 279.09205 302.62894 279.77148 300.72266 C 280.3388 299.13087 280.31878 299.07425 278.97461 298.49609 C 277.7031 297.9492 277.62393 297.79002 277.96484 296.46289 C 278.28119 295.22959 278.18921 294.96574 277.31641 294.61523 C 275.56177 293.91061 274.74837 291.7452 275.07227 288.64062 C 275.85125 281.17558 278.63 275.90171 279.41797 280.39258 C 279.82418 282.70783 282.28195 286.62674 284.68164 288.78711 C 289.1913 292.84704 292.72072 296.81231 294.9707 300.34766 C 295.81957 301.68142 296.6368 302.81445 296.78711 302.86328 C 296.93745 302.91198 298.05361 304.95087 299.26758 307.39648 C 300.48163 309.84215 301.59165 311.93433 301.73438 312.04492 C 302.19879 312.40481 305.09128 307.64957 305.63867 305.62695 C 306.14629 303.75128 306.11826 303.64204 305.04492 303.35156 C 303.76745 303.00584 302.69414 300.94987 302.0625 297.63867 C 301.85097 296.52991 301.60519 295.29252 301.51758 294.89062 C 301.43008 294.48869 301.17278 292.53913 300.94336 290.55664 C 300.71395 288.57424 300.36201 286.68309 300.16211 286.35547 C 299.96223 286.02779 298.89036 285.38871 297.78125 284.93555 C 296.04054 284.22419 295.51984 284.19583 293.96875 284.73047 C 292.98043 285.07115 291.81073 285.25428 291.36914 285.13477 C 290.58151 284.92161 286.62226 278.36481 286.82617 277.61133 C 286.94146 277.18535 287.43185 277.41129 293.08398 280.49219 C 298.36998 283.37357 301.44326 284.25911 302.65234 283.25 C 303.85065 282.24986 304.58126 279.32809 305.05859 273.63672 C 305.50979 268.25661 305.11656 264.13404 303.64844 258.88281 C 302.68316 255.43001 300.82515 249.6236 300.27539 248.3418 C 299.96881 247.62712 299.5544 246.54732 299.35547 245.94141 C 299.15651 245.33545 298.68545 244.23876 298.30859 243.50586 C 297.9317 242.77301 297.15037 240.95788 296.57227 239.4707 C 295.99418 237.98348 295.42366 236.64199 295.30273 236.48828 C 295.18176 236.33451 294.49132 234.85996 293.76953 233.21289 C 293.04777 231.56582 292.37428 230.09607 292.27148 229.94727 C 292.16873 229.79852 291.43212 228.24198 290.63672 226.48828 C 289.34327 223.63649 286.99463 213.59695 287.33008 212.35742 C 287.40188 212.09217 287.24366 211.94122 286.98047 212.01953 C 286.20443 212.25051 285.49862 215.62024 285.38086 219.66406 C 285.27069 223.44579 286.15904 228.25064 287.80273 232.79102 C 288.26745 234.07461 289.06119 236.27749 289.57031 237.68555 C 290.07942 239.0936 291.77491 243.26229 293.33594 246.95117 C 297.46026 256.69766 299.05789 260.86032 299.52344 263.07227 C 300.28303 266.68123 299.41454 271.50648 297.98047 271.65039 C 297.4288 271.70579 293.62852 268.95415 291.52148 266.97266 C 290.87178 266.36161 289.96409 265.18607 289.50195 264.35938 C 288.55974 262.67389 286.66899 256.13821 286.03906 252.38867 C 285.08679 246.72025 284.60281 243.77061 284.16406 240.95117 C 283.90854 239.30934 283.44425 236.90738 283.13281 235.61328 C 282.82137 234.31922 282.49515 232.79162 282.4082 232.21875 C 281.87134 228.67928 277.91169 220.94653 274.91602 217.58984 C 272.58908 214.98252 266.84387 209.87126 265.9707 209.62891 C 265.68463 209.55001 264.98247 209.05313 264.41016 208.52539 C 263.36212 207.55884 261.51709 206.65905 260.43945 206.47656 z M 228.51367 228.52539 C 228.45667 228.51219 228.3183 228.83885 228.20703 229.25 C 228.02549 229.9208 228.6449 230.22196 234.23242 232.19336 C 244.53408 235.82808 246.28994 237.31361 241.9375 238.71094 C 240.64182 239.12694 237.47104 240.65532 234.89258 242.10938 C 232.31412 243.56348 229.74962 244.76253 229.19336 244.77148 C 226.68506 244.81198 222.94814 245.38964 220.14258 246.17383 C 216.94854 247.06675 211.15635 250.05011 210.9082 250.92969 C 210.69961 251.6684 211.69984 251.82027 213.06445 251.25586 C 214.88138 250.50437 220.28312 249.10557 221.52539 249.06445 C 222.13575 249.04425 222.99183 248.98331 223.42969 248.92969 C 224.61631 248.78463 223.97011 250.69838 222.59961 251.38672 C 221.43679 251.97081 219.20991 253.88294 217.40039 255.85352 C 214.71779 258.77482 210.1712 268.26686 208.5293 274.37109 C 208.10503 275.94992 207.47993 279.34433 207.14062 281.91406 C 206.8014 284.48374 206.51333 286.63301 206.49805 286.68945 C 206.48495 286.74625 206.64049 286.83811 206.8418 286.89258 C 207.40917 287.04614 207.86044 286.24027 209.88867 281.45508 C 216.36556 266.17443 226.71337 257.2333 240.16602 255.29492 C 244.46243 254.67585 253.38777 256.80306 256.43945 259.17188 C 257.17129 259.73991 258.1042 260.29401 258.51172 260.4043 C 259.18369 260.58616 259.2016 260.4165 258.71094 258.58789 C 257.45217 253.89657 256.94353 250.38638 256.73828 245.01562 C 256.59322 241.22094 257.30626 241.50764 260.3457 246.45703 C 263.96948 252.35782 267.61783 257.09828 270.03125 259.04297 C 271.65759 260.35335 272.15607 259.73069 271.91797 256.68359 C 271.806 255.25033 271.92272 252.56223 272.17773 250.70898 C 272.70532 246.87718 272.54371 246.51102 269.00391 243.49219 C 265.92075 240.8627 263.53173 239.39101 260.14258 238.0332 C 258.50541 237.37732 256.13509 236.26078 254.875 235.55273 C 250.54294 233.11841 247.3224 231.5653 244.16016 230.56055 C 240.99792 229.55582 237.89525 229.09985 233.80273 228.85742 C 230.95039 228.68849 228.57011 228.54067 228.51367 228.52539 z M 240.88281 261.44531 C 237.09546 261.33158 234.1243 261.98364 230.54688 263.57812 C 227.25772 265.04415 224.76358 266.72464 221.375 269.75586 C 216.37855 274.22527 213.55137 279.54577 210.875 289.52344 C 208.95513 296.68073 208.74479 298.70275 209.30664 304.62109 C 209.57839 307.48409 211.03742 313.88717 212.77734 320.39453 L 237.64844 326.84375 C 236.92956 325.08785 236.11321 323.11869 235.78516 322.2207 C 235.29467 320.87821 234.43029 318.56571 233.86523 317.08203 C 231.0645 309.7284 228.37394 300.61376 227.69336 296.17578 C 227.1614 292.70733 227.35253 287.67657 228.125 284.82227 C 228.92525 281.86534 231.58262 276.77173 233.7168 274.10156 C 236.68152 270.39239 243.25328 265.26323 246.33008 264.25781 C 247.20354 263.97236 247.36686 263.73453 247.19531 262.99219 C 247.10531 262.60266 246.97804 262.36323 246.66211 262.19336 C 246.34618 262.0235 245.84116 261.92285 244.99414 261.80859 C 243.49752 261.6067 242.14526 261.48322 240.88281 261.44531 z " />
</svg>
