<?xml version="1.0" encoding="UTF-8" standalone="no"?>
<svg
   viewBox="0 0 512 512"
   style="height: 512px; width: 512px;"
   version="1.1"
   id="svg12"
   sodipodi:docname="oil-violet--c copy.svg"
   inkscape:version="1.4 (e7c3feb1, 2024-10-09)"
   xmlns:inkscape="http://www.inkscape.org/namespaces/inkscape"
   xmlns:sodipodi="http://sodipodi.sourceforge.net/DTD/sodipodi-0.dtd"
   xmlns="http://www.w3.org/2000/svg"
   xmlns:svg="http://www.w3.org/2000/svg">
  <sodipodi:namedview
     id="namedview12"
     pagecolor="#505050"
     bordercolor="#ffffff"
     borderopacity="1"
     inkscape:showpageshadow="0"
     inkscape:pageopacity="0"
     inkscape:pagecheckerboard="1"
     inkscape:deskcolor="#d1d1d1"
     inkscape:zoom="0.66222558"
     inkscape:cx="387.33025"
     inkscape:cy="371.47463"
     inkscape:window-width="1432"
     inkscape:window-height="463"
     inkscape:window-x="0"
     inkscape:window-y="38"
     inkscape:window-maximized="0"
     inkscape:current-layer="svg12" />
  <defs
     id="defs2">
    <radialGradient
       id="lorc-square-bottle-gradient-0">
      <stop
         offset="0%"
         stop-color="#830000"
         stop-opacity="1"
         id="stop1" />
      <stop
         offset="100%"
         stop-color="#000"
         stop-opacity="1"
         id="stop2" />
    </radialGradient>
  </defs>
  <path
     d="M0 0h512v512H0z"
     fill="url(#pattern)"
     id="path2" />
  <svg
     version="1.1"
     id="svg11">
    <defs
       id="defs6">
      <filter
         id="b"
         x="-0.023338979"
         width="1.046678"
         y="-0.023448784"
         height="1.0468976"
         color-interpolation-filters="sRGB">
        <feGaussianBlur
           stdDeviation="4.823"
           id="feGaussianBlur2" />
      </filter>
      <filter
         id="a"
         x="-0.012011281"
         width="1.0240226"
         y="-0.011988317"
         height="1.0239766"
         color-interpolation-filters="sRGB">
        <feGaussianBlur
           stdDeviation="2.55"
           id="feGaussianBlur3" />
      </filter>
      <filter
         id="c"
         x="-0.11244604"
         width="1.2248921"
         y="-0.082623731"
         height="1.1652475"
         color-interpolation-filters="sRGB">
        <feGaussianBlur
           stdDeviation="15.63"
           id="feGaussianBlur4" />
      </filter>
      <filter
         id="e"
         x="-0.23758603"
         width="1.4751721"
         y="-0.24869778"
         height="1.4973956"
         color-interpolation-filters="sRGB">
        <feGaussianBlur
           stdDeviation="18.7"
           id="feGaussianBlur5" />
      </filter>
      <filter
         id="d"
         x="-0.21301439"
         width="1.4260288"
         y="-0.15141701"
         height="1.302834"
         color-interpolation-filters="sRGB">
        <feGaussianBlur
           stdDeviation="18.7"
           id="feGaussianBlur6" />
      </filter>
    </defs>
    <path
       d="M196.6 1.207c-2.5 11.323-4.8 22.703-10.2 33.383-7-10.68-12.6-20.91-16.7-31.988L2.494 4.338C13 104.9 10.86 175.3 1.979 278.3L15.4 295.5l-9.494 6.3L2.6 462.7l1.019 45.9 112.681 3.1c3.6-16.1 6.5-32.5 13.2-47.3 4.5 14.4 5.7 29.4 7 44.4l160 .3c.8-6.1.7-8.1 2.3-14.4 5.1 4.5 7.8 9.5 10.6 14.5.8-10.1 3.9-19.8 7-29.5 4.8 9.2 6.7 19.4 8.8 29.5l185.2.4-4.6-78.2-21.4-8.2 21.3-4.9 5.8-395.47c-7-6.73-13.3-13.744-18-21.465l-15.1.114-2.1 20.321-1.4 47.23.8 84.87-8.6-97.14c9.3-16.86 2.2-39.69 5.7-55.239-92.1 1.696-184.1.685-276.2-.314z"
       overflow="visible"
       color="#000"
       fill="#ebc893"
       fill-rule="evenodd"
       stroke="#e0aa58"
       enable-background="accumulate"
       id="path6" />
    <path
       d="M196.6 1.203c-2.5 11.327-4.8 22.707-10.2 33.387-7-10.68-12.6-20.91-16.7-31.99L2.494 4.336C13 104.9 10.86 175.3 1.979 278.3L15.4 295.5l-9.494 6.3L2.6 462.7l1.019 45.9 112.681 3.1c.5-2.1-7.9-2.3-7.4-4.5L5.244 504.5l-.914-47.3 4.63-153.7 12.42-9-13.093-16.8C16.95 177.3 16.36 104 6.113 5.992l162.687.164c4 10.804 10.3 24.254 17.1 34.664 5.3-10.41 9.5-25.97 12-37.02 89.8.974 173.8 3.521 263.6 1.867 4.6 1.226 10.6.431 11.3-4.149-92.1 1.696-184.1.684-276.2-.315zm296.9.158l-15.1.116-.6 6.277 13.5-2.557c4.6 7.533 9.7 12.383 16.6 18.943l-4.6 389.06-19.9 9.9 4.1-.6 18.2-4.2 5.8-395.47c-7-6.73-13.3-13.748-18-21.469zm9.6 435.739l3.5 69.7-177.7.1c.4 2.1-4.1.2-3.7 2.3l185.2.4-4.6-78.2zm-370 25.1c-1 2.2-2.9.4-3.7 2.6 4.2 14 5.8 29.5 7.1 44l158 .3c1.9-5 .8-9.7 4.3-14.4 5.1 4.5 7.8 9.5 10.6 14.5.8-10.1 3.9-19.8 7-29.5 1.8 3.4 3.2 7 4.3 10.6-1.4-5.6-2.4-8.3-5.1-13.4-3 9.4-6.7 16.2-7.5 26-2.7-4.9-5.4-9.7-10.4-14.1-3.4 4.6-6.2 9.1-8 14l-147.6 3.4c-3.4-14.6-7.1-30.3-9-44z"
       overflow="visible"
       color="#000"
       opacity=".527"
       fill="#c87137"
       fill-rule="evenodd"
       filter="url(#a)"
       enable-background="accumulate"
       id="path7" />
    <path
       d="M200.1 16.1c-2.3 10.67-10.5 21.38-15.6 31.44-6.6-10.06-13.9-19.69-17.7-30.12L17.34 19.05C24.61 113.6 7.605 179.3 16.85 277l18.26 20.1L10.34 309l7.1 141.6.96 43.3 90.2 3.4c3.4-15.2 15-35.6 21.3-49.6 4.3 13.6 15.4 36.7 16.6 50.9l45.1.8 13.8-18.7 14.4 22.2 68.7-8.6c1.8-4.7 4.5-9.1 7.8-13.5 4.8 4.2 7.4 8.9 10 13.6.8-9.5 7.7-19.6 10.6-28.7 4.5 8.6 19.9 28.9 33.1 33.9l114.6 5.6 22.3-14.7 19.4 14.7-14.5-67.6-34.6-14.2 37.5-15.1 2.1-96.9-14.5-21.9 15.2-13.4 5.1-239.63c-5.2-21.09-11.8-24.89-16.9-20.22l-4.2 2.11 2 19.14.7 44.47-7.1 124.23-18.3-137.78c8.8-15.88-3.9-35.38-.6-50.02-67.1 1.24-140.4-13.332-202.8-3.28-14 2.25-23.7 21.31-36.9 24.48-4.3 1.03-13.9-23.45-18.4-23.5z"
       overflow="visible"
       enable-background="accumulate"
       filter="url(#b)"
       fill-rule="evenodd"
       fill="#f6e7d0"
       color="#000"
       id="path8" />
    <path
       d="M354 27.39l-70.3 96.91 46.4 97.6-56.2 43.6 33 74.4-30.2 63.2 69.8 48.8 31.6 29.5 31.6-13.3L365.9 335l55.5-36.5 2.1-146.1-56.9-101.83zM116.6 55.48L89.9 123.6s33.7 65.3 35.8 68.8c2.1 3.6-7 118-7 118l42.8 73.8s9.9-82.9 7.1-83.6c-2.8-.7-29.5-42.1-29.5-42.1l23.8-84.3-36.5-37.2z"
       color="#000"
       overflow="visible"
       fill="#f2dbb9"
       fill-rule="evenodd"
       filter="url(#c)"
       enable-background="accumulate"
       id="path9" />
    <path
       d="M39.33 172.1l-5.62 108.1L74.45 328 42.84 464.9l96.96-39.3 30.2 42.9 74.4-38.7-80.8-169.9-60.4-16.9z"
       color="#000"
       overflow="visible"
       fill="#eed3a4"
       fill-rule="evenodd"
       enable-background="accumulate"
       filter="url(#d)"
       id="path10" />
    <path
       d="M266.9 66.72L324.5 191 434 221.2l21.8-111.6-41.4-68.86z"
       color="#000"
       overflow="visible"
       fill="#eed3a4"
       fill-rule="evenodd"
       enable-background="accumulate"
       filter="url(#e)"
       id="path11" />
  </svg>
  <g
     id="g5"
     transform="matrix(1.0389593,0,0,1.0389593,-9.9729164,-9.973243)">
    <path
       id="path13"
       style="fill:#442178;fill-opacity:1;stroke-width:8.16115;stroke-linecap:round;stroke-linejoin:round"
       d="m 265.99804,243.78516 -120.03106,24.05626 -39.87128,56.22889 48.62696,76.63281 z m 16.84832,2.60933 -116.23113,163.90629 90.92188,21.03516 102.77959,-144.93747 z"
       sodipodi:nodetypes="cccccccccc" />
    <path
       id="path12"
       style="fill:#3e3126;fill-opacity:1;stroke-width:0.816115"
       d="m 335.67188,63.501953 c -0.88957,-0.0082 -1.76223,0.003 -2.61915,0.0332 -12.01729,0.416218 -21.10849,4.605305 -26.24023,11.841797 -5.86378,8.268877 -6.25868,20.092575 -0.66992,33.66211 5.58712,13.56873 17.19097,28.14402 33.42187,39.64063 16.23089,11.49743 33.8341,17.61189 48.49805,18.38476 14.66396,0.7753 25.70181,-3.51742 31.56641,-11.78711 5.86379,-8.27051 6.25899,-20.0937 0.67187,-33.66406 -5.58794,-13.56873 -17.19097,-28.142878 -33.42187,-39.638674 -16.23253,-11.49906 -33.83605,-17.613363 -48.5,-18.388671 -0.9165,-0.04734 -1.82073,-0.075 -2.70703,-0.08398 z m -38.97657,60.886717 -15.3789,21.6836 c -0.34766,0.48967 -0.67002,0.98719 -0.97852,1.48828 -7.45276,-1.97499 -14.94905,-3.22525 -22.35937,-3.63086 -1.50655,-0.0841 -3.0104,-0.13101 -4.51368,-0.13672 -1.50165,-0.007 -3.00146,0.0259 -4.49414,0.0977 -20.89744,0.9981 -40.69027,9.71662 -54.01172,28.50196 L 87.730469,323.5957 90.472656,327.91797 150.28125,422.17578 264.06055,448.5 371.4082,297.12695 c 15.25318,-21.51279 15.2618,-46.60745 5.98828,-68.88086 -3.89695,-9.36084 -9.34525,-18.34209 -15.93945,-26.73828 l 14.58594,-20.57031 c -5.16601,-0.95485 -10.41379,-2.37912 -15.67774,-4.25781 l -11.98242,16.89843 c -3.07185,4.32949 -7.46808,5.73523 -14.47851,4.97461 -7.01206,-0.75898 -15.75414,-4.36525 -23.31055,-9.64062 -7.55723,-5.27536 -13.89864,-12.21087 -16.92969,-18.49414 -3.03105,-6.28409 -3.19687,-10.88301 0.0937,-15.52344 l 12.0918,-17.04883 c -3.4995,-4.37193 -6.56966,-8.87617 -9.1543,-13.45703 z m -43.32617,34.64258 v 0.004 c 1.24539,0.0122 2.50357,0.0517 3.77344,0.12109 6.22696,0.34277 12.69242,1.43646 19.22461,3.17969 0.0571,5.08929 1.36324,10.15719 3.55859,14.70703 4.61676,9.57303 12.64684,17.88852 21.9375,24.375 9.29147,6.48811 19.86843,11.15627 30.40039,12.29883 5.8695,0.63657 11.99731,-0.0409 17.42774,-2.38477 5.72913,7.33687 10.39971,15.02964 13.625,22.77539 7.80205,18.74208 7.78765,37.08138 -4.34961,54.19531 l -10.55469,14.88477 -4.625,6.52148 h 0.002 l -86.25195,121.62696 -90.92188,-21.03516 54.94922,-77.48633 15.875,-22.38867 55.2168,-36.0293 -21.71484,-11.21289 19.40429,-27.36328 -12.44336,-8.82226 -23.80859,33.57422 -72.43164,14.51757 38.92578,32.73047 -15.875,22.38867 -49.99023,70.49414 -48.62696,-76.63281 11.72852,-16.54101 10.20312,-14.38672 1.52539,-2.15235 4.50977,-6.36132 73.33594,-103.41797 c 10.58502,-14.92674 25.17795,-21.47194 42.27148,-22.12891 1.22091,-0.0465 2.45301,-0.063 3.69922,-0.0508 z" />
    <path
       id="path14"
       style="fill:#5a2ca0;fill-opacity:1;stroke-width:8.16115;stroke-linecap:round;stroke-linejoin:round"
       d="m 265.99804,243.78516 -120.03106,24.05626 -4.50936,6.35996 75.15909,39.21975 z m 16.84832,2.60933 -49.37814,69.63119 122.22437,-23.10466 4.62411,-6.52255 z" />
    <circle
       style="fill:#5a2ca0;fill-opacity:1;stroke-width:5;stroke-linejoin:round;paint-order:stroke fill markers"
       id="path4"
       cx="255.80045"
       cy="360.08832"
       r="12.790023" />
    <circle
       style="fill:#5a2ca0;fill-opacity:1;stroke-width:3.26367;stroke-linejoin:round;paint-order:stroke fill markers"
       id="circle4"
       cx="152.89003"
       cy="347.29999"
       r="8.3484707" />
    <circle
       style="fill:#5a2ca0;fill-opacity:1;stroke-width:2.31827;stroke-linejoin:round;paint-order:stroke fill markers"
       id="circle5"
       cx="232.36255"
       cy="381.23959"
       r="5.9301505" />
  </g>
</svg>
