<?xml version="1.0" encoding="UTF-8" standalone="no"?>
<svg
   viewBox="0 0 512 512"
   style="height: 512px; width: 512px;"
   version="1.1"
   id="svg12"
   sodipodi:docname="oil-blank copy.svg"
   inkscape:version="1.4 (e7c3feb1, 2024-10-09)"
   xmlns:inkscape="http://www.inkscape.org/namespaces/inkscape"
   xmlns:sodipodi="http://sodipodi.sourceforge.net/DTD/sodipodi-0.dtd"
   xmlns="http://www.w3.org/2000/svg"
   xmlns:svg="http://www.w3.org/2000/svg">
  <sodipodi:namedview
     id="namedview12"
     pagecolor="#505050"
     bordercolor="#ffffff"
     borderopacity="1"
     inkscape:showpageshadow="0"
     inkscape:pageopacity="0"
     inkscape:pagecheckerboard="1"
     inkscape:deskcolor="#d1d1d1"
     inkscape:zoom="0.29513546"
     inkscape:cx="225.32026"
     inkscape:cy="552.28876"
     inkscape:window-width="1728"
     inkscape:window-height="1051"
     inkscape:window-x="0"
     inkscape:window-y="38"
     inkscape:window-maximized="1"
     inkscape:current-layer="svg12" />
  <defs
     id="defs2">
    <radialGradient
       id="lorc-square-bottle-gradient-0">
      <stop
         offset="0%"
         stop-color="#830000"
         stop-opacity="1"
         id="stop1" />
      <stop
         offset="100%"
         stop-color="#000"
         stop-opacity="1"
         id="stop2" />
    </radialGradient>
  </defs>
  <path
     d="M0 0h512v512H0z"
     fill="url(#pattern)"
     id="path2" />
  <svg
     version="1.1"
     id="svg11">
    <defs
       id="defs6">
      <filter
         id="b"
         x="-0.023338979"
         width="1.046678"
         y="-0.023448784"
         height="1.0468976"
         color-interpolation-filters="sRGB">
        <feGaussianBlur
           stdDeviation="4.823"
           id="feGaussianBlur2" />
      </filter>
      <filter
         id="a"
         x="-0.012011281"
         width="1.0240226"
         y="-0.011988317"
         height="1.0239766"
         color-interpolation-filters="sRGB">
        <feGaussianBlur
           stdDeviation="2.55"
           id="feGaussianBlur3" />
      </filter>
      <filter
         id="c"
         x="-0.11244604"
         width="1.2248921"
         y="-0.082623731"
         height="1.1652475"
         color-interpolation-filters="sRGB">
        <feGaussianBlur
           stdDeviation="15.63"
           id="feGaussianBlur4" />
      </filter>
      <filter
         id="e"
         x="-0.23758603"
         width="1.4751721"
         y="-0.24869778"
         height="1.4973956"
         color-interpolation-filters="sRGB">
        <feGaussianBlur
           stdDeviation="18.7"
           id="feGaussianBlur5" />
      </filter>
      <filter
         id="d"
         x="-0.21301439"
         width="1.4260288"
         y="-0.15141701"
         height="1.302834"
         color-interpolation-filters="sRGB">
        <feGaussianBlur
           stdDeviation="18.7"
           id="feGaussianBlur6" />
      </filter>
    </defs>
    <path
       d="M196.6 1.207c-2.5 11.323-4.8 22.703-10.2 33.383-7-10.68-12.6-20.91-16.7-31.988L2.494 4.338C13 104.9 10.86 175.3 1.979 278.3L15.4 295.5l-9.494 6.3L2.6 462.7l1.019 45.9 112.681 3.1c3.6-16.1 6.5-32.5 13.2-47.3 4.5 14.4 5.7 29.4 7 44.4l160 .3c.8-6.1.7-8.1 2.3-14.4 5.1 4.5 7.8 9.5 10.6 14.5.8-10.1 3.9-19.8 7-29.5 4.8 9.2 6.7 19.4 8.8 29.5l185.2.4-4.6-78.2-21.4-8.2 21.3-4.9 5.8-395.47c-7-6.73-13.3-13.744-18-21.465l-15.1.114-2.1 20.321-1.4 47.23.8 84.87-8.6-97.14c9.3-16.86 2.2-39.69 5.7-55.239-92.1 1.696-184.1.685-276.2-.314z"
       overflow="visible"
       color="#000"
       fill="#ebc893"
       fill-rule="evenodd"
       stroke="#e0aa58"
       enable-background="accumulate"
       id="path6" />
    <path
       d="M196.6 1.203c-2.5 11.327-4.8 22.707-10.2 33.387-7-10.68-12.6-20.91-16.7-31.99L2.494 4.336C13 104.9 10.86 175.3 1.979 278.3L15.4 295.5l-9.494 6.3L2.6 462.7l1.019 45.9 112.681 3.1c.5-2.1-7.9-2.3-7.4-4.5L5.244 504.5l-.914-47.3 4.63-153.7 12.42-9-13.093-16.8C16.95 177.3 16.36 104 6.113 5.992l162.687.164c4 10.804 10.3 24.254 17.1 34.664 5.3-10.41 9.5-25.97 12-37.02 89.8.974 173.8 3.521 263.6 1.867 4.6 1.226 10.6.431 11.3-4.149-92.1 1.696-184.1.684-276.2-.315zm296.9.158l-15.1.116-.6 6.277 13.5-2.557c4.6 7.533 9.7 12.383 16.6 18.943l-4.6 389.06-19.9 9.9 4.1-.6 18.2-4.2 5.8-395.47c-7-6.73-13.3-13.748-18-21.469zm9.6 435.739l3.5 69.7-177.7.1c.4 2.1-4.1.2-3.7 2.3l185.2.4-4.6-78.2zm-370 25.1c-1 2.2-2.9.4-3.7 2.6 4.2 14 5.8 29.5 7.1 44l158 .3c1.9-5 .8-9.7 4.3-14.4 5.1 4.5 7.8 9.5 10.6 14.5.8-10.1 3.9-19.8 7-29.5 1.8 3.4 3.2 7 4.3 10.6-1.4-5.6-2.4-8.3-5.1-13.4-3 9.4-6.7 16.2-7.5 26-2.7-4.9-5.4-9.7-10.4-14.1-3.4 4.6-6.2 9.1-8 14l-147.6 3.4c-3.4-14.6-7.1-30.3-9-44z"
       overflow="visible"
       color="#000"
       opacity=".527"
       fill="#c87137"
       fill-rule="evenodd"
       filter="url(#a)"
       enable-background="accumulate"
       id="path7" />
    <path
       d="M200.1 16.1c-2.3 10.67-10.5 21.38-15.6 31.44-6.6-10.06-13.9-19.69-17.7-30.12L17.34 19.05C24.61 113.6 7.605 179.3 16.85 277l18.26 20.1L10.34 309l7.1 141.6.96 43.3 90.2 3.4c3.4-15.2 15-35.6 21.3-49.6 4.3 13.6 15.4 36.7 16.6 50.9l45.1.8 13.8-18.7 14.4 22.2 68.7-8.6c1.8-4.7 4.5-9.1 7.8-13.5 4.8 4.2 7.4 8.9 10 13.6.8-9.5 7.7-19.6 10.6-28.7 4.5 8.6 19.9 28.9 33.1 33.9l114.6 5.6 22.3-14.7 19.4 14.7-14.5-67.6-34.6-14.2 37.5-15.1 2.1-96.9-14.5-21.9 15.2-13.4 5.1-239.63c-5.2-21.09-11.8-24.89-16.9-20.22l-4.2 2.11 2 19.14.7 44.47-7.1 124.23-18.3-137.78c8.8-15.88-3.9-35.38-.6-50.02-67.1 1.24-140.4-13.332-202.8-3.28-14 2.25-23.7 21.31-36.9 24.48-4.3 1.03-13.9-23.45-18.4-23.5z"
       overflow="visible"
       enable-background="accumulate"
       filter="url(#b)"
       fill-rule="evenodd"
       fill="#f6e7d0"
       color="#000"
       id="path8" />
    <path
       d="M354 27.39l-70.3 96.91 46.4 97.6-56.2 43.6 33 74.4-30.2 63.2 69.8 48.8 31.6 29.5 31.6-13.3L365.9 335l55.5-36.5 2.1-146.1-56.9-101.83zM116.6 55.48L89.9 123.6s33.7 65.3 35.8 68.8c2.1 3.6-7 118-7 118l42.8 73.8s9.9-82.9 7.1-83.6c-2.8-.7-29.5-42.1-29.5-42.1l23.8-84.3-36.5-37.2z"
       color="#000"
       overflow="visible"
       fill="#f2dbb9"
       fill-rule="evenodd"
       filter="url(#c)"
       enable-background="accumulate"
       id="path9" />
    <path
       d="M39.33 172.1l-5.62 108.1L74.45 328 42.84 464.9l96.96-39.3 30.2 42.9 74.4-38.7-80.8-169.9-60.4-16.9z"
       color="#000"
       overflow="visible"
       fill="#eed3a4"
       fill-rule="evenodd"
       enable-background="accumulate"
       filter="url(#d)"
       id="path10" />
    <path
       d="M266.9 66.72L324.5 191 434 221.2l21.8-111.6-41.4-68.86z"
       color="#000"
       overflow="visible"
       fill="#eed3a4"
       fill-rule="evenodd"
       enable-background="accumulate"
       filter="url(#e)"
       id="path11" />
  </svg>
  <path
     id="path13"
     style="fill:#3e3126;fill-opacity:1;stroke-width:8.4791;stroke-linecap:round;stroke-linejoin:round"
     d="M 245.3457 247.52539 L 176.6582 261.29297 L 162.89258 264.05273 L 176.07422 270.92578 L 214.53906 290.98242 C 214.53959 290.98168 214.54049 290.98121 214.54102 290.98047 C 224.80917 276.49604 235.07768 262.01186 245.3457 247.52734 C 245.34601 247.52691 245.3454 247.52582 245.3457 247.52539 z M 297.11523 252.8457 C 286.75316 267.45957 276.39121 282.07352 266.0293 296.6875 C 266.02899 296.68793 266.0296 296.68902 266.0293 296.68945 L 312.9043 287.81836 L 350.9082 280.62695 L 350.91016 280.62695 L 350.91016 280.625 L 297.11523 252.8457 z M 153.61914 277.08984 C 141.74627 293.78288 129.86627 310.47083 118.00195 327.16992 L 151.46875 379.95117 C 169.40947 354.64321 187.35014 329.3352 205.29102 304.02734 L 153.61914 277.08984 z M 338.05664 299.18555 L 252.82031 315.31836 C 231.18388 345.83354 209.54685 376.3483 187.91016 406.86328 C 209.0651 411.76628 230.22005 416.66927 251.375 421.57227 L 331.53516 308.39648 C 333.67687 305.30358 335.87227 302.24857 338.05664 299.18555 z " />
  <path
     id="path12"
     style="fill:#3e3126;fill-opacity:1;stroke-width:0.84791"
     d="M 338.77734 56.001953 C 337.85311 55.993453 336.94694 56.005719 336.05664 56.037109 C 323.57116 56.469543 314.12464 60.821423 308.79297 68.339844 C 302.70075 76.930871 302.29117 89.21626 308.09766 103.31445 C 313.90245 117.41181 325.95902 132.55354 342.82227 144.49805 C 359.6855 156.44341 377.97373 162.79663 393.20898 163.59961 C 408.44423 164.40512 419.91278 159.94539 426.00586 151.35352 C 432.0981 142.7608 432.50792 130.47601 426.70312 116.37695 C 420.89748 102.2796 408.84176 87.138977 391.97852 75.195312 C 375.11358 63.248258 356.82509 56.895358 341.58984 56.089844 C 340.63763 56.040664 339.69816 56.011283 338.77734 56.001953 z M 298.28125 119.26172 L 282.30469 141.78906 C 281.94349 142.29781 281.60763 142.81533 281.28711 143.33594 C 273.544 141.28401 265.75566 139.98391 258.05664 139.5625 C 256.49139 139.4751 254.92903 139.42781 253.36719 139.42188 C 251.80703 139.41487 250.2481 139.44883 248.69727 139.52344 C 226.98568 140.56042 206.42247 149.61757 192.58203 169.13477 L 81.175781 326.22852 L 84.025391 330.7207 L 146.16406 428.65039 L 264.375 456 L 375.90625 298.72852 C 391.75368 276.37761 391.76176 250.30523 382.12695 227.16406 C 378.07817 217.43853 372.41751 208.10807 365.56641 199.38477 L 380.7207 178.01367 C 375.35343 177.02162 369.90067 175.54173 364.43164 173.58984 L 351.98242 191.14648 C 348.7909 195.64465 344.22496 197.1047 336.94141 196.31445 C 329.65617 195.5259 320.57346 191.77972 312.72266 186.29883 C 304.871 180.81795 298.28195 173.61204 295.13281 167.08398 C 291.98367 160.55507 291.81165 155.7763 295.23047 150.95508 L 307.79297 133.24219 C 304.15713 128.69993 300.96659 124.02105 298.28125 119.26172 z M 253.26758 155.25391 L 253.26758 155.25781 C 254.56149 155.27051 255.86816 155.3107 257.1875 155.38281 C 263.65706 155.73893 270.37543 156.87636 277.16211 158.6875 C 277.22141 163.97507 278.5785 169.2397 280.85938 173.9668 C 285.656 183.91279 293.99972 192.55183 303.65234 199.29102 C 313.3058 206.0319 324.29406 210.88128 335.23633 212.06836 C 341.33451 212.72973 347.70175 212.02698 353.34375 209.5918 C 359.29608 217.21451 364.1471 225.20639 367.49805 233.25391 C 375.60406 252.72617 375.59059 271.77988 362.98047 289.56055 L 352.01367 305.02539 L 347.20898 311.80078 L 347.21094 311.80078 L 257.59766 438.16602 L 163.13477 416.3125 L 220.22461 335.80664 L 223.91211 330.60547 L 236.7168 312.54688 L 236.71875 312.54492 L 271.52539 263.46289 L 291.68555 235.0332 L 278.75781 225.86719 L 254.02148 260.75 L 219.20898 309.83984 L 202.7168 333.09961 L 192.73047 347.17969 L 150.77734 406.33984 L 100.25586 326.72266 L 112.44141 309.53711 L 123.04297 294.58984 L 124.62695 292.35352 L 129.3125 285.74414 L 205.50586 178.29688 C 216.50327 162.7886 231.66435 155.98921 249.42383 155.30664 C 250.69231 155.25834 251.97282 155.24131 253.26758 155.25391 z " />
</svg>
