<?xml version="1.0" encoding="UTF-8" standalone="no"?>
<svg
   viewBox="0 0 512 512"
   style="height: 512px; width: 512px;"
   version="1.1"
   id="svg12"
   sodipodi:docname="poison-bottle.svg"
   inkscape:version="1.4 (e7c3feb1, 2024-10-09)"
   xmlns:inkscape="http://www.inkscape.org/namespaces/inkscape"
   xmlns:sodipodi="http://sodipodi.sourceforge.net/DTD/sodipodi-0.dtd"
   xmlns="http://www.w3.org/2000/svg"
   xmlns:svg="http://www.w3.org/2000/svg">
  <sodipodi:namedview
     id="namedview12"
     pagecolor="#505050"
     bordercolor="#ffffff"
     borderopacity="1"
     inkscape:showpageshadow="0"
     inkscape:pageopacity="0"
     inkscape:pagecheckerboard="1"
     inkscape:deskcolor="#d1d1d1"
     inkscape:zoom="0.4609375"
     inkscape:cx="257.08475"
     inkscape:cy="254.91525"
     inkscape:window-width="992"
     inkscape:window-height="472"
     inkscape:window-x="0"
     inkscape:window-y="38"
     inkscape:window-maximized="0"
     inkscape:current-layer="svg12" />
  <defs
     id="defs2">
    <radialGradient
       id="lorc-poison-bottle-gradient-0">
      <stop
         offset="0%"
         stop-color="#830000"
         stop-opacity="1"
         id="stop1" />
      <stop
         offset="100%"
         stop-color="#000"
         stop-opacity="1"
         id="stop2" />
    </radialGradient>
  </defs>
  <path
     d="M0 0h512v512H0z"
     fill="url(#pattern)"
     id="path2" />
  <svg
     version="1.1"
     id="svg11">
    <defs
       id="defs6">
      <filter
         id="b"
         x="-0.023338979"
         width="1.046678"
         y="-0.023448784"
         height="1.0468976"
         color-interpolation-filters="sRGB">
        <feGaussianBlur
           stdDeviation="4.823"
           id="feGaussianBlur2" />
      </filter>
      <filter
         id="a"
         x="-0.012011281"
         width="1.0240226"
         y="-0.011988317"
         height="1.0239766"
         color-interpolation-filters="sRGB">
        <feGaussianBlur
           stdDeviation="2.55"
           id="feGaussianBlur3" />
      </filter>
      <filter
         id="c"
         x="-0.11244604"
         width="1.2248921"
         y="-0.082623731"
         height="1.1652475"
         color-interpolation-filters="sRGB">
        <feGaussianBlur
           stdDeviation="15.63"
           id="feGaussianBlur4" />
      </filter>
      <filter
         id="e"
         x="-0.23758603"
         width="1.4751721"
         y="-0.24869778"
         height="1.4973956"
         color-interpolation-filters="sRGB">
        <feGaussianBlur
           stdDeviation="18.7"
           id="feGaussianBlur5" />
      </filter>
      <filter
         id="d"
         x="-0.21301439"
         width="1.4260288"
         y="-0.15141701"
         height="1.302834"
         color-interpolation-filters="sRGB">
        <feGaussianBlur
           stdDeviation="18.7"
           id="feGaussianBlur6" />
      </filter>
    </defs>
    <path
       d="M196.6 1.207c-2.5 11.323-4.8 22.703-10.2 33.383-7-10.68-12.6-20.91-16.7-31.988L2.494 4.338C13 104.9 10.86 175.3 1.979 278.3L15.4 295.5l-9.494 6.3L2.6 462.7l1.019 45.9 112.681 3.1c3.6-16.1 6.5-32.5 13.2-47.3 4.5 14.4 5.7 29.4 7 44.4l160 .3c.8-6.1.7-8.1 2.3-14.4 5.1 4.5 7.8 9.5 10.6 14.5.8-10.1 3.9-19.8 7-29.5 4.8 9.2 6.7 19.4 8.8 29.5l185.2.4-4.6-78.2-21.4-8.2 21.3-4.9 5.8-395.47c-7-6.73-13.3-13.744-18-21.465l-15.1.114-2.1 20.321-1.4 47.23.8 84.87-8.6-97.14c9.3-16.86 2.2-39.69 5.7-55.239-92.1 1.696-184.1.685-276.2-.314z"
       overflow="visible"
       color="#000"
       fill="#ebc893"
       fill-rule="evenodd"
       stroke="#e0aa58"
       enable-background="accumulate"
       id="path6" />
    <path
       d="M196.6 1.203c-2.5 11.327-4.8 22.707-10.2 33.387-7-10.68-12.6-20.91-16.7-31.99L2.494 4.336C13 104.9 10.86 175.3 1.979 278.3L15.4 295.5l-9.494 6.3L2.6 462.7l1.019 45.9 112.681 3.1c.5-2.1-7.9-2.3-7.4-4.5L5.244 504.5l-.914-47.3 4.63-153.7 12.42-9-13.093-16.8C16.95 177.3 16.36 104 6.113 5.992l162.687.164c4 10.804 10.3 24.254 17.1 34.664 5.3-10.41 9.5-25.97 12-37.02 89.8.974 173.8 3.521 263.6 1.867 4.6 1.226 10.6.431 11.3-4.149-92.1 1.696-184.1.684-276.2-.315zm296.9.158l-15.1.116-.6 6.277 13.5-2.557c4.6 7.533 9.7 12.383 16.6 18.943l-4.6 389.06-19.9 9.9 4.1-.6 18.2-4.2 5.8-395.47c-7-6.73-13.3-13.748-18-21.469zm9.6 435.739l3.5 69.7-177.7.1c.4 2.1-4.1.2-3.7 2.3l185.2.4-4.6-78.2zm-370 25.1c-1 2.2-2.9.4-3.7 2.6 4.2 14 5.8 29.5 7.1 44l158 .3c1.9-5 .8-9.7 4.3-14.4 5.1 4.5 7.8 9.5 10.6 14.5.8-10.1 3.9-19.8 7-29.5 1.8 3.4 3.2 7 4.3 10.6-1.4-5.6-2.4-8.3-5.1-13.4-3 9.4-6.7 16.2-7.5 26-2.7-4.9-5.4-9.7-10.4-14.1-3.4 4.6-6.2 9.1-8 14l-147.6 3.4c-3.4-14.6-7.1-30.3-9-44z"
       overflow="visible"
       color="#000"
       opacity=".527"
       fill="#c87137"
       fill-rule="evenodd"
       filter="url(#a)"
       enable-background="accumulate"
       id="path7" />
    <path
       d="M200.1 16.1c-2.3 10.67-10.5 21.38-15.6 31.44-6.6-10.06-13.9-19.69-17.7-30.12L17.34 19.05C24.61 113.6 7.605 179.3 16.85 277l18.26 20.1L10.34 309l7.1 141.6.96 43.3 90.2 3.4c3.4-15.2 15-35.6 21.3-49.6 4.3 13.6 15.4 36.7 16.6 50.9l45.1.8 13.8-18.7 14.4 22.2 68.7-8.6c1.8-4.7 4.5-9.1 7.8-13.5 4.8 4.2 7.4 8.9 10 13.6.8-9.5 7.7-19.6 10.6-28.7 4.5 8.6 19.9 28.9 33.1 33.9l114.6 5.6 22.3-14.7 19.4 14.7-14.5-67.6-34.6-14.2 37.5-15.1 2.1-96.9-14.5-21.9 15.2-13.4 5.1-239.63c-5.2-21.09-11.8-24.89-16.9-20.22l-4.2 2.11 2 19.14.7 44.47-7.1 124.23-18.3-137.78c8.8-15.88-3.9-35.38-.6-50.02-67.1 1.24-140.4-13.332-202.8-3.28-14 2.25-23.7 21.31-36.9 24.48-4.3 1.03-13.9-23.45-18.4-23.5z"
       overflow="visible"
       enable-background="accumulate"
       filter="url(#b)"
       fill-rule="evenodd"
       fill="#f6e7d0"
       color="#000"
       id="path8" />
    <path
       d="M354 27.39l-70.3 96.91 46.4 97.6-56.2 43.6 33 74.4-30.2 63.2 69.8 48.8 31.6 29.5 31.6-13.3L365.9 335l55.5-36.5 2.1-146.1-56.9-101.83zM116.6 55.48L89.9 123.6s33.7 65.3 35.8 68.8c2.1 3.6-7 118-7 118l42.8 73.8s9.9-82.9 7.1-83.6c-2.8-.7-29.5-42.1-29.5-42.1l23.8-84.3-36.5-37.2z"
       color="#000"
       overflow="visible"
       fill="#f2dbb9"
       fill-rule="evenodd"
       filter="url(#c)"
       enable-background="accumulate"
       id="path9" />
    <path
       d="M39.33 172.1l-5.62 108.1L74.45 328 42.84 464.9l96.96-39.3 30.2 42.9 74.4-38.7-80.8-169.9-60.4-16.9z"
       color="#000"
       overflow="visible"
       fill="#eed3a4"
       fill-rule="evenodd"
       enable-background="accumulate"
       filter="url(#d)"
       id="path10" />
    <path
       d="M266.9 66.72L324.5 191 434 221.2l21.8-111.6-41.4-68.86z"
       color="#000"
       overflow="visible"
       fill="#eed3a4"
       fill-rule="evenodd"
       enable-background="accumulate"
       filter="url(#e)"
       id="path11" />
  </svg>
  <g
     class=""
     transform="matrix(0.93948605,0,0,0.93948605,11.748659,12.496959)"
     id="g12">
    <path
       d="M 181.78,33 V 84.53 H 331.187 V 33 Z m 14.19,70.22 c -0.66,2.9 -1.554,5.263 -2.75,6.936 -2.684,3.75 -7.033,6.594 -19.5,6.594 -21.54,0 -40.804,5.862 -55.157,16.094 -14.353,10.232 -23.907,25.398 -23.907,42.5 V 426.75 c 0,32.34 26.255,58.625 58.594,58.625 h 213.47 c 32.338,0 58.592,-26.286 58.592,-58.625 V 175.344 c 0,-17.102 -9.527,-32.2 -23.593,-42.438 -14.067,-10.237 -32.83,-16.156 -53.44,-16.156 -16.69,0 -23.62,-3.488 -26.874,-7.188 -1.41,-1.604 -2.43,-3.698 -3.156,-6.343 h -19.125 c 1.073,6.658 3.37,13.137 8.25,18.686 8.11,9.223 21.523,13.53 40.906,13.53 16.978,0 32.056,5.008 42.44,12.564 10.38,7.556 15.905,17.1 15.905,27.344 V 426.75 c 0,22.355 -17.55,39.938 -39.906,39.938 H 153.25 c -22.355,0 -39.906,-17.583 -39.906,-39.938 V 175.344 c 0,-10.245 5.455,-19.72 16.062,-27.28 10.607,-7.563 26.22,-12.626 44.313,-12.626 15.962,0 28.056,-5.142 34.686,-14.407 3.904,-5.455 5.733,-11.545 6.625,-17.81 h -19.06 z m 66.093,45.405 c -30.545,0 -50.062,12.865 -63.282,32.313 -12.295,18.09 -18.387,42.315 -19.186,66.062 25.033,12.795 39.555,27.632 43.844,44.97 0.734,2.967 1.173,5.942 1.312,8.905 9.01,5.134 23.22,8.44 37.813,8.438 12.935,-0.002 26.08,-2.538 36.093,-6.875 0.152,-3.325 0.617,-6.662 1.47,-10 4.486,-17.583 19.028,-33.2 44.405,-45.563 -0.838,-22.46 -6.793,-46.595 -19,-64.938 -13.2,-19.84 -32.745,-33.312 -63.467,-33.312 z M 232.188,223.5 c 9.157,0 16.593,7.405 16.593,16.563 0,9.157 -7.435,16.593 -16.593,16.593 -9.157,0 -16.562,-7.436 -16.562,-16.594 0,-9.157 7.405,-16.562 16.563,-16.562 z m 55.437,0 c 9.158,0 16.594,7.405 16.594,16.563 0,9.157 -7.438,16.593 -16.595,16.593 -9.158,0 -16.563,-7.436 -16.563,-16.594 0,-9.157 7.405,-16.562 16.563,-16.562 z m -28.844,33.594 c 6.275,13.248 11.25,26.503 13.72,39.75 -9.148,-3.022 -18.29,-3.426 -27.438,0 3.34,-13.25 7.352,-26.504 13.72,-39.75 z m -37.03,63.47 c -2.136,6.42 -5.285,12.778 -9.188,19.03 11.93,7.99 31.58,12.81 50.875,12.594 18.97,-0.214 36.878,-5.57 46.22,-12.407 -3.55,-5.764 -6.412,-11.8 -8.344,-18 -11.947,4.416 -25.424,6.375 -38.75,6.376 -14.447,0.002 -28.77,-2.222 -40.813,-7.594 z m -70.656,17.06 c -8.9,11.268 -12.694,22.493 -10.03,36.313 68.925,5.54 164.194,31.92 226.686,60.75 9.16,-11.166 12.518,-22.67 9.97,-36.78 -67.77,-6.867 -164.135,-28.736 -226.626,-60.282 z m 216.594,0 c -20.79,10.496 -45.326,19.907 -71.313,28.063 20.298,4.434 40.253,8.04 58.72,10.688 7.782,-1.026 15.357,-1.853 22.624,-2.438 2.66,-13.82 -1.133,-25.045 -10.033,-36.312 z m -203.75,57.532 c -7.904,1.084 -15.56,2.01 -22.875,2.75 -2.55,14.11 0.81,25.615 9.968,36.78 21.375,-9.86 46.575,-19.447 73.25,-27.998 -20.87,-4.912 -41.385,-8.868 -60.343,-11.532 z"
       fill="#3e3126"
       fill-opacity="1"
       id="path12" />
  </g>
</svg>
