<?xml version="1.0" encoding="UTF-8" standalone="no"?>
<svg
   viewBox="0 0 512 512"
   style="height: 512px; width: 512px;"
   version="1.1"
   id="svg12"
   sodipodi:docname="poison-purple--a.svg"
   inkscape:version="1.4 (e7c3feb1, 2024-10-09)"
   xmlns:inkscape="http://www.inkscape.org/namespaces/inkscape"
   xmlns:sodipodi="http://sodipodi.sourceforge.net/DTD/sodipodi-0.dtd"
   xmlns="http://www.w3.org/2000/svg"
   xmlns:svg="http://www.w3.org/2000/svg">
  <sodipodi:namedview
     id="namedview12"
     pagecolor="#505050"
     bordercolor="#ffffff"
     borderopacity="1"
     inkscape:showpageshadow="0"
     inkscape:pageopacity="0"
     inkscape:pagecheckerboard="1"
     inkscape:deskcolor="#d1d1d1"
     inkscape:zoom="0.49471457"
     inkscape:cx="166.76283"
     inkscape:cy="-58.61966"
     inkscape:window-width="1728"
     inkscape:window-height="1051"
     inkscape:window-x="0"
     inkscape:window-y="38"
     inkscape:window-maximized="1"
     inkscape:current-layer="svg12" />
  <defs
     id="defs2">
    <radialGradient
       id="lorc-poison-bottle-gradient-0">
      <stop
         offset="0%"
         stop-color="#830000"
         stop-opacity="1"
         id="stop1" />
      <stop
         offset="100%"
         stop-color="#000"
         stop-opacity="1"
         id="stop2" />
    </radialGradient>
  </defs>
  <path
     d="M0 0h512v512H0z"
     fill="url(#pattern)"
     id="path2" />
  <svg
     version="1.1"
     id="svg11">
    <defs
       id="defs6">
      <filter
         id="b"
         x="-0.023338979"
         width="1.046678"
         y="-0.023448784"
         height="1.0468976"
         color-interpolation-filters="sRGB">
        <feGaussianBlur
           stdDeviation="4.823"
           id="feGaussianBlur2" />
      </filter>
      <filter
         id="a"
         x="-0.012011281"
         width="1.0240226"
         y="-0.011988317"
         height="1.0239766"
         color-interpolation-filters="sRGB">
        <feGaussianBlur
           stdDeviation="2.55"
           id="feGaussianBlur3" />
      </filter>
      <filter
         id="c"
         x="-0.11244604"
         width="1.2248921"
         y="-0.082623731"
         height="1.1652475"
         color-interpolation-filters="sRGB">
        <feGaussianBlur
           stdDeviation="15.63"
           id="feGaussianBlur4" />
      </filter>
      <filter
         id="e"
         x="-0.23758603"
         width="1.4751721"
         y="-0.24869778"
         height="1.4973956"
         color-interpolation-filters="sRGB">
        <feGaussianBlur
           stdDeviation="18.7"
           id="feGaussianBlur5" />
      </filter>
      <filter
         id="d"
         x="-0.21301439"
         width="1.4260288"
         y="-0.15141701"
         height="1.302834"
         color-interpolation-filters="sRGB">
        <feGaussianBlur
           stdDeviation="18.7"
           id="feGaussianBlur6" />
      </filter>
    </defs>
    <path
       d="M196.6 1.207c-2.5 11.323-4.8 22.703-10.2 33.383-7-10.68-12.6-20.91-16.7-31.988L2.494 4.338C13 104.9 10.86 175.3 1.979 278.3L15.4 295.5l-9.494 6.3L2.6 462.7l1.019 45.9 112.681 3.1c3.6-16.1 6.5-32.5 13.2-47.3 4.5 14.4 5.7 29.4 7 44.4l160 .3c.8-6.1.7-8.1 2.3-14.4 5.1 4.5 7.8 9.5 10.6 14.5.8-10.1 3.9-19.8 7-29.5 4.8 9.2 6.7 19.4 8.8 29.5l185.2.4-4.6-78.2-21.4-8.2 21.3-4.9 5.8-395.47c-7-6.73-13.3-13.744-18-21.465l-15.1.114-2.1 20.321-1.4 47.23.8 84.87-8.6-97.14c9.3-16.86 2.2-39.69 5.7-55.239-92.1 1.696-184.1.685-276.2-.314z"
       overflow="visible"
       color="#000"
       fill="#ebc893"
       fill-rule="evenodd"
       stroke="#e0aa58"
       enable-background="accumulate"
       id="path6" />
    <path
       d="M196.6 1.203c-2.5 11.327-4.8 22.707-10.2 33.387-7-10.68-12.6-20.91-16.7-31.99L2.494 4.336C13 104.9 10.86 175.3 1.979 278.3L15.4 295.5l-9.494 6.3L2.6 462.7l1.019 45.9 112.681 3.1c.5-2.1-7.9-2.3-7.4-4.5L5.244 504.5l-.914-47.3 4.63-153.7 12.42-9-13.093-16.8C16.95 177.3 16.36 104 6.113 5.992l162.687.164c4 10.804 10.3 24.254 17.1 34.664 5.3-10.41 9.5-25.97 12-37.02 89.8.974 173.8 3.521 263.6 1.867 4.6 1.226 10.6.431 11.3-4.149-92.1 1.696-184.1.684-276.2-.315zm296.9.158l-15.1.116-.6 6.277 13.5-2.557c4.6 7.533 9.7 12.383 16.6 18.943l-4.6 389.06-19.9 9.9 4.1-.6 18.2-4.2 5.8-395.47c-7-6.73-13.3-13.748-18-21.469zm9.6 435.739l3.5 69.7-177.7.1c.4 2.1-4.1.2-3.7 2.3l185.2.4-4.6-78.2zm-370 25.1c-1 2.2-2.9.4-3.7 2.6 4.2 14 5.8 29.5 7.1 44l158 .3c1.9-5 .8-9.7 4.3-14.4 5.1 4.5 7.8 9.5 10.6 14.5.8-10.1 3.9-19.8 7-29.5 1.8 3.4 3.2 7 4.3 10.6-1.4-5.6-2.4-8.3-5.1-13.4-3 9.4-6.7 16.2-7.5 26-2.7-4.9-5.4-9.7-10.4-14.1-3.4 4.6-6.2 9.1-8 14l-147.6 3.4c-3.4-14.6-7.1-30.3-9-44z"
       overflow="visible"
       color="#000"
       opacity=".527"
       fill="#c87137"
       fill-rule="evenodd"
       filter="url(#a)"
       enable-background="accumulate"
       id="path7" />
    <path
       d="M200.1 16.1c-2.3 10.67-10.5 21.38-15.6 31.44-6.6-10.06-13.9-19.69-17.7-30.12L17.34 19.05C24.61 113.6 7.605 179.3 16.85 277l18.26 20.1L10.34 309l7.1 141.6.96 43.3 90.2 3.4c3.4-15.2 15-35.6 21.3-49.6 4.3 13.6 15.4 36.7 16.6 50.9l45.1.8 13.8-18.7 14.4 22.2 68.7-8.6c1.8-4.7 4.5-9.1 7.8-13.5 4.8 4.2 7.4 8.9 10 13.6.8-9.5 7.7-19.6 10.6-28.7 4.5 8.6 19.9 28.9 33.1 33.9l114.6 5.6 22.3-14.7 19.4 14.7-14.5-67.6-34.6-14.2 37.5-15.1 2.1-96.9-14.5-21.9 15.2-13.4 5.1-239.63c-5.2-21.09-11.8-24.89-16.9-20.22l-4.2 2.11 2 19.14.7 44.47-7.1 124.23-18.3-137.78c8.8-15.88-3.9-35.38-.6-50.02-67.1 1.24-140.4-13.332-202.8-3.28-14 2.25-23.7 21.31-36.9 24.48-4.3 1.03-13.9-23.45-18.4-23.5z"
       overflow="visible"
       enable-background="accumulate"
       filter="url(#b)"
       fill-rule="evenodd"
       fill="#f6e7d0"
       color="#000"
       id="path8" />
    <path
       d="M354 27.39l-70.3 96.91 46.4 97.6-56.2 43.6 33 74.4-30.2 63.2 69.8 48.8 31.6 29.5 31.6-13.3L365.9 335l55.5-36.5 2.1-146.1-56.9-101.83zM116.6 55.48L89.9 123.6s33.7 65.3 35.8 68.8c2.1 3.6-7 118-7 118l42.8 73.8s9.9-82.9 7.1-83.6c-2.8-.7-29.5-42.1-29.5-42.1l23.8-84.3-36.5-37.2z"
       color="#000"
       overflow="visible"
       fill="#f2dbb9"
       fill-rule="evenodd"
       filter="url(#c)"
       enable-background="accumulate"
       id="path9" />
    <path
       d="M39.33 172.1l-5.62 108.1L74.45 328 42.84 464.9l96.96-39.3 30.2 42.9 74.4-38.7-80.8-169.9-60.4-16.9z"
       color="#000"
       overflow="visible"
       fill="#eed3a4"
       fill-rule="evenodd"
       enable-background="accumulate"
       filter="url(#d)"
       id="path10" />
    <path
       d="M266.9 66.72L324.5 191 434 221.2l21.8-111.6-41.4-68.86z"
       color="#000"
       overflow="visible"
       fill="#eed3a4"
       fill-rule="evenodd"
       enable-background="accumulate"
       filter="url(#e)"
       id="path11" />
  </svg>
  <g
     id="g1"
     transform="matrix(0.93948605,0,0,0.93948605,10.290452,17.19439)">
    <path
       style="fill:#683b87;fill-opacity:1;stroke:none;stroke-width:17;stroke-linecap:round;stroke-linejoin:round"
       d="m 104.83128,212.0451 c 189.58518,42.35657 238.40984,-12.49199 309.7288,0 l 3.17671,224.75192 -32.56124,34.14959 H 135.80416 l -29.38452,-30.97288 z"
       id="path16"
       sodipodi:nodetypes="ccccccc" />
    <path
       id="path12"
       d="M 332.73828,28 V 79.529297 H 183.33203 V 28 Z m -12.9375,70.21875 c 0.72599,2.645 1.74625,4.73975 3.15625,6.34375 3.254,3.7 10.18503,7.1875 26.875,7.1875 20.60996,0 39.37247,5.91927 53.43945,16.15625 14.06597,10.23798 23.5918,25.33554 23.5918,42.4375 V 421.75 c 0,32.33894 -26.25386,58.625 -58.5918,58.625 H 154.80273 c -32.33893,0 -58.593746,-26.28506 -58.593746,-58.625 V 170.34375 c 0,-17.10196 9.553276,-32.26802 23.906246,-42.5 14.35296,-10.23198 33.6163,-16.09375 55.15625,-16.09375 12.46698,0 16.81601,-2.84375 19.5,-6.59375 1.196,-1.673 2.09001,-4.03555 2.75,-6.935547 h 19.06055 c -0.892,6.264987 -2.72101,12.355567 -6.625,17.810547 -6.62999,9.26498 -18.72358,14.40625 -34.68555,14.40625 -18.09296,0 -33.70552,5.06397 -44.3125,12.62695 -10.60697,7.56 -16.0625,17.03432 -16.0625,27.2793 V 421.75 c 0,22.35496 17.5513,39.9375 39.90625,39.9375 h 213.46875 c 22.35596,0 39.90625,-17.58254 39.90625,-39.9375 V 170.34375 c 0,-10.24398 -5.52627,-19.78972 -15.90625,-27.3457 -10.38398,-7.556 -25.46149,-12.5625 -42.43945,-12.5625 -19.38295,0 -32.79627,-4.30827 -40.90625,-13.53125 -4.87999,-5.549 -7.17701,-12.02757 -8.25,-18.68555 z m -56.1836,45.40625 c 30.72194,0 50.26683,13.47254 63.4668,33.3125 12.20698,18.34296 18.16201,42.47754 19,64.9375 -25.37695,12.36298 -39.91831,27.97954 -44.4043,45.5625 -0.853,3.338 -1.3187,6.675 -1.4707,10 -10.01298,4.337 -23.15683,6.873 -36.0918,6.875 -14.59298,0.002 -28.80446,-3.30352 -37.81445,-8.4375 -0.139,-2.963 -0.57655,-5.9373 -1.31055,-8.9043 -4.28899,-17.33796 -18.81275,-32.17572 -43.8457,-44.9707 0.799,-23.74696 6.89253,-47.97254 19.1875,-66.0625 13.21998,-19.44796 32.73631,-32.3125 63.28125,-32.3125 z m 34.6543,77.52539 -24.18555,7.38672 c -0.86138,2.00297 -1.34765,4.20559 -1.34765,6.52539 0,9.15697 7.43575,16.59375 16.59375,16.59375 9.15697,0 16.5625,-7.43578 16.5625,-16.59375 0,-5.85504 -3.04564,-10.96743 -7.62305,-13.91211 z m -73.4707,0 c -4.57743,2.94468 -7.62305,8.05706 -7.62305,13.91211 0,9.15798 7.40552,16.59375 16.5625,16.59375 9.15799,0 16.59375,-7.43677 16.59375,-16.59375 0,-2.3198 -0.48628,-4.52242 -1.34766,-6.52539 z m 35.53515,30.94531 c -6.36753,13.24543 -10.38084,26.49862 -13.7207,39.74805 9.14799,-3.426 18.28952,-3.022 27.4375,0 -2.46985,-13.24619 -7.44234,-26.50085 -13.7168,-39.74805 z m -37.0332,63.4668 c 12.04297,5.37198 26.36747,7.59575 40.81445,7.59375 13.32597,-10e-4 26.80302,-1.959 38.75,-6.375 1.932,6.19998 4.79376,12.23602 8.34375,18 -9.34199,6.83698 -27.25072,12.19225 -46.2207,12.40625 -19.29495,0.216 -38.94501,-4.60377 -50.875,-12.59375 3.90299,-6.25198 7.05151,-12.6093 9.1875,-19.0293 z m 145.93555,17.0625 c 8.89998,11.26698 12.6932,22.49252 10.0332,36.3125 -7.26699,0.585 -14.84108,1.4115 -22.62305,2.4375 -18.46697,-2.648 -38.42274,-6.2535 -58.7207,-10.6875 25.98537,-8.15549 50.5214,-17.56729 71.31055,-28.0625 z m -216.5918,0 c 62.49088,31.54594 158.85709,53.41427 226.62695,60.28125 2.54799,14.10998 -0.8107,25.61527 -9.9707,36.78125 -62.49186,-28.82994 -157.76069,-55.21002 -226.68555,-60.75 -2.6639,-13.81946 1.13004,-25.04495 10.0293,-36.3125 z m 12.8457,57.53125 c 18.95796,2.664 39.47185,6.61925 60.3418,11.53125 -26.67494,8.55098 -51.87504,18.13807 -73.25,27.99805 -9.15798,-11.16498 -12.5168,-22.66932 -9.9668,-36.7793 7.31498,-0.74 14.97102,-1.666 22.875,-2.75 z"
       style="fill:#3e3126;fill-opacity:1" />
    <path
       id="path17"
       style="fill:#884db2;fill-opacity:1;stroke:none;stroke-width:17;stroke-linecap:round;stroke-linejoin:round;stroke-opacity:1;paint-order:stroke fill markers"
       d="m 140.40039,243.68164 a 4.5226636,4.5226636 0 0 0 -4.52344,4.52344 4.5226636,4.5226636 0 0 0 4.52344,4.52148 4.5226636,4.5226636 0 0 0 4.52344,-4.52148 4.5226636,4.5226636 0 0 0 -4.52344,-4.52344 z m 18.26953,26.25391 a 19.093065,19.093065 0 0 0 -19.09375,19.09375 19.093065,19.093065 0 0 0 19.09375,19.09375 19.093065,19.093065 0 0 0 19.09375,-19.09375 19.093065,19.093065 0 0 0 -19.09375,-19.09375 z m 205.41602,21.72656 a 8.55896,8.55896 0 0 0 -8.56055,8.56055 8.55896,8.55896 0 0 0 8.56055,8.55859 8.55896,8.55896 0 0 0 8.55859,-8.55859 8.55896,8.55896 0 0 0 -8.55859,-8.56055 z M 269.8457,413.76758 a 4.5226636,4.5226636 0 0 0 -4.52343,4.52344 4.5226636,4.5226636 0 0 0 4.52343,4.52343 4.5226636,4.5226636 0 0 0 4.52149,-4.52343 4.5226636,4.5226636 0 0 0 -4.52149,-4.52344 z m -34.96093,15.27539 a 9.2173424,9.2173424 0 0 0 -9.21875,9.2168 9.2173424,9.2173424 0 0 0 9.21875,9.21875 9.2173424,9.2173424 0 0 0 9.21679,-9.21875 9.2173424,9.2173424 0 0 0 -9.21679,-9.2168 z" />
  </g>
</svg>
