<?xml version="1.0" encoding="UTF-8" standalone="no"?>
<svg
   viewBox="0 0 512 512"
   style="height: 512px; width: 512px;"
   version="1.1"
   id="svg12"
   sodipodi:docname="archive-research copy 2.svg"
   inkscape:version="1.4 (e7c3feb1, 2024-10-09)"
   inkscape:export-filename="archive-research.png"
   inkscape:export-xdpi="48"
   inkscape:export-ydpi="48"
   xml:space="preserve"
   xmlns:inkscape="http://www.inkscape.org/namespaces/inkscape"
   xmlns:sodipodi="http://sodipodi.sourceforge.net/DTD/sodipodi-0.dtd"
   xmlns="http://www.w3.org/2000/svg"
   xmlns:svg="http://www.w3.org/2000/svg"><sodipodi:namedview
     id="namedview12"
     pagecolor="#505050"
     bordercolor="#ffffff"
     borderopacity="1"
     inkscape:showpageshadow="0"
     inkscape:pageopacity="0"
     inkscape:pagecheckerboard="1"
     inkscape:deskcolor="#d1d1d1"
     inkscape:zoom="0.24381028"
     inkscape:cx="207.12826"
     inkscape:cy="270.70229"
     inkscape:window-width="1728"
     inkscape:window-height="1051"
     inkscape:window-x="0"
     inkscape:window-y="38"
     inkscape:window-maximized="1"
     inkscape:current-layer="svg12" /><defs
     id="defs2"><radialGradient
       id="delapouite-archive-research-gradient-0"><stop
         offset="0%"
         stop-color="#830000"
         stop-opacity="1"
         id="stop1" /><stop
         offset="100%"
         stop-color="#000"
         stop-opacity="1"
         id="stop2" /></radialGradient></defs><path
     d="M0 0h512v512H0z"
     fill="url(#pattern)"
     id="path2" /><svg
     version="1.1"
     id="svg11"><defs
       id="defs6"><filter
         id="b"
         x="-0.023338979"
         width="1.046678"
         y="-0.023448784"
         height="1.0468976"
         color-interpolation-filters="sRGB"><feGaussianBlur
           stdDeviation="4.823"
           id="feGaussianBlur2" /></filter><filter
         id="a"
         x="-0.012011281"
         width="1.0240226"
         y="-0.011988317"
         height="1.0239766"
         color-interpolation-filters="sRGB"><feGaussianBlur
           stdDeviation="2.55"
           id="feGaussianBlur3" /></filter><filter
         id="c"
         x="-0.11244604"
         width="1.2248921"
         y="-0.082623731"
         height="1.1652475"
         color-interpolation-filters="sRGB"><feGaussianBlur
           stdDeviation="15.63"
           id="feGaussianBlur4" /></filter><filter
         id="e"
         x="-0.23758603"
         width="1.4751721"
         y="-0.24869778"
         height="1.4973956"
         color-interpolation-filters="sRGB"><feGaussianBlur
           stdDeviation="18.7"
           id="feGaussianBlur5" /></filter><filter
         id="d"
         x="-0.21301439"
         width="1.4260288"
         y="-0.15141701"
         height="1.302834"
         color-interpolation-filters="sRGB"><feGaussianBlur
           stdDeviation="18.7"
           id="feGaussianBlur6" /></filter></defs><path
       d="M196.6 1.207c-2.5 11.323-4.8 22.703-10.2 33.383-7-10.68-12.6-20.91-16.7-31.988L2.494 4.338C13 104.9 10.86 175.3 1.979 278.3L15.4 295.5l-9.494 6.3L2.6 462.7l1.019 45.9 112.681 3.1c3.6-16.1 6.5-32.5 13.2-47.3 4.5 14.4 5.7 29.4 7 44.4l160 .3c.8-6.1.7-8.1 2.3-14.4 5.1 4.5 7.8 9.5 10.6 14.5.8-10.1 3.9-19.8 7-29.5 4.8 9.2 6.7 19.4 8.8 29.5l185.2.4-4.6-78.2-21.4-8.2 21.3-4.9 5.8-395.47c-7-6.73-13.3-13.744-18-21.465l-15.1.114-2.1 20.321-1.4 47.23.8 84.87-8.6-97.14c9.3-16.86 2.2-39.69 5.7-55.239-92.1 1.696-184.1.685-276.2-.314z"
       overflow="visible"
       color="#000"
       fill="#ebc893"
       fill-rule="evenodd"
       stroke="#e0aa58"
       enable-background="accumulate"
       id="path6" /><path
       d="M196.6 1.203c-2.5 11.327-4.8 22.707-10.2 33.387-7-10.68-12.6-20.91-16.7-31.99L2.494 4.336C13 104.9 10.86 175.3 1.979 278.3L15.4 295.5l-9.494 6.3L2.6 462.7l1.019 45.9 112.681 3.1c.5-2.1-7.9-2.3-7.4-4.5L5.244 504.5l-.914-47.3 4.63-153.7 12.42-9-13.093-16.8C16.95 177.3 16.36 104 6.113 5.992l162.687.164c4 10.804 10.3 24.254 17.1 34.664 5.3-10.41 9.5-25.97 12-37.02 89.8.974 173.8 3.521 263.6 1.867 4.6 1.226 10.6.431 11.3-4.149-92.1 1.696-184.1.684-276.2-.315zm296.9.158l-15.1.116-.6 6.277 13.5-2.557c4.6 7.533 9.7 12.383 16.6 18.943l-4.6 389.06-19.9 9.9 4.1-.6 18.2-4.2 5.8-395.47c-7-6.73-13.3-13.748-18-21.469zm9.6 435.739l3.5 69.7-177.7.1c.4 2.1-4.1.2-3.7 2.3l185.2.4-4.6-78.2zm-370 25.1c-1 2.2-2.9.4-3.7 2.6 4.2 14 5.8 29.5 7.1 44l158 .3c1.9-5 .8-9.7 4.3-14.4 5.1 4.5 7.8 9.5 10.6 14.5.8-10.1 3.9-19.8 7-29.5 1.8 3.4 3.2 7 4.3 10.6-1.4-5.6-2.4-8.3-5.1-13.4-3 9.4-6.7 16.2-7.5 26-2.7-4.9-5.4-9.7-10.4-14.1-3.4 4.6-6.2 9.1-8 14l-147.6 3.4c-3.4-14.6-7.1-30.3-9-44z"
       overflow="visible"
       color="#000"
       opacity=".527"
       fill="#c87137"
       fill-rule="evenodd"
       filter="url(#a)"
       enable-background="accumulate"
       id="path7" /><path
       fill="#f6e7d0"
       d="M200.1 16.1c-2.3 10.67-10.5 21.38-15.6 31.44-6.6-10.06-13.9-19.69-17.7-30.12L17.34 19.05C24.61 113.6 7.605 179.3 16.85 277l18.26 20.1L10.34 309l7.1 141.6.96 43.3 90.2 3.4c3.4-15.2 15-35.6 21.3-49.6 4.3 13.6 15.4 36.7 16.6 50.9l45.1.8 13.8-18.7 14.4 22.2 68.7-8.6c1.8-4.7 4.5-9.1 7.8-13.5 4.8 4.2 7.4 8.9 10 13.6.8-9.5 7.7-19.6 10.6-28.7 4.5 8.6 19.9 28.9 33.1 33.9l114.6 5.6 22.3-14.7 19.4 14.7-14.5-67.6-34.6-14.2 37.5-15.1 2.1-96.9-14.5-21.9 15.2-13.4 5.1-239.63c-5.2-21.09-11.8-24.89-16.9-20.22l-4.2 2.11 2 19.14.7 44.47-7.1 124.23-18.3-137.78c8.8-15.88-3.9-35.38-.6-50.02-67.1 1.24-140.4-13.332-202.8-3.28-14 2.25-23.7 21.31-36.9 24.48-4.3 1.03-13.9-23.45-18.4-23.5z"
       color="#000"
       overflow="visible"
       enable-background="accumulate"
       filter="url(#b)"
       fill-rule="evenodd"
       id="path8" /><path
       d="M354 27.39l-70.3 96.91 46.4 97.6-56.2 43.6 33 74.4-30.2 63.2 69.8 48.8 31.6 29.5 31.6-13.3L365.9 335l55.5-36.5 2.1-146.1-56.9-101.83zM116.6 55.48L89.9 123.6s33.7 65.3 35.8 68.8c2.1 3.6-7 118-7 118l42.8 73.8s9.9-82.9 7.1-83.6c-2.8-.7-29.5-42.1-29.5-42.1l23.8-84.3-36.5-37.2z"
       color="#000"
       overflow="visible"
       fill="#f2dbb9"
       fill-rule="evenodd"
       filter="url(#c)"
       enable-background="accumulate"
       id="path9" /><path
       d="M39.33 172.1l-5.62 108.1L74.45 328 42.84 464.9l96.96-39.3 30.2 42.9 74.4-38.7-80.8-169.9-60.4-16.9z"
       overflow="visible"
       fill="#eed3a4"
       fill-rule="evenodd"
       color="#000"
       enable-background="accumulate"
       filter="url(#d)"
       id="path10" /><path
       d="M266.9 66.72L324.5 191 434 221.2l21.8-111.6-41.4-68.86z"
       color="#000"
       overflow="visible"
       fill="#eed3a4"
       fill-rule="evenodd"
       enable-background="accumulate"
       filter="url(#e)"
       id="path11" /></svg><path
     d="m 324.92263,438.44677 c -1.81046,-2.9292 -0.49269,-8.6968 2.92728,-12.819 4.75128,-5.7244 7.88028,-6.1151 13.25899,-1.6503 5.32451,4.4187 5.62902,7.5425 1.25001,12.819 -6.91911,8.3381 -12.95021,8.9088 -17.4357,1.6503 z m -94.13169,-53.4841 c 34.41298,-35.065 58.40346,-50.1275 73.71663,-46.2845 10.42968,2.6183 17.36079,-0.8611 36.04437,-18.0812 l 23.13171,-21.321 -12.93318,-13.4998 c -7.11309,-7.4244 -12.93299,-17.8404 -12.93299,-23.1455 0,-11.9037 -24.48548,-38.2703 -35.53794,-38.2703 -4.46341,0 -13.21872,-3.575 -19.4562,-7.9441 -11.09949,-7.7737 -11.34071,-7.5472 -11.34071,10.7092 0,19.2434 -13.22976,53.3645 -20.69092,53.3645 -8.91134,0 -10.18246,-10.6645 -2.56681,-21.5381 10.40334,-14.852 10.23511,-54.5715 -0.29484,-69.6054 -6.08473,-8.6873 -6.74758,-13.2686 -2.53022,-17.4846 4.21736,-4.2178 11.4406,-0.1588 27.57266,15.7369 16.34792,16.0448 25.91457,21.4537 37.94794,21.4537 8.84921,0 17.65601,-2.5355 19.57081,-5.6337 1.97152,-3.1907 -13.88913,-23.1056 -36.57364,-45.9242 -42.24816,-42.4974 -48.31508,-45.0647 -87.80594,-37.1667 -19.33346,3.8668 -21.55065,9.1195 -26.6775,63.2111 l -4.11108,43.3728 -36.17499,33.1676 c -19.89615,18.242 -36.14774,36.1094 -36.1144,39.7051 0.14345,15.0004 16.18921,11.4652 38.9601,-8.5772 26.28686,-23.139 44.41213,-26.668 53.14615,-10.3489 6.65989,12.4442 5.40484,14.5363 -37.7614,62.9288 -18.85568,21.1379 -28.81565,36.3822 -26.94934,41.2457 4.29567,11.194 9.75824,9.6137 26.24295,-7.5918 16.45736,-17.1786 28.49344,-19.2547 40.72389,-7.0242 5.72136,5.7214 7.2877,12.8284 5.06161,22.9621 -4.46787,20.3421 1.99127,18.4238 28.33328,-8.4163 z m 172.78604,-126.8496 c 22.77511,-23.2061 25.43484,-35.9054 9.60768,-45.8732 -7.31887,-4.6082 -13.20401,-1.2436 -34.44299,19.6725 -26.82986,26.4272 -29.56432,32.383 -19.49298,42.4543 10.74755,10.7476 21.81065,6.6911 44.32829,-16.2536 z m -25.75099,-49.5231 c 26.28704,-24.8643 26.93653,-26.1258 18.34422,-35.6198 -4.89918,-5.4138 -12.74385,-9.842 -17.4326,-9.842 -11.95303,0 -31.63438,22.2813 -28.01425,31.715 3.10113,8.0812 -9.60807,24.4146 -18.99797,24.4146 -3.30904,0 -2.93018,2.9309 0.98866,7.654 9.82393,11.8366 15.78632,9.4144 45.11136,-18.3218 z m -23.70396,-48.9683 c 16.95367,-16.2424 18.05326,-27.2451 3.99396,-39.9682 -10.08198,-9.1243 -10.72199,-8.9458 -28.06458,7.8644 -20.12873,19.5098 -21.12572,23.4198 -9.30239,36.4842 11.30025,12.4856 16.47724,11.8063 33.37301,-4.3804 z m -39.1662,-37.4202 14.76629,-15.4133 -12.75663,-12.756596 -12.75663,-12.7568 -14.26934,14.895 c -13.89145,14.498196 -14.03896,15.244296 -5.57094,28.168596 4.78419,7.3016 10.30113,13.2764 12.25968,13.2764 1.95855,0 10.20607,-6.9364 18.32757,-15.4133 z m 44.35829,284.6119 c -8.47421,-10.2101 72.274,-90.7241 81.61783,-81.3799 4.99753,4.9975 -2.18447,14.7835 -34.74828,47.3465 -33.29094,33.2919 -42.14808,39.7228 -46.86955,34.0334 z M 70.283861,158.60767 c -3.92204,-6.3465 10.7579,-17.5023 17.52645,-13.3198 3.98233,2.4606 3.86767,5.5015 -0.40185,10.644 -6.84157,8.244 -13.0812,9.2184 -17.12509,2.6758 z m 35.324139,-31.254 c -5.33343,-8.63 51.58463,-65.244096 58.57052,-58.258196 3.47094,3.4712 -4.62893,14.836 -24.79888,34.795496 -20.38331,20.1698 -31.17325,27.666 -33.77164,23.4627 z"
     style="fill:#3e3126;fill-opacity:1;stroke-width:15.9459"
     id="path45"
     sodipodi:nodetypes="ssssssssscssssssssscssssscssssssssssssssssssssssssssssscccsssssssssssssssss" /></svg>
