<?xml version="1.0" encoding="UTF-8" standalone="no"?>
<svg
   viewBox="0 0 512 512"
   style="height: 512px; width: 512px;"
   version="1.1"
   id="svg12"
   sodipodi:docname="roots.svg"
   inkscape:version="1.4 (e7c3feb1, 2024-10-09)"
   inkscape:export-filename="archive-research.webp"
   inkscape:export-xdpi="48"
   inkscape:export-ydpi="48"
   xml:space="preserve"
   xmlns:inkscape="http://www.inkscape.org/namespaces/inkscape"
   xmlns:sodipodi="http://sodipodi.sourceforge.net/DTD/sodipodi-0.dtd"
   xmlns="http://www.w3.org/2000/svg"
   xmlns:svg="http://www.w3.org/2000/svg"><sodipodi:namedview
     id="namedview12"
     pagecolor="#505050"
     bordercolor="#ffffff"
     borderopacity="1"
     inkscape:showpageshadow="0"
     inkscape:pageopacity="0"
     inkscape:pagecheckerboard="1"
     inkscape:deskcolor="#d1d1d1"
     inkscape:zoom="0.74429604"
     inkscape:cx="337.90318"
     inkscape:cy="268.71028"
     inkscape:window-width="1728"
     inkscape:window-height="1051"
     inkscape:window-x="0"
     inkscape:window-y="38"
     inkscape:window-maximized="1"
     inkscape:current-layer="svg12" /><defs
     id="defs2"><radialGradient
       id="delapouite-archive-research-gradient-0"><stop
         offset="0%"
         stop-color="#830000"
         stop-opacity="1"
         id="stop1" /><stop
         offset="100%"
         stop-color="#000"
         stop-opacity="1"
         id="stop2" /></radialGradient></defs><path
     d="M0 0h512v512H0z"
     fill="url(#pattern)"
     id="path2" /><svg
     version="1.1"
     id="svg11"><defs
       id="defs6"><filter
         id="b"
         x="-0.023338979"
         width="1.046678"
         y="-0.023448784"
         height="1.0468976"
         color-interpolation-filters="sRGB"><feGaussianBlur
           stdDeviation="4.823"
           id="feGaussianBlur2" /></filter><filter
         id="a"
         x="-0.012011281"
         width="1.0240226"
         y="-0.011988317"
         height="1.0239766"
         color-interpolation-filters="sRGB"><feGaussianBlur
           stdDeviation="2.55"
           id="feGaussianBlur3" /></filter><filter
         id="c"
         x="-0.11244604"
         width="1.2248921"
         y="-0.082623731"
         height="1.1652475"
         color-interpolation-filters="sRGB"><feGaussianBlur
           stdDeviation="15.63"
           id="feGaussianBlur4" /></filter><filter
         id="e"
         x="-0.23758603"
         width="1.4751721"
         y="-0.24869778"
         height="1.4973956"
         color-interpolation-filters="sRGB"><feGaussianBlur
           stdDeviation="18.7"
           id="feGaussianBlur5" /></filter><filter
         id="d"
         x="-0.21301439"
         width="1.4260288"
         y="-0.15141701"
         height="1.302834"
         color-interpolation-filters="sRGB"><feGaussianBlur
           stdDeviation="18.7"
           id="feGaussianBlur6" /></filter></defs><path
       d="M196.6 1.207c-2.5 11.323-4.8 22.703-10.2 33.383-7-10.68-12.6-20.91-16.7-31.988L2.494 4.338C13 104.9 10.86 175.3 1.979 278.3L15.4 295.5l-9.494 6.3L2.6 462.7l1.019 45.9 112.681 3.1c3.6-16.1 6.5-32.5 13.2-47.3 4.5 14.4 5.7 29.4 7 44.4l160 .3c.8-6.1.7-8.1 2.3-14.4 5.1 4.5 7.8 9.5 10.6 14.5.8-10.1 3.9-19.8 7-29.5 4.8 9.2 6.7 19.4 8.8 29.5l185.2.4-4.6-78.2-21.4-8.2 21.3-4.9 5.8-395.47c-7-6.73-13.3-13.744-18-21.465l-15.1.114-2.1 20.321-1.4 47.23.8 84.87-8.6-97.14c9.3-16.86 2.2-39.69 5.7-55.239-92.1 1.696-184.1.685-276.2-.314z"
       overflow="visible"
       color="#000"
       fill="#ebc893"
       fill-rule="evenodd"
       stroke="#e0aa58"
       enable-background="accumulate"
       id="path6" /><path
       d="M196.6 1.203c-2.5 11.327-4.8 22.707-10.2 33.387-7-10.68-12.6-20.91-16.7-31.99L2.494 4.336C13 104.9 10.86 175.3 1.979 278.3L15.4 295.5l-9.494 6.3L2.6 462.7l1.019 45.9 112.681 3.1c.5-2.1-7.9-2.3-7.4-4.5L5.244 504.5l-.914-47.3 4.63-153.7 12.42-9-13.093-16.8C16.95 177.3 16.36 104 6.113 5.992l162.687.164c4 10.804 10.3 24.254 17.1 34.664 5.3-10.41 9.5-25.97 12-37.02 89.8.974 173.8 3.521 263.6 1.867 4.6 1.226 10.6.431 11.3-4.149-92.1 1.696-184.1.684-276.2-.315zm296.9.158l-15.1.116-.6 6.277 13.5-2.557c4.6 7.533 9.7 12.383 16.6 18.943l-4.6 389.06-19.9 9.9 4.1-.6 18.2-4.2 5.8-395.47c-7-6.73-13.3-13.748-18-21.469zm9.6 435.739l3.5 69.7-177.7.1c.4 2.1-4.1.2-3.7 2.3l185.2.4-4.6-78.2zm-370 25.1c-1 2.2-2.9.4-3.7 2.6 4.2 14 5.8 29.5 7.1 44l158 .3c1.9-5 .8-9.7 4.3-14.4 5.1 4.5 7.8 9.5 10.6 14.5.8-10.1 3.9-19.8 7-29.5 1.8 3.4 3.2 7 4.3 10.6-1.4-5.6-2.4-8.3-5.1-13.4-3 9.4-6.7 16.2-7.5 26-2.7-4.9-5.4-9.7-10.4-14.1-3.4 4.6-6.2 9.1-8 14l-147.6 3.4c-3.4-14.6-7.1-30.3-9-44z"
       overflow="visible"
       color="#000"
       opacity=".527"
       fill="#c87137"
       fill-rule="evenodd"
       filter="url(#a)"
       enable-background="accumulate"
       id="path7" /><path
       fill="#f6e7d0"
       d="M200.1 16.1c-2.3 10.67-10.5 21.38-15.6 31.44-6.6-10.06-13.9-19.69-17.7-30.12L17.34 19.05C24.61 113.6 7.605 179.3 16.85 277l18.26 20.1L10.34 309l7.1 141.6.96 43.3 90.2 3.4c3.4-15.2 15-35.6 21.3-49.6 4.3 13.6 15.4 36.7 16.6 50.9l45.1.8 13.8-18.7 14.4 22.2 68.7-8.6c1.8-4.7 4.5-9.1 7.8-13.5 4.8 4.2 7.4 8.9 10 13.6.8-9.5 7.7-19.6 10.6-28.7 4.5 8.6 19.9 28.9 33.1 33.9l114.6 5.6 22.3-14.7 19.4 14.7-14.5-67.6-34.6-14.2 37.5-15.1 2.1-96.9-14.5-21.9 15.2-13.4 5.1-239.63c-5.2-21.09-11.8-24.89-16.9-20.22l-4.2 2.11 2 19.14.7 44.47-7.1 124.23-18.3-137.78c8.8-15.88-3.9-35.38-.6-50.02-67.1 1.24-140.4-13.332-202.8-3.28-14 2.25-23.7 21.31-36.9 24.48-4.3 1.03-13.9-23.45-18.4-23.5z"
       color="#000"
       overflow="visible"
       enable-background="accumulate"
       filter="url(#b)"
       fill-rule="evenodd"
       id="path8" /><path
       d="M354 27.39l-70.3 96.91 46.4 97.6-56.2 43.6 33 74.4-30.2 63.2 69.8 48.8 31.6 29.5 31.6-13.3L365.9 335l55.5-36.5 2.1-146.1-56.9-101.83zM116.6 55.48L89.9 123.6s33.7 65.3 35.8 68.8c2.1 3.6-7 118-7 118l42.8 73.8s9.9-82.9 7.1-83.6c-2.8-.7-29.5-42.1-29.5-42.1l23.8-84.3-36.5-37.2z"
       color="#000"
       overflow="visible"
       fill="#f2dbb9"
       fill-rule="evenodd"
       filter="url(#c)"
       enable-background="accumulate"
       id="path9" /><path
       d="M39.33 172.1l-5.62 108.1L74.45 328 42.84 464.9l96.96-39.3 30.2 42.9 74.4-38.7-80.8-169.9-60.4-16.9z"
       overflow="visible"
       fill="#eed3a4"
       fill-rule="evenodd"
       color="#000"
       enable-background="accumulate"
       filter="url(#d)"
       id="path10" /><path
       d="M266.9 66.72L324.5 191 434 221.2l21.8-111.6-41.4-68.86z"
       color="#000"
       overflow="visible"
       fill="#eed3a4"
       fill-rule="evenodd"
       enable-background="accumulate"
       filter="url(#e)"
       id="path11" /></svg><path
     fill="#000000"
     d="m 191.44463,68.995516 c -32.89548,1.22391 -56.8367,9.98077 -68.75598,26.50748 -11.84111,16.418524 -15.06038,33.183694 -11.45894,47.872164 l -22.81995,29.92099 34.86163,-7.75168 c 7.15394,7.81722 16.93888,14.08678 28.81631,18.06646 l 0.002,0.003 c 5.36466,1.79796 11.46841,2.14777 17.96144,1.30445 l 21.47365,27.81272 1.50028,-34.89796 c 9.43356,-4.40606 18.86397,-10.50981 27.41396,-17.71271 20.92487,-17.62664 39.15241,-17.66217 56.32897,0.8291 6.32326,6.80493 10.39137,17.60453 11.05622,31.092 l -32.61121,4.3887 30.55347,19.43723 c -2.27094,10.9141 -6.42354,22.75679 -12.81865,35.12062 -5.54312,7.6893 -13.88781,9.17299 -22.9463,11.26785 v -0.008 c -21.08043,4.32237 -35.32198,13.96203 -44.79897,27.08389 l -31.81766,-7.07655 21.32285,27.95879 c -4.39423,12.99711 -6.313,27.70374 -6.8381,43.15735 -0.61274,18.1012 -6.61384,30.73351 -16.87729,38.82394 l -18.69262,-24.21285 -1.43948,33.4719 c -2.97686,0.70513 -6.10217,1.2476 -9.37829,1.62188 -25.78892,2.93738 -41.9982,-10.65195 -45.70782,-34.36575 l 33.35353,-13.93061 -32.80547,-10.32031 c 6.56725,-28.9316 35.62993,-34.92163 66.69903,-11.79689 -8.06201,-23.72485 -29.84204,-36.80408 -50.72506,-34.04042 l -27.39579,-24.24127 5.0038,34.03806 C 76.54228,319.19263 67.53195,337.99501 68.58293,362.4858 l 0.002,-10e-4 c 0.84489,19.66939 7.09629,35.07878 17.3479,46.14685 l -4.42421,34.37437 22.82627,-20.94303 c 11.08624,5.29833 24.25548,7.82116 38.8042,7.52111 22.74494,-0.46903 39.78884,-8.90452 51.52888,-22.51359 l 34.87427,7.75563 -22.1938,-29.09742 c 3.87387,-9.75652 6.20166,-20.69273 7.03155,-32.35696 2.36333,-33.24766 8.67001,-52.9044 39.21717,-64.10907 17.68744,-3.77438 24.84138,8.78292 34.74318,19.83362 9.28828,11.18888 19.48935,21.08437 30.28975,28.88106 l -4.70297,36.54193 26.41272,-24.23653 c 22.64308,9.34671 46.84013,8.41417 70.17651,-9.08692 l 32.98389,13.54747 -17.05574,-32.70834 c 12.08431,-25.22039 5.87238,-62.09792 -18.69816,-91.65252 l 14.34578,-27.51818 -28.63547,11.76372 c -20.40052,-24.45131 -26.65114,-50.81981 -24.97951,-77.69209 l 28.82579,-1.23969 -25.96659,-20.04525 c 3.02187,-15.11565 7.99094,-30.271584 13.84595,-45.224574 -29.02003,26.40877 -42.56198,69.215544 -35.53912,109.450524 l -21.35364,16.48485 25.8284,1.10941 c 5.47206,16.18164 14.60004,31.44101 27.74876,44.42943 8.66368,8.55946 14.5566,17.28474 18.17463,25.69417 l -30.73982,19.55647 35.15379,4.73218 c -0.8291,10.41269 -5.3773,19.16166 -12.29436,24.80189 -28.53679,23.26451 -56.58796,3.17426 -78.82518,-19.66148 l -0.003,-0.003 c -8.92504,-11.3705 -23.09158,-18.81107 -15.54284,-35.97026 0.39481,-0.78961 0.77383,-1.57923 1.15285,-2.36727 0.24873,-0.46824 0.49746,-0.93728 0.77698,-1.42131 0.5551,-0.95939 0.94202,-1.89272 1.19074,-2.79683 17.858,-39.66882 17.04628,-76.68453 2.05065,-101.64593 l 16.26376,-31.19149 -31.63684,12.99711 c -14.37104,-12.4736 -30.2013,-15.74498 -46.36478,-12.56045 l -22.87523,-26.747524 0.25267,35.086674 c -5.21937,2.76998 -10.41664,6.07533 -15.55863,9.83232 -18.19516,13.29717 -31.45048,19.76414 -41.4194,15.74025 -22.4749,-9.07508 -27.77087,-24.10704 -23.45718,-39.22506 l 33.10236,7.36161 -21.44287,-28.115144 c 10.71512,-12.76022 26.53117,-23.27478 41.62077,-27.00256 z"
     id="path1-7"
     style="fill:#3e3126;fill-opacity:1;stroke-width:0.789618" /></svg>
