<?xml version="1.0" encoding="UTF-8" standalone="no"?>
<svg
   viewBox="0 0 512 512"
   style="height: 512px; width: 512px;"
   version="1.1"
   id="svg12"
   sodipodi:docname="scroll-unfurled.svg"
   inkscape:version="1.3.2 (091e20e, 2023-11-25)"
   xmlns:inkscape="http://www.inkscape.org/namespaces/inkscape"
   xmlns:sodipodi="http://sodipodi.sourceforge.net/DTD/sodipodi-0.dtd"
   xmlns="http://www.w3.org/2000/svg"
   xmlns:svg="http://www.w3.org/2000/svg">
  <sodipodi:namedview
     id="namedview12"
     pagecolor="#505050"
     bordercolor="#ffffff"
     borderopacity="1"
     inkscape:showpageshadow="0"
     inkscape:pageopacity="0"
     inkscape:pagecheckerboard="1"
     inkscape:deskcolor="#d1d1d1"
     inkscape:zoom="0.3471736"
     inkscape:cx="216.03025"
     inkscape:cy="262.11671"
     inkscape:window-width="1248"
     inkscape:window-height="406"
     inkscape:window-x="0"
     inkscape:window-y="38"
     inkscape:window-maximized="0"
     inkscape:current-layer="svg12" />
  <defs
     id="defs2">
    <radialGradient
       id="lorc-scroll-unfurled-gradient-0">
      <stop
         offset="0%"
         stop-color="#830000"
         stop-opacity="1"
         id="stop1" />
      <stop
         offset="100%"
         stop-color="#000"
         stop-opacity="1"
         id="stop2" />
    </radialGradient>
  </defs>
  <path
     d="M0 0h512v512H0z"
     fill="url(#pattern)"
     id="path2" />
  <svg
     version="1.1"
     id="svg11">
    <defs
       id="defs6">
      <filter
         id="b"
         x="-0.023338979"
         width="1.046678"
         y="-0.023448784"
         height="1.0468976"
         color-interpolation-filters="sRGB">
        <feGaussianBlur
           stdDeviation="4.823"
           id="feGaussianBlur2" />
      </filter>
      <filter
         id="a"
         x="-0.012011281"
         width="1.0240226"
         y="-0.011988317"
         height="1.0239766"
         color-interpolation-filters="sRGB">
        <feGaussianBlur
           stdDeviation="2.55"
           id="feGaussianBlur3" />
      </filter>
      <filter
         id="c"
         x="-0.11244604"
         width="1.2248921"
         y="-0.082623731"
         height="1.1652475"
         color-interpolation-filters="sRGB">
        <feGaussianBlur
           stdDeviation="15.63"
           id="feGaussianBlur4" />
      </filter>
      <filter
         id="e"
         x="-0.23758603"
         width="1.4751721"
         y="-0.24869778"
         height="1.4973956"
         color-interpolation-filters="sRGB">
        <feGaussianBlur
           stdDeviation="18.7"
           id="feGaussianBlur5" />
      </filter>
      <filter
         id="d"
         x="-0.21301439"
         width="1.4260288"
         y="-0.15141701"
         height="1.302834"
         color-interpolation-filters="sRGB">
        <feGaussianBlur
           stdDeviation="18.7"
           id="feGaussianBlur6" />
      </filter>
    </defs>
    <path
       d="M196.6 1.207c-2.5 11.323-4.8 22.703-10.2 33.383-7-10.68-12.6-20.91-16.7-31.988L2.494 4.338C13 104.9 10.86 175.3 1.979 278.3L15.4 295.5l-9.494 6.3L2.6 462.7l1.019 45.9 112.681 3.1c3.6-16.1 6.5-32.5 13.2-47.3 4.5 14.4 5.7 29.4 7 44.4l160 .3c.8-6.1.7-8.1 2.3-14.4 5.1 4.5 7.8 9.5 10.6 14.5.8-10.1 3.9-19.8 7-29.5 4.8 9.2 6.7 19.4 8.8 29.5l185.2.4-4.6-78.2-21.4-8.2 21.3-4.9 5.8-395.47c-7-6.73-13.3-13.744-18-21.465l-15.1.114-2.1 20.321-1.4 47.23.8 84.87-8.6-97.14c9.3-16.86 2.2-39.69 5.7-55.239-92.1 1.696-184.1.685-276.2-.314z"
       overflow="visible"
       color="#000"
       fill="#ebc893"
       fill-rule="evenodd"
       stroke="#e0aa58"
       enable-background="accumulate"
       id="path6" />
    <path
       d="M196.6 1.203c-2.5 11.327-4.8 22.707-10.2 33.387-7-10.68-12.6-20.91-16.7-31.99L2.494 4.336C13 104.9 10.86 175.3 1.979 278.3L15.4 295.5l-9.494 6.3L2.6 462.7l1.019 45.9 112.681 3.1c.5-2.1-7.9-2.3-7.4-4.5L5.244 504.5l-.914-47.3 4.63-153.7 12.42-9-13.093-16.8C16.95 177.3 16.36 104 6.113 5.992l162.687.164c4 10.804 10.3 24.254 17.1 34.664 5.3-10.41 9.5-25.97 12-37.02 89.8.974 173.8 3.521 263.6 1.867 4.6 1.226 10.6.431 11.3-4.149-92.1 1.696-184.1.684-276.2-.315zm296.9.158l-15.1.116-.6 6.277 13.5-2.557c4.6 7.533 9.7 12.383 16.6 18.943l-4.6 389.06-19.9 9.9 4.1-.6 18.2-4.2 5.8-395.47c-7-6.73-13.3-13.748-18-21.469zm9.6 435.739l3.5 69.7-177.7.1c.4 2.1-4.1.2-3.7 2.3l185.2.4-4.6-78.2zm-370 25.1c-1 2.2-2.9.4-3.7 2.6 4.2 14 5.8 29.5 7.1 44l158 .3c1.9-5 .8-9.7 4.3-14.4 5.1 4.5 7.8 9.5 10.6 14.5.8-10.1 3.9-19.8 7-29.5 1.8 3.4 3.2 7 4.3 10.6-1.4-5.6-2.4-8.3-5.1-13.4-3 9.4-6.7 16.2-7.5 26-2.7-4.9-5.4-9.7-10.4-14.1-3.4 4.6-6.2 9.1-8 14l-147.6 3.4c-3.4-14.6-7.1-30.3-9-44z"
       overflow="visible"
       color="#000"
       opacity=".527"
       fill="#c87137"
       fill-rule="evenodd"
       filter="url(#a)"
       enable-background="accumulate"
       id="path7" />
    <path
       d="M200.1 16.1c-2.3 10.67-10.5 21.38-15.6 31.44-6.6-10.06-13.9-19.69-17.7-30.12L17.34 19.05C24.61 113.6 7.605 179.3 16.85 277l18.26 20.1L10.34 309l7.1 141.6.96 43.3 90.2 3.4c3.4-15.2 15-35.6 21.3-49.6 4.3 13.6 15.4 36.7 16.6 50.9l45.1.8 13.8-18.7 14.4 22.2 68.7-8.6c1.8-4.7 4.5-9.1 7.8-13.5 4.8 4.2 7.4 8.9 10 13.6.8-9.5 7.7-19.6 10.6-28.7 4.5 8.6 19.9 28.9 33.1 33.9l114.6 5.6 22.3-14.7 19.4 14.7-14.5-67.6-34.6-14.2 37.5-15.1 2.1-96.9-14.5-21.9 15.2-13.4 5.1-239.63c-5.2-21.09-11.8-24.89-16.9-20.22l-4.2 2.11 2 19.14.7 44.47-7.1 124.23-18.3-137.78c8.8-15.88-3.9-35.38-.6-50.02-67.1 1.24-140.4-13.332-202.8-3.28-14 2.25-23.7 21.31-36.9 24.48-4.3 1.03-13.9-23.45-18.4-23.5z"
       overflow="visible"
       enable-background="accumulate"
       filter="url(#b)"
       fill-rule="evenodd"
       fill="#f6e7d0"
       color="#000"
       id="path8" />
    <path
       d="M354 27.39l-70.3 96.91 46.4 97.6-56.2 43.6 33 74.4-30.2 63.2 69.8 48.8 31.6 29.5 31.6-13.3L365.9 335l55.5-36.5 2.1-146.1-56.9-101.83zM116.6 55.48L89.9 123.6s33.7 65.3 35.8 68.8c2.1 3.6-7 118-7 118l42.8 73.8s9.9-82.9 7.1-83.6c-2.8-.7-29.5-42.1-29.5-42.1l23.8-84.3-36.5-37.2z"
       color="#000"
       overflow="visible"
       fill="#f2dbb9"
       fill-rule="evenodd"
       filter="url(#c)"
       enable-background="accumulate"
       id="path9" />
    <path
       d="M39.33 172.1l-5.62 108.1L74.45 328 42.84 464.9l96.96-39.3 30.2 42.9 74.4-38.7-80.8-169.9-60.4-16.9z"
       color="#000"
       overflow="visible"
       fill="#eed3a4"
       fill-rule="evenodd"
       enable-background="accumulate"
       filter="url(#d)"
       id="path10" />
    <path
       d="M266.9 66.72L324.5 191 434 221.2l21.8-111.6-41.4-68.86z"
       color="#000"
       overflow="visible"
       fill="#eed3a4"
       fill-rule="evenodd"
       enable-background="accumulate"
       filter="url(#e)"
       id="path11" />
  </svg>
  <g
     class=""
     transform="matrix(0.75312298,0,0,0.75312298,60.745997,64.472255)"
     id="g12">
    <path
       d="m 103.432,17.844 c -1.118,0.005 -2.234,0.032 -3.348,0.08 -2.547,0.11 -5.083,0.334 -7.604,0.678 -20.167,2.747 -39.158,13.667 -52.324,33.67 -24.613,37.4 2.194,98.025 56.625,98.025 0.536,0 1.058,-0.012 1.583,-0.022 v 0.704 h 60.565 c -10.758,31.994 -30.298,66.596 -52.448,101.43 -2.162,3.4 -4.254,6.878 -6.29,10.406 l 34.878,35.733 -56.263,9.423 c -32.728,85.966 -27.42,182.074 48.277,182.074 v -0.002 l 9.31,0.066 c 23.83,-0.57 46.732,-4.298 61.325,-12.887 4.174,-2.458 7.63,-5.237 10.467,-8.42 h -32.446 c -20.33,5.95 -40.8,-6.94 -47.396,-25.922 -8.956,-25.77 7.52,-52.36 31.867,-60.452 5.803,-1.93 11.723,-2.834 17.565,-2.834 v -0.406 h 178.33 c -0.57,-44.403 16.35,-90.125 49.184,-126 23.955,-26.176 42.03,-60.624 51.3,-94.846 l -41.225,-24.932 38.272,-6.906 -43.37,-25.807 h -0.005 l 0.002,-0.002 0.002,0.002 52.127,-8.85 C 457.16,52.713 433.552,23.734 385.022,23.734 341.14,32.26 222.11,35.29 149.34,28.496 134.452,21.733 118.793,17.773 103.432,17.844 Z m 0.464,18.703 c 13.137,0.043 27.407,3.804 41.247,10.63 l 0.033,-0.07 c 4.667,4.735 8.542,9.737 11.68,14.985 H 82.92 l 10.574,14.78 c 10.608,14.83 19.803,31.99 21.09,42.024 0.643,5.017 -0.11,7.167 -1.814,8.836 -1.705,1.67 -6.228,3.875 -15.99,3.875 -40.587,0 -56.878,-44.952 -41.012,-69.06 C 66.238,46.64 79.582,39.22 95.002,37.12 c 2.89,-0.395 5.863,-0.583 8.894,-0.573 z M 118.5,80.78 h 46.28 c 4.275,15.734 3.656,33.07 -0.544,51.51 H 131.52 c 1.9,-5.027 2.268,-10.574 1.6,-15.77 -1.527,-11.913 -7.405,-24.065 -14.62,-35.74 z m 101.553,317.095 c 6.44,6.84 11.192,15.31 13.37,24.914 3.797,16.736 3.092,31.208 -1.767,43.204 -4.526,11.175 -12.576,19.79 -22.29,26 h 237.19 c 14.448,0 24.887,-5.678 32.2,-14.318 7.312,-8.64 11.2,-20.514 10.705,-32.352 -0.186,-4.473 -0.978,-8.913 -2.407,-13.18 l -69.91,-8.205 42.017,-20.528 c -8.32,-3.442 -18.64,-5.537 -31.375,-5.537 H 220.053 Z m -42.668,0.506 c -1.152,-0.003 -2.306,0.048 -3.457,0.153 -2.633,0.242 -5.256,0.775 -7.824,1.63 -15.11,5.02 -25.338,21.54 -20.11,36.583 3.673,10.57 15.347,17.71 25.654,13.938 l 1.555,-0.57 h 43.354 c 0.946,-6.36 0.754,-13.882 -1.358,-23.192 -3.71,-16.358 -20.543,-28.483 -37.815,-28.54 z"
       fill="#3e3126"
       fill-opacity="1"
       id="path12" />
  </g>
</svg>
