<?xml version="1.0" encoding="UTF-8" standalone="no"?>
<svg
   viewBox="0 0 512 512"
   style="height: 512px; width: 512px;"
   version="1.1"
   id="svg12"
   sodipodi:docname="axii-vexillum.svg"
   inkscape:version="1.4 (e7c3feb1, 2024-10-09)"
   xml:space="preserve"
   xmlns:inkscape="http://www.inkscape.org/namespaces/inkscape"
   xmlns:sodipodi="http://sodipodi.sourceforge.net/DTD/sodipodi-0.dtd"
   xmlns="http://www.w3.org/2000/svg"
   xmlns:svg="http://www.w3.org/2000/svg"><sodipodi:namedview
     id="namedview12"
     pagecolor="#505050"
     bordercolor="#ffffff"
     borderopacity="1"
     inkscape:showpageshadow="0"
     inkscape:pageopacity="0"
     inkscape:pagecheckerboard="1"
     inkscape:deskcolor="#d1d1d1"
     inkscape:zoom="0.63083236"
     inkscape:cx="262.35179"
     inkscape:cy="247.29232"
     inkscape:window-width="1264"
     inkscape:window-height="743"
     inkscape:window-x="446"
     inkscape:window-y="346"
     inkscape:window-maximized="0"
     inkscape:current-layer="svg12" /><defs
     id="defs2"><radialGradient
       id="delapouite-viking-shield-gradient-0"><stop
         offset="0%"
         stop-color="#830000"
         stop-opacity="1"
         id="stop1" /><stop
         offset="100%"
         stop-color="#000"
         stop-opacity="1"
         id="stop2" /></radialGradient></defs><path
     d="M0 0h512v512H0z"
     fill="url(#pattern)"
     id="path2" /><svg
     version="1.1"
     id="svg11"><defs
       id="defs6"><filter
         id="b"
         x="-0.023338979"
         width="1.046678"
         y="-0.023448784"
         height="1.0468976"
         color-interpolation-filters="sRGB"><feGaussianBlur
           stdDeviation="4.823"
           id="feGaussianBlur2" /></filter><filter
         id="a"
         x="-0.012011281"
         width="1.0240226"
         y="-0.011988317"
         height="1.0239766"
         color-interpolation-filters="sRGB"><feGaussianBlur
           stdDeviation="2.55"
           id="feGaussianBlur3" /></filter><filter
         id="c"
         x="-0.11244604"
         width="1.2248921"
         y="-0.082623731"
         height="1.1652475"
         color-interpolation-filters="sRGB"><feGaussianBlur
           stdDeviation="15.63"
           id="feGaussianBlur4" /></filter><filter
         id="e"
         x="-0.23758603"
         width="1.4751721"
         y="-0.24869778"
         height="1.4973956"
         color-interpolation-filters="sRGB"><feGaussianBlur
           stdDeviation="18.7"
           id="feGaussianBlur5" /></filter><filter
         id="d"
         x="-0.21301439"
         width="1.4260288"
         y="-0.15141701"
         height="1.302834"
         color-interpolation-filters="sRGB"><feGaussianBlur
           stdDeviation="18.7"
           id="feGaussianBlur6" /></filter></defs><path
       d="M196.6 1.207c-2.5 11.323-4.8 22.703-10.2 33.383-7-10.68-12.6-20.91-16.7-31.988L2.494 4.338C13 104.9 10.86 175.3 1.979 278.3L15.4 295.5l-9.494 6.3L2.6 462.7l1.019 45.9 112.681 3.1c3.6-16.1 6.5-32.5 13.2-47.3 4.5 14.4 5.7 29.4 7 44.4l160 .3c.8-6.1.7-8.1 2.3-14.4 5.1 4.5 7.8 9.5 10.6 14.5.8-10.1 3.9-19.8 7-29.5 4.8 9.2 6.7 19.4 8.8 29.5l185.2.4-4.6-78.2-21.4-8.2 21.3-4.9 5.8-395.47c-7-6.73-13.3-13.744-18-21.465l-15.1.114-2.1 20.321-1.4 47.23.8 84.87-8.6-97.14c9.3-16.86 2.2-39.69 5.7-55.239-92.1 1.696-184.1.685-276.2-.314z"
       overflow="visible"
       color="#000"
       fill="#ebc893"
       fill-rule="evenodd"
       stroke="#e0aa58"
       enable-background="accumulate"
       id="path6" /><path
       d="M196.6 1.203c-2.5 11.327-4.8 22.707-10.2 33.387-7-10.68-12.6-20.91-16.7-31.99L2.494 4.336C13 104.9 10.86 175.3 1.979 278.3L15.4 295.5l-9.494 6.3L2.6 462.7l1.019 45.9 112.681 3.1c.5-2.1-7.9-2.3-7.4-4.5L5.244 504.5l-.914-47.3 4.63-153.7 12.42-9-13.093-16.8C16.95 177.3 16.36 104 6.113 5.992l162.687.164c4 10.804 10.3 24.254 17.1 34.664 5.3-10.41 9.5-25.97 12-37.02 89.8.974 173.8 3.521 263.6 1.867 4.6 1.226 10.6.431 11.3-4.149-92.1 1.696-184.1.684-276.2-.315zm296.9.158l-15.1.116-.6 6.277 13.5-2.557c4.6 7.533 9.7 12.383 16.6 18.943l-4.6 389.06-19.9 9.9 4.1-.6 18.2-4.2 5.8-395.47c-7-6.73-13.3-13.748-18-21.469zm9.6 435.739l3.5 69.7-177.7.1c.4 2.1-4.1.2-3.7 2.3l185.2.4-4.6-78.2zm-370 25.1c-1 2.2-2.9.4-3.7 2.6 4.2 14 5.8 29.5 7.1 44l158 .3c1.9-5 .8-9.7 4.3-14.4 5.1 4.5 7.8 9.5 10.6 14.5.8-10.1 3.9-19.8 7-29.5 1.8 3.4 3.2 7 4.3 10.6-1.4-5.6-2.4-8.3-5.1-13.4-3 9.4-6.7 16.2-7.5 26-2.7-4.9-5.4-9.7-10.4-14.1-3.4 4.6-6.2 9.1-8 14l-147.6 3.4c-3.4-14.6-7.1-30.3-9-44z"
       overflow="visible"
       color="#000"
       opacity=".527"
       fill="#c87137"
       fill-rule="evenodd"
       filter="url(#a)"
       enable-background="accumulate"
       id="path7" /><path
       d="M200.1 16.1c-2.3 10.67-10.5 21.38-15.6 31.44-6.6-10.06-13.9-19.69-17.7-30.12L17.34 19.05C24.61 113.6 7.605 179.3 16.85 277l18.26 20.1L10.34 309l7.1 141.6.96 43.3 90.2 3.4c3.4-15.2 15-35.6 21.3-49.6 4.3 13.6 15.4 36.7 16.6 50.9l45.1.8 13.8-18.7 14.4 22.2 68.7-8.6c1.8-4.7 4.5-9.1 7.8-13.5 4.8 4.2 7.4 8.9 10 13.6.8-9.5 7.7-19.6 10.6-28.7 4.5 8.6 19.9 28.9 33.1 33.9l114.6 5.6 22.3-14.7 19.4 14.7-14.5-67.6-34.6-14.2 37.5-15.1 2.1-96.9-14.5-21.9 15.2-13.4 5.1-239.63c-5.2-21.09-11.8-24.89-16.9-20.22l-4.2 2.11 2 19.14.7 44.47-7.1 124.23-18.3-137.78c8.8-15.88-3.9-35.38-.6-50.02-67.1 1.24-140.4-13.332-202.8-3.28-14 2.25-23.7 21.31-36.9 24.48-4.3 1.03-13.9-23.45-18.4-23.5z"
       overflow="visible"
       enable-background="accumulate"
       filter="url(#b)"
       fill-rule="evenodd"
       fill="#f6e7d0"
       color="#000"
       id="path8" /><path
       d="M354 27.39l-70.3 96.91 46.4 97.6-56.2 43.6 33 74.4-30.2 63.2 69.8 48.8 31.6 29.5 31.6-13.3L365.9 335l55.5-36.5 2.1-146.1-56.9-101.83zM116.6 55.48L89.9 123.6s33.7 65.3 35.8 68.8c2.1 3.6-7 118-7 118l42.8 73.8s9.9-82.9 7.1-83.6c-2.8-.7-29.5-42.1-29.5-42.1l23.8-84.3-36.5-37.2z"
       color="#000"
       overflow="visible"
       fill="#f2dbb9"
       fill-rule="evenodd"
       filter="url(#c)"
       enable-background="accumulate"
       id="path9" /><path
       d="M39.33 172.1l-5.62 108.1L74.45 328 42.84 464.9l96.96-39.3 30.2 42.9 74.4-38.7-80.8-169.9-60.4-16.9z"
       color="#000"
       overflow="visible"
       fill="#eed3a4"
       fill-rule="evenodd"
       enable-background="accumulate"
       filter="url(#d)"
       id="path10" /><path
       d="M266.9 66.72L324.5 191 434 221.2l21.8-111.6-41.4-68.86z"
       color="#000"
       overflow="visible"
       fill="#eed3a4"
       fill-rule="evenodd"
       enable-background="accumulate"
       filter="url(#e)"
       id="path11" /></svg><path
     style="fill:#3e3126;fill-opacity:1;stroke-width:0.612828"
     d="m 253.12757,430.15404 c -7.68792,-1.32164 -12.75201,-5.00886 -17.18104,-12.50958 -1.22382,-2.0727 -2.36524,-4.05778 -2.53638,-4.41135 -0.17113,-0.35347 -0.67471,-1.19427 -1.11902,-1.86839 -0.44422,-0.67412 -0.93735,-1.49699 -1.0957,-1.82858 -0.15826,-0.33168 -1.59498,-2.81359 -3.19274,-5.51547 -1.59759,-2.70188 -3.03482,-5.18826 -3.19375,-5.52532 -0.15893,-0.33706 -0.65266,-1.16439 -1.09713,-1.83851 -0.4444,-0.67412 -0.93761,-1.49691 -1.09596,-1.82859 -0.15835,-0.33159 -1.59498,-2.81359 -3.19274,-5.51538 -1.59759,-2.70197 -3.03482,-5.18834 -3.19383,-5.5254 -0.15885,-0.33706 -0.65258,-1.16439 -1.09704,-1.83851 -0.44441,-0.67413 -0.93762,-1.49691 -1.09596,-1.82859 -0.15834,-0.33159 -1.59506,-2.8135 -3.19275,-5.51538 -1.59767,-2.70197 -3.0348,-5.18834 -3.19382,-5.5254 -0.15886,-0.33706 -0.65257,-1.16439 -1.09705,-1.83851 -0.44448,-0.67413 -0.93761,-1.49691 -1.09596,-1.8285 -0.15834,-0.33168 -1.59506,-2.81359 -3.19273,-5.51547 -1.59768,-2.70188 -3.03491,-5.18834 -3.19384,-5.5254 -0.15893,-0.33706 -0.65257,-1.16439 -1.09705,-1.83852 -0.44448,-0.67403 -0.93769,-1.4969 -1.09604,-1.82849 -0.15826,-0.3316 -1.59498,-2.81359 -3.19265,-5.51547 -1.59768,-2.70188 -3.03491,-5.18834 -3.19384,-5.5254 -0.15893,-0.33706 -0.65257,-1.16439 -1.09713,-1.83852 -0.4444,-0.67403 -0.93761,-1.4969 -1.09596,-1.8285 -0.15826,-0.33159 -1.59498,-2.81359 -3.19274,-5.51546 -1.59759,-2.70189 -3.0348,-5.18834 -3.19375,-5.5254 -0.15893,-0.33707 -0.65266,-1.1644 -1.09712,-1.83843 -0.44439,-0.67413 -0.93762,-1.497 -1.09596,-1.82859 -0.15826,-0.33159 -1.59498,-2.81359 -3.19274,-5.51546 -1.59759,-2.70189 -3.03481,-5.18834 -3.19383,-5.52541 -0.15886,-0.33706 -0.65257,-1.1643 -1.09705,-1.83842 -0.44439,-0.67413 -0.93761,-1.497 -1.09596,-1.82859 -0.15834,-0.33159 -1.59506,-2.81359 -3.19273,-5.51546 -1.59768,-2.70189 -3.03482,-5.18835 -3.19384,-5.52541 -0.15885,-0.33706 -0.65257,-1.1643 -1.09705,-1.83843 -0.44439,-0.67412 -0.93761,-1.49699 -1.09595,-1.82858 -0.15835,-0.33159 -1.59507,-2.81359 -3.19274,-5.51546 -1.59768,-2.70189 -3.03482,-5.18835 -3.19384,-5.52532 -0.15893,-0.33706 -0.65257,-1.16439 -1.09705,-1.83852 -0.44448,-0.67412 -0.93769,-1.49699 -1.09604,-1.82858 -0.15826,-0.33159 -1.59498,-2.81351 -3.19265,-5.51547 -1.59767,-2.70187 -3.03489,-5.18825 -3.19384,-5.52531 -0.15893,-0.33707 -0.65257,-1.1644 -1.09712,-1.83852 -0.44439,-0.67412 -0.93762,-1.49699 -1.09596,-1.82858 -0.15826,-0.33159 -1.59498,-2.81351 -3.19265,-5.51547 -1.59769,-2.70187 -3.03491,-5.18825 -3.19384,-5.52532 -0.15894,-0.33706 -0.65266,-1.16439 -1.09714,-1.83851 -0.44439,-0.67412 -0.9376,-1.49691 -1.09595,-1.82858 -0.15826,-0.3316 -1.59498,-2.81351 -3.19274,-5.51538 -1.59759,-2.70196 -3.03482,-5.18835 -3.19375,-5.52541 -0.15893,-0.33706 -0.65266,-1.16439 -1.09713,-1.83851 -0.4444,-0.67412 -0.93761,-1.49691 -1.09596,-1.8285 -0.15835,-0.33168 -1.59506,-2.81359 -3.19274,-5.51546 -1.59759,-2.70196 -3.03482,-5.18835 -3.19383,-5.52541 -0.15885,-0.33706 -0.65258,-1.16439 -1.09705,-1.83851 -0.4444,-0.67412 -0.93761,-1.49691 -1.09596,-1.8285 -0.15833,-0.33168 -1.59506,-2.81359 -3.19274,-5.51547 -1.59767,-2.70187 -3.0348,-5.18834 -3.19383,-5.5254 -0.15893,-0.33706 -0.65256,-1.16439 -1.09704,-1.83851 -0.44448,-0.67404 -0.93762,-1.49691 -1.09604,-1.8285 -0.15826,-0.33159 -1.59498,-2.81359 -3.19267,-5.51547 -1.59767,-2.70187 -3.03489,-5.18834 -3.19382,-5.5254 -0.15894,-0.33706 -0.65257,-1.16439 -1.09705,-1.83843 -0.44448,-0.67412 -0.93769,-1.49699 -1.09604,-1.82858 -0.15826,-0.3316 -1.59507,-2.81359 -3.192647,-5.51547 -1.59768,-2.70187 -3.03491,-5.18834 -3.19384,-5.5254 -0.15893,-0.33706 -0.65266,-1.16439 -1.09713,-1.83843 -0.4444,-0.67412 -0.93761,-1.49699 -1.09596,-1.82858 -0.15835,-0.3316 -1.59506,-2.81359 -3.19274,-5.51547 -1.59759,-2.70187 -3.03482,-5.18834 -3.19375,-5.5254 -0.15893,-0.33706 -0.65266,-1.16431 -1.09713,-1.83843 -0.4444,-0.67412 -0.93761,-1.49699 -1.09596,-1.82859 -0.15833,-0.33159 -1.59506,-2.81359 -3.19274,-5.51546 -1.59758,-2.70188 -3.034808,-5.18834 -3.193827,-5.5254 -0.158849,-0.33698 -0.652573,-1.16431 -1.097049,-1.83843 -0.444392,-0.67413 -0.938872,-1.50146 -1.098648,-1.83852 -0.159776,-0.33706 -1.035934,-1.89972 -1.947026,-3.47273 -3.012256,-5.20064 -3.681916,-8.06312 -3.352684,-14.33117 0.211715,-4.02984 0.385887,-4.67399 2.477199,-9.16051 1.367692,-2.93405 6.876505,-8.23131 10.147625,-9.75794 5.76018,-2.68833 -7.362406,-2.49851 172.719297,-2.49851 180.0817,0 166.95912,-0.18982 172.7193,2.49851 3.26463,1.52359 8.77075,6.81421 10.15537,9.75794 2.35412,5.00499 2.40371,5.23236 2.40371,11.03093 0,6.22174 -0.13394,6.73534 -3.25512,12.49022 -0.60055,1.10741 -1.44464,2.56492 -1.87564,3.23904 -0.43101,0.67412 -0.92373,1.50566 -1.09495,1.84786 -0.17114,0.3422 -0.92212,1.67512 -1.66898,2.962 l -1.35776,2.33973 H 284.339 c -131.61549,0 -148.51823,0.0699 -148.72666,0.61283 -0.25869,0.67421 -0.1192,1.04427 1.07793,2.8599 0.44448,0.67412 0.93812,1.50145 1.09705,1.83851 0.3348,0.7099 6.05778,10.52686 6.66885,11.43946 0.22569,0.33706 0.53665,0.88407 0.69113,1.21575 0.15439,0.33159 1.5879,2.8135 3.18558,5.51538 1.59767,2.70197 3.0349,5.18834 3.19383,5.5254 0.15893,0.33706 0.65266,1.16439 1.09705,1.83851 0.44448,0.67412 0.93769,1.49691 1.09604,1.8285 0.15835,0.33168 1.59507,2.81359 3.19265,5.51547 1.59776,2.70197 3.03491,5.18834 3.19384,5.5254 0.15893,0.33706 0.65266,1.16439 1.09705,1.83851 0.44448,0.67413 0.93769,1.49691 1.09604,1.8285 0.15834,0.33168 1.63117,2.87219 3.27287,5.64561 1.64179,2.77343 2.98507,5.14129 2.98507,5.26184 0,0.12053 0.55155,1.03643 1.22567,2.03524 0.67404,0.99889 1.2256,1.88364 1.2256,1.96614 0,0.0825 0.79324,1.49817 1.76275,3.14577 0.96952,1.64767 1.89079,3.27152 2.04729,3.60859 0.15649,0.33706 0.6482,1.16439 1.09259,1.83851 0.44448,0.67412 0.93828,1.4986 1.09738,1.8322 0.15919,0.33362 1.59936,2.81561 3.2004,5.51548 1.60105,2.69985 3.03768,5.18463 3.1924,5.52169 0.15473,0.33706 0.645,1.16439 1.08939,1.83851 0.44456,0.67412 0.93769,1.49692 1.09604,1.8285 0.15835,0.33159 1.59506,2.81359 3.19265,5.51546 1.59776,2.70189 3.03499,5.18835 3.19384,5.52541 0.15901,0.33706 0.65266,1.16439 1.09713,1.83851 0.44448,0.67404 0.93812,1.50138 1.09705,1.83844 0.33479,0.7099 6.05776,10.52693 6.66883,11.43946 0.22569,0.33706 0.53666,0.88416 0.69113,1.21575 0.15439,0.33159 1.58792,2.81359 3.18559,5.51546 1.59767,2.70188 3.03489,5.18833 3.19382,5.52541 0.15895,0.33706 0.65266,1.16439 1.09705,1.83842 0.44448,0.67413 0.9377,1.497 1.09604,1.82859 0.15835,0.33159 1.59507,2.81359 3.19266,5.51546 1.59776,2.70188 3.0349,5.18835 3.19383,5.52541 0.15893,0.33706 0.65266,1.1643 1.09705,1.83842 0.44457,0.67413 0.9377,1.497 1.09604,1.82859 0.15835,0.33159 1.59507,2.81359 3.19266,5.51546 1.59775,2.70188 3.03498,5.18835 3.19383,5.52541 0.15902,0.33697 0.65266,1.1643 1.09714,1.83843 0.44447,0.67412 0.93685,1.50145 1.09427,1.83851 0.15741,0.33706 1.07869,1.92304 2.04719,3.52441 0.96868,1.60138 1.76116,3.05764 1.76116,3.23627 0,0.17854 0.25221,0.61486 0.56047,0.96959 0.30828,0.35474 1.1591,1.74811 1.8908,3.09628 0.7317,1.34824 1.5826,2.74161 1.89088,3.09634 0.30828,0.35474 0.56048,0.75326 0.56048,0.8855 0,0.13225 0.79324,1.5885 1.76267,3.23626 0.96951,1.64768 1.89079,3.27154 2.04728,3.6086 0.15658,0.33706 0.6482,1.16431 1.09268,1.83843 0.44448,0.67412 0.93769,1.49699 1.09595,1.82859 0.15835,0.33159 1.59507,2.81359 3.19274,5.51546 1.59767,2.70189 3.03489,5.18834 3.19375,5.5254 0.15902,0.33698 0.65257,1.16431 1.09688,1.83843 0.44422,0.67413 0.94779,1.51004 1.11893,1.85754 0.17115,0.34759 1.50626,2.69018 2.9668,5.20577 2.65356,4.57036 3.74825,5.53575 4.38289,3.86543 0.14934,-0.39313 1.57883,-2.92555 3.17642,-5.62742 1.59775,-2.70197 3.03447,-5.18389 3.19273,-5.51547 0.15835,-0.33159 0.65157,-1.15446 1.09596,-1.82858 0.44448,-0.67413 0.93819,-1.50146 1.09712,-1.83844 0.15895,-0.33706 1.59617,-2.82352 3.19384,-5.52539 1.59768,-2.70189 3.0344,-5.18389 3.19266,-5.51547 0.15834,-0.33159 0.65155,-1.15446 1.09603,-1.82858 0.44448,-0.67413 0.93812,-1.50138 1.09705,-1.83844 0.15893,-0.33706 1.59616,-2.82352 3.19384,-5.5254 1.59767,-2.70188 3.03439,-5.18388 3.19265,-5.51546 0.15843,-0.33159 0.65156,-1.15446 1.09604,-1.82859 0.44448,-0.67403 0.9382,-1.50137 1.09705,-1.83843 0.15902,-0.33706 1.59616,-2.82352 3.19384,-5.5254 1.59767,-2.70188 3.03439,-5.18388 3.19273,-5.51546 0.15835,-0.33159 0.65157,-1.15446 1.09596,-1.82859 0.44448,-0.67403 0.93819,-1.50137 1.09705,-1.83843 0.15902,-0.33707 1.59625,-2.82352 3.19383,-5.5254 1.59776,-2.70188 3.0344,-5.18388 3.19274,-5.51546 0.15835,-0.33159 0.65157,-1.15447 1.09596,-1.8285 0.44448,-0.67413 0.93819,-1.50146 1.09712,-1.83853 0.15895,-0.33706 1.59617,-2.82351 3.19375,-5.52539 1.59776,-2.70188 3.03449,-5.18387 3.19274,-5.51546 0.15835,-0.3316 0.65156,-1.15438 1.09597,-1.8285 0.44446,-0.67413 0.93819,-1.50147 1.09712,-1.83853 0.15893,-0.33706 1.59616,-2.82343 3.19384,-5.52539 1.59767,-2.70189 3.03439,-5.1838 3.19265,-5.51547 0.15835,-0.33159 0.65156,-1.15437 1.09604,-1.8285 0.44448,-0.67412 0.93812,-1.50146 1.09705,-1.83852 0.15893,-0.33706 1.59616,-2.82343 3.19384,-5.52539 1.59767,-2.70189 3.03439,-5.1838 3.19265,-5.51538 0.15843,-0.33168 0.65156,-1.15446 1.09604,-1.82859 0.44448,-0.67412 0.93812,-1.50146 1.09705,-1.83852 0.15902,-0.33706 1.59615,-2.82343 3.19383,-5.52539 1.59768,-2.70189 3.0344,-5.1838 3.19274,-5.51538 0.15835,-0.33159 0.65157,-1.15447 1.09596,-1.82859 0.44448,-0.67412 0.93819,-1.50146 1.09705,-1.83852 0.15902,-0.33706 1.59624,-2.82343 3.19382,-5.52531 1.59769,-2.70197 3.03441,-5.18387 3.19274,-5.51546 0.15835,-0.3316 0.65156,-1.15447 1.09596,-1.82859 0.44447,-0.67412 0.9382,-1.50146 1.09713,-1.83852 0.33564,-0.71175 6.0597,-10.53005 6.66909,-11.43946 0.22594,-0.33706 0.6157,-1.01093 0.86614,-1.49742 0.25044,-0.48657 0.84669,-0.98963 1.32484,-1.11792 1.32366,-0.35516 52.06656,-0.28966 52.28736,0.0674 0.21206,0.3432 -0.94855,2.87512 -2.19788,4.79487 -0.43866,0.67412 -0.92718,1.49699 -1.08551,1.82859 -0.15835,0.33159 -1.59507,2.81359 -3.19274,5.51546 -1.59767,2.70189 -3.03482,5.18834 -3.19384,5.5254 -0.15885,0.33707 -0.65257,1.16431 -1.09705,1.83843 -0.44439,0.67412 -0.9376,1.497 -1.09595,1.82859 -0.15835,0.33159 -1.59507,2.81359 -3.19274,5.51546 -1.59767,2.70189 -3.03482,5.18834 -3.19383,5.52541 -0.15885,0.33706 -0.65258,1.1643 -1.09706,1.83842 -0.44439,0.67413 -0.9376,1.497 -1.09595,1.82859 -0.15835,0.33159 -1.59507,2.81359 -3.19274,5.51546 -1.59767,2.70189 -3.03482,5.18835 -3.19383,5.52532 -0.15885,0.33706 -0.65258,1.16439 -1.09705,1.83851 -0.4444,0.67413 -0.93878,1.49995 -1.09857,1.83524 -0.33445,0.70215 -7.27822,12.56471 -7.89375,13.48548 -0.22527,0.33707 -0.53708,0.88711 -0.69289,1.2224 -0.15583,0.3353 -1.86453,3.27835 -3.79699,6.54004 -1.93255,3.26177 -3.64429,6.20474 -3.80406,6.54003 -0.15969,0.33538 -0.65409,1.1612 -1.09857,1.83531 -0.44447,0.67414 -0.93812,1.50147 -1.09713,1.83853 -0.15885,0.33697 -1.59608,2.82343 -3.19375,5.52532 -1.59768,2.70187 -3.03439,5.18387 -3.19274,5.51546 -0.15835,0.33158 -0.65148,1.15445 -1.09596,1.82857 -0.44447,0.67414 -0.93811,1.50138 -1.09713,1.83844 -0.15893,0.33706 -1.59608,2.82352 -3.19384,5.52541 -1.59758,2.70187 -3.0343,5.18387 -3.19265,5.51546 -0.15835,0.33158 -0.65156,1.15445 -1.09604,1.82859 -0.44439,0.67412 -0.93811,1.50136 -1.09705,1.83842 -0.15893,0.33707 -1.59608,2.82352 -3.19382,5.52541 -1.5976,2.70187 -3.03432,5.18387 -3.19267,5.51546 -0.15833,0.33158 -0.65156,1.15445 -1.09604,1.82859 -0.44439,0.67403 -0.93811,1.50136 -1.09704,1.83843 -0.15894,0.33706 -1.59616,2.82351 -3.19383,5.52539 -1.59768,2.70188 -3.03441,5.18388 -3.19274,5.51547 -0.15826,0.33159 -0.65148,1.15446 -1.09596,1.82849 -0.44439,0.67414 -0.93811,1.50147 -1.09705,1.83853 -0.15893,0.33706 -1.59616,2.82352 -3.19383,5.52539 -1.59767,2.70189 -3.03439,5.18388 -3.19274,5.51548 -0.15826,0.33158 -0.65148,1.15445 -1.09596,1.82848 -0.44447,0.67414 -0.93811,1.50147 -1.09713,1.83853 -0.15885,0.33706 -1.59608,2.82352 -3.19375,5.52539 -1.59767,2.70189 -3.03439,5.1838 -3.19274,5.51548 -0.15826,0.33158 -0.65148,1.15436 -1.09595,1.8285 -0.44448,0.67412 -0.93811,1.50145 -1.09714,1.83851 -0.15885,0.33706 -1.59607,2.82343 -3.19382,5.52539 -1.5976,2.70189 -3.03432,5.1838 -3.19267,5.51539 -0.15833,0.33167 -0.65148,1.15445 -1.09604,1.82859 -0.44439,0.67411 -0.93811,1.50145 -1.09704,1.83851 -0.15894,0.33706 -1.63168,2.88354 -3.27288,5.65899 -1.6412,2.77537 -2.98397,5.11022 -2.98397,5.18851 0,0.0783 -0.55155,0.95967 -1.22568,1.95848 -0.67412,0.99889 -1.22567,1.91478 -1.22567,2.03524 0,0.12055 -1.37881,2.5485 -3.06412,5.39551 -1.6853,2.84692 -3.06411,5.24036 -3.06411,5.31865 0,0.0783 -0.55155,0.95967 -1.22567,1.95848 -0.67413,0.99889 -1.22568,1.93094 -1.22568,2.07136 0,0.14041 -0.49954,1.03299 -1.11001,1.98347 -0.61057,0.95058 -1.45887,2.3644 -1.88524,3.14173 -3.41683,6.23075 -9.98237,10.81163 -16.68059,11.63838 -1.19991,0.14816 -2.64127,0.33126 -3.203,0.40693 -0.56183,0.0758 -2.40027,-0.0995 -4.08557,-0.38916 z"
     id="path3"
     sodipodi:nodetypes="ssssssssssssssssssssssssssssssssssssssssssssssssssssssssssssssssssssssssssssssssssssssssscsssssssssssssssssssssssssssssssssssssssssssssssssssssssssssssssssssssssssssssssssssssssssssssssssssssssssssssssssssssssssssssssssssssssssssssssssssssssssssssssssssss" /></svg>
