<?xml version="1.0" encoding="UTF-8" standalone="no"?>
<svg
   viewBox="0 0 512 512"
   style="height: 512px; width: 512px;"
   version="1.1"
   id="svg12"
   sodipodi:docname="aard-vexillum.svg"
   inkscape:version="1.4 (e7c3feb1, 2024-10-09)"
   xml:space="preserve"
   xmlns:inkscape="http://www.inkscape.org/namespaces/inkscape"
   xmlns:sodipodi="http://sodipodi.sourceforge.net/DTD/sodipodi-0.dtd"
   xmlns="http://www.w3.org/2000/svg"
   xmlns:svg="http://www.w3.org/2000/svg"><sodipodi:namedview
     id="namedview12"
     pagecolor="#505050"
     bordercolor="#ffffff"
     borderopacity="1"
     inkscape:showpageshadow="0"
     inkscape:pageopacity="0"
     inkscape:pagecheckerboard="1"
     inkscape:deskcolor="#d1d1d1"
     inkscape:zoom="1.8070393"
     inkscape:cx="252.06978"
     inkscape:cy="412.27659"
     inkscape:window-width="1248"
     inkscape:window-height="631"
     inkscape:window-x="0"
     inkscape:window-y="38"
     inkscape:window-maximized="0"
     inkscape:current-layer="svg12" /><defs
     id="defs2"><radialGradient
       id="delapouite-viking-shield-gradient-0"><stop
         offset="0%"
         stop-color="#830000"
         stop-opacity="1"
         id="stop1" /><stop
         offset="100%"
         stop-color="#000"
         stop-opacity="1"
         id="stop2" /></radialGradient></defs><path
     d="M 0,0 H 512 V 512 H 0 Z"
     fill="url(#pattern)"
     id="path2" /><svg
     version="1.1"
     id="svg11"
     width="100%"
     height="100%"><defs
       id="defs6"><filter
         id="b"
         x="-0.023338979"
         width="1.046678"
         y="-0.023448784"
         height="1.0468976"
         color-interpolation-filters="sRGB"><feGaussianBlur
           stdDeviation="4.823"
           id="feGaussianBlur2" /></filter><filter
         id="a"
         x="-0.012011281"
         width="1.0240226"
         y="-0.011988317"
         height="1.0239766"
         color-interpolation-filters="sRGB"><feGaussianBlur
           stdDeviation="2.55"
           id="feGaussianBlur3" /></filter><filter
         id="c"
         x="-0.11244604"
         width="1.2248921"
         y="-0.082623731"
         height="1.1652475"
         color-interpolation-filters="sRGB"><feGaussianBlur
           stdDeviation="15.63"
           id="feGaussianBlur4" /></filter><filter
         id="e"
         x="-0.23758603"
         width="1.4751721"
         y="-0.24869778"
         height="1.4973956"
         color-interpolation-filters="sRGB"><feGaussianBlur
           stdDeviation="18.7"
           id="feGaussianBlur5" /></filter><filter
         id="d"
         x="-0.21301439"
         width="1.4260288"
         y="-0.15141701"
         height="1.302834"
         color-interpolation-filters="sRGB"><feGaussianBlur
           stdDeviation="18.7"
           id="feGaussianBlur6" /></filter></defs><path
       d="M 196.6,1.207 C 194.1,12.53 191.8,23.91 186.4,34.59 179.4,23.91 173.8,13.68 169.7,2.602 L 2.494,4.338 C 13,104.9 10.86,175.3 1.979,278.3 L 15.4,295.5 5.906,301.8 2.6,462.7 3.619,508.6 116.3,511.7 c 3.6,-16.1 6.5,-32.5 13.2,-47.3 4.5,14.4 5.7,29.4 7,44.4 l 160,0.3 c 0.8,-6.1 0.7,-8.1 2.3,-14.4 5.1,4.5 7.8,9.5 10.6,14.5 0.8,-10.1 3.9,-19.8 7,-29.5 4.8,9.2 6.7,19.4 8.8,29.5 l 185.2,0.4 -4.6,-78.2 -21.4,-8.2 21.3,-4.9 5.8,-395.47 c -7,-6.73 -13.3,-13.744 -18,-21.465 l -15.1,0.114 -2.1,20.321 -1.4,47.23 0.8,84.87 -8.6,-97.14 C 476.4,39.9 469.3,17.07 472.8,1.521 380.7,3.217 288.7,2.206 196.6,1.207 Z"
       overflow="visible"
       color="#000000"
       fill="#ebc893"
       fill-rule="evenodd"
       stroke="#e0aa58"
       enable-background="accumulate"
       id="path6" /><path
       d="M 196.6,1.203 C 194.1,12.53 191.8,23.91 186.4,34.59 179.4,23.91 173.8,13.68 169.7,2.6 L 2.494,4.336 C 13,104.9 10.86,175.3 1.979,278.3 L 15.4,295.5 5.906,301.8 2.6,462.7 3.619,508.6 116.3,511.7 c 0.5,-2.1 -7.9,-2.3 -7.4,-4.5 L 5.244,504.5 4.33,457.2 8.96,303.5 21.38,294.5 8.287,277.7 C 16.95,177.3 16.36,104 6.113,5.992 L 168.8,6.156 c 4,10.804 10.3,24.254 17.1,34.664 5.3,-10.41 9.5,-25.97 12,-37.02 89.8,0.974 173.8,3.521 263.6,1.867 4.6,1.226 10.6,0.431 11.3,-4.149 C 380.7,3.214 288.7,2.202 196.6,1.203 Z m 296.9,0.158 -15.1,0.116 -0.6,6.277 13.5,-2.557 c 4.6,7.533 9.7,12.383 16.6,18.943 l -4.6,389.06 -19.9,9.9 4.1,-0.6 18.2,-4.2 5.8,-395.47 c -7,-6.73 -13.3,-13.748 -18,-21.469 z m 9.6,435.739 3.5,69.7 -177.7,0.1 c 0.4,2.1 -4.1,0.2 -3.7,2.3 l 185.2,0.4 -4.6,-78.2 z m -370,25.1 c -1,2.2 -2.9,0.4 -3.7,2.6 4.2,14 5.8,29.5 7.1,44 l 158,0.3 c 1.9,-5 0.8,-9.7 4.3,-14.4 5.1,4.5 7.8,9.5 10.6,14.5 0.8,-10.1 3.9,-19.8 7,-29.5 1.8,3.4 3.2,7 4.3,10.6 -1.4,-5.6 -2.4,-8.3 -5.1,-13.4 -3,9.4 -6.7,16.2 -7.5,26 -2.7,-4.9 -5.4,-9.7 -10.4,-14.1 -3.4,4.6 -6.2,9.1 -8,14 l -147.6,3.4 c -3.4,-14.6 -7.1,-30.3 -9,-44 z"
       overflow="visible"
       color="#000000"
       opacity="0.527"
       fill="#c87137"
       fill-rule="evenodd"
       filter="url(#a)"
       enable-background="accumulate"
       id="path7" /><path
       d="M 200.1,16.1 C 197.8,26.77 189.6,37.48 184.5,47.54 177.9,37.48 170.6,27.85 166.8,17.42 L 17.34,19.05 C 24.61,113.6 7.605,179.3 16.85,277 l 18.26,20.1 -24.77,11.9 7.1,141.6 0.96,43.3 90.2,3.4 c 3.4,-15.2 15,-35.6 21.3,-49.6 4.3,13.6 15.4,36.7 16.6,50.9 l 45.1,0.8 13.8,-18.7 14.4,22.2 68.7,-8.6 c 1.8,-4.7 4.5,-9.1 7.8,-13.5 4.8,4.2 7.4,8.9 10,13.6 0.8,-9.5 7.7,-19.6 10.6,-28.7 4.5,8.6 19.9,28.9 33.1,33.9 l 114.6,5.6 22.3,-14.7 19.4,14.7 -14.5,-67.6 -34.6,-14.2 37.5,-15.1 2.1,-96.9 -14.5,-21.9 15.2,-13.4 5.1,-239.63 C 497.4,15.38 490.8,11.58 485.7,16.25 l -4.2,2.11 2,19.14 0.7,44.47 L 477.1,206.2 458.8,68.42 C 467.6,52.54 454.9,33.04 458.2,18.4 391.1,19.64 317.8,5.068 255.4,15.12 c -14,2.25 -23.7,21.31 -36.9,24.48 -4.3,1.03 -13.9,-23.45 -18.4,-23.5 z"
       overflow="visible"
       enable-background="accumulate"
       filter="url(#b)"
       fill-rule="evenodd"
       fill="#f6e7d0"
       color="#000000"
       id="path8" /><path
       d="m 354,27.39 -70.3,96.91 46.4,97.6 -56.2,43.6 33,74.4 -30.2,63.2 69.8,48.8 31.6,29.5 31.6,-13.3 L 365.9,335 421.4,298.5 423.5,152.4 366.6,50.57 Z M 116.6,55.48 89.9,123.6 c 0,0 33.7,65.3 35.8,68.8 2.1,3.6 -7,118 -7,118 l 42.8,73.8 c 0,0 9.9,-82.9 7.1,-83.6 -2.8,-0.7 -29.5,-42.1 -29.5,-42.1 L 162.9,174.2 126.4,137 Z"
       color="#000000"
       overflow="visible"
       fill="#f2dbb9"
       fill-rule="evenodd"
       filter="url(#c)"
       enable-background="accumulate"
       id="path9" /><path
       d="M 39.33,172.1 33.71,280.2 74.45,328 42.84,464.9 139.8,425.6 170,468.5 244.4,429.8 163.6,259.9 103.2,243 Z"
       color="#000000"
       overflow="visible"
       fill="#eed3a4"
       fill-rule="evenodd"
       enable-background="accumulate"
       filter="url(#d)"
       id="path10" /><path
       d="M 266.9,66.72 324.5,191 434,221.2 455.8,109.6 414.4,40.74 Z"
       color="#000000"
       overflow="visible"
       fill="#eed3a4"
       fill-rule="evenodd"
       enable-background="accumulate"
       filter="url(#e)"
       id="path11" /></svg><path
     style="fill:#3e3126;fill-opacity:1;stroke-width:0.613168"
     d="m 89.768261,406.79714 c -1.601344,-0.29312 -3.25692,-0.71114 -3.678988,-0.92904 -0.422067,-0.21781 -1.687168,-0.81651 -2.811282,-1.33047 -2.557405,-1.16916 -8.25037,-6.82625 -9.44186,-9.3824 -2.092473,-4.48902 -2.266825,-5.13361 -2.478574,-9.16559 -0.329499,-6.27153 0.340534,-9.13572 3.354546,-14.33922 0.911597,-1.5738 1.788242,-3.13742 1.948108,-3.47466 0.159864,-0.33724 0.654533,-1.16495 1.099258,-1.83945 0.444639,-0.6745 0.938635,-1.50229 1.097658,-1.83954 0.159023,-0.33726 1.597046,-2.825 3.1956,-5.52847 1.598484,-2.70337 3.035999,-5.18667 3.19451,-5.51844 0.158355,-0.33187 0.651843,-1.1551 1.096571,-1.82961 0.44464,-0.67448 0.938632,-1.50228 1.09766,-1.83952 0.159017,-0.33726 1.597036,-2.825 3.195609,-5.5284 1.598551,-2.70347 3.036076,-5.18676 3.19451,-5.51852 0.158355,-0.33178 0.651841,-1.15511 1.096559,-1.82961 0.44464,-0.6745 0.938643,-1.50229 1.097661,-1.83954 0.334974,-0.71029 6.061123,-10.53269 6.672533,-11.44581 0.22582,-0.33725 0.53822,-0.8876 0.69412,-1.22315 0.31434,-0.67628 7.24175,-12.5215 7.89099,-13.49289 0.22538,-0.33725 0.53745,-0.88759 0.69335,-1.22316 0.31435,-0.67627 7.24176,-12.52149 7.89098,-13.49289 0.2254,-0.33725 0.53611,-0.88903 0.69042,-1.22628 0.15439,-0.33725 1.90069,-3.34654 3.88081,-6.68745 1.9801,-3.34073 3.60023,-6.13685 3.60023,-6.21333 0,-0.0766 0.55851,-0.96684 1.24127,-1.97842 1.79413,-2.65833 5.77736,-6.10761 8.69779,-7.53175 5.54961,-2.70633 1.30958,-2.54258 62.82359,-2.42593 l 55.79831,0.10568 v 23.09597 23.09605 l -47.53403,0.10401 c -44.79612,0.0979 -47.54962,0.14494 -47.80525,0.81751 -0.14908,0.39249 -1.57901,2.92548 -3.17749,5.62895 -1.59857,2.70337 -3.03618,5.18667 -3.19452,5.51844 -0.15843,0.33187 -0.65192,1.15519 -1.09656,1.8297 -0.44472,0.67448 -0.93872,1.50218 -1.09775,1.83945 -0.159,0.33724 -1.59705,2.82498 -3.1956,5.52838 -1.59848,2.70347 -3.03608,5.18676 -3.19444,5.51852 -0.15842,0.33178 -0.65191,1.15519 -1.09663,1.82969 -0.44473,0.6745 -0.93813,1.49774 -1.09657,1.82951 -0.15843,0.33187 -1.59595,2.81515 -3.19452,5.51853 -1.59847,2.70338 -3.03658,5.19122 -3.19552,5.52847 -0.15909,0.33725 -0.653,1.16505 -1.09773,1.83954 -1.19773,1.81662 -1.33738,2.18689 -1.07847,2.86139 0.20839,0.5431 14.05951,0.61318 121.2595,0.61318 111.66904,0 121.04404,-0.0514 121.2808,-0.66878 0.14117,-0.36772 0.0422,-0.96559 -0.21975,-1.32844 -0.26212,-0.36294 -0.60292,-0.93131 -0.75739,-1.26308 -0.15454,-0.33177 -1.58887,-2.81514 -3.18742,-5.51853 -1.59849,-2.70338 -3.0366,-5.19121 -3.19553,-5.52846 -0.15912,-0.33725 -0.6531,-1.16498 -1.09775,-1.83946 -0.44472,-0.6745 -0.9382,-1.49782 -1.09656,-1.82958 -0.15843,-0.33179 -1.59594,-2.81518 -3.19451,-5.51855 -1.59846,-2.70336 -3.03659,-5.19122 -3.1956,-5.52845 -0.15903,-0.33725 -0.65303,-1.16497 -1.09765,-1.83948 -0.44474,-0.67449 -0.93823,-1.49781 -1.09659,-1.82959 -0.1585,-0.33177 -1.59593,-2.81515 -3.19451,-5.51852 -1.59856,-2.70339 -3.03657,-5.19122 -3.1956,-5.5284 -0.15902,-0.33725 -0.65301,-1.16503 -1.09766,-1.83953 -0.44473,-0.6745 -0.93872,-1.50229 -1.09774,-1.83954 -0.15903,-0.33724 -1.63267,-2.88515 -3.27469,-5.66204 -1.64211,-2.777 -2.98563,-5.10465 -2.98563,-5.17271 0,-0.0682 -1.34689,-2.39466 -2.99321,-5.17049 -1.64632,-2.77582 -3.11997,-5.32278 -3.27478,-5.66003 -0.15481,-0.33725 -0.64537,-1.16495 -1.08999,-1.83945 -0.44473,-0.67451 -0.93822,-1.49783 -1.09657,-1.82969 -0.15852,-0.33177 -1.59602,-2.81506 -3.19451,-5.51845 -1.59856,-2.70337 -3.03658,-5.19121 -3.1956,-5.52838 -0.15903,-0.33724 -0.65303,-1.16504 -1.09767,-1.83953 -0.44472,-0.6745 -0.93963,-1.50163 -1.09985,-1.83803 -0.1602,-0.33649 -1.32457,-2.3599 -2.58757,-4.49658 -1.2629,-2.13671 -2.42355,-4.16079 -2.57923,-4.49802 -0.15556,-0.33726 -0.64669,-1.16505 -1.09141,-1.83956 -0.44473,-0.67448 -0.93822,-1.49782 -1.09658,-1.8296 -0.15842,-0.33175 -1.59594,-2.81505 -3.1945,-5.51843 -1.59848,-2.70347 -3.03659,-5.19123 -3.19561,-5.52847 -0.15902,-0.33726 -0.65301,-1.16505 -1.09764,-1.83953 -0.44475,-0.67451 -0.93823,-1.49774 -1.09658,-1.82961 -0.15844,-0.33178 -1.59594,-2.81505 -3.19452,-5.51845 -1.59855,-2.70346 -3.03658,-5.19122 -3.1956,-5.52846 -0.15902,-0.33726 -0.65303,-1.16504 -1.09765,-1.83954 -0.44473,-0.67449 -0.93822,-1.49775 -1.09657,-1.82952 -0.15852,-0.33185 -1.59604,-2.81514 -3.19451,-5.51852 -1.59857,-2.70348 -3.03658,-5.19122 -3.19561,-5.52849 -0.15903,-0.33723 -0.65302,-1.16503 -1.09767,-1.83952 -0.44471,-0.6745 -0.9382,-1.49774 -1.09665,-1.82951 -0.15842,-0.33179 -1.63207,-2.87378 -3.27469,-5.64875 -1.6427,-2.77505 -2.98672,-5.10715 -2.98672,-5.18254 0,-0.0758 -1.34698,-2.40816 -2.99321,-5.1839 -1.64631,-2.77582 -3.11997,-5.32278 -3.27478,-5.66005 -0.15482,-0.33723 -0.64535,-1.16502 -1.08998,-1.83952 -0.44473,-0.6745 -0.93881,-1.49943 -1.098,-1.83331 -0.15928,-0.33379 -1.60026,-2.81708 -3.20219,-5.51851 -1.60193,-2.70128 -3.03935,-5.18744 -3.19417,-5.5247 -0.15482,-0.33725 -0.64535,-1.16504 -1.09,-1.83954 -0.4448,-0.67449 -0.93821,-1.49773 -1.09663,-1.8295 -0.3327,-0.69674 -6.06981,-10.53911 -6.6776,-11.45577 -0.22363,-0.33723 -0.533,-0.88464 -0.68757,-1.2164 -0.15447,-0.33178 -1.58878,-2.81517 -3.18733,-5.51853 -1.59856,-2.70339 -3.02875,-5.23722 -3.17826,-5.63065 -0.59743,-1.57244 -1.71784,-0.72797 -3.77215,2.84312 -1.12412,1.95417 -2.54722,4.39029 -3.16258,5.41358 -0.6153,1.02336 -1.24651,2.13644 -1.40258,2.47369 -0.15607,0.33725 -1.31715,2.36142 -2.58006,4.49811 -1.26291,2.13669 -2.42736,4.16019 -2.58749,4.49651 -0.16027,0.33649 -0.6552,1.1636 -1.09985,1.83811 -0.44473,0.6744 -0.9393,1.50219 -1.09908,1.83944 -0.15978,0.33726 -1.32078,2.36074 -2.57991,4.49659 -1.25921,2.13586 -2.42029,4.15935 -2.57997,4.4966 -0.15978,0.33723 -0.65438,1.16504 -1.09911,1.83953 -0.44471,0.67442 -0.93863,1.50221 -1.09764,1.83947 -0.15912,0.33724 -1.63269,2.88521 -3.27479,5.66214 -1.64203,2.7769 -2.98555,5.10967 -2.98555,5.18388 0,0.074 -1.34401,2.40539 -2.98671,5.18043 -1.6427,2.77498 -3.11636,5.31699 -3.27471,5.64876 -0.15843,0.33177 -0.65176,1.15511 -1.09631,1.8296 -0.44454,0.6744 -0.9484,1.5065 -1.11963,1.84889 -0.86074,1.72086 -3.16858,5.59467 -3.70847,6.22444 -0.57208,0.66767 -2.3802,0.71535 -27.09622,0.71535 -14.95837,0 -26.58064,-0.15769 -26.70715,-0.36246 -0.12315,-0.19936 0.0497,-0.58975 0.38466,-0.86753 0.33481,-0.27787 0.60871,-0.66699 0.60871,-0.86468 0,-0.19768 1.34337,-2.61527 2.98522,-5.37248 1.64193,-2.75721 3.11551,-5.28615 3.27478,-5.62002 0.15917,-0.33379 0.65327,-1.15874 1.098,-1.83323 0.44464,-0.67449 0.93803,-1.50227 1.09621,-1.83954 0.32565,-0.69395 7.26618,-12.54632 7.89932,-13.48968 0.22642,-0.33725 0.53915,-0.8876 0.69513,-1.22317 0.1559,-0.33547 1.86548,-3.28008 3.79903,-6.54366 1.93362,-3.26349 3.64631,-6.2081 3.80617,-6.54368 0.15987,-0.33547 0.65446,-1.16174 1.09918,-1.83624 0.44463,-0.6745 0.93863,-1.50229 1.09774,-1.83946 0.15895,-0.33724 1.59704,-2.82508 3.19552,-5.52847 1.59856,-2.70338 3.03608,-5.18675 3.19452,-5.51852 0.15834,-0.33178 0.65183,-1.15511 1.09656,-1.8296 0.44471,-0.6745 0.93862,-1.50221 1.09773,-1.83946 0.15895,-0.33724 1.59706,-2.82509 3.19561,-5.52846 1.59849,-2.70338 3.03601,-5.18677 3.19443,-5.51853 0.15844,-0.33179 0.65184,-1.15511 1.09665,-1.82961 0.44464,-0.67448 0.93865,-1.50218 1.09767,-1.83943 0.15902,-0.33727 1.59704,-2.8251 3.19559,-5.52849 1.59849,-2.70337 3.03601,-5.18675 3.19443,-5.51852 0.15845,-0.33178 0.65193,-1.1551 1.09665,-1.82961 0.44465,-0.67442 0.93865,-1.50221 1.09766,-1.83944 0.15902,-0.33725 1.59704,-2.82511 3.19562,-5.52847 1.59855,-2.70338 3.03599,-5.18676 3.1945,-5.51855 0.15834,-0.33175 0.65185,-1.1551 1.09657,-1.8295 0.44463,-0.6745 0.93954,-1.50229 1.09959,-1.83953 0.16012,-0.33727 2.15159,-3.74907 4.4255,-7.58178 2.274,-3.83271 4.26244,-7.23577 4.41894,-7.56241 0.15642,-0.32663 0.63769,-1.14566 1.06953,-1.82017 0.43191,-0.67449 1.18659,-1.96217 1.6773,-2.86139 2.09122,-3.83287 5.05461,-6.92327 8.56557,-8.932703 3.13058,-1.791774 4.60457,-2.300092 8.48225,-2.925379 7.21539,-1.163447 14.83962,1.344589 19.86743,6.535642 1.70511,1.76053 6.5489,9.16829 8.1387,12.44703 0.17123,0.35317 0.67509,1.19402 1.11964,1.86851 0.44455,0.67441 0.93839,1.5022 1.09741,1.83946 0.15902,0.33725 1.59703,2.82508 3.19561,5.52847 1.59848,2.70338 3.03599,5.18675 3.19443,5.51853 0.15842,0.33177 0.65193,1.1551 1.09665,1.8296 0.44462,0.67441 0.93862,1.5022 1.09765,1.83945 0.15902,0.33724 1.59706,2.8251 3.1956,5.52848 1.59849,2.70336 3.03601,5.18675 3.19452,5.51853 0.15835,0.33175 0.65183,1.1551 1.09655,1.82951 0.44465,0.67449 0.93865,1.50228 1.09766,1.83953 0.15902,0.33726 1.59705,2.82508 3.19562,5.52846 1.59856,2.70337 3.03607,5.18676 3.19451,5.51853 0.15834,0.33178 0.65184,1.15502 1.09656,1.82953 0.44464,0.6745 0.93864,1.50229 1.09766,1.83952 0.15903,0.33725 1.59713,2.82502 3.19561,5.52847 1.59856,2.70339 3.03608,5.18669 3.1945,5.51855 0.15836,0.33176 0.65185,1.15502 1.09658,1.8295 0.44471,0.6745 0.93864,1.50229 1.09774,1.83954 0.15892,0.33726 1.59703,2.82501 3.19551,5.52846 1.59858,2.7034 3.0361,5.18668 3.19453,5.51845 0.15835,0.33186 0.65183,1.15511 1.09656,1.82961 0.44472,0.67449 0.93862,1.50228 1.09775,1.83953 0.15901,0.33724 1.59705,2.82501 3.1956,5.52848 1.59847,2.70337 3.03599,5.18666 3.19442,5.51844 0.15843,0.33176 0.65193,1.1551 1.09665,1.82959 0.44465,0.6745 0.93863,1.50229 1.09765,1.83955 0.15903,0.33724 1.59705,2.825 3.19563,5.52838 1.59846,2.70345 3.03598,5.18676 3.19443,5.51852 0.15842,0.33178 0.65192,1.15511 1.09663,1.8296 0.44464,0.67449 0.93865,1.50228 1.09767,1.83953 0.15903,0.33718 1.59704,2.82501 3.19559,5.5284 1.59858,2.70346 3.03609,5.18674 3.19452,5.51853 0.15834,0.33177 0.65184,1.15509 1.09656,1.8296 0.44465,0.67449 0.93864,1.5022 1.09765,1.83945 0.15903,0.33724 1.59714,2.82509 3.19562,5.52846 1.59856,2.70339 3.03609,5.18676 3.19452,5.51855 0.15835,0.33174 0.65184,1.1551 1.09656,1.82957 0.44471,0.67452 0.93863,1.50222 1.09775,1.83947 0.15892,0.33725 1.59704,2.82508 3.1955,5.52846 1.59858,2.70339 3.03609,5.18677 3.19451,5.51853 0.15836,0.33179 0.65184,1.1551 1.09658,1.82961 0.44473,0.6744 0.93864,1.5022 1.09774,1.83945 0.33487,0.71028 6.06104,10.53279 6.67246,11.4458 0.2259,0.33727 0.53822,0.88769 0.69412,1.22318 0.1559,0.33547 1.86548,3.28008 3.79909,6.54366 1.93356,3.26358 3.64632,6.20818 3.80618,6.54368 0.15986,0.33546 0.65445,1.16184 1.09917,1.83624 0.44466,0.6745 0.93864,1.50228 1.09766,1.83954 0.15903,0.33725 1.59704,2.82509 3.19561,5.52848 1.59857,2.70336 3.03609,5.18665 3.19451,5.51851 0.15835,0.33179 0.65186,1.15501 1.09658,1.82952 0.44462,0.67449 0.93862,1.50229 1.09765,1.83955 0.15901,0.33724 1.59713,2.825 3.1956,5.52846 1.59857,2.70337 3.03609,5.18668 3.19451,5.51855 0.15836,0.33174 0.65184,1.155 1.09656,1.82947 0.44465,0.67453 0.93864,1.50232 1.09775,1.83955 0.15895,0.33728 1.59704,2.825 3.19553,5.52847 1.59855,2.70339 3.03607,5.18667 3.19452,5.51844 0.15833,0.33188 0.65184,1.15511 1.09655,1.82962 0.44472,0.67448 0.93863,1.50228 1.09775,1.83953 0.15894,0.33725 1.59704,2.82501 3.19559,5.52838 1.59849,2.70347 3.03601,5.18676 3.19444,5.51854 0.15843,0.33176 0.65184,1.15509 1.09665,1.82959 0.44464,0.67451 0.93863,1.50229 1.09764,1.83953 0.15903,0.33726 1.59705,2.82501 3.19562,5.5284 1.59848,2.70348 3.03601,5.18676 3.19443,5.51852 0.15844,0.33178 0.65192,1.15511 1.09665,1.82961 0.44464,0.67449 0.93864,1.50228 1.09767,1.83945 0.159,0.33724 1.59703,2.82508 3.1956,5.52847 1.59857,2.70338 3.03598,5.18676 3.1945,5.51852 0.15835,0.33178 0.64099,1.15511 1.0724,1.82961 0.43141,0.67449 1.27605,2.1328 1.87702,3.24083 3.12292,5.75799 3.25684,6.27187 3.25684,12.49715 0,5.80153 -0.0732,6.13499 -2.40496,11.00396 -1.87811,3.9209 -7.49275,8.83408 -12.10667,10.59386 -4.49213,1.71336 1.01124,1.66072 -171.07399,1.63687 -132.9051,-0.0185 -164.471198,-0.12355 -166.831939,-0.55573 z"
     id="path12"
     sodipodi:nodetypes="sssssssssssssssssssssssssssscccssssssssssssssssssssssssssssssssssssssssssssssssssssssssssssssssssssssssssssssssssssssssssssssssssssssssssssssssssssssssssssssssssssssssssssssssssssssssssssssssssssssssssssssssssssssssssssssssssssscsssss" /></svg>
