<?xml version="1.0" encoding="UTF-8" standalone="no"?>
<svg
   viewBox="0 0 512 512"
   style="height: 512px; width: 512px;"
   version="1.1"
   id="svg11"
   sodipodi:docname="spiky-explosion.svg"
   inkscape:version="1.4 (e7c3feb1, 2024-10-09)"
   xmlns:inkscape="http://www.inkscape.org/namespaces/inkscape"
   xmlns:sodipodi="http://sodipodi.sourceforge.net/DTD/sodipodi-0.dtd"
   xmlns="http://www.w3.org/2000/svg"
   xmlns:svg="http://www.w3.org/2000/svg">
  <defs
     id="defs11" />
  <sodipodi:namedview
     id="namedview11"
     pagecolor="#505050"
     bordercolor="#ffffff"
     borderopacity="1"
     inkscape:showpageshadow="0"
     inkscape:pageopacity="0"
     inkscape:pagecheckerboard="1"
     inkscape:deskcolor="#d1d1d1"
     inkscape:zoom="0.82923018"
     inkscape:cx="270.73303"
     inkscape:cy="18.089067"
     inkscape:window-width="1728"
     inkscape:window-height="1051"
     inkscape:window-x="0"
     inkscape:window-y="38"
     inkscape:window-maximized="1"
     inkscape:current-layer="svg11" />
  <path
     d="M0 0h512v512H0z"
     fill="url(#pattern)"
     fill-opacity="1"
     id="path1" />
  <svg
     version="1.1"
     id="svg10">
    <defs
       id="defs5">
      <filter
         id="b"
         x="-0.023338979"
         width="1.046678"
         y="-0.023448784"
         height="1.0468976"
         color-interpolation-filters="sRGB">
        <feGaussianBlur
           stdDeviation="4.823"
           id="feGaussianBlur1" />
      </filter>
      <filter
         id="a"
         x="-0.012011281"
         width="1.0240226"
         y="-0.011988317"
         height="1.0239766"
         color-interpolation-filters="sRGB">
        <feGaussianBlur
           stdDeviation="2.55"
           id="feGaussianBlur2" />
      </filter>
      <filter
         id="c"
         x="-0.11244604"
         width="1.2248921"
         y="-0.082623731"
         height="1.1652475"
         color-interpolation-filters="sRGB">
        <feGaussianBlur
           stdDeviation="15.63"
           id="feGaussianBlur3" />
      </filter>
      <filter
         id="e"
         x="-0.23758603"
         width="1.4751721"
         y="-0.24869778"
         height="1.4973956"
         color-interpolation-filters="sRGB">
        <feGaussianBlur
           stdDeviation="18.7"
           id="feGaussianBlur4" />
      </filter>
      <filter
         id="d"
         x="-0.21301439"
         width="1.4260288"
         y="-0.15141701"
         height="1.302834"
         color-interpolation-filters="sRGB">
        <feGaussianBlur
           stdDeviation="18.7"
           id="feGaussianBlur5" />
      </filter>
    </defs>
    <path
       d="M196.6 1.207c-2.5 11.323-4.8 22.703-10.2 33.383-7-10.68-12.6-20.91-16.7-31.988L2.494 4.338C13 104.9 10.86 175.3 1.979 278.3L15.4 295.5l-9.494 6.3L2.6 462.7l1.019 45.9 112.681 3.1c3.6-16.1 6.5-32.5 13.2-47.3 4.5 14.4 5.7 29.4 7 44.4l160 .3c.8-6.1.7-8.1 2.3-14.4 5.1 4.5 7.8 9.5 10.6 14.5.8-10.1 3.9-19.8 7-29.5 4.8 9.2 6.7 19.4 8.8 29.5l185.2.4-4.6-78.2-21.4-8.2 21.3-4.9 5.8-395.47c-7-6.73-13.3-13.744-18-21.465l-15.1.114-2.1 20.321-1.4 47.23.8 84.87-8.6-97.14c9.3-16.86 2.2-39.69 5.7-55.239-92.1 1.696-184.1.685-276.2-.314z"
       overflow="visible"
       color="#000"
       fill="#ebc893"
       fill-rule="evenodd"
       stroke="#e0aa58"
       enable-background="accumulate"
       id="path5" />
    <path
       d="M196.6 1.203c-2.5 11.327-4.8 22.707-10.2 33.387-7-10.68-12.6-20.91-16.7-31.99L2.494 4.336C13 104.9 10.86 175.3 1.979 278.3L15.4 295.5l-9.494 6.3L2.6 462.7l1.019 45.9 112.681 3.1c.5-2.1-7.9-2.3-7.4-4.5L5.244 504.5l-.914-47.3 4.63-153.7 12.42-9-13.093-16.8C16.95 177.3 16.36 104 6.113 5.992l162.687.164c4 10.804 10.3 24.254 17.1 34.664 5.3-10.41 9.5-25.97 12-37.02 89.8.974 173.8 3.521 263.6 1.867 4.6 1.226 10.6.431 11.3-4.149-92.1 1.696-184.1.684-276.2-.315zm296.9.158l-15.1.116-.6 6.277 13.5-2.557c4.6 7.533 9.7 12.383 16.6 18.943l-4.6 389.06-19.9 9.9 4.1-.6 18.2-4.2 5.8-395.47c-7-6.73-13.3-13.748-18-21.469zm9.6 435.739l3.5 69.7-177.7.1c.4 2.1-4.1.2-3.7 2.3l185.2.4-4.6-78.2zm-370 25.1c-1 2.2-2.9.4-3.7 2.6 4.2 14 5.8 29.5 7.1 44l158 .3c1.9-5 .8-9.7 4.3-14.4 5.1 4.5 7.8 9.5 10.6 14.5.8-10.1 3.9-19.8 7-29.5 1.8 3.4 3.2 7 4.3 10.6-1.4-5.6-2.4-8.3-5.1-13.4-3 9.4-6.7 16.2-7.5 26-2.7-4.9-5.4-9.7-10.4-14.1-3.4 4.6-6.2 9.1-8 14l-147.6 3.4c-3.4-14.6-7.1-30.3-9-44z"
       overflow="visible"
       color="#000"
       opacity=".527"
       fill="#c87137"
       fill-rule="evenodd"
       filter="url(#a)"
       enable-background="accumulate"
       id="path6" />
    <path
       d="M200.1 16.1c-2.3 10.67-10.5 21.38-15.6 31.44-6.6-10.06-13.9-19.69-17.7-30.12L17.34 19.05C24.61 113.6 7.605 179.3 16.85 277l18.26 20.1L10.34 309l7.1 141.6.96 43.3 90.2 3.4c3.4-15.2 15-35.6 21.3-49.6 4.3 13.6 15.4 36.7 16.6 50.9l45.1.8 13.8-18.7 14.4 22.2 68.7-8.6c1.8-4.7 4.5-9.1 7.8-13.5 4.8 4.2 7.4 8.9 10 13.6.8-9.5 7.7-19.6 10.6-28.7 4.5 8.6 19.9 28.9 33.1 33.9l114.6 5.6 22.3-14.7 19.4 14.7-14.5-67.6-34.6-14.2 37.5-15.1 2.1-96.9-14.5-21.9 15.2-13.4 5.1-239.63c-5.2-21.09-11.8-24.89-16.9-20.22l-4.2 2.11 2 19.14.7 44.47-7.1 124.23-18.3-137.78c8.8-15.88-3.9-35.38-.6-50.02-67.1 1.24-140.4-13.332-202.8-3.28-14 2.25-23.7 21.31-36.9 24.48-4.3 1.03-13.9-23.45-18.4-23.5z"
       overflow="visible"
       enable-background="accumulate"
       filter="url(#b)"
       fill-rule="evenodd"
       fill="#f6e7d0"
       color="#000"
       id="path7" />
    <path
       d="M354 27.39l-70.3 96.91 46.4 97.6-56.2 43.6 33 74.4-30.2 63.2 69.8 48.8 31.6 29.5 31.6-13.3L365.9 335l55.5-36.5 2.1-146.1-56.9-101.83zM116.6 55.48L89.9 123.6s33.7 65.3 35.8 68.8c2.1 3.6-7 118-7 118l42.8 73.8s9.9-82.9 7.1-83.6c-2.8-.7-29.5-42.1-29.5-42.1l23.8-84.3-36.5-37.2z"
       color="#000"
       overflow="visible"
       fill="#f2dbb9"
       fill-rule="evenodd"
       filter="url(#c)"
       enable-background="accumulate"
       id="path8" />
    <path
       d="M39.33 172.1l-5.62 108.1L74.45 328 42.84 464.9l96.96-39.3 30.2 42.9 74.4-38.7-80.8-169.9-60.4-16.9z"
       color="#000"
       overflow="visible"
       fill="#eed3a4"
       fill-rule="evenodd"
       enable-background="accumulate"
       filter="url(#d)"
       id="path9" />
    <path
       d="M266.9 66.72L324.5 191 434 221.2l21.8-111.6-41.4-68.86z"
       color="#000"
       overflow="visible"
       fill="#eed3a4"
       fill-rule="evenodd"
       enable-background="accumulate"
       filter="url(#e)"
       id="path10" />
  </svg>
  <g
     class=""
     transform="translate(0,0)"
     style=""
     id="g11">
    <path
       d="m 407.49003,74.468199 c -36.27624,16.124377 -55.83853,44.853921 -64.89258,81.503961 31.98284,-18.38314 54.81665,-44.5295 64.89258,-81.503961 z m -272.7438,2.281558 c 11.80211,26.194993 31.66146,47.307183 58.12617,64.338713 1.19738,-23.71665 -1.45874,-45.258872 -8.43106,-64.337953 -21.87415,-15.927343 -34.70564,-4.726713 -49.69511,0 z m 169.93846,7.223034 c -20.88883,43.399739 -37.88921,87.543289 -51.58767,132.321229 -9.90727,-30.575 -22.27615,-60.6516 -37.41816,-90.16825 0.18766,27.69095 2.67435,54.6343 7.17593,80.92198 -29.58732,-26.83319 -60.75038,-52.34287 -93.67227,-76.37102 22.73352,33.32912 47.28743,64.55448 73.42316,93.94882 -20.13515,-6.24827 -43.23791,-7.70776 -66.91962,-4.53577 14.92548,11.366 32.44401,21.39179 51.04976,27.35134 -36.78983,2.09466 -73.73162,5.9436 -110.839799,11.73829 31.537619,5.96031 62.946079,10.16178 94.242849,12.79587 -16.76257,6.76642 -33.36484,14.32451 -49.7916,22.75176 30.85232,-0.20894 60.77848,-3.26697 89.90235,-8.79574 -12.71838,16.51414 -24.04183,34.31226 -34.18158,53.20444 19.55241,-11.48756 37.97126,-24.22113 55.12359,-38.35038 -9.50003,44.25447 -16.19048,89.0461 -20.58341,134.27838 16.4488,-38.43395 31.18357,-77.49015 43.97261,-117.25217 8.5716,21.33101 18.3839,42.25783 29.29328,62.82908 -1.8842,-28.3679 -5.31831,-56.42279 -10.47936,-84.12818 35.58106,32.73044 73.3168,62.97039 112.80302,91.18406 -29.51286,-39.40872 -60.96159,-77.18853 -94.65388,-113.08261 49.51353,-1.89787 98.77405,-7.2633 147.83097,-15.43375 -36.08858,-5.18004 -72.2972,-8.97048 -108.63802,-11.22545 14.89661,-6.56204 29.60023,-13.72125 44.12532,-21.4237 -27.78137,1.84394 -55.26263,5.16941 -82.40884,10.15267 9.23867,-12.40991 17.79889,-25.56895 25.61529,-39.54548 -12.72977,6.24066 -24.68687,13.19398 -35.94954,20.78702 10.0501,-43.73404 17.67201,-88.34787 22.56486,-133.951679 z m 132.9959,22.507879 c -37.03675,20.66925 -67.76675,52.48418 -91.121,97.51513 35.19966,-0.75824 65.28994,-9.8047 91.12024,-25.57807 11.63261,-32.70348 7.74505,-53.76682 0,-71.93706 z M 81.411116,157.01531 c -0.976291,-0.008 -1.95866,-0.003 -2.946348,0.0114 18.332998,27.06415 42.874752,41.89009 77.304012,37.2548 -18.65969,-25.98074 -44.06149,-37.03827 -74.357664,-37.2662 z M 365.62196,293.40506 c -7.99799,-0.0228 -16.28013,0.80686 -24.81375,2.39324 26.5384,27.70387 58.53188,41.23215 98.12903,34.98921 -19.81909,-26.32263 -44.75212,-37.29888 -73.3168,-37.38245 z M 148.5845,310.44418 c -6.08416,0.003 -12.03612,0.42243 -17.83308,1.00289 -19.32448,1.95258 -37.2229,7.28609 -53.689168,16.00205 -19.809398,26.90066 -5.211076,38.16145 0,53.68917 29.016738,-14.97942 55.115998,-37.85882 77.649708,-70.55127 -2.05743,-0.0988 -4.0989,-0.14436 -6.12746,-0.14436 z m 43.85863,37.87782 c -38.33366,17.58843 -53.89202,48.73097 -55.13575,88.39422 32.73044,-20.01207 52.7805,-48.37617 55.13575,-88.39422 z m 119.78673,11.96165 c 0.63212,29.31152 8.16286,54.36459 21.29834,75.87415 20.82553,6.86633 41.47669,12.33768 59.90172,0 -17.21159,-30.84016 -43.70289,-56.42735 -81.20082,-75.87491 z"
       fill="#3e3126"
       fill-opacity="1"
       id="path11"
       sodipodi:nodetypes="ccccccccccccccccccccccccccccccccccccccccccccccccccccccccccccccccc"
       style="stroke-width:0.75976" />
  </g>
</svg>
