<?xml version="1.0" encoding="UTF-8" standalone="no"?>
<svg
   viewBox="0 0 512 512"
   style="height: 512px; width: 512px;"
   version="1.1"
   id="svg12"
   sodipodi:docname="axe-swing copy.svg"
   inkscape:version="1.4 (e7c3feb1, 2024-10-09)"
   xml:space="preserve"
   xmlns:inkscape="http://www.inkscape.org/namespaces/inkscape"
   xmlns:sodipodi="http://sodipodi.sourceforge.net/DTD/sodipodi-0.dtd"
   xmlns="http://www.w3.org/2000/svg"
   xmlns:svg="http://www.w3.org/2000/svg"><sodipodi:namedview
     id="namedview12"
     pagecolor="#505050"
     bordercolor="#ffffff"
     borderopacity="1"
     inkscape:showpageshadow="0"
     inkscape:pageopacity="0"
     inkscape:pagecheckerboard="1"
     inkscape:deskcolor="#d1d1d1"
     inkscape:zoom="0.18571907"
     inkscape:cx="-8.076715"
     inkscape:cy="113.07401"
     inkscape:window-width="1728"
     inkscape:window-height="1051"
     inkscape:window-x="0"
     inkscape:window-y="38"
     inkscape:window-maximized="1"
     inkscape:current-layer="svg12" /><defs
     id="defs2"><radialGradient
       id="lorc-axe-swing-gradient-0"><stop
         offset="0%"
         stop-color="#830000"
         stop-opacity="1"
         id="stop1" /><stop
         offset="100%"
         stop-color="#000"
         stop-opacity="1"
         id="stop2" /></radialGradient></defs><path
     d="M0 0h512v512H0z"
     fill="url(#pattern)"
     id="path2" /><svg
     version="1.1"
     id="svg11"><defs
       id="defs6"><filter
         id="b"
         x="-0.023338979"
         width="1.046678"
         y="-0.023448784"
         height="1.0468976"
         color-interpolation-filters="sRGB"><feGaussianBlur
           stdDeviation="4.823"
           id="feGaussianBlur2" /></filter><filter
         id="a"
         x="-0.012011281"
         width="1.0240226"
         y="-0.011988317"
         height="1.0239766"
         color-interpolation-filters="sRGB"><feGaussianBlur
           stdDeviation="2.55"
           id="feGaussianBlur3" /></filter><filter
         id="c"
         x="-0.11244604"
         width="1.2248921"
         y="-0.082623731"
         height="1.1652475"
         color-interpolation-filters="sRGB"><feGaussianBlur
           stdDeviation="15.63"
           id="feGaussianBlur4" /></filter><filter
         id="e"
         x="-0.23758603"
         width="1.4751721"
         y="-0.24869778"
         height="1.4973956"
         color-interpolation-filters="sRGB"><feGaussianBlur
           stdDeviation="18.7"
           id="feGaussianBlur5" /></filter><filter
         id="d"
         x="-0.21301439"
         width="1.4260288"
         y="-0.15141701"
         height="1.302834"
         color-interpolation-filters="sRGB"><feGaussianBlur
           stdDeviation="18.7"
           id="feGaussianBlur6" /></filter></defs><path
       d="M196.6 1.207c-2.5 11.323-4.8 22.703-10.2 33.383-7-10.68-12.6-20.91-16.7-31.988L2.494 4.338C13 104.9 10.86 175.3 1.979 278.3L15.4 295.5l-9.494 6.3L2.6 462.7l1.019 45.9 112.681 3.1c3.6-16.1 6.5-32.5 13.2-47.3 4.5 14.4 5.7 29.4 7 44.4l160 .3c.8-6.1.7-8.1 2.3-14.4 5.1 4.5 7.8 9.5 10.6 14.5.8-10.1 3.9-19.8 7-29.5 4.8 9.2 6.7 19.4 8.8 29.5l185.2.4-4.6-78.2-21.4-8.2 21.3-4.9 5.8-395.47c-7-6.73-13.3-13.744-18-21.465l-15.1.114-2.1 20.321-1.4 47.23.8 84.87-8.6-97.14c9.3-16.86 2.2-39.69 5.7-55.239-92.1 1.696-184.1.685-276.2-.314z"
       overflow="visible"
       color="#000"
       fill="#ebc893"
       fill-rule="evenodd"
       stroke="#e0aa58"
       enable-background="accumulate"
       id="path6" /><path
       d="M196.6 1.203c-2.5 11.327-4.8 22.707-10.2 33.387-7-10.68-12.6-20.91-16.7-31.99L2.494 4.336C13 104.9 10.86 175.3 1.979 278.3L15.4 295.5l-9.494 6.3L2.6 462.7l1.019 45.9 112.681 3.1c.5-2.1-7.9-2.3-7.4-4.5L5.244 504.5l-.914-47.3 4.63-153.7 12.42-9-13.093-16.8C16.95 177.3 16.36 104 6.113 5.992l162.687.164c4 10.804 10.3 24.254 17.1 34.664 5.3-10.41 9.5-25.97 12-37.02 89.8.974 173.8 3.521 263.6 1.867 4.6 1.226 10.6.431 11.3-4.149-92.1 1.696-184.1.684-276.2-.315zm296.9.158l-15.1.116-.6 6.277 13.5-2.557c4.6 7.533 9.7 12.383 16.6 18.943l-4.6 389.06-19.9 9.9 4.1-.6 18.2-4.2 5.8-395.47c-7-6.73-13.3-13.748-18-21.469zm9.6 435.739l3.5 69.7-177.7.1c.4 2.1-4.1.2-3.7 2.3l185.2.4-4.6-78.2zm-370 25.1c-1 2.2-2.9.4-3.7 2.6 4.2 14 5.8 29.5 7.1 44l158 .3c1.9-5 .8-9.7 4.3-14.4 5.1 4.5 7.8 9.5 10.6 14.5.8-10.1 3.9-19.8 7-29.5 1.8 3.4 3.2 7 4.3 10.6-1.4-5.6-2.4-8.3-5.1-13.4-3 9.4-6.7 16.2-7.5 26-2.7-4.9-5.4-9.7-10.4-14.1-3.4 4.6-6.2 9.1-8 14l-147.6 3.4c-3.4-14.6-7.1-30.3-9-44z"
       overflow="visible"
       color="#000"
       opacity=".527"
       fill="#c87137"
       fill-rule="evenodd"
       filter="url(#a)"
       enable-background="accumulate"
       id="path7" /><path
       d="M200.1 16.1c-2.3 10.67-10.5 21.38-15.6 31.44-6.6-10.06-13.9-19.69-17.7-30.12L17.34 19.05C24.61 113.6 7.605 179.3 16.85 277l18.26 20.1L10.34 309l7.1 141.6.96 43.3 90.2 3.4c3.4-15.2 15-35.6 21.3-49.6 4.3 13.6 15.4 36.7 16.6 50.9l45.1.8 13.8-18.7 14.4 22.2 68.7-8.6c1.8-4.7 4.5-9.1 7.8-13.5 4.8 4.2 7.4 8.9 10 13.6.8-9.5 7.7-19.6 10.6-28.7 4.5 8.6 19.9 28.9 33.1 33.9l114.6 5.6 22.3-14.7 19.4 14.7-14.5-67.6-34.6-14.2 37.5-15.1 2.1-96.9-14.5-21.9 15.2-13.4 5.1-239.63c-5.2-21.09-11.8-24.89-16.9-20.22l-4.2 2.11 2 19.14.7 44.47-7.1 124.23-18.3-137.78c8.8-15.88-3.9-35.38-.6-50.02-67.1 1.24-140.4-13.332-202.8-3.28-14 2.25-23.7 21.31-36.9 24.48-4.3 1.03-13.9-23.45-18.4-23.5z"
       overflow="visible"
       enable-background="accumulate"
       filter="url(#b)"
       fill-rule="evenodd"
       fill="#f6e7d0"
       color="#000"
       id="path8" /><path
       d="M354 27.39l-70.3 96.91 46.4 97.6-56.2 43.6 33 74.4-30.2 63.2 69.8 48.8 31.6 29.5 31.6-13.3L365.9 335l55.5-36.5 2.1-146.1-56.9-101.83zM116.6 55.48L89.9 123.6s33.7 65.3 35.8 68.8c2.1 3.6-7 118-7 118l42.8 73.8s9.9-82.9 7.1-83.6c-2.8-.7-29.5-42.1-29.5-42.1l23.8-84.3-36.5-37.2z"
       color="#000"
       overflow="visible"
       fill="#f2dbb9"
       fill-rule="evenodd"
       filter="url(#c)"
       enable-background="accumulate"
       id="path9" /><path
       d="M39.33 172.1l-5.62 108.1L74.45 328 42.84 464.9l96.96-39.3 30.2 42.9 74.4-38.7-80.8-169.9-60.4-16.9z"
       color="#000"
       overflow="visible"
       fill="#eed3a4"
       fill-rule="evenodd"
       enable-background="accumulate"
       filter="url(#d)"
       id="path10" /><path
       d="M266.9 66.72L324.5 191 434 221.2l21.8-111.6-41.4-68.86z"
       color="#000"
       overflow="visible"
       fill="#eed3a4"
       fill-rule="evenodd"
       enable-background="accumulate"
       filter="url(#e)"
       id="path11" /></svg><path
     style="fill:#3e3126;fill-opacity:1;stroke-width:0.375005"
     d="m 443.5,68.986516 c 0,0.55191 -2.5735,16.15288 -18.5579,112.497904 -6.8505,41.29078 -7.8058,46.59319 -8.5463,47.43548 -0.7555,0.85942 -0.7599,0.8864 -0.047,0.28787 l 0.7871,-0.66042 -0.8316,4.97566 c -0.4574,2.73662 -3.6768,22.14621 -7.1542,43.13244 -3.4775,20.98623 -6.4106,38.15612 -6.5181,38.15532 -0.1412,-10e-4 -6.1199,-43.8894 -8.1224,-59.62437 -1.4684,-11.53852 -5.032,-37.27183 -5.1823,-37.4221 -0.2527,-0.25266 0.2411,-0.88879 -4.5541,5.86696 -2.2478,3.16683 -4.9447,6.96376 -5.993,8.43762 -1.0483,1.47386 -3.2421,4.56204 -4.8751,6.86262 -8.6954,12.25046 -13.1622,18.51029 -14.4088,20.19245 -0.7642,1.03127 -7.6824,10.73453 -15.3737,21.5628 -7.6914,10.82828 -14.4801,20.36279 -15.086,21.1878 -1.8806,2.56053 -15.3124,21.32257 -15.9738,22.31281 -2.0234,3.02948 -19.6407,27.46548 -19.466,27.00037 0.1161,-0.30938 1.1707,-2.75629 2.3434,-5.43758 1.1727,-2.68128 3.1079,-7.15322 4.3004,-9.93763 1.1924,-2.78442 5.7486,-13.33144 10.1248,-23.43783 15.2134,-35.1343 19.8297,-45.80607 23.9266,-55.31326 7.342,-17.03791 12.842,-29.75727 13.9454,-32.25045 0.5933,-1.34064 4.9046,-11.29703 9.5805,-22.1253 4.676,-10.82828 9.3124,-21.54405 10.3032,-23.81283 0.9907,-2.26878 3.4407,-7.92199 5.4444,-12.56268 4.0918,-9.47687 15.6587,-36.25542 18.8603,-43.66341 1.4463,-3.34649 1.9522,-4.8984 1.6315,-5.00529 -0.3693,-0.1231 -0.3689,-0.28218 0,-0.7747 0.399,-0.53028 0.3878,-0.54939 -0.078,-0.13228 -0.2995,0.26813 -0.5445,0.69001 -0.5445,0.93751 0,0.2475 -0.1687,0.45599 -0.375,0.4633 -0.2062,0.007 -0.7434,0.21813 -1.1936,0.46851 -0.6965,0.38728 -21.0792,9.25949 -28.6193,12.45741 -1.3406,0.5686 -6.4032,2.75971 -11.2501,4.86912 -7.935,3.45334 -13.8009,5.98855 -22.1253,9.56246 -1.5469,0.66412 -5.9345,2.5618 -9.7502,4.21706 -7.7336,3.35491 -47.0268,20.34283 -59.8133,25.85958 -4.5376,1.95773 -9.6001,4.1521 -11.2502,4.87639 -5.772,2.53362 -7.9184,3.46616 -13.5939,5.9061 -3.1454,1.35221 -8.2079,3.53863 -11.2502,4.85873 -3.0422,1.3201 -15.5721,6.73628 -27.8441,12.03595 -12.272,5.29968 -25.1674,10.88542 -28.6564,12.41275 -3.489,1.52733 -6.4008,2.71981 -6.4707,2.64995 -0.07,-0.0699 4.8098,-3.64208 10.8437,-7.93828 6.0339,-4.29619 12.9957,-9.27431 15.4708,-11.06247 2.475,-1.78817 12.7689,-9.13363 22.8753,-16.32326 17.1318,-12.18743 51.3051,-36.54386 73.8762,-52.65393 5.3627,-3.82761 9.7947,-7.12804 9.8489,-7.3343 0.058,-0.22261 -7.5498,-1.39891 -18.7228,-2.89466 l -18.8212,-2.51966 -1.5273,-1.41789 -1.5272,-1.4179 1.312,1.4467 1.312,1.4467 -1.125,-0.22237 c -0.6187,-0.1223 -13.9469,-1.92313 -29.618,-4.00185 -15.6712,-2.07871 -28.5405,-3.82695 -28.5985,-3.88498 -0.058,-0.058 14.2826,-2.49297 31.868,-5.411 17.5856,-2.91802 62.0116,-10.291504 98.7246,-16.385504 36.713,-6.09401 77.4667,-12.84337 90.5637,-14.9986 13.0971,-2.15522 24.1926,-4.00813 24.6566,-4.11756 0.5907,-0.13929 0.8438,-0.0289 0.8438,0.36802 z M 242.8722,104.18869 c 0,0.0712 0.3797,0.45086 0.8438,0.84376 l 0.8438,0.71439 -0.7144,-0.84377 c -0.6714,-0.79292 -0.9732,-1.01448 -0.9732,-0.71438 z m 3.0001,3.00004 c 0,0.0712 0.3797,0.45086 0.8437,0.84377 l 0.8438,0.71438 -0.7144,-0.84377 c -0.6713,-0.79292 -0.9731,-1.01447 -0.9731,-0.71438 z m 3,3.00005 c 0,0.0712 0.3797,0.45085 0.8438,0.84376 l 0.8437,0.71438 -0.7143,-0.84376 c -0.6714,-0.79293 -0.9732,-1.01448 -0.9732,-0.71438 z m 3.0001,3.00004 c 0,0.0712 0.3796,0.45085 0.8437,0.84376 l 0.8438,0.71438 -0.7144,-0.84376 c -0.6713,-0.79293 -0.9731,-1.01448 -0.9731,-0.71438 z m 139.8769,2.63724 c 0,0.0779 0.2953,0.37319 0.6562,0.65626 0.5948,0.46646 0.6081,0.45319 0.1416,-0.14159 -0.4899,-0.62466 -0.7978,-0.82331 -0.7978,-0.51467 z m -115.8766,21.36309 c 0,0.0712 0.3797,0.45085 0.8437,0.84376 l 0.8438,0.71438 -0.7144,-0.84376 c -0.6713,-0.79293 -0.9731,-1.01448 -0.9731,-0.71438 z m 3,3.00004 c 0,0.0712 0.3797,0.45085 0.8438,0.84376 l 0.8438,0.71438 -0.7144,-0.84376 c -0.6714,-0.79292 -0.9732,-1.01448 -0.9732,-0.71438 z m 3.0001,3.00004 c 0,0.0712 0.3797,0.45086 0.8437,0.84376 l 0.8438,0.71439 -0.7144,-0.84377 c -0.6713,-0.79292 -0.9731,-1.01448 -0.9731,-0.71438 z m 3,3.00004 c 0,0.0712 0.3797,0.45086 0.8438,0.84377 l 0.8437,0.71438 -0.7143,-0.84376 c -0.6714,-0.79293 -0.9732,-1.01448 -0.9732,-0.71439 z m 3.0001,3.00005 c 0,0.0712 0.3796,0.45085 0.8437,0.84376 l 0.8438,0.71438 -0.7144,-0.84376 c -0.6713,-0.79293 -0.9731,-1.01448 -0.9731,-0.71438 z m 3,3.00004 c 0,0.0712 0.3797,0.45085 0.8438,0.84376 l 0.8437,0.71438 -0.7144,-0.84376 c -0.6713,-0.79293 -0.9731,-1.01448 -0.9731,-0.71438 z m 3,3.00004 c 0,0.0712 0.3797,0.45085 0.8438,0.84376 l 0.8438,0.71438 -0.7144,-0.84376 c -0.6714,-0.79293 -0.9732,-1.01448 -0.9732,-0.71438 z m 63.3759,62.63807 c 0,0.0779 0.2953,0.37319 0.6563,0.65626 0.5948,0.46646 0.608,0.4532 0.1416,-0.14159 -0.4899,-0.62466 -0.7979,-0.82331 -0.7979,-0.51467 z m 1.875,1.85078 c 0,0.0645 0.5485,0.61299 1.2188,1.21877 l 1.2188,1.10143 -1.1015,-1.21877 c -1.0267,-1.13607 -1.3361,-1.39114 -1.3361,-1.10143 z m 3.0001,3.00005 c 0,0.0645 0.5484,0.61298 1.2187,1.21876 l 1.2188,1.10143 -1.1014,-1.21877 c -1.0267,-1.13606 -1.3361,-1.39114 -1.3361,-1.10142 z m 3,3.00004 c 0,0.0645 0.5485,0.61298 1.2188,1.21876 l 1.2187,1.10143 -1.1014,-1.21877 c -1.0267,-1.13606 -1.3361,-1.39114 -1.3361,-1.10142 z m 3.0001,3.00004 c 0,0.0645 0.5484,0.61298 1.2187,1.21877 l 1.2188,1.10142 -1.1014,-1.21877 c -1.0267,-1.13606 -1.3361,-1.39114 -1.3361,-1.10142 z m 3,3.00004 c 0,0.0645 0.5484,0.61298 1.2188,1.21877 l 1.2187,1.10142 -1.1014,-1.21877 c -1.0267,-1.13606 -1.3361,-1.39113 -1.3361,-1.10142 z m 25.1253,25.14959 c 0,0.0779 0.2954,0.37319 0.6563,0.65626 0.5948,0.46646 0.608,0.4532 0.1416,-0.14159 -0.4899,-0.62466 -0.7979,-0.82331 -0.7979,-0.51467 z m 1.8751,1.85078 c 0,0.0645 0.5484,0.61298 1.2187,1.21877 l 1.2188,1.10142 -1.1014,-1.21877 c -1.0267,-1.13606 -1.3361,-1.39113 -1.3361,-1.10142 z m 3,3.00004 c 0,0.0645 0.5485,0.61298 1.2188,1.21877 l 1.2187,1.10142 -1.1014,-1.21876 c -1.0267,-1.13607 -1.3361,-1.39114 -1.3361,-1.10143 z m 3.0001,3.00004 c 0,0.0645 0.5484,0.61299 1.2187,1.21877 l 1.2188,1.10142 -1.1014,-1.21876 c -1.0267,-1.13607 -1.3361,-1.39114 -1.3361,-1.10143 z m 3,3.02429 c 0,0.0779 0.2953,0.37318 0.6563,0.65626 0.5948,0.46646 0.608,0.45319 0.1416,-0.14159 -0.4899,-0.62466 -0.7979,-0.82332 -0.7979,-0.51467 z M 371.874,139.92798 c 0,0.13375 -1.0862,2.40339 -2.4137,5.04365 -5.286,10.51278 -16.3755,27.74838 -26.2426,40.7868 -1.4611,1.93079 -3.3316,4.45885 -4.1566,5.6179 -5.0827,7.14062 -25.1882,31.62912 -34.8397,42.43478 -21.3791,23.93564 -26.3108,29.06705 -71.2125,74.09711 l -31.4441,31.53403 1.6652,2.77895 c 0.9159,1.52842 4.1572,6.99775 7.2029,12.15407 3.0456,5.15633 6.1078,10.32839 6.8049,11.49348 l 1.2673,2.11834 1.743,-0.52457 c 5.3981,-1.62459 11.2757,0.48565 14.5241,5.21465 5.2851,7.69379 1.2408,17.97924 -8.0004,20.34673 -3.0725,0.78713 -5.641,0.47905 -8.7358,-1.04783 -2.0536,-1.01322 -4.7233,-3.52852 -21.0675,-19.84928 -10.2937,-10.27896 -18.8293,-18.68903 -18.9679,-18.68903 -0.1387,0 -0.8271,0.80157 -1.5299,1.78128 -2.1167,2.95068 -11.8031,14.94262 -16.4328,20.34403 -9.419,10.98889 -16.6542,18.48951 -24.4323,25.32854 -6.2024,5.45356 -16.38312,13.05719 -25.58627,19.10957 l -6.27253,4.12506 v 1.88998 c 0,2.55769 -0.90099,5.83341 -2.34911,8.55038 -2.932801,5.50246 -8.854811,8.8724 -15.591551,8.8724 -9.34989,0 -17.32291,-7.93544 -17.30611,-17.22455 0.0169,-9.42986 7.32332,-16.94296 16.99662,-17.47772 1.64526,-0.091 3.02663,-0.20933 3.06972,-0.26304 0.0431,-0.0537 1.31979,-2.03832 2.83714,-4.41023 1.51734,-2.3719 4.35249,-6.59071 6.30035,-9.37513 2.982151,-4.26293 4.638921,-6.49249 8.916941,-11.9998 6.92065,-8.90926 17.52531,-19.79769 29.1882,-29.96932 4.3293,-3.77574 13.2768,-11.04098 19.4392,-15.78429 1.204,-0.9267 2.5172,-1.94285 2.9184,-2.25813 0.6936,-0.54513 -0.2,-1.50052 -18.2389,-19.50027 -21.84677,-21.79929 -21.38308,-21.21331 -21.35139,-26.98299 0.0146,-2.69225 0.1791,-3.52875 1.04547,-5.323 1.32569,-2.74534 3.77331,-5.2085 6.51202,-6.55331 1.9026,-0.93422 2.5987,-1.06804 5.5558,-1.06804 3.0646,0 3.6152,0.1154 5.8905,1.23452 3.8964,1.91643 6.2903,5.22981 7.1001,9.82701 0.3484,1.97811 0.08,5.00544 -0.5975,6.75121 -0.1625,0.41856 2.0521,1.90613 8.6536,5.81259 4.8797,2.88754 11.2344,6.65057 14.1217,8.36228 2.8872,1.71172 5.3829,3.14612 5.5458,3.18755 0.1629,0.0414 17.6461,-17.23344 38.8515,-38.38861 42.9485,-42.84746 50.6948,-50.23601 75.8675,-72.364 12.6999,-11.16376 38.9755,-31.78625 50.7878,-39.86093 8.5711,-5.859 19.4008,-12.72521 24.2133,-15.35162 4.9359,-2.69374 7.6182,-3.99566 7.8882,-3.82879 0.1523,0.0942 0.4855,-0.0801 0.7403,-0.38721 0.4735,-0.57051 1.1216,-0.75265 1.1216,-0.3152 z m -5.4376,4.25689 c -0.3733,0.4125 -0.5944,0.75001 -0.4912,0.75001 0.1031,0 0.4929,-0.33751 0.8662,-0.75001 0.3734,-0.41251 0.5944,-0.75001 0.4913,-0.75001 -0.1031,0 -0.4929,0.3375 -0.8663,0.75001 z m -124.3142,98.75574 c 0,0.0712 0.3797,0.45086 0.8438,0.84377 l 0.8437,0.71438 -0.7143,-0.84376 c -0.6714,-0.79293 -0.9732,-1.01448 -0.9732,-0.71439 z m 3.0001,3.00005 c 0,0.0712 0.3797,0.45085 0.8437,0.84376 l 0.8438,0.71438 -0.7144,-0.84376 c -0.6713,-0.79293 -0.9731,-1.01448 -0.9731,-0.71438 z m 3,3.00004 c 0,0.0712 0.3797,0.45085 0.8438,0.84376 l 0.8437,0.71438 -0.7144,-0.84376 c -0.6713,-0.79293 -0.9731,-1.01448 -0.9731,-0.71438 z m 3,3.00004 c 0,0.0712 0.3797,0.45085 0.8438,0.84376 l 0.8438,0.71438 -0.7144,-0.84376 c -0.6714,-0.79293 -0.9732,-1.01448 -0.9732,-0.71438 z m 2.6251,2.63724 c 0,0.0779 0.2953,0.37319 0.6562,0.65626 0.5948,0.46646 0.6081,0.45319 0.1416,-0.14159 -0.4899,-0.62466 -0.7978,-0.82331 -0.7978,-0.51467 z m 1.4798,1.63169 c -0.7108,0.76906 -0.9453,1.11001 -0.5213,0.75768 0.7275,-0.6044 0.8116,-0.60395 1.4876,0.008 0.6955,0.62964 0.6978,0.62606 0.08,-0.12248 -0.5977,-0.72461 -0.5978,-0.80934 -7e-4,-1.40627 0.3493,-0.34936 0.5477,-0.6352 0.4409,-0.6352 -0.1069,0 -0.7759,0.62923 -1.4866,1.39828 z m 1.8952,1.73115 c 0,0.0712 0.3797,0.45085 0.8438,0.84376 l 0.8437,0.71438 -0.7143,-0.84376 c -0.6714,-0.79292 -0.9732,-1.01448 -0.9732,-0.71438 z m 3.0001,3.00004 c 0,0.0712 0.3797,0.45085 0.8437,0.84376 l 0.8438,0.71438 -0.7144,-0.84376 c -0.6713,-0.79293 -0.9731,-1.01448 -0.9731,-0.71438 z m 3,3.00004 c 0,0.0712 0.3797,0.45085 0.8438,0.84376 l 0.8437,0.71438 -0.7143,-0.84376 c -0.6714,-0.79292 -0.9732,-1.01448 -0.9732,-0.71438 z m 3.0001,3.00004 c 0,0.0712 0.3796,0.45086 0.8437,0.84376 l 0.8438,0.71438 -0.7144,-0.84376 c -0.6713,-0.79292 -0.9731,-1.01448 -0.9731,-0.71438 z"
     id="path1" /></svg>
