<?xml version="1.0" encoding="UTF-8" standalone="no"?>
<svg
   viewBox="0 0 512 512"
   style="height: 512px; width: 512px;"
   version="1.1"
   id="svg12"
   sodipodi:docname="switch-weapon.svg"
   inkscape:version="1.4 (e7c3feb1, 2024-10-09)"
   xmlns:inkscape="http://www.inkscape.org/namespaces/inkscape"
   xmlns:sodipodi="http://sodipodi.sourceforge.net/DTD/sodipodi-0.dtd"
   xmlns="http://www.w3.org/2000/svg"
   xmlns:svg="http://www.w3.org/2000/svg">
  <sodipodi:namedview
     id="namedview12"
     pagecolor="#505050"
     bordercolor="#ffffff"
     borderopacity="1"
     inkscape:showpageshadow="0"
     inkscape:pageopacity="0"
     inkscape:pagecheckerboard="1"
     inkscape:deskcolor="#d1d1d1"
     inkscape:zoom="0.14510137"
     inkscape:cx="223.98134"
     inkscape:cy="337.69494"
     inkscape:window-width="992"
     inkscape:window-height="247"
     inkscape:window-x="0"
     inkscape:window-y="38"
     inkscape:window-maximized="0"
     inkscape:current-layer="svg12" />
  <defs
     id="defs2">
    <radialGradient
       id="delapouite-switch-weapon-gradient-0">
      <stop
         offset="0%"
         stop-color="#830000"
         stop-opacity="1"
         id="stop1" />
      <stop
         offset="100%"
         stop-color="#000"
         stop-opacity="1"
         id="stop2" />
    </radialGradient>
  </defs>
  <path
     d="M0 0h512v512H0z"
     fill="url(#pattern)"
     id="path2" />
  <svg
     version="1.1"
     id="svg11">
    <defs
       id="defs6">
      <filter
         id="b"
         x="-0.023338979"
         width="1.046678"
         y="-0.023448784"
         height="1.0468976"
         color-interpolation-filters="sRGB">
        <feGaussianBlur
           stdDeviation="4.823"
           id="feGaussianBlur2" />
      </filter>
      <filter
         id="a"
         x="-0.012011281"
         width="1.0240226"
         y="-0.011988317"
         height="1.0239766"
         color-interpolation-filters="sRGB">
        <feGaussianBlur
           stdDeviation="2.55"
           id="feGaussianBlur3" />
      </filter>
      <filter
         id="c"
         x="-0.11244604"
         width="1.2248921"
         y="-0.082623731"
         height="1.1652475"
         color-interpolation-filters="sRGB">
        <feGaussianBlur
           stdDeviation="15.63"
           id="feGaussianBlur4" />
      </filter>
      <filter
         id="e"
         x="-0.23758603"
         width="1.4751721"
         y="-0.24869778"
         height="1.4973956"
         color-interpolation-filters="sRGB">
        <feGaussianBlur
           stdDeviation="18.7"
           id="feGaussianBlur5" />
      </filter>
      <filter
         id="d"
         x="-0.21301439"
         width="1.4260288"
         y="-0.15141701"
         height="1.302834"
         color-interpolation-filters="sRGB">
        <feGaussianBlur
           stdDeviation="18.7"
           id="feGaussianBlur6" />
      </filter>
    </defs>
    <path
       d="M196.6 1.207c-2.5 11.323-4.8 22.703-10.2 33.383-7-10.68-12.6-20.91-16.7-31.988L2.494 4.338C13 104.9 10.86 175.3 1.979 278.3L15.4 295.5l-9.494 6.3L2.6 462.7l1.019 45.9 112.681 3.1c3.6-16.1 6.5-32.5 13.2-47.3 4.5 14.4 5.7 29.4 7 44.4l160 .3c.8-6.1.7-8.1 2.3-14.4 5.1 4.5 7.8 9.5 10.6 14.5.8-10.1 3.9-19.8 7-29.5 4.8 9.2 6.7 19.4 8.8 29.5l185.2.4-4.6-78.2-21.4-8.2 21.3-4.9 5.8-395.47c-7-6.73-13.3-13.744-18-21.465l-15.1.114-2.1 20.321-1.4 47.23.8 84.87-8.6-97.14c9.3-16.86 2.2-39.69 5.7-55.239-92.1 1.696-184.1.685-276.2-.314z"
       overflow="visible"
       color="#000"
       fill="#ebc893"
       fill-rule="evenodd"
       stroke="#e0aa58"
       enable-background="accumulate"
       id="path6" />
    <path
       d="M196.6 1.203c-2.5 11.327-4.8 22.707-10.2 33.387-7-10.68-12.6-20.91-16.7-31.99L2.494 4.336C13 104.9 10.86 175.3 1.979 278.3L15.4 295.5l-9.494 6.3L2.6 462.7l1.019 45.9 112.681 3.1c.5-2.1-7.9-2.3-7.4-4.5L5.244 504.5l-.914-47.3 4.63-153.7 12.42-9-13.093-16.8C16.95 177.3 16.36 104 6.113 5.992l162.687.164c4 10.804 10.3 24.254 17.1 34.664 5.3-10.41 9.5-25.97 12-37.02 89.8.974 173.8 3.521 263.6 1.867 4.6 1.226 10.6.431 11.3-4.149-92.1 1.696-184.1.684-276.2-.315zm296.9.158l-15.1.116-.6 6.277 13.5-2.557c4.6 7.533 9.7 12.383 16.6 18.943l-4.6 389.06-19.9 9.9 4.1-.6 18.2-4.2 5.8-395.47c-7-6.73-13.3-13.748-18-21.469zm9.6 435.739l3.5 69.7-177.7.1c.4 2.1-4.1.2-3.7 2.3l185.2.4-4.6-78.2zm-370 25.1c-1 2.2-2.9.4-3.7 2.6 4.2 14 5.8 29.5 7.1 44l158 .3c1.9-5 .8-9.7 4.3-14.4 5.1 4.5 7.8 9.5 10.6 14.5.8-10.1 3.9-19.8 7-29.5 1.8 3.4 3.2 7 4.3 10.6-1.4-5.6-2.4-8.3-5.1-13.4-3 9.4-6.7 16.2-7.5 26-2.7-4.9-5.4-9.7-10.4-14.1-3.4 4.6-6.2 9.1-8 14l-147.6 3.4c-3.4-14.6-7.1-30.3-9-44z"
       overflow="visible"
       color="#000"
       opacity=".527"
       fill="#c87137"
       fill-rule="evenodd"
       filter="url(#a)"
       enable-background="accumulate"
       id="path7" />
    <path
       d="M200.1 16.1c-2.3 10.67-10.5 21.38-15.6 31.44-6.6-10.06-13.9-19.69-17.7-30.12L17.34 19.05C24.61 113.6 7.605 179.3 16.85 277l18.26 20.1L10.34 309l7.1 141.6.96 43.3 90.2 3.4c3.4-15.2 15-35.6 21.3-49.6 4.3 13.6 15.4 36.7 16.6 50.9l45.1.8 13.8-18.7 14.4 22.2 68.7-8.6c1.8-4.7 4.5-9.1 7.8-13.5 4.8 4.2 7.4 8.9 10 13.6.8-9.5 7.7-19.6 10.6-28.7 4.5 8.6 19.9 28.9 33.1 33.9l114.6 5.6 22.3-14.7 19.4 14.7-14.5-67.6-34.6-14.2 37.5-15.1 2.1-96.9-14.5-21.9 15.2-13.4 5.1-239.63c-5.2-21.09-11.8-24.89-16.9-20.22l-4.2 2.11 2 19.14.7 44.47-7.1 124.23-18.3-137.78c8.8-15.88-3.9-35.38-.6-50.02-67.1 1.24-140.4-13.332-202.8-3.28-14 2.25-23.7 21.31-36.9 24.48-4.3 1.03-13.9-23.45-18.4-23.5z"
       overflow="visible"
       enable-background="accumulate"
       filter="url(#b)"
       fill-rule="evenodd"
       fill="#f6e7d0"
       color="#000"
       id="path8" />
    <path
       d="M354 27.39l-70.3 96.91 46.4 97.6-56.2 43.6 33 74.4-30.2 63.2 69.8 48.8 31.6 29.5 31.6-13.3L365.9 335l55.5-36.5 2.1-146.1-56.9-101.83zM116.6 55.48L89.9 123.6s33.7 65.3 35.8 68.8c2.1 3.6-7 118-7 118l42.8 73.8s9.9-82.9 7.1-83.6c-2.8-.7-29.5-42.1-29.5-42.1l23.8-84.3-36.5-37.2z"
       color="#000"
       overflow="visible"
       fill="#f2dbb9"
       fill-rule="evenodd"
       filter="url(#c)"
       enable-background="accumulate"
       id="path9" />
    <path
       d="M39.33 172.1l-5.62 108.1L74.45 328 42.84 464.9l96.96-39.3 30.2 42.9 74.4-38.7-80.8-169.9-60.4-16.9z"
       color="#000"
       overflow="visible"
       fill="#eed3a4"
       fill-rule="evenodd"
       enable-background="accumulate"
       filter="url(#d)"
       id="path10" />
    <path
       d="M266.9 66.72L324.5 191 434 221.2l21.8-111.6-41.4-68.86z"
       color="#000"
       overflow="visible"
       fill="#eed3a4"
       fill-rule="evenodd"
       enable-background="accumulate"
       filter="url(#e)"
       id="path11" />
  </svg>
  <path
     id="path12"
     style="fill:#3e3126;fill-opacity:1;stroke-width:0.768688"
     d="m 130.52235,70.80184 -24.59802,49.19603 v 66.87585 c -0.0655,1.55573 -0.0636,3.0608 0,4.52205 v 76.26224 15.92775 15.92626 h 17.81045 l 0.6801,-17.97859 2.18295,-57.72966 3.92452,-103.8059 4.10768,108.63572 2.28204,60.36903 0.39785,10.51091 h 8.90597 8.90448 v -1.36472 l -0.45491,-60.02673 c 0.14912,0.0615 0.30501,0.11944 0.45491,0.18017 V 119.99787 Z m 84.15031,0 c -14.09232,0 -28.18473,28.18561 -28.18473,56.37095 0,1.73106 0.056,3.46136 0.15915,5.18564 0.032,0.53559 0.0966,1.06481 0.13812,1.59893 0.0916,1.176 0.18049,2.35181 0.31678,3.51765 0.0859,0.7363 0.20771,1.45955 0.31078,2.19046 0.13381,0.94749 0.25725,1.89816 0.41887,2.83454 0.14311,0.83036 0.31934,1.64224 0.48344,2.4622 0.16364,0.81649 0.31478,1.6381 0.49844,2.44268 0.19568,0.85831 0.42205,1.69287 0.63958,2.53578 0.19289,0.74655 0.37619,1.49794 0.58553,2.23099 0.24451,0.85723 0.51468,1.68696 0.78069,2.52376 0.21499,0.67568 0.42321,1.35667 0.65159,2.0178 0.2953,0.85567 0.61116,1.68113 0.92782,2.51025 0.23328,0.61037 0.46139,1.22477 0.70564,1.81964 0.33892,0.82585 0.69493,1.61896 1.05394,2.41265 0.17125,0.37852 0.32884,0.78074 0.50445,1.15153 0.009,0.001 0.0193,0.005 0.0285,0.006 5.34632,11.27655 12.65442,18.92894 19.98138,18.92894 0,-5.00318 0.0322,-9.99796 2.55828,-14.36937 0.32885,-0.56899 0.7138,-1.1247 1.13352,-1.67099 0.10926,-0.14214 0.19937,-0.28889 0.31528,-0.42939 1.12384,-1.363 2.57038,-2.64457 4.41696,-3.82692 0.23112,-0.14786 0.50516,-0.28474 0.74917,-0.42938 0.71222,-0.42252 1.46457,-0.83453 2.29255,-1.22811 0.38272,-0.18175 0.80281,-0.35473 1.21159,-0.52997 0.78095,-0.33509 1.60544,-0.65975 2.48622,-0.96987 0.5076,-0.17856 1.0341,-0.35257 1.57642,-0.52247 0.91791,-0.28781 1.90276,-0.55789 2.92461,-0.81973 0.59312,-0.15184 1.17652,-0.30617 1.80611,-0.4489 1.12321,-0.25486 2.34549,-0.48553 3.58972,-0.71014 0.65476,-0.11814 1.26669,-0.24643 1.95625,-0.35582 1.84337,-0.2927 3.80822,-0.55467 5.91228,-0.78219 0.13434,-0.0146 0.24592,-0.0353 0.38136,-0.0496 v -0.001 -49.02487 c -1.16875,-0.5612 -2.32188,-1.15562 -3.45611,-1.77909 -3.40265,-1.87046 -6.63758,-4.00409 -9.63712,-6.296644 -1.99969,-1.528366 -3.89542,-3.127782 -5.66457,-4.76676 -3.53799,-3.277684 -6.57402,-6.71435 -8.94349,-10.065014 v -0.0012 c -3.55437,-5.026529 -5.60903,-9.857237 -5.60903,-13.662224 z m 112.74189,0 c 0,3.170824 -1.42651,7.054651 -3.95904,11.170001 -2.53252,4.115267 -6.17058,8.461276 -10.59348,12.558739 -1.76916,1.638978 -3.66487,3.238394 -5.66457,4.76676 -2.99955,2.29255 -6.23446,4.42619 -9.63713,6.29664 -1.13421,0.62344 -2.28734,1.21796 -3.45609,1.77909 v 49.02488 0.001 c 0.13544,0.0142 0.24701,0.035 0.38134,0.0495 2.10408,0.22752 4.06893,0.48949 5.9123,0.78221 0.68956,0.10938 1.30148,0.23772 1.95625,0.35581 1.24422,0.22461 2.4665,0.45528 3.58971,0.71013 0.6296,0.14274 1.213,0.29706 1.80612,0.44891 1.02185,0.26184 2.0067,0.53191 2.92461,0.81973 0.54232,0.16989 1.0688,0.34391 1.57642,0.52247 0.88078,0.31011 1.70527,0.63478 2.48622,0.96987 0.40878,0.17523 0.82887,0.34822 1.21159,0.52997 0.82798,0.39358 1.58033,0.80558 2.29255,1.22811 0.24401,0.14463 0.51805,0.28151 0.74917,0.42938 1.84657,1.18235 3.29311,2.46392 4.41695,3.82692 0.11589,0.14049 0.20603,0.28724 0.31529,0.42938 0.41972,0.54629 0.80467,1.10201 1.13351,1.671 2.52607,4.3714 2.55828,9.36618 2.55828,14.36937 7.32696,0 14.63507,-7.65239 19.98138,-18.92894 0.009,-0.001 0.0193,-0.005 0.0285,-0.006 0.1756,-0.3708 0.33321,-0.77301 0.50446,-1.15154 0.359,-0.79369 0.71502,-1.58679 1.05394,-2.41265 0.24425,-0.59487 0.47236,-1.20926 0.70563,-1.81963 0.31666,-0.82911 0.63252,-1.65458 0.92783,-2.51025 0.22838,-0.66113 0.4366,-1.34212 0.65159,-2.0178 0.26599,-0.8368 0.53618,-1.66654 0.7807,-2.52376 0.20933,-0.73306 0.39262,-1.48445 0.58552,-2.231 0.21753,-0.84291 0.4439,-1.67745 0.63957,-2.53576 0.18367,-0.80459 0.33481,-1.6262 0.49845,-2.44269 0.16409,-0.81996 0.34032,-1.63184 0.48343,-2.46221 0.16162,-0.93638 0.28505,-1.88703 0.41887,-2.83453 0.1031,-0.73091 0.22484,-1.45417 0.31079,-2.19045 0.13628,-1.16584 0.22521,-2.34166 0.31678,-3.51765 0.0415,-0.53414 0.10618,-1.06336 0.13812,-1.59895 0.10322,-1.72415 0.15915,-3.45457 0.15915,-5.18564 0,-28.185334 -14.09242,-56.370944 -28.18474,-56.370944 z m -65.59519,19.217203 v 94.434507 8.56967 51.68075 7.68538 82.07245 h 18.4485 V 252.38935 193.02322 90.019043 Z M 379.93155,190.09259 c -36.89683,0 -21.52323,24.59803 -15.37375,24.59803 v 61.49503 h 30.74751 v -61.49503 c 6.14947,0 21.52308,-24.59803 -15.37376,-24.59803 z m -42.27784,97.62338 v 14.96239 h 84.55568 V 287.71597 Z M 88.244517,313.34991 v 14.96239 h 84.555673 v -14.96239 z m 306.889653,3.16483 -30.40522,10e-4 15.2026,104.8268 z m -279.98558,23.32788 v 61.49503 c -6.14947,0 -21.523109,24.59801 15.37376,24.59801 36.89687,0 21.52324,-24.59801 15.37376,-24.59801 v -61.49503 z m 146.67077,8.45557 v 72.25666 h 18.4485 v -72.25666 z" />
</svg>
