<?xml version="1.0" encoding="UTF-8" standalone="no"?>
<svg
   viewBox="0 0 512 512"
   style="height: 512px; width: 512px;"
   version="1.1"
   id="svg12"
   sodipodi:docname="sword-brandish.svg"
   inkscape:version="1.4 (e7c3feb1, 2024-10-09)"
   xmlns:inkscape="http://www.inkscape.org/namespaces/inkscape"
   xmlns:sodipodi="http://sodipodi.sourceforge.net/DTD/sodipodi-0.dtd"
   xmlns="http://www.w3.org/2000/svg"
   xmlns:svg="http://www.w3.org/2000/svg">
  <sodipodi:namedview
     id="namedview12"
     pagecolor="#505050"
     bordercolor="#ffffff"
     borderopacity="1"
     inkscape:showpageshadow="0"
     inkscape:pageopacity="0"
     inkscape:pagecheckerboard="1"
     inkscape:deskcolor="#d1d1d1"
     inkscape:zoom="0.11795046"
     inkscape:cx="12.717204"
     inkscape:cy="1653.2365"
     inkscape:window-width="1728"
     inkscape:window-height="1051"
     inkscape:window-x="0"
     inkscape:window-y="38"
     inkscape:window-maximized="1"
     inkscape:current-layer="svg12" />
  <defs
     id="defs2">
    <radialGradient
       id="delapouite-sword-brandish-gradient-0">
      <stop
         offset="0%"
         stop-color="#830000"
         stop-opacity="1"
         id="stop1" />
      <stop
         offset="100%"
         stop-color="#000"
         stop-opacity="1"
         id="stop2" />
    </radialGradient>
  </defs>
  <path
     d="M0 0h512v512H0z"
     fill="url(#pattern)"
     id="path2" />
  <svg
     version="1.1"
     id="svg11">
    <defs
       id="defs6">
      <filter
         id="b"
         x="-0.023338979"
         width="1.046678"
         y="-0.023448784"
         height="1.0468976"
         color-interpolation-filters="sRGB">
        <feGaussianBlur
           stdDeviation="4.823"
           id="feGaussianBlur2" />
      </filter>
      <filter
         id="a"
         x="-0.012011281"
         width="1.0240226"
         y="-0.011988317"
         height="1.0239766"
         color-interpolation-filters="sRGB">
        <feGaussianBlur
           stdDeviation="2.55"
           id="feGaussianBlur3" />
      </filter>
      <filter
         id="c"
         x="-0.11244604"
         width="1.2248921"
         y="-0.082623731"
         height="1.1652475"
         color-interpolation-filters="sRGB">
        <feGaussianBlur
           stdDeviation="15.63"
           id="feGaussianBlur4" />
      </filter>
      <filter
         id="e"
         x="-0.23758603"
         width="1.4751721"
         y="-0.24869778"
         height="1.4973956"
         color-interpolation-filters="sRGB">
        <feGaussianBlur
           stdDeviation="18.7"
           id="feGaussianBlur5" />
      </filter>
      <filter
         id="d"
         x="-0.21301439"
         width="1.4260288"
         y="-0.15141701"
         height="1.302834"
         color-interpolation-filters="sRGB">
        <feGaussianBlur
           stdDeviation="18.7"
           id="feGaussianBlur6" />
      </filter>
    </defs>
    <path
       d="M196.6 1.207c-2.5 11.323-4.8 22.703-10.2 33.383-7-10.68-12.6-20.91-16.7-31.988L2.494 4.338C13 104.9 10.86 175.3 1.979 278.3L15.4 295.5l-9.494 6.3L2.6 462.7l1.019 45.9 112.681 3.1c3.6-16.1 6.5-32.5 13.2-47.3 4.5 14.4 5.7 29.4 7 44.4l160 .3c.8-6.1.7-8.1 2.3-14.4 5.1 4.5 7.8 9.5 10.6 14.5.8-10.1 3.9-19.8 7-29.5 4.8 9.2 6.7 19.4 8.8 29.5l185.2.4-4.6-78.2-21.4-8.2 21.3-4.9 5.8-395.47c-7-6.73-13.3-13.744-18-21.465l-15.1.114-2.1 20.321-1.4 47.23.8 84.87-8.6-97.14c9.3-16.86 2.2-39.69 5.7-55.239-92.1 1.696-184.1.685-276.2-.314z"
       overflow="visible"
       color="#000"
       fill="#ebc893"
       fill-rule="evenodd"
       stroke="#e0aa58"
       enable-background="accumulate"
       id="path6" />
    <path
       d="M196.6 1.203c-2.5 11.327-4.8 22.707-10.2 33.387-7-10.68-12.6-20.91-16.7-31.99L2.494 4.336C13 104.9 10.86 175.3 1.979 278.3L15.4 295.5l-9.494 6.3L2.6 462.7l1.019 45.9 112.681 3.1c.5-2.1-7.9-2.3-7.4-4.5L5.244 504.5l-.914-47.3 4.63-153.7 12.42-9-13.093-16.8C16.95 177.3 16.36 104 6.113 5.992l162.687.164c4 10.804 10.3 24.254 17.1 34.664 5.3-10.41 9.5-25.97 12-37.02 89.8.974 173.8 3.521 263.6 1.867 4.6 1.226 10.6.431 11.3-4.149-92.1 1.696-184.1.684-276.2-.315zm296.9.158l-15.1.116-.6 6.277 13.5-2.557c4.6 7.533 9.7 12.383 16.6 18.943l-4.6 389.06-19.9 9.9 4.1-.6 18.2-4.2 5.8-395.47c-7-6.73-13.3-13.748-18-21.469zm9.6 435.739l3.5 69.7-177.7.1c.4 2.1-4.1.2-3.7 2.3l185.2.4-4.6-78.2zm-370 25.1c-1 2.2-2.9.4-3.7 2.6 4.2 14 5.8 29.5 7.1 44l158 .3c1.9-5 .8-9.7 4.3-14.4 5.1 4.5 7.8 9.5 10.6 14.5.8-10.1 3.9-19.8 7-29.5 1.8 3.4 3.2 7 4.3 10.6-1.4-5.6-2.4-8.3-5.1-13.4-3 9.4-6.7 16.2-7.5 26-2.7-4.9-5.4-9.7-10.4-14.1-3.4 4.6-6.2 9.1-8 14l-147.6 3.4c-3.4-14.6-7.1-30.3-9-44z"
       overflow="visible"
       color="#000"
       opacity=".527"
       fill="#c87137"
       fill-rule="evenodd"
       filter="url(#a)"
       enable-background="accumulate"
       id="path7" />
    <path
       d="M200.1 16.1c-2.3 10.67-10.5 21.38-15.6 31.44-6.6-10.06-13.9-19.69-17.7-30.12L17.34 19.05C24.61 113.6 7.605 179.3 16.85 277l18.26 20.1L10.34 309l7.1 141.6.96 43.3 90.2 3.4c3.4-15.2 15-35.6 21.3-49.6 4.3 13.6 15.4 36.7 16.6 50.9l45.1.8 13.8-18.7 14.4 22.2 68.7-8.6c1.8-4.7 4.5-9.1 7.8-13.5 4.8 4.2 7.4 8.9 10 13.6.8-9.5 7.7-19.6 10.6-28.7 4.5 8.6 19.9 28.9 33.1 33.9l114.6 5.6 22.3-14.7 19.4 14.7-14.5-67.6-34.6-14.2 37.5-15.1 2.1-96.9-14.5-21.9 15.2-13.4 5.1-239.63c-5.2-21.09-11.8-24.89-16.9-20.22l-4.2 2.11 2 19.14.7 44.47-7.1 124.23-18.3-137.78c8.8-15.88-3.9-35.38-.6-50.02-67.1 1.24-140.4-13.332-202.8-3.28-14 2.25-23.7 21.31-36.9 24.48-4.3 1.03-13.9-23.45-18.4-23.5z"
       overflow="visible"
       enable-background="accumulate"
       filter="url(#b)"
       fill-rule="evenodd"
       fill="#f6e7d0"
       color="#000"
       id="path8" />
    <path
       d="M354 27.39l-70.3 96.91 46.4 97.6-56.2 43.6 33 74.4-30.2 63.2 69.8 48.8 31.6 29.5 31.6-13.3L365.9 335l55.5-36.5 2.1-146.1-56.9-101.83zM116.6 55.48L89.9 123.6s33.7 65.3 35.8 68.8c2.1 3.6-7 118-7 118l42.8 73.8s9.9-82.9 7.1-83.6c-2.8-.7-29.5-42.1-29.5-42.1l23.8-84.3-36.5-37.2z"
       color="#000"
       overflow="visible"
       fill="#f2dbb9"
       fill-rule="evenodd"
       filter="url(#c)"
       enable-background="accumulate"
       id="path9" />
    <path
       d="M39.33 172.1l-5.62 108.1L74.45 328 42.84 464.9l96.96-39.3 30.2 42.9 74.4-38.7-80.8-169.9-60.4-16.9z"
       color="#000"
       overflow="visible"
       fill="#eed3a4"
       fill-rule="evenodd"
       enable-background="accumulate"
       filter="url(#d)"
       id="path10" />
    <path
       d="M266.9 66.72L324.5 191 434 221.2l21.8-111.6-41.4-68.86z"
       color="#000"
       overflow="visible"
       fill="#eed3a4"
       fill-rule="evenodd"
       enable-background="accumulate"
       filter="url(#e)"
       id="path11" />
  </svg>
  <path
     id="path12"
     style="fill:#3e3126;fill-opacity:1;stroke-width:0.880804"
     d="m 144.2078,46.636692 56.81184,126.378148 92.044,-39.54844 -39.19577,-86.829708 h -45.00873 l 31.53347,71.124908 -14.44553,6.36863 -34.35135,-77.493538 z m 233.5902,68.482498 -243.89492,105.63453 10.56964,24.8397 244.95121,-105.52099 z m -59.69682,86.43404 c -0.60413,0.0494 -1.17326,0.16549 -1.69623,0.35266 l -21.05156,10.12925 c 11.27429,4.75634 22.90159,12.06667 33.73547,13.74019 14.94614,-10.81737 -1.92568,-24.96367 -10.98768,-24.2221 z m -55.16034,10.12924 -31.88613,14.70874 c -10.48156,16.20679 -13.03521,40.51801 -16.02994,61.39306 18.14456,26.51219 26.86451,54.96216 34.79175,82.79556 15.76639,-3.25898 28.3612,-5.98947 42.89446,-10.12925 -21.49161,-34.08711 -37.16958,-69.05536 -47.21074,-104.72792 0,0 4.93284,-9.24912 7.39909,-13.91738 10.48157,6.42986 21.93167,10.92231 32.23708,8.7203 8.80804,-3.6113 18.93831,-6.95801 24.3993,-14.621 -15.50215,-6.07755 -32.67817,-15.41407 -46.59487,-24.22211 z m 82.78696,23.19164 c -0.40901,0.0228 -0.8175,0.0998 -1.22487,0.2374 -9.51268,5.10866 -20.25883,9.86535 -28.09798,16.64754 -4.66826,4.13977 -10.65773,7.75004 -18.05648,10.83285 0.96888,6.42987 -0.0884,17.26444 7.13416,16.5598 18.05648,-5.46098 35.67359,-13.2124 52.58502,-25.01517 -0.0825,-7.59693 -6.20443,-19.6053 -12.33985,-19.26242 z m -80.67269,30.3602 c 9.95309,30.65198 24.30916,60.77684 43.4226,90.37185 4.13978,-1.40928 8.19148,-2.90665 11.89085,-4.40402 -6.42986,-5.46098 -10.3054,-14.00547 -10.56964,-22.28502 -14.62135,-3.6113 -18.32004,-25.89529 -15.14914,-36.6411 -8.36764,-6.16562 -11.97996,-15.94358 -12.50845,-25.2801 -6.34178,0.61656 -11.97755,-0.0881 -17.08622,-1.76161 z m 90.98601,9.16071 c -11.97893,7.13451 -24.30984,12.59652 -36.6411,16.91246 l -7.92723,3.87416 c -3.87554,4.0517 -3.96362,13.74123 0.8808,17.88101 8.5438,3.08281 44.12759,-18.67339 50.8217,-24.57477 1.14504,-5.10866 -3.08247,-13.12398 -7.13417,-14.09286 z m -156.87082,18.67407 -68.01973,15.83382 c -1.1e-4,-2.2e-4 -0.002,2.2e-4 -0.002,0 -0.14963,-0.31702 -0.29371,-0.63623 -0.44385,-0.95305 a 4.8444211,4.8444211 0 0 0 -2.74907,-2.48931 4.8444211,4.8444211 0 0 0 -3.70213,0.1858 4.8444211,4.8444211 0 0 0 -2.3035,6.45292 c 17.80594,37.57409 31.98101,76.53749 42.52974,116.90606 a 4.8444211,4.8444211 0 0 0 5.91102,3.46129 4.8444211,4.8444211 0 0 0 3.46301,-5.91102 c -0.0802,-0.30693 -0.16539,-0.61189 -0.246,-0.91865 21.98818,-10.57054 42.48365,-22.71486 64.58253,-37.88145 -9.51269,-33.47054 -18.05717,-65.88413 -39.0203,-94.68641 z m 165.41565,14.88421 c -11.97894,8.9842 -23.95821,14.26937 -37.78683,18.84955 -0.35232,5.90138 2.20166,15.94255 10.65738,14.09286 17.528,-3.78746 31.97284,-15.41373 32.23708,-21.66743 0.17616,-3.25898 -1.76058,-9.24913 -5.10763,-11.27498 z m -6.60603,42.80844 c -12.5955,7.22259 -27.74635,14.00341 -41.13457,18.84783 l 16.47206,28.01025 34.61456,-16.5598 z m 19.55316,43.24713 -38.84311,18.58461 2.73015,19.28995 c 13.30014,0.4404 41.0458,-9.95274 48.79687,-22.98864 v -0.0894 z" />
</svg>
