<?xml version="1.0" encoding="UTF-8" standalone="no"?>
<svg
   viewBox="0 0 512 512"
   style="height: 512px; width: 512px;"
   version="1.1"
   id="svg12"
   sodipodi:docname="archive-research copy 2.svg"
   inkscape:version="1.4 (e7c3feb1, 2024-10-09)"
   inkscape:export-filename="archive-research.webp"
   inkscape:export-xdpi="48"
   inkscape:export-ydpi="48"
   xml:space="preserve"
   xmlns:inkscape="http://www.inkscape.org/namespaces/inkscape"
   xmlns:sodipodi="http://sodipodi.sourceforge.net/DTD/sodipodi-0.dtd"
   xmlns="http://www.w3.org/2000/svg"
   xmlns:svg="http://www.w3.org/2000/svg"><sodipodi:namedview
     id="namedview12"
     pagecolor="#505050"
     bordercolor="#ffffff"
     borderopacity="1"
     inkscape:showpageshadow="0"
     inkscape:pageopacity="0"
     inkscape:pagecheckerboard="1"
     inkscape:deskcolor="#d1d1d1"
     inkscape:zoom="0.57509279"
     inkscape:cx="-94.767316"
     inkscape:cy="267.78288"
     inkscape:window-width="1728"
     inkscape:window-height="1051"
     inkscape:window-x="0"
     inkscape:window-y="38"
     inkscape:window-maximized="1"
     inkscape:current-layer="svg12" /><defs
     id="defs2"><radialGradient
       id="delapouite-archive-research-gradient-0"><stop
         offset="0%"
         stop-color="#830000"
         stop-opacity="1"
         id="stop1" /><stop
         offset="100%"
         stop-color="#000"
         stop-opacity="1"
         id="stop2" /></radialGradient></defs><path
     d="M0 0h512v512H0z"
     fill="url(#pattern)"
     id="path2" /><svg
     version="1.1"
     id="svg11"><defs
       id="defs6"><filter
         id="b"
         x="-0.023338979"
         width="1.046678"
         y="-0.023448784"
         height="1.0468976"
         color-interpolation-filters="sRGB"><feGaussianBlur
           stdDeviation="4.823"
           id="feGaussianBlur2" /></filter><filter
         id="a"
         x="-0.012011281"
         width="1.0240226"
         y="-0.011988317"
         height="1.0239766"
         color-interpolation-filters="sRGB"><feGaussianBlur
           stdDeviation="2.55"
           id="feGaussianBlur3" /></filter><filter
         id="c"
         x="-0.11244604"
         width="1.2248921"
         y="-0.082623731"
         height="1.1652475"
         color-interpolation-filters="sRGB"><feGaussianBlur
           stdDeviation="15.63"
           id="feGaussianBlur4" /></filter><filter
         id="e"
         x="-0.23758603"
         width="1.4751721"
         y="-0.24869778"
         height="1.4973956"
         color-interpolation-filters="sRGB"><feGaussianBlur
           stdDeviation="18.7"
           id="feGaussianBlur5" /></filter><filter
         id="d"
         x="-0.21301439"
         width="1.4260288"
         y="-0.15141701"
         height="1.302834"
         color-interpolation-filters="sRGB"><feGaussianBlur
           stdDeviation="18.7"
           id="feGaussianBlur6" /></filter></defs><path
       d="M196.6 1.207c-2.5 11.323-4.8 22.703-10.2 33.383-7-10.68-12.6-20.91-16.7-31.988L2.494 4.338C13 104.9 10.86 175.3 1.979 278.3L15.4 295.5l-9.494 6.3L2.6 462.7l1.019 45.9 112.681 3.1c3.6-16.1 6.5-32.5 13.2-47.3 4.5 14.4 5.7 29.4 7 44.4l160 .3c.8-6.1.7-8.1 2.3-14.4 5.1 4.5 7.8 9.5 10.6 14.5.8-10.1 3.9-19.8 7-29.5 4.8 9.2 6.7 19.4 8.8 29.5l185.2.4-4.6-78.2-21.4-8.2 21.3-4.9 5.8-395.47c-7-6.73-13.3-13.744-18-21.465l-15.1.114-2.1 20.321-1.4 47.23.8 84.87-8.6-97.14c9.3-16.86 2.2-39.69 5.7-55.239-92.1 1.696-184.1.685-276.2-.314z"
       overflow="visible"
       color="#000"
       fill="#ebc893"
       fill-rule="evenodd"
       stroke="#e0aa58"
       enable-background="accumulate"
       id="path6" /><path
       d="M196.6 1.203c-2.5 11.327-4.8 22.707-10.2 33.387-7-10.68-12.6-20.91-16.7-31.99L2.494 4.336C13 104.9 10.86 175.3 1.979 278.3L15.4 295.5l-9.494 6.3L2.6 462.7l1.019 45.9 112.681 3.1c.5-2.1-7.9-2.3-7.4-4.5L5.244 504.5l-.914-47.3 4.63-153.7 12.42-9-13.093-16.8C16.95 177.3 16.36 104 6.113 5.992l162.687.164c4 10.804 10.3 24.254 17.1 34.664 5.3-10.41 9.5-25.97 12-37.02 89.8.974 173.8 3.521 263.6 1.867 4.6 1.226 10.6.431 11.3-4.149-92.1 1.696-184.1.684-276.2-.315zm296.9.158l-15.1.116-.6 6.277 13.5-2.557c4.6 7.533 9.7 12.383 16.6 18.943l-4.6 389.06-19.9 9.9 4.1-.6 18.2-4.2 5.8-395.47c-7-6.73-13.3-13.748-18-21.469zm9.6 435.739l3.5 69.7-177.7.1c.4 2.1-4.1.2-3.7 2.3l185.2.4-4.6-78.2zm-370 25.1c-1 2.2-2.9.4-3.7 2.6 4.2 14 5.8 29.5 7.1 44l158 .3c1.9-5 .8-9.7 4.3-14.4 5.1 4.5 7.8 9.5 10.6 14.5.8-10.1 3.9-19.8 7-29.5 1.8 3.4 3.2 7 4.3 10.6-1.4-5.6-2.4-8.3-5.1-13.4-3 9.4-6.7 16.2-7.5 26-2.7-4.9-5.4-9.7-10.4-14.1-3.4 4.6-6.2 9.1-8 14l-147.6 3.4c-3.4-14.6-7.1-30.3-9-44z"
       overflow="visible"
       color="#000"
       opacity=".527"
       fill="#c87137"
       fill-rule="evenodd"
       filter="url(#a)"
       enable-background="accumulate"
       id="path7" /><path
       fill="#f6e7d0"
       d="M200.1 16.1c-2.3 10.67-10.5 21.38-15.6 31.44-6.6-10.06-13.9-19.69-17.7-30.12L17.34 19.05C24.61 113.6 7.605 179.3 16.85 277l18.26 20.1L10.34 309l7.1 141.6.96 43.3 90.2 3.4c3.4-15.2 15-35.6 21.3-49.6 4.3 13.6 15.4 36.7 16.6 50.9l45.1.8 13.8-18.7 14.4 22.2 68.7-8.6c1.8-4.7 4.5-9.1 7.8-13.5 4.8 4.2 7.4 8.9 10 13.6.8-9.5 7.7-19.6 10.6-28.7 4.5 8.6 19.9 28.9 33.1 33.9l114.6 5.6 22.3-14.7 19.4 14.7-14.5-67.6-34.6-14.2 37.5-15.1 2.1-96.9-14.5-21.9 15.2-13.4 5.1-239.63c-5.2-21.09-11.8-24.89-16.9-20.22l-4.2 2.11 2 19.14.7 44.47-7.1 124.23-18.3-137.78c8.8-15.88-3.9-35.38-.6-50.02-67.1 1.24-140.4-13.332-202.8-3.28-14 2.25-23.7 21.31-36.9 24.48-4.3 1.03-13.9-23.45-18.4-23.5z"
       color="#000"
       overflow="visible"
       enable-background="accumulate"
       filter="url(#b)"
       fill-rule="evenodd"
       id="path8" /><path
       d="M354 27.39l-70.3 96.91 46.4 97.6-56.2 43.6 33 74.4-30.2 63.2 69.8 48.8 31.6 29.5 31.6-13.3L365.9 335l55.5-36.5 2.1-146.1-56.9-101.83zM116.6 55.48L89.9 123.6s33.7 65.3 35.8 68.8c2.1 3.6-7 118-7 118l42.8 73.8s9.9-82.9 7.1-83.6c-2.8-.7-29.5-42.1-29.5-42.1l23.8-84.3-36.5-37.2z"
       color="#000"
       overflow="visible"
       fill="#f2dbb9"
       fill-rule="evenodd"
       filter="url(#c)"
       enable-background="accumulate"
       id="path9" /><path
       d="M39.33 172.1l-5.62 108.1L74.45 328 42.84 464.9l96.96-39.3 30.2 42.9 74.4-38.7-80.8-169.9-60.4-16.9z"
       overflow="visible"
       fill="#eed3a4"
       fill-rule="evenodd"
       color="#000"
       enable-background="accumulate"
       filter="url(#d)"
       id="path10" /><path
       d="M266.9 66.72L324.5 191 434 221.2l21.8-111.6-41.4-68.86z"
       color="#000"
       overflow="visible"
       fill="#eed3a4"
       fill-rule="evenodd"
       enable-background="accumulate"
       filter="url(#e)"
       id="path11" /></svg><path
     style="fill:#3e3126;fill-opacity:1;stroke-width:0.715475"
     d="m 99.012156,433.05792 c -11.68275,-3.82835 -20.38746,-15.51181 -20.40602,-27.38898 -0.007,-4.74888 2.40158,-12.35347 5.23691,-16.53156 1.31423,-1.93662 2.3895,-3.7167 2.3895,-3.95574 0,-0.23904 -1.64067,-0.43461 -3.64593,-0.43461 -9.36852,0 -19.08325,-6.55626 -23.72703,-16.01286 -3.80729,-7.75315 -3.81318,-17.44715 -0.0153,-25.18093 4.72748,-9.62682 13.08551,-15.1221 24.04941,-15.81209 11.8427,-0.7453 22.105954,5.04175 27.393664,15.44625 l 2.18784,4.30495 35.7443,-16.69827 c 19.65936,-9.18406 36.38876,-16.57416 37.17644,-16.42247 2.06557,0.39779 3.83138,4.43146 3.87187,8.8446 0.0995,10.84715 9.16881,19.20063 24.38927,22.46434 3.10958,0.66678 6.19053,1.48293 6.84657,1.81366 0.65603,0.33073 -18.93571,9.97518 -43.53718,21.4321 l -44.72997,20.83077 1.98498,4.41123 c 2.79104,6.20252 2.72333,16.12015 -0.15385,22.53658 -5.92576,13.21509 -21.89627,20.6652 -35.055434,16.35303 z m 298.213354,0.46039 c -8.61661,-2.83692 -15.7461,-9.075 -19.21608,-16.81342 -2.87842,-6.4192 -2.94496,-16.33385 -0.15125,-22.54238 l 1.98752,-4.41702 -44.68804,-20.82771 c -24.57849,-11.45524 -44.5455,-20.97031 -44.37123,-21.14458 0.17428,-0.17428 3.90212,-1.17319 8.2841,-2.21979 15.30094,-3.65454 23.71721,-11.64051 23.75971,-22.54505 0.0165,-4.21688 1.81209,-8.24411 3.8509,-8.63675 0.78767,-0.15169 17.51711,7.23841 37.17642,16.42247 l 35.74432,16.69827 2.18785,-4.30495 c 8.62584,-16.9729 30.77958,-20.86004 45.45425,-7.97551 8.68979,7.62974 11.352,22.56952 5.97349,33.52228 -4.64378,9.4566 -14.3585,16.01286 -23.72707,16.01286 -2.00526,0 -3.64591,0.19557 -3.64591,0.43461 0,0.23904 1.08273,2.03007 2.406,3.98006 9.86882,14.54247 4.4544,34.62142 -11.40617,42.29942 -4.89621,2.37019 -15.34142,3.46546 -19.61881,2.05719 z M 235.05127,335.52419 c -15.71106,-1.3774 -27.923,-4.40061 -30.54692,-7.56225 -0.63129,-0.76065 -1.70752,-4.60626 -2.39164,-8.54581 -2.23636,-12.87826 -5.34481,-15.80348 -26.79173,-25.21235 -16.61453,-7.28889 -18.34162,-8.88748 -19.49095,-18.04071 -0.5355,-4.26477 -1.78652,-8.41143 -3.42071,-11.33841 -3.33469,-5.97272 -2.75527,-8.25833 3.93974,-15.54082 2.8551,-3.10564 5.45502,-6.6982 5.7776,-7.98346 0.32258,-1.28527 -0.73026,-10.21029 -2.33965,-19.83339 -4.50653,-26.94616 -6.11204,-44.12895 -5.51221,-58.99408 0.64704,-16.03502 2.80712,-24.83693 9.36454,-38.15865 4.31977,-8.77582 6.0086,-11.08021 13.63324,-18.60234 9.67227,-9.542236 18.4723,-15.095384 31.93496,-20.152158 23.777,-8.931005 55.51553,-10.35065 81.88102,-3.662501 28.13583,7.137239 47.70814,22.045059 58.45335,44.522699 10.37295,21.69878 11.05716,45.36426 2.74814,95.04703 -1.60939,9.6231 -2.66908,18.52094 -2.35484,19.77297 0.31424,1.25203 2.93423,4.92455 5.82225,8.16116 6.76216,7.57858 7.22729,9.4835 3.80911,15.60095 -1.78382,3.19238 -2.91706,6.96832 -3.39493,11.31148 -0.98263,8.93095 -2.80194,10.60893 -19.4237,17.91484 -21.45021,9.42821 -24.55108,12.33167 -26.76097,25.05726 -0.67161,3.86778 -1.5495,7.56362 -1.95081,8.21295 -1.2191,1.97256 -8.91539,4.90792 -16.59221,6.3283 -7.05983,1.30621 -47.10557,2.5115 -56.39268,1.69729 z m 18.28482,-59.49636 2.70243,-1.998 2.78098,2.05607 c 2.24592,1.66048 4.21901,2.07895 10.25514,2.17499 l 7.47416,0.11891 -0.0771,-3.98386 c -0.15377,-7.94252 -16.00338,-35.60573 -20.40027,-35.60573 -2.63913,0 -8.61324,8.25315 -14.82846,20.48528 -5.26908,10.37007 -6.88142,15.45389 -5.79726,18.27917 0.91014,2.37177 14.14501,1.24226 17.89041,-1.52683 z m -33.28276,-25.05748 c 10.64993,-3.66373 17.73297,-13.95788 19.33264,-28.09711 1.37403,-12.14481 -4.44974,-21.91402 -15.53655,-26.06213 -7.61798,-2.85025 -19.49636,-4.18934 -25.1438,-2.83454 -11.62295,2.7883 -19.20683,16.69692 -20.53407,37.65889 -0.8783,13.8715 1.89112,18.75729 11.62723,20.51266 5.81264,1.04799 26.07781,0.25909 30.25455,-1.17777 z m 106.78407,-0.0806 c 5.80028,-2.42352 6.95949,-5.2586 6.88229,-16.83199 -0.10417,-15.62509 -3.99356,-27.51359 -11.43807,-34.96254 -5.21717,-5.22031 -10.58287,-6.55512 -21.0662,-5.24062 -15.81679,1.98326 -24.65674,7.76471 -27.68554,18.10672 -1.32749,4.5328 -1.40695,6.50254 -0.51242,12.70304 2.34866,16.27987 11.20703,25.85177 25.47255,27.52432 8.95295,1.04969 24.42287,0.34084 28.34739,-1.29893 z M 78.331326,284.53306 c -8.10887,-1.99894 -15.59306,-7.98408 -19.54772,-15.63238 -3.52132,-6.81024 -3.65158,-17.95925 -0.28962,-24.79012 4.44851,-9.03856 12.71274,-15.02509 22.78413,-16.50462 l 5.03942,-0.74031 -2.46866,-3.33888 c -8.22332,-11.12208 -5.98899,-28.49015 4.89797,-38.07324 5.78668,-5.09364 11.988124,-7.06737 20.691514,-6.58548 7.62966,0.42244 11.88913,2.12628 17.65622,7.06269 8.65875,7.41157 11.822,21.79876 7.07589,32.1828 l -2.10403,4.60342 7.95992,3.73014 c 7.54003,3.53338 7.99022,3.91687 8.53435,7.26991 0.47527,2.92874 0.12668,4.09454 -2.01939,6.75363 -6.38589,7.91242 -7.91005,10.29809 -8.87959,13.89866 -1.34079,4.97932 -0.45567,10.57209 2.49434,15.7607 2.01416,3.54259 3.19493,8.7268 1.98763,8.7268 -0.20506,0 -6.69119,-3.00499 -14.41363,-6.67776 -7.72243,-3.67277 -14.38491,-6.67776 -14.8055,-6.67776 -0.42061,0 -1.68669,1.90449 -2.81351,4.2322 -2.44561,5.05197 -8.32116,10.59426 -13.745094,12.96549 -4.91784,2.14998 -13.29661,3.0021 -18.03464,1.83411 z m 342.883324,0.0209 c -8.043,-1.66847 -16.32469,-8.24056 -19.94142,-15.82495 -0.84655,-1.77526 -1.84213,-3.22775 -2.21232,-3.22775 -0.37026,0 -6.99154,3.00499 -14.71395,6.67777 -7.7224,3.67277 -14.20854,6.67776 -14.41359,6.67776 -1.23362,0 -0.0165,-5.51572 1.96276,-8.8928 2.95598,-5.04433 3.86013,-10.61487 2.52663,-15.56695 -0.97641,-3.62628 -2.49636,-6.00805 -8.88706,-13.92641 -2.14606,-2.65909 -2.49464,-3.82489 -2.01935,-6.75363 0.54412,-3.35304 0.99429,-3.73653 8.53432,-7.26991 l 7.95994,-3.73014 -2.10406,-4.60342 c -2.80495,-6.13707 -2.83929,-16.14469 -0.0764,-22.30026 4.71956,-10.51491 14.80525,-17.12081 26.14173,-17.12217 8.09853,-7.1e-4 14.03482,2.07645 19.3812,6.78258 10.86406,9.56291 13.09054,26.9417 4.8751,38.05308 l -2.46867,3.33888 5.03945,0.74031 c 10.08454,1.48146 18.28652,7.4254 22.72869,16.47133 3.38305,6.88923 3.28131,18.04256 -0.22587,24.76287 -6.26863,12.01151 -19.26144,18.3744 -32.08711,15.71382 z"
     id="path1" /></svg>
