<?xml version="1.0" encoding="UTF-8" standalone="no"?>
<svg
   viewBox="0 0 512 512"
   style="height: 512px; width: 512px;"
   version="1.1"
   id="svg12"
   sodipodi:docname="vial-green--a.svg"
   inkscape:version="1.4 (e7c3feb1, 2024-10-09)"
   xml:space="preserve"
   xmlns:inkscape="http://www.inkscape.org/namespaces/inkscape"
   xmlns:sodipodi="http://sodipodi.sourceforge.net/DTD/sodipodi-0.dtd"
   xmlns="http://www.w3.org/2000/svg"
   xmlns:svg="http://www.w3.org/2000/svg"><sodipodi:namedview
     id="namedview12"
     pagecolor="#505050"
     bordercolor="#ffffff"
     borderopacity="1"
     inkscape:showpageshadow="0"
     inkscape:pageopacity="0"
     inkscape:pagecheckerboard="1"
     inkscape:deskcolor="#d1d1d1"
     inkscape:zoom="0.81420757"
     inkscape:cx="63.865778"
     inkscape:cy="378.28192"
     inkscape:window-width="1728"
     inkscape:window-height="1051"
     inkscape:window-x="0"
     inkscape:window-y="38"
     inkscape:window-maximized="1"
     inkscape:current-layer="svg12" /><defs
     id="defs2"><radialGradient
       id="delapouite-viking-shield-gradient-0"><stop
         offset="0%"
         stop-color="#830000"
         stop-opacity="1"
         id="stop1" /><stop
         offset="100%"
         stop-color="#000"
         stop-opacity="1"
         id="stop2" /></radialGradient></defs><path
     d="M0 0h512v512H0z"
     fill="url(#pattern)"
     id="path2" /><svg
     version="1.1"
     id="svg11"><defs
       id="defs6"><filter
         id="b"
         x="-0.023338979"
         width="1.046678"
         y="-0.023448784"
         height="1.0468976"
         color-interpolation-filters="sRGB"><feGaussianBlur
           stdDeviation="4.823"
           id="feGaussianBlur2" /></filter><filter
         id="a"
         x="-0.012011281"
         width="1.0240226"
         y="-0.011988317"
         height="1.0239766"
         color-interpolation-filters="sRGB"><feGaussianBlur
           stdDeviation="2.55"
           id="feGaussianBlur3" /></filter><filter
         id="c"
         x="-0.11244604"
         width="1.2248921"
         y="-0.082623731"
         height="1.1652475"
         color-interpolation-filters="sRGB"><feGaussianBlur
           stdDeviation="15.63"
           id="feGaussianBlur4" /></filter><filter
         id="e"
         x="-0.23758603"
         width="1.4751721"
         y="-0.24869778"
         height="1.4973956"
         color-interpolation-filters="sRGB"><feGaussianBlur
           stdDeviation="18.7"
           id="feGaussianBlur5" /></filter><filter
         id="d"
         x="-0.21301439"
         width="1.4260288"
         y="-0.15141701"
         height="1.302834"
         color-interpolation-filters="sRGB"><feGaussianBlur
           stdDeviation="18.7"
           id="feGaussianBlur6" /></filter></defs><path
       d="M196.6 1.207c-2.5 11.323-4.8 22.703-10.2 33.383-7-10.68-12.6-20.91-16.7-31.988L2.494 4.338C13 104.9 10.86 175.3 1.979 278.3L15.4 295.5l-9.494 6.3L2.6 462.7l1.019 45.9 112.681 3.1c3.6-16.1 6.5-32.5 13.2-47.3 4.5 14.4 5.7 29.4 7 44.4l160 .3c.8-6.1.7-8.1 2.3-14.4 5.1 4.5 7.8 9.5 10.6 14.5.8-10.1 3.9-19.8 7-29.5 4.8 9.2 6.7 19.4 8.8 29.5l185.2.4-4.6-78.2-21.4-8.2 21.3-4.9 5.8-395.47c-7-6.73-13.3-13.744-18-21.465l-15.1.114-2.1 20.321-1.4 47.23.8 84.87-8.6-97.14c9.3-16.86 2.2-39.69 5.7-55.239-92.1 1.696-184.1.685-276.2-.314z"
       overflow="visible"
       color="#000"
       fill="#ebc893"
       fill-rule="evenodd"
       stroke="#e0aa58"
       enable-background="accumulate"
       id="path6" /><path
       d="M196.6 1.203c-2.5 11.327-4.8 22.707-10.2 33.387-7-10.68-12.6-20.91-16.7-31.99L2.494 4.336C13 104.9 10.86 175.3 1.979 278.3L15.4 295.5l-9.494 6.3L2.6 462.7l1.019 45.9 112.681 3.1c.5-2.1-7.9-2.3-7.4-4.5L5.244 504.5l-.914-47.3 4.63-153.7 12.42-9-13.093-16.8C16.95 177.3 16.36 104 6.113 5.992l162.687.164c4 10.804 10.3 24.254 17.1 34.664 5.3-10.41 9.5-25.97 12-37.02 89.8.974 173.8 3.521 263.6 1.867 4.6 1.226 10.6.431 11.3-4.149-92.1 1.696-184.1.684-276.2-.315zm296.9.158l-15.1.116-.6 6.277 13.5-2.557c4.6 7.533 9.7 12.383 16.6 18.943l-4.6 389.06-19.9 9.9 4.1-.6 18.2-4.2 5.8-395.47c-7-6.73-13.3-13.748-18-21.469zm9.6 435.739l3.5 69.7-177.7.1c.4 2.1-4.1.2-3.7 2.3l185.2.4-4.6-78.2zm-370 25.1c-1 2.2-2.9.4-3.7 2.6 4.2 14 5.8 29.5 7.1 44l158 .3c1.9-5 .8-9.7 4.3-14.4 5.1 4.5 7.8 9.5 10.6 14.5.8-10.1 3.9-19.8 7-29.5 1.8 3.4 3.2 7 4.3 10.6-1.4-5.6-2.4-8.3-5.1-13.4-3 9.4-6.7 16.2-7.5 26-2.7-4.9-5.4-9.7-10.4-14.1-3.4 4.6-6.2 9.1-8 14l-147.6 3.4c-3.4-14.6-7.1-30.3-9-44z"
       overflow="visible"
       color="#000"
       opacity=".527"
       fill="#c87137"
       fill-rule="evenodd"
       filter="url(#a)"
       enable-background="accumulate"
       id="path7" /><path
       d="M200.1 16.1c-2.3 10.67-10.5 21.38-15.6 31.44-6.6-10.06-13.9-19.69-17.7-30.12L17.34 19.05C24.61 113.6 7.605 179.3 16.85 277l18.26 20.1L10.34 309l7.1 141.6.96 43.3 90.2 3.4c3.4-15.2 15-35.6 21.3-49.6 4.3 13.6 15.4 36.7 16.6 50.9l45.1.8 13.8-18.7 14.4 22.2 68.7-8.6c1.8-4.7 4.5-9.1 7.8-13.5 4.8 4.2 7.4 8.9 10 13.6.8-9.5 7.7-19.6 10.6-28.7 4.5 8.6 19.9 28.9 33.1 33.9l114.6 5.6 22.3-14.7 19.4 14.7-14.5-67.6-34.6-14.2 37.5-15.1 2.1-96.9-14.5-21.9 15.2-13.4 5.1-239.63c-5.2-21.09-11.8-24.89-16.9-20.22l-4.2 2.11 2 19.14.7 44.47-7.1 124.23-18.3-137.78c8.8-15.88-3.9-35.38-.6-50.02-67.1 1.24-140.4-13.332-202.8-3.28-14 2.25-23.7 21.31-36.9 24.48-4.3 1.03-13.9-23.45-18.4-23.5z"
       overflow="visible"
       enable-background="accumulate"
       filter="url(#b)"
       fill-rule="evenodd"
       fill="#f6e7d0"
       color="#000"
       id="path8" /><path
       d="M354 27.39l-70.3 96.91 46.4 97.6-56.2 43.6 33 74.4-30.2 63.2 69.8 48.8 31.6 29.5 31.6-13.3L365.9 335l55.5-36.5 2.1-146.1-56.9-101.83zM116.6 55.48L89.9 123.6s33.7 65.3 35.8 68.8c2.1 3.6-7 118-7 118l42.8 73.8s9.9-82.9 7.1-83.6c-2.8-.7-29.5-42.1-29.5-42.1l23.8-84.3-36.5-37.2z"
       color="#000"
       overflow="visible"
       fill="#f2dbb9"
       fill-rule="evenodd"
       filter="url(#c)"
       enable-background="accumulate"
       id="path9" /><path
       d="M39.33 172.1l-5.62 108.1L74.45 328 42.84 464.9l96.96-39.3 30.2 42.9 74.4-38.7-80.8-169.9-60.4-16.9z"
       color="#000"
       overflow="visible"
       fill="#eed3a4"
       fill-rule="evenodd"
       enable-background="accumulate"
       filter="url(#d)"
       id="path10" /><path
       d="M266.9 66.72L324.5 191 434 221.2l21.8-111.6-41.4-68.86z"
       color="#000"
       overflow="visible"
       fill="#eed3a4"
       fill-rule="evenodd"
       enable-background="accumulate"
       filter="url(#e)"
       id="path11" /></svg><g
     id="g24"
     transform="rotate(15,2421.8235,735.46445)"
     style="stroke:none;stroke-opacity:1"><path
       id="path24"
       style="fill:#408000;fill-opacity:1;stroke:none;stroke-width:3.49092;stroke-linejoin:round;stroke-opacity:1;paint-order:stroke fill markers"
       d="m 147.52767,809.33994 c -12.6223,-0.10126 -20.26758,2.19141 -20.26758,2.19141 v 7.5 7.5 7.5 7.5 161.40305 l 82.5,5.4583 101.15437,-9.3919 -4.57429,-157.76047 v -30 c -19.18049,4.36659 -42.52439,12.11719 -66.58008,12.11719 -29.06653,0 -57.19241,-9.98885 -78.05078,-12.94531 -5.21459,-0.73912 -9.97421,-1.03851 -14.18164,-1.07227 z"
       sodipodi:nodetypes="sccccccccccsss" /><path
       id="path18"
       style="fill:#2b5500;fill-opacity:1;stroke:none;stroke-width:3.49092;stroke-linejoin:round;stroke-opacity:1;paint-order:stroke fill markers"
       d="M 127.26057 822.86039 L 127.26024 830.36017 L 127.2599 837.85994 L 127.25957 845.35972 L 127.25974 852.86138 L 127.2602 1014.2632 L 209.75948 1019.7219 L 310.91424 1010.3304 L 306.3406 852.56826 L 306.34004 822.56966 C 287.15955 826.93625 263.8161 834.6873 239.76041 834.6873 C 210.69388 834.6873 182.5673 824.69678 161.70893 821.74032 C 156.49434 821.0012 151.73594 820.70265 147.52851 820.66889 C 134.90621 820.56763 127.26057 822.86039 127.26057 822.86039 z M 161.48663 847.50385 A 6.5767221 6.5767221 0 0 1 163.34028 847.23768 A 6.5767221 6.5767221 0 0 1 169.91692 853.8143 A 6.5767221 6.5767221 0 0 1 163.3403 860.39094 A 6.5767221 6.5767221 0 0 1 156.76366 853.81432 A 6.5767221 6.5767221 0 0 1 161.48663 847.50385 z M 187.35457 861.90288 A 26.840008 26.840008 65.533572 0 1 194.91469 860.81537 A 26.840008 26.840008 65.533572 0 1 221.75659 887.65579 A 26.840008 26.840008 65.533572 0 1 194.91566 914.4958 A 26.840008 26.840008 65.533572 0 1 168.07565 887.65488 A 26.840008 26.840008 65.533572 0 1 187.35457 861.90288 z M 270.95242 879.32465 A 10.940104 10.940104 0 0 1 274.03491 878.88288 A 10.940104 10.940104 0 0 1 284.9754 889.82247 A 10.940104 10.940104 0 0 1 274.03581 900.76296 A 10.940104 10.940104 0 0 1 263.09482 889.82148 A 10.940104 10.940104 0 0 1 270.95242 879.32465 z M 254.02255 911.08147 A 5.9494758 5.9494758 0 0 1 255.69896 910.84055 A 5.9494758 5.9494758 0 0 1 261.64868 916.7905 A 5.9494758 5.9494758 0 0 1 255.69873 922.74022 A 5.9494758 5.9494758 0 0 1 249.74901 916.79027 A 5.9494758 5.9494758 0 0 1 254.02255 911.08147 z M 184.31307 957.97337 A 8.5497389 8.5497389 79.415951 0 1 186.72107 957.62539 A 8.5497389 8.5497389 79.415951 0 1 195.27054 966.17665 A 8.5497389 8.5497389 79.415951 0 1 186.72116 974.72562 A 8.5497389 8.5497389 79.415951 0 1 178.1722 966.17624 A 8.5497389 8.5497389 79.415951 0 1 184.31307 957.97337 z M 274.33499 978.22538 A 6.5767221 6.5767221 0 0 1 276.18864 977.95921 A 6.5767221 6.5767221 0 0 1 282.76528 984.53583 A 6.5767221 6.5767221 0 0 1 276.18865 991.11247 A 6.5767221 6.5767221 0 0 1 269.61202 984.53585 A 6.5767221 6.5767221 0 0 1 274.33499 978.22538 z " /><path
       id="path19"
       style="fill:#3e3126;stroke:none;stroke-width:3.49092;stroke-linejoin:round;stroke-opacity:1;paint-order:stroke fill markers"
       d="m 210.3597,623.96191 c -17.20162,0.36841 -34.52995,1.15578 -51.29492,5.25977 -6.85178,1.67883 -13.80999,4.09656 -19.24753,8.79979 -2.9805,2.40267 -4.18333,6.95832 -2.30993,10.38934 1.68264,3.42282 4.6622,5.92365 6.97329,8.89534 7.39809,8.75552 14.14555,18.2836 18.28487,29.04388 0.97695,2.70993 0.0543,6.11431 -2.50634,7.60607 -2.17452,1.37853 -4.93742,1.58278 -6.7992,3.45899 -3.48727,3.05014 -5.40696,7.4138 -6.82266,11.72004 -2.63306,8.29692 -3.22689,17.07692 -3.14372,25.74914 0.19199,7.3367 1.50553,14.58331 2.33131,21.86357 0.0353,2.69781 -1.78591,5.27647 -4.24276,6.25929 -2.82081,1.46692 -5.8004,2.61903 -8.53672,4.24957 -8.36541,4.53784 -16.17534,10.48367 -21.79592,18.2618 -0.83011,1.15345 -1.13198,2.6035 -0.97275,4.00162 -0.0712,31.52923 -0.009,63.0586 -0.0259,94.58789 0.002,41.90117 0.005,83.80234 0.007,125.70349 1.07898,3.92 4.36923,6.7734 7.79596,8.6502 7.39371,4.2184 15.92296,5.7716 24.26758,6.8592 22.80231,3.1522 45.78181,4.9908 68.8024,5.3402 27.23651,0.2986 54.46052,-1.7991 81.40285,-5.7208 7.85329,-1.1698 15.95486,-2.6176 22.83278,-6.8358 2.41861,-1.5284 5.05608,-3.295 6.21483,-6.0567 0.67579,-1.5463 0.76529,-3.188 0.63695,-4.8472 0.0549,-73.33282 0.0444,-146.66564 0.0408,-219.99845 -4.28625,-7.00048 -10.69684,-12.40635 -17.48426,-16.85443 -5.10643,-3.35094 -10.79201,-5.67403 -16.07434,-8.71198 -2.23541,-2.29192 -2.45531,-5.85102 -1.58788,-8.78906 1.92994,-11.83016 2.67739,-24.00598 0.85852,-35.90475 -0.94056,-6.39202 -2.66368,-12.87742 -6.29908,-18.32879 -1.58137,-2.11085 -3.92309,-3.47199 -6.46728,-4.05884 -3.18084,-1.32679 -4.8542,-5.42227 -3.41348,-8.57698 1.06257,-3.11507 2.76378,-5.95493 4.19507,-8.9047 5.09317,-9.56209 12.27016,-17.75791 19.17025,-26.03064 1.69671,-2.08468 3.09368,-4.73689 2.60444,-7.50585 -0.41753,-3.0242 -2.54778,-5.43375 -5.03026,-7.07946 -4.58648,-3.40852 -10.10742,-5.12642 -15.50993,-6.75262 -10.84474,-3.00742 -22.08166,-4.08501 -33.26087,-4.98121 -11.18017,-0.75129 -22.39313,-0.77673 -33.59347,-0.76093 z m 6.96874,16.95118 c 16.96884,0.40453 34.00541,0.48558 50.84961,2.8125 3.78863,1.13397 5.41255,6.18357 3.40255,9.47493 -1.32711,2.27015 -3.36926,4.01644 -4.70143,6.28594 -5.72807,8.05192 -9.62206,17.23057 -13.11754,26.43876 -1.18428,2.87162 -2.162,5.86993 -3.77591,8.53265 -2.13821,2.21896 -5.41354,2.57374 -8.33563,2.5374 -18.14137,0.75952 -36.36959,1.24863 -54.46422,-0.5607 -2.77137,-1.14562 -4.22249,-4.03548 -5.04883,-6.75195 -4.32003,-11.0893 -8.60307,-22.44235 -15.87367,-31.96387 -1.74174,-2.27573 -3.68559,-4.5896 -4.33899,-7.44661 -0.22444,-4.12151 3.89045,-7.72838 7.93724,-7.16702 15.77433,-1.50759 31.63046,-1.91111 47.46682,-2.19203 z m -48.66601,71.42382 c 30.00794,2.66891 60.26319,3.18746 90.28542,0.43564 2.65482,-0.16549 5.43507,-0.62253 8.00671,0.27681 2.77982,1.2715 4.1282,4.45308 4.16053,7.37325 1.19711,10.13739 1.36948,20.53237 -0.86825,30.54053 -1.20214,3.08296 -4.67029,4.73661 -7.85399,4.55389 -31.66249,2.75373 -63.61975,3.07368 -95.23445,-0.44128 -2.72731,-0.48809 -4.99393,-2.8424 -5.31546,-5.6058 -0.73267,-3.42639 -0.797,-6.94908 -1.14623,-10.41391 -0.45691,-7.66768 -0.19479,-15.47544 1.76675,-22.93235 1.05157,-2.36034 3.64854,-3.84335 6.19897,-3.78678 z m 3.45899,60.31836 c 29.20517,2.39112 58.63794,2.8137 87.82792,0.0218 3.99653,-0.3829 8.13639,-0.61431 12.00804,0.66226 10.79053,2.66277 21.57181,5.96688 31.2363,11.56787 2.0618,2.19218 2.20275,5.40685 2.05664,8.24804 -0.0236,69.56561 0.006,139.13257 -0.15039,208.69726 -0.81071,3.4475 -4.39757,5.6882 -7.82422,5.6348 -38.45542,5.511 -77.49656,7.9869 -116.28371,4.9347 -16.71203,-1.2346 -33.4277,-2.8573 -49.92527,-5.8507 -3.03639,-1.6242 -4.3354,-5.4021 -3.80664,-8.67778 0.0174,-69.8125 -0.0135,-139.62509 0.13086,-209.4375 0.78061,-3.21426 3.78332,-5.29836 6.76953,-6.28515 10.36563,-4.54897 21.21748,-8.07496 32.38281,-10.00977 1.85938,0.16472 3.71875,0.32943 5.57813,0.49414 z" /></g></svg>
