<?xml version="1.0" encoding="UTF-8" standalone="no"?>
<svg
   viewBox="0 0 512 512"
   style="height: 512px; width: 512px;"
   version="1.1"
   id="svg12"
   sodipodi:docname="crystalize.svg"
   inkscape:version="1.3.2 (091e20e, 2023-11-25)"
   xmlns:inkscape="http://www.inkscape.org/namespaces/inkscape"
   xmlns:sodipodi="http://sodipodi.sourceforge.net/DTD/sodipodi-0.dtd"
   xmlns="http://www.w3.org/2000/svg"
   xmlns:svg="http://www.w3.org/2000/svg">
  <sodipodi:namedview
     id="namedview12"
     pagecolor="#505050"
     bordercolor="#ffffff"
     borderopacity="1"
     inkscape:showpageshadow="0"
     inkscape:pageopacity="0"
     inkscape:pagecheckerboard="1"
     inkscape:deskcolor="#d1d1d1"
     inkscape:zoom="0.4609375"
     inkscape:cx="256"
     inkscape:cy="254.91525"
     inkscape:window-width="1248"
     inkscape:window-height="585"
     inkscape:window-x="0"
     inkscape:window-y="38"
     inkscape:window-maximized="0"
     inkscape:current-layer="svg12" />
  <defs
     id="defs2">
    <radialGradient
       id="lorc-crystalize-gradient-0">
      <stop
         offset="0%"
         stop-color="#830000"
         stop-opacity="1"
         id="stop1" />
      <stop
         offset="100%"
         stop-color="#000"
         stop-opacity="1"
         id="stop2" />
    </radialGradient>
  </defs>
  <path
     d="M0 0h512v512H0z"
     fill="url(#pattern)"
     id="path2" />
  <svg
     version="1.1"
     id="svg11">
    <defs
       id="defs6">
      <filter
         id="b"
         x="-0.023338979"
         width="1.046678"
         y="-0.023448784"
         height="1.0468976"
         color-interpolation-filters="sRGB">
        <feGaussianBlur
           stdDeviation="4.823"
           id="feGaussianBlur2" />
      </filter>
      <filter
         id="a"
         x="-0.012011281"
         width="1.0240226"
         y="-0.011988317"
         height="1.0239766"
         color-interpolation-filters="sRGB">
        <feGaussianBlur
           stdDeviation="2.55"
           id="feGaussianBlur3" />
      </filter>
      <filter
         id="c"
         x="-0.11244604"
         width="1.2248921"
         y="-0.082623731"
         height="1.1652475"
         color-interpolation-filters="sRGB">
        <feGaussianBlur
           stdDeviation="15.63"
           id="feGaussianBlur4" />
      </filter>
      <filter
         id="e"
         x="-0.23758603"
         width="1.4751721"
         y="-0.24869778"
         height="1.4973956"
         color-interpolation-filters="sRGB">
        <feGaussianBlur
           stdDeviation="18.7"
           id="feGaussianBlur5" />
      </filter>
      <filter
         id="d"
         x="-0.21301439"
         width="1.4260288"
         y="-0.15141701"
         height="1.302834"
         color-interpolation-filters="sRGB">
        <feGaussianBlur
           stdDeviation="18.7"
           id="feGaussianBlur6" />
      </filter>
    </defs>
    <path
       d="M196.6 1.207c-2.5 11.323-4.8 22.703-10.2 33.383-7-10.68-12.6-20.91-16.7-31.988L2.494 4.338C13 104.9 10.86 175.3 1.979 278.3L15.4 295.5l-9.494 6.3L2.6 462.7l1.019 45.9 112.681 3.1c3.6-16.1 6.5-32.5 13.2-47.3 4.5 14.4 5.7 29.4 7 44.4l160 .3c.8-6.1.7-8.1 2.3-14.4 5.1 4.5 7.8 9.5 10.6 14.5.8-10.1 3.9-19.8 7-29.5 4.8 9.2 6.7 19.4 8.8 29.5l185.2.4-4.6-78.2-21.4-8.2 21.3-4.9 5.8-395.47c-7-6.73-13.3-13.744-18-21.465l-15.1.114-2.1 20.321-1.4 47.23.8 84.87-8.6-97.14c9.3-16.86 2.2-39.69 5.7-55.239-92.1 1.696-184.1.685-276.2-.314z"
       overflow="visible"
       color="#000"
       fill="#ebc893"
       fill-rule="evenodd"
       stroke="#e0aa58"
       enable-background="accumulate"
       id="path6" />
    <path
       d="M196.6 1.203c-2.5 11.327-4.8 22.707-10.2 33.387-7-10.68-12.6-20.91-16.7-31.99L2.494 4.336C13 104.9 10.86 175.3 1.979 278.3L15.4 295.5l-9.494 6.3L2.6 462.7l1.019 45.9 112.681 3.1c.5-2.1-7.9-2.3-7.4-4.5L5.244 504.5l-.914-47.3 4.63-153.7 12.42-9-13.093-16.8C16.95 177.3 16.36 104 6.113 5.992l162.687.164c4 10.804 10.3 24.254 17.1 34.664 5.3-10.41 9.5-25.97 12-37.02 89.8.974 173.8 3.521 263.6 1.867 4.6 1.226 10.6.431 11.3-4.149-92.1 1.696-184.1.684-276.2-.315zm296.9.158l-15.1.116-.6 6.277 13.5-2.557c4.6 7.533 9.7 12.383 16.6 18.943l-4.6 389.06-19.9 9.9 4.1-.6 18.2-4.2 5.8-395.47c-7-6.73-13.3-13.748-18-21.469zm9.6 435.739l3.5 69.7-177.7.1c.4 2.1-4.1.2-3.7 2.3l185.2.4-4.6-78.2zm-370 25.1c-1 2.2-2.9.4-3.7 2.6 4.2 14 5.8 29.5 7.1 44l158 .3c1.9-5 .8-9.7 4.3-14.4 5.1 4.5 7.8 9.5 10.6 14.5.8-10.1 3.9-19.8 7-29.5 1.8 3.4 3.2 7 4.3 10.6-1.4-5.6-2.4-8.3-5.1-13.4-3 9.4-6.7 16.2-7.5 26-2.7-4.9-5.4-9.7-10.4-14.1-3.4 4.6-6.2 9.1-8 14l-147.6 3.4c-3.4-14.6-7.1-30.3-9-44z"
       overflow="visible"
       color="#000"
       opacity=".527"
       fill="#c87137"
       fill-rule="evenodd"
       filter="url(#a)"
       enable-background="accumulate"
       id="path7" />
    <path
       d="M200.1 16.1c-2.3 10.67-10.5 21.38-15.6 31.44-6.6-10.06-13.9-19.69-17.7-30.12L17.34 19.05C24.61 113.6 7.605 179.3 16.85 277l18.26 20.1L10.34 309l7.1 141.6.96 43.3 90.2 3.4c3.4-15.2 15-35.6 21.3-49.6 4.3 13.6 15.4 36.7 16.6 50.9l45.1.8 13.8-18.7 14.4 22.2 68.7-8.6c1.8-4.7 4.5-9.1 7.8-13.5 4.8 4.2 7.4 8.9 10 13.6.8-9.5 7.7-19.6 10.6-28.7 4.5 8.6 19.9 28.9 33.1 33.9l114.6 5.6 22.3-14.7 19.4 14.7-14.5-67.6-34.6-14.2 37.5-15.1 2.1-96.9-14.5-21.9 15.2-13.4 5.1-239.63c-5.2-21.09-11.8-24.89-16.9-20.22l-4.2 2.11 2 19.14.7 44.47-7.1 124.23-18.3-137.78c8.8-15.88-3.9-35.38-.6-50.02-67.1 1.24-140.4-13.332-202.8-3.28-14 2.25-23.7 21.31-36.9 24.48-4.3 1.03-13.9-23.45-18.4-23.5z"
       overflow="visible"
       enable-background="accumulate"
       filter="url(#b)"
       fill-rule="evenodd"
       fill="#f6e7d0"
       color="#000"
       id="path8" />
    <path
       d="M354 27.39l-70.3 96.91 46.4 97.6-56.2 43.6 33 74.4-30.2 63.2 69.8 48.8 31.6 29.5 31.6-13.3L365.9 335l55.5-36.5 2.1-146.1-56.9-101.83zM116.6 55.48L89.9 123.6s33.7 65.3 35.8 68.8c2.1 3.6-7 118-7 118l42.8 73.8s9.9-82.9 7.1-83.6c-2.8-.7-29.5-42.1-29.5-42.1l23.8-84.3-36.5-37.2z"
       color="#000"
       overflow="visible"
       fill="#f2dbb9"
       fill-rule="evenodd"
       filter="url(#c)"
       enable-background="accumulate"
       id="path9" />
    <path
       d="M39.33 172.1l-5.62 108.1L74.45 328 42.84 464.9l96.96-39.3 30.2 42.9 74.4-38.7-80.8-169.9-60.4-16.9z"
       color="#000"
       overflow="visible"
       fill="#eed3a4"
       fill-rule="evenodd"
       enable-background="accumulate"
       filter="url(#d)"
       id="path10" />
    <path
       d="M266.9 66.72L324.5 191 434 221.2l21.8-111.6-41.4-68.86z"
       color="#000"
       overflow="visible"
       fill="#eed3a4"
       fill-rule="evenodd"
       enable-background="accumulate"
       filter="url(#e)"
       id="path11" />
  </svg>
  <path
     d="m 248.67829,44.154365 -1.9356,5.300895 c 0,0 -15.22669,41.608565 -37.2444,81.35232 -22.30001,40.25226 -24.00942,39.47526 -51.4204,78.58101 -18.81213,26.83945 -39.68419,56.69108 -39.68419,95.32977 0,75.06895 60.92576,136.59386 135.92823,136.59559 75.0042,0.002 135.92909,-61.52664 135.92737,-136.59732 0,-38.54544 -20.95753,-68.53607 -39.67469,-95.31854 -27.59919,-39.48735 -30.04675,-39.7239 -52.33814,-79.95976 C 276.22568,89.708385 261.92621,49.52001 261.92621,49.52001 l -1.90798,-5.367371 h -11.33994 z m 12.56416,46.54254 c 5.97689,13.655415 13.6062,29.819685 22.88018,46.559805 2.09532,3.78315 3.97999,7.13377 5.77832,10.30135 -7.55421,-4.74145 -14.85459,-6.12106 -20.22801,-3.01995 -11.12324,6.4215 -9.7773,29.58054 3.00701,51.72257 12.7843,22.14461 32.16797,34.88921 43.29121,28.4677 6.89116,-3.97999 8.99166,-14.38148 6.55792,-26.98449 4.13797,5.76882 8.83712,12.33451 14.82005,20.89537 3.22889,4.62144 6.4336,9.24376 9.5373,13.89542 l -28.10165,24.71736 -83.62291,-41.51532 26.07971,-125.040675 z m -18.59198,10.115725 -21.01883,100.7757 c -1.74567,-2.72469 -4.11812,-4.27352 -7.09663,-4.34086 -11.6637,-0.26245 -28.13359,22.19469 -36.7782,50.15389 -8.6446,27.96006 -6.19617,50.84196 5.47011,51.10442 3.11665,0.0691 6.57864,-1.49703 10.1425,-4.34518 l -6.84627,21.61453 -51.3712,-21.48848 c 3.2945,-28.09302 19.40611,-51.76747 36.1376,-75.63703 27.17615,-38.76733 29.80415,-39.37684 52.32259,-80.02452 7.2978,-13.17108 13.65369,-26.10733 19.03919,-37.81247 z m -12.44243,130.47625 35.44002,17.59656 c -20.61478,4.19409 -36.12896,22.42261 -36.12896,44.278 0,24.9591 20.23059,45.1897 45.1871,45.1897 13.02173,0 24.74931,-5.51414 32.99505,-14.32796 l -3.08385,28.40986 -65.64821,19.14883 -38.25277,-47.184 29.49162,-93.1084 z m 125.40673,15.05662 c 3.61566,6.1107 6.91965,12.31637 9.68665,18.69385 -0.87024,-0.16662 -1.7543,-0.26332 -2.65303,-0.26332 -12.363,0 -22.38808,16.25493 -22.38808,36.30077 0,20.0467 10.02335,36.30077 22.38808,36.30077 2.65735,0 5.20592,-0.75629 7.57147,-2.13504 -3.23752,12.43379 -8.40373,24.09231 -15.16021,34.62848 l -34.36776,-16.0011 9.21527,-84.91101 25.70848,-22.61081 z m -220.88499,65.25711 42.60918,17.8193 c -8.2138,3.31867 -14.01197,11.36325 -14.01197,20.765 0,12.363 10.02335,22.38808 22.38807,22.38808 9.77299,0 18.0783,-6.26611 21.13279,-14.99618 l 18.66536,23.02263 -7.45406,38.93999 C 171.69618,404.7231 137.58052,362.27623 134.72978,311.60261 Z m 189.32481,61.62765 21.18631,9.86622 c -21.96504,25.73783 -54.53705,42.08255 -90.9181,42.08168 -7.01722,0 -13.89111,-0.61297 -20.5768,-1.7802 l 6.79188,-35.46592 26.21784,-7.64658 c -5.376,4.22604 -8.8613,8.68949 -9.29124,12.58142 -0.94622,8.57294 13.19526,11.11116 31.58522,5.67213 18.34247,-5.42608 33.98443,-16.74012 35.00576,-25.30702 z"
     fill="#3e3126"
     fill-opacity="1"
     id="path12"
     style="fill:#4f6c14;fill-opacity:1;stroke-width:0.863338" />
</svg>
