<?xml version="1.0" encoding="UTF-8" standalone="no"?>
<svg
   viewBox="0 0 512 512"
   style="height: 512px; width: 512px;"
   version="1.1"
   id="svg12"
   sodipodi:docname="viper--violent-fangs.svg"
   inkscape:version="1.4 (e7c3feb1, 2024-10-09)"
   xml:space="preserve"
   xmlns:inkscape="http://www.inkscape.org/namespaces/inkscape"
   xmlns:sodipodi="http://sodipodi.sourceforge.net/DTD/sodipodi-0.dtd"
   xmlns="http://www.w3.org/2000/svg"
   xmlns:svg="http://www.w3.org/2000/svg"><sodipodi:namedview
     id="namedview12"
     pagecolor="#505050"
     bordercolor="#ffffff"
     borderopacity="1"
     inkscape:showpageshadow="0"
     inkscape:pageopacity="0"
     inkscape:pagecheckerboard="1"
     inkscape:deskcolor="#d1d1d1"
     inkscape:zoom="0.21046256"
     inkscape:cx="-574.92411"
     inkscape:cy="-285.08634"
     inkscape:window-width="1728"
     inkscape:window-height="1051"
     inkscape:window-x="0"
     inkscape:window-y="38"
     inkscape:window-maximized="1"
     inkscape:current-layer="svg12" /><defs
     id="defs2"><radialGradient
       id="delapouite-viking-shield-gradient-0"><stop
         offset="0%"
         stop-color="#830000"
         stop-opacity="1"
         id="stop1" /><stop
         offset="100%"
         stop-color="#000"
         stop-opacity="1"
         id="stop2" /></radialGradient></defs><path
     d="M0 0h512v512H0z"
     fill="url(#pattern)"
     id="path2" /><svg
     version="1.1"
     id="svg11"><defs
       id="defs6"><filter
         id="b"
         x="-0.023338979"
         width="1.046678"
         y="-0.023448784"
         height="1.0468976"
         color-interpolation-filters="sRGB"><feGaussianBlur
           stdDeviation="4.823"
           id="feGaussianBlur2" /></filter><filter
         id="a"
         x="-0.012011281"
         width="1.0240226"
         y="-0.011988317"
         height="1.0239766"
         color-interpolation-filters="sRGB"><feGaussianBlur
           stdDeviation="2.55"
           id="feGaussianBlur3" /></filter><filter
         id="c"
         x="-0.11244604"
         width="1.2248921"
         y="-0.082623731"
         height="1.1652475"
         color-interpolation-filters="sRGB"><feGaussianBlur
           stdDeviation="15.63"
           id="feGaussianBlur4" /></filter><filter
         id="e"
         x="-0.23758603"
         width="1.4751721"
         y="-0.24869778"
         height="1.4973956"
         color-interpolation-filters="sRGB"><feGaussianBlur
           stdDeviation="18.7"
           id="feGaussianBlur5" /></filter><filter
         id="d"
         x="-0.21301439"
         width="1.4260288"
         y="-0.15141701"
         height="1.302834"
         color-interpolation-filters="sRGB"><feGaussianBlur
           stdDeviation="18.7"
           id="feGaussianBlur6" /></filter></defs><path
       d="M196.6 1.207c-2.5 11.323-4.8 22.703-10.2 33.383-7-10.68-12.6-20.91-16.7-31.988L2.494 4.338C13 104.9 10.86 175.3 1.979 278.3L15.4 295.5l-9.494 6.3L2.6 462.7l1.019 45.9 112.681 3.1c3.6-16.1 6.5-32.5 13.2-47.3 4.5 14.4 5.7 29.4 7 44.4l160 .3c.8-6.1.7-8.1 2.3-14.4 5.1 4.5 7.8 9.5 10.6 14.5.8-10.1 3.9-19.8 7-29.5 4.8 9.2 6.7 19.4 8.8 29.5l185.2.4-4.6-78.2-21.4-8.2 21.3-4.9 5.8-395.47c-7-6.73-13.3-13.744-18-21.465l-15.1.114-2.1 20.321-1.4 47.23.8 84.87-8.6-97.14c9.3-16.86 2.2-39.69 5.7-55.239-92.1 1.696-184.1.685-276.2-.314z"
       overflow="visible"
       color="#000"
       fill="#ebc893"
       fill-rule="evenodd"
       stroke="#e0aa58"
       enable-background="accumulate"
       id="path6" /><path
       d="M196.6 1.203c-2.5 11.327-4.8 22.707-10.2 33.387-7-10.68-12.6-20.91-16.7-31.99L2.494 4.336C13 104.9 10.86 175.3 1.979 278.3L15.4 295.5l-9.494 6.3L2.6 462.7l1.019 45.9 112.681 3.1c.5-2.1-7.9-2.3-7.4-4.5L5.244 504.5l-.914-47.3 4.63-153.7 12.42-9-13.093-16.8C16.95 177.3 16.36 104 6.113 5.992l162.687.164c4 10.804 10.3 24.254 17.1 34.664 5.3-10.41 9.5-25.97 12-37.02 89.8.974 173.8 3.521 263.6 1.867 4.6 1.226 10.6.431 11.3-4.149-92.1 1.696-184.1.684-276.2-.315zm296.9.158l-15.1.116-.6 6.277 13.5-2.557c4.6 7.533 9.7 12.383 16.6 18.943l-4.6 389.06-19.9 9.9 4.1-.6 18.2-4.2 5.8-395.47c-7-6.73-13.3-13.748-18-21.469zm9.6 435.739l3.5 69.7-177.7.1c.4 2.1-4.1.2-3.7 2.3l185.2.4-4.6-78.2zm-370 25.1c-1 2.2-2.9.4-3.7 2.6 4.2 14 5.8 29.5 7.1 44l158 .3c1.9-5 .8-9.7 4.3-14.4 5.1 4.5 7.8 9.5 10.6 14.5.8-10.1 3.9-19.8 7-29.5 1.8 3.4 3.2 7 4.3 10.6-1.4-5.6-2.4-8.3-5.1-13.4-3 9.4-6.7 16.2-7.5 26-2.7-4.9-5.4-9.7-10.4-14.1-3.4 4.6-6.2 9.1-8 14l-147.6 3.4c-3.4-14.6-7.1-30.3-9-44z"
       overflow="visible"
       color="#000"
       opacity=".527"
       fill="#c87137"
       fill-rule="evenodd"
       filter="url(#a)"
       enable-background="accumulate"
       id="path7" /><path
       d="M200.1 16.1c-2.3 10.67-10.5 21.38-15.6 31.44-6.6-10.06-13.9-19.69-17.7-30.12L17.34 19.05C24.61 113.6 7.605 179.3 16.85 277l18.26 20.1L10.34 309l7.1 141.6.96 43.3 90.2 3.4c3.4-15.2 15-35.6 21.3-49.6 4.3 13.6 15.4 36.7 16.6 50.9l45.1.8 13.8-18.7 14.4 22.2 68.7-8.6c1.8-4.7 4.5-9.1 7.8-13.5 4.8 4.2 7.4 8.9 10 13.6.8-9.5 7.7-19.6 10.6-28.7 4.5 8.6 19.9 28.9 33.1 33.9l114.6 5.6 22.3-14.7 19.4 14.7-14.5-67.6-34.6-14.2 37.5-15.1 2.1-96.9-14.5-21.9 15.2-13.4 5.1-239.63c-5.2-21.09-11.8-24.89-16.9-20.22l-4.2 2.11 2 19.14.7 44.47-7.1 124.23-18.3-137.78c8.8-15.88-3.9-35.38-.6-50.02-67.1 1.24-140.4-13.332-202.8-3.28-14 2.25-23.7 21.31-36.9 24.48-4.3 1.03-13.9-23.45-18.4-23.5z"
       overflow="visible"
       enable-background="accumulate"
       filter="url(#b)"
       fill-rule="evenodd"
       fill="#f6e7d0"
       color="#000"
       id="path8" /><path
       d="M354 27.39l-70.3 96.91 46.4 97.6-56.2 43.6 33 74.4-30.2 63.2 69.8 48.8 31.6 29.5 31.6-13.3L365.9 335l55.5-36.5 2.1-146.1-56.9-101.83zM116.6 55.48L89.9 123.6s33.7 65.3 35.8 68.8c2.1 3.6-7 118-7 118l42.8 73.8s9.9-82.9 7.1-83.6c-2.8-.7-29.5-42.1-29.5-42.1l23.8-84.3-36.5-37.2z"
       color="#000"
       overflow="visible"
       fill="#f2dbb9"
       fill-rule="evenodd"
       filter="url(#c)"
       enable-background="accumulate"
       id="path9" /><path
       d="M39.33 172.1l-5.62 108.1L74.45 328 42.84 464.9l96.96-39.3 30.2 42.9 74.4-38.7-80.8-169.9-60.4-16.9z"
       color="#000"
       overflow="visible"
       fill="#eed3a4"
       fill-rule="evenodd"
       enable-background="accumulate"
       filter="url(#d)"
       id="path10" /><path
       d="M266.9 66.72L324.5 191 434 221.2l21.8-111.6-41.4-68.86z"
       color="#000"
       overflow="visible"
       fill="#eed3a4"
       fill-rule="evenodd"
       enable-background="accumulate"
       filter="url(#e)"
       id="path11" /></svg><g
     id="g20"
     transform="matrix(0.89103611,0,0,0.89103611,225.38261,-571.18803)"><path
       style="fill:#4f6c14;stroke-width:2;stroke-linejoin:round;paint-order:stroke fill markers"
       d="m -157.58253,958.0799 95.972047,70.5178 L -102.26493,955.73472 34.361562,1099.1155 167.09176,962.55321 130.3336,1028.5977 226.30565,958.0799 34.361562,1152.8018 Z"
       id="path19"
       sodipodi:nodetypes="ccccccccc" /><path
       d="m 34.621059,1088.8866 c -0.1697,0.023 -6.99493,-23.4614 -15.16797,-52.1875 -8.17303,-28.7262 -20.0427,-70.40206 -26.37695,-92.61528 -6.33423,-22.21321 -11.63713,-40.88904 -11.7832,-41.5 -0.19465,-0.81407 4.48082,-6.52034 17.50195,-21.35743 l 17.76953,-20.24609 v -14.10352 c 5.74404,0.46952 11.06971,3.69553 16.59375,5.49415 6.52028,2.12301 12.62688,6.76045 19.45508,6.74609 l 0.004,2.12109 17.4414,19.98438 c 13.00704,14.90378 17.42481,20.34066 17.37696,21.38476 -0.0353,0.77002 -9.03921,32.94167 -20.00977,71.49219 -10.97099,38.55056 -22.77195,80.13856 -26.22275,92.41796 -3.45078,12.2795 -6.41235,22.3457 -6.58203,22.3692 z m -0.0879,-26.0313 c 0.0223,0.1177 0.0413,-0.16 0.0566,-0.8672 0.23691,-10.9004 0.6731,-58.5756 0.92188,-100.87694 l 0.14844,-25.42773 15.30273,-9.88477 c 8.41569,-5.43686 15.30078,-10.04236 15.30078,-10.23438 1e-5,-0.19202 -7.03422,3.62423 -15.63086,8.48047 -9.65115,5.45197 -16.10015,8.6871 -16.85937,8.45899 -0.67631,-0.20324 -8.06837,-4.25063 -16.42578,-8.9961 -8.35746,-4.74551 -15.44083,-8.62134 -15.74219,-8.61132 -0.30135,0.0101 0.18357,0.47908 1.07812,1.04101 0.89455,0.5619 8.07341,5.20163 15.95313,10.31055 l 14.32617,9.28711 0.11523,9.63867 c 0.0628,5.30052 0.37803,36.06661 0.70118,68.36914 0.28275,28.2647 0.59746,48.4884 0.7539,49.3125 z m 18.07422,-210.43555 c -6.82559,0.0114 -12.93091,-4.62401 -19.44922,-6.74609 -5.52431,-1.79849 -10.84944,-5.02287 -16.59375,-5.49219 V 826.5428 c 0.0898,-0.002 0.18764,-0.0103 0.27539,-0.01 6.23948,0.0409 11.94382,3.62116 17.87696,5.55274 6.01431,1.95801 11.67976,6.04956 17.88086,6.66406 z m -0.0156,-20.36718 c -6.19944,-0.61591 -11.86209,-4.7064 -17.875,-6.66407 -5.93242,-1.93147 -11.63623,-5.51161 -17.875,-5.55273 -0.0881,-6e-4 -0.18721,0.0102 -0.27735,0.0117 v -2.19532 -9.80078 c 0.24265,-0.0119 0.49337,-0.0327 0.72266,-0.0312 6.23924,0.041 11.94218,3.62298 17.875,5.55469 5.86519,1.90969 11.39803,5.84863 17.41992,6.61328 z m 0.0176,-18.75782 c -6.03228,-0.75632 -11.57339,-4.70466 -17.44726,-6.61718 -5.9328,-1.93173 -11.6358,-5.5115 -17.875,-5.55274 -0.22932,-0.002 -0.47999,0.0174 -0.72266,0.0293 v -12.73047 c 0.8924,-0.13198 1.73968,-0.20815 2.50391,-0.20313 6.239,0.041 11.94424,3.61948 17.87695,5.55079 5.32105,1.73221 10.36726,5.13618 15.75391,6.32617 -0.0277,4.34359 -0.0884,7.19929 -0.0899,13.19726 z m 0.13477,-19.87695 c -5.40399,-1.18065 -10.46257,-4.60466 -15.79883,-6.3418 -5.93274,-1.93134 -11.63794,-5.51169 -17.87695,-5.55273 -0.76423,-0.005 -1.6115,0.0732 -2.50391,0.20508 v -7.4043 l -4.41015,-3.22461 c -15.1672,-11.09283 -19.45845,-32.49488 -9.83985,-49.07227 10.06875,-17.35329 33.41767,-23.37054 51.04883,-13.15429 4.63908,2.68809 11.02042,9.17153 13.50391,13.7207 8.59803,15.74958 5.12648,36.02703 -8.00586,46.76367 -1.98733,1.62481 -4.22321,3.30106 -4.9668,3.72266 -0.71224,0.40385 -0.99761,7.75434 -1.15039,20.33789 z m -18.36719,-30.01953 c 2.63911,0.0368 5.32254,-0.36329 7.92578,-1.24805 2.75054,-0.93482 5.66091,-2.98962 8.10352,-5.51758 2.44261,-2.52798 4.41752,-5.52946 5.30078,-8.35547 1.607,-5.1415 1.21741,-12.26517 -0.90625,-16.58398 -2.09693,-4.26445 -6.69605,-8.82056 -11.08984,-10.98437 -5.0768,-2.50015 -14.29567,-2.37319 -19.16016,0.26367 -12.02061,6.5159 -15.88823,19.55099 -9.33789,31.4707 3.73096,6.78929 11.24673,10.84467 19.16406,10.95508 z"
       style="fill:#4f6c14;fill-opacity:1;stroke-width:0.561766"
       id="path20"
       sodipodi:nodetypes="sssscccscccscsssccccsssscscccssscscccscccssccccscccscccssccccssccccsssscsssssssss" /></g></svg>
