<?xml version="1.0" encoding="UTF-8" standalone="no"?>
<svg
   viewBox="0 0 512 512"
   style="height: 512px; width: 512px;"
   version="1.1"
   id="svg12"
   sodipodi:docname="viper--silhouette.svg"
   inkscape:version="1.4 (e7c3feb1, 2024-10-09)"
   xmlns:inkscape="http://www.inkscape.org/namespaces/inkscape"
   xmlns:sodipodi="http://sodipodi.sourceforge.net/DTD/sodipodi-0.dtd"
   xmlns="http://www.w3.org/2000/svg"
   xmlns:svg="http://www.w3.org/2000/svg">
  <sodipodi:namedview
     id="namedview12"
     pagecolor="#505050"
     bordercolor="#ffffff"
     borderopacity="1"
     inkscape:showpageshadow="0"
     inkscape:pageopacity="0"
     inkscape:pagecheckerboard="1"
     inkscape:deskcolor="#d1d1d1"
     inkscape:zoom="0.38317572"
     inkscape:cx="571.53934"
     inkscape:cy="798.58921"
     inkscape:window-width="1728"
     inkscape:window-height="1051"
     inkscape:window-x="0"
     inkscape:window-y="38"
     inkscape:window-maximized="1"
     inkscape:current-layer="svg12" />
  <defs
     id="defs2">
    <inkscape:path-effect
       effect="taper_stroke"
       start_shape="center | center"
       end_shape="center | center"
       id="path-effect13"
       is_visible="true"
       lpeversion="1"
       stroke_width="20"
       subpath="1"
       attach_start="0.2"
       end_offset="0.2"
       start_smoothing="0.5"
       end_smoothing="0.5"
       jointype="extrapolated"
       miter_limit="100" />
    <radialGradient
       id="lorc-cultist-gradient-0">
      <stop
         offset="0%"
         stop-color="#830000"
         stop-opacity="1"
         id="stop1" />
      <stop
         offset="100%"
         stop-color="#000"
         stop-opacity="1"
         id="stop2" />
    </radialGradient>
  </defs>
  <path
     d="M0 0h512v512H0z"
     fill="url(#pattern)"
     id="path2" />
  <svg
     version="1.1"
     id="svg11">
    <defs
       id="defs6">
      <filter
         id="b"
         x="-0.023338979"
         width="1.046678"
         y="-0.023448784"
         height="1.0468976"
         color-interpolation-filters="sRGB">
        <feGaussianBlur
           stdDeviation="4.823"
           id="feGaussianBlur2" />
      </filter>
      <filter
         id="a"
         x="-0.012011281"
         width="1.0240226"
         y="-0.011988317"
         height="1.0239766"
         color-interpolation-filters="sRGB">
        <feGaussianBlur
           stdDeviation="2.55"
           id="feGaussianBlur3" />
      </filter>
      <filter
         id="c"
         x="-0.11244604"
         width="1.2248921"
         y="-0.082623731"
         height="1.1652475"
         color-interpolation-filters="sRGB">
        <feGaussianBlur
           stdDeviation="15.63"
           id="feGaussianBlur4" />
      </filter>
      <filter
         id="e"
         x="-0.23758603"
         width="1.4751721"
         y="-0.24869778"
         height="1.4973956"
         color-interpolation-filters="sRGB">
        <feGaussianBlur
           stdDeviation="18.7"
           id="feGaussianBlur5" />
      </filter>
      <filter
         id="d"
         x="-0.21301439"
         width="1.4260288"
         y="-0.15141701"
         height="1.302834"
         color-interpolation-filters="sRGB">
        <feGaussianBlur
           stdDeviation="18.7"
           id="feGaussianBlur6" />
      </filter>
    </defs>
    <path
       d="M196.6 1.207c-2.5 11.323-4.8 22.703-10.2 33.383-7-10.68-12.6-20.91-16.7-31.988L2.494 4.338C13 104.9 10.86 175.3 1.979 278.3L15.4 295.5l-9.494 6.3L2.6 462.7l1.019 45.9 112.681 3.1c3.6-16.1 6.5-32.5 13.2-47.3 4.5 14.4 5.7 29.4 7 44.4l160 .3c.8-6.1.7-8.1 2.3-14.4 5.1 4.5 7.8 9.5 10.6 14.5.8-10.1 3.9-19.8 7-29.5 4.8 9.2 6.7 19.4 8.8 29.5l185.2.4-4.6-78.2-21.4-8.2 21.3-4.9 5.8-395.47c-7-6.73-13.3-13.744-18-21.465l-15.1.114-2.1 20.321-1.4 47.23.8 84.87-8.6-97.14c9.3-16.86 2.2-39.69 5.7-55.239-92.1 1.696-184.1.685-276.2-.314z"
       overflow="visible"
       color="#000"
       fill="#ebc893"
       fill-rule="evenodd"
       stroke="#e0aa58"
       enable-background="accumulate"
       id="path6" />
    <path
       d="M196.6 1.203c-2.5 11.327-4.8 22.707-10.2 33.387-7-10.68-12.6-20.91-16.7-31.99L2.494 4.336C13 104.9 10.86 175.3 1.979 278.3L15.4 295.5l-9.494 6.3L2.6 462.7l1.019 45.9 112.681 3.1c.5-2.1-7.9-2.3-7.4-4.5L5.244 504.5l-.914-47.3 4.63-153.7 12.42-9-13.093-16.8C16.95 177.3 16.36 104 6.113 5.992l162.687.164c4 10.804 10.3 24.254 17.1 34.664 5.3-10.41 9.5-25.97 12-37.02 89.8.974 173.8 3.521 263.6 1.867 4.6 1.226 10.6.431 11.3-4.149-92.1 1.696-184.1.684-276.2-.315zm296.9.158l-15.1.116-.6 6.277 13.5-2.557c4.6 7.533 9.7 12.383 16.6 18.943l-4.6 389.06-19.9 9.9 4.1-.6 18.2-4.2 5.8-395.47c-7-6.73-13.3-13.748-18-21.469zm9.6 435.739l3.5 69.7-177.7.1c.4 2.1-4.1.2-3.7 2.3l185.2.4-4.6-78.2zm-370 25.1c-1 2.2-2.9.4-3.7 2.6 4.2 14 5.8 29.5 7.1 44l158 .3c1.9-5 .8-9.7 4.3-14.4 5.1 4.5 7.8 9.5 10.6 14.5.8-10.1 3.9-19.8 7-29.5 1.8 3.4 3.2 7 4.3 10.6-1.4-5.6-2.4-8.3-5.1-13.4-3 9.4-6.7 16.2-7.5 26-2.7-4.9-5.4-9.7-10.4-14.1-3.4 4.6-6.2 9.1-8 14l-147.6 3.4c-3.4-14.6-7.1-30.3-9-44z"
       overflow="visible"
       color="#000"
       opacity=".527"
       fill="#c87137"
       fill-rule="evenodd"
       filter="url(#a)"
       enable-background="accumulate"
       id="path7" />
    <path
       d="M200.1 16.1c-2.3 10.67-10.5 21.38-15.6 31.44-6.6-10.06-13.9-19.69-17.7-30.12L17.34 19.05C24.61 113.6 7.605 179.3 16.85 277l18.26 20.1L10.34 309l7.1 141.6.96 43.3 90.2 3.4c3.4-15.2 15-35.6 21.3-49.6 4.3 13.6 15.4 36.7 16.6 50.9l45.1.8 13.8-18.7 14.4 22.2 68.7-8.6c1.8-4.7 4.5-9.1 7.8-13.5 4.8 4.2 7.4 8.9 10 13.6.8-9.5 7.7-19.6 10.6-28.7 4.5 8.6 19.9 28.9 33.1 33.9l114.6 5.6 22.3-14.7 19.4 14.7-14.5-67.6-34.6-14.2 37.5-15.1 2.1-96.9-14.5-21.9 15.2-13.4 5.1-239.63c-5.2-21.09-11.8-24.89-16.9-20.22l-4.2 2.11 2 19.14.7 44.47-7.1 124.23-18.3-137.78c8.8-15.88-3.9-35.38-.6-50.02-67.1 1.24-140.4-13.332-202.8-3.28-14 2.25-23.7 21.31-36.9 24.48-4.3 1.03-13.9-23.45-18.4-23.5z"
       overflow="visible"
       enable-background="accumulate"
       filter="url(#b)"
       fill-rule="evenodd"
       fill="#f6e7d0"
       color="#000"
       id="path8" />
    <path
       d="M354 27.39l-70.3 96.91 46.4 97.6-56.2 43.6 33 74.4-30.2 63.2 69.8 48.8 31.6 29.5 31.6-13.3L365.9 335l55.5-36.5 2.1-146.1-56.9-101.83zM116.6 55.48L89.9 123.6s33.7 65.3 35.8 68.8c2.1 3.6-7 118-7 118l42.8 73.8s9.9-82.9 7.1-83.6c-2.8-.7-29.5-42.1-29.5-42.1l23.8-84.3-36.5-37.2z"
       color="#000"
       overflow="visible"
       fill="#f2dbb9"
       fill-rule="evenodd"
       filter="url(#c)"
       enable-background="accumulate"
       id="path9" />
    <path
       d="M39.33 172.1l-5.62 108.1L74.45 328 42.84 464.9l96.96-39.3 30.2 42.9 74.4-38.7-80.8-169.9-60.4-16.9z"
       color="#000"
       overflow="visible"
       fill="#eed3a4"
       fill-rule="evenodd"
       enable-background="accumulate"
       filter="url(#d)"
       id="path10" />
    <path
       d="M266.9 66.72L324.5 191 434 221.2l21.8-111.6-41.4-68.86z"
       color="#000"
       overflow="visible"
       fill="#eed3a4"
       fill-rule="evenodd"
       enable-background="accumulate"
       filter="url(#e)"
       id="path11" />
  </svg>
  <path
     id="path25"
     style="fill:#4f6c14;fill-opacity:1;stroke-width:0.834457"
     d="M 258.08203,59.154175 C 189.80261,107.00609 153.46019,161.0715 149.18945,215.63659 l 76.90039,45.16407 -46.01367,-46.80664 c 3.05662,-39.0726 29.07934,-77.78743 77.97266,-112.05274 48.89333,34.26281 74.76175,73.07533 77.81836,112.14454 l -46.01953,46.69335 76.90429,-45.01562 C 362.48453,161.20255 326.36229,107.00609 258.08203,59.154175 Z m 0.19727,56.779305 c -3.03937,1.33168 -5.42532,3.7442 -8.04297,5.72461 -15.71848,12.49766 -30.07868,26.93277 -41.1875,43.71875 -8.63784,13.12625 -14.94622,27.96731 -17.19922,43.57617 0.05,1.90119 1.82852,2.98794 2.95898,4.27344 13.52571,13.95201 27.26289,27.70663 40.46485,41.96679 2.03253,2.74625 1.9164,6.56621 0.67773,9.6211 -1.62231,4.01128 -5.76364,7.02517 -10.16406,6.7871 -3.85664,-0.18475 -7.19431,-2.37729 -10.41797,-4.28125 -4.28952,-2.65972 -8.702,-5.11275 -13.03516,-7.70117 -10.51432,-6.16531 -21.01554,-12.35224 -31.51953,-18.53516 -0.0404,2.08754 -2.4867,3.15911 -2.42773,5.26758 0.88838,3.40529 2.53572,6.57387 4.19336,9.66797 7.15773,12.78822 18.3879,22.94341 31.00781,30.20507 7.98154,4.58903 16.6514,7.98768 25.46094,10.51758 5.60706,1.9784 8.62334,9.23272 5.94922,14.58594 -1.68449,3.57464 -5.16505,5.92778 -8.87305,7.00586 -3.98563,1.11236 -8.07338,1.90687 -12.1582,2.47656 -4.59909,0.63572 -9.24175,0.83633 -13.88086,0.8711 -1.87656,0.3817 -1.90902,3.50261 -0.0801,3.98437 3.80884,1.94315 6.04434,6.38399 5.53711,10.60352 -0.32704,3.61758 -2.49941,7.15232 -5.89844,8.61914 -4.52122,2.23349 -9.68777,2.47373 -14.5957,2.97656 -6.27673,0.48327 -12.59467,0.17209 -18.81445,-0.73633 2.3904,4.50013 6.54462,7.70428 9.10937,12.08594 2.57106,4.39551 0.99015,10.65694 -3.19141,13.5918 -3.22632,2.26097 -7.66276,2.74597 -11.44726,1.5664 -4.02431,-1.34053 -8.11546,-2.4494 -12.14063,-3.79492 1.77738,23.92246 5.25229,47.68977 9.61329,71.26953 65.21807,-0.003 130.43619,-0.007 195.65429,-0.01 4.36896,-23.73035 7.88159,-47.64422 9.63477,-71.7207 -6.65089,2.21996 -13.35917,4.7977 -20.47071,4.58985 -3.9037,-0.70641 -7.01873,-3.96952 -8.19335,-7.66993 -0.88419,-2.70928 -0.54298,-5.76376 0.95507,-8.19336 1.46677,-2.55488 3.65975,-4.57647 5.51563,-6.83007 0.96177,-1.52658 -0.13539,-3.82588 -1.95899,-3.95508 -1.17141,-0.0563 -2.33986,0.14644 -3.51562,0.0762 -7.3895,0.0197 -14.82678,-0.91124 -21.77344,-3.50586 -4.47929,-2.55807 -6.33536,-8.63764 -4.54492,-13.41406 0.78521,-2.08564 2.19171,-3.81643 4.00781,-5.02149 1.00054,-0.80853 2.35565,-1.37824 2.92383,-2.58983 0.36189,-1.43259 -1.31871,-2.68529 -2.64063,-2.21875 -10.84694,0.59388 -21.91688,-0.49501 -32.07421,-4.5332 -3.50158,-1.47115 -6.27318,-4.84948 -6.5,-8.71289 -0.36204,-4.08906 1.52558,-8.54054 5.20703,-10.56447 2.28356,-1.14756 4.79675,-1.70916 7.16797,-2.63867 7.32492,-2.47405 14.60974,-5.29236 21.15625,-9.45312 11.98597,-7.21611 22.60428,-17.06242 29.60351,-29.26368 2.30499,-4.00478 4.02089,-8.32491 5.60547,-12.64648 0.18368,-0.64325 -0.50869,-1.40639 -1.13672,-0.99023 -11.91849,6.86803 -23.76516,13.86404 -35.73437,20.64453 -4.82093,2.71411 -9.64301,5.46794 -14.51758,8.08398 -4.25167,1.1408 -9.00371,-1.00196 -11.49414,-4.51953 -2.54398,-3.32722 -2.59625,-8.17346 -0.40821,-11.69141 2.75393,-4.30733 6.89276,-7.41886 10.30079,-11.18359 11.13141,-11.26673 22.26385,-22.53137 33.39453,-33.79883 -2.68532,-18.38145 -10.49605,-35.80288 -21.49219,-50.69531 -11.92542,-16.23427 -26.72266,-30.1994 -42.78516,-42.29101 -0.60482,-0.34772 -1.10416,-1.04665 -1.78515,-1.19727 z m -30.88477,64.23242 c 6.1316,0 12.02571,4.36267 17.60156,11.26367 -11.00065,13.4331 -24.1844,13.3154 -35.20507,0 5.53162,-6.7658 11.53201,-11.26367 17.60351,-11.26367 z m 58.81641,0 c 6.13159,0 12.0288,4.36267 17.60547,11.26367 -11.00146,13.4331 -24.18749,13.3154 -35.20899,0 5.53161,-6.7658 11.53286,-11.26367 17.60352,-11.26367 z m -128.89844,61.17383 -1.57812,1.4668 c -0.005,-0.025 -0.0114,-0.0492 -0.0156,-0.0742 l -0.10937,0.19336 -54.82618,51.04492 c 19.96855,52.9596 18.64339,105.91334 16.57227,158.87304 h 31.67578 c -5.8195,-29.12261 -11.68487,-64.62502 -12.36328,-101.04493 7.60189,5.6743 17.36259,9.94475 29.1543,12.30274 -9.70474,-9.0036 -14.85863,-20.81738 -13.18555,-32.67578 12.83395,5.9246 27.24739,7.58775 42.27344,3.84765 -15.64605,-6.6756 -29.15586,-19.74082 -35.93164,-36.51172 22.47442,11.8076 46.13895,15.55615 66.22265,8.15625 -30.2382,-7.43499 -61.81029,-31.35054 -69.17187,-62.87303 0.4214,-0.9045 0.84705,-1.80603 1.28515,-2.70313 z m 197.38086,0.01 c 0.2509,0.5153 0.48839,1.03688 0.73438,1.55469 l -0.0918,-0.16992 c -6.77579,32.1733 -38.82645,56.6498 -69.48438,64.1875 21.35541,7.8689 46.75967,3.13115 70.47657,-10.49806 -6.42532,17.89661 -20.46529,31.86912 -36.83399,38.85352 13.74349,3.4213 26.97562,2.32398 38.95508,-2.41992 1.08229,11.3737 -4.03848,22.6036 -13.35352,31.24609 12.36665,-2.4733 22.50542,-7.04742 30.25586,-13.14063 -0.60249,36.71191 -6.5163,72.53412 -12.38086,101.88282 h 31.67578 c -2.07279,-52.9604 -3.3974,-105.91229 16.57032,-158.8711 z" />
  <path
     style="fill:#4f6c14;fill-opacity:1;stroke-width:0.834457"
     d="m 281.78667,1107.769 h -0.002 0.006 c -10e-4,0 -0.003,0 -0.004,-0.01 z"
     id="path19" />
</svg>
