<?xml version="1.0" encoding="UTF-8" standalone="no"?>
<svg
   viewBox="0 0 512 512"
   style="height: 512px; width: 512px;"
   version="1.1"
   id="svg12"
   sodipodi:docname="viper--hooded-assassin.svg"
   inkscape:version="1.4 (e7c3feb1, 2024-10-09)"
   xmlns:inkscape="http://www.inkscape.org/namespaces/inkscape"
   xmlns:sodipodi="http://sodipodi.sourceforge.net/DTD/sodipodi-0.dtd"
   xmlns="http://www.w3.org/2000/svg"
   xmlns:svg="http://www.w3.org/2000/svg">
  <sodipodi:namedview
     id="namedview12"
     pagecolor="#505050"
     bordercolor="#ffffff"
     borderopacity="1"
     inkscape:showpageshadow="0"
     inkscape:pageopacity="0"
     inkscape:pagecheckerboard="1"
     inkscape:deskcolor="#d1d1d1"
     inkscape:zoom="0.37794139"
     inkscape:cx="19.844347"
     inkscape:cy="441.86745"
     inkscape:window-width="992"
     inkscape:window-height="855"
     inkscape:window-x="0"
     inkscape:window-y="38"
     inkscape:window-maximized="0"
     inkscape:current-layer="svg12" />
  <defs
     id="defs2">
    <radialGradient
       id="darkzaitzev-hooded-assassin-gradient-0">
      <stop
         offset="0%"
         stop-color="#830000"
         stop-opacity="1"
         id="stop1" />
      <stop
         offset="100%"
         stop-color="#000"
         stop-opacity="1"
         id="stop2" />
    </radialGradient>
  </defs>
  <path
     d="M0 0h512v512H0z"
     fill="url(#pattern)"
     id="path2" />
  <svg
     version="1.1"
     id="svg11">
    <defs
       id="defs6">
      <filter
         id="b"
         x="-0.023338979"
         width="1.046678"
         y="-0.023448784"
         height="1.0468976"
         color-interpolation-filters="sRGB">
        <feGaussianBlur
           stdDeviation="4.823"
           id="feGaussianBlur2" />
      </filter>
      <filter
         id="a"
         x="-0.012011281"
         width="1.0240226"
         y="-0.011988317"
         height="1.0239766"
         color-interpolation-filters="sRGB">
        <feGaussianBlur
           stdDeviation="2.55"
           id="feGaussianBlur3" />
      </filter>
      <filter
         id="c"
         x="-0.11244604"
         width="1.2248921"
         y="-0.082623731"
         height="1.1652475"
         color-interpolation-filters="sRGB">
        <feGaussianBlur
           stdDeviation="15.63"
           id="feGaussianBlur4" />
      </filter>
      <filter
         id="e"
         x="-0.23758603"
         width="1.4751721"
         y="-0.24869778"
         height="1.4973956"
         color-interpolation-filters="sRGB">
        <feGaussianBlur
           stdDeviation="18.7"
           id="feGaussianBlur5" />
      </filter>
      <filter
         id="d"
         x="-0.21301439"
         width="1.4260288"
         y="-0.15141701"
         height="1.302834"
         color-interpolation-filters="sRGB">
        <feGaussianBlur
           stdDeviation="18.7"
           id="feGaussianBlur6" />
      </filter>
    </defs>
    <path
       d="M196.6 1.207c-2.5 11.323-4.8 22.703-10.2 33.383-7-10.68-12.6-20.91-16.7-31.988L2.494 4.338C13 104.9 10.86 175.3 1.979 278.3L15.4 295.5l-9.494 6.3L2.6 462.7l1.019 45.9 112.681 3.1c3.6-16.1 6.5-32.5 13.2-47.3 4.5 14.4 5.7 29.4 7 44.4l160 .3c.8-6.1.7-8.1 2.3-14.4 5.1 4.5 7.8 9.5 10.6 14.5.8-10.1 3.9-19.8 7-29.5 4.8 9.2 6.7 19.4 8.8 29.5l185.2.4-4.6-78.2-21.4-8.2 21.3-4.9 5.8-395.47c-7-6.73-13.3-13.744-18-21.465l-15.1.114-2.1 20.321-1.4 47.23.8 84.87-8.6-97.14c9.3-16.86 2.2-39.69 5.7-55.239-92.1 1.696-184.1.685-276.2-.314z"
       overflow="visible"
       color="#000"
       fill="#ebc893"
       fill-rule="evenodd"
       stroke="#e0aa58"
       enable-background="accumulate"
       id="path6" />
    <path
       d="M196.6 1.203c-2.5 11.327-4.8 22.707-10.2 33.387-7-10.68-12.6-20.91-16.7-31.99L2.494 4.336C13 104.9 10.86 175.3 1.979 278.3L15.4 295.5l-9.494 6.3L2.6 462.7l1.019 45.9 112.681 3.1c.5-2.1-7.9-2.3-7.4-4.5L5.244 504.5l-.914-47.3 4.63-153.7 12.42-9-13.093-16.8C16.95 177.3 16.36 104 6.113 5.992l162.687.164c4 10.804 10.3 24.254 17.1 34.664 5.3-10.41 9.5-25.97 12-37.02 89.8.974 173.8 3.521 263.6 1.867 4.6 1.226 10.6.431 11.3-4.149-92.1 1.696-184.1.684-276.2-.315zm296.9.158l-15.1.116-.6 6.277 13.5-2.557c4.6 7.533 9.7 12.383 16.6 18.943l-4.6 389.06-19.9 9.9 4.1-.6 18.2-4.2 5.8-395.47c-7-6.73-13.3-13.748-18-21.469zm9.6 435.739l3.5 69.7-177.7.1c.4 2.1-4.1.2-3.7 2.3l185.2.4-4.6-78.2zm-370 25.1c-1 2.2-2.9.4-3.7 2.6 4.2 14 5.8 29.5 7.1 44l158 .3c1.9-5 .8-9.7 4.3-14.4 5.1 4.5 7.8 9.5 10.6 14.5.8-10.1 3.9-19.8 7-29.5 1.8 3.4 3.2 7 4.3 10.6-1.4-5.6-2.4-8.3-5.1-13.4-3 9.4-6.7 16.2-7.5 26-2.7-4.9-5.4-9.7-10.4-14.1-3.4 4.6-6.2 9.1-8 14l-147.6 3.4c-3.4-14.6-7.1-30.3-9-44z"
       overflow="visible"
       color="#000"
       opacity=".527"
       fill="#c87137"
       fill-rule="evenodd"
       filter="url(#a)"
       enable-background="accumulate"
       id="path7" />
    <path
       d="M200.1 16.1c-2.3 10.67-10.5 21.38-15.6 31.44-6.6-10.06-13.9-19.69-17.7-30.12L17.34 19.05C24.61 113.6 7.605 179.3 16.85 277l18.26 20.1L10.34 309l7.1 141.6.96 43.3 90.2 3.4c3.4-15.2 15-35.6 21.3-49.6 4.3 13.6 15.4 36.7 16.6 50.9l45.1.8 13.8-18.7 14.4 22.2 68.7-8.6c1.8-4.7 4.5-9.1 7.8-13.5 4.8 4.2 7.4 8.9 10 13.6.8-9.5 7.7-19.6 10.6-28.7 4.5 8.6 19.9 28.9 33.1 33.9l114.6 5.6 22.3-14.7 19.4 14.7-14.5-67.6-34.6-14.2 37.5-15.1 2.1-96.9-14.5-21.9 15.2-13.4 5.1-239.63c-5.2-21.09-11.8-24.89-16.9-20.22l-4.2 2.11 2 19.14.7 44.47-7.1 124.23-18.3-137.78c8.8-15.88-3.9-35.38-.6-50.02-67.1 1.24-140.4-13.332-202.8-3.28-14 2.25-23.7 21.31-36.9 24.48-4.3 1.03-13.9-23.45-18.4-23.5z"
       overflow="visible"
       enable-background="accumulate"
       filter="url(#b)"
       fill-rule="evenodd"
       fill="#f6e7d0"
       color="#000"
       id="path8" />
    <path
       d="M354 27.39l-70.3 96.91 46.4 97.6-56.2 43.6 33 74.4-30.2 63.2 69.8 48.8 31.6 29.5 31.6-13.3L365.9 335l55.5-36.5 2.1-146.1-56.9-101.83zM116.6 55.48L89.9 123.6s33.7 65.3 35.8 68.8c2.1 3.6-7 118-7 118l42.8 73.8s9.9-82.9 7.1-83.6c-2.8-.7-29.5-42.1-29.5-42.1l23.8-84.3-36.5-37.2z"
       color="#000"
       overflow="visible"
       fill="#f2dbb9"
       fill-rule="evenodd"
       filter="url(#c)"
       enable-background="accumulate"
       id="path9" />
    <path
       d="M39.33 172.1l-5.62 108.1L74.45 328 42.84 464.9l96.96-39.3 30.2 42.9 74.4-38.7-80.8-169.9-60.4-16.9z"
       color="#000"
       overflow="visible"
       fill="#eed3a4"
       fill-rule="evenodd"
       enable-background="accumulate"
       filter="url(#d)"
       id="path10" />
    <path
       d="M266.9 66.72L324.5 191 434 221.2l21.8-111.6-41.4-68.86z"
       color="#000"
       overflow="visible"
       fill="#eed3a4"
       fill-rule="evenodd"
       enable-background="accumulate"
       filter="url(#e)"
       id="path11" />
  </svg>
  <path
     id="path12"
     style="fill:#4f6c14;fill-opacity:1;stroke-width:0.874141"
     d="m 328.27959,89.956099 c -25.18138,-0.009 -48.46198,12.368581 -59.33716,35.534181 18.17339,1.5245 13.98494,48.13997 13.98494,48.13997 -10.3271,14.58679 -21.61685,29.00889 -31.98329,43.83432 0,0 -86.5809,115.63402 -155.928261,146.87757 -24.518772,19.74946 -29.11181,31.93436 -38.580505,46.02288 -4.263186,8.33932 8.091607,12.52032 10.228008,11.53779 19.865727,-9.1444 22.006947,-18.23924 41.145398,-31.18439 11.19337,-4.39344 20.83959,-13.89873 27.84583,-9.65827 30.56172,18.23459 94.0174,38.70583 103.38383,33.83337 15.60953,-8.09718 -5.05248,-38.09746 14.13841,-77.84639 27.94628,-2.93012 51.50195,-0.77456 77.21568,-10.5728 3.04463,43.95093 8.83359,47.71998 5.91395,93.61413 l 62.23844,0.91243 0.61178,-12.76977 -36.55173,-9.70872 c 10.0771,-48.9991 10.32766,-69.05287 4.0828,-111.88579 -0.83567,-5.78857 -46.98175,-7.23386 -70.81608,-3.31334 21.37187,-21.15595 35.20624,-39.54693 41.52803,-59.82701 l 0.0231,0.16608 c 6.67582,13.91896 26.2961,29.68371 30.88797,32.45212 24.2172,9.65751 33.40438,6.97703 55.03152,3.39742 4.2894,-0.68531 24.01419,21.45021 39.16917,8.39054 2.30948,-17.69087 14.44291,-17.80649 -4.31616,-28.59427 -4.23696,-2.3864 -23.65842,6.5226 -27.4653,6.02958 -17.6664,-2.16874 -27.05842,-4.55562 -51.0938,-11.10468 -8.94245,-11.52731 -28.56301,-49.06886 -48.45321,-52.22277 5.71251,-12.3691 24.67413,-46.42466 64.39335,-57.90126 -18.30714,-23.1997 -43.64072,-34.141211 -67.29673,-34.150821 z M 256.1637,125.49028 H 97.555479 l 162.624291,6.50052 c 7.41735,-1.86687 -0.63334,-6.70765 -4.01607,-6.50052 z m 144.14924,5.30848 c -40.78568,17.05974 -50.93401,44.05717 -50.93401,44.05717 l 8.66806,6.68132 c 0,0 8.4332,-4.16513 42.26595,-50.73849 z m -294.03685,33.87121 135.13586,6.50051 c 7.13579,-2.16661 8.74103,-4.3339 8.76267,-6.50051 z m -56.744946,42.53296 162.622186,6.50051 c 5.68777,-1.79771 9.38044,-3.86233 8.76476,-6.50051 z M 68.595396,252.593 176.6654,259.09352 c 4.77057,-0.98966 8.59121,-2.58414 8.76265,-6.50052 z m 351.856114,18.07194 -4.07018,9.98203 c 4.57438,-0.0725 9.11246,0.40961 13.39837,1.40437 -11.16628,26.9725 -20.92443,52.13049 -24.63341,81.37838 l -0.79469,6.60562 4.25098,-5.14659 c 18.18651,-22.44008 28.23794,-48.29755 39.29321,-74.98507 3.674,2.32172 7.20294,5.14509 10.55178,8.174 l 4.1774,-9.94208 -17.93529,-7.45289 -27.76805,58.19978 21.03207,-60.93916 -17.50009,-7.27839 z M 44.765082,301.34685 c -1.391838,1.07845 -1.131866,2.1571 0,3.23554 l 81.693718,3.26288 c 5.56161,-1.37445 7.35097,-3.87963 8.76477,-6.49842 z m 0,41.53014 c -0.489155,1.66249 -2.58398,2.52148 0,5.72054 l 19.467906,0.77786 c 6.102664,-1.63632 7.739172,-4.01589 8.764762,-6.4984 z"
     sodipodi:nodetypes="cccccccccccccccccccccccccccccccccccccccccccccccccccccccccccccccccccccccccc" />
</svg>
