<?xml version="1.0" encoding="UTF-8" standalone="no"?>
<svg
   viewBox="0 0 512 512"
   style="height: 512px; width: 512px;"
   version="1.1"
   id="svg12"
   sodipodi:docname="viper--twin-fangs.svg"
   inkscape:version="1.4 (e7c3feb1, 2024-10-09)"
   xml:space="preserve"
   xmlns:inkscape="http://www.inkscape.org/namespaces/inkscape"
   xmlns:sodipodi="http://sodipodi.sourceforge.net/DTD/sodipodi-0.dtd"
   xmlns="http://www.w3.org/2000/svg"
   xmlns:svg="http://www.w3.org/2000/svg"><sodipodi:namedview
     id="namedview12"
     pagecolor="#505050"
     bordercolor="#ffffff"
     borderopacity="1"
     inkscape:showpageshadow="0"
     inkscape:pageopacity="0"
     inkscape:pagecheckerboard="1"
     inkscape:deskcolor="#d1d1d1"
     inkscape:zoom="0.25161448"
     inkscape:cx="-194.74237"
     inkscape:cy="210.63971"
     inkscape:window-width="1248"
     inkscape:window-height="767"
     inkscape:window-x="342"
     inkscape:window-y="138"
     inkscape:window-maximized="0"
     inkscape:current-layer="svg12" /><defs
     id="defs2"><radialGradient
       id="delapouite-viking-shield-gradient-0"><stop
         offset="0%"
         stop-color="#830000"
         stop-opacity="1"
         id="stop1" /><stop
         offset="100%"
         stop-color="#000"
         stop-opacity="1"
         id="stop2" /></radialGradient></defs><path
     d="M0 0h512v512H0z"
     fill="url(#pattern)"
     id="path2" /><svg
     version="1.1"
     id="svg11"><defs
       id="defs6"><filter
         id="b"
         x="-0.023338979"
         width="1.046678"
         y="-0.023448784"
         height="1.0468976"
         color-interpolation-filters="sRGB"><feGaussianBlur
           stdDeviation="4.823"
           id="feGaussianBlur2" /></filter><filter
         id="a"
         x="-0.012011281"
         width="1.0240226"
         y="-0.011988317"
         height="1.0239766"
         color-interpolation-filters="sRGB"><feGaussianBlur
           stdDeviation="2.55"
           id="feGaussianBlur3" /></filter><filter
         id="c"
         x="-0.11244604"
         width="1.2248921"
         y="-0.082623731"
         height="1.1652475"
         color-interpolation-filters="sRGB"><feGaussianBlur
           stdDeviation="15.63"
           id="feGaussianBlur4" /></filter><filter
         id="e"
         x="-0.23758603"
         width="1.4751721"
         y="-0.24869778"
         height="1.4973956"
         color-interpolation-filters="sRGB"><feGaussianBlur
           stdDeviation="18.7"
           id="feGaussianBlur5" /></filter><filter
         id="d"
         x="-0.21301439"
         width="1.4260288"
         y="-0.15141701"
         height="1.302834"
         color-interpolation-filters="sRGB"><feGaussianBlur
           stdDeviation="18.7"
           id="feGaussianBlur6" /></filter></defs><path
       d="M196.6 1.207c-2.5 11.323-4.8 22.703-10.2 33.383-7-10.68-12.6-20.91-16.7-31.988L2.494 4.338C13 104.9 10.86 175.3 1.979 278.3L15.4 295.5l-9.494 6.3L2.6 462.7l1.019 45.9 112.681 3.1c3.6-16.1 6.5-32.5 13.2-47.3 4.5 14.4 5.7 29.4 7 44.4l160 .3c.8-6.1.7-8.1 2.3-14.4 5.1 4.5 7.8 9.5 10.6 14.5.8-10.1 3.9-19.8 7-29.5 4.8 9.2 6.7 19.4 8.8 29.5l185.2.4-4.6-78.2-21.4-8.2 21.3-4.9 5.8-395.47c-7-6.73-13.3-13.744-18-21.465l-15.1.114-2.1 20.321-1.4 47.23.8 84.87-8.6-97.14c9.3-16.86 2.2-39.69 5.7-55.239-92.1 1.696-184.1.685-276.2-.314z"
       overflow="visible"
       color="#000"
       fill="#ebc893"
       fill-rule="evenodd"
       stroke="#e0aa58"
       enable-background="accumulate"
       id="path6" /><path
       d="M196.6 1.203c-2.5 11.327-4.8 22.707-10.2 33.387-7-10.68-12.6-20.91-16.7-31.99L2.494 4.336C13 104.9 10.86 175.3 1.979 278.3L15.4 295.5l-9.494 6.3L2.6 462.7l1.019 45.9 112.681 3.1c.5-2.1-7.9-2.3-7.4-4.5L5.244 504.5l-.914-47.3 4.63-153.7 12.42-9-13.093-16.8C16.95 177.3 16.36 104 6.113 5.992l162.687.164c4 10.804 10.3 24.254 17.1 34.664 5.3-10.41 9.5-25.97 12-37.02 89.8.974 173.8 3.521 263.6 1.867 4.6 1.226 10.6.431 11.3-4.149-92.1 1.696-184.1.684-276.2-.315zm296.9.158l-15.1.116-.6 6.277 13.5-2.557c4.6 7.533 9.7 12.383 16.6 18.943l-4.6 389.06-19.9 9.9 4.1-.6 18.2-4.2 5.8-395.47c-7-6.73-13.3-13.748-18-21.469zm9.6 435.739l3.5 69.7-177.7.1c.4 2.1-4.1.2-3.7 2.3l185.2.4-4.6-78.2zm-370 25.1c-1 2.2-2.9.4-3.7 2.6 4.2 14 5.8 29.5 7.1 44l158 .3c1.9-5 .8-9.7 4.3-14.4 5.1 4.5 7.8 9.5 10.6 14.5.8-10.1 3.9-19.8 7-29.5 1.8 3.4 3.2 7 4.3 10.6-1.4-5.6-2.4-8.3-5.1-13.4-3 9.4-6.7 16.2-7.5 26-2.7-4.9-5.4-9.7-10.4-14.1-3.4 4.6-6.2 9.1-8 14l-147.6 3.4c-3.4-14.6-7.1-30.3-9-44z"
       overflow="visible"
       color="#000"
       opacity=".527"
       fill="#c87137"
       fill-rule="evenodd"
       filter="url(#a)"
       enable-background="accumulate"
       id="path7" /><path
       d="M200.1 16.1c-2.3 10.67-10.5 21.38-15.6 31.44-6.6-10.06-13.9-19.69-17.7-30.12L17.34 19.05C24.61 113.6 7.605 179.3 16.85 277l18.26 20.1L10.34 309l7.1 141.6.96 43.3 90.2 3.4c3.4-15.2 15-35.6 21.3-49.6 4.3 13.6 15.4 36.7 16.6 50.9l45.1.8 13.8-18.7 14.4 22.2 68.7-8.6c1.8-4.7 4.5-9.1 7.8-13.5 4.8 4.2 7.4 8.9 10 13.6.8-9.5 7.7-19.6 10.6-28.7 4.5 8.6 19.9 28.9 33.1 33.9l114.6 5.6 22.3-14.7 19.4 14.7-14.5-67.6-34.6-14.2 37.5-15.1 2.1-96.9-14.5-21.9 15.2-13.4 5.1-239.63c-5.2-21.09-11.8-24.89-16.9-20.22l-4.2 2.11 2 19.14.7 44.47-7.1 124.23-18.3-137.78c8.8-15.88-3.9-35.38-.6-50.02-67.1 1.24-140.4-13.332-202.8-3.28-14 2.25-23.7 21.31-36.9 24.48-4.3 1.03-13.9-23.45-18.4-23.5z"
       overflow="visible"
       enable-background="accumulate"
       filter="url(#b)"
       fill-rule="evenodd"
       fill="#f6e7d0"
       color="#000"
       id="path8" /><path
       d="M354 27.39l-70.3 96.91 46.4 97.6-56.2 43.6 33 74.4-30.2 63.2 69.8 48.8 31.6 29.5 31.6-13.3L365.9 335l55.5-36.5 2.1-146.1-56.9-101.83zM116.6 55.48L89.9 123.6s33.7 65.3 35.8 68.8c2.1 3.6-7 118-7 118l42.8 73.8s9.9-82.9 7.1-83.6c-2.8-.7-29.5-42.1-29.5-42.1l23.8-84.3-36.5-37.2z"
       color="#000"
       overflow="visible"
       fill="#f2dbb9"
       fill-rule="evenodd"
       filter="url(#c)"
       enable-background="accumulate"
       id="path9" /><path
       d="M39.33 172.1l-5.62 108.1L74.45 328 42.84 464.9l96.96-39.3 30.2 42.9 74.4-38.7-80.8-169.9-60.4-16.9z"
       color="#000"
       overflow="visible"
       fill="#eed3a4"
       fill-rule="evenodd"
       enable-background="accumulate"
       filter="url(#d)"
       id="path10" /><path
       d="M266.9 66.72L324.5 191 434 221.2l21.8-111.6-41.4-68.86z"
       color="#000"
       overflow="visible"
       fill="#eed3a4"
       fill-rule="evenodd"
       enable-background="accumulate"
       filter="url(#e)"
       id="path11" /></svg><path
     id="path3"
     style="fill:#4f6c14;fill-opacity:1;stroke-width:0.561766"
     d="M 167.50195 63.5 C 167.33225 63.47661 160.50702 86.961371 152.33398 115.6875 C 144.16095 144.41362 132.29128 186.08951 125.95703 208.30273 C 119.6228 230.51594 114.3199 249.19177 114.17383 249.80273 C 113.97918 250.6168 118.65465 256.32307 131.67578 271.16016 L 149.44531 291.40625 L 149.44531 305.50977 C 155.18935 305.04025 160.51502 301.81424 166.03906 300.01562 C 172.55934 297.89261 178.66594 293.25517 185.49414 293.26953 L 185.49805 291.14844 L 202.93945 271.16406 C 215.94649 256.26028 220.36426 250.8234 220.31641 249.7793 C 220.28111 249.00928 211.2772 216.83763 200.30664 178.28711 C 189.33574 139.73659 177.53478 98.148577 174.08398 85.869141 C 170.6332 73.589694 167.67163 63.523406 167.50195 63.5 z M 346.13477 63.515625 C 332.83206 63.137993 319.6332 69.710235 312.71094 81.640625 C 303.09234 98.21802 307.38358 119.62007 322.55078 130.71289 L 326.96094 133.9375 L 326.96094 141.3418 C 327.85335 141.20989 328.7006 141.13172 329.46484 141.13672 C 335.70385 141.17776 341.40906 144.75812 347.3418 146.68945 C 352.67806 148.4266 357.73663 151.8506 363.14062 153.03125 C 363.29339 140.4477 363.57879 133.0972 364.29102 132.69336 C 365.03462 132.27176 367.27049 130.59551 369.25781 128.9707 C 382.39015 118.23406 385.86171 97.956609 377.26367 82.207031 C 374.78018 77.657855 368.39884 71.174421 363.75977 68.486328 C 358.25002 65.29375 352.18145 63.687276 346.13477 63.515625 z M 344.44727 78.527344 C 347.99443 78.478724 351.56707 79.072195 354.10547 80.322266 C 358.49925 82.486084 363.10034 87.042193 365.19727 91.306641 C 367.32092 95.625458 367.71052 102.74911 366.10352 107.89062 C 365.22026 110.71662 363.24534 113.71811 360.80273 116.24609 C 358.36012 118.77405 355.44975 120.82885 352.69922 121.76367 C 342.28623 125.30269 330.584 121.10902 325.60938 112.05664 C 319.05904 100.13693 322.92666 87.101834 334.94727 80.585938 C 337.37951 79.267504 340.9001 78.575963 344.44727 78.527344 z M 167.41406 89.53125 C 167.43641 89.413522 167.45533 89.691228 167.4707 90.398438 C 167.70761 101.29884 168.1438 148.97408 168.39258 191.27539 L 168.54102 216.70312 L 183.84375 226.58789 C 192.25944 232.02475 199.14453 236.63025 199.14453 236.82227 C 199.14454 237.01429 192.11031 233.19804 183.51367 228.3418 C 173.86252 222.88983 167.41352 219.65471 166.6543 219.88281 C 165.97799 220.08605 158.58593 224.13344 150.22852 228.87891 C 141.87106 233.62442 134.78769 237.50026 134.48633 237.49023 C 134.18498 237.48013 134.6699 237.01116 135.56445 236.44922 C 136.459 235.88732 143.63786 231.24759 151.51758 226.13867 L 165.84375 216.85156 L 165.95898 207.21289 C 166.02178 201.91237 166.33701 171.14628 166.66016 138.84375 C 166.94291 110.57904 167.25762 90.355347 167.41406 89.53125 z M 329.46484 147.83398 C 328.7006 147.82896 327.85334 147.90514 326.96094 148.03711 L 326.96094 160.76758 C 327.2036 160.75568 327.45428 160.73628 327.68359 160.73828 C 333.9228 160.77953 339.62579 164.35929 345.55859 166.29102 C 351.43246 168.20354 356.97358 172.15189 363.00586 172.9082 C 363.00736 166.91023 363.068 164.05453 363.0957 159.71094 C 357.70905 158.52094 352.66285 155.11698 347.3418 153.38477 C 341.40909 151.45347 335.70384 147.87498 329.46484 147.83398 z M 327.68359 167.43359 C 327.45431 167.43209 327.20359 167.45294 326.96094 167.46484 L 326.96094 177.26562 L 326.96094 179.46094 C 327.05109 179.45944 327.15018 179.44862 327.23828 179.44922 C 333.47704 179.49034 339.18087 183.07047 345.11328 185.00195 C 351.1262 186.95962 356.78883 191.05011 362.98828 191.66602 L 362.97852 179.60156 C 356.95663 178.83692 351.42378 174.89797 345.55859 172.98828 C 339.62577 171.05657 333.92283 167.47459 327.68359 167.43359 z M 327.23633 186.14648 C 327.14858 186.14598 327.05064 186.15425 326.96094 186.15625 L 326.96094 199.79492 C 332.70525 200.26424 338.03037 203.48862 343.55469 205.28711 C 350.07299 207.40919 356.17831 212.0446 363.00391 212.0332 L 362.99414 198.36328 C 356.79304 197.74879 351.12759 193.65723 345.11328 191.69922 C 339.18014 189.76764 333.47581 186.18738 327.23633 186.14648 z M 326.95898 206.49023 L 326.95898 220.59375 L 309.19141 240.83984 C 296.17028 255.67694 291.4948 261.3832 291.68945 262.19727 C 291.83552 262.80823 297.13843 281.48406 303.47266 303.69727 C 309.80691 325.91049 321.67659 367.58639 329.84961 396.3125 C 338.02266 425.03864 344.84787 448.5234 345.01758 448.5 C 345.18726 448.47659 348.14883 438.4103 351.59961 426.13086 C 355.0504 413.85142 366.85138 372.26342 377.82227 333.71289 C 388.79284 295.16238 397.79673 262.99072 397.83203 262.2207 C 397.87989 261.1766 393.46212 255.73972 380.45508 240.83594 L 363.01172 220.85156 L 363.00977 218.73047 C 356.18156 218.74482 350.07498 214.10739 343.55469 211.98438 C 338.03066 210.18577 332.70302 206.95975 326.95898 206.49023 z M 312.00195 274.50977 C 312.3033 274.49974 319.38669 278.37559 327.74414 283.12109 C 336.10156 287.86657 343.49165 291.91395 344.16797 292.11719 C 344.92719 292.34529 351.37815 289.11017 361.0293 283.6582 C 369.62594 278.80196 376.66017 274.98571 376.66016 275.17773 C 376.66016 275.36975 369.77506 279.97525 361.35938 285.41211 L 346.05664 295.29688 L 345.9082 320.72461 C 345.65941 363.02593 345.22325 410.70116 344.98633 421.60156 C 344.86337 427.25924 344.49894 405.45877 344.17578 373.15625 C 343.85264 340.85372 343.53741 310.08764 343.47461 304.78711 L 343.35938 295.14844 L 329.0332 285.86133 C 321.15348 280.75241 313.97463 276.11269 313.08008 275.55078 C 312.18553 274.98885 311.7006 274.51987 312.00195 274.50977 z M 185.48828 299.9668 C 178.66269 299.9554 172.55737 304.59081 166.03906 306.71289 C 160.51475 308.51138 155.18962 311.73576 149.44531 312.20508 L 149.44531 325.84375 C 149.53511 325.84575 149.63295 325.85402 149.7207 325.85352 C 155.96018 325.81262 161.66452 322.23236 167.59766 320.30078 C 173.61197 318.34277 179.27742 314.25122 185.47852 313.63672 L 185.48828 299.9668 z M 185.47266 320.33398 C 179.27322 320.94989 173.61057 325.04038 167.59766 326.99805 C 161.66524 328.92952 155.96143 332.50966 149.72266 332.55078 C 149.63456 332.55138 149.53545 332.54056 149.44531 332.53906 L 149.44531 334.73438 L 149.44531 344.53516 C 149.68796 344.54706 149.93868 344.56791 150.16797 344.56641 C 156.40721 344.52541 162.11015 340.94343 168.04297 339.01172 C 173.90816 337.10203 179.441 333.16309 185.46289 332.39844 L 185.47266 320.33398 z M 185.49023 339.0918 C 179.45795 339.84812 173.91684 343.79646 168.04297 345.70898 C 162.11017 347.64071 156.40717 351.22048 150.16797 351.26172 C 149.93865 351.26372 149.68798 351.24432 149.44531 351.23242 L 149.44531 363.96289 C 150.33771 364.09487 151.18499 364.17104 151.94922 364.16602 C 158.18822 364.12502 163.89346 360.54654 169.82617 358.61523 C 175.14722 356.88302 180.19343 353.47905 185.58008 352.28906 C 185.55238 347.94547 185.49173 345.08977 185.49023 339.0918 z M 185.625 358.96875 C 180.22101 360.1494 175.16243 363.57341 169.82617 365.31055 C 163.89343 367.24189 158.18823 370.82224 151.94922 370.86328 C 151.18499 370.86828 150.33772 370.79011 149.44531 370.6582 L 149.44531 378.0625 L 145.03516 381.28711 C 129.86796 392.37994 125.57671 413.78199 135.19531 430.35938 C 145.26406 447.71267 168.61298 453.72992 186.24414 443.51367 C 190.88322 440.82558 197.26456 434.34214 199.74805 429.79297 C 208.34608 414.04339 204.87453 393.76594 191.74219 383.0293 C 189.75486 381.40449 187.51898 379.72824 186.77539 379.30664 C 186.06315 378.90279 185.77778 371.5523 185.625 358.96875 z M 167.25781 388.98828 C 169.89692 388.95148 172.58035 389.35157 175.18359 390.23633 C 177.93413 391.17115 180.8445 393.22595 183.28711 395.75391 C 185.72972 398.28189 187.70463 401.28337 188.58789 404.10938 C 190.19489 409.25088 189.8053 416.37455 187.68164 420.69336 C 185.58471 424.95781 180.98559 429.51392 176.5918 431.67773 C 171.515 434.17788 162.29613 434.05092 157.43164 431.41406 C 145.41103 424.89816 141.54341 411.86307 148.09375 399.94336 C 151.82471 393.15407 159.34048 389.09869 167.25781 388.98828 z " /></svg>
