<?xml version="1.0" encoding="UTF-8" standalone="no"?>
<svg
   viewBox="0 0 512 512"
   style="height: 512px; width: 512px;"
   version="1.1"
   id="svg12"
   sodipodi:docname="viper--twin-fangs copy.svg"
   inkscape:version="1.4 (e7c3feb1, 2024-10-09)"
   xml:space="preserve"
   xmlns:inkscape="http://www.inkscape.org/namespaces/inkscape"
   xmlns:sodipodi="http://sodipodi.sourceforge.net/DTD/sodipodi-0.dtd"
   xmlns="http://www.w3.org/2000/svg"
   xmlns:svg="http://www.w3.org/2000/svg"><sodipodi:namedview
     id="namedview12"
     pagecolor="#505050"
     bordercolor="#ffffff"
     borderopacity="1"
     inkscape:showpageshadow="0"
     inkscape:pageopacity="0"
     inkscape:pagecheckerboard="1"
     inkscape:deskcolor="#d1d1d1"
     inkscape:zoom="0.29572278"
     inkscape:cx="-512.30412"
     inkscape:cy="612.0597"
     inkscape:window-width="1728"
     inkscape:window-height="1051"
     inkscape:window-x="0"
     inkscape:window-y="38"
     inkscape:window-maximized="1"
     inkscape:current-layer="svg12" /><defs
     id="defs2"><radialGradient
       id="delapouite-viking-shield-gradient-0"><stop
         offset="0%"
         stop-color="#830000"
         stop-opacity="1"
         id="stop1" /><stop
         offset="100%"
         stop-color="#000"
         stop-opacity="1"
         id="stop2" /></radialGradient></defs><path
     d="M0 0h512v512H0z"
     fill="url(#pattern)"
     id="path2" /><svg
     version="1.1"
     id="svg11"><defs
       id="defs6"><filter
         id="b"
         x="-0.023338979"
         width="1.046678"
         y="-0.023448784"
         height="1.0468976"
         color-interpolation-filters="sRGB"><feGaussianBlur
           stdDeviation="4.823"
           id="feGaussianBlur2" /></filter><filter
         id="a"
         x="-0.012011281"
         width="1.0240226"
         y="-0.011988317"
         height="1.0239766"
         color-interpolation-filters="sRGB"><feGaussianBlur
           stdDeviation="2.55"
           id="feGaussianBlur3" /></filter><filter
         id="c"
         x="-0.11244604"
         width="1.2248921"
         y="-0.082623731"
         height="1.1652475"
         color-interpolation-filters="sRGB"><feGaussianBlur
           stdDeviation="15.63"
           id="feGaussianBlur4" /></filter><filter
         id="e"
         x="-0.23758603"
         width="1.4751721"
         y="-0.24869778"
         height="1.4973956"
         color-interpolation-filters="sRGB"><feGaussianBlur
           stdDeviation="18.7"
           id="feGaussianBlur5" /></filter><filter
         id="d"
         x="-0.21301439"
         width="1.4260288"
         y="-0.15141701"
         height="1.302834"
         color-interpolation-filters="sRGB"><feGaussianBlur
           stdDeviation="18.7"
           id="feGaussianBlur6" /></filter></defs><path
       d="M196.6 1.207c-2.5 11.323-4.8 22.703-10.2 33.383-7-10.68-12.6-20.91-16.7-31.988L2.494 4.338C13 104.9 10.86 175.3 1.979 278.3L15.4 295.5l-9.494 6.3L2.6 462.7l1.019 45.9 112.681 3.1c3.6-16.1 6.5-32.5 13.2-47.3 4.5 14.4 5.7 29.4 7 44.4l160 .3c.8-6.1.7-8.1 2.3-14.4 5.1 4.5 7.8 9.5 10.6 14.5.8-10.1 3.9-19.8 7-29.5 4.8 9.2 6.7 19.4 8.8 29.5l185.2.4-4.6-78.2-21.4-8.2 21.3-4.9 5.8-395.47c-7-6.73-13.3-13.744-18-21.465l-15.1.114-2.1 20.321-1.4 47.23.8 84.87-8.6-97.14c9.3-16.86 2.2-39.69 5.7-55.239-92.1 1.696-184.1.685-276.2-.314z"
       overflow="visible"
       color="#000"
       fill="#ebc893"
       fill-rule="evenodd"
       stroke="#e0aa58"
       enable-background="accumulate"
       id="path6" /><path
       d="M196.6 1.203c-2.5 11.327-4.8 22.707-10.2 33.387-7-10.68-12.6-20.91-16.7-31.99L2.494 4.336C13 104.9 10.86 175.3 1.979 278.3L15.4 295.5l-9.494 6.3L2.6 462.7l1.019 45.9 112.681 3.1c.5-2.1-7.9-2.3-7.4-4.5L5.244 504.5l-.914-47.3 4.63-153.7 12.42-9-13.093-16.8C16.95 177.3 16.36 104 6.113 5.992l162.687.164c4 10.804 10.3 24.254 17.1 34.664 5.3-10.41 9.5-25.97 12-37.02 89.8.974 173.8 3.521 263.6 1.867 4.6 1.226 10.6.431 11.3-4.149-92.1 1.696-184.1.684-276.2-.315zm296.9.158l-15.1.116-.6 6.277 13.5-2.557c4.6 7.533 9.7 12.383 16.6 18.943l-4.6 389.06-19.9 9.9 4.1-.6 18.2-4.2 5.8-395.47c-7-6.73-13.3-13.748-18-21.469zm9.6 435.739l3.5 69.7-177.7.1c.4 2.1-4.1.2-3.7 2.3l185.2.4-4.6-78.2zm-370 25.1c-1 2.2-2.9.4-3.7 2.6 4.2 14 5.8 29.5 7.1 44l158 .3c1.9-5 .8-9.7 4.3-14.4 5.1 4.5 7.8 9.5 10.6 14.5.8-10.1 3.9-19.8 7-29.5 1.8 3.4 3.2 7 4.3 10.6-1.4-5.6-2.4-8.3-5.1-13.4-3 9.4-6.7 16.2-7.5 26-2.7-4.9-5.4-9.7-10.4-14.1-3.4 4.6-6.2 9.1-8 14l-147.6 3.4c-3.4-14.6-7.1-30.3-9-44z"
       overflow="visible"
       color="#000"
       opacity=".527"
       fill="#c87137"
       fill-rule="evenodd"
       filter="url(#a)"
       enable-background="accumulate"
       id="path7" /><path
       d="M200.1 16.1c-2.3 10.67-10.5 21.38-15.6 31.44-6.6-10.06-13.9-19.69-17.7-30.12L17.34 19.05C24.61 113.6 7.605 179.3 16.85 277l18.26 20.1L10.34 309l7.1 141.6.96 43.3 90.2 3.4c3.4-15.2 15-35.6 21.3-49.6 4.3 13.6 15.4 36.7 16.6 50.9l45.1.8 13.8-18.7 14.4 22.2 68.7-8.6c1.8-4.7 4.5-9.1 7.8-13.5 4.8 4.2 7.4 8.9 10 13.6.8-9.5 7.7-19.6 10.6-28.7 4.5 8.6 19.9 28.9 33.1 33.9l114.6 5.6 22.3-14.7 19.4 14.7-14.5-67.6-34.6-14.2 37.5-15.1 2.1-96.9-14.5-21.9 15.2-13.4 5.1-239.63c-5.2-21.09-11.8-24.89-16.9-20.22l-4.2 2.11 2 19.14.7 44.47-7.1 124.23-18.3-137.78c8.8-15.88-3.9-35.38-.6-50.02-67.1 1.24-140.4-13.332-202.8-3.28-14 2.25-23.7 21.31-36.9 24.48-4.3 1.03-13.9-23.45-18.4-23.5z"
       overflow="visible"
       enable-background="accumulate"
       filter="url(#b)"
       fill-rule="evenodd"
       fill="#f6e7d0"
       color="#000"
       id="path8" /><path
       d="M354 27.39l-70.3 96.91 46.4 97.6-56.2 43.6 33 74.4-30.2 63.2 69.8 48.8 31.6 29.5 31.6-13.3L365.9 335l55.5-36.5 2.1-146.1-56.9-101.83zM116.6 55.48L89.9 123.6s33.7 65.3 35.8 68.8c2.1 3.6-7 118-7 118l42.8 73.8s9.9-82.9 7.1-83.6c-2.8-.7-29.5-42.1-29.5-42.1l23.8-84.3-36.5-37.2z"
       color="#000"
       overflow="visible"
       fill="#f2dbb9"
       fill-rule="evenodd"
       filter="url(#c)"
       enable-background="accumulate"
       id="path9" /><path
       d="M39.33 172.1l-5.62 108.1L74.45 328 42.84 464.9l96.96-39.3 30.2 42.9 74.4-38.7-80.8-169.9-60.4-16.9z"
       color="#000"
       overflow="visible"
       fill="#eed3a4"
       fill-rule="evenodd"
       enable-background="accumulate"
       filter="url(#d)"
       id="path10" /><path
       d="M266.9 66.72L324.5 191 434 221.2l21.8-111.6-41.4-68.86z"
       color="#000"
       overflow="visible"
       fill="#eed3a4"
       fill-rule="evenodd"
       enable-background="accumulate"
       filter="url(#e)"
       id="path11" /></svg><g
     id="g16"
     transform="translate(51.461076,8.56844)"><path
       id="path1"
       style="fill:#4f6c14;fill-opacity:1;stroke-width:0.561766"
       d="m 107.62025,347.5975 c -0.13654,-0.1035 11.64353,-21.5359 26.17676,-47.6275 14.53323,-26.0917 35.60941,-63.9541 46.83754,-84.1403 11.22813,-20.186 20.68422,-37.1416 21.01295,-37.6769 0.438,-0.7132 7.779,-1.4421 27.47773,-2.7262 l 26.88112,-1.7512 9.97268,-9.9727 c 3.72966,4.3936 5.21435,10.4406 7.84864,15.6185 3.10927,6.1118 4.14815,13.7089 8.9866,18.527 l -1.49701,1.5027 -1.79818,26.464 c -1.3412,19.736 -2.06182,26.7043 -2.83394,27.4087 -0.56945,0.5196 -29.68497,16.9016 -64.70166,36.4036 -35.01693,19.5017 -72.76864,40.5644 -83.8916,46.8072 -11.12294,6.2428 -20.33503,11.2666 -20.47156,11.1631 z m 18.3447,-18.469 c -0.0675,0.099 0.14233,-0.084 0.65322,-0.5732 7.87527,-7.5402 41.89518,-40.9433 71.98264,-70.6789 l 18.08508,-17.8752 17.81026,3.8311 c 9.79523,2.1064 17.9203,3.7183 18.05608,3.5825 0.13579,-0.1358 -7.53666,-2.4112 -17.04928,-5.0561 -10.67952,-2.9693 -17.52723,-5.2419 -17.90279,-5.94 -0.33451,-0.6219 -2.69955,-8.7109 -5.25357,-17.976 -2.55404,-9.2652 -4.82211,-17.0145 -5.04229,-17.2205 -0.22023,-0.206 -0.20895,0.4685 0.0262,1.4984 0.23522,1.0299 2.03065,9.3869 3.98991,18.5713 l 3.56315,16.6971 -6.73409,6.8971 c -3.70363,3.7924 -25.23564,25.7702 -47.84847,48.84 -19.78624,20.1861 -33.86401,34.709 -34.33612,35.4023 z M 287.54576,193.1084 c -4.8342,-4.8186 -5.87387,-12.4132 -8.98246,-18.5229 -2.63455,-5.178 -4.11999,-11.2234 -7.84999,-15.6171 l 9.64402,-9.644 c 0.0635,0.063 0.13975,0.1256 0.2018,0.1877 4.38299,4.4409 5.88498,11.0061 8.7145,16.5673 2.86824,5.6373 3.98119,12.5365 7.93152,17.3558 z m 14.39075,-14.4128 c -3.94816,-4.8192 -5.05983,-11.7157 -7.9273,-17.3518 -2.82908,-5.5606 -4.33077,-12.1253 -8.71318,-16.5658 -0.0619,-0.063 -0.13945,-0.1253 -0.2046,-0.1877 l 1.55231,-1.5523 6.93021,-6.9302 c 0.18006,0.1631 0.3722,0.3255 0.53292,0.4891 4.38281,4.4408 5.88262,11.0062 8.71184,16.5672 2.79695,5.4977 3.92396,12.1953 7.64143,16.9941 z m 13.27621,-13.2513 c -3.73061,-4.8003 -4.85689,-11.5104 -7.658,-17.0162 -2.82921,-5.561 -4.33054,-12.12493 -8.71312,-16.56592 -0.16215,-0.16215 -0.35142,-0.32738 -0.5315,-0.49049 l 9.00175,-9.00175 c 0.72436,0.53768 1.37736,1.08292 1.91422,1.62685 4.38265,4.44063 5.88648,11.00522 8.7159,16.56591 2.5377,4.9874 3.69892,10.9626 6.6664,15.613 -3.09098,3.0518 -5.15311,5.0282 -9.3954,9.2684 z m 14.15046,-13.9599 c -2.98638,-4.656 -4.14221,-10.6541 -6.68713,-15.65577 -2.82944,-5.56072 -4.3319,-12.12663 -8.71456,-16.56727 -0.54039,-0.54039 -1.19112,-1.08788 -1.91556,-1.6255 l 5.23563,-5.23563 -0.83831,-5.39858 c -2.88096,-18.5687 9.21817,-36.73657 27.74153,-41.65718 19.39032,-5.15096 40.15538,7.10435 45.39847,26.79547 1.37955,5.1811 1.30739,14.27785 -0.15329,19.25071 -5.05692,17.21637 -21.84997,29.09995 -38.72793,27.40595 -2.55416,-0.2564 -5.32042,-0.6521 -6.14433,-0.8798 -0.78923,-0.218 -6.18861,4.7778 -15.19452,13.5676 z m 8.23943,-34.21454 c 1.83997,1.8923 4.0205,3.50671 6.48691,4.72183 2.60593,1.28393 6.11684,1.88891 9.63152,1.8286 3.51475,-0.0604 7.0336,-0.78629 9.65645,-2.16002 4.77191,-2.49927 9.53364,-7.81196 11.08584,-12.36747 1.53263,-4.49814 1.50228,-10.97193 -0.0746,-15.60885 -1.822,-5.35767 -8.43046,-11.78667 -13.73474,-13.36181 -13.10729,-3.89242 -25.05932,2.58997 -28.85603,15.65026 -2.16257,7.43895 0.28428,15.621 5.80461,21.29746 z"
       sodipodi:nodetypes="sssscccscccscssssccccsssssscccssscscccscccssccccscccscccsscsccsccccssssscsssssssss" /><path
       d="m 352.68329,63.5155 c -13.30271,-0.37763 -26.50157,6.19461 -33.42383,18.125 -9.6186,16.57739 -5.32736,37.97944 9.83984,49.07226 l 4.41016,3.22461 v 7.40433 c 0.89241,-0.1319 1.73966,-0.2101 2.5039,-0.2051 6.23901,0.041 11.94422,3.6214 17.87696,5.5528 5.33626,1.7371 10.39483,5.1611 15.79882,6.3418 0.15277,-12.5836 0.43817,-19.93413 1.1504,-20.33797 0.7436,-0.4216 2.97947,-2.09785 4.96679,-3.72266 13.13234,-10.73664 16.6039,-31.01409 8.00586,-46.76367 -2.48349,-4.54917 -8.86483,-11.03261 -13.5039,-13.7207 -5.50975,-3.19258 -11.57832,-4.79905 -17.625,-4.9707 z m -1.6875,15.01172 c 3.54716,-0.0486 7.1198,0.54485 9.6582,1.79492 4.39378,2.16382 8.99487,6.71993 11.0918,10.98437 2.12365,4.31882 2.51325,11.44247 0.90625,16.58398 -0.88326,2.826 -2.85818,5.82749 -5.30079,8.35547 -2.44261,2.52796 -5.35298,4.58276 -8.10351,5.51758 -10.41299,3.53902 -22.11522,-0.65465 -27.08984,-9.70703 -6.55034,-11.91971 -2.68272,-24.9548 9.33789,-31.4707 2.43224,-1.31843 5.95283,-2.00997 9.5,-2.05859 z m -14.98243,69.30668 c -0.76424,0 -1.6115,0.071 -2.5039,0.2031 v 12.7305 c 0.24266,-0.012 0.49334,-0.031 0.72265,-0.029 6.23921,0.041 11.9422,3.621 17.875,5.5527 5.87387,1.9125 11.41499,5.8609 17.44727,6.6172 0.001,-5.998 0.0621,-8.8537 0.0898,-13.1973 -5.38665,-1.19 -10.43285,-4.5939 -15.7539,-6.3261 -5.93271,-1.9313 -11.63796,-5.5098 -17.87696,-5.5508 z m -1.78125,19.5996 c -0.22928,-0.001 -0.48,0.019 -0.72265,0.031 v 9.8008 2.1953 c 0.0902,-0.001 0.18924,-0.012 0.27734,-0.012 6.23876,0.041 11.94259,3.6212 17.875,5.5527 6.01292,1.9577 11.67555,6.0482 17.875,6.6641 l -0.01,-12.0645 c -6.02189,-0.7646 -11.55474,-4.7036 -17.41993,-6.6132 -5.93282,-1.9318 -11.63576,-5.5137 -17.875,-5.5547 z m -0.44726,18.7129 c -0.0877,-5e-4 -0.18569,0.01 -0.27539,0.01 v 13.6387 c 5.74431,0.4693 11.06943,3.6937 16.59375,5.4921 6.5183,2.1221 12.62362,6.7575 19.44922,6.7461 l -0.01,-13.6699 c -6.2011,-0.6145 -11.86655,-4.706 -17.88086,-6.664 -5.93314,-1.9316 -11.63747,-5.5119 -17.87695,-5.5528 z m -0.27735,20.3437 v 14.1035 l -17.76757,20.2461 c -13.02113,14.8371 -17.69661,20.5434 -17.50196,21.3575 0.14607,0.6109 5.44898,19.2868 11.78321,41.5 6.33425,22.2132 18.20393,63.8891 26.37695,92.6152 8.17305,28.7262 14.99826,52.2109 15.16797,52.1875 0.16968,-0.023 3.13125,-10.0897 6.58203,-22.3691 3.45079,-12.2794 15.25177,-53.8674 26.22266,-92.418 10.97057,-38.5505 19.97446,-70.7222 20.00976,-71.4922 0.0479,-1.0441 -4.36991,-6.481 -17.37695,-21.3848 l -17.44336,-19.9843 -0.002,-2.1211 c -6.82821,0.014 -12.93479,-4.6231 -19.45508,-6.7461 -5.52403,-1.7986 -10.85167,-5.0246 -16.59571,-5.4942 z m -14.95703,68.0196 c 0.30135,-0.01 7.38474,3.8658 15.74219,8.6113 8.35742,4.7455 15.74751,8.7929 16.42383,8.9961 0.75922,0.2281 7.21018,-3.007 16.86133,-8.459 8.59664,-4.8562 15.63087,-8.6725 15.63086,-8.4805 0,0.1921 -6.8851,4.7976 -15.30078,10.2344 l -15.30274,9.8848 -0.14844,25.4277 c -0.24879,42.3014 -0.68495,89.9766 -0.92187,100.877 -0.12296,5.6577 -0.48739,-16.1428 -0.81055,-48.4453 -0.32314,-32.3025 -0.63837,-63.0686 -0.70117,-68.3692 l -0.11523,-9.6386 -14.32618,-9.2871 c -7.87972,-5.109 -15.05857,-9.7487 -15.95312,-10.3106 -0.89455,-0.5619 -1.37948,-1.0309 -1.07813,-1.041 z"
       style="fill:#4f6c14;fill-opacity:1;stroke-width:0.561766"
       id="path1-9" /><path
       id="path4"
       style="fill:#4f6c14;stroke-width:2;stroke-linejoin:round;paint-order:stroke fill markers"
       d="m 219.66016,300.53516 -10.93555,5.96289 c 28.67654,24.8651 67.62177,33.19327 107.19922,37.29687 -33.79942,-4.7813 -63.43873,-13.93366 -96.26367,-43.25976 z m -40.38868,22.31836 -15.52343,8.46484 c 40.70798,35.2975 95.99333,47.12001 152.17578,52.94531 -47.9802,-6.7873 -90.05548,-19.78005 -136.65235,-61.41015 z m -43.57617,24.74609 -20.4707,11.16211 c 53.68887,46.5531 126.60141,62.14728 200.69922,69.83008 -63.28005,-8.9516 -118.77292,-26.08709 -180.22852,-80.99219 z" /><path
       d="m 389.68133,100.81433 c 0.37763,-13.30271 -6.19461,-26.50157 -18.125,-33.42383 -16.57739,-9.6186 -37.97944,-5.32736 -49.07226,9.83984 l -3.22461,4.41016 h -7.40433 c 0.1319,0.89241 0.2101,1.73966 0.2051,2.5039 -0.041,6.23901 -3.6214,11.94422 -5.5528,17.87696 -1.7371,5.33626 -5.1611,10.39483 -6.3418,15.79882 12.5836,0.15277 19.93413,0.43817 20.33797,1.1504 0.4216,0.7436 2.09785,2.97947 3.72266,4.96679 10.73664,13.13234 31.01409,16.6039 46.76367,8.00586 4.54917,-2.48349 11.03261,-8.86483 13.7207,-13.5039 3.19258,-5.50975 4.79905,-11.57832 4.9707,-17.625 z m -15.01172,-1.6875 c 0.0486,3.54716 -0.54485,7.1198 -1.79492,9.6582 -2.16382,4.39378 -6.71993,8.99487 -10.98437,11.0918 -4.31882,2.12365 -11.44247,2.51325 -16.58398,0.90625 -2.826,-0.88326 -5.82749,-2.85818 -8.35547,-5.30079 -2.52796,-2.44261 -4.58276,-5.35298 -5.51758,-8.10351 -3.53902,-10.41299 0.65465,-22.11522 9.70703,-27.08984 11.91971,-6.55034 24.9548,-2.68272 31.4707,9.33789 1.31843,2.43224 2.00997,5.95283 2.05859,9.5 z M 305.36293,84.1444 c 0,-0.76424 -0.071,-1.6115 -0.2031,-2.5039 h -12.7305 c 0.012,0.24266 0.031,0.49334 0.029,0.72265 -0.041,6.23921 -3.621,11.9422 -5.5527,17.875 -1.9125,5.87387 -5.8609,11.41499 -6.6172,17.44727 5.998,0.001 8.8537,0.0621 13.1973,0.0898 1.19,-5.38665 4.5939,-10.43285 6.3261,-15.7539 1.9313,-5.93271 5.5098,-11.63796 5.5508,-17.87696 z m -19.5996,-1.78125 c 10e-4,-0.22928 -0.019,-0.48 -0.031,-0.72265 h -9.8008 -2.1953 c 0.001,0.0902 0.012,0.18924 0.012,0.27734 -0.041,6.23876 -3.6212,11.94259 -5.5527,17.875 -1.9577,6.01292 -6.0482,11.67555 -6.6641,17.875 l 12.0645,-0.01 c 0.7646,-6.02189 4.7036,-11.55474 6.6132,-17.41993 1.9318,-5.93282 5.5137,-11.63576 5.5547,-17.875 z m -18.7129,-0.44726 c 5e-4,-0.0877 -0.01,-0.18569 -0.01,-0.27539 h -13.6387 c -0.4693,5.74431 -3.6937,11.06943 -5.4921,16.59375 -2.1221,6.5183 -6.7575,12.62362 -6.7461,19.44922 l 13.6699,-0.01 c 0.6145,-6.2011 4.706,-11.86655 6.664,-17.88086 1.9316,-5.93314 5.5119,-11.63747 5.5528,-17.87695 z m -20.3437,-0.27735 h -14.1035 l -20.2461,-17.76757 c -14.8371,-13.02113 -20.5434,-17.69661 -21.3575,-17.50196 -0.6109,0.14607 -19.2868,5.44898 -41.5,11.78321 -22.2132,6.33425 -63.8891,18.20393 -92.6152,26.37695 -28.7262,8.17305 -52.2109,14.99826 -52.1875,15.16797 0.023,0.16968 10.0897,3.13125 22.3691,6.58203 12.2794,3.45079 53.8674,15.25177 92.418,26.22266 38.5505,10.97057 70.7222,19.97446 71.4922,20.00976 1.0441,0.0479 6.481,-4.36991 21.3848,-17.37695 l 19.9843,-17.44336 2.1211,-0.002 c -0.014,-6.82821 4.6231,-12.93479 6.7461,-19.45508 1.7986,-5.52403 5.0246,-10.85167 5.4942,-16.59571 z m -68.0196,-14.95703 c 0.01,0.30135 -3.8658,7.38474 -8.6113,15.74219 -4.7455,8.35742 -8.7929,15.74751 -8.9961,16.42383 -0.2281,0.75922 3.007,7.21018 8.459,16.86133 4.8562,8.59664 8.6725,15.63087 8.4805,15.63086 -0.1921,0 -4.7976,-6.8851 -10.2344,-15.30078 l -9.8848,-15.30274 -25.4277,-0.14844 c -42.3014,-0.24879 -89.9766,-0.68495 -100.877,-0.92187 -5.6577,-0.12296 16.1428,-0.48739 48.4453,-0.81055 32.3025,-0.32314 63.0686,-0.63837 68.3692,-0.70117 l 9.6386,-0.11523 9.2871,-14.32618 c 5.109,-7.87972 9.7487,-15.05857 10.3106,-15.95312 0.5619,-0.89455 1.0309,-1.37948 1.041,-1.07813 z"
       style="fill:#4f6c14;fill-opacity:1;stroke-width:0.561766"
       id="path13" /><path
       id="path14"
       style="fill:#4f6c14;stroke-width:2;stroke-linejoin:round;paint-order:stroke fill markers"
       d="m 121.67977,147.89873 -11.94901,-3.5162 c 2.6951,37.85965 24.34463,71.28699 49.42843,102.17416 C 138.64028,219.276 124.15382,191.84615 121.67977,147.89873 Z M 77.339189,135.12108 60.376919,130.1299 c 3.82579,53.74399 34.55866,101.19642 70.166541,145.04252 C 101.41568,236.44595 80.851229,197.50697 77.339189,135.12108 Z M 29.028059,121.8062 6.6602786,115.22404 C 11.706039,186.10581 52.236239,248.68952 99.198739,306.51714 60.782729,255.44165 33.659959,204.08564 29.028059,121.8062 Z" /></g></svg>
