<?xml version="1.0" encoding="UTF-8" standalone="no"?>
<svg
   viewBox="0 0 512 512"
   style="height: 512px; width: 512px;"
   version="1.1"
   id="svg12"
   sodipodi:docname="wind.svg"
   inkscape:version="1.4 (e7c3feb1, 2024-10-09)"
   xml:space="preserve"
   xmlns:inkscape="http://www.inkscape.org/namespaces/inkscape"
   xmlns:sodipodi="http://sodipodi.sourceforge.net/DTD/sodipodi-0.dtd"
   xmlns="http://www.w3.org/2000/svg"
   xmlns:svg="http://www.w3.org/2000/svg"><sodipodi:namedview
     id="namedview12"
     pagecolor="#505050"
     bordercolor="#ffffff"
     borderopacity="1"
     inkscape:showpageshadow="0"
     inkscape:pageopacity="0"
     inkscape:pagecheckerboard="1"
     inkscape:deskcolor="#d1d1d1"
     inkscape:zoom="0.12909869"
     inkscape:cx="-313.71348"
     inkscape:cy="193.65029"
     inkscape:window-width="992"
     inkscape:window-height="247"
     inkscape:window-x="0"
     inkscape:window-y="38"
     inkscape:window-maximized="0"
     inkscape:current-layer="svg12" /><defs
     id="defs2"><radialGradient
       id="delapouite-viking-shield-gradient-0"><stop
         offset="0%"
         stop-color="#830000"
         stop-opacity="1"
         id="stop1" /><stop
         offset="100%"
         stop-color="#000"
         stop-opacity="1"
         id="stop2" /></radialGradient></defs><path
     d="M0 0h512v512H0z"
     fill="url(#pattern)"
     id="path2" /><svg
     version="1.1"
     id="svg11"><defs
       id="defs6"><filter
         id="b"
         x="-0.023338979"
         width="1.046678"
         y="-0.023448784"
         height="1.0468976"
         color-interpolation-filters="sRGB"><feGaussianBlur
           stdDeviation="4.823"
           id="feGaussianBlur2" /></filter><filter
         id="a"
         x="-0.012011281"
         width="1.0240226"
         y="-0.011988317"
         height="1.0239766"
         color-interpolation-filters="sRGB"><feGaussianBlur
           stdDeviation="2.55"
           id="feGaussianBlur3" /></filter><filter
         id="c"
         x="-0.11244604"
         width="1.2248921"
         y="-0.082623731"
         height="1.1652475"
         color-interpolation-filters="sRGB"><feGaussianBlur
           stdDeviation="15.63"
           id="feGaussianBlur4" /></filter><filter
         id="e"
         x="-0.23758603"
         width="1.4751721"
         y="-0.24869778"
         height="1.4973956"
         color-interpolation-filters="sRGB"><feGaussianBlur
           stdDeviation="18.7"
           id="feGaussianBlur5" /></filter><filter
         id="d"
         x="-0.21301439"
         width="1.4260288"
         y="-0.15141701"
         height="1.302834"
         color-interpolation-filters="sRGB"><feGaussianBlur
           stdDeviation="18.7"
           id="feGaussianBlur6" /></filter></defs><path
       d="M196.6 1.207c-2.5 11.323-4.8 22.703-10.2 33.383-7-10.68-12.6-20.91-16.7-31.988L2.494 4.338C13 104.9 10.86 175.3 1.979 278.3L15.4 295.5l-9.494 6.3L2.6 462.7l1.019 45.9 112.681 3.1c3.6-16.1 6.5-32.5 13.2-47.3 4.5 14.4 5.7 29.4 7 44.4l160 .3c.8-6.1.7-8.1 2.3-14.4 5.1 4.5 7.8 9.5 10.6 14.5.8-10.1 3.9-19.8 7-29.5 4.8 9.2 6.7 19.4 8.8 29.5l185.2.4-4.6-78.2-21.4-8.2 21.3-4.9 5.8-395.47c-7-6.73-13.3-13.744-18-21.465l-15.1.114-2.1 20.321-1.4 47.23.8 84.87-8.6-97.14c9.3-16.86 2.2-39.69 5.7-55.239-92.1 1.696-184.1.685-276.2-.314z"
       overflow="visible"
       color="#000"
       fill="#ebc893"
       fill-rule="evenodd"
       stroke="#e0aa58"
       enable-background="accumulate"
       id="path6" /><path
       d="M196.6 1.203c-2.5 11.327-4.8 22.707-10.2 33.387-7-10.68-12.6-20.91-16.7-31.99L2.494 4.336C13 104.9 10.86 175.3 1.979 278.3L15.4 295.5l-9.494 6.3L2.6 462.7l1.019 45.9 112.681 3.1c.5-2.1-7.9-2.3-7.4-4.5L5.244 504.5l-.914-47.3 4.63-153.7 12.42-9-13.093-16.8C16.95 177.3 16.36 104 6.113 5.992l162.687.164c4 10.804 10.3 24.254 17.1 34.664 5.3-10.41 9.5-25.97 12-37.02 89.8.974 173.8 3.521 263.6 1.867 4.6 1.226 10.6.431 11.3-4.149-92.1 1.696-184.1.684-276.2-.315zm296.9.158l-15.1.116-.6 6.277 13.5-2.557c4.6 7.533 9.7 12.383 16.6 18.943l-4.6 389.06-19.9 9.9 4.1-.6 18.2-4.2 5.8-395.47c-7-6.73-13.3-13.748-18-21.469zm9.6 435.739l3.5 69.7-177.7.1c.4 2.1-4.1.2-3.7 2.3l185.2.4-4.6-78.2zm-370 25.1c-1 2.2-2.9.4-3.7 2.6 4.2 14 5.8 29.5 7.1 44l158 .3c1.9-5 .8-9.7 4.3-14.4 5.1 4.5 7.8 9.5 10.6 14.5.8-10.1 3.9-19.8 7-29.5 1.8 3.4 3.2 7 4.3 10.6-1.4-5.6-2.4-8.3-5.1-13.4-3 9.4-6.7 16.2-7.5 26-2.7-4.9-5.4-9.7-10.4-14.1-3.4 4.6-6.2 9.1-8 14l-147.6 3.4c-3.4-14.6-7.1-30.3-9-44z"
       overflow="visible"
       color="#000"
       opacity=".527"
       fill="#c87137"
       fill-rule="evenodd"
       filter="url(#a)"
       enable-background="accumulate"
       id="path7" /><path
       d="M200.1 16.1c-2.3 10.67-10.5 21.38-15.6 31.44-6.6-10.06-13.9-19.69-17.7-30.12L17.34 19.05C24.61 113.6 7.605 179.3 16.85 277l18.26 20.1L10.34 309l7.1 141.6.96 43.3 90.2 3.4c3.4-15.2 15-35.6 21.3-49.6 4.3 13.6 15.4 36.7 16.6 50.9l45.1.8 13.8-18.7 14.4 22.2 68.7-8.6c1.8-4.7 4.5-9.1 7.8-13.5 4.8 4.2 7.4 8.9 10 13.6.8-9.5 7.7-19.6 10.6-28.7 4.5 8.6 19.9 28.9 33.1 33.9l114.6 5.6 22.3-14.7 19.4 14.7-14.5-67.6-34.6-14.2 37.5-15.1 2.1-96.9-14.5-21.9 15.2-13.4 5.1-239.63c-5.2-21.09-11.8-24.89-16.9-20.22l-4.2 2.11 2 19.14.7 44.47-7.1 124.23-18.3-137.78c8.8-15.88-3.9-35.38-.6-50.02-67.1 1.24-140.4-13.332-202.8-3.28-14 2.25-23.7 21.31-36.9 24.48-4.3 1.03-13.9-23.45-18.4-23.5z"
       overflow="visible"
       enable-background="accumulate"
       filter="url(#b)"
       fill-rule="evenodd"
       fill="#f6e7d0"
       color="#000"
       id="path8" /><path
       d="M354 27.39l-70.3 96.91 46.4 97.6-56.2 43.6 33 74.4-30.2 63.2 69.8 48.8 31.6 29.5 31.6-13.3L365.9 335l55.5-36.5 2.1-146.1-56.9-101.83zM116.6 55.48L89.9 123.6s33.7 65.3 35.8 68.8c2.1 3.6-7 118-7 118l42.8 73.8s9.9-82.9 7.1-83.6c-2.8-.7-29.5-42.1-29.5-42.1l23.8-84.3-36.5-37.2z"
       color="#000"
       overflow="visible"
       fill="#f2dbb9"
       fill-rule="evenodd"
       filter="url(#c)"
       enable-background="accumulate"
       id="path9" /><path
       d="M39.33 172.1l-5.62 108.1L74.45 328 42.84 464.9l96.96-39.3 30.2 42.9 74.4-38.7-80.8-169.9-60.4-16.9z"
       color="#000"
       overflow="visible"
       fill="#eed3a4"
       fill-rule="evenodd"
       enable-background="accumulate"
       filter="url(#d)"
       id="path10" /><path
       d="M266.9 66.72L324.5 191 434 221.2l21.8-111.6-41.4-68.86z"
       color="#000"
       overflow="visible"
       fill="#eed3a4"
       fill-rule="evenodd"
       enable-background="accumulate"
       filter="url(#e)"
       id="path11" /></svg><path
     style="fill:#3e3126;fill-opacity:1;stroke-width:0.484831"
     d="m 347.52383,414.64914 c -0.26666,-0.0667 -1.8666,-0.28606 -3.55546,-0.48733 -6.12115,-0.72952 -13.82171,-3.22635 -18.25894,-5.92028 -8.64944,-5.25125 -13.99557,-10.81796 -18.08483,-18.83101 -2.6864,-5.2641 -4.38991,-12.2388 -4.38419,-17.95014 0,-2.29297 0.74141,-7.77651 1.27365,-9.44938 1.32573,-4.16694 1.78748,-5.34114 3.11224,-7.91385 1.87886,-3.64875 4.95812,-7.56621 7.80398,-9.92834 2.26382,-1.879 7.23315,-5.00233 7.95884,-5.00233 0.22565,0 0.54845,-0.12443 0.71736,-0.27651 0.49962,-0.44989 3.68273,-1.39187 6.28661,-1.86037 4.71115,-0.84767 8.87226,-0.37201 12.33387,1.40988 2.16278,1.1133 5.32146,4.24798 6.5092,6.45968 3.23343,6.02123 2.1365,13.63865 -2.65393,18.42905 -2.26144,2.26148 -4.83264,3.64703 -8.22521,4.43237 -2.35492,0.54514 -2.57358,0.66677 -2.9898,1.66285 -1.58331,3.7895 1.07428,9.04056 5.72804,11.31773 3.46683,1.69637 5.13828,2.06011 9.46666,2.06011 4.16993,0 5.77507,-0.36622 9.40587,-2.14599 3.18219,-1.55984 8.16906,-6.32759 9.58812,-9.16673 0.2221,-0.44443 0.57225,-1.02623 0.77811,-1.29289 0.5033,-0.65204 2.21253,-5.15829 2.94234,-7.75729 0.85194,-3.03398 0.84632,-12.19161 -0.009,-15.19138 -3.14821,-11.03696 -10.29457,-19.5787 -20.32927,-24.29872 -0.31107,-0.14633 -0.85466,-0.41159 -1.20796,-0.58946 -1.80105,-0.90677 -5.49949,-2.01266 -9.83058,-2.93952 -2.80047,-0.5993 -6.14213,-0.61583 -125.24808,-0.61954 -118.766426,-0.004 -122.443823,-0.0218 -124.851108,-0.61286 -3.295592,-0.80924 -5.506034,-2.04556 -7.858483,-4.39531 -8.516253,-8.50661 -4.209062,-23.3919 7.585232,-26.21381 1.461086,-0.34957 23.836049,-0.42923 123.638149,-0.44016 83.62562,-0.009 122.91896,0.0942 125.24804,0.32947 6.2871,0.63508 14.01404,2.29426 17.38411,3.73285 0.58379,0.2492 1.24955,0.45309 1.47956,0.45309 0.22996,0 1.78859,0.59214 3.46363,1.31587 9.74258,4.20944 16.5005,8.69975 23.27671,15.4662 8.36895,8.35693 13.67737,17.32434 17.2352,29.11528 1.40252,4.64819 2.44986,12.04917 2.45533,17.35111 0.006,6.49635 -1.53953,15.83784 -3.46785,20.95055 -0.26815,0.71109 -0.70281,1.87468 -0.96578,2.58577 -4.37468,11.82825 -13.33451,22.50428 -24.17533,28.80599 -0.85971,0.49972 -5.24282,2.66132 -6.46445,3.18802 -2.89715,1.24911 -3.45588,1.45934 -3.87865,1.45934 -0.25458,0 -0.94052,0.20134 -1.52431,0.44744 -1.44669,0.60984 -3.7125,1.12861 -7.36425,1.68607 -3.07305,0.46912 -9.43044,0.85296 -10.34304,0.62448 z M 58.564448,273.5938 c -6.650525,-2.51955 -10.666285,-8.13277 -10.666285,-14.90931 0,-4.20329 1.372169,-7.65461 4.258515,-10.71109 1.821802,-1.92923 3.56569,-3.14649 5.833536,-4.07195 1.306863,-0.53331 10.470608,-0.57369 168.002576,-0.74041 133.61405,-0.1414 167.10051,-0.25861 169.04449,-0.59171 3.80471,-0.65195 8.37977,-1.86607 10.50465,-2.78771 1.50103,-0.65105 5.74427,-2.73522 6.45528,-3.17066 1.14924,-0.70383 5.47868,-4.03487 6.67176,-5.13317 2.62158,-2.41338 6.04575,-7.2373 7.76084,-10.93334 4.60875,-9.932 3.97586,-21.78262 -1.63995,-30.70597 -3.69785,-5.87575 -9.37678,-9.93798 -15.34781,-10.97851 -8.0146,-1.39664 -16.36854,2.14377 -18.53674,7.85587 -0.84947,2.23797 -0.87411,2.7974 -0.21997,5.00004 0.53375,1.79738 0.60483,1.84146 3.38228,2.09721 2.1078,0.19409 5.46002,1.88704 7.58858,3.83242 5.34414,4.88425 6.55603,12.5254 3.07024,19.35811 -0.83106,1.62905 -4.18274,4.96906 -5.87407,5.85372 -3.07102,1.60624 -4.38578,1.88898 -8.78422,1.88898 -2.85139,0 -4.76167,-0.16372 -5.99198,-0.51353 -2.63501,-0.74919 -6.89764,-2.41375 -7.48793,-2.92402 -0.28067,-0.24261 -0.61966,-0.4411 -0.75327,-0.4411 -0.54307,0 -4.02547,-2.54584 -5.96872,-4.36348 -6.1157,-5.7204 -9.83228,-13.38814 -10.83655,-22.35697 -0.61496,-5.49196 0.0949,-12.18321 1.77729,-16.75274 2.56011,-6.95353 5.48421,-11.58108 10.4342,-16.51271 2.69279,-2.68285 6.0997,-5.50651 7.31183,-6.06005 0.26666,-0.12178 0.92118,-0.50327 1.4545,-0.84774 2.80032,-1.8088 8.81728,-4.32961 12.60561,-5.28114 1.06662,-0.26792 2.59385,-0.66271 3.39381,-0.87735 0.81612,-0.21896 4.57536,-0.46008 8.56532,-0.54937 8.40911,-0.18822 10.62862,0.12236 17.93876,2.51014 13.54652,4.42481 25.52083,15.12511 31.99162,28.58788 0.9399,1.95548 1.90782,3.9415 2.15096,4.41335 0.24315,0.47187 0.44207,1.08509 0.44207,1.36273 0,0.27764 0.20096,0.98244 0.44667,1.56624 2.90682,6.90758 4.30366,20.81541 2.94952,29.36708 -0.84608,5.34339 -1.89777,9.68935 -2.94952,12.18871 -0.24571,0.58379 -0.44667,1.28859 -0.44667,1.56623 0,0.27764 -0.19612,0.89087 -0.43577,1.36273 -0.23965,0.47185 -0.65772,1.36699 -0.92904,1.98919 -0.95492,2.18977 -3.08002,6.31321 -4.29816,8.33984 -5.27836,8.78155 -13.94147,17.32906 -23.48096,23.16758 -1.18153,0.72313 -9.24806,4.66446 -10.61223,5.18518 -0.79997,0.30535 -1.74538,0.67898 -2.10097,0.83028 -1.82611,0.77715 -7.02422,2.25133 -10.50464,2.97909 -1.33328,0.27879 -3.29685,0.69766 -4.36348,0.93082 -1.58447,0.34636 -32.90113,0.43378 -171.1454,0.47778 -158.733482,0.0505 -169.296111,0.0197 -170.660572,-0.49717 z m 33.776537,-43.67595 c -0.355526,-0.15277 -0.955213,-0.288 -1.332557,-0.30051 -0.64439,-0.0213 -2.512104,-0.80436 -4.307095,-1.80572 -1.758046,-0.98073 -4.499136,-4.11625 -5.601303,-6.40731 -4.240673,-8.81497 -0.09222,-18.49548 9.43205,-22.00979 l 1.808905,-0.66747 96.481405,-0.16161 c 53.06477,-0.0889 96.64023,-0.26508 96.83436,-0.39153 0.19413,-0.12646 1.13955,-0.37267 2.10092,-0.54713 9.79005,-1.7766 19.70605,-8.18319 24.98156,-16.14015 2.52854,-3.81379 3.79633,-6.64327 5.09218,-11.36461 0.95909,-3.49453 0.9715,-11.69003 0.0228,-15.23113 -2.70026,-10.08138 -8.35048,-16.72871 -16.70155,-19.64893 -2.87321,-1.0047 -9.15764,-0.96775 -12.33353,0.0725 -6.03217,1.97583 -9.17184,5.48393 -9.17184,10.24803 0,2.82758 0.4141,3.30334 3.50183,4.02318 6.78891,1.58266 10.7782,5.50389 12.49455,12.2813 0.63318,2.50031 0.61083,3.69127 -0.12461,6.63892 -0.8418,3.37411 -2.07119,5.53344 -4.37695,7.6879 -4.38812,4.10015 -9.30474,5.34153 -16.27384,4.10891 -1.47298,-0.26052 -2.95428,-0.62146 -3.29177,-0.8021 -0.33754,-0.18063 -0.83822,-0.32843 -1.11268,-0.32843 -0.27442,0 -1.55671,-0.5112 -2.84941,-1.13602 -7.24497,-3.50171 -12.66582,-8.92697 -15.98168,-15.99467 -2.27745,-4.85438 -3.09157,-8.03186 -3.77233,-14.72314 -0.14371,-1.41247 0.21134,-5.58528 0.74112,-8.71036 2.04681,-12.07347 11.05807,-24.01082 22.64201,-29.99425 2.31942,-1.19803 6.04655,-2.81558 7.27246,-3.1562 0.53331,-0.14818 1.9878,-0.56499 3.23223,-0.92624 12.83846,-3.727 27.96665,-1.51595 40.40258,5.90501 5.46704,3.26236 10.05409,7.18763 14.03086,12.00667 3.53971,4.28936 5.27831,6.98734 7.70921,11.96314 0.43426,0.88885 0.92025,1.86879 1.08006,2.17763 0.52487,1.01449 2.15134,5.74713 2.97283,8.65026 1.54647,5.46513 2.3332,11.48712 2.28026,17.45392 -0.0373,4.21275 -0.73277,10.69114 -1.43811,13.39697 -0.18772,0.72027 -0.56206,2.18227 -0.83182,3.2489 -0.26971,1.06663 -0.6951,2.41696 -0.94528,3.00075 -0.25017,0.5838 -0.45482,1.25658 -0.45482,1.49508 0,0.3965 -0.51226,1.65927 -2.30658,5.68563 -0.35649,0.79997 -0.77728,1.67266 -0.93509,1.93932 -0.15782,0.26665 -0.66596,1.21208 -1.12917,2.10094 -4.0097,7.69417 -10.82066,15.5688 -18.58232,21.48433 -2.10635,1.60536 -3.90517,2.91883 -3.99734,2.91883 -0.0922,0 -0.79309,0.39999 -1.55752,0.88886 -2.25922,1.44478 -2.53019,1.59359 -6.07663,3.33714 -1.86661,0.91767 -3.64652,1.79681 -3.95535,1.95364 -1.52276,0.77321 -9.1604,3.26287 -12.04409,3.92604 -3.58764,0.82506 -7.48399,1.46713 -11.15111,1.83756 -4.17038,0.42126 -191.498615,0.43677 -192.477973,0.016 z"
     id="path19"
     sodipodi:nodetypes="sssscsssssssssscsssssscssscsssssssssssscsssssssssssssssssssssssssssssssssssssssssscssssssssssssscsssscssssscssssssssssssssssssssssssssssssssssssscc" /><path
     style="fill:#3e3126;stroke-width:2.5;stroke-linecap:round;stroke-linejoin:round;paint-order:stroke fill markers"
     d="m -1076.5014,-1173.5609 4.46,8.1309 1.9163,11.3755 -5.7156,-4.2115 -1.805,-7.1195 0.8022,-3.0082 z"
     id="path13" /></svg>
