<?xml version="1.0" encoding="UTF-8" standalone="no"?>
<svg
   viewBox="0 0 512 512"
   style="height: 512px; width: 512px;"
   version="1.1"
   id="svg12"
   sodipodi:docname="awareness copy.svg"
   inkscape:version="1.3.2 (091e20e, 2023-11-25)"
   xml:space="preserve"
   xmlns:inkscape="http://www.inkscape.org/namespaces/inkscape"
   xmlns:sodipodi="http://sodipodi.sourceforge.net/DTD/sodipodi-0.dtd"
   xmlns="http://www.w3.org/2000/svg"
   xmlns:svg="http://www.w3.org/2000/svg"><sodipodi:namedview
     id="namedview12"
     pagecolor="#505050"
     bordercolor="#ffffff"
     borderopacity="1"
     inkscape:showpageshadow="0"
     inkscape:pageopacity="0"
     inkscape:pagecheckerboard="1"
     inkscape:deskcolor="#d1d1d1"
     inkscape:zoom="0.26954811"
     inkscape:cx="382.12103"
     inkscape:cy="1426.4615"
     inkscape:window-width="1728"
     inkscape:window-height="1051"
     inkscape:window-x="0"
     inkscape:window-y="38"
     inkscape:window-maximized="1"
     inkscape:current-layer="svg12" /><defs
     id="defs2"><radialGradient
       id="lorc-awareness-gradient-0"><stop
         offset="0%"
         stop-color="#830000"
         stop-opacity="1"
         id="stop1" /><stop
         offset="100%"
         stop-color="#000"
         stop-opacity="1"
         id="stop2" /></radialGradient></defs><path
     d="M0 0h512v512H0z"
     fill="url(#pattern)"
     id="path2" /><svg
     version="1.1"
     id="svg11"><defs
       id="defs6"><filter
         id="b"
         x="-0.023338979"
         width="1.046678"
         y="-0.023448784"
         height="1.0468976"
         color-interpolation-filters="sRGB"><feGaussianBlur
           stdDeviation="4.823"
           id="feGaussianBlur2" /></filter><filter
         id="a"
         x="-0.012011281"
         width="1.0240226"
         y="-0.011988317"
         height="1.0239766"
         color-interpolation-filters="sRGB"><feGaussianBlur
           stdDeviation="2.55"
           id="feGaussianBlur3" /></filter><filter
         id="c"
         x="-0.11244604"
         width="1.2248921"
         y="-0.082623731"
         height="1.1652475"
         color-interpolation-filters="sRGB"><feGaussianBlur
           stdDeviation="15.63"
           id="feGaussianBlur4" /></filter><filter
         id="e"
         x="-0.23758603"
         width="1.4751721"
         y="-0.24869778"
         height="1.4973956"
         color-interpolation-filters="sRGB"><feGaussianBlur
           stdDeviation="18.7"
           id="feGaussianBlur5" /></filter><filter
         id="d"
         x="-0.21301439"
         width="1.4260288"
         y="-0.15141701"
         height="1.302834"
         color-interpolation-filters="sRGB"><feGaussianBlur
           stdDeviation="18.7"
           id="feGaussianBlur6" /></filter></defs><path
       d="M196.6 1.207c-2.5 11.323-4.8 22.703-10.2 33.383-7-10.68-12.6-20.91-16.7-31.988L2.494 4.338C13 104.9 10.86 175.3 1.979 278.3L15.4 295.5l-9.494 6.3L2.6 462.7l1.019 45.9 112.681 3.1c3.6-16.1 6.5-32.5 13.2-47.3 4.5 14.4 5.7 29.4 7 44.4l160 .3c.8-6.1.7-8.1 2.3-14.4 5.1 4.5 7.8 9.5 10.6 14.5.8-10.1 3.9-19.8 7-29.5 4.8 9.2 6.7 19.4 8.8 29.5l185.2.4-4.6-78.2-21.4-8.2 21.3-4.9 5.8-395.47c-7-6.73-13.3-13.744-18-21.465l-15.1.114-2.1 20.321-1.4 47.23.8 84.87-8.6-97.14c9.3-16.86 2.2-39.69 5.7-55.239-92.1 1.696-184.1.685-276.2-.314z"
       overflow="visible"
       color="#000"
       fill="#ebc893"
       fill-rule="evenodd"
       stroke="#e0aa58"
       enable-background="accumulate"
       id="path6" /><path
       d="M196.6 1.203c-2.5 11.327-4.8 22.707-10.2 33.387-7-10.68-12.6-20.91-16.7-31.99L2.494 4.336C13 104.9 10.86 175.3 1.979 278.3L15.4 295.5l-9.494 6.3L2.6 462.7l1.019 45.9 112.681 3.1c.5-2.1-7.9-2.3-7.4-4.5L5.244 504.5l-.914-47.3 4.63-153.7 12.42-9-13.093-16.8C16.95 177.3 16.36 104 6.113 5.992l162.687.164c4 10.804 10.3 24.254 17.1 34.664 5.3-10.41 9.5-25.97 12-37.02 89.8.974 173.8 3.521 263.6 1.867 4.6 1.226 10.6.431 11.3-4.149-92.1 1.696-184.1.684-276.2-.315zm296.9.158l-15.1.116-.6 6.277 13.5-2.557c4.6 7.533 9.7 12.383 16.6 18.943l-4.6 389.06-19.9 9.9 4.1-.6 18.2-4.2 5.8-395.47c-7-6.73-13.3-13.748-18-21.469zm9.6 435.739l3.5 69.7-177.7.1c.4 2.1-4.1.2-3.7 2.3l185.2.4-4.6-78.2zm-370 25.1c-1 2.2-2.9.4-3.7 2.6 4.2 14 5.8 29.5 7.1 44l158 .3c1.9-5 .8-9.7 4.3-14.4 5.1 4.5 7.8 9.5 10.6 14.5.8-10.1 3.9-19.8 7-29.5 1.8 3.4 3.2 7 4.3 10.6-1.4-5.6-2.4-8.3-5.1-13.4-3 9.4-6.7 16.2-7.5 26-2.7-4.9-5.4-9.7-10.4-14.1-3.4 4.6-6.2 9.1-8 14l-147.6 3.4c-3.4-14.6-7.1-30.3-9-44z"
       overflow="visible"
       color="#000"
       opacity=".527"
       fill="#c87137"
       fill-rule="evenodd"
       filter="url(#a)"
       enable-background="accumulate"
       id="path7" /><path
       d="M200.1 16.1c-2.3 10.67-10.5 21.38-15.6 31.44-6.6-10.06-13.9-19.69-17.7-30.12L17.34 19.05C24.61 113.6 7.605 179.3 16.85 277l18.26 20.1L10.34 309l7.1 141.6.96 43.3 90.2 3.4c3.4-15.2 15-35.6 21.3-49.6 4.3 13.6 15.4 36.7 16.6 50.9l45.1.8 13.8-18.7 14.4 22.2 68.7-8.6c1.8-4.7 4.5-9.1 7.8-13.5 4.8 4.2 7.4 8.9 10 13.6.8-9.5 7.7-19.6 10.6-28.7 4.5 8.6 19.9 28.9 33.1 33.9l114.6 5.6 22.3-14.7 19.4 14.7-14.5-67.6-34.6-14.2 37.5-15.1 2.1-96.9-14.5-21.9 15.2-13.4 5.1-239.63c-5.2-21.09-11.8-24.89-16.9-20.22l-4.2 2.11 2 19.14.7 44.47-7.1 124.23-18.3-137.78c8.8-15.88-3.9-35.38-.6-50.02-67.1 1.24-140.4-13.332-202.8-3.28-14 2.25-23.7 21.31-36.9 24.48-4.3 1.03-13.9-23.45-18.4-23.5z"
       overflow="visible"
       enable-background="accumulate"
       filter="url(#b)"
       fill-rule="evenodd"
       fill="#f6e7d0"
       color="#000"
       id="path8" /><path
       d="M354 27.39l-70.3 96.91 46.4 97.6-56.2 43.6 33 74.4-30.2 63.2 69.8 48.8 31.6 29.5 31.6-13.3L365.9 335l55.5-36.5 2.1-146.1-56.9-101.83zM116.6 55.48L89.9 123.6s33.7 65.3 35.8 68.8c2.1 3.6-7 118-7 118l42.8 73.8s9.9-82.9 7.1-83.6c-2.8-.7-29.5-42.1-29.5-42.1l23.8-84.3-36.5-37.2z"
       color="#000"
       overflow="visible"
       fill="#f2dbb9"
       fill-rule="evenodd"
       filter="url(#c)"
       enable-background="accumulate"
       id="path9" /><path
       d="M39.33 172.1l-5.62 108.1L74.45 328 42.84 464.9l96.96-39.3 30.2 42.9 74.4-38.7-80.8-169.9-60.4-16.9z"
       color="#000"
       overflow="visible"
       fill="#eed3a4"
       fill-rule="evenodd"
       enable-background="accumulate"
       filter="url(#d)"
       id="path10" /><path
       d="M266.9 66.72L324.5 191 434 221.2l21.8-111.6-41.4-68.86z"
       color="#000"
       overflow="visible"
       fill="#eed3a4"
       fill-rule="evenodd"
       enable-background="accumulate"
       filter="url(#e)"
       id="path11" /></svg><path
     d="m 248.78492,433.14505 c -9.36357,-0.9412 -18.99065,-2.50774 -23.96848,-3.90024 -0.81542,-0.22812 -2.48334,-0.67798 -3.70647,-0.99976 -1.22313,-0.32171 -2.77985,-0.75844 -3.45937,-0.9705 -0.67951,-0.21201 -2.9034,-0.8766 -4.94195,-1.4768 -4.45444,-1.31155 -9.82787,-3.0695 -12.85631,-4.206 -1.21913,-0.45753 -3.43979,-1.27671 -4.93473,-1.82037 -3.72051,-1.35316 -3.1118,-1.10546 -12.45166,-5.06595 -9.43617,-4.00125 -22.79556,-11.1498 -31.03756,-16.60798 -13.16393,-8.71772 -23.42012,-17.45569 -30.13911,-25.67767 -1.21942,-1.49217 -2.35009,-2.82422 -2.51263,-2.96013 -0.16254,-0.1359 -1.635,-2.24859 -3.27212,-4.69486 -3.4821,-5.20318 -7.43399,-13.18859 -9.28959,-18.77127 -0.72123,-2.16997 -1.48724,-4.17146 -1.70221,-4.44776 -0.6858,-0.88155 -1.24127,-3.39216 -1.31397,-5.9385 -0.039,-1.35905 -0.24235,-4.61382 -0.45234,-7.23275 -0.57494,-7.16979 0.84967,-15.51339 3.76365,-22.04295 0.51421,-1.15222 0.93492,-2.20629 0.93492,-2.34239 0,-0.94881 5.21272,-8.06542 8.10362,-11.06341 6.96974,-7.22801 14.4311,-10.98567 25.50168,-12.84311 6.55046,-1.09904 10.39683,-1.55528 13.19141,-1.56462 5.18831,-0.0173 15.91216,-1.469 21.40228,-2.89693 6.00048,-1.56071 15.03531,-5.80773 24.95688,-11.73146 14.55959,-8.69294 24.8271,-12.01918 37.1639,-12.03944 5.42359,-0.009 7.52101,0.26133 13.97239,1.80026 15.47904,3.69253 29.74419,15.53365 37.52506,31.14865 3.42363,6.87065 5.25671,13.94333 6.44392,24.86288 2.39991,22.07379 3.5199,27.68804 7.29531,36.57047 2.03663,4.79167 6.14038,12.03016 10.45139,18.43503 9.37835,13.93345 11.96987,20.01793 12.31719,28.91909 0.64991,16.65508 -9.04106,28.10485 -30.53072,36.07167 -4.8908,1.81316 -8.44293,2.58633 -16.26347,3.54003 -4.85652,0.59224 -24.10721,0.55829 -30.19091,-0.0532 z M 360.0237,392.3162 c 0.36299,-0.47567 3.57541,-3.86709 7.13876,-7.53649 3.56332,-3.6694 7.79692,-8.11696 9.40799,-9.88346 1.61107,-1.76645 3.05096,-3.32317 3.19975,-3.45937 0.14879,-0.13615 2.10561,-2.52702 4.34849,-5.31304 3.54499,-4.40349 5.0178,-5.8112 5.0178,-4.79613 0,0.6171 -5.39799,8.23355 -9.09067,12.8268 -4.7069,5.85473 -13.93062,15.21465 -17.19072,17.44451 -2.60545,1.78207 -3.89288,2.10814 -2.8314,0.71718 z m -14.87064,-24.93578 c -7.34602,-2.80885 -13.90992,-9.46375 -15.60126,-15.81742 -1.29825,-4.87697 -0.65407,-13.30221 1.52425,-19.93718 3.24276,-9.87684 12.1068,-21.08693 23.48733,-29.70362 6.21308,-4.70421 9.09088,-6.31706 16.28787,-9.12849 2.33552,-0.91233 12.96547,-0.91723 15.32006,-0.007 4.08809,1.5803 6.15593,2.89901 8.40546,5.36035 3.1628,3.4606 4.78885,6.91824 5.69506,12.11011 0.6571,3.76458 0.65981,4.75164 0.0231,8.40301 -1.40204,8.03991 -3.73404,13.48748 -9.46655,22.11396 -8.27285,12.44929 -20.41444,22.82848 -31.17309,26.64822 -4.05546,1.43988 -10.67704,1.42076 -14.50216,-0.042 z m -23.07028,-81.8882 c -4.43289,-1.12953 -9.63697,-4.83358 -12.18701,-8.67427 -4.46407,-6.72334 -4.89299,-14.77595 -1.37313,-25.78056 0.88273,-2.75968 1.60796,-4.52934 3.92342,-9.5736 6.72842,-14.65784 21.85526,-31.10615 34.46999,-37.48127 5.86591,-2.96443 9.28406,-3.78406 15.78095,-3.78406 3.79755,0 6.55244,0.24013 7.66006,0.66761 7.00196,2.70261 11.59435,6.63596 14.33042,12.27389 1.30895,2.69722 1.48383,3.57619 1.48383,7.45791 0,6.53539 -0.98907,13.50058 -2.4367,17.15946 -1.17075,2.95904 -4.96026,10.34345 -7.08293,13.80204 -7.53421,12.27596 -19.7674,24.39082 -30.12638,29.83493 -7.54336,3.96444 -8.37158,4.19033 -15.95101,4.35154 -3.80531,0.0809 -7.62647,-0.0331 -8.49151,-0.25362 z m 78.12459,-15.48864 c -3.5562,-2.39576 -4.40326,-4.18776 -4.38002,-9.26616 0.0239,-5.2191 0.81189,-7.53693 6.63654,-19.52073 2.37798,-4.89253 4.79989,-10.17425 5.38202,-11.73714 2.03364,-5.45997 2.92398,-8.04723 3.52882,-10.25456 0.33516,-1.22313 0.78721,-2.77985 1.00457,-3.45937 0.21736,-0.67952 0.548,-2.01385 0.73476,-2.96517 0.18675,-0.95133 0.54678,-2.61924 0.80006,-3.70647 1.2072,-5.18204 2.12231,-14.67133 2.6592,-27.57473 0.24413,-5.86738 0.51077,-8.24694 0.9095,-8.11637 0.6306,0.20643 1.6322,2.9246 2.31646,6.28647 0.24895,1.22313 0.76487,3.6694 1.14648,5.43615 0.69345,3.21049 1.36629,8.79035 2.29429,19.02652 1.33919,14.77176 0.16377,39.33016 -2.32984,48.67827 -0.39878,1.49494 -0.89958,3.38523 -1.1129,4.20066 -1.13302,4.33109 -3.57222,8.68366 -6.27235,11.19254 -2.75518,2.56008 -4.67484,3.38243 -7.90063,3.3844 -2.60486,0 -3.36931,-0.22481 -5.41696,-1.60431 z M 90.024594,261.44061 c -0.529332,-0.53378 -0.457723,-8.34815 0.127948,-13.96226 0.807664,-7.74163 1.491235,-13.04533 1.953555,-15.15718 0.238005,-1.08722 0.708331,-3.31111 1.045174,-4.94195 0.531508,-2.57338 2.142387,-9.11455 3.407726,-13.83748 0.757107,-2.82596 4.372843,-13.36215 5.935833,-17.29684 4.81312,-12.11674 11.2303,-24.1041 19.4075,-36.2532 2.48838,-3.69708 8.20825,-11.48091 8.76728,-11.93087 0.16882,-0.1359 0.62768,-0.71565 1.01962,-1.28837 0.84795,-1.23895 4.3004,-5.3853 7.3563,-8.83488 3.97892,-4.49154 18.9318,-19.03429 19.57109,-19.03429 0.40094,0 0.52468,0.38898 0.34376,1.08081 -0.47374,1.81148 -10.11618,20.19841 -14.54101,27.72782 -0.76576,1.30305 -1.3923,2.44593 -1.3923,2.53973 0,0.15364 -4.15233,7.02093 -9.88095,16.34152 -1.16941,1.90264 -2.94985,4.68249 -3.95653,6.17744 -1.00667,1.49494 -2.78657,4.27479 -3.95539,6.17745 -1.16877,1.90264 -3.02087,4.90489 -4.11581,6.67163 -9.01719,14.55011 -21.08633,38.99189 -21.08633,42.70295 0,0.36397 -0.539173,1.63494 -1.198182,2.82433 -0.65901,1.18942 -1.354343,3.05215 -1.545202,4.13937 -0.190808,1.08724 -0.617102,2.31037 -0.947273,2.71808 -0.883128,1.09044 -3.901427,11.82645 -4.723917,16.80265 -0.977568,5.91468 -1.236477,6.99287 -1.592892,6.63354 z m 63.380586,-10.58236 c -15.89393,-1.81112 -25.93761,-17.26245 -22.48986,-34.59858 1.41365,-7.10831 3.14106,-12.14961 6.14231,-17.92615 5.42128,-10.43435 9.74539,-16.47169 17.54439,-24.49565 5.69264,-5.85685 10.87744,-9.84131 16.42429,-12.62185 7.23157,-3.62512 10.4048,-4.45883 16.97256,-4.45933 5.18164,-3.9e-4 5.93667,0.11989 8.55448,1.36304 7.9004,3.75174 11.71139,10.43989 11.70344,20.53917 -0.009,11.83771 -1.99058,20.85392 -7.95922,36.21984 -2.31333,5.95545 -8.96264,16.65191 -13.64934,21.9572 -2.76967,3.13523 -8.60622,7.93956 -11.99264,9.87171 -6.02261,3.43624 -13.94309,4.98327 -21.25041,4.1506 z m 101.31009,-20.49864 c -5.92456,-1.13783 -8.70437,-2.61058 -13.08471,-6.93223 -6.62233,-6.53361 -8.93951,-14.8735 -6.93416,-24.95688 1.10517,-5.55723 1.4642,-6.80719 3.19373,-11.11939 7.91227,-19.7277 24.08537,-37.08588 40.29943,-43.25255 4.74729,-1.80549 13.60175,-2.40653 18.85183,-1.27967 3.82819,0.82171 5.8368,2.06412 9.18635,5.68207 4.91656,5.31042 6.56194,10.61369 5.99712,19.32942 -0.68575,10.58241 -4.63398,23.94032 -10.22491,34.59369 -5.86141,11.16882 -19.34963,24.41647 -27.25568,26.76959 -6.08675,1.81162 -14.20614,2.28431 -20.029,1.16595 z m 107.37639,-48.65395 c -2.14945,-0.54233 -3.77096,-1.66291 -5.29209,-3.65719 -1.10487,-1.44859 -1.2684,-2.14772 -1.2684,-5.4231 0,-2.06807 0.25011,-4.38213 0.55572,-5.14241 0.30566,-0.76027 0.77737,-1.93823 1.04824,-2.61776 0.64547,-1.61928 2.64849,-5.61237 4.21425,-8.40132 3.76913,-6.71344 4.72822,-8.50377 6.48626,-12.10779 3.20015,-6.56039 4.29821,-9.17187 5.92219,-14.08457 2.33194,-7.0544 2.8803,-9.11406 3.9472,-14.82587 0.92469,-4.9505 2.53412,-19.681288 2.54137,-23.260698 0.007,-3.452939 0.49574,-6.391031 1.06312,-6.391031 0.24478,0 0.52411,0.277985 0.62073,0.617744 0.0966,0.33976 0.55578,1.840879 1.02034,3.33582 2.89122,9.303877 3.96023,15.493825 4.75231,27.517695 0.68576,10.40998 0.0981,24.77902 -1.3707,33.51545 -2.17992,12.96611 -8.92055,25.69916 -15.69962,29.65668 -2.23469,1.30453 -6.11417,1.88066 -8.54092,1.26835 z M 207.2725,135.21892 c -4.97314,-0.68037 -8.56782,-3.9772 -10.15167,-9.31065 -0.84379,-2.84123 -0.49914,-5.03225 1.37323,-8.73011 1.50615,-2.97462 5.93533,-8.94158 9.66339,-13.0185 1.82363,-1.99428 3.38198,-3.91096 3.46303,-4.259268 0.081,-0.34831 0.57252,-0.82931 1.09227,-1.0689 0.51979,-0.23954 2.89974,-2.32677 5.28888,-4.63827 8.35769,-8.086129 14.11507,-12.493958 23.93839,-18.326998 7.65652,-4.546451 16.2919,-8.832362 20.68238,-10.265134 7.96174,-2.598233 10.37811,-3.077553 10.37811,-2.05867 0,0.264789 -2.05709,1.860053 -4.57131,3.545062 -5.75288,3.855566 -9.08648,6.674408 -15.98387,13.515804 -13.28635,13.178516 -18.08133,20.362684 -28.53253,42.749554 -4.27755,9.16267 -9.44837,12.84992 -16.6403,11.86608 z m 89.69649,-12.83007 c -4.17744,-0.99541 -7.66003,-4.83298 -7.66003,-8.44091 0,-7.6323 12.01296,-27.198245 23.05081,-37.543686 6.71494,-6.293777 10.35212,-8.656082 16.33692,-10.610773 4.43694,-1.449179 4.10148,-1.38785 4.10148,-0.749596 0,0.275168 -1.222,1.282042 -2.71555,2.23747 -3.49397,2.235049 -3.99518,3.062777 -4.9258,8.134558 -1.63321,8.900709 -3.60802,15.521793 -7.66488,25.698117 -4.66732,11.70754 -9.24402,18.66038 -13.42882,20.40074 -2.23169,0.92805 -5.2874,1.30458 -7.09413,0.87408 z"
     style="fill:#800000;fill-opacity:1;stroke-width:0.494195"
     id="path1-0" /></svg>
