<?xml version="1.0" encoding="UTF-8" standalone="no"?>
<svg
   viewBox="0 0 512 512"
   style="height: 512px; width: 512px;"
   version="1.1"
   id="svg12"
   sodipodi:docname="studied-insight.svg"
   inkscape:version="1.3.2 (091e20e, 2023-11-25)"
   xml:space="preserve"
   xmlns:inkscape="http://www.inkscape.org/namespaces/inkscape"
   xmlns:sodipodi="http://sodipodi.sourceforge.net/DTD/sodipodi-0.dtd"
   xmlns="http://www.w3.org/2000/svg"
   xmlns:svg="http://www.w3.org/2000/svg"><sodipodi:namedview
     id="namedview12"
     pagecolor="#505050"
     bordercolor="#ffffff"
     borderopacity="1"
     inkscape:showpageshadow="0"
     inkscape:pageopacity="0"
     inkscape:pagecheckerboard="1"
     inkscape:deskcolor="#d1d1d1"
     inkscape:zoom="0.13979736"
     inkscape:cx="35.766055"
     inkscape:cy="78.68532"
     inkscape:window-width="1248"
     inkscape:window-height="406"
     inkscape:window-x="0"
     inkscape:window-y="38"
     inkscape:window-maximized="0"
     inkscape:current-layer="svg12" /><defs
     id="defs2"><radialGradient
       id="delapouite-fire-iris-gradient-0"><stop
         offset="0%"
         stop-color="#830000"
         stop-opacity="1"
         id="stop1" /><stop
         offset="100%"
         stop-color="#000"
         stop-opacity="1"
         id="stop2" /></radialGradient></defs><path
     d="M0 0h512v512H0z"
     fill="url(#pattern)"
     id="path2" /><svg
     version="1.1"
     id="svg11"><defs
       id="defs6"><filter
         id="b"
         x="-0.023338979"
         width="1.046678"
         y="-0.023448784"
         height="1.0468976"
         color-interpolation-filters="sRGB"><feGaussianBlur
           stdDeviation="4.823"
           id="feGaussianBlur2" /></filter><filter
         id="a"
         x="-0.012011281"
         width="1.0240226"
         y="-0.011988317"
         height="1.0239766"
         color-interpolation-filters="sRGB"><feGaussianBlur
           stdDeviation="2.55"
           id="feGaussianBlur3" /></filter><filter
         id="c"
         x="-0.11244604"
         width="1.2248921"
         y="-0.082623731"
         height="1.1652475"
         color-interpolation-filters="sRGB"><feGaussianBlur
           stdDeviation="15.63"
           id="feGaussianBlur4" /></filter><filter
         id="e"
         x="-0.23758603"
         width="1.4751721"
         y="-0.24869778"
         height="1.4973956"
         color-interpolation-filters="sRGB"><feGaussianBlur
           stdDeviation="18.7"
           id="feGaussianBlur5" /></filter><filter
         id="d"
         x="-0.21301439"
         width="1.4260288"
         y="-0.15141701"
         height="1.302834"
         color-interpolation-filters="sRGB"><feGaussianBlur
           stdDeviation="18.7"
           id="feGaussianBlur6" /></filter></defs><path
       d="M196.6 1.207c-2.5 11.323-4.8 22.703-10.2 33.383-7-10.68-12.6-20.91-16.7-31.988L2.494 4.338C13 104.9 10.86 175.3 1.979 278.3L15.4 295.5l-9.494 6.3L2.6 462.7l1.019 45.9 112.681 3.1c3.6-16.1 6.5-32.5 13.2-47.3 4.5 14.4 5.7 29.4 7 44.4l160 .3c.8-6.1.7-8.1 2.3-14.4 5.1 4.5 7.8 9.5 10.6 14.5.8-10.1 3.9-19.8 7-29.5 4.8 9.2 6.7 19.4 8.8 29.5l185.2.4-4.6-78.2-21.4-8.2 21.3-4.9 5.8-395.47c-7-6.73-13.3-13.744-18-21.465l-15.1.114-2.1 20.321-1.4 47.23.8 84.87-8.6-97.14c9.3-16.86 2.2-39.69 5.7-55.239-92.1 1.696-184.1.685-276.2-.314z"
       overflow="visible"
       color="#000"
       fill="#ebc893"
       fill-rule="evenodd"
       stroke="#e0aa58"
       enable-background="accumulate"
       id="path6" /><path
       d="M196.6 1.203c-2.5 11.327-4.8 22.707-10.2 33.387-7-10.68-12.6-20.91-16.7-31.99L2.494 4.336C13 104.9 10.86 175.3 1.979 278.3L15.4 295.5l-9.494 6.3L2.6 462.7l1.019 45.9 112.681 3.1c.5-2.1-7.9-2.3-7.4-4.5L5.244 504.5l-.914-47.3 4.63-153.7 12.42-9-13.093-16.8C16.95 177.3 16.36 104 6.113 5.992l162.687.164c4 10.804 10.3 24.254 17.1 34.664 5.3-10.41 9.5-25.97 12-37.02 89.8.974 173.8 3.521 263.6 1.867 4.6 1.226 10.6.431 11.3-4.149-92.1 1.696-184.1.684-276.2-.315zm296.9.158l-15.1.116-.6 6.277 13.5-2.557c4.6 7.533 9.7 12.383 16.6 18.943l-4.6 389.06-19.9 9.9 4.1-.6 18.2-4.2 5.8-395.47c-7-6.73-13.3-13.748-18-21.469zm9.6 435.739l3.5 69.7-177.7.1c.4 2.1-4.1.2-3.7 2.3l185.2.4-4.6-78.2zm-370 25.1c-1 2.2-2.9.4-3.7 2.6 4.2 14 5.8 29.5 7.1 44l158 .3c1.9-5 .8-9.7 4.3-14.4 5.1 4.5 7.8 9.5 10.6 14.5.8-10.1 3.9-19.8 7-29.5 1.8 3.4 3.2 7 4.3 10.6-1.4-5.6-2.4-8.3-5.1-13.4-3 9.4-6.7 16.2-7.5 26-2.7-4.9-5.4-9.7-10.4-14.1-3.4 4.6-6.2 9.1-8 14l-147.6 3.4c-3.4-14.6-7.1-30.3-9-44z"
       overflow="visible"
       color="#000"
       opacity=".527"
       fill="#c87137"
       fill-rule="evenodd"
       filter="url(#a)"
       enable-background="accumulate"
       id="path7" /><path
       d="M200.1 16.1c-2.3 10.67-10.5 21.38-15.6 31.44-6.6-10.06-13.9-19.69-17.7-30.12L17.34 19.05C24.61 113.6 7.605 179.3 16.85 277l18.26 20.1L10.34 309l7.1 141.6.96 43.3 90.2 3.4c3.4-15.2 15-35.6 21.3-49.6 4.3 13.6 15.4 36.7 16.6 50.9l45.1.8 13.8-18.7 14.4 22.2 68.7-8.6c1.8-4.7 4.5-9.1 7.8-13.5 4.8 4.2 7.4 8.9 10 13.6.8-9.5 7.7-19.6 10.6-28.7 4.5 8.6 19.9 28.9 33.1 33.9l114.6 5.6 22.3-14.7 19.4 14.7-14.5-67.6-34.6-14.2 37.5-15.1 2.1-96.9-14.5-21.9 15.2-13.4 5.1-239.63c-5.2-21.09-11.8-24.89-16.9-20.22l-4.2 2.11 2 19.14.7 44.47-7.1 124.23-18.3-137.78c8.8-15.88-3.9-35.38-.6-50.02-67.1 1.24-140.4-13.332-202.8-3.28-14 2.25-23.7 21.31-36.9 24.48-4.3 1.03-13.9-23.45-18.4-23.5z"
       overflow="visible"
       enable-background="accumulate"
       filter="url(#b)"
       fill-rule="evenodd"
       fill="#f6e7d0"
       color="#000"
       id="path8" /><path
       d="M354 27.39l-70.3 96.91 46.4 97.6-56.2 43.6 33 74.4-30.2 63.2 69.8 48.8 31.6 29.5 31.6-13.3L365.9 335l55.5-36.5 2.1-146.1-56.9-101.83zM116.6 55.48L89.9 123.6s33.7 65.3 35.8 68.8c2.1 3.6-7 118-7 118l42.8 73.8s9.9-82.9 7.1-83.6c-2.8-.7-29.5-42.1-29.5-42.1l23.8-84.3-36.5-37.2z"
       color="#000"
       overflow="visible"
       fill="#f2dbb9"
       fill-rule="evenodd"
       filter="url(#c)"
       enable-background="accumulate"
       id="path9" /><path
       d="M39.33 172.1l-5.62 108.1L74.45 328 42.84 464.9l96.96-39.3 30.2 42.9 74.4-38.7-80.8-169.9-60.4-16.9z"
       color="#000"
       overflow="visible"
       fill="#eed3a4"
       fill-rule="evenodd"
       enable-background="accumulate"
       filter="url(#d)"
       id="path10" /><path
       d="M266.9 66.72L324.5 191 434 221.2l21.8-111.6-41.4-68.86z"
       color="#000"
       overflow="visible"
       fill="#eed3a4"
       fill-rule="evenodd"
       enable-background="accumulate"
       filter="url(#e)"
       id="path11" /></svg><path
     id="path32"
     style="fill:#800000;fill-opacity:1;stroke-width:2.22804"
     d="m 185.60271,141.58893 c -13.22992,0.0841 -26.3814,2.17027 -39.19221,5.38136 -15.10556,3.79858 -29.78669,9.13289 -44.09273,15.26491 -1.57563,0.67871 -3.147184,1.36535 -4.715634,2.06145 v 163.56422 c 13.714404,-6.49874 27.835564,-12.22075 42.433574,-16.40434 14.38294,-4.11145 29.3058,-6.71662 44.30696,-6.47559 10.25444,0.15047 20.48369,1.71295 30.29576,4.68232 9.52091,2.85316 18.61631,7.0105 27.29481,11.83472 2.95253,1.63601 5.85997,3.35128 8.74491,5.10364 v -43.95549 c -7.36282,-0.675 -14.56014,-2.635 -21.3628,-5.49161 -4.36498,-1.82875 -8.58813,-3.97796 -12.70595,-6.30579 -4.54292,-2.59637 -8.9913,-5.34865 -13.32087,-8.28709 -11.48723,-7.72606 -22.64525,-15.95827 -34.48374,-23.14887 -2.65773,-1.62338 -5.34215,-3.20394 -8.06489,-4.71726 8.95259,-4.98705 17.52586,-10.62212 25.95225,-16.44638 6.70566,-4.61195 13.34645,-9.3199 20.15511,-13.77949 1.8126,-1.15867 3.62908,-2.31387 5.48532,-3.40167 3.44574,-1.95696 7.36131,-3.03627 11.30785,-3.21198 5.249,-0.26708 10.43341,0.78969 15.54895,1.82419 3.81,0.78148 7.62271,1.58198 11.48877,2.03606 V 163.3064 c -7.3579,-5.63715 -15.36473,-10.46564 -23.93447,-14.01995 -8.95812,-3.7364 -18.48877,-6.05268 -28.13906,-7.05163 -4.31731,-0.44814 -8.66124,-0.65712 -13.00191,-0.64589 z m 142.26331,0 c -7.00726,-0.0135 -14.02403,0.51409 -20.9216,1.76707 -9.33822,1.67499 -18.43523,4.70293 -26.89097,9.00438 -6.08876,3.08328 -11.84383,6.80163 -17.26286,10.94602 v 38.44396 c 6.07558,-0.70356 11.99927,-2.31572 18.02301,-3.2842 4.37648,-0.70097 8.89234,-0.99819 13.25582,-0.0667 3.07052,0.63373 6.004,1.90845 8.6386,3.61194 5.17921,3.15807 10.15371,6.63388 15.15225,10.06685 8.91246,6.16395 17.7695,12.42523 27.04012,18.04445 2.57976,1.57203 5.18498,3.10298 7.82607,4.57121 -7.95189,4.43283 -15.60954,9.36987 -23.12433,14.50479 -7.27312,4.96527 -14.44727,10.07663 -21.79124,14.93717 -4.07251,2.68855 -8.25663,5.20672 -12.51631,7.58963 -5.7604,3.15142 -11.73324,5.96968 -18.0048,7.95463 -4.69759,1.47813 -9.57048,2.51337 -14.4881,2.9644 -0.0297,0.96958 -0.004,1.9897 -0.0127,2.97874 v 40.97752 c 8.6483,-5.2722 17.58847,-10.13636 27.03849,-13.82158 9.24803,-3.63209 18.95067,-6.08912 28.83181,-7.1532 11.53771,-1.26294 23.23556,-0.64754 34.66542,1.24974 13.29888,2.2069 26.26334,6.07543 38.85977,10.8381 8.0329,3.04435 15.91995,6.46453 23.6805,10.14618 V 164.29665 c -14.57903,-6.47338 -29.54322,-12.15728 -44.95202,-16.32261 -13.98401,-3.76112 -28.38529,-6.27899 -42.89776,-6.37956 -0.0297,-0.0125 -0.10384,-0.003 -0.14917,-0.006 z m -94.88799,63.37821 c -2.72645,0.035 -5.5164,0.61772 -7.82209,2.13128 -1.83475,1.17019 -3.27478,2.8541 -4.44583,4.66878 -1.30267,2.01969 -2.40892,4.16182 -3.3588,6.36845 -0.88341,2.11727 -1.61081,4.30084 -2.17093,6.52479 -0.81024,3.33344 -1.19404,6.76834 -1.2037,10.19774 0.0513,4.47679 0.7205,8.96516 2.18364,13.20346 0.99729,3.07324 2.38731,6.01229 4.05781,8.77429 3.84444,6.31864 9.34269,11.62249 15.80685,15.22046 3.99883,2.24471 8.37137,3.81466 12.87578,4.66647 0.58972,0.10396 1.1838,0.17518 1.77739,0.2531 v -15.87747 c -0.0817,-0.0177 -0.16377,-0.0338 -0.24518,-0.0532 -0.20732,-0.0492 -0.41284,-0.10612 -0.6189,-0.16027 -0.19967,-0.0525 -0.39992,-0.10238 -0.59829,-0.1595 -0.20785,-0.0598 -0.41338,-0.12708 -0.61972,-0.192 -0.20154,-0.0634 -0.40386,-0.12451 -0.60382,-0.19285 -0.19509,-0.0666 -0.38733,-0.1406 -0.58083,-0.21182 -0.17469,-0.0644 -0.35121,-0.12314 -0.52448,-0.19123 -0.0323,-0.0126 -0.0638,-0.027 -0.0961,-0.0397 -0.0239,-0.009 -0.0483,-0.0174 -0.0722,-0.0269 -0.13801,-0.0546 -0.27321,-0.11603 -0.41025,-0.17298 -0.18598,-0.0774 -0.37286,-0.15243 -0.55698,-0.23409 -0.18058,-0.08 -0.35853,-0.16587 -0.5372,-0.24993 -0.16571,-0.078 -0.33187,-0.1543 -0.49592,-0.23567 -0.17628,-0.0874 -0.34942,-0.1801 -0.52371,-0.27134 -0.16392,-0.0859 -0.32907,-0.16942 -0.49117,-0.25871 -0.1621,-0.0893 -0.32139,-0.18351 -0.48162,-0.2761 -0.17156,-0.0992 -0.34402,-0.19703 -0.51339,-0.29993 -0.15357,-0.0933 -0.30376,-0.19168 -0.45546,-0.28805 -0.16778,-0.1066 -0.33683,-0.21113 -0.50226,-0.32134 -0.16116,-0.10742 -0.31883,-0.22008 -0.47768,-0.3309 -0.15243,-0.10636 -0.30599,-0.21114 -0.45623,-0.32054 -0.16059,-0.11701 -0.31729,-0.23901 -0.47532,-0.35946 -0.14423,-0.10998 -0.28958,-0.21809 -0.43166,-0.3309 -0.15933,-0.12656 -0.31481,-0.2579 -0.4713,-0.38798 -0.1359,-0.11294 -0.27338,-0.22409 -0.40708,-0.33964 -0.1443,-0.12472 -0.28438,-0.25391 -0.42609,-0.38164 -0.14503,-0.13073 -0.29104,-0.2598 -0.43323,-0.39358 -0.12314,-0.11582 -0.24245,-0.2358 -0.3634,-0.35389 -0.1515,-0.14784 -0.30429,-0.29458 -0.45229,-0.44592 -0.12825,-0.13113 -0.25209,-0.26622 -0.3777,-0.39992 -0.13252,-0.14105 -0.26643,-0.28068 -0.39594,-0.4245 -0.12635,-0.14036 -0.24794,-0.28475 -0.37136,-0.42771 -0.12623,-0.14621 -0.2546,-0.29072 -0.3777,-0.43957 -0.12749,-0.15418 -0.24965,-0.31278 -0.37372,-0.46972 -0.10957,-0.1387 -0.22085,-0.27581 -0.32769,-0.41658 -0.12464,-0.16425 -0.24416,-0.33216 -0.36503,-0.49909 -0.10318,-0.14272 -0.20829,-0.28378 -0.30863,-0.42848 -0.11692,-0.16856 -0.2282,-0.34057 -0.34122,-0.51181 -0.0963,-0.14601 -0.1946,-0.29088 -0.28804,-0.4388 -0.11403,-0.18067 -0.22267,-0.36486 -0.33244,-0.54829 -0.0727,-0.12151 -0.14906,-0.24071 -0.21979,-0.3634 -0.0146,-0.0252 -0.0283,-0.0509 -0.0428,-0.0762 -0.0134,-0.0235 -0.0279,-0.0463 -0.0412,-0.0698 -0.0656,-0.1144 -0.12651,-0.23141 -0.19042,-0.34674 -0.0871,-0.1573 -0.17566,-0.31388 -0.25947,-0.47293 -0.0791,-0.15007 -0.15393,-0.3023 -0.23011,-0.45387 -0.0759,-0.15105 -0.15316,-0.30149 -0.22612,-0.45384 -0.0695,-0.14523 -0.13472,-0.29238 -0.20154,-0.4388 -0.0753,-0.16506 -0.15186,-0.3294 -0.22378,-0.49592 -0.0616,-0.14264 -0.11866,-0.28723 -0.17773,-0.43088 -0.0681,-0.16559 -0.1376,-0.33057 -0.20232,-0.49751 -0.0689,-0.17745 -0.13256,-0.35669 -0.19761,-0.53557 -0.0494,-0.13598 -0.10111,-0.27114 -0.14836,-0.40788 -0.0662,-0.19156 -0.127,-0.38461 -0.18887,-0.57762 -0.0413,-0.12887 -0.0844,-0.25697 -0.12375,-0.38644 -0.0531,-0.17453 -0.10124,-0.35048 -0.15076,-0.52607 -0.0449,-0.15909 -0.0914,-0.31777 -0.13334,-0.47767 -0.0399,-0.15207 -0.0754,-0.30511 -0.11265,-0.45786 -0.042,-0.17234 -0.0859,-0.34419 -0.12456,-0.51734 -0.0354,-0.15815 -0.0659,-0.31728 -0.0984,-0.47609 -0.0364,-0.17786 -0.0743,-0.35544 -0.10713,-0.53399 -0.0288,-0.15608 -0.0525,-0.31318 -0.0786,-0.46976 -0.0285,-0.17193 -0.0588,-0.3433 -0.0841,-0.51575 -0.023,-0.15682 -0.0417,-0.31412 -0.0619,-0.47135 -0.0241,-0.18736 -0.0496,-0.37469 -0.0698,-0.56255 -0.0164,-0.15267 -0.0282,-0.30571 -0.042,-0.45863 -0.0158,-0.17375 -0.0336,-0.3473 -0.0461,-0.5213 -0.0132,-0.18522 -0.0208,-0.3708 -0.0301,-0.55626 -0.008,-0.1584 -0.0178,-0.31676 -0.0231,-0.47528 -0.005,-0.15811 -0.005,-0.31628 -0.008,-0.47451 -0.003,-0.18176 -0.007,-0.36332 -0.006,-0.54512 6.7e-4,-0.16507 0.007,-0.33005 0.0103,-0.49511 0.004,-0.16925 0.005,-0.33866 0.0127,-0.50783 0.009,-0.20885 0.0235,-0.41743 0.0373,-0.62604 0.007,-0.11299 0.0118,-0.22597 0.0207,-0.33882 0.001,-0.0159 0.003,-0.0318 0.005,-0.0476 0.001,-0.0222 0.002,-0.0445 0.004,-0.0666 0.0114,-0.14675 0.0289,-0.29304 0.0428,-0.43958 0.0166,-0.17433 0.0314,-0.34893 0.0516,-0.5229 0.0211,-0.18225 0.0474,-0.3634 0.0722,-0.54512 0.0218,-0.1588 0.0412,-0.31769 0.0658,-0.47609 0.0311,-0.19972 0.0684,-0.39854 0.10397,-0.59749 0.0241,-0.13459 0.0461,-0.26963 0.0722,-0.40386 0.0404,-0.20732 0.0864,-0.41345 0.13175,-0.61971 0.0288,-0.13119 0.0557,-0.26285 0.0865,-0.39359 0.0438,-0.1859 0.0919,-0.37046 0.13967,-0.5554 0.04,-0.15466 0.0787,-0.30949 0.12139,-0.46342 0.0481,-0.17351 0.10076,-0.3456 0.15235,-0.51814 0.0465,-0.1554 0.092,-0.3112 0.14126,-0.46574 0.0525,-0.16469 0.10863,-0.32834 0.16425,-0.49198 0.0576,-0.16969 0.11514,-0.33926 0.17615,-0.50782 0.0521,-0.14406 0.10726,-0.2869 0.16186,-0.43007 0.0693,-0.18172 0.13869,-0.36332 0.21186,-0.54354 0.0565,-0.13902 0.11579,-0.27686 0.17457,-0.41499 0.0752,-0.17673 0.1504,-0.35333 0.22929,-0.52843 0.0641,-0.1421 0.13111,-0.28275 0.19761,-0.42372 0.0811,-0.17209 0.16283,-0.34382 0.24753,-0.51417 0.0666,-0.13382 0.13517,-0.26642 0.20395,-0.39915 0.0932,-0.17968 0.18765,-0.35868 0.28487,-0.53638 0.0642,-0.11729 0.13008,-0.23356 0.19597,-0.34991 0.10409,-0.18376 0.20898,-0.36702 0.31737,-0.54829 0.0708,-0.11843 0.14325,-0.23575 0.21585,-0.35308 0.10766,-0.17393 0.21687,-0.34675 0.3285,-0.51815 0.0823,-0.12655 0.16629,-0.25176 0.25075,-0.37693 0.0995,-0.14734 0.1998,-0.29421 0.30229,-0.43957 0.10653,-0.15121 0.21488,-0.30092 0.32453,-0.44989 0.0873,-0.11851 0.17571,-0.23608 0.26504,-0.35312 0.1313,-0.17234 0.26435,-0.34346 0.39992,-0.51258 0.0341,-0.0425 0.0664,-0.0863 0.10076,-0.12855 0.0277,-0.0337 0.0571,-0.0663 0.0849,-0.1 0.0862,-0.1051 0.16928,-0.21284 0.25708,-0.3166 0.10632,-0.1211 0.21459,-0.24193 0.32134,-0.3634 0.0865,-0.0994 0.17401,-0.19773 0.26185,-0.29596 0.17748,-0.19951 0.35994,-0.39395 0.54276,-0.58875 0.064,-0.0675 0.12569,-0.1372 0.19041,-0.20394 0.1324,-0.13724 0.27081,-0.26773 0.40785,-0.39993 0.44144,-0.43364 0.89458,-0.85517 1.37429,-1.24575 1.3085,-1.03036 2.95938,-1.51641 4.61013,-1.57504 0.23584,-0.008 0.4722,-0.008 0.70698,6.7e-4 0.0723,0 0.14426,0.004 0.21661,0.004 2.04325,0.0983 4.03636,0.5513 6.03362,0.96089 v -6.3137 c -4.42544,-0.50636 -8.78323,-1.4711 -13.20745,-1.99798 -1.49106,-0.17104 -2.99061,-0.28682 -4.49267,-0.26102 z m 46.73505,0.0246 c -4.09445,0.0748 -8.11952,0.91051 -12.15214,1.54013 -1.58498,0.25798 -3.17366,0.48751 -4.77035,0.67764 v 6.33035 c 1.99721,-0.4096 3.99033,-0.86262 6.03357,-0.96089 0.0724,0 0.14431,-0.004 0.21662,-0.004 1.87839,-0.0699 3.82169,0.39671 5.3171,1.57425 0.47988,0.39058 0.9329,0.81212 1.3743,1.24576 0.13707,0.1322 0.27544,0.26269 0.40785,0.39992 0.0648,0.0668 0.12646,0.13642 0.19045,0.20395 0.18282,0.1948 0.36523,0.38923 0.54272,0.58874 0.0879,0.0982 0.1753,0.1966 0.26188,0.29597 0.10676,0.12147 0.21503,0.24229 0.32135,0.3634 0.0878,0.10376 0.17092,0.2115 0.25708,0.31659 0.0278,0.0337 0.0572,0.0662 0.0849,0.1 0.0344,0.0422 0.0666,0.0861 0.10075,0.12855 0.13553,0.16912 0.26858,0.34024 0.39993,0.51258 0.0893,0.11704 0.17769,0.23461 0.265,0.35312 0.11099,0.15076 0.22076,0.30238 0.3285,0.45545 0.0957,0.13573 0.1894,0.27273 0.28248,0.41021 0.0945,0.13975 0.18821,0.27999 0.28011,0.42133 0.1053,0.16206 0.20849,0.32533 0.31026,0.48958 0.0743,0.11997 0.1482,0.23994 0.22056,0.36105 0.10839,0.18127 0.21329,0.36453 0.31741,0.54829 0.0659,0.11635 0.13183,0.23262 0.19598,0.3499 0.0972,0.17771 0.19167,0.35671 0.28487,0.53639 0.0688,0.13273 0.13735,0.26533 0.2039,0.39915 0.0847,0.17035 0.16644,0.34207 0.24758,0.51417 0.0665,0.14097 0.13353,0.28162 0.19756,0.42372 0.0789,0.1751 0.15414,0.3517 0.22934,0.52843 0.0587,0.13812 0.11809,0.27597 0.17456,0.41499 0.0731,0.18022 0.14256,0.36182 0.21187,0.54354 0.0546,0.14317 0.10969,0.286 0.16186,0.43007 0.061,0.16856 0.1185,0.33812 0.17615,0.50782 0.0556,0.16364 0.11176,0.32729 0.16425,0.49198 0.0493,0.15454 0.0948,0.31034 0.14122,0.46574 0.0516,0.17254 0.10424,0.34463 0.15235,0.51814 0.0427,0.15393 0.0815,0.30876 0.12142,0.46342 0.0477,0.18494 0.0958,0.3695 0.13963,0.5554 0.0308,0.13074 0.0577,0.2624 0.0865,0.39359 0.0453,0.20626 0.0913,0.41239 0.13171,0.6197 0.0262,0.13424 0.0481,0.26928 0.0722,0.40387 0.0356,0.19895 0.0729,0.39777 0.10392,0.59749 0.0247,0.15839 0.0441,0.31729 0.0658,0.47609 0.0249,0.18172 0.0512,0.36287 0.0722,0.54512 0.0239,0.20638 0.0421,0.41353 0.0611,0.62048 0.0104,0.11404 0.0244,0.22783 0.0333,0.34199 10e-4,0.014 10e-4,0.0281 0.003,0.0421 0.002,0.0241 0.005,0.0481 0.007,0.0722 0.0118,0.14905 0.017,0.29839 0.0262,0.44749 0.0106,0.17193 0.0238,0.3437 0.0309,0.51578 0.007,0.16966 0.009,0.33964 0.0127,0.50941 0.003,0.16507 0.01,0.33005 0.0103,0.49512 6.7e-4,0.1818 -0.003,0.36336 -0.006,0.54512 -0.003,0.15823 -0.003,0.31639 -0.008,0.47451 -0.005,0.15852 -0.015,0.31688 -0.023,0.47528 -0.009,0.18627 -0.0176,0.37262 -0.031,0.55861 -0.01,0.13772 -0.0238,0.27504 -0.0357,0.41264 -0.017,0.19602 -0.0327,0.3922 -0.0539,0.58794 -0.0173,0.15978 -0.0393,0.31903 -0.0595,0.47849 -0.0225,0.17798 -0.0437,0.35633 -0.0698,0.53399 -0.0209,0.14244 -0.0459,0.28401 -0.0691,0.42608 -0.0315,0.19352 -0.062,0.3873 -0.0976,0.58007 -0.0277,0.14963 -0.0603,0.29836 -0.0905,0.4475 -0.0364,0.18025 -0.071,0.36092 -0.11107,0.54036 -0.0387,0.17315 -0.0825,0.345 -0.12456,0.51734 -0.0373,0.15275 -0.0728,0.30579 -0.1127,0.45786 -0.042,0.1599 -0.0884,0.31858 -0.1333,0.47767 -0.0495,0.17559 -0.0977,0.35154 -0.15076,0.52607 -0.0394,0.12947 -0.0825,0.25757 -0.12378,0.38644 -0.0618,0.19301 -0.12265,0.38606 -0.18884,0.57762 -0.0473,0.13674 -0.099,0.2719 -0.1484,0.40788 -0.065,0.17887 -0.12874,0.35812 -0.19757,0.53557 -0.0647,0.16694 -0.13426,0.33192 -0.20231,0.49751 -0.0591,0.14365 -0.11619,0.28824 -0.17774,0.43088 -0.0719,0.16652 -0.14849,0.33086 -0.22377,0.49592 -0.0668,0.14642 -0.13208,0.29357 -0.20155,0.4388 -0.073,0.15235 -0.15023,0.30278 -0.22616,0.45384 -0.0763,0.1521 -0.1515,0.30485 -0.23088,0.45545 -0.0739,0.14033 -0.15202,0.27846 -0.22852,0.4174 -0.0735,0.13345 -0.1439,0.26849 -0.21979,0.40069 -0.0168,0.0295 -0.0355,0.0578 -0.0523,0.0873 -0.0112,0.0194 -0.0212,0.0394 -0.0325,0.0588 -0.061,0.10583 -0.12716,0.20845 -0.18964,0.31343 -0.11932,0.20033 -0.23807,0.40118 -0.36263,0.59826 -0.0934,0.14792 -0.19168,0.29279 -0.28804,0.4388 -0.11302,0.17124 -0.22425,0.34325 -0.34117,0.51181 -0.10039,0.14471 -0.20549,0.28577 -0.30868,0.42848 -0.12083,0.16693 -0.24035,0.33484 -0.36499,0.49909 -0.10684,0.14077 -0.21812,0.27788 -0.32773,0.41658 -0.12403,0.15694 -0.24619,0.31555 -0.37372,0.46972 -0.13244,0.16019 -0.27016,0.31578 -0.40626,0.47292 -0.11062,0.12769 -0.2195,0.25681 -0.33244,0.38246 -0.1443,0.16043 -0.29316,0.31672 -0.4412,0.4737 -0.11387,0.12078 -0.22588,0.24315 -0.34199,0.36182 -0.14825,0.15161 -0.30132,0.2986 -0.45306,0.44672 -0.12098,0.1181 -0.2403,0.23806 -0.3634,0.35389 -0.14223,0.13378 -0.28824,0.26285 -0.43323,0.39358 -0.14171,0.12773 -0.28178,0.25693 -0.42613,0.38165 -0.13366,0.11554 -0.27118,0.22669 -0.40704,0.33963 -0.15653,0.13008 -0.31197,0.26143 -0.47135,0.38798 -0.14203,0.11282 -0.28739,0.22092 -0.43165,0.3309 -0.15799,0.12046 -0.31469,0.24245 -0.47528,0.35945 -0.15024,0.10941 -0.30396,0.21418 -0.45623,0.32055 -0.15885,0.11082 -0.31656,0.22348 -0.47768,0.3309 -0.16543,0.11021 -0.33447,0.21475 -0.5023,0.32135 -0.15166,0.0964 -0.30185,0.19472 -0.45546,0.28803 -0.16933,0.10291 -0.34178,0.20078 -0.51335,0.29995 -0.16027,0.0926 -0.31952,0.18684 -0.48166,0.27609 -0.1688,0.093 -0.34021,0.1805 -0.511,0.2698 -0.1649,0.0862 -0.32846,0.17437 -0.49511,0.25708 -0.17509,0.0869 -0.35308,0.1677 -0.53004,0.25075 -0.17003,0.0797 -0.33931,0.16116 -0.511,0.23725 -0.18444,0.0818 -0.37152,0.15734 -0.55783,0.23486 -0.137,0.057 -0.27224,0.11834 -0.41021,0.17299 -0.0239,0.01 -0.0483,0.0174 -0.0722,0.027 -0.0322,0.0127 -0.0637,0.0271 -0.096,0.0397 -0.17331,0.0681 -0.34983,0.12687 -0.52448,0.19122 -0.1935,0.0712 -0.38574,0.14525 -0.58083,0.21183 -0.2,0.0683 -0.40232,0.12939 -0.60382,0.19285 -0.20638,0.0649 -0.41187,0.13216 -0.61971,0.192 -0.19285,0.0556 -0.38761,0.1036 -0.58165,0.15474 -0.21275,0.0561 -0.42462,0.11506 -0.63872,0.16584 -0.0804,0.019 -0.16137,0.035 -0.24201,0.0523 v 15.87747 c 2.90062,-0.32964 5.72998,-1.11908 8.4767,-2.08765 7.52724,-2.7367 14.24077,-7.64615 19.15692,-13.96756 2.60605,-3.32877 4.70531,-7.05134 6.22643,-10.99364 1.10052,-2.92857 1.95972,-5.95683 2.38121,-9.06151 0.49121,-3.41958 0.60671,-6.89908 0.2436,-10.33743 -0.31059,-3.25833 -0.99685,-6.47879 -2.08448,-9.56612 -0.98023,-2.93633 -2.32979,-5.74168 -3.92293,-8.39183 -1.19473,-1.96671 -2.6192,-3.85241 -4.52915,-5.17665 -2.18572,-1.56102 -4.87521,-2.25775 -7.5317,-2.37406 -0.49754,-0.0264 -0.99599,-0.0323 -1.49411,-0.0278 z m -24.07092,9.26066 c -1.85084,6.53136 -5.40871,13.79883 -5.40359,20.44236 0.007,8.84129 6.49618,19.78703 6.49618,26.98694 0,-7.19991 6.48928,-18.14598 6.49619,-26.98694 0.005,-6.64353 -3.55356,-13.911 -5.40436,-20.44236 -0.16571,0.008 -0.33082,0.0244 -0.49669,0.0294 -0.19863,0.005 -0.39725,0.009 -0.5959,0.009 -0.19846,6.7e-4 -0.3968,-0.004 -0.59514,-0.009 -0.16587,-0.005 -0.33098,-0.021 -0.49669,-0.0294 z m 76.05793,103.13059 c -0.69519,0 -1.39192,0.0217 -2.07574,0.0262 -3.22681,0.0513 -6.32633,0.24847 -9.32969,0.56576 -22.77288,2.41409 -40.00209,12.05809 -57.4025,23.10764 v 0.19122 c -4.39862,-1.33549 -8.73777,-1.59282 -13.02495,-0.65302 -17.15816,-10.85702 -34.23369,-20.26873 -56.69315,-22.64982 -3.75499,-0.39748 -7.67388,-0.59318 -11.78392,-0.56575 -21.50309,0.14255 -48.20969,6.56069 -83.681677,24.11694 v 28.54612 c 40.784717,-19.34404 71.618917,-24.87803 96.789127,-22.2102 12.44619,1.3188 23.38097,4.5935 33.38951,8.91233 -3.14222,4.06976 -6.24718,8.90482 -9.31225,14.55553 h 78.62566 c -3.97985,-5.51657 -7.91626,-10.34427 -11.82757,-14.46904 10.06432,-4.36449 21.06768,-7.67132 33.59898,-8.99882 25.16958,-2.66718 56.00302,2.86527 96.78916,22.2102 v -28.54214 c -35.67514,-17.65633 -62.49011,-24.07053 -84.05623,-24.14317 z" /></svg>
