<?xml version="1.0" encoding="UTF-8" standalone="no"?>
<svg
   viewBox="0 0 512 512"
   style="height: 512px; width: 512px;"
   version="1.1"
   id="svg12"
   sodipodi:docname="sandstorm.svg"
   inkscape:version="1.3.2 (091e20e, 2023-11-25)"
   xmlns:inkscape="http://www.inkscape.org/namespaces/inkscape"
   xmlns:sodipodi="http://sodipodi.sourceforge.net/DTD/sodipodi-0.dtd"
   xmlns="http://www.w3.org/2000/svg"
   xmlns:svg="http://www.w3.org/2000/svg">
  <sodipodi:namedview
     id="namedview12"
     pagecolor="#505050"
     bordercolor="#ffffff"
     borderopacity="1"
     inkscape:showpageshadow="0"
     inkscape:pageopacity="0"
     inkscape:pagecheckerboard="1"
     inkscape:deskcolor="#d1d1d1"
     inkscape:zoom="0.4609375"
     inkscape:cx="256"
     inkscape:cy="254.91525"
     inkscape:window-width="1248"
     inkscape:window-height="675"
     inkscape:window-x="0"
     inkscape:window-y="38"
     inkscape:window-maximized="0"
     inkscape:current-layer="svg12" />
  <defs
     id="defs2">
    <radialGradient
       id="delapouite-sandstorm-gradient-0">
      <stop
         offset="0%"
         stop-color="#830000"
         stop-opacity="1"
         id="stop1" />
      <stop
         offset="100%"
         stop-color="#000"
         stop-opacity="1"
         id="stop2" />
    </radialGradient>
  </defs>
  <path
     d="M0 0h512v512H0z"
     fill="url(#pattern)"
     id="path2" />
  <svg
     version="1.1"
     id="svg11">
    <defs
       id="defs6">
      <filter
         id="b"
         x="-0.023338979"
         width="1.046678"
         y="-0.023448784"
         height="1.0468976"
         color-interpolation-filters="sRGB">
        <feGaussianBlur
           stdDeviation="4.823"
           id="feGaussianBlur2" />
      </filter>
      <filter
         id="a"
         x="-0.012011281"
         width="1.0240226"
         y="-0.011988317"
         height="1.0239766"
         color-interpolation-filters="sRGB">
        <feGaussianBlur
           stdDeviation="2.55"
           id="feGaussianBlur3" />
      </filter>
      <filter
         id="c"
         x="-0.11244604"
         width="1.2248921"
         y="-0.082623731"
         height="1.1652475"
         color-interpolation-filters="sRGB">
        <feGaussianBlur
           stdDeviation="15.63"
           id="feGaussianBlur4" />
      </filter>
      <filter
         id="e"
         x="-0.23758603"
         width="1.4751721"
         y="-0.24869778"
         height="1.4973956"
         color-interpolation-filters="sRGB">
        <feGaussianBlur
           stdDeviation="18.7"
           id="feGaussianBlur5" />
      </filter>
      <filter
         id="d"
         x="-0.21301439"
         width="1.4260288"
         y="-0.15141701"
         height="1.302834"
         color-interpolation-filters="sRGB">
        <feGaussianBlur
           stdDeviation="18.7"
           id="feGaussianBlur6" />
      </filter>
    </defs>
    <path
       d="M196.6 1.207c-2.5 11.323-4.8 22.703-10.2 33.383-7-10.68-12.6-20.91-16.7-31.988L2.494 4.338C13 104.9 10.86 175.3 1.979 278.3L15.4 295.5l-9.494 6.3L2.6 462.7l1.019 45.9 112.681 3.1c3.6-16.1 6.5-32.5 13.2-47.3 4.5 14.4 5.7 29.4 7 44.4l160 .3c.8-6.1.7-8.1 2.3-14.4 5.1 4.5 7.8 9.5 10.6 14.5.8-10.1 3.9-19.8 7-29.5 4.8 9.2 6.7 19.4 8.8 29.5l185.2.4-4.6-78.2-21.4-8.2 21.3-4.9 5.8-395.47c-7-6.73-13.3-13.744-18-21.465l-15.1.114-2.1 20.321-1.4 47.23.8 84.87-8.6-97.14c9.3-16.86 2.2-39.69 5.7-55.239-92.1 1.696-184.1.685-276.2-.314z"
       overflow="visible"
       color="#000"
       fill="#ebc893"
       fill-rule="evenodd"
       stroke="#e0aa58"
       enable-background="accumulate"
       id="path6" />
    <path
       d="M196.6 1.203c-2.5 11.327-4.8 22.707-10.2 33.387-7-10.68-12.6-20.91-16.7-31.99L2.494 4.336C13 104.9 10.86 175.3 1.979 278.3L15.4 295.5l-9.494 6.3L2.6 462.7l1.019 45.9 112.681 3.1c.5-2.1-7.9-2.3-7.4-4.5L5.244 504.5l-.914-47.3 4.63-153.7 12.42-9-13.093-16.8C16.95 177.3 16.36 104 6.113 5.992l162.687.164c4 10.804 10.3 24.254 17.1 34.664 5.3-10.41 9.5-25.97 12-37.02 89.8.974 173.8 3.521 263.6 1.867 4.6 1.226 10.6.431 11.3-4.149-92.1 1.696-184.1.684-276.2-.315zm296.9.158l-15.1.116-.6 6.277 13.5-2.557c4.6 7.533 9.7 12.383 16.6 18.943l-4.6 389.06-19.9 9.9 4.1-.6 18.2-4.2 5.8-395.47c-7-6.73-13.3-13.748-18-21.469zm9.6 435.739l3.5 69.7-177.7.1c.4 2.1-4.1.2-3.7 2.3l185.2.4-4.6-78.2zm-370 25.1c-1 2.2-2.9.4-3.7 2.6 4.2 14 5.8 29.5 7.1 44l158 .3c1.9-5 .8-9.7 4.3-14.4 5.1 4.5 7.8 9.5 10.6 14.5.8-10.1 3.9-19.8 7-29.5 1.8 3.4 3.2 7 4.3 10.6-1.4-5.6-2.4-8.3-5.1-13.4-3 9.4-6.7 16.2-7.5 26-2.7-4.9-5.4-9.7-10.4-14.1-3.4 4.6-6.2 9.1-8 14l-147.6 3.4c-3.4-14.6-7.1-30.3-9-44z"
       overflow="visible"
       color="#000"
       opacity=".527"
       fill="#c87137"
       fill-rule="evenodd"
       filter="url(#a)"
       enable-background="accumulate"
       id="path7" />
    <path
       d="M200.1 16.1c-2.3 10.67-10.5 21.38-15.6 31.44-6.6-10.06-13.9-19.69-17.7-30.12L17.34 19.05C24.61 113.6 7.605 179.3 16.85 277l18.26 20.1L10.34 309l7.1 141.6.96 43.3 90.2 3.4c3.4-15.2 15-35.6 21.3-49.6 4.3 13.6 15.4 36.7 16.6 50.9l45.1.8 13.8-18.7 14.4 22.2 68.7-8.6c1.8-4.7 4.5-9.1 7.8-13.5 4.8 4.2 7.4 8.9 10 13.6.8-9.5 7.7-19.6 10.6-28.7 4.5 8.6 19.9 28.9 33.1 33.9l114.6 5.6 22.3-14.7 19.4 14.7-14.5-67.6-34.6-14.2 37.5-15.1 2.1-96.9-14.5-21.9 15.2-13.4 5.1-239.63c-5.2-21.09-11.8-24.89-16.9-20.22l-4.2 2.11 2 19.14.7 44.47-7.1 124.23-18.3-137.78c8.8-15.88-3.9-35.38-.6-50.02-67.1 1.24-140.4-13.332-202.8-3.28-14 2.25-23.7 21.31-36.9 24.48-4.3 1.03-13.9-23.45-18.4-23.5z"
       overflow="visible"
       enable-background="accumulate"
       filter="url(#b)"
       fill-rule="evenodd"
       fill="#f6e7d0"
       color="#000"
       id="path8" />
    <path
       d="M354 27.39l-70.3 96.91 46.4 97.6-56.2 43.6 33 74.4-30.2 63.2 69.8 48.8 31.6 29.5 31.6-13.3L365.9 335l55.5-36.5 2.1-146.1-56.9-101.83zM116.6 55.48L89.9 123.6s33.7 65.3 35.8 68.8c2.1 3.6-7 118-7 118l42.8 73.8s9.9-82.9 7.1-83.6c-2.8-.7-29.5-42.1-29.5-42.1l23.8-84.3-36.5-37.2z"
       color="#000"
       overflow="visible"
       fill="#f2dbb9"
       fill-rule="evenodd"
       filter="url(#c)"
       enable-background="accumulate"
       id="path9" />
    <path
       d="M39.33 172.1l-5.62 108.1L74.45 328 42.84 464.9l96.96-39.3 30.2 42.9 74.4-38.7-80.8-169.9-60.4-16.9z"
       color="#000"
       overflow="visible"
       fill="#eed3a4"
       fill-rule="evenodd"
       enable-background="accumulate"
       filter="url(#d)"
       id="path10" />
    <path
       d="M266.9 66.72L324.5 191 434 221.2l21.8-111.6-41.4-68.86z"
       color="#000"
       overflow="visible"
       fill="#eed3a4"
       fill-rule="evenodd"
       enable-background="accumulate"
       filter="url(#e)"
       id="path11" />
  </svg>
  <path
     d="m 394.69452,75.144582 c -2.42326,2.075928 -1.69628,6.86591 1.61551,10.662355 3.31179,3.8126 7.91599,5.185782 10.33925,3.069466 2.42326,-2.075928 1.69629,-6.865911 -1.61551,-10.662355 -2.66559,-2.487883 -7.18901,-5.735055 -10.33925,-3.069466 z m -39.17608,7.108237 c -7.18901,-0.08078 -14.4588,0.888529 -21.56704,2.907915 -18.98222,5.250402 -36.59126,18.982226 -42.89175,41.760896 26.73667,-23.26332 53.31178,-42.972528 89.57995,-23.3441 6.46203,4.03877 12.11631,9.8546 16.80128,16.96284 -2.42326,-1.47011 -6.54281,-0.34734 -9.77382,2.66559 -3.6349,3.43295 -4.84653,8.04523 -2.66559,10.38772 2.18094,2.34248 6.94669,1.45395 10.58158,-2.01939 2.66559,-2.47173 4.11955,-5.68659 3.71567,-8.20678 8.88529,14.74959 13.89337,34.05492 13.8126,53.60257 0,8.72374 -0.96931,17.36671 -2.90792,25.52503 -2.42326,-1.53473 -6.54281,-0.40388 -9.77383,2.58481 -3.63489,3.39257 -4.9273,8.07755 -2.74636,10.42003 1.77706,1.85784 5.2504,1.61551 8.56219,-0.48465 -5.8966,15.18578 -15.67043,27.70597 -29.40225,34.89498 -84.41031,42.56865 -201.37312,43.94183 -308.085528,25.76736 8.400643,11.55089 8.885296,23.42487 -1.534733,35.54119 21.809363,3.71567 44.184151,6.30048 66.728571,7.83521 -33.126,7.43134 -59.297233,16.63974 -71.090444,26.09046 14.701126,8.15832 23.263321,19.14378 16.39741,36.91437 22.940224,-3.63489 57.520174,-16.23586 96.534704,-28.43295 1.37318,2.42327 5.33118,3.6349 9.5315,2.90792 4.9273,-0.88853 8.40064,-4.11955 7.91599,-7.18901 -0.0808,-0.32311 -0.16155,-0.56543 -0.24233,-0.88853 27.05977,-7.916 55.65427,-15.02423 83.60256,-18.25525 -0.72697,2.50404 0.40388,5.89661 2.82714,8.64297 3.3118,3.79645 7.916,5.16963 10.33926,3.06947 2.66559,-5.08885 -0.0808,-9.93538 -3.79645,-12.68174 37.56057,-3.15025 73.34409,1.21163 102.10014,20.3554 15.50888,10.42003 9.93537,45.96122 -6.38126,52.5848 -33.03715,7.26979 -36.59127,-5.41195 -55.25039,-16.31663 4.03877,14.7819 13.57027,25.12115 24.87883,29.96768 7.43134,3.15024 15.4281,4.11954 23.3441,3.06946 -0.72698,0.80776 -1.13086,1.69629 -1.21164,2.66559 -0.16155,3.15024 3.71567,5.97738 8.64297,6.30048 5.00808,0.32311 9.2084,-1.93861 9.45073,-5.08885 0.16155,-2.74636 -2.74637,-5.33117 -7.02746,-6.13893 0.88853,-0.3231 1.69628,-0.6462 2.58481,-0.9693 37.88367,-12.92407 50.88852,-79.72534 5.33118,-99.99997 -18.57835,-7.59289 -44.18416,-11.79322 -73.02098,-13.32795 24.39417,-6.70436 47.41517,-15.26655 68.41678,-25.92891 42.32632,-20.35541 44.0226,-77.78673 44.50726,-100.64617 0,-13.8126 -2.74637,-27.46365 -7.83522,-39.90306 3.15024,0.56543 5.73505,-0.3231 6.70436,-2.26171 1.37318,-2.82714 -0.96931,-6.92246 -5.33118,-9.25687 -2.58481,-1.38933 -5.41195,-1.89822 -7.67366,-1.37318 -7.59289,-13.08562 -17.85137,-24.232621 -29.96768,-31.74474 -11.06624,-5.492728 -22.45557,-8.723745 -32.71405,-8.966071 z m -74.71726,9.69305 c -3.6349,3.441033 -4.84653,8.109851 -2.66559,10.420031 2.18093,2.32633 6.94668,1.42165 10.58158,-2.01939 3.63489,-3.44103 4.84652,-8.109849 2.66559,-10.420026 -3.3118,-2.722132 -8.15832,-0.169629 -10.58158,2.019385 z m 66.80127,21.001611 c -4.6042,1.89014 -7.43134,5.7916 -6.21971,8.72374 1.21163,2.95639 5.89661,3.82068 10.58158,1.93862 0.80776,-0.31503 1.53474,-0.69467 2.26171,-1.13086 -1.53473,3.74798 -0.9693,7.31825 1.21164,8.69143 2.66558,1.69629 7.02746,-0.48465 9.61227,-4.73344 2.58481,-4.29725 2.50404,-9.10339 -0.24233,-10.74313 -1.69628,-1.02584 -4.11954,-0.59773 -6.38125,1.13086 0.0808,-0.68659 0,-1.34087 -0.24233,-1.93861 -2.50404,-3.72375 -7.10824,-3.29564 -10.58158,-1.93861 z m -116.23583,11.14701 c -3.63489,3.43295 -4.84653,8.04523 -2.66559,10.38772 1.77706,1.77706 5.16963,1.61551 8.48142,-0.48466 0.3231,3.15025 4.44265,5.41196 9.36995,5.16963 5.00807,-0.24233 8.96607,-2.98869 8.80452,-6.13893 -0.16155,-3.1664 -4.36187,-5.53312 -9.36995,-5.29887 -1.29241,0.0808 -2.58481,0.31503 -3.79644,0.72698 1.21163,-2.54443 1.05008,-4.94346 -0.24233,-6.38126 -3.31179,-2.72213 -8.15832,-0.16963 -10.58158,2.01939 z m 20.35541,17.17285 c -3.6349,3.47335 -4.84653,8.07754 -2.66559,10.42003 2.18093,2.26171 6.86591,1.37318 10.5008,-2.01938 3.63489,-3.39257 4.9273,-8.07755 2.74637,-10.42003 -3.3118,-2.74637 -8.15832,-0.16155 -10.58158,2.01938 z m 34.24877,-2.42326 c -4.76575,1.53473 -7.91599,5.16963 -6.94668,8.23909 0.9693,2.98869 5.65428,4.20032 10.42003,2.66559 4.76575,-1.53473 7.91599,-5.16963 6.94668,-8.23909 -2.42326,-3.79645 -6.78513,-3.79645 -10.42003,-2.66559 z m 109.53147,12.43941 c -3.15024,0 -5.73505,4.03878 -5.73505,9.04685 0,5.00808 2.58481,9.12762 5.73505,9.12762 3.15025,0 5.73506,-4.03877 5.73506,-9.04684 0,-5.00808 -2.58481,-9.12763 -5.73506,-9.12763 z m -179.80608,8.15832 c -3.6349,3.39257 -4.9273,8.07754 -2.74637,10.42003 2.18094,2.34249 6.94669,1.45396 10.58158,-2.01938 3.6349,-3.47335 4.84653,-8.07755 2.66559,-10.42003 -3.31179,-2.74637 -8.15832,-0.16155 -10.5008,2.01938 z m 94.10336,0.72698 c -8.48142,0 -17.12439,3.15024 -23.50564,9.69305 -6.86592,7.02746 -10.82391,17.68982 -10.09693,30.77544 11.79321,-18.01292 31.90629,-38.126 48.3037,-19.30533 3.39257,4.03877 5.49273,9.93538 4.11955,18.98222 -1.45396,9.28918 -10.17771,18.57835 -26.00969,26.57512 -42.16477,18.33602 -93.69949,19.30532 -143.69947,13.00484 3.23101,-2.50404 6.2197,-8.72374 3.87722,-11.38933 -2.18094,-2.34249 -6.94669,-1.45396 -10.58158,2.01938 -2.50404,2.34249 -3.958,5.41196 -3.71567,7.91599 -29.73343,-4.36187 -58.570258,-10.98545 -84.256842,-17.93214 11.308559,15.50888 3.957996,25.36348 -1.130856,35.86429 78.441008,10.8239 179.571838,27.05976 248.957918,-7.02747 13.08562,-6.5428 22.13247,-19.7092 27.05977,-32.63327 2.34249,1.77706 6.70436,0.72698 10.09693,-2.42326 3.63489,-3.47334 4.84652,-8.07754 2.66559,-10.42003 -1.93861,-2.01938 -5.81583,-1.61551 -9.28918,0.96931 0.16155,-0.80776 0.32311,-1.53473 0.40388,-2.26171 0.48465,-11.30856 -1.29241,-22.94022 -7.35056,-30.61389 -6.21971,-7.35056 -15.18578,-11.30856 -24.15185,-11.79321 z m 131.58316,0.3231 c -3.15024,0.40388 -5.16962,4.76575 -4.6042,9.69305 0.32311,2.58482 1.29241,5.00808 2.74637,6.62359 -2.82714,2.66559 -5.49273,8.31987 -3.23102,10.90468 2.18094,2.26171 6.86591,1.37318 10.50081,-2.01939 3.63489,-3.39256 4.9273,-8.07754 2.74636,-10.42003 -0.48465,-0.48465 -1.05008,-0.80775 -1.77706,-1.05008 0.48465,-1.6155 0.6462,-3.55411 0.40388,-5.41195 -1.29241,-4.20032 -2.90792,-8.07754 -6.78514,-8.31987 z m -61.22777,14.1357 c -3.63489,3.39257 -4.9273,8.07754 -2.74636,10.42003 2.18094,2.34249 6.94669,1.45396 10.58158,-2.01939 3.63489,-3.39256 4.9273,-8.07754 2.74636,-10.42002 -3.31179,-2.74637 -8.15831,-0.16156 -10.58158,2.01938 z M 236.6978,176.5662 c -1.13086,2.90792 1.53473,6.78514 6.13893,8.72375 4.6042,1.93861 9.45072,1.13085 10.66235,-1.77706 1.21164,-2.90792 -1.53473,-6.86591 -6.2197,-8.80452 -3.39257,-1.37319 -9.04685,-1.61551 -10.58158,1.85783 z m -4.6042,30.21001 c -3.6349,3.39257 -4.84653,7.99676 -2.74637,10.33925 2.18094,2.34249 6.86591,1.53474 10.58158,-1.93861 3.6349,-3.47334 4.84653,-8.07754 2.66559,-10.42003 -3.31179,-2.74636 -8.15831,-0.16155 -10.5008,2.01939 z m -37.4798,16.88206 c -4.9273,0.6462 -8.64297,3.71567 -8.23909,6.86591 0.40388,3.15024 4.76575,5.16963 9.77383,4.52343 4.9273,-0.64621 8.64297,-3.71567 8.23909,-6.86592 -2.10016,-4.20032 -6.13893,-4.76575 -9.77383,-4.52342 z m 236.02578,8.23909 c -3.63489,3.47335 -4.84652,8.07755 -2.66559,10.42003 2.18094,2.34249 6.94669,1.45396 10.58158,-2.01938 3.6349,-3.47335 4.84653,-8.07754 2.66559,-10.42003 -3.31179,-2.74637 -8.15832,-0.16155 -10.58158,2.01938 z m -52.98867,-3.31179 c -2.82714,0.0808 -5.73506,3.15024 -6.86591,7.43134 -1.29241,4.84653 0.16155,9.45072 3.23101,10.25848 3.06947,0.80775 6.62359,-2.50404 7.91599,-7.35056 0.3231,-4.36188 0.24233,-10.17771 -4.28109,-10.33926 z m 36.67204,44.10338 c -3.6349,3.47334 -4.84653,8.07754 -2.66559,10.42003 0.88853,0.96931 2.26171,1.45396 3.87722,1.29241 -0.80776,1.45396 -1.29241,3.15024 -1.45396,4.9273 -0.48465,5.00807 1.61551,9.28917 4.76575,9.61227 3.15024,0.40388 6.13893,-3.39256 6.70436,-8.40064 0.48465,-4.20032 -0.9693,-8.07754 -3.47334,-9.28917 l 0.16155,-0.16155 c 3.63489,-3.47335 4.84652,-8.07755 2.66559,-10.42003 -3.3118,-2.74637 -8.15832,-0.16155 -10.58158,2.01938 z m -8.07755,36.51049 c -1.77705,2.66559 0.16156,7.02746 4.2811,9.8546 4.11955,2.82714 8.96607,2.98869 10.74313,0.3231 1.77706,-2.66558 -0.16155,-7.02746 -4.28109,-9.8546 -3.06947,-1.85783 -8.40065,-3.63489 -10.74314,-0.3231 z m -58.23907,28.99838 c -2.82714,1.45396 -3.3118,6.21971 -1.05008,10.66235 2.26171,4.52343 6.46203,7.02746 9.28917,5.57351 2.82714,-1.45396 3.23102,-6.30049 0.9693,-10.74313 -2.34248,-3.39257 -5.33117,-6.78514 -9.20839,-5.49273 z m 84.57186,6.54281 c -2.98869,1.05008 -4.03877,5.73505 -2.42326,10.42003 1.61551,4.76575 5.49273,7.83521 8.48142,6.78513 3.06946,-1.05008 4.11955,-5.81583 2.42326,-10.58158 -1.93861,-3.55412 -4.6042,-7.67366 -8.48142,-6.62358 z m -194.42644,3.55412 c -4.44264,2.34248 -6.86591,6.5428 -5.41195,9.36994 1.53473,2.82714 6.30048,3.15025 10.74313,0.80776 4.44265,-2.34249 6.86591,-6.54281 5.33118,-9.36995 -2.90792,-3.39257 -7.26979,-2.58481 -10.66236,-0.80775 z m 71.6478,19.30532 c -1.77706,2.58481 0.0808,7.02746 4.20032,9.8546 4.20033,2.90792 9.04685,3.06947 10.82391,0.40388 1.77706,-2.66559 -0.16155,-7.02746 -4.2811,-9.8546 -3.06946,-1.85784 -8.40064,-3.71567 -10.74313,-0.40388 z m -146.28428,-1.37318 c -4.76575,-0.0808 -8.64297,2.18094 -8.80453,5.16963 -0.16155,3.15024 3.71567,5.97738 8.72375,6.30048 5.00808,0.3231 9.2084,-1.93861 9.45072,-5.08885 -1.05008,-4.44265 -6.2197,-6.38126 -9.36994,-6.38126 z m 111.79318,7.10824 c -3.6349,3.47334 -4.84653,8.07754 -2.66559,10.42002 2.18094,2.34249 6.94669,1.45396 10.58158,-2.01938 0.6462,-0.6462 1.29241,-1.29241 1.77706,-2.01939 0.3231,2.58482 2.74636,5.33118 6.13893,6.86591 4.52342,2.10017 9.28917,1.53474 10.66236,-1.37318 1.2924,-2.90791 -1.29241,-6.94668 -5.81583,-9.04684 -3.39257,-1.61551 -7.02747,-1.69629 -9.2084,-0.32311 0.40387,-1.85783 0.0808,-3.47334 -0.88853,-4.52342 -3.31179,-2.58481 -8.15832,-0.16155 -10.58158,2.01939 z m -136.10659,6.30048 c -2.98869,0.16155 -5.65428,3.87722 -5.97738,8.64297 -0.40387,5.00807 1.93861,9.28917 5.08885,9.5315 3.15025,0.24232 5.97739,-3.6349 6.38126,-8.64297 -0.48465,-4.44265 -1.53473,-9.12762 -5.49273,-9.5315 z m 224.07102,11.79321 c -3.63489,3.39257 -4.9273,8.07754 -2.74636,10.42003 2.18093,2.34249 6.94668,1.45396 10.58158,-2.01939 3.63489,-3.47334 4.84652,-8.07754 2.66559,-10.42003 -3.3118,-2.74636 -8.15832,-0.16155 -10.50081,2.01939 z m -50.08076,12.27786 c -3.63489,3.47335 -4.84653,8.07755 -2.66559,10.42003 2.18094,2.34249 6.94669,1.45396 10.58158,-2.01938 3.6349,-3.47335 4.84653,-8.07754 2.66559,-10.42003 -3.31179,-2.74637 -8.15832,-0.16155 -10.58158,2.01938 z m 94.02259,6.70436 c -3.63489,3.47335 -4.84653,8.07755 -2.66559,10.42003 2.18094,2.34249 6.94669,1.45396 10.58158,-2.01938 3.6349,-3.47335 4.84653,-8.07754 2.66559,-10.42003 -3.31179,-2.74637 -8.15832,-0.16155 -10.58158,2.01938 z m -72.69788,19.063 c -1.05008,2.98869 1.85784,6.78514 6.62359,8.48142 4.68497,1.69629 9.45072,0.64621 10.5008,-2.34248 1.05008,-2.9887 -1.85783,-6.78514 -6.62358,-8.48142 -3.39257,-1.21164 -9.2084,-0.96931 -10.50081,2.34248 z"
     fill="#3e3126"
     fill-opacity="1"
     id="path12"
     style="fill:#800000;fill-opacity:1;stroke-width:0.807754" />
</svg>
